%TF.GenerationSoftware,KiCad,Pcbnew,10.0.6*%
%TF.CreationDate,2026-09-04T10:41:54+02:00*%
%TF.ProjectId,Dimmer1,44696d6d-6572-4312-9e6b-696361645f70,rev?*%
%TF.SameCoordinates,Original*%
%TF.FileFunction,AssemblyDrawing,Top*%
%FSLAX46Y46*%
G04 Gerber Fmt 4.6, Leading zero omitted, Abs format (unit mm)*
G04 Created by KiCad (PCBNEW 10.0.6) date 2026-09-04 10:41:54*
%MOMM*%
%LPD*%
G01*
G04 APERTURE LIST*
%ADD10C,0.120000*%
%ADD11C,0.150000*%
%ADD12C,0.080000*%
%ADD13C,0.090000*%
%ADD14C,0.100000*%
G04 APERTURE END LIST*
D10*
X18009524Y-28813855D02*
X18009524Y-28013855D01*
X18009524Y-28013855D02*
X18200000Y-28013855D01*
X18200000Y-28013855D02*
X18314286Y-28051950D01*
X18314286Y-28051950D02*
X18390476Y-28128140D01*
X18390476Y-28128140D02*
X18428571Y-28204331D01*
X18428571Y-28204331D02*
X18466667Y-28356712D01*
X18466667Y-28356712D02*
X18466667Y-28470998D01*
X18466667Y-28470998D02*
X18428571Y-28623379D01*
X18428571Y-28623379D02*
X18390476Y-28699569D01*
X18390476Y-28699569D02*
X18314286Y-28775760D01*
X18314286Y-28775760D02*
X18200000Y-28813855D01*
X18200000Y-28813855D02*
X18009524Y-28813855D01*
X19228571Y-28813855D02*
X18771428Y-28813855D01*
X19000000Y-28813855D02*
X19000000Y-28013855D01*
X19000000Y-28013855D02*
X18923809Y-28128140D01*
X18923809Y-28128140D02*
X18847619Y-28204331D01*
X18847619Y-28204331D02*
X18771428Y-28242426D01*
D11*
X17861905Y-31104819D02*
X17861905Y-30104819D01*
X17861905Y-30104819D02*
X18100000Y-30104819D01*
X18100000Y-30104819D02*
X18242857Y-30152438D01*
X18242857Y-30152438D02*
X18338095Y-30247676D01*
X18338095Y-30247676D02*
X18385714Y-30342914D01*
X18385714Y-30342914D02*
X18433333Y-30533390D01*
X18433333Y-30533390D02*
X18433333Y-30676247D01*
X18433333Y-30676247D02*
X18385714Y-30866723D01*
X18385714Y-30866723D02*
X18338095Y-30961961D01*
X18338095Y-30961961D02*
X18242857Y-31057200D01*
X18242857Y-31057200D02*
X18100000Y-31104819D01*
X18100000Y-31104819D02*
X17861905Y-31104819D01*
X19385714Y-31104819D02*
X18814286Y-31104819D01*
X19100000Y-31104819D02*
X19100000Y-30104819D01*
X19100000Y-30104819D02*
X19004762Y-30247676D01*
X19004762Y-30247676D02*
X18909524Y-30342914D01*
X18909524Y-30342914D02*
X18814286Y-30390533D01*
D10*
X8013809Y-35940045D02*
X7937619Y-35901950D01*
X7937619Y-35901950D02*
X7861428Y-35825760D01*
X7861428Y-35825760D02*
X7747142Y-35711474D01*
X7747142Y-35711474D02*
X7670952Y-35673379D01*
X7670952Y-35673379D02*
X7594761Y-35673379D01*
X7632857Y-35863855D02*
X7556666Y-35825760D01*
X7556666Y-35825760D02*
X7480476Y-35749569D01*
X7480476Y-35749569D02*
X7442380Y-35597188D01*
X7442380Y-35597188D02*
X7442380Y-35330521D01*
X7442380Y-35330521D02*
X7480476Y-35178140D01*
X7480476Y-35178140D02*
X7556666Y-35101950D01*
X7556666Y-35101950D02*
X7632857Y-35063855D01*
X7632857Y-35063855D02*
X7785238Y-35063855D01*
X7785238Y-35063855D02*
X7861428Y-35101950D01*
X7861428Y-35101950D02*
X7937619Y-35178140D01*
X7937619Y-35178140D02*
X7975714Y-35330521D01*
X7975714Y-35330521D02*
X7975714Y-35597188D01*
X7975714Y-35597188D02*
X7937619Y-35749569D01*
X7937619Y-35749569D02*
X7861428Y-35825760D01*
X7861428Y-35825760D02*
X7785238Y-35863855D01*
X7785238Y-35863855D02*
X7632857Y-35863855D01*
X8737618Y-35863855D02*
X8280475Y-35863855D01*
X8509047Y-35863855D02*
X8509047Y-35063855D01*
X8509047Y-35063855D02*
X8432856Y-35178140D01*
X8432856Y-35178140D02*
X8356666Y-35254331D01*
X8356666Y-35254331D02*
X8280475Y-35292426D01*
D11*
X7994761Y-40550057D02*
X7899523Y-40502438D01*
X7899523Y-40502438D02*
X7804285Y-40407200D01*
X7804285Y-40407200D02*
X7661428Y-40264342D01*
X7661428Y-40264342D02*
X7566190Y-40216723D01*
X7566190Y-40216723D02*
X7470952Y-40216723D01*
X7518571Y-40454819D02*
X7423333Y-40407200D01*
X7423333Y-40407200D02*
X7328095Y-40311961D01*
X7328095Y-40311961D02*
X7280476Y-40121485D01*
X7280476Y-40121485D02*
X7280476Y-39788152D01*
X7280476Y-39788152D02*
X7328095Y-39597676D01*
X7328095Y-39597676D02*
X7423333Y-39502438D01*
X7423333Y-39502438D02*
X7518571Y-39454819D01*
X7518571Y-39454819D02*
X7709047Y-39454819D01*
X7709047Y-39454819D02*
X7804285Y-39502438D01*
X7804285Y-39502438D02*
X7899523Y-39597676D01*
X7899523Y-39597676D02*
X7947142Y-39788152D01*
X7947142Y-39788152D02*
X7947142Y-40121485D01*
X7947142Y-40121485D02*
X7899523Y-40311961D01*
X7899523Y-40311961D02*
X7804285Y-40407200D01*
X7804285Y-40407200D02*
X7709047Y-40454819D01*
X7709047Y-40454819D02*
X7518571Y-40454819D01*
X8899523Y-40454819D02*
X8328095Y-40454819D01*
X8613809Y-40454819D02*
X8613809Y-39454819D01*
X8613809Y-39454819D02*
X8518571Y-39597676D01*
X8518571Y-39597676D02*
X8423333Y-39692914D01*
X8423333Y-39692914D02*
X8328095Y-39740533D01*
D10*
X10354762Y-23863855D02*
X10088095Y-23482902D01*
X9897619Y-23863855D02*
X9897619Y-23063855D01*
X9897619Y-23063855D02*
X10202381Y-23063855D01*
X10202381Y-23063855D02*
X10278571Y-23101950D01*
X10278571Y-23101950D02*
X10316666Y-23140045D01*
X10316666Y-23140045D02*
X10354762Y-23216236D01*
X10354762Y-23216236D02*
X10354762Y-23330521D01*
X10354762Y-23330521D02*
X10316666Y-23406712D01*
X10316666Y-23406712D02*
X10278571Y-23444807D01*
X10278571Y-23444807D02*
X10202381Y-23482902D01*
X10202381Y-23482902D02*
X9897619Y-23482902D01*
X11116666Y-23863855D02*
X10659523Y-23863855D01*
X10888095Y-23863855D02*
X10888095Y-23063855D01*
X10888095Y-23063855D02*
X10811904Y-23178140D01*
X10811904Y-23178140D02*
X10735714Y-23254331D01*
X10735714Y-23254331D02*
X10659523Y-23292426D01*
X11611905Y-23063855D02*
X11688095Y-23063855D01*
X11688095Y-23063855D02*
X11764286Y-23101950D01*
X11764286Y-23101950D02*
X11802381Y-23140045D01*
X11802381Y-23140045D02*
X11840476Y-23216236D01*
X11840476Y-23216236D02*
X11878571Y-23368617D01*
X11878571Y-23368617D02*
X11878571Y-23559093D01*
X11878571Y-23559093D02*
X11840476Y-23711474D01*
X11840476Y-23711474D02*
X11802381Y-23787664D01*
X11802381Y-23787664D02*
X11764286Y-23825760D01*
X11764286Y-23825760D02*
X11688095Y-23863855D01*
X11688095Y-23863855D02*
X11611905Y-23863855D01*
X11611905Y-23863855D02*
X11535714Y-23825760D01*
X11535714Y-23825760D02*
X11497619Y-23787664D01*
X11497619Y-23787664D02*
X11459524Y-23711474D01*
X11459524Y-23711474D02*
X11421428Y-23559093D01*
X11421428Y-23559093D02*
X11421428Y-23368617D01*
X11421428Y-23368617D02*
X11459524Y-23216236D01*
X11459524Y-23216236D02*
X11497619Y-23140045D01*
X11497619Y-23140045D02*
X11535714Y-23101950D01*
X11535714Y-23101950D02*
X11611905Y-23063855D01*
X12183333Y-23140045D02*
X12221429Y-23101950D01*
X12221429Y-23101950D02*
X12297619Y-23063855D01*
X12297619Y-23063855D02*
X12488095Y-23063855D01*
X12488095Y-23063855D02*
X12564286Y-23101950D01*
X12564286Y-23101950D02*
X12602381Y-23140045D01*
X12602381Y-23140045D02*
X12640476Y-23216236D01*
X12640476Y-23216236D02*
X12640476Y-23292426D01*
X12640476Y-23292426D02*
X12602381Y-23406712D01*
X12602381Y-23406712D02*
X12145238Y-23863855D01*
X12145238Y-23863855D02*
X12640476Y-23863855D01*
D12*
X10690476Y-25377149D02*
X10523810Y-25139054D01*
X10404762Y-25377149D02*
X10404762Y-24877149D01*
X10404762Y-24877149D02*
X10595238Y-24877149D01*
X10595238Y-24877149D02*
X10642857Y-24900959D01*
X10642857Y-24900959D02*
X10666667Y-24924768D01*
X10666667Y-24924768D02*
X10690476Y-24972387D01*
X10690476Y-24972387D02*
X10690476Y-25043816D01*
X10690476Y-25043816D02*
X10666667Y-25091435D01*
X10666667Y-25091435D02*
X10642857Y-25115244D01*
X10642857Y-25115244D02*
X10595238Y-25139054D01*
X10595238Y-25139054D02*
X10404762Y-25139054D01*
X11166667Y-25377149D02*
X10880953Y-25377149D01*
X11023810Y-25377149D02*
X11023810Y-24877149D01*
X11023810Y-24877149D02*
X10976191Y-24948578D01*
X10976191Y-24948578D02*
X10928572Y-24996197D01*
X10928572Y-24996197D02*
X10880953Y-25020006D01*
X11476190Y-24877149D02*
X11523809Y-24877149D01*
X11523809Y-24877149D02*
X11571428Y-24900959D01*
X11571428Y-24900959D02*
X11595238Y-24924768D01*
X11595238Y-24924768D02*
X11619047Y-24972387D01*
X11619047Y-24972387D02*
X11642857Y-25067625D01*
X11642857Y-25067625D02*
X11642857Y-25186673D01*
X11642857Y-25186673D02*
X11619047Y-25281911D01*
X11619047Y-25281911D02*
X11595238Y-25329530D01*
X11595238Y-25329530D02*
X11571428Y-25353340D01*
X11571428Y-25353340D02*
X11523809Y-25377149D01*
X11523809Y-25377149D02*
X11476190Y-25377149D01*
X11476190Y-25377149D02*
X11428571Y-25353340D01*
X11428571Y-25353340D02*
X11404762Y-25329530D01*
X11404762Y-25329530D02*
X11380952Y-25281911D01*
X11380952Y-25281911D02*
X11357143Y-25186673D01*
X11357143Y-25186673D02*
X11357143Y-25067625D01*
X11357143Y-25067625D02*
X11380952Y-24972387D01*
X11380952Y-24972387D02*
X11404762Y-24924768D01*
X11404762Y-24924768D02*
X11428571Y-24900959D01*
X11428571Y-24900959D02*
X11476190Y-24877149D01*
X11833333Y-24924768D02*
X11857142Y-24900959D01*
X11857142Y-24900959D02*
X11904761Y-24877149D01*
X11904761Y-24877149D02*
X12023809Y-24877149D01*
X12023809Y-24877149D02*
X12071428Y-24900959D01*
X12071428Y-24900959D02*
X12095237Y-24924768D01*
X12095237Y-24924768D02*
X12119047Y-24972387D01*
X12119047Y-24972387D02*
X12119047Y-25020006D01*
X12119047Y-25020006D02*
X12095237Y-25091435D01*
X12095237Y-25091435D02*
X11809523Y-25377149D01*
X11809523Y-25377149D02*
X12119047Y-25377149D01*
D10*
X10254762Y-29663855D02*
X9988095Y-29282902D01*
X9797619Y-29663855D02*
X9797619Y-28863855D01*
X9797619Y-28863855D02*
X10102381Y-28863855D01*
X10102381Y-28863855D02*
X10178571Y-28901950D01*
X10178571Y-28901950D02*
X10216666Y-28940045D01*
X10216666Y-28940045D02*
X10254762Y-29016236D01*
X10254762Y-29016236D02*
X10254762Y-29130521D01*
X10254762Y-29130521D02*
X10216666Y-29206712D01*
X10216666Y-29206712D02*
X10178571Y-29244807D01*
X10178571Y-29244807D02*
X10102381Y-29282902D01*
X10102381Y-29282902D02*
X9797619Y-29282902D01*
X11016666Y-29663855D02*
X10559523Y-29663855D01*
X10788095Y-29663855D02*
X10788095Y-28863855D01*
X10788095Y-28863855D02*
X10711904Y-28978140D01*
X10711904Y-28978140D02*
X10635714Y-29054331D01*
X10635714Y-29054331D02*
X10559523Y-29092426D01*
X11511905Y-28863855D02*
X11588095Y-28863855D01*
X11588095Y-28863855D02*
X11664286Y-28901950D01*
X11664286Y-28901950D02*
X11702381Y-28940045D01*
X11702381Y-28940045D02*
X11740476Y-29016236D01*
X11740476Y-29016236D02*
X11778571Y-29168617D01*
X11778571Y-29168617D02*
X11778571Y-29359093D01*
X11778571Y-29359093D02*
X11740476Y-29511474D01*
X11740476Y-29511474D02*
X11702381Y-29587664D01*
X11702381Y-29587664D02*
X11664286Y-29625760D01*
X11664286Y-29625760D02*
X11588095Y-29663855D01*
X11588095Y-29663855D02*
X11511905Y-29663855D01*
X11511905Y-29663855D02*
X11435714Y-29625760D01*
X11435714Y-29625760D02*
X11397619Y-29587664D01*
X11397619Y-29587664D02*
X11359524Y-29511474D01*
X11359524Y-29511474D02*
X11321428Y-29359093D01*
X11321428Y-29359093D02*
X11321428Y-29168617D01*
X11321428Y-29168617D02*
X11359524Y-29016236D01*
X11359524Y-29016236D02*
X11397619Y-28940045D01*
X11397619Y-28940045D02*
X11435714Y-28901950D01*
X11435714Y-28901950D02*
X11511905Y-28863855D01*
X12540476Y-29663855D02*
X12083333Y-29663855D01*
X12311905Y-29663855D02*
X12311905Y-28863855D01*
X12311905Y-28863855D02*
X12235714Y-28978140D01*
X12235714Y-28978140D02*
X12159524Y-29054331D01*
X12159524Y-29054331D02*
X12083333Y-29092426D01*
D12*
X10590476Y-31177149D02*
X10423810Y-30939054D01*
X10304762Y-31177149D02*
X10304762Y-30677149D01*
X10304762Y-30677149D02*
X10495238Y-30677149D01*
X10495238Y-30677149D02*
X10542857Y-30700959D01*
X10542857Y-30700959D02*
X10566667Y-30724768D01*
X10566667Y-30724768D02*
X10590476Y-30772387D01*
X10590476Y-30772387D02*
X10590476Y-30843816D01*
X10590476Y-30843816D02*
X10566667Y-30891435D01*
X10566667Y-30891435D02*
X10542857Y-30915244D01*
X10542857Y-30915244D02*
X10495238Y-30939054D01*
X10495238Y-30939054D02*
X10304762Y-30939054D01*
X11066667Y-31177149D02*
X10780953Y-31177149D01*
X10923810Y-31177149D02*
X10923810Y-30677149D01*
X10923810Y-30677149D02*
X10876191Y-30748578D01*
X10876191Y-30748578D02*
X10828572Y-30796197D01*
X10828572Y-30796197D02*
X10780953Y-30820006D01*
X11376190Y-30677149D02*
X11423809Y-30677149D01*
X11423809Y-30677149D02*
X11471428Y-30700959D01*
X11471428Y-30700959D02*
X11495238Y-30724768D01*
X11495238Y-30724768D02*
X11519047Y-30772387D01*
X11519047Y-30772387D02*
X11542857Y-30867625D01*
X11542857Y-30867625D02*
X11542857Y-30986673D01*
X11542857Y-30986673D02*
X11519047Y-31081911D01*
X11519047Y-31081911D02*
X11495238Y-31129530D01*
X11495238Y-31129530D02*
X11471428Y-31153340D01*
X11471428Y-31153340D02*
X11423809Y-31177149D01*
X11423809Y-31177149D02*
X11376190Y-31177149D01*
X11376190Y-31177149D02*
X11328571Y-31153340D01*
X11328571Y-31153340D02*
X11304762Y-31129530D01*
X11304762Y-31129530D02*
X11280952Y-31081911D01*
X11280952Y-31081911D02*
X11257143Y-30986673D01*
X11257143Y-30986673D02*
X11257143Y-30867625D01*
X11257143Y-30867625D02*
X11280952Y-30772387D01*
X11280952Y-30772387D02*
X11304762Y-30724768D01*
X11304762Y-30724768D02*
X11328571Y-30700959D01*
X11328571Y-30700959D02*
X11376190Y-30677149D01*
X12019047Y-31177149D02*
X11733333Y-31177149D01*
X11876190Y-31177149D02*
X11876190Y-30677149D01*
X11876190Y-30677149D02*
X11828571Y-30748578D01*
X11828571Y-30748578D02*
X11780952Y-30796197D01*
X11780952Y-30796197D02*
X11733333Y-30820006D01*
D10*
X10254762Y-32563855D02*
X9988095Y-32182902D01*
X9797619Y-32563855D02*
X9797619Y-31763855D01*
X9797619Y-31763855D02*
X10102381Y-31763855D01*
X10102381Y-31763855D02*
X10178571Y-31801950D01*
X10178571Y-31801950D02*
X10216666Y-31840045D01*
X10216666Y-31840045D02*
X10254762Y-31916236D01*
X10254762Y-31916236D02*
X10254762Y-32030521D01*
X10254762Y-32030521D02*
X10216666Y-32106712D01*
X10216666Y-32106712D02*
X10178571Y-32144807D01*
X10178571Y-32144807D02*
X10102381Y-32182902D01*
X10102381Y-32182902D02*
X9797619Y-32182902D01*
X11016666Y-32563855D02*
X10559523Y-32563855D01*
X10788095Y-32563855D02*
X10788095Y-31763855D01*
X10788095Y-31763855D02*
X10711904Y-31878140D01*
X10711904Y-31878140D02*
X10635714Y-31954331D01*
X10635714Y-31954331D02*
X10559523Y-31992426D01*
X11511905Y-31763855D02*
X11588095Y-31763855D01*
X11588095Y-31763855D02*
X11664286Y-31801950D01*
X11664286Y-31801950D02*
X11702381Y-31840045D01*
X11702381Y-31840045D02*
X11740476Y-31916236D01*
X11740476Y-31916236D02*
X11778571Y-32068617D01*
X11778571Y-32068617D02*
X11778571Y-32259093D01*
X11778571Y-32259093D02*
X11740476Y-32411474D01*
X11740476Y-32411474D02*
X11702381Y-32487664D01*
X11702381Y-32487664D02*
X11664286Y-32525760D01*
X11664286Y-32525760D02*
X11588095Y-32563855D01*
X11588095Y-32563855D02*
X11511905Y-32563855D01*
X11511905Y-32563855D02*
X11435714Y-32525760D01*
X11435714Y-32525760D02*
X11397619Y-32487664D01*
X11397619Y-32487664D02*
X11359524Y-32411474D01*
X11359524Y-32411474D02*
X11321428Y-32259093D01*
X11321428Y-32259093D02*
X11321428Y-32068617D01*
X11321428Y-32068617D02*
X11359524Y-31916236D01*
X11359524Y-31916236D02*
X11397619Y-31840045D01*
X11397619Y-31840045D02*
X11435714Y-31801950D01*
X11435714Y-31801950D02*
X11511905Y-31763855D01*
X12502381Y-31763855D02*
X12121429Y-31763855D01*
X12121429Y-31763855D02*
X12083333Y-32144807D01*
X12083333Y-32144807D02*
X12121429Y-32106712D01*
X12121429Y-32106712D02*
X12197619Y-32068617D01*
X12197619Y-32068617D02*
X12388095Y-32068617D01*
X12388095Y-32068617D02*
X12464286Y-32106712D01*
X12464286Y-32106712D02*
X12502381Y-32144807D01*
X12502381Y-32144807D02*
X12540476Y-32220998D01*
X12540476Y-32220998D02*
X12540476Y-32411474D01*
X12540476Y-32411474D02*
X12502381Y-32487664D01*
X12502381Y-32487664D02*
X12464286Y-32525760D01*
X12464286Y-32525760D02*
X12388095Y-32563855D01*
X12388095Y-32563855D02*
X12197619Y-32563855D01*
X12197619Y-32563855D02*
X12121429Y-32525760D01*
X12121429Y-32525760D02*
X12083333Y-32487664D01*
D12*
X10590476Y-34077149D02*
X10423810Y-33839054D01*
X10304762Y-34077149D02*
X10304762Y-33577149D01*
X10304762Y-33577149D02*
X10495238Y-33577149D01*
X10495238Y-33577149D02*
X10542857Y-33600959D01*
X10542857Y-33600959D02*
X10566667Y-33624768D01*
X10566667Y-33624768D02*
X10590476Y-33672387D01*
X10590476Y-33672387D02*
X10590476Y-33743816D01*
X10590476Y-33743816D02*
X10566667Y-33791435D01*
X10566667Y-33791435D02*
X10542857Y-33815244D01*
X10542857Y-33815244D02*
X10495238Y-33839054D01*
X10495238Y-33839054D02*
X10304762Y-33839054D01*
X11066667Y-34077149D02*
X10780953Y-34077149D01*
X10923810Y-34077149D02*
X10923810Y-33577149D01*
X10923810Y-33577149D02*
X10876191Y-33648578D01*
X10876191Y-33648578D02*
X10828572Y-33696197D01*
X10828572Y-33696197D02*
X10780953Y-33720006D01*
X11376190Y-33577149D02*
X11423809Y-33577149D01*
X11423809Y-33577149D02*
X11471428Y-33600959D01*
X11471428Y-33600959D02*
X11495238Y-33624768D01*
X11495238Y-33624768D02*
X11519047Y-33672387D01*
X11519047Y-33672387D02*
X11542857Y-33767625D01*
X11542857Y-33767625D02*
X11542857Y-33886673D01*
X11542857Y-33886673D02*
X11519047Y-33981911D01*
X11519047Y-33981911D02*
X11495238Y-34029530D01*
X11495238Y-34029530D02*
X11471428Y-34053340D01*
X11471428Y-34053340D02*
X11423809Y-34077149D01*
X11423809Y-34077149D02*
X11376190Y-34077149D01*
X11376190Y-34077149D02*
X11328571Y-34053340D01*
X11328571Y-34053340D02*
X11304762Y-34029530D01*
X11304762Y-34029530D02*
X11280952Y-33981911D01*
X11280952Y-33981911D02*
X11257143Y-33886673D01*
X11257143Y-33886673D02*
X11257143Y-33767625D01*
X11257143Y-33767625D02*
X11280952Y-33672387D01*
X11280952Y-33672387D02*
X11304762Y-33624768D01*
X11304762Y-33624768D02*
X11328571Y-33600959D01*
X11328571Y-33600959D02*
X11376190Y-33577149D01*
X11995237Y-33577149D02*
X11757142Y-33577149D01*
X11757142Y-33577149D02*
X11733333Y-33815244D01*
X11733333Y-33815244D02*
X11757142Y-33791435D01*
X11757142Y-33791435D02*
X11804761Y-33767625D01*
X11804761Y-33767625D02*
X11923809Y-33767625D01*
X11923809Y-33767625D02*
X11971428Y-33791435D01*
X11971428Y-33791435D02*
X11995237Y-33815244D01*
X11995237Y-33815244D02*
X12019047Y-33862863D01*
X12019047Y-33862863D02*
X12019047Y-33981911D01*
X12019047Y-33981911D02*
X11995237Y-34029530D01*
X11995237Y-34029530D02*
X11971428Y-34053340D01*
X11971428Y-34053340D02*
X11923809Y-34077149D01*
X11923809Y-34077149D02*
X11804761Y-34077149D01*
X11804761Y-34077149D02*
X11757142Y-34053340D01*
X11757142Y-34053340D02*
X11733333Y-34029530D01*
D10*
X45335714Y-15163855D02*
X45069047Y-14782902D01*
X44878571Y-15163855D02*
X44878571Y-14363855D01*
X44878571Y-14363855D02*
X45183333Y-14363855D01*
X45183333Y-14363855D02*
X45259523Y-14401950D01*
X45259523Y-14401950D02*
X45297618Y-14440045D01*
X45297618Y-14440045D02*
X45335714Y-14516236D01*
X45335714Y-14516236D02*
X45335714Y-14630521D01*
X45335714Y-14630521D02*
X45297618Y-14706712D01*
X45297618Y-14706712D02*
X45259523Y-14744807D01*
X45259523Y-14744807D02*
X45183333Y-14782902D01*
X45183333Y-14782902D02*
X44878571Y-14782902D01*
X46097618Y-15163855D02*
X45640475Y-15163855D01*
X45869047Y-15163855D02*
X45869047Y-14363855D01*
X45869047Y-14363855D02*
X45792856Y-14478140D01*
X45792856Y-14478140D02*
X45716666Y-14554331D01*
X45716666Y-14554331D02*
X45640475Y-14592426D01*
X46859523Y-15163855D02*
X46402380Y-15163855D01*
X46630952Y-15163855D02*
X46630952Y-14363855D01*
X46630952Y-14363855D02*
X46554761Y-14478140D01*
X46554761Y-14478140D02*
X46478571Y-14554331D01*
X46478571Y-14554331D02*
X46402380Y-14592426D01*
D12*
X45528571Y-16677149D02*
X45361905Y-16439054D01*
X45242857Y-16677149D02*
X45242857Y-16177149D01*
X45242857Y-16177149D02*
X45433333Y-16177149D01*
X45433333Y-16177149D02*
X45480952Y-16200959D01*
X45480952Y-16200959D02*
X45504762Y-16224768D01*
X45504762Y-16224768D02*
X45528571Y-16272387D01*
X45528571Y-16272387D02*
X45528571Y-16343816D01*
X45528571Y-16343816D02*
X45504762Y-16391435D01*
X45504762Y-16391435D02*
X45480952Y-16415244D01*
X45480952Y-16415244D02*
X45433333Y-16439054D01*
X45433333Y-16439054D02*
X45242857Y-16439054D01*
X46004762Y-16677149D02*
X45719048Y-16677149D01*
X45861905Y-16677149D02*
X45861905Y-16177149D01*
X45861905Y-16177149D02*
X45814286Y-16248578D01*
X45814286Y-16248578D02*
X45766667Y-16296197D01*
X45766667Y-16296197D02*
X45719048Y-16320006D01*
X46480952Y-16677149D02*
X46195238Y-16677149D01*
X46338095Y-16677149D02*
X46338095Y-16177149D01*
X46338095Y-16177149D02*
X46290476Y-16248578D01*
X46290476Y-16248578D02*
X46242857Y-16296197D01*
X46242857Y-16296197D02*
X46195238Y-16320006D01*
D11*
X11666666Y-55454819D02*
X11666666Y-56169104D01*
X11666666Y-56169104D02*
X11619047Y-56311961D01*
X11619047Y-56311961D02*
X11523809Y-56407200D01*
X11523809Y-56407200D02*
X11380952Y-56454819D01*
X11380952Y-56454819D02*
X11285714Y-56454819D01*
X12619047Y-55454819D02*
X12142857Y-55454819D01*
X12142857Y-55454819D02*
X12095238Y-55931009D01*
X12095238Y-55931009D02*
X12142857Y-55883390D01*
X12142857Y-55883390D02*
X12238095Y-55835771D01*
X12238095Y-55835771D02*
X12476190Y-55835771D01*
X12476190Y-55835771D02*
X12571428Y-55883390D01*
X12571428Y-55883390D02*
X12619047Y-55931009D01*
X12619047Y-55931009D02*
X12666666Y-56026247D01*
X12666666Y-56026247D02*
X12666666Y-56264342D01*
X12666666Y-56264342D02*
X12619047Y-56359580D01*
X12619047Y-56359580D02*
X12571428Y-56407200D01*
X12571428Y-56407200D02*
X12476190Y-56454819D01*
X12476190Y-56454819D02*
X12238095Y-56454819D01*
X12238095Y-56454819D02*
X12142857Y-56407200D01*
X12142857Y-56407200D02*
X12095238Y-56359580D01*
X30844285Y-11184819D02*
X30844285Y-11899104D01*
X30844285Y-11899104D02*
X30796666Y-12041961D01*
X30796666Y-12041961D02*
X30701428Y-12137200D01*
X30701428Y-12137200D02*
X30558571Y-12184819D01*
X30558571Y-12184819D02*
X30463333Y-12184819D01*
X31844285Y-12184819D02*
X31272857Y-12184819D01*
X31558571Y-12184819D02*
X31558571Y-11184819D01*
X31558571Y-11184819D02*
X31463333Y-11327676D01*
X31463333Y-11327676D02*
X31368095Y-11422914D01*
X31368095Y-11422914D02*
X31272857Y-11470533D01*
X32463333Y-11184819D02*
X32558571Y-11184819D01*
X32558571Y-11184819D02*
X32653809Y-11232438D01*
X32653809Y-11232438D02*
X32701428Y-11280057D01*
X32701428Y-11280057D02*
X32749047Y-11375295D01*
X32749047Y-11375295D02*
X32796666Y-11565771D01*
X32796666Y-11565771D02*
X32796666Y-11803866D01*
X32796666Y-11803866D02*
X32749047Y-11994342D01*
X32749047Y-11994342D02*
X32701428Y-12089580D01*
X32701428Y-12089580D02*
X32653809Y-12137200D01*
X32653809Y-12137200D02*
X32558571Y-12184819D01*
X32558571Y-12184819D02*
X32463333Y-12184819D01*
X32463333Y-12184819D02*
X32368095Y-12137200D01*
X32368095Y-12137200D02*
X32320476Y-12089580D01*
X32320476Y-12089580D02*
X32272857Y-11994342D01*
X32272857Y-11994342D02*
X32225238Y-11803866D01*
X32225238Y-11803866D02*
X32225238Y-11565771D01*
X32225238Y-11565771D02*
X32272857Y-11375295D01*
X32272857Y-11375295D02*
X32320476Y-11280057D01*
X32320476Y-11280057D02*
X32368095Y-11232438D01*
X32368095Y-11232438D02*
X32463333Y-11184819D01*
X33415714Y-11184819D02*
X33510952Y-11184819D01*
X33510952Y-11184819D02*
X33606190Y-11232438D01*
X33606190Y-11232438D02*
X33653809Y-11280057D01*
X33653809Y-11280057D02*
X33701428Y-11375295D01*
X33701428Y-11375295D02*
X33749047Y-11565771D01*
X33749047Y-11565771D02*
X33749047Y-11803866D01*
X33749047Y-11803866D02*
X33701428Y-11994342D01*
X33701428Y-11994342D02*
X33653809Y-12089580D01*
X33653809Y-12089580D02*
X33606190Y-12137200D01*
X33606190Y-12137200D02*
X33510952Y-12184819D01*
X33510952Y-12184819D02*
X33415714Y-12184819D01*
X33415714Y-12184819D02*
X33320476Y-12137200D01*
X33320476Y-12137200D02*
X33272857Y-12089580D01*
X33272857Y-12089580D02*
X33225238Y-11994342D01*
X33225238Y-11994342D02*
X33177619Y-11803866D01*
X33177619Y-11803866D02*
X33177619Y-11565771D01*
X33177619Y-11565771D02*
X33225238Y-11375295D01*
X33225238Y-11375295D02*
X33272857Y-11280057D01*
X33272857Y-11280057D02*
X33320476Y-11232438D01*
X33320476Y-11232438D02*
X33415714Y-11184819D01*
D10*
X5984762Y-23787664D02*
X5946666Y-23825760D01*
X5946666Y-23825760D02*
X5832381Y-23863855D01*
X5832381Y-23863855D02*
X5756190Y-23863855D01*
X5756190Y-23863855D02*
X5641904Y-23825760D01*
X5641904Y-23825760D02*
X5565714Y-23749569D01*
X5565714Y-23749569D02*
X5527619Y-23673379D01*
X5527619Y-23673379D02*
X5489523Y-23520998D01*
X5489523Y-23520998D02*
X5489523Y-23406712D01*
X5489523Y-23406712D02*
X5527619Y-23254331D01*
X5527619Y-23254331D02*
X5565714Y-23178140D01*
X5565714Y-23178140D02*
X5641904Y-23101950D01*
X5641904Y-23101950D02*
X5756190Y-23063855D01*
X5756190Y-23063855D02*
X5832381Y-23063855D01*
X5832381Y-23063855D02*
X5946666Y-23101950D01*
X5946666Y-23101950D02*
X5984762Y-23140045D01*
X6746666Y-23863855D02*
X6289523Y-23863855D01*
X6518095Y-23863855D02*
X6518095Y-23063855D01*
X6518095Y-23063855D02*
X6441904Y-23178140D01*
X6441904Y-23178140D02*
X6365714Y-23254331D01*
X6365714Y-23254331D02*
X6289523Y-23292426D01*
X7241905Y-23063855D02*
X7318095Y-23063855D01*
X7318095Y-23063855D02*
X7394286Y-23101950D01*
X7394286Y-23101950D02*
X7432381Y-23140045D01*
X7432381Y-23140045D02*
X7470476Y-23216236D01*
X7470476Y-23216236D02*
X7508571Y-23368617D01*
X7508571Y-23368617D02*
X7508571Y-23559093D01*
X7508571Y-23559093D02*
X7470476Y-23711474D01*
X7470476Y-23711474D02*
X7432381Y-23787664D01*
X7432381Y-23787664D02*
X7394286Y-23825760D01*
X7394286Y-23825760D02*
X7318095Y-23863855D01*
X7318095Y-23863855D02*
X7241905Y-23863855D01*
X7241905Y-23863855D02*
X7165714Y-23825760D01*
X7165714Y-23825760D02*
X7127619Y-23787664D01*
X7127619Y-23787664D02*
X7089524Y-23711474D01*
X7089524Y-23711474D02*
X7051428Y-23559093D01*
X7051428Y-23559093D02*
X7051428Y-23368617D01*
X7051428Y-23368617D02*
X7089524Y-23216236D01*
X7089524Y-23216236D02*
X7127619Y-23140045D01*
X7127619Y-23140045D02*
X7165714Y-23101950D01*
X7165714Y-23101950D02*
X7241905Y-23063855D01*
X8270476Y-23863855D02*
X7813333Y-23863855D01*
X8041905Y-23863855D02*
X8041905Y-23063855D01*
X8041905Y-23063855D02*
X7965714Y-23178140D01*
X7965714Y-23178140D02*
X7889524Y-23254331D01*
X7889524Y-23254331D02*
X7813333Y-23292426D01*
D12*
X6320476Y-25359530D02*
X6296667Y-25383340D01*
X6296667Y-25383340D02*
X6225238Y-25407149D01*
X6225238Y-25407149D02*
X6177619Y-25407149D01*
X6177619Y-25407149D02*
X6106191Y-25383340D01*
X6106191Y-25383340D02*
X6058572Y-25335720D01*
X6058572Y-25335720D02*
X6034762Y-25288101D01*
X6034762Y-25288101D02*
X6010953Y-25192863D01*
X6010953Y-25192863D02*
X6010953Y-25121435D01*
X6010953Y-25121435D02*
X6034762Y-25026197D01*
X6034762Y-25026197D02*
X6058572Y-24978578D01*
X6058572Y-24978578D02*
X6106191Y-24930959D01*
X6106191Y-24930959D02*
X6177619Y-24907149D01*
X6177619Y-24907149D02*
X6225238Y-24907149D01*
X6225238Y-24907149D02*
X6296667Y-24930959D01*
X6296667Y-24930959D02*
X6320476Y-24954768D01*
X6796667Y-25407149D02*
X6510953Y-25407149D01*
X6653810Y-25407149D02*
X6653810Y-24907149D01*
X6653810Y-24907149D02*
X6606191Y-24978578D01*
X6606191Y-24978578D02*
X6558572Y-25026197D01*
X6558572Y-25026197D02*
X6510953Y-25050006D01*
X7106190Y-24907149D02*
X7153809Y-24907149D01*
X7153809Y-24907149D02*
X7201428Y-24930959D01*
X7201428Y-24930959D02*
X7225238Y-24954768D01*
X7225238Y-24954768D02*
X7249047Y-25002387D01*
X7249047Y-25002387D02*
X7272857Y-25097625D01*
X7272857Y-25097625D02*
X7272857Y-25216673D01*
X7272857Y-25216673D02*
X7249047Y-25311911D01*
X7249047Y-25311911D02*
X7225238Y-25359530D01*
X7225238Y-25359530D02*
X7201428Y-25383340D01*
X7201428Y-25383340D02*
X7153809Y-25407149D01*
X7153809Y-25407149D02*
X7106190Y-25407149D01*
X7106190Y-25407149D02*
X7058571Y-25383340D01*
X7058571Y-25383340D02*
X7034762Y-25359530D01*
X7034762Y-25359530D02*
X7010952Y-25311911D01*
X7010952Y-25311911D02*
X6987143Y-25216673D01*
X6987143Y-25216673D02*
X6987143Y-25097625D01*
X6987143Y-25097625D02*
X7010952Y-25002387D01*
X7010952Y-25002387D02*
X7034762Y-24954768D01*
X7034762Y-24954768D02*
X7058571Y-24930959D01*
X7058571Y-24930959D02*
X7106190Y-24907149D01*
X7749047Y-25407149D02*
X7463333Y-25407149D01*
X7606190Y-25407149D02*
X7606190Y-24907149D01*
X7606190Y-24907149D02*
X7558571Y-24978578D01*
X7558571Y-24978578D02*
X7510952Y-25026197D01*
X7510952Y-25026197D02*
X7463333Y-25050006D01*
D10*
X15908571Y-23363855D02*
X15908571Y-24011474D01*
X15908571Y-24011474D02*
X15946666Y-24087664D01*
X15946666Y-24087664D02*
X15984761Y-24125760D01*
X15984761Y-24125760D02*
X16060952Y-24163855D01*
X16060952Y-24163855D02*
X16213333Y-24163855D01*
X16213333Y-24163855D02*
X16289523Y-24125760D01*
X16289523Y-24125760D02*
X16327618Y-24087664D01*
X16327618Y-24087664D02*
X16365714Y-24011474D01*
X16365714Y-24011474D02*
X16365714Y-23363855D01*
X17165713Y-24163855D02*
X16708570Y-24163855D01*
X16937142Y-24163855D02*
X16937142Y-23363855D01*
X16937142Y-23363855D02*
X16860951Y-23478140D01*
X16860951Y-23478140D02*
X16784761Y-23554331D01*
X16784761Y-23554331D02*
X16708570Y-23592426D01*
X17660952Y-23363855D02*
X17737142Y-23363855D01*
X17737142Y-23363855D02*
X17813333Y-23401950D01*
X17813333Y-23401950D02*
X17851428Y-23440045D01*
X17851428Y-23440045D02*
X17889523Y-23516236D01*
X17889523Y-23516236D02*
X17927618Y-23668617D01*
X17927618Y-23668617D02*
X17927618Y-23859093D01*
X17927618Y-23859093D02*
X17889523Y-24011474D01*
X17889523Y-24011474D02*
X17851428Y-24087664D01*
X17851428Y-24087664D02*
X17813333Y-24125760D01*
X17813333Y-24125760D02*
X17737142Y-24163855D01*
X17737142Y-24163855D02*
X17660952Y-24163855D01*
X17660952Y-24163855D02*
X17584761Y-24125760D01*
X17584761Y-24125760D02*
X17546666Y-24087664D01*
X17546666Y-24087664D02*
X17508571Y-24011474D01*
X17508571Y-24011474D02*
X17470475Y-23859093D01*
X17470475Y-23859093D02*
X17470475Y-23668617D01*
X17470475Y-23668617D02*
X17508571Y-23516236D01*
X17508571Y-23516236D02*
X17546666Y-23440045D01*
X17546666Y-23440045D02*
X17584761Y-23401950D01*
X17584761Y-23401950D02*
X17660952Y-23363855D01*
X18232380Y-23440045D02*
X18270476Y-23401950D01*
X18270476Y-23401950D02*
X18346666Y-23363855D01*
X18346666Y-23363855D02*
X18537142Y-23363855D01*
X18537142Y-23363855D02*
X18613333Y-23401950D01*
X18613333Y-23401950D02*
X18651428Y-23440045D01*
X18651428Y-23440045D02*
X18689523Y-23516236D01*
X18689523Y-23516236D02*
X18689523Y-23592426D01*
X18689523Y-23592426D02*
X18651428Y-23706712D01*
X18651428Y-23706712D02*
X18194285Y-24163855D01*
X18194285Y-24163855D02*
X18689523Y-24163855D01*
D13*
X16302857Y-25439012D02*
X16302857Y-25900441D01*
X16302857Y-25900441D02*
X16330000Y-25954727D01*
X16330000Y-25954727D02*
X16357143Y-25981870D01*
X16357143Y-25981870D02*
X16411428Y-26009012D01*
X16411428Y-26009012D02*
X16520000Y-26009012D01*
X16520000Y-26009012D02*
X16574285Y-25981870D01*
X16574285Y-25981870D02*
X16601428Y-25954727D01*
X16601428Y-25954727D02*
X16628571Y-25900441D01*
X16628571Y-25900441D02*
X16628571Y-25439012D01*
X17198571Y-26009012D02*
X16872857Y-26009012D01*
X17035714Y-26009012D02*
X17035714Y-25439012D01*
X17035714Y-25439012D02*
X16981428Y-25520441D01*
X16981428Y-25520441D02*
X16927143Y-25574727D01*
X16927143Y-25574727D02*
X16872857Y-25601870D01*
X17551428Y-25439012D02*
X17605714Y-25439012D01*
X17605714Y-25439012D02*
X17660000Y-25466155D01*
X17660000Y-25466155D02*
X17687143Y-25493298D01*
X17687143Y-25493298D02*
X17714285Y-25547584D01*
X17714285Y-25547584D02*
X17741428Y-25656155D01*
X17741428Y-25656155D02*
X17741428Y-25791870D01*
X17741428Y-25791870D02*
X17714285Y-25900441D01*
X17714285Y-25900441D02*
X17687143Y-25954727D01*
X17687143Y-25954727D02*
X17660000Y-25981870D01*
X17660000Y-25981870D02*
X17605714Y-26009012D01*
X17605714Y-26009012D02*
X17551428Y-26009012D01*
X17551428Y-26009012D02*
X17497143Y-25981870D01*
X17497143Y-25981870D02*
X17470000Y-25954727D01*
X17470000Y-25954727D02*
X17442857Y-25900441D01*
X17442857Y-25900441D02*
X17415714Y-25791870D01*
X17415714Y-25791870D02*
X17415714Y-25656155D01*
X17415714Y-25656155D02*
X17442857Y-25547584D01*
X17442857Y-25547584D02*
X17470000Y-25493298D01*
X17470000Y-25493298D02*
X17497143Y-25466155D01*
X17497143Y-25466155D02*
X17551428Y-25439012D01*
X17958571Y-25493298D02*
X17985714Y-25466155D01*
X17985714Y-25466155D02*
X18040000Y-25439012D01*
X18040000Y-25439012D02*
X18175714Y-25439012D01*
X18175714Y-25439012D02*
X18230000Y-25466155D01*
X18230000Y-25466155D02*
X18257142Y-25493298D01*
X18257142Y-25493298D02*
X18284285Y-25547584D01*
X18284285Y-25547584D02*
X18284285Y-25601870D01*
X18284285Y-25601870D02*
X18257142Y-25683298D01*
X18257142Y-25683298D02*
X17931428Y-26009012D01*
X17931428Y-26009012D02*
X18284285Y-26009012D01*
D10*
X11471428Y556144D02*
X11471428Y-15283D01*
X11471428Y-15283D02*
X11433333Y-129569D01*
X11433333Y-129569D02*
X11357142Y-205760D01*
X11357142Y-205760D02*
X11242857Y-243855D01*
X11242857Y-243855D02*
X11166666Y-243855D01*
X12271428Y-243855D02*
X11814285Y-243855D01*
X12042857Y-243855D02*
X12042857Y556144D01*
X12042857Y556144D02*
X11966666Y441859D01*
X11966666Y441859D02*
X11890476Y365668D01*
X11890476Y365668D02*
X11814285Y327573D01*
X12766667Y556144D02*
X12842857Y556144D01*
X12842857Y556144D02*
X12919048Y518049D01*
X12919048Y518049D02*
X12957143Y479954D01*
X12957143Y479954D02*
X12995238Y403763D01*
X12995238Y403763D02*
X13033333Y251382D01*
X13033333Y251382D02*
X13033333Y60906D01*
X13033333Y60906D02*
X12995238Y-91474D01*
X12995238Y-91474D02*
X12957143Y-167664D01*
X12957143Y-167664D02*
X12919048Y-205760D01*
X12919048Y-205760D02*
X12842857Y-243855D01*
X12842857Y-243855D02*
X12766667Y-243855D01*
X12766667Y-243855D02*
X12690476Y-205760D01*
X12690476Y-205760D02*
X12652381Y-167664D01*
X12652381Y-167664D02*
X12614286Y-91474D01*
X12614286Y-91474D02*
X12576190Y60906D01*
X12576190Y60906D02*
X12576190Y251382D01*
X12576190Y251382D02*
X12614286Y403763D01*
X12614286Y403763D02*
X12652381Y479954D01*
X12652381Y479954D02*
X12690476Y518049D01*
X12690476Y518049D02*
X12766667Y556144D01*
X13795238Y-243855D02*
X13338095Y-243855D01*
X13566667Y-243855D02*
X13566667Y556144D01*
X13566667Y556144D02*
X13490476Y441859D01*
X13490476Y441859D02*
X13414286Y365668D01*
X13414286Y365668D02*
X13338095Y327573D01*
D11*
X11954819Y-5305714D02*
X12669104Y-5305714D01*
X12669104Y-5305714D02*
X12811961Y-5353333D01*
X12811961Y-5353333D02*
X12907200Y-5448571D01*
X12907200Y-5448571D02*
X12954819Y-5591428D01*
X12954819Y-5591428D02*
X12954819Y-5686666D01*
X12954819Y-4305714D02*
X12954819Y-4877142D01*
X12954819Y-4591428D02*
X11954819Y-4591428D01*
X11954819Y-4591428D02*
X12097676Y-4686666D01*
X12097676Y-4686666D02*
X12192914Y-4781904D01*
X12192914Y-4781904D02*
X12240533Y-4877142D01*
X11954819Y-3686666D02*
X11954819Y-3591428D01*
X11954819Y-3591428D02*
X12002438Y-3496190D01*
X12002438Y-3496190D02*
X12050057Y-3448571D01*
X12050057Y-3448571D02*
X12145295Y-3400952D01*
X12145295Y-3400952D02*
X12335771Y-3353333D01*
X12335771Y-3353333D02*
X12573866Y-3353333D01*
X12573866Y-3353333D02*
X12764342Y-3400952D01*
X12764342Y-3400952D02*
X12859580Y-3448571D01*
X12859580Y-3448571D02*
X12907200Y-3496190D01*
X12907200Y-3496190D02*
X12954819Y-3591428D01*
X12954819Y-3591428D02*
X12954819Y-3686666D01*
X12954819Y-3686666D02*
X12907200Y-3781904D01*
X12907200Y-3781904D02*
X12859580Y-3829523D01*
X12859580Y-3829523D02*
X12764342Y-3877142D01*
X12764342Y-3877142D02*
X12573866Y-3924761D01*
X12573866Y-3924761D02*
X12335771Y-3924761D01*
X12335771Y-3924761D02*
X12145295Y-3877142D01*
X12145295Y-3877142D02*
X12050057Y-3829523D01*
X12050057Y-3829523D02*
X12002438Y-3781904D01*
X12002438Y-3781904D02*
X11954819Y-3686666D01*
X12954819Y-2400952D02*
X12954819Y-2972380D01*
X12954819Y-2686666D02*
X11954819Y-2686666D01*
X11954819Y-2686666D02*
X12097676Y-2781904D01*
X12097676Y-2781904D02*
X12192914Y-2877142D01*
X12192914Y-2877142D02*
X12240533Y-2972380D01*
D10*
X20678571Y-23363855D02*
X20678571Y-24011474D01*
X20678571Y-24011474D02*
X20716666Y-24087664D01*
X20716666Y-24087664D02*
X20754761Y-24125760D01*
X20754761Y-24125760D02*
X20830952Y-24163855D01*
X20830952Y-24163855D02*
X20983333Y-24163855D01*
X20983333Y-24163855D02*
X21059523Y-24125760D01*
X21059523Y-24125760D02*
X21097618Y-24087664D01*
X21097618Y-24087664D02*
X21135714Y-24011474D01*
X21135714Y-24011474D02*
X21135714Y-23363855D01*
X21935713Y-24163855D02*
X21478570Y-24163855D01*
X21707142Y-24163855D02*
X21707142Y-23363855D01*
X21707142Y-23363855D02*
X21630951Y-23478140D01*
X21630951Y-23478140D02*
X21554761Y-23554331D01*
X21554761Y-23554331D02*
X21478570Y-23592426D01*
X22430952Y-23363855D02*
X22507142Y-23363855D01*
X22507142Y-23363855D02*
X22583333Y-23401950D01*
X22583333Y-23401950D02*
X22621428Y-23440045D01*
X22621428Y-23440045D02*
X22659523Y-23516236D01*
X22659523Y-23516236D02*
X22697618Y-23668617D01*
X22697618Y-23668617D02*
X22697618Y-23859093D01*
X22697618Y-23859093D02*
X22659523Y-24011474D01*
X22659523Y-24011474D02*
X22621428Y-24087664D01*
X22621428Y-24087664D02*
X22583333Y-24125760D01*
X22583333Y-24125760D02*
X22507142Y-24163855D01*
X22507142Y-24163855D02*
X22430952Y-24163855D01*
X22430952Y-24163855D02*
X22354761Y-24125760D01*
X22354761Y-24125760D02*
X22316666Y-24087664D01*
X22316666Y-24087664D02*
X22278571Y-24011474D01*
X22278571Y-24011474D02*
X22240475Y-23859093D01*
X22240475Y-23859093D02*
X22240475Y-23668617D01*
X22240475Y-23668617D02*
X22278571Y-23516236D01*
X22278571Y-23516236D02*
X22316666Y-23440045D01*
X22316666Y-23440045D02*
X22354761Y-23401950D01*
X22354761Y-23401950D02*
X22430952Y-23363855D01*
X22964285Y-23363855D02*
X23459523Y-23363855D01*
X23459523Y-23363855D02*
X23192857Y-23668617D01*
X23192857Y-23668617D02*
X23307142Y-23668617D01*
X23307142Y-23668617D02*
X23383333Y-23706712D01*
X23383333Y-23706712D02*
X23421428Y-23744807D01*
X23421428Y-23744807D02*
X23459523Y-23820998D01*
X23459523Y-23820998D02*
X23459523Y-24011474D01*
X23459523Y-24011474D02*
X23421428Y-24087664D01*
X23421428Y-24087664D02*
X23383333Y-24125760D01*
X23383333Y-24125760D02*
X23307142Y-24163855D01*
X23307142Y-24163855D02*
X23078571Y-24163855D01*
X23078571Y-24163855D02*
X23002380Y-24125760D01*
X23002380Y-24125760D02*
X22964285Y-24087664D01*
D12*
X21777149Y-26457142D02*
X22181911Y-26457142D01*
X22181911Y-26457142D02*
X22229530Y-26433332D01*
X22229530Y-26433332D02*
X22253340Y-26409523D01*
X22253340Y-26409523D02*
X22277149Y-26361904D01*
X22277149Y-26361904D02*
X22277149Y-26266666D01*
X22277149Y-26266666D02*
X22253340Y-26219047D01*
X22253340Y-26219047D02*
X22229530Y-26195237D01*
X22229530Y-26195237D02*
X22181911Y-26171428D01*
X22181911Y-26171428D02*
X21777149Y-26171428D01*
X22277149Y-25671427D02*
X22277149Y-25957141D01*
X22277149Y-25814284D02*
X21777149Y-25814284D01*
X21777149Y-25814284D02*
X21848578Y-25861903D01*
X21848578Y-25861903D02*
X21896197Y-25909522D01*
X21896197Y-25909522D02*
X21920006Y-25957141D01*
X21777149Y-25361904D02*
X21777149Y-25314285D01*
X21777149Y-25314285D02*
X21800959Y-25266666D01*
X21800959Y-25266666D02*
X21824768Y-25242856D01*
X21824768Y-25242856D02*
X21872387Y-25219047D01*
X21872387Y-25219047D02*
X21967625Y-25195237D01*
X21967625Y-25195237D02*
X22086673Y-25195237D01*
X22086673Y-25195237D02*
X22181911Y-25219047D01*
X22181911Y-25219047D02*
X22229530Y-25242856D01*
X22229530Y-25242856D02*
X22253340Y-25266666D01*
X22253340Y-25266666D02*
X22277149Y-25314285D01*
X22277149Y-25314285D02*
X22277149Y-25361904D01*
X22277149Y-25361904D02*
X22253340Y-25409523D01*
X22253340Y-25409523D02*
X22229530Y-25433332D01*
X22229530Y-25433332D02*
X22181911Y-25457142D01*
X22181911Y-25457142D02*
X22086673Y-25480951D01*
X22086673Y-25480951D02*
X21967625Y-25480951D01*
X21967625Y-25480951D02*
X21872387Y-25457142D01*
X21872387Y-25457142D02*
X21824768Y-25433332D01*
X21824768Y-25433332D02*
X21800959Y-25409523D01*
X21800959Y-25409523D02*
X21777149Y-25361904D01*
X21777149Y-25028571D02*
X21777149Y-24719047D01*
X21777149Y-24719047D02*
X21967625Y-24885714D01*
X21967625Y-24885714D02*
X21967625Y-24814285D01*
X21967625Y-24814285D02*
X21991435Y-24766666D01*
X21991435Y-24766666D02*
X22015244Y-24742857D01*
X22015244Y-24742857D02*
X22062863Y-24719047D01*
X22062863Y-24719047D02*
X22181911Y-24719047D01*
X22181911Y-24719047D02*
X22229530Y-24742857D01*
X22229530Y-24742857D02*
X22253340Y-24766666D01*
X22253340Y-24766666D02*
X22277149Y-24814285D01*
X22277149Y-24814285D02*
X22277149Y-24957142D01*
X22277149Y-24957142D02*
X22253340Y-25004761D01*
X22253340Y-25004761D02*
X22229530Y-25028571D01*
D10*
X5954762Y-29663855D02*
X5688095Y-29282902D01*
X5497619Y-29663855D02*
X5497619Y-28863855D01*
X5497619Y-28863855D02*
X5802381Y-28863855D01*
X5802381Y-28863855D02*
X5878571Y-28901950D01*
X5878571Y-28901950D02*
X5916666Y-28940045D01*
X5916666Y-28940045D02*
X5954762Y-29016236D01*
X5954762Y-29016236D02*
X5954762Y-29130521D01*
X5954762Y-29130521D02*
X5916666Y-29206712D01*
X5916666Y-29206712D02*
X5878571Y-29244807D01*
X5878571Y-29244807D02*
X5802381Y-29282902D01*
X5802381Y-29282902D02*
X5497619Y-29282902D01*
X6716666Y-29663855D02*
X6259523Y-29663855D01*
X6488095Y-29663855D02*
X6488095Y-28863855D01*
X6488095Y-28863855D02*
X6411904Y-28978140D01*
X6411904Y-28978140D02*
X6335714Y-29054331D01*
X6335714Y-29054331D02*
X6259523Y-29092426D01*
X7211905Y-28863855D02*
X7288095Y-28863855D01*
X7288095Y-28863855D02*
X7364286Y-28901950D01*
X7364286Y-28901950D02*
X7402381Y-28940045D01*
X7402381Y-28940045D02*
X7440476Y-29016236D01*
X7440476Y-29016236D02*
X7478571Y-29168617D01*
X7478571Y-29168617D02*
X7478571Y-29359093D01*
X7478571Y-29359093D02*
X7440476Y-29511474D01*
X7440476Y-29511474D02*
X7402381Y-29587664D01*
X7402381Y-29587664D02*
X7364286Y-29625760D01*
X7364286Y-29625760D02*
X7288095Y-29663855D01*
X7288095Y-29663855D02*
X7211905Y-29663855D01*
X7211905Y-29663855D02*
X7135714Y-29625760D01*
X7135714Y-29625760D02*
X7097619Y-29587664D01*
X7097619Y-29587664D02*
X7059524Y-29511474D01*
X7059524Y-29511474D02*
X7021428Y-29359093D01*
X7021428Y-29359093D02*
X7021428Y-29168617D01*
X7021428Y-29168617D02*
X7059524Y-29016236D01*
X7059524Y-29016236D02*
X7097619Y-28940045D01*
X7097619Y-28940045D02*
X7135714Y-28901950D01*
X7135714Y-28901950D02*
X7211905Y-28863855D01*
X7973810Y-28863855D02*
X8050000Y-28863855D01*
X8050000Y-28863855D02*
X8126191Y-28901950D01*
X8126191Y-28901950D02*
X8164286Y-28940045D01*
X8164286Y-28940045D02*
X8202381Y-29016236D01*
X8202381Y-29016236D02*
X8240476Y-29168617D01*
X8240476Y-29168617D02*
X8240476Y-29359093D01*
X8240476Y-29359093D02*
X8202381Y-29511474D01*
X8202381Y-29511474D02*
X8164286Y-29587664D01*
X8164286Y-29587664D02*
X8126191Y-29625760D01*
X8126191Y-29625760D02*
X8050000Y-29663855D01*
X8050000Y-29663855D02*
X7973810Y-29663855D01*
X7973810Y-29663855D02*
X7897619Y-29625760D01*
X7897619Y-29625760D02*
X7859524Y-29587664D01*
X7859524Y-29587664D02*
X7821429Y-29511474D01*
X7821429Y-29511474D02*
X7783333Y-29359093D01*
X7783333Y-29359093D02*
X7783333Y-29168617D01*
X7783333Y-29168617D02*
X7821429Y-29016236D01*
X7821429Y-29016236D02*
X7859524Y-28940045D01*
X7859524Y-28940045D02*
X7897619Y-28901950D01*
X7897619Y-28901950D02*
X7973810Y-28863855D01*
D12*
X6290476Y-31177149D02*
X6123810Y-30939054D01*
X6004762Y-31177149D02*
X6004762Y-30677149D01*
X6004762Y-30677149D02*
X6195238Y-30677149D01*
X6195238Y-30677149D02*
X6242857Y-30700959D01*
X6242857Y-30700959D02*
X6266667Y-30724768D01*
X6266667Y-30724768D02*
X6290476Y-30772387D01*
X6290476Y-30772387D02*
X6290476Y-30843816D01*
X6290476Y-30843816D02*
X6266667Y-30891435D01*
X6266667Y-30891435D02*
X6242857Y-30915244D01*
X6242857Y-30915244D02*
X6195238Y-30939054D01*
X6195238Y-30939054D02*
X6004762Y-30939054D01*
X6766667Y-31177149D02*
X6480953Y-31177149D01*
X6623810Y-31177149D02*
X6623810Y-30677149D01*
X6623810Y-30677149D02*
X6576191Y-30748578D01*
X6576191Y-30748578D02*
X6528572Y-30796197D01*
X6528572Y-30796197D02*
X6480953Y-30820006D01*
X7076190Y-30677149D02*
X7123809Y-30677149D01*
X7123809Y-30677149D02*
X7171428Y-30700959D01*
X7171428Y-30700959D02*
X7195238Y-30724768D01*
X7195238Y-30724768D02*
X7219047Y-30772387D01*
X7219047Y-30772387D02*
X7242857Y-30867625D01*
X7242857Y-30867625D02*
X7242857Y-30986673D01*
X7242857Y-30986673D02*
X7219047Y-31081911D01*
X7219047Y-31081911D02*
X7195238Y-31129530D01*
X7195238Y-31129530D02*
X7171428Y-31153340D01*
X7171428Y-31153340D02*
X7123809Y-31177149D01*
X7123809Y-31177149D02*
X7076190Y-31177149D01*
X7076190Y-31177149D02*
X7028571Y-31153340D01*
X7028571Y-31153340D02*
X7004762Y-31129530D01*
X7004762Y-31129530D02*
X6980952Y-31081911D01*
X6980952Y-31081911D02*
X6957143Y-30986673D01*
X6957143Y-30986673D02*
X6957143Y-30867625D01*
X6957143Y-30867625D02*
X6980952Y-30772387D01*
X6980952Y-30772387D02*
X7004762Y-30724768D01*
X7004762Y-30724768D02*
X7028571Y-30700959D01*
X7028571Y-30700959D02*
X7076190Y-30677149D01*
X7552380Y-30677149D02*
X7599999Y-30677149D01*
X7599999Y-30677149D02*
X7647618Y-30700959D01*
X7647618Y-30700959D02*
X7671428Y-30724768D01*
X7671428Y-30724768D02*
X7695237Y-30772387D01*
X7695237Y-30772387D02*
X7719047Y-30867625D01*
X7719047Y-30867625D02*
X7719047Y-30986673D01*
X7719047Y-30986673D02*
X7695237Y-31081911D01*
X7695237Y-31081911D02*
X7671428Y-31129530D01*
X7671428Y-31129530D02*
X7647618Y-31153340D01*
X7647618Y-31153340D02*
X7599999Y-31177149D01*
X7599999Y-31177149D02*
X7552380Y-31177149D01*
X7552380Y-31177149D02*
X7504761Y-31153340D01*
X7504761Y-31153340D02*
X7480952Y-31129530D01*
X7480952Y-31129530D02*
X7457142Y-31081911D01*
X7457142Y-31081911D02*
X7433333Y-30986673D01*
X7433333Y-30986673D02*
X7433333Y-30867625D01*
X7433333Y-30867625D02*
X7457142Y-30772387D01*
X7457142Y-30772387D02*
X7480952Y-30724768D01*
X7480952Y-30724768D02*
X7504761Y-30700959D01*
X7504761Y-30700959D02*
X7552380Y-30677149D01*
D10*
X5078571Y-19863855D02*
X5078571Y-20511474D01*
X5078571Y-20511474D02*
X5116666Y-20587664D01*
X5116666Y-20587664D02*
X5154761Y-20625760D01*
X5154761Y-20625760D02*
X5230952Y-20663855D01*
X5230952Y-20663855D02*
X5383333Y-20663855D01*
X5383333Y-20663855D02*
X5459523Y-20625760D01*
X5459523Y-20625760D02*
X5497618Y-20587664D01*
X5497618Y-20587664D02*
X5535714Y-20511474D01*
X5535714Y-20511474D02*
X5535714Y-19863855D01*
X6335713Y-20663855D02*
X5878570Y-20663855D01*
X6107142Y-20663855D02*
X6107142Y-19863855D01*
X6107142Y-19863855D02*
X6030951Y-19978140D01*
X6030951Y-19978140D02*
X5954761Y-20054331D01*
X5954761Y-20054331D02*
X5878570Y-20092426D01*
X6830952Y-19863855D02*
X6907142Y-19863855D01*
X6907142Y-19863855D02*
X6983333Y-19901950D01*
X6983333Y-19901950D02*
X7021428Y-19940045D01*
X7021428Y-19940045D02*
X7059523Y-20016236D01*
X7059523Y-20016236D02*
X7097618Y-20168617D01*
X7097618Y-20168617D02*
X7097618Y-20359093D01*
X7097618Y-20359093D02*
X7059523Y-20511474D01*
X7059523Y-20511474D02*
X7021428Y-20587664D01*
X7021428Y-20587664D02*
X6983333Y-20625760D01*
X6983333Y-20625760D02*
X6907142Y-20663855D01*
X6907142Y-20663855D02*
X6830952Y-20663855D01*
X6830952Y-20663855D02*
X6754761Y-20625760D01*
X6754761Y-20625760D02*
X6716666Y-20587664D01*
X6716666Y-20587664D02*
X6678571Y-20511474D01*
X6678571Y-20511474D02*
X6640475Y-20359093D01*
X6640475Y-20359093D02*
X6640475Y-20168617D01*
X6640475Y-20168617D02*
X6678571Y-20016236D01*
X6678571Y-20016236D02*
X6716666Y-19940045D01*
X6716666Y-19940045D02*
X6754761Y-19901950D01*
X6754761Y-19901950D02*
X6830952Y-19863855D01*
X7859523Y-20663855D02*
X7402380Y-20663855D01*
X7630952Y-20663855D02*
X7630952Y-19863855D01*
X7630952Y-19863855D02*
X7554761Y-19978140D01*
X7554761Y-19978140D02*
X7478571Y-20054331D01*
X7478571Y-20054331D02*
X7402380Y-20092426D01*
D12*
X6177149Y-22957142D02*
X6581911Y-22957142D01*
X6581911Y-22957142D02*
X6629530Y-22933332D01*
X6629530Y-22933332D02*
X6653340Y-22909523D01*
X6653340Y-22909523D02*
X6677149Y-22861904D01*
X6677149Y-22861904D02*
X6677149Y-22766666D01*
X6677149Y-22766666D02*
X6653340Y-22719047D01*
X6653340Y-22719047D02*
X6629530Y-22695237D01*
X6629530Y-22695237D02*
X6581911Y-22671428D01*
X6581911Y-22671428D02*
X6177149Y-22671428D01*
X6677149Y-22171427D02*
X6677149Y-22457141D01*
X6677149Y-22314284D02*
X6177149Y-22314284D01*
X6177149Y-22314284D02*
X6248578Y-22361903D01*
X6248578Y-22361903D02*
X6296197Y-22409522D01*
X6296197Y-22409522D02*
X6320006Y-22457141D01*
X6177149Y-21861904D02*
X6177149Y-21814285D01*
X6177149Y-21814285D02*
X6200959Y-21766666D01*
X6200959Y-21766666D02*
X6224768Y-21742856D01*
X6224768Y-21742856D02*
X6272387Y-21719047D01*
X6272387Y-21719047D02*
X6367625Y-21695237D01*
X6367625Y-21695237D02*
X6486673Y-21695237D01*
X6486673Y-21695237D02*
X6581911Y-21719047D01*
X6581911Y-21719047D02*
X6629530Y-21742856D01*
X6629530Y-21742856D02*
X6653340Y-21766666D01*
X6653340Y-21766666D02*
X6677149Y-21814285D01*
X6677149Y-21814285D02*
X6677149Y-21861904D01*
X6677149Y-21861904D02*
X6653340Y-21909523D01*
X6653340Y-21909523D02*
X6629530Y-21933332D01*
X6629530Y-21933332D02*
X6581911Y-21957142D01*
X6581911Y-21957142D02*
X6486673Y-21980951D01*
X6486673Y-21980951D02*
X6367625Y-21980951D01*
X6367625Y-21980951D02*
X6272387Y-21957142D01*
X6272387Y-21957142D02*
X6224768Y-21933332D01*
X6224768Y-21933332D02*
X6200959Y-21909523D01*
X6200959Y-21909523D02*
X6177149Y-21861904D01*
X6677149Y-21219047D02*
X6677149Y-21504761D01*
X6677149Y-21361904D02*
X6177149Y-21361904D01*
X6177149Y-21361904D02*
X6248578Y-21409523D01*
X6248578Y-21409523D02*
X6296197Y-21457142D01*
X6296197Y-21457142D02*
X6320006Y-21504761D01*
D10*
X25316667Y-15163855D02*
X25050000Y-14782902D01*
X24859524Y-15163855D02*
X24859524Y-14363855D01*
X24859524Y-14363855D02*
X25164286Y-14363855D01*
X25164286Y-14363855D02*
X25240476Y-14401950D01*
X25240476Y-14401950D02*
X25278571Y-14440045D01*
X25278571Y-14440045D02*
X25316667Y-14516236D01*
X25316667Y-14516236D02*
X25316667Y-14630521D01*
X25316667Y-14630521D02*
X25278571Y-14706712D01*
X25278571Y-14706712D02*
X25240476Y-14744807D01*
X25240476Y-14744807D02*
X25164286Y-14782902D01*
X25164286Y-14782902D02*
X24859524Y-14782902D01*
X26078571Y-14401950D02*
X26002381Y-14363855D01*
X26002381Y-14363855D02*
X25888095Y-14363855D01*
X25888095Y-14363855D02*
X25773809Y-14401950D01*
X25773809Y-14401950D02*
X25697619Y-14478140D01*
X25697619Y-14478140D02*
X25659524Y-14554331D01*
X25659524Y-14554331D02*
X25621428Y-14706712D01*
X25621428Y-14706712D02*
X25621428Y-14820998D01*
X25621428Y-14820998D02*
X25659524Y-14973379D01*
X25659524Y-14973379D02*
X25697619Y-15049569D01*
X25697619Y-15049569D02*
X25773809Y-15125760D01*
X25773809Y-15125760D02*
X25888095Y-15163855D01*
X25888095Y-15163855D02*
X25964286Y-15163855D01*
X25964286Y-15163855D02*
X26078571Y-15125760D01*
X26078571Y-15125760D02*
X26116667Y-15087664D01*
X26116667Y-15087664D02*
X26116667Y-14820998D01*
X26116667Y-14820998D02*
X25964286Y-14820998D01*
X26878571Y-15163855D02*
X26421428Y-15163855D01*
X26650000Y-15163855D02*
X26650000Y-14363855D01*
X26650000Y-14363855D02*
X26573809Y-14478140D01*
X26573809Y-14478140D02*
X26497619Y-14554331D01*
X26497619Y-14554331D02*
X26421428Y-14592426D01*
D12*
X25516666Y-16677149D02*
X25350000Y-16439054D01*
X25230952Y-16677149D02*
X25230952Y-16177149D01*
X25230952Y-16177149D02*
X25421428Y-16177149D01*
X25421428Y-16177149D02*
X25469047Y-16200959D01*
X25469047Y-16200959D02*
X25492857Y-16224768D01*
X25492857Y-16224768D02*
X25516666Y-16272387D01*
X25516666Y-16272387D02*
X25516666Y-16343816D01*
X25516666Y-16343816D02*
X25492857Y-16391435D01*
X25492857Y-16391435D02*
X25469047Y-16415244D01*
X25469047Y-16415244D02*
X25421428Y-16439054D01*
X25421428Y-16439054D02*
X25230952Y-16439054D01*
X25992857Y-16200959D02*
X25945238Y-16177149D01*
X25945238Y-16177149D02*
X25873809Y-16177149D01*
X25873809Y-16177149D02*
X25802381Y-16200959D01*
X25802381Y-16200959D02*
X25754762Y-16248578D01*
X25754762Y-16248578D02*
X25730952Y-16296197D01*
X25730952Y-16296197D02*
X25707143Y-16391435D01*
X25707143Y-16391435D02*
X25707143Y-16462863D01*
X25707143Y-16462863D02*
X25730952Y-16558101D01*
X25730952Y-16558101D02*
X25754762Y-16605720D01*
X25754762Y-16605720D02*
X25802381Y-16653340D01*
X25802381Y-16653340D02*
X25873809Y-16677149D01*
X25873809Y-16677149D02*
X25921428Y-16677149D01*
X25921428Y-16677149D02*
X25992857Y-16653340D01*
X25992857Y-16653340D02*
X26016666Y-16629530D01*
X26016666Y-16629530D02*
X26016666Y-16462863D01*
X26016666Y-16462863D02*
X25921428Y-16462863D01*
X26492857Y-16677149D02*
X26207143Y-16677149D01*
X26350000Y-16677149D02*
X26350000Y-16177149D01*
X26350000Y-16177149D02*
X26302381Y-16248578D01*
X26302381Y-16248578D02*
X26254762Y-16296197D01*
X26254762Y-16296197D02*
X26207143Y-16320006D01*
D10*
X50035714Y-15163855D02*
X49769047Y-14782902D01*
X49578571Y-15163855D02*
X49578571Y-14363855D01*
X49578571Y-14363855D02*
X49883333Y-14363855D01*
X49883333Y-14363855D02*
X49959523Y-14401950D01*
X49959523Y-14401950D02*
X49997618Y-14440045D01*
X49997618Y-14440045D02*
X50035714Y-14516236D01*
X50035714Y-14516236D02*
X50035714Y-14630521D01*
X50035714Y-14630521D02*
X49997618Y-14706712D01*
X49997618Y-14706712D02*
X49959523Y-14744807D01*
X49959523Y-14744807D02*
X49883333Y-14782902D01*
X49883333Y-14782902D02*
X49578571Y-14782902D01*
X50797618Y-15163855D02*
X50340475Y-15163855D01*
X50569047Y-15163855D02*
X50569047Y-14363855D01*
X50569047Y-14363855D02*
X50492856Y-14478140D01*
X50492856Y-14478140D02*
X50416666Y-14554331D01*
X50416666Y-14554331D02*
X50340475Y-14592426D01*
X51102380Y-14440045D02*
X51140476Y-14401950D01*
X51140476Y-14401950D02*
X51216666Y-14363855D01*
X51216666Y-14363855D02*
X51407142Y-14363855D01*
X51407142Y-14363855D02*
X51483333Y-14401950D01*
X51483333Y-14401950D02*
X51521428Y-14440045D01*
X51521428Y-14440045D02*
X51559523Y-14516236D01*
X51559523Y-14516236D02*
X51559523Y-14592426D01*
X51559523Y-14592426D02*
X51521428Y-14706712D01*
X51521428Y-14706712D02*
X51064285Y-15163855D01*
X51064285Y-15163855D02*
X51559523Y-15163855D01*
D12*
X50228571Y-16677149D02*
X50061905Y-16439054D01*
X49942857Y-16677149D02*
X49942857Y-16177149D01*
X49942857Y-16177149D02*
X50133333Y-16177149D01*
X50133333Y-16177149D02*
X50180952Y-16200959D01*
X50180952Y-16200959D02*
X50204762Y-16224768D01*
X50204762Y-16224768D02*
X50228571Y-16272387D01*
X50228571Y-16272387D02*
X50228571Y-16343816D01*
X50228571Y-16343816D02*
X50204762Y-16391435D01*
X50204762Y-16391435D02*
X50180952Y-16415244D01*
X50180952Y-16415244D02*
X50133333Y-16439054D01*
X50133333Y-16439054D02*
X49942857Y-16439054D01*
X50704762Y-16677149D02*
X50419048Y-16677149D01*
X50561905Y-16677149D02*
X50561905Y-16177149D01*
X50561905Y-16177149D02*
X50514286Y-16248578D01*
X50514286Y-16248578D02*
X50466667Y-16296197D01*
X50466667Y-16296197D02*
X50419048Y-16320006D01*
X50895238Y-16224768D02*
X50919047Y-16200959D01*
X50919047Y-16200959D02*
X50966666Y-16177149D01*
X50966666Y-16177149D02*
X51085714Y-16177149D01*
X51085714Y-16177149D02*
X51133333Y-16200959D01*
X51133333Y-16200959D02*
X51157142Y-16224768D01*
X51157142Y-16224768D02*
X51180952Y-16272387D01*
X51180952Y-16272387D02*
X51180952Y-16320006D01*
X51180952Y-16320006D02*
X51157142Y-16391435D01*
X51157142Y-16391435D02*
X50871428Y-16677149D01*
X50871428Y-16677149D02*
X51180952Y-16677149D01*
D10*
X28128571Y-21413855D02*
X28128571Y-20613855D01*
X28128571Y-20613855D02*
X28319047Y-20613855D01*
X28319047Y-20613855D02*
X28433333Y-20651950D01*
X28433333Y-20651950D02*
X28509523Y-20728140D01*
X28509523Y-20728140D02*
X28547618Y-20804331D01*
X28547618Y-20804331D02*
X28585714Y-20956712D01*
X28585714Y-20956712D02*
X28585714Y-21070998D01*
X28585714Y-21070998D02*
X28547618Y-21223379D01*
X28547618Y-21223379D02*
X28509523Y-21299569D01*
X28509523Y-21299569D02*
X28433333Y-21375760D01*
X28433333Y-21375760D02*
X28319047Y-21413855D01*
X28319047Y-21413855D02*
X28128571Y-21413855D01*
X29347618Y-21413855D02*
X28890475Y-21413855D01*
X29119047Y-21413855D02*
X29119047Y-20613855D01*
X29119047Y-20613855D02*
X29042856Y-20728140D01*
X29042856Y-20728140D02*
X28966666Y-20804331D01*
X28966666Y-20804331D02*
X28890475Y-20842426D01*
X29842857Y-20613855D02*
X29919047Y-20613855D01*
X29919047Y-20613855D02*
X29995238Y-20651950D01*
X29995238Y-20651950D02*
X30033333Y-20690045D01*
X30033333Y-20690045D02*
X30071428Y-20766236D01*
X30071428Y-20766236D02*
X30109523Y-20918617D01*
X30109523Y-20918617D02*
X30109523Y-21109093D01*
X30109523Y-21109093D02*
X30071428Y-21261474D01*
X30071428Y-21261474D02*
X30033333Y-21337664D01*
X30033333Y-21337664D02*
X29995238Y-21375760D01*
X29995238Y-21375760D02*
X29919047Y-21413855D01*
X29919047Y-21413855D02*
X29842857Y-21413855D01*
X29842857Y-21413855D02*
X29766666Y-21375760D01*
X29766666Y-21375760D02*
X29728571Y-21337664D01*
X29728571Y-21337664D02*
X29690476Y-21261474D01*
X29690476Y-21261474D02*
X29652380Y-21109093D01*
X29652380Y-21109093D02*
X29652380Y-20918617D01*
X29652380Y-20918617D02*
X29690476Y-20766236D01*
X29690476Y-20766236D02*
X29728571Y-20690045D01*
X29728571Y-20690045D02*
X29766666Y-20651950D01*
X29766666Y-20651950D02*
X29842857Y-20613855D01*
D11*
X27885714Y-23704819D02*
X27885714Y-22704819D01*
X27885714Y-22704819D02*
X28123809Y-22704819D01*
X28123809Y-22704819D02*
X28266666Y-22752438D01*
X28266666Y-22752438D02*
X28361904Y-22847676D01*
X28361904Y-22847676D02*
X28409523Y-22942914D01*
X28409523Y-22942914D02*
X28457142Y-23133390D01*
X28457142Y-23133390D02*
X28457142Y-23276247D01*
X28457142Y-23276247D02*
X28409523Y-23466723D01*
X28409523Y-23466723D02*
X28361904Y-23561961D01*
X28361904Y-23561961D02*
X28266666Y-23657200D01*
X28266666Y-23657200D02*
X28123809Y-23704819D01*
X28123809Y-23704819D02*
X27885714Y-23704819D01*
X29409523Y-23704819D02*
X28838095Y-23704819D01*
X29123809Y-23704819D02*
X29123809Y-22704819D01*
X29123809Y-22704819D02*
X29028571Y-22847676D01*
X29028571Y-22847676D02*
X28933333Y-22942914D01*
X28933333Y-22942914D02*
X28838095Y-22990533D01*
X30028571Y-22704819D02*
X30123809Y-22704819D01*
X30123809Y-22704819D02*
X30219047Y-22752438D01*
X30219047Y-22752438D02*
X30266666Y-22800057D01*
X30266666Y-22800057D02*
X30314285Y-22895295D01*
X30314285Y-22895295D02*
X30361904Y-23085771D01*
X30361904Y-23085771D02*
X30361904Y-23323866D01*
X30361904Y-23323866D02*
X30314285Y-23514342D01*
X30314285Y-23514342D02*
X30266666Y-23609580D01*
X30266666Y-23609580D02*
X30219047Y-23657200D01*
X30219047Y-23657200D02*
X30123809Y-23704819D01*
X30123809Y-23704819D02*
X30028571Y-23704819D01*
X30028571Y-23704819D02*
X29933333Y-23657200D01*
X29933333Y-23657200D02*
X29885714Y-23609580D01*
X29885714Y-23609580D02*
X29838095Y-23514342D01*
X29838095Y-23514342D02*
X29790476Y-23323866D01*
X29790476Y-23323866D02*
X29790476Y-23085771D01*
X29790476Y-23085771D02*
X29838095Y-22895295D01*
X29838095Y-22895295D02*
X29885714Y-22800057D01*
X29885714Y-22800057D02*
X29933333Y-22752438D01*
X29933333Y-22752438D02*
X30028571Y-22704819D01*
D10*
X50932857Y-20940045D02*
X50856667Y-20901950D01*
X50856667Y-20901950D02*
X50780476Y-20825760D01*
X50780476Y-20825760D02*
X50666190Y-20711474D01*
X50666190Y-20711474D02*
X50590000Y-20673379D01*
X50590000Y-20673379D02*
X50513809Y-20673379D01*
X50551905Y-20863855D02*
X50475714Y-20825760D01*
X50475714Y-20825760D02*
X50399524Y-20749569D01*
X50399524Y-20749569D02*
X50361428Y-20597188D01*
X50361428Y-20597188D02*
X50361428Y-20330521D01*
X50361428Y-20330521D02*
X50399524Y-20178140D01*
X50399524Y-20178140D02*
X50475714Y-20101950D01*
X50475714Y-20101950D02*
X50551905Y-20063855D01*
X50551905Y-20063855D02*
X50704286Y-20063855D01*
X50704286Y-20063855D02*
X50780476Y-20101950D01*
X50780476Y-20101950D02*
X50856667Y-20178140D01*
X50856667Y-20178140D02*
X50894762Y-20330521D01*
X50894762Y-20330521D02*
X50894762Y-20597188D01*
X50894762Y-20597188D02*
X50856667Y-20749569D01*
X50856667Y-20749569D02*
X50780476Y-20825760D01*
X50780476Y-20825760D02*
X50704286Y-20863855D01*
X50704286Y-20863855D02*
X50551905Y-20863855D01*
X51656666Y-20863855D02*
X51199523Y-20863855D01*
X51428095Y-20863855D02*
X51428095Y-20063855D01*
X51428095Y-20063855D02*
X51351904Y-20178140D01*
X51351904Y-20178140D02*
X51275714Y-20254331D01*
X51275714Y-20254331D02*
X51199523Y-20292426D01*
X52151905Y-20063855D02*
X52228095Y-20063855D01*
X52228095Y-20063855D02*
X52304286Y-20101950D01*
X52304286Y-20101950D02*
X52342381Y-20140045D01*
X52342381Y-20140045D02*
X52380476Y-20216236D01*
X52380476Y-20216236D02*
X52418571Y-20368617D01*
X52418571Y-20368617D02*
X52418571Y-20559093D01*
X52418571Y-20559093D02*
X52380476Y-20711474D01*
X52380476Y-20711474D02*
X52342381Y-20787664D01*
X52342381Y-20787664D02*
X52304286Y-20825760D01*
X52304286Y-20825760D02*
X52228095Y-20863855D01*
X52228095Y-20863855D02*
X52151905Y-20863855D01*
X52151905Y-20863855D02*
X52075714Y-20825760D01*
X52075714Y-20825760D02*
X52037619Y-20787664D01*
X52037619Y-20787664D02*
X51999524Y-20711474D01*
X51999524Y-20711474D02*
X51961428Y-20559093D01*
X51961428Y-20559093D02*
X51961428Y-20368617D01*
X51961428Y-20368617D02*
X51999524Y-20216236D01*
X51999524Y-20216236D02*
X52037619Y-20140045D01*
X52037619Y-20140045D02*
X52075714Y-20101950D01*
X52075714Y-20101950D02*
X52151905Y-20063855D01*
D11*
X50818571Y-25550057D02*
X50723333Y-25502438D01*
X50723333Y-25502438D02*
X50628095Y-25407200D01*
X50628095Y-25407200D02*
X50485238Y-25264342D01*
X50485238Y-25264342D02*
X50390000Y-25216723D01*
X50390000Y-25216723D02*
X50294762Y-25216723D01*
X50342381Y-25454819D02*
X50247143Y-25407200D01*
X50247143Y-25407200D02*
X50151905Y-25311961D01*
X50151905Y-25311961D02*
X50104286Y-25121485D01*
X50104286Y-25121485D02*
X50104286Y-24788152D01*
X50104286Y-24788152D02*
X50151905Y-24597676D01*
X50151905Y-24597676D02*
X50247143Y-24502438D01*
X50247143Y-24502438D02*
X50342381Y-24454819D01*
X50342381Y-24454819D02*
X50532857Y-24454819D01*
X50532857Y-24454819D02*
X50628095Y-24502438D01*
X50628095Y-24502438D02*
X50723333Y-24597676D01*
X50723333Y-24597676D02*
X50770952Y-24788152D01*
X50770952Y-24788152D02*
X50770952Y-25121485D01*
X50770952Y-25121485D02*
X50723333Y-25311961D01*
X50723333Y-25311961D02*
X50628095Y-25407200D01*
X50628095Y-25407200D02*
X50532857Y-25454819D01*
X50532857Y-25454819D02*
X50342381Y-25454819D01*
X51723333Y-25454819D02*
X51151905Y-25454819D01*
X51437619Y-25454819D02*
X51437619Y-24454819D01*
X51437619Y-24454819D02*
X51342381Y-24597676D01*
X51342381Y-24597676D02*
X51247143Y-24692914D01*
X51247143Y-24692914D02*
X51151905Y-24740533D01*
X52342381Y-24454819D02*
X52437619Y-24454819D01*
X52437619Y-24454819D02*
X52532857Y-24502438D01*
X52532857Y-24502438D02*
X52580476Y-24550057D01*
X52580476Y-24550057D02*
X52628095Y-24645295D01*
X52628095Y-24645295D02*
X52675714Y-24835771D01*
X52675714Y-24835771D02*
X52675714Y-25073866D01*
X52675714Y-25073866D02*
X52628095Y-25264342D01*
X52628095Y-25264342D02*
X52580476Y-25359580D01*
X52580476Y-25359580D02*
X52532857Y-25407200D01*
X52532857Y-25407200D02*
X52437619Y-25454819D01*
X52437619Y-25454819D02*
X52342381Y-25454819D01*
X52342381Y-25454819D02*
X52247143Y-25407200D01*
X52247143Y-25407200D02*
X52199524Y-25359580D01*
X52199524Y-25359580D02*
X52151905Y-25264342D01*
X52151905Y-25264342D02*
X52104286Y-25073866D01*
X52104286Y-25073866D02*
X52104286Y-24835771D01*
X52104286Y-24835771D02*
X52151905Y-24645295D01*
X52151905Y-24645295D02*
X52199524Y-24550057D01*
X52199524Y-24550057D02*
X52247143Y-24502438D01*
X52247143Y-24502438D02*
X52342381Y-24454819D01*
D10*
X25316667Y-18263855D02*
X25050000Y-17882902D01*
X24859524Y-18263855D02*
X24859524Y-17463855D01*
X24859524Y-17463855D02*
X25164286Y-17463855D01*
X25164286Y-17463855D02*
X25240476Y-17501950D01*
X25240476Y-17501950D02*
X25278571Y-17540045D01*
X25278571Y-17540045D02*
X25316667Y-17616236D01*
X25316667Y-17616236D02*
X25316667Y-17730521D01*
X25316667Y-17730521D02*
X25278571Y-17806712D01*
X25278571Y-17806712D02*
X25240476Y-17844807D01*
X25240476Y-17844807D02*
X25164286Y-17882902D01*
X25164286Y-17882902D02*
X24859524Y-17882902D01*
X25659524Y-18263855D02*
X25659524Y-17463855D01*
X25659524Y-17463855D02*
X25964286Y-17463855D01*
X25964286Y-17463855D02*
X26040476Y-17501950D01*
X26040476Y-17501950D02*
X26078571Y-17540045D01*
X26078571Y-17540045D02*
X26116667Y-17616236D01*
X26116667Y-17616236D02*
X26116667Y-17730521D01*
X26116667Y-17730521D02*
X26078571Y-17806712D01*
X26078571Y-17806712D02*
X26040476Y-17844807D01*
X26040476Y-17844807D02*
X25964286Y-17882902D01*
X25964286Y-17882902D02*
X25659524Y-17882902D01*
X26878571Y-18263855D02*
X26421428Y-18263855D01*
X26650000Y-18263855D02*
X26650000Y-17463855D01*
X26650000Y-17463855D02*
X26573809Y-17578140D01*
X26573809Y-17578140D02*
X26497619Y-17654331D01*
X26497619Y-17654331D02*
X26421428Y-17692426D01*
D12*
X25516666Y-19777149D02*
X25350000Y-19539054D01*
X25230952Y-19777149D02*
X25230952Y-19277149D01*
X25230952Y-19277149D02*
X25421428Y-19277149D01*
X25421428Y-19277149D02*
X25469047Y-19300959D01*
X25469047Y-19300959D02*
X25492857Y-19324768D01*
X25492857Y-19324768D02*
X25516666Y-19372387D01*
X25516666Y-19372387D02*
X25516666Y-19443816D01*
X25516666Y-19443816D02*
X25492857Y-19491435D01*
X25492857Y-19491435D02*
X25469047Y-19515244D01*
X25469047Y-19515244D02*
X25421428Y-19539054D01*
X25421428Y-19539054D02*
X25230952Y-19539054D01*
X25730952Y-19777149D02*
X25730952Y-19277149D01*
X25730952Y-19277149D02*
X25921428Y-19277149D01*
X25921428Y-19277149D02*
X25969047Y-19300959D01*
X25969047Y-19300959D02*
X25992857Y-19324768D01*
X25992857Y-19324768D02*
X26016666Y-19372387D01*
X26016666Y-19372387D02*
X26016666Y-19443816D01*
X26016666Y-19443816D02*
X25992857Y-19491435D01*
X25992857Y-19491435D02*
X25969047Y-19515244D01*
X25969047Y-19515244D02*
X25921428Y-19539054D01*
X25921428Y-19539054D02*
X25730952Y-19539054D01*
X26492857Y-19777149D02*
X26207143Y-19777149D01*
X26350000Y-19777149D02*
X26350000Y-19277149D01*
X26350000Y-19277149D02*
X26302381Y-19348578D01*
X26302381Y-19348578D02*
X26254762Y-19396197D01*
X26254762Y-19396197D02*
X26207143Y-19420006D01*
D10*
X5954762Y-32563855D02*
X5688095Y-32182902D01*
X5497619Y-32563855D02*
X5497619Y-31763855D01*
X5497619Y-31763855D02*
X5802381Y-31763855D01*
X5802381Y-31763855D02*
X5878571Y-31801950D01*
X5878571Y-31801950D02*
X5916666Y-31840045D01*
X5916666Y-31840045D02*
X5954762Y-31916236D01*
X5954762Y-31916236D02*
X5954762Y-32030521D01*
X5954762Y-32030521D02*
X5916666Y-32106712D01*
X5916666Y-32106712D02*
X5878571Y-32144807D01*
X5878571Y-32144807D02*
X5802381Y-32182902D01*
X5802381Y-32182902D02*
X5497619Y-32182902D01*
X6716666Y-32563855D02*
X6259523Y-32563855D01*
X6488095Y-32563855D02*
X6488095Y-31763855D01*
X6488095Y-31763855D02*
X6411904Y-31878140D01*
X6411904Y-31878140D02*
X6335714Y-31954331D01*
X6335714Y-31954331D02*
X6259523Y-31992426D01*
X7211905Y-31763855D02*
X7288095Y-31763855D01*
X7288095Y-31763855D02*
X7364286Y-31801950D01*
X7364286Y-31801950D02*
X7402381Y-31840045D01*
X7402381Y-31840045D02*
X7440476Y-31916236D01*
X7440476Y-31916236D02*
X7478571Y-32068617D01*
X7478571Y-32068617D02*
X7478571Y-32259093D01*
X7478571Y-32259093D02*
X7440476Y-32411474D01*
X7440476Y-32411474D02*
X7402381Y-32487664D01*
X7402381Y-32487664D02*
X7364286Y-32525760D01*
X7364286Y-32525760D02*
X7288095Y-32563855D01*
X7288095Y-32563855D02*
X7211905Y-32563855D01*
X7211905Y-32563855D02*
X7135714Y-32525760D01*
X7135714Y-32525760D02*
X7097619Y-32487664D01*
X7097619Y-32487664D02*
X7059524Y-32411474D01*
X7059524Y-32411474D02*
X7021428Y-32259093D01*
X7021428Y-32259093D02*
X7021428Y-32068617D01*
X7021428Y-32068617D02*
X7059524Y-31916236D01*
X7059524Y-31916236D02*
X7097619Y-31840045D01*
X7097619Y-31840045D02*
X7135714Y-31801950D01*
X7135714Y-31801950D02*
X7211905Y-31763855D01*
X8164286Y-32030521D02*
X8164286Y-32563855D01*
X7973810Y-31725760D02*
X7783333Y-32297188D01*
X7783333Y-32297188D02*
X8278572Y-32297188D01*
D12*
X6290476Y-34077149D02*
X6123810Y-33839054D01*
X6004762Y-34077149D02*
X6004762Y-33577149D01*
X6004762Y-33577149D02*
X6195238Y-33577149D01*
X6195238Y-33577149D02*
X6242857Y-33600959D01*
X6242857Y-33600959D02*
X6266667Y-33624768D01*
X6266667Y-33624768D02*
X6290476Y-33672387D01*
X6290476Y-33672387D02*
X6290476Y-33743816D01*
X6290476Y-33743816D02*
X6266667Y-33791435D01*
X6266667Y-33791435D02*
X6242857Y-33815244D01*
X6242857Y-33815244D02*
X6195238Y-33839054D01*
X6195238Y-33839054D02*
X6004762Y-33839054D01*
X6766667Y-34077149D02*
X6480953Y-34077149D01*
X6623810Y-34077149D02*
X6623810Y-33577149D01*
X6623810Y-33577149D02*
X6576191Y-33648578D01*
X6576191Y-33648578D02*
X6528572Y-33696197D01*
X6528572Y-33696197D02*
X6480953Y-33720006D01*
X7076190Y-33577149D02*
X7123809Y-33577149D01*
X7123809Y-33577149D02*
X7171428Y-33600959D01*
X7171428Y-33600959D02*
X7195238Y-33624768D01*
X7195238Y-33624768D02*
X7219047Y-33672387D01*
X7219047Y-33672387D02*
X7242857Y-33767625D01*
X7242857Y-33767625D02*
X7242857Y-33886673D01*
X7242857Y-33886673D02*
X7219047Y-33981911D01*
X7219047Y-33981911D02*
X7195238Y-34029530D01*
X7195238Y-34029530D02*
X7171428Y-34053340D01*
X7171428Y-34053340D02*
X7123809Y-34077149D01*
X7123809Y-34077149D02*
X7076190Y-34077149D01*
X7076190Y-34077149D02*
X7028571Y-34053340D01*
X7028571Y-34053340D02*
X7004762Y-34029530D01*
X7004762Y-34029530D02*
X6980952Y-33981911D01*
X6980952Y-33981911D02*
X6957143Y-33886673D01*
X6957143Y-33886673D02*
X6957143Y-33767625D01*
X6957143Y-33767625D02*
X6980952Y-33672387D01*
X6980952Y-33672387D02*
X7004762Y-33624768D01*
X7004762Y-33624768D02*
X7028571Y-33600959D01*
X7028571Y-33600959D02*
X7076190Y-33577149D01*
X7671428Y-33743816D02*
X7671428Y-34077149D01*
X7552380Y-33553340D02*
X7433333Y-33910482D01*
X7433333Y-33910482D02*
X7742856Y-33910482D01*
D10*
X54891428Y-38793855D02*
X54891428Y-39365283D01*
X54891428Y-39365283D02*
X54853333Y-39479569D01*
X54853333Y-39479569D02*
X54777142Y-39555760D01*
X54777142Y-39555760D02*
X54662857Y-39593855D01*
X54662857Y-39593855D02*
X54586666Y-39593855D01*
X55691428Y-39593855D02*
X55234285Y-39593855D01*
X55462857Y-39593855D02*
X55462857Y-38793855D01*
X55462857Y-38793855D02*
X55386666Y-38908140D01*
X55386666Y-38908140D02*
X55310476Y-38984331D01*
X55310476Y-38984331D02*
X55234285Y-39022426D01*
X56186667Y-38793855D02*
X56262857Y-38793855D01*
X56262857Y-38793855D02*
X56339048Y-38831950D01*
X56339048Y-38831950D02*
X56377143Y-38870045D01*
X56377143Y-38870045D02*
X56415238Y-38946236D01*
X56415238Y-38946236D02*
X56453333Y-39098617D01*
X56453333Y-39098617D02*
X56453333Y-39289093D01*
X56453333Y-39289093D02*
X56415238Y-39441474D01*
X56415238Y-39441474D02*
X56377143Y-39517664D01*
X56377143Y-39517664D02*
X56339048Y-39555760D01*
X56339048Y-39555760D02*
X56262857Y-39593855D01*
X56262857Y-39593855D02*
X56186667Y-39593855D01*
X56186667Y-39593855D02*
X56110476Y-39555760D01*
X56110476Y-39555760D02*
X56072381Y-39517664D01*
X56072381Y-39517664D02*
X56034286Y-39441474D01*
X56034286Y-39441474D02*
X55996190Y-39289093D01*
X55996190Y-39289093D02*
X55996190Y-39098617D01*
X55996190Y-39098617D02*
X56034286Y-38946236D01*
X56034286Y-38946236D02*
X56072381Y-38870045D01*
X56072381Y-38870045D02*
X56110476Y-38831950D01*
X56110476Y-38831950D02*
X56186667Y-38793855D01*
X56720000Y-38793855D02*
X57215238Y-38793855D01*
X57215238Y-38793855D02*
X56948572Y-39098617D01*
X56948572Y-39098617D02*
X57062857Y-39098617D01*
X57062857Y-39098617D02*
X57139048Y-39136712D01*
X57139048Y-39136712D02*
X57177143Y-39174807D01*
X57177143Y-39174807D02*
X57215238Y-39250998D01*
X57215238Y-39250998D02*
X57215238Y-39441474D01*
X57215238Y-39441474D02*
X57177143Y-39517664D01*
X57177143Y-39517664D02*
X57139048Y-39555760D01*
X57139048Y-39555760D02*
X57062857Y-39593855D01*
X57062857Y-39593855D02*
X56834286Y-39593855D01*
X56834286Y-39593855D02*
X56758095Y-39555760D01*
X56758095Y-39555760D02*
X56720000Y-39517664D01*
D11*
X55374819Y-44555714D02*
X56089104Y-44555714D01*
X56089104Y-44555714D02*
X56231961Y-44603333D01*
X56231961Y-44603333D02*
X56327200Y-44698571D01*
X56327200Y-44698571D02*
X56374819Y-44841428D01*
X56374819Y-44841428D02*
X56374819Y-44936666D01*
X56374819Y-43555714D02*
X56374819Y-44127142D01*
X56374819Y-43841428D02*
X55374819Y-43841428D01*
X55374819Y-43841428D02*
X55517676Y-43936666D01*
X55517676Y-43936666D02*
X55612914Y-44031904D01*
X55612914Y-44031904D02*
X55660533Y-44127142D01*
X55374819Y-42936666D02*
X55374819Y-42841428D01*
X55374819Y-42841428D02*
X55422438Y-42746190D01*
X55422438Y-42746190D02*
X55470057Y-42698571D01*
X55470057Y-42698571D02*
X55565295Y-42650952D01*
X55565295Y-42650952D02*
X55755771Y-42603333D01*
X55755771Y-42603333D02*
X55993866Y-42603333D01*
X55993866Y-42603333D02*
X56184342Y-42650952D01*
X56184342Y-42650952D02*
X56279580Y-42698571D01*
X56279580Y-42698571D02*
X56327200Y-42746190D01*
X56327200Y-42746190D02*
X56374819Y-42841428D01*
X56374819Y-42841428D02*
X56374819Y-42936666D01*
X56374819Y-42936666D02*
X56327200Y-43031904D01*
X56327200Y-43031904D02*
X56279580Y-43079523D01*
X56279580Y-43079523D02*
X56184342Y-43127142D01*
X56184342Y-43127142D02*
X55993866Y-43174761D01*
X55993866Y-43174761D02*
X55755771Y-43174761D01*
X55755771Y-43174761D02*
X55565295Y-43127142D01*
X55565295Y-43127142D02*
X55470057Y-43079523D01*
X55470057Y-43079523D02*
X55422438Y-43031904D01*
X55422438Y-43031904D02*
X55374819Y-42936666D01*
X55374819Y-42269999D02*
X55374819Y-41650952D01*
X55374819Y-41650952D02*
X55755771Y-41984285D01*
X55755771Y-41984285D02*
X55755771Y-41841428D01*
X55755771Y-41841428D02*
X55803390Y-41746190D01*
X55803390Y-41746190D02*
X55851009Y-41698571D01*
X55851009Y-41698571D02*
X55946247Y-41650952D01*
X55946247Y-41650952D02*
X56184342Y-41650952D01*
X56184342Y-41650952D02*
X56279580Y-41698571D01*
X56279580Y-41698571D02*
X56327200Y-41746190D01*
X56327200Y-41746190D02*
X56374819Y-41841428D01*
X56374819Y-41841428D02*
X56374819Y-42127142D01*
X56374819Y-42127142D02*
X56327200Y-42222380D01*
X56327200Y-42222380D02*
X56279580Y-42269999D01*
D10*
X17478571Y-15363855D02*
X17478571Y-16011474D01*
X17478571Y-16011474D02*
X17516666Y-16087664D01*
X17516666Y-16087664D02*
X17554761Y-16125760D01*
X17554761Y-16125760D02*
X17630952Y-16163855D01*
X17630952Y-16163855D02*
X17783333Y-16163855D01*
X17783333Y-16163855D02*
X17859523Y-16125760D01*
X17859523Y-16125760D02*
X17897618Y-16087664D01*
X17897618Y-16087664D02*
X17935714Y-16011474D01*
X17935714Y-16011474D02*
X17935714Y-15363855D01*
X18735713Y-16163855D02*
X18278570Y-16163855D01*
X18507142Y-16163855D02*
X18507142Y-15363855D01*
X18507142Y-15363855D02*
X18430951Y-15478140D01*
X18430951Y-15478140D02*
X18354761Y-15554331D01*
X18354761Y-15554331D02*
X18278570Y-15592426D01*
X19230952Y-15363855D02*
X19307142Y-15363855D01*
X19307142Y-15363855D02*
X19383333Y-15401950D01*
X19383333Y-15401950D02*
X19421428Y-15440045D01*
X19421428Y-15440045D02*
X19459523Y-15516236D01*
X19459523Y-15516236D02*
X19497618Y-15668617D01*
X19497618Y-15668617D02*
X19497618Y-15859093D01*
X19497618Y-15859093D02*
X19459523Y-16011474D01*
X19459523Y-16011474D02*
X19421428Y-16087664D01*
X19421428Y-16087664D02*
X19383333Y-16125760D01*
X19383333Y-16125760D02*
X19307142Y-16163855D01*
X19307142Y-16163855D02*
X19230952Y-16163855D01*
X19230952Y-16163855D02*
X19154761Y-16125760D01*
X19154761Y-16125760D02*
X19116666Y-16087664D01*
X19116666Y-16087664D02*
X19078571Y-16011474D01*
X19078571Y-16011474D02*
X19040475Y-15859093D01*
X19040475Y-15859093D02*
X19040475Y-15668617D01*
X19040475Y-15668617D02*
X19078571Y-15516236D01*
X19078571Y-15516236D02*
X19116666Y-15440045D01*
X19116666Y-15440045D02*
X19154761Y-15401950D01*
X19154761Y-15401950D02*
X19230952Y-15363855D01*
X19992857Y-15363855D02*
X20069047Y-15363855D01*
X20069047Y-15363855D02*
X20145238Y-15401950D01*
X20145238Y-15401950D02*
X20183333Y-15440045D01*
X20183333Y-15440045D02*
X20221428Y-15516236D01*
X20221428Y-15516236D02*
X20259523Y-15668617D01*
X20259523Y-15668617D02*
X20259523Y-15859093D01*
X20259523Y-15859093D02*
X20221428Y-16011474D01*
X20221428Y-16011474D02*
X20183333Y-16087664D01*
X20183333Y-16087664D02*
X20145238Y-16125760D01*
X20145238Y-16125760D02*
X20069047Y-16163855D01*
X20069047Y-16163855D02*
X19992857Y-16163855D01*
X19992857Y-16163855D02*
X19916666Y-16125760D01*
X19916666Y-16125760D02*
X19878571Y-16087664D01*
X19878571Y-16087664D02*
X19840476Y-16011474D01*
X19840476Y-16011474D02*
X19802380Y-15859093D01*
X19802380Y-15859093D02*
X19802380Y-15668617D01*
X19802380Y-15668617D02*
X19840476Y-15516236D01*
X19840476Y-15516236D02*
X19878571Y-15440045D01*
X19878571Y-15440045D02*
X19916666Y-15401950D01*
X19916666Y-15401950D02*
X19992857Y-15363855D01*
D11*
X17135714Y-19454819D02*
X17135714Y-20264342D01*
X17135714Y-20264342D02*
X17183333Y-20359580D01*
X17183333Y-20359580D02*
X17230952Y-20407200D01*
X17230952Y-20407200D02*
X17326190Y-20454819D01*
X17326190Y-20454819D02*
X17516666Y-20454819D01*
X17516666Y-20454819D02*
X17611904Y-20407200D01*
X17611904Y-20407200D02*
X17659523Y-20359580D01*
X17659523Y-20359580D02*
X17707142Y-20264342D01*
X17707142Y-20264342D02*
X17707142Y-19454819D01*
X18707142Y-20454819D02*
X18135714Y-20454819D01*
X18421428Y-20454819D02*
X18421428Y-19454819D01*
X18421428Y-19454819D02*
X18326190Y-19597676D01*
X18326190Y-19597676D02*
X18230952Y-19692914D01*
X18230952Y-19692914D02*
X18135714Y-19740533D01*
X19326190Y-19454819D02*
X19421428Y-19454819D01*
X19421428Y-19454819D02*
X19516666Y-19502438D01*
X19516666Y-19502438D02*
X19564285Y-19550057D01*
X19564285Y-19550057D02*
X19611904Y-19645295D01*
X19611904Y-19645295D02*
X19659523Y-19835771D01*
X19659523Y-19835771D02*
X19659523Y-20073866D01*
X19659523Y-20073866D02*
X19611904Y-20264342D01*
X19611904Y-20264342D02*
X19564285Y-20359580D01*
X19564285Y-20359580D02*
X19516666Y-20407200D01*
X19516666Y-20407200D02*
X19421428Y-20454819D01*
X19421428Y-20454819D02*
X19326190Y-20454819D01*
X19326190Y-20454819D02*
X19230952Y-20407200D01*
X19230952Y-20407200D02*
X19183333Y-20359580D01*
X19183333Y-20359580D02*
X19135714Y-20264342D01*
X19135714Y-20264342D02*
X19088095Y-20073866D01*
X19088095Y-20073866D02*
X19088095Y-19835771D01*
X19088095Y-19835771D02*
X19135714Y-19645295D01*
X19135714Y-19645295D02*
X19183333Y-19550057D01*
X19183333Y-19550057D02*
X19230952Y-19502438D01*
X19230952Y-19502438D02*
X19326190Y-19454819D01*
X20278571Y-19454819D02*
X20373809Y-19454819D01*
X20373809Y-19454819D02*
X20469047Y-19502438D01*
X20469047Y-19502438D02*
X20516666Y-19550057D01*
X20516666Y-19550057D02*
X20564285Y-19645295D01*
X20564285Y-19645295D02*
X20611904Y-19835771D01*
X20611904Y-19835771D02*
X20611904Y-20073866D01*
X20611904Y-20073866D02*
X20564285Y-20264342D01*
X20564285Y-20264342D02*
X20516666Y-20359580D01*
X20516666Y-20359580D02*
X20469047Y-20407200D01*
X20469047Y-20407200D02*
X20373809Y-20454819D01*
X20373809Y-20454819D02*
X20278571Y-20454819D01*
X20278571Y-20454819D02*
X20183333Y-20407200D01*
X20183333Y-20407200D02*
X20135714Y-20359580D01*
X20135714Y-20359580D02*
X20088095Y-20264342D01*
X20088095Y-20264342D02*
X20040476Y-20073866D01*
X20040476Y-20073866D02*
X20040476Y-19835771D01*
X20040476Y-19835771D02*
X20088095Y-19645295D01*
X20088095Y-19645295D02*
X20135714Y-19550057D01*
X20135714Y-19550057D02*
X20183333Y-19502438D01*
X20183333Y-19502438D02*
X20278571Y-19454819D01*
D10*
X52735714Y-34037664D02*
X52697618Y-34075760D01*
X52697618Y-34075760D02*
X52583333Y-34113855D01*
X52583333Y-34113855D02*
X52507142Y-34113855D01*
X52507142Y-34113855D02*
X52392856Y-34075760D01*
X52392856Y-34075760D02*
X52316666Y-33999569D01*
X52316666Y-33999569D02*
X52278571Y-33923379D01*
X52278571Y-33923379D02*
X52240475Y-33770998D01*
X52240475Y-33770998D02*
X52240475Y-33656712D01*
X52240475Y-33656712D02*
X52278571Y-33504331D01*
X52278571Y-33504331D02*
X52316666Y-33428140D01*
X52316666Y-33428140D02*
X52392856Y-33351950D01*
X52392856Y-33351950D02*
X52507142Y-33313855D01*
X52507142Y-33313855D02*
X52583333Y-33313855D01*
X52583333Y-33313855D02*
X52697618Y-33351950D01*
X52697618Y-33351950D02*
X52735714Y-33390045D01*
X53497618Y-34113855D02*
X53040475Y-34113855D01*
X53269047Y-34113855D02*
X53269047Y-33313855D01*
X53269047Y-33313855D02*
X53192856Y-33428140D01*
X53192856Y-33428140D02*
X53116666Y-33504331D01*
X53116666Y-33504331D02*
X53040475Y-33542426D01*
X53802380Y-33390045D02*
X53840476Y-33351950D01*
X53840476Y-33351950D02*
X53916666Y-33313855D01*
X53916666Y-33313855D02*
X54107142Y-33313855D01*
X54107142Y-33313855D02*
X54183333Y-33351950D01*
X54183333Y-33351950D02*
X54221428Y-33390045D01*
X54221428Y-33390045D02*
X54259523Y-33466236D01*
X54259523Y-33466236D02*
X54259523Y-33542426D01*
X54259523Y-33542426D02*
X54221428Y-33656712D01*
X54221428Y-33656712D02*
X53764285Y-34113855D01*
X53764285Y-34113855D02*
X54259523Y-34113855D01*
D11*
X52609621Y-34110818D02*
X52562002Y-34158438D01*
X52562002Y-34158438D02*
X52419145Y-34206057D01*
X52419145Y-34206057D02*
X52323907Y-34206057D01*
X52323907Y-34206057D02*
X52181050Y-34158438D01*
X52181050Y-34158438D02*
X52085812Y-34063199D01*
X52085812Y-34063199D02*
X52038193Y-33967961D01*
X52038193Y-33967961D02*
X51990574Y-33777485D01*
X51990574Y-33777485D02*
X51990574Y-33634628D01*
X51990574Y-33634628D02*
X52038193Y-33444152D01*
X52038193Y-33444152D02*
X52085812Y-33348914D01*
X52085812Y-33348914D02*
X52181050Y-33253676D01*
X52181050Y-33253676D02*
X52323907Y-33206057D01*
X52323907Y-33206057D02*
X52419145Y-33206057D01*
X52419145Y-33206057D02*
X52562002Y-33253676D01*
X52562002Y-33253676D02*
X52609621Y-33301295D01*
X53562002Y-34206057D02*
X52990574Y-34206057D01*
X53276288Y-34206057D02*
X53276288Y-33206057D01*
X53276288Y-33206057D02*
X53181050Y-33348914D01*
X53181050Y-33348914D02*
X53085812Y-33444152D01*
X53085812Y-33444152D02*
X52990574Y-33491771D01*
X53942955Y-33301295D02*
X53990574Y-33253676D01*
X53990574Y-33253676D02*
X54085812Y-33206057D01*
X54085812Y-33206057D02*
X54323907Y-33206057D01*
X54323907Y-33206057D02*
X54419145Y-33253676D01*
X54419145Y-33253676D02*
X54466764Y-33301295D01*
X54466764Y-33301295D02*
X54514383Y-33396533D01*
X54514383Y-33396533D02*
X54514383Y-33491771D01*
X54514383Y-33491771D02*
X54466764Y-33634628D01*
X54466764Y-33634628D02*
X53895336Y-34206057D01*
X53895336Y-34206057D02*
X54514383Y-34206057D01*
D10*
X5984762Y-26687664D02*
X5946666Y-26725760D01*
X5946666Y-26725760D02*
X5832381Y-26763855D01*
X5832381Y-26763855D02*
X5756190Y-26763855D01*
X5756190Y-26763855D02*
X5641904Y-26725760D01*
X5641904Y-26725760D02*
X5565714Y-26649569D01*
X5565714Y-26649569D02*
X5527619Y-26573379D01*
X5527619Y-26573379D02*
X5489523Y-26420998D01*
X5489523Y-26420998D02*
X5489523Y-26306712D01*
X5489523Y-26306712D02*
X5527619Y-26154331D01*
X5527619Y-26154331D02*
X5565714Y-26078140D01*
X5565714Y-26078140D02*
X5641904Y-26001950D01*
X5641904Y-26001950D02*
X5756190Y-25963855D01*
X5756190Y-25963855D02*
X5832381Y-25963855D01*
X5832381Y-25963855D02*
X5946666Y-26001950D01*
X5946666Y-26001950D02*
X5984762Y-26040045D01*
X6746666Y-26763855D02*
X6289523Y-26763855D01*
X6518095Y-26763855D02*
X6518095Y-25963855D01*
X6518095Y-25963855D02*
X6441904Y-26078140D01*
X6441904Y-26078140D02*
X6365714Y-26154331D01*
X6365714Y-26154331D02*
X6289523Y-26192426D01*
X7241905Y-25963855D02*
X7318095Y-25963855D01*
X7318095Y-25963855D02*
X7394286Y-26001950D01*
X7394286Y-26001950D02*
X7432381Y-26040045D01*
X7432381Y-26040045D02*
X7470476Y-26116236D01*
X7470476Y-26116236D02*
X7508571Y-26268617D01*
X7508571Y-26268617D02*
X7508571Y-26459093D01*
X7508571Y-26459093D02*
X7470476Y-26611474D01*
X7470476Y-26611474D02*
X7432381Y-26687664D01*
X7432381Y-26687664D02*
X7394286Y-26725760D01*
X7394286Y-26725760D02*
X7318095Y-26763855D01*
X7318095Y-26763855D02*
X7241905Y-26763855D01*
X7241905Y-26763855D02*
X7165714Y-26725760D01*
X7165714Y-26725760D02*
X7127619Y-26687664D01*
X7127619Y-26687664D02*
X7089524Y-26611474D01*
X7089524Y-26611474D02*
X7051428Y-26459093D01*
X7051428Y-26459093D02*
X7051428Y-26268617D01*
X7051428Y-26268617D02*
X7089524Y-26116236D01*
X7089524Y-26116236D02*
X7127619Y-26040045D01*
X7127619Y-26040045D02*
X7165714Y-26001950D01*
X7165714Y-26001950D02*
X7241905Y-25963855D01*
X8003810Y-25963855D02*
X8080000Y-25963855D01*
X8080000Y-25963855D02*
X8156191Y-26001950D01*
X8156191Y-26001950D02*
X8194286Y-26040045D01*
X8194286Y-26040045D02*
X8232381Y-26116236D01*
X8232381Y-26116236D02*
X8270476Y-26268617D01*
X8270476Y-26268617D02*
X8270476Y-26459093D01*
X8270476Y-26459093D02*
X8232381Y-26611474D01*
X8232381Y-26611474D02*
X8194286Y-26687664D01*
X8194286Y-26687664D02*
X8156191Y-26725760D01*
X8156191Y-26725760D02*
X8080000Y-26763855D01*
X8080000Y-26763855D02*
X8003810Y-26763855D01*
X8003810Y-26763855D02*
X7927619Y-26725760D01*
X7927619Y-26725760D02*
X7889524Y-26687664D01*
X7889524Y-26687664D02*
X7851429Y-26611474D01*
X7851429Y-26611474D02*
X7813333Y-26459093D01*
X7813333Y-26459093D02*
X7813333Y-26268617D01*
X7813333Y-26268617D02*
X7851429Y-26116236D01*
X7851429Y-26116236D02*
X7889524Y-26040045D01*
X7889524Y-26040045D02*
X7927619Y-26001950D01*
X7927619Y-26001950D02*
X8003810Y-25963855D01*
D12*
X6320476Y-28259530D02*
X6296667Y-28283340D01*
X6296667Y-28283340D02*
X6225238Y-28307149D01*
X6225238Y-28307149D02*
X6177619Y-28307149D01*
X6177619Y-28307149D02*
X6106191Y-28283340D01*
X6106191Y-28283340D02*
X6058572Y-28235720D01*
X6058572Y-28235720D02*
X6034762Y-28188101D01*
X6034762Y-28188101D02*
X6010953Y-28092863D01*
X6010953Y-28092863D02*
X6010953Y-28021435D01*
X6010953Y-28021435D02*
X6034762Y-27926197D01*
X6034762Y-27926197D02*
X6058572Y-27878578D01*
X6058572Y-27878578D02*
X6106191Y-27830959D01*
X6106191Y-27830959D02*
X6177619Y-27807149D01*
X6177619Y-27807149D02*
X6225238Y-27807149D01*
X6225238Y-27807149D02*
X6296667Y-27830959D01*
X6296667Y-27830959D02*
X6320476Y-27854768D01*
X6796667Y-28307149D02*
X6510953Y-28307149D01*
X6653810Y-28307149D02*
X6653810Y-27807149D01*
X6653810Y-27807149D02*
X6606191Y-27878578D01*
X6606191Y-27878578D02*
X6558572Y-27926197D01*
X6558572Y-27926197D02*
X6510953Y-27950006D01*
X7106190Y-27807149D02*
X7153809Y-27807149D01*
X7153809Y-27807149D02*
X7201428Y-27830959D01*
X7201428Y-27830959D02*
X7225238Y-27854768D01*
X7225238Y-27854768D02*
X7249047Y-27902387D01*
X7249047Y-27902387D02*
X7272857Y-27997625D01*
X7272857Y-27997625D02*
X7272857Y-28116673D01*
X7272857Y-28116673D02*
X7249047Y-28211911D01*
X7249047Y-28211911D02*
X7225238Y-28259530D01*
X7225238Y-28259530D02*
X7201428Y-28283340D01*
X7201428Y-28283340D02*
X7153809Y-28307149D01*
X7153809Y-28307149D02*
X7106190Y-28307149D01*
X7106190Y-28307149D02*
X7058571Y-28283340D01*
X7058571Y-28283340D02*
X7034762Y-28259530D01*
X7034762Y-28259530D02*
X7010952Y-28211911D01*
X7010952Y-28211911D02*
X6987143Y-28116673D01*
X6987143Y-28116673D02*
X6987143Y-27997625D01*
X6987143Y-27997625D02*
X7010952Y-27902387D01*
X7010952Y-27902387D02*
X7034762Y-27854768D01*
X7034762Y-27854768D02*
X7058571Y-27830959D01*
X7058571Y-27830959D02*
X7106190Y-27807149D01*
X7582380Y-27807149D02*
X7629999Y-27807149D01*
X7629999Y-27807149D02*
X7677618Y-27830959D01*
X7677618Y-27830959D02*
X7701428Y-27854768D01*
X7701428Y-27854768D02*
X7725237Y-27902387D01*
X7725237Y-27902387D02*
X7749047Y-27997625D01*
X7749047Y-27997625D02*
X7749047Y-28116673D01*
X7749047Y-28116673D02*
X7725237Y-28211911D01*
X7725237Y-28211911D02*
X7701428Y-28259530D01*
X7701428Y-28259530D02*
X7677618Y-28283340D01*
X7677618Y-28283340D02*
X7629999Y-28307149D01*
X7629999Y-28307149D02*
X7582380Y-28307149D01*
X7582380Y-28307149D02*
X7534761Y-28283340D01*
X7534761Y-28283340D02*
X7510952Y-28259530D01*
X7510952Y-28259530D02*
X7487142Y-28211911D01*
X7487142Y-28211911D02*
X7463333Y-28116673D01*
X7463333Y-28116673D02*
X7463333Y-27997625D01*
X7463333Y-27997625D02*
X7487142Y-27902387D01*
X7487142Y-27902387D02*
X7510952Y-27854768D01*
X7510952Y-27854768D02*
X7534761Y-27830959D01*
X7534761Y-27830959D02*
X7582380Y-27807149D01*
%TO.C,D1*%
D14*
X15050000Y-35650000D02*
X15050000Y-29450000D01*
X17950560Y-31750920D02*
X17950560Y-33351120D01*
X17950560Y-32551020D02*
X17048860Y-32551020D01*
X17950560Y-32551020D02*
X19101180Y-31750920D01*
X17950560Y-32551020D02*
X19101180Y-33300320D01*
X19101180Y-32551020D02*
X20099400Y-32551020D01*
X19101180Y-33300320D02*
X19101180Y-31750920D01*
X22150000Y-29450000D02*
X15050000Y-29450000D01*
X22150000Y-29450000D02*
X22150000Y-35650000D01*
X22150000Y-35650000D02*
X15050000Y-35650000D01*
%TO.C,Q1*%
X2280000Y-37345000D02*
X2280000Y-38095000D01*
X2280000Y-38095000D02*
X4980000Y-38095000D01*
X2280000Y-39625000D02*
X2280000Y-40375000D01*
X2280000Y-40375000D02*
X4980000Y-40375000D01*
X2280000Y-41905000D02*
X2280000Y-42655000D01*
X2280000Y-42655000D02*
X4980000Y-42655000D01*
X4980000Y-39625000D02*
X2280000Y-39625000D01*
X4980000Y-41905000D02*
X2280000Y-41905000D01*
X5385000Y-37345000D02*
X2280000Y-37345000D01*
X11200000Y-37300000D02*
X12200000Y-37300000D01*
X12200000Y-37300000D02*
X12200000Y-42700000D01*
X12200000Y-42700000D02*
X11200000Y-42700000D01*
X11200000Y-36750000D02*
X11200000Y-43250000D01*
X4980000Y-43250000D01*
X4980000Y-37750000D01*
X5980000Y-36750000D01*
X11200000Y-36750000D01*
%TO.C,R102*%
X10250000Y-24525000D02*
X12250000Y-24525000D01*
X12250000Y-25775000D01*
X10250000Y-25775000D01*
X10250000Y-24525000D01*
%TO.C,R101*%
X10150000Y-30325000D02*
X12150000Y-30325000D01*
X12150000Y-31575000D01*
X10150000Y-31575000D01*
X10150000Y-30325000D01*
%TO.C,R105*%
X10150000Y-33225000D02*
X12150000Y-33225000D01*
X12150000Y-34475000D01*
X10150000Y-34475000D01*
X10150000Y-33225000D01*
%TO.C,R11*%
X44850000Y-15825000D02*
X46850000Y-15825000D01*
X46850000Y-17075000D01*
X44850000Y-17075000D01*
X44850000Y-15825000D01*
%TO.C,J5*%
X8500000Y-50500000D02*
X15500000Y-50500000D01*
X8500000Y-56600000D02*
X15500000Y-56600000D01*
X8500000Y-57700000D02*
X8500000Y-50500000D01*
X8500000Y-57700000D02*
X15500000Y-57700000D01*
X8900000Y-58100000D02*
X8500000Y-57700000D01*
X11205000Y-52462000D02*
X9112000Y-54555000D01*
X11388000Y-52645000D02*
X9295000Y-54738000D01*
X14705000Y-52462000D02*
X12612000Y-54555000D01*
X14888000Y-52645000D02*
X12795000Y-54738000D01*
X15500000Y-50500000D02*
X15500000Y-58100000D01*
X15500000Y-58100000D02*
X8900000Y-58100000D01*
X11750000Y-53600000D02*
G75*
G02*
X8750000Y-53600000I-1500000J0D01*
G01*
X8750000Y-53600000D02*
G75*
G02*
X11750000Y-53600000I1500000J0D01*
G01*
X15250000Y-53600000D02*
G75*
G02*
X12250000Y-53600000I-1500000J0D01*
G01*
X12250000Y-53600000D02*
G75*
G02*
X15250000Y-53600000I1500000J0D01*
G01*
%TO.C,J100*%
X6730000Y-9190000D02*
X57530000Y-9190000D01*
X6730000Y-13000000D02*
X6730000Y-9190000D01*
X8000000Y-14270000D02*
X6730000Y-13000000D01*
X57530000Y-9190000D02*
X57530000Y-14270000D01*
X57530000Y-14270000D02*
X8000000Y-14270000D01*
%TO.C,C101*%
X5880000Y-24555000D02*
X7880000Y-24555000D01*
X7880000Y-25805000D01*
X5880000Y-25805000D01*
X5880000Y-24555000D01*
%TO.C,U102*%
X16630000Y-24750000D02*
X18430000Y-24750000D01*
X18430000Y-26750000D01*
X16130000Y-26750000D01*
X16130000Y-25250000D01*
X16630000Y-24750000D01*
%TO.C,J101*%
X10230000Y-2450000D02*
X11230000Y-2450000D01*
X10230000Y-3050000D02*
X10230000Y-2450000D01*
X11230000Y-2015000D02*
X11865000Y-1380000D01*
X11230000Y-3050000D02*
X10230000Y-3050000D01*
X11230000Y-6660000D02*
X11230000Y-2015000D01*
X11865000Y-1380000D02*
X13770000Y-1380000D01*
X13770000Y-1380000D02*
X13770000Y-6660000D01*
X13770000Y-4990000D02*
X14770000Y-4990000D01*
X13770000Y-6660000D02*
X11230000Y-6660000D01*
X14770000Y-4990000D02*
X14770000Y-5590000D01*
X14770000Y-5590000D02*
X13770000Y-5590000D01*
%TO.C,U103*%
X21737500Y-24600000D02*
X22675000Y-24600000D01*
X22675000Y-26600000D01*
X21425000Y-26600000D01*
X21425000Y-24912500D01*
X21737500Y-24600000D01*
%TO.C,R100*%
X5850000Y-30325000D02*
X7850000Y-30325000D01*
X7850000Y-31575000D01*
X5850000Y-31575000D01*
X5850000Y-30325000D01*
%TO.C,U101*%
X6137500Y-21100000D02*
X7075000Y-21100000D01*
X7075000Y-23100000D01*
X5825000Y-23100000D01*
X5825000Y-21412500D01*
X6137500Y-21100000D01*
%TO.C,RG1*%
X24850000Y-15825000D02*
X26850000Y-15825000D01*
X26850000Y-17075000D01*
X24850000Y-17075000D01*
X24850000Y-15825000D01*
%TO.C,R12*%
X49550000Y-15825000D02*
X51550000Y-15825000D01*
X51550000Y-17075000D01*
X49550000Y-17075000D01*
X49550000Y-15825000D01*
%TO.C,D10*%
X25550000Y-28250000D02*
X25550000Y-22050000D01*
X28450560Y-24350920D02*
X28450560Y-25951120D01*
X28450560Y-25151020D02*
X27548860Y-25151020D01*
X28450560Y-25151020D02*
X29601180Y-24350920D01*
X28450560Y-25151020D02*
X29601180Y-25900320D01*
X29601180Y-25151020D02*
X30599400Y-25151020D01*
X29601180Y-25900320D02*
X29601180Y-24350920D01*
X32650000Y-22050000D02*
X25550000Y-22050000D01*
X32650000Y-22050000D02*
X32650000Y-28250000D01*
X32650000Y-28250000D02*
X25550000Y-28250000D01*
%TO.C,Q10*%
X45580000Y-22345000D02*
X45580000Y-23095000D01*
X45580000Y-23095000D02*
X48280000Y-23095000D01*
X45580000Y-24625000D02*
X45580000Y-25375000D01*
X45580000Y-25375000D02*
X48280000Y-25375000D01*
X45580000Y-26905000D02*
X45580000Y-27655000D01*
X45580000Y-27655000D02*
X48280000Y-27655000D01*
X48280000Y-24625000D02*
X45580000Y-24625000D01*
X48280000Y-26905000D02*
X45580000Y-26905000D01*
X48685000Y-22345000D02*
X45580000Y-22345000D01*
X54500000Y-22300000D02*
X55500000Y-22300000D01*
X55500000Y-22300000D02*
X55500000Y-27700000D01*
X55500000Y-27700000D02*
X54500000Y-27700000D01*
X54500000Y-21750000D02*
X54500000Y-28250000D01*
X48280000Y-28250000D01*
X48280000Y-22750000D01*
X49280000Y-21750000D01*
X54500000Y-21750000D01*
%TO.C,RP1*%
X24850000Y-18925000D02*
X26850000Y-18925000D01*
X26850000Y-20175000D01*
X24850000Y-20175000D01*
X24850000Y-18925000D01*
%TO.C,R104*%
X5850000Y-33225000D02*
X7850000Y-33225000D01*
X7850000Y-34475000D01*
X5850000Y-34475000D01*
X5850000Y-33225000D01*
%TO.C,J103*%
X52000000Y-41680000D02*
X53380000Y-41680000D01*
X52000000Y-42320000D02*
X52000000Y-41680000D01*
X52000000Y-44220000D02*
X53380000Y-44220000D01*
X52000000Y-44860000D02*
X52000000Y-44220000D01*
X53380000Y-40730000D02*
X57460000Y-40730000D01*
X53380000Y-42320000D02*
X52000000Y-42320000D01*
X53380000Y-44860000D02*
X52000000Y-44860000D01*
X53380000Y-45810000D02*
X53380000Y-40730000D01*
X57460000Y-40730000D02*
X58460000Y-41730000D01*
X58460000Y-41680000D02*
X59840000Y-41680000D01*
X58460000Y-41730000D02*
X58460000Y-45810000D01*
X58460000Y-44220000D02*
X59840000Y-44220000D01*
X58460000Y-45810000D02*
X53380000Y-45810000D01*
X59840000Y-41680000D02*
X59840000Y-42320000D01*
X59840000Y-42320000D02*
X58460000Y-42320000D01*
X59840000Y-44220000D02*
X59840000Y-44860000D01*
X59840000Y-44860000D02*
X58460000Y-44860000D01*
%TO.C,U100*%
X17650000Y-16750000D02*
X21050000Y-16750000D01*
X21050000Y-23250000D01*
X16650000Y-23250000D01*
X16650000Y-17750000D01*
X17650000Y-16750000D01*
%TO.C,C12*%
X49825720Y-32003738D02*
X50625720Y-32003738D01*
X50225720Y-31603738D02*
X50225720Y-32403738D01*
X57252479Y-33751238D02*
G75*
G02*
X49252479Y-33751238I-4000000J0D01*
G01*
X49252479Y-33751238D02*
G75*
G02*
X57252479Y-33751238I4000000J0D01*
G01*
%TO.C,C100*%
X5880000Y-27455000D02*
X7880000Y-27455000D01*
X7880000Y-28705000D01*
X5880000Y-28705000D01*
X5880000Y-27455000D01*
%TD*%
M02*
