%TF.GenerationSoftware,KiCad,Pcbnew,10.0.6*%
%TF.CreationDate,2026-09-09T18:25:16+02:00*%
%TF.ProjectId,Dimmer1,44696d6d-6572-4312-9e6b-696361645f70,rev?*%
%TF.SameCoordinates,Original*%
%TF.FileFunction,Copper,L2,Bot*%
%TF.FilePolarity,Positive*%
%FSLAX46Y46*%
G04 Gerber Fmt 4.6, Leading zero omitted, Abs format (unit mm)*
G04 Created by KiCad (PCBNEW 10.0.6) date 2026-09-09 18:25:16*
%MOMM*%
%LPD*%
G01*
G04 APERTURE LIST*
G04 Aperture macros list*
%AMRoundRect*
0 Rectangle with rounded corners*
0 $1 Rounding radius*
0 $2 $3 $4 $5 $6 $7 $8 $9 X,Y pos of 4 corners*
0 Add a 4 corners polygon primitive as box body*
4,1,4,$2,$3,$4,$5,$6,$7,$8,$9,$2,$3,0*
0 Add four circle primitives for the rounded corners*
1,1,$1+$1,$2,$3*
1,1,$1+$1,$4,$5*
1,1,$1+$1,$6,$7*
1,1,$1+$1,$8,$9*
0 Add four rect primitives between the rounded corners*
20,1,$1+$1,$2,$3,$4,$5,0*
20,1,$1+$1,$4,$5,$6,$7,0*
20,1,$1+$1,$6,$7,$8,$9,0*
20,1,$1+$1,$8,$9,$2,$3,0*%
G04 Aperture macros list end*
%TA.AperFunction,ComponentPad*%
%ADD10RoundRect,0.250000X-0.550000X-0.550000X0.550000X-0.550000X0.550000X0.550000X-0.550000X0.550000X0*%
%TD*%
%TA.AperFunction,ComponentPad*%
%ADD11C,1.600000*%
%TD*%
%TA.AperFunction,ComponentPad*%
%ADD12R,1.700000X1.700000*%
%TD*%
%TA.AperFunction,ComponentPad*%
%ADD13C,1.700000*%
%TD*%
%TA.AperFunction,ComponentPad*%
%ADD14RoundRect,0.250001X-0.949999X-0.949999X0.949999X-0.949999X0.949999X0.949999X-0.949999X0.949999X0*%
%TD*%
%TA.AperFunction,ComponentPad*%
%ADD15C,2.400000*%
%TD*%
%TA.AperFunction,ComponentPad*%
%ADD16R,1.700000X2.500000*%
%TD*%
%TA.AperFunction,ComponentPad*%
%ADD17O,1.700000X2.500000*%
%TD*%
%TA.AperFunction,SMDPad,CuDef*%
%ADD18R,2.510000X1.000000*%
%TD*%
%TA.AperFunction,SMDPad,CuDef*%
%ADD19R,3.150000X1.000000*%
%TD*%
%TA.AperFunction,SMDPad,CuDef*%
%ADD20RoundRect,0.135000X0.315000X1.165000X-0.315000X1.165000X-0.315000X-1.165000X0.315000X-1.165000X0*%
%TD*%
%TA.AperFunction,ViaPad*%
%ADD21C,0.600000*%
%TD*%
%TA.AperFunction,Conductor*%
%ADD22C,1.000000*%
%TD*%
%TA.AperFunction,Conductor*%
%ADD23C,0.250000*%
%TD*%
G04 APERTURE END LIST*
D10*
%TO.P,C90,1*%
%TO.N,/+24V*%
X54042479Y-26751238D03*
D11*
%TO.P,C90,2*%
%TO.N,GND*%
X57542479Y-26751238D03*
%TD*%
D12*
%TO.P,J100,1*%
%TO.N,/FLASH_TX*%
X30610000Y-2270000D03*
D13*
%TO.P,J100,2*%
%TO.N,/FLASH_RX*%
X30610000Y-4810000D03*
%TO.P,J100,3*%
%TO.N,GND*%
X30610000Y-7350000D03*
%TO.P,J100,4*%
%TO.N,unconnected-(J100-Pin_4-Pad4)*%
X30610000Y-9890000D03*
%TO.P,J100,5*%
%TO.N,/FLASH_MODE*%
X30610000Y-12430000D03*
%TO.P,J100,6*%
%TO.N,/I2C_SDA*%
X30610000Y-14970000D03*
%TO.P,J100,7*%
%TO.N,/I2C_SCL*%
X30610000Y-17510000D03*
%TO.P,J100,8*%
%TO.N,GND*%
X30610000Y-20050000D03*
%TO.P,J100,9*%
%TO.N,/NOTAUS*%
X30610000Y-22590000D03*
%TO.P,J100,10*%
%TO.N,/SEL_CLK*%
X30610000Y-25130000D03*
%TO.P,J100,11*%
%TO.N,/GP8*%
X30610000Y-27670000D03*
%TO.P,J100,12*%
%TO.N,/GP9*%
X30610000Y-30210000D03*
%TO.P,J100,13*%
%TO.N,GND*%
X30610000Y-32750000D03*
%TO.P,J100,14*%
%TO.N,/GP10*%
X30610000Y-35290000D03*
%TO.P,J100,15*%
%TO.N,/GP11*%
X30610000Y-37830000D03*
%TO.P,J100,16*%
%TO.N,/GP12*%
X30610000Y-40370000D03*
%TO.P,J100,17*%
%TO.N,/GP13*%
X30610000Y-42910000D03*
%TO.P,J100,18*%
%TO.N,GND*%
X30610000Y-45450000D03*
%TO.P,J100,19*%
%TO.N,/GP14*%
X30610000Y-47990000D03*
%TO.P,J100,20*%
%TO.N,/GP15*%
X30610000Y-50530000D03*
%TD*%
D14*
%TO.P,J5,1*%
%TO.N,/+24V*%
X35850000Y-23600000D03*
D15*
%TO.P,J5,2*%
%TO.N,/LED1*%
X39350000Y-23600000D03*
%TD*%
D14*
%TO.P,J90,1*%
%TO.N,/PWR_IN*%
X53790000Y-6600000D03*
D15*
%TO.P,J90,2*%
%TO.N,GND*%
X57290000Y-6600000D03*
%TD*%
D12*
%TO.P,J105,1*%
%TO.N,/GP16*%
X48390000Y-50530000D03*
D13*
%TO.P,J105,2*%
%TO.N,/GP17*%
X48390000Y-47990000D03*
%TO.P,J105,3*%
%TO.N,GND*%
X48390000Y-45450000D03*
%TO.P,J105,4*%
%TO.N,/GP18*%
X48390000Y-42910000D03*
%TO.P,J105,5*%
%TO.N,/GP19*%
X48390000Y-40370000D03*
%TO.P,J105,6*%
%TO.N,/GP20*%
X48390000Y-37830000D03*
%TO.P,J105,7*%
%TO.N,/GP21*%
X48390000Y-35290000D03*
%TO.P,J105,8*%
%TO.N,GND*%
X48390000Y-32750000D03*
%TO.P,J105,9*%
%TO.N,/GP22*%
X48390000Y-30210000D03*
%TO.P,J105,10*%
%TO.N,unconnected-(J105-Pin_10-Pad10)*%
X48390000Y-27670000D03*
%TO.P,J105,11*%
%TO.N,/GP26*%
X48390000Y-25130000D03*
%TO.P,J105,12*%
%TO.N,/GP27*%
X48390000Y-22590000D03*
%TO.P,J105,13*%
%TO.N,GND*%
X48390000Y-20050000D03*
%TO.P,J105,14*%
%TO.N,/GP28*%
X48390000Y-17510000D03*
%TO.P,J105,15*%
%TO.N,unconnected-(J105-Pin_15-Pad15)*%
X48390000Y-14970000D03*
%TO.P,J105,16*%
%TO.N,3V3*%
X48390000Y-12430000D03*
%TO.P,J105,17*%
%TO.N,unconnected-(J105-Pin_17-Pad17)*%
X48390000Y-9890000D03*
%TO.P,J105,18*%
%TO.N,GND*%
X48390000Y-7350000D03*
%TO.P,J105,19*%
%TO.N,/VSYS*%
X48390000Y-4810000D03*
%TO.P,J105,20*%
%TO.N,unconnected-(J105-Pin_20-Pad20)*%
X48390000Y-2270000D03*
%TD*%
D16*
%TO.P,U90,1*%
%TO.N,/+24V*%
X64100000Y-24750000D03*
D17*
%TO.P,U90,2*%
%TO.N,GND*%
X66640000Y-24750000D03*
%TO.P,U90,3*%
%TO.N,/+5V_LOKAL*%
X69180000Y-24750000D03*
%TD*%
D18*
%TO.P,J102,1*%
%TO.N,/SEL_OUT*%
X22245000Y-2750000D03*
%TO.P,J102,2*%
%TO.N,GND*%
X18935000Y-5290000D03*
%TD*%
D19*
%TO.P,J104,1*%
%TO.N,/+24V*%
X66295000Y-45500000D03*
%TO.P,J104,2*%
%TO.N,GND*%
X61245000Y-45500000D03*
%TO.P,J104,3*%
%TO.N,/+24V*%
X66295000Y-48040000D03*
%TO.P,J104,4*%
%TO.N,GND*%
X61245000Y-48040000D03*
%TD*%
D20*
%TO.P,J96,1*%
%TO.N,GND*%
X8000000Y-63000000D03*
%TO.P,J96,2*%
%TO.N,3V3*%
X10540000Y-63000000D03*
%TO.P,J96,3*%
X13080000Y-63000000D03*
%TO.P,J96,4*%
%TO.N,GND*%
X15620000Y-63000000D03*
%TD*%
%TO.P,J95,1*%
%TO.N,/GP8*%
X18160000Y-63000000D03*
%TO.P,J95,2*%
%TO.N,/GP9*%
X20700000Y-63000000D03*
%TO.P,J95,3*%
%TO.N,/GP10*%
X23240000Y-63000000D03*
%TO.P,J95,4*%
%TO.N,/GP11*%
X25780000Y-63000000D03*
%TO.P,J95,5*%
%TO.N,/GP12*%
X28320000Y-63000000D03*
%TO.P,J95,6*%
%TO.N,/GP13*%
X30860000Y-63000000D03*
%TO.P,J95,7*%
%TO.N,/GP14*%
X33400000Y-63000000D03*
%TO.P,J95,8*%
%TO.N,/GP15*%
X35940000Y-63000000D03*
%TO.P,J95,9*%
%TO.N,/GP16*%
X38480000Y-63000000D03*
%TO.P,J95,10*%
%TO.N,/GP17*%
X41020000Y-63000000D03*
%TO.P,J95,11*%
%TO.N,/GP18*%
X43560000Y-63000000D03*
%TO.P,J95,12*%
%TO.N,/GP19*%
X46100000Y-63000000D03*
%TO.P,J95,13*%
%TO.N,/GP20*%
X48640000Y-63000000D03*
%TO.P,J95,14*%
%TO.N,/GP21*%
X51180000Y-63000000D03*
%TO.P,J95,15*%
%TO.N,/GP22*%
X53720000Y-63000000D03*
%TO.P,J95,16*%
%TO.N,/GP26*%
X56260000Y-63000000D03*
%TO.P,J95,17*%
%TO.N,/GP27*%
X58800000Y-63000000D03*
%TO.P,J95,18*%
%TO.N,/GP28*%
X61340000Y-63000000D03*
%TD*%
D21*
%TO.N,/+24V*%
X47748500Y-54851000D03*
X68643800Y-47978900D03*
%TO.N,GND*%
X12900000Y-19675000D03*
X22500000Y-36250000D03*
X67500000Y-58750000D03*
X52500000Y-36250000D03*
X7500000Y-36250000D03*
X1000500Y-16579029D03*
X45000000Y-6250000D03*
X22500000Y-13750000D03*
X60000000Y-36250000D03*
X52500000Y-58750000D03*
X15000000Y-36250000D03*
X67500000Y-36250000D03*
X15000000Y-43750000D03*
X37500000Y-58750000D03*
X60000000Y-51250000D03*
X7500000Y-43750000D03*
X16234054Y-22450500D03*
X7500000Y-21250000D03*
X60000000Y-58750000D03*
X7500000Y-13750000D03*
X1000500Y-12219029D03*
X45000000Y-21250000D03*
X52500000Y-43750000D03*
X67500000Y-51250000D03*
X22500000Y-28750000D03*
X15000000Y-51250000D03*
X52500000Y-51250000D03*
X45000000Y-28750000D03*
X22500000Y-43750000D03*
X15000000Y-13750000D03*
X15000000Y-6250000D03*
X15000000Y-28750000D03*
X37500000Y-36250000D03*
X45000000Y-58750000D03*
X30000000Y-58750000D03*
X45000000Y-13750000D03*
X52500000Y-13750000D03*
X22500000Y-58750000D03*
X45000000Y-36250000D03*
X22500000Y-51250000D03*
X15000000Y-58750000D03*
X22500000Y-21250000D03*
X7500000Y-51250000D03*
X67500000Y-6250000D03*
X7500000Y-6250000D03*
X7500000Y-58750000D03*
%TO.N,/FLASH_MODE*%
X23244400Y-23403000D03*
%TO.N,/SEL_OUT*%
X14880000Y-23650000D03*
X7738800Y-22966600D03*
X19350000Y-27600000D03*
%TO.N,/BOOT0*%
X23083300Y-25962100D03*
X24485400Y-19162600D03*
%TO.N,3V3*%
X22900000Y-24950000D03*
X17680000Y-24100000D03*
%TO.N,/NCLR*%
X6034100Y-24058300D03*
X5986800Y-20533700D03*
%TO.N,/Q90_GATE*%
X55855600Y-5497200D03*
X52516600Y-2922800D03*
%TO.N,/FLASH_TX*%
X17434700Y-18703800D03*
%TO.N,/FLASH_RX*%
X22986300Y-18002900D03*
%TO.N,/SEL_IN*%
X12915800Y-4344100D03*
X4913700Y-23885000D03*
%TO.N,/PWM1_G*%
X33164300Y-19163400D03*
X33987500Y-27692900D03*
%TO.N,/ID0*%
X16500000Y-20975000D03*
X4850000Y-29600000D03*
%TO.N,/PWM1*%
X28326200Y-21357600D03*
X27857900Y-28569500D03*
%TO.N,/VSYS*%
X62086600Y-15758000D03*
%TO.N,/GP16*%
X48342100Y-52526300D03*
X38947400Y-54727000D03*
%TO.N,/GP18*%
X50373400Y-60386000D03*
X45536900Y-60054300D03*
%TO.N,/GP19*%
X48763400Y-53456800D03*
%TO.N,/ID1*%
X9150000Y-29650000D03*
X17100000Y-21625000D03*
%TD*%
%TO.N,/+24V*%
D22*
X66295000Y-45500000D02*
X64018300Y-45500000D01*
X68571700Y-47978900D02*
X68571700Y-45500000D01*
X64018300Y-26783400D02*
X64100000Y-26701700D01*
X66295000Y-45500000D02*
X68571700Y-45500000D01*
X35850000Y-23600000D02*
X35850000Y-42952500D01*
X67433400Y-48040000D02*
X68510600Y-48040000D01*
X66295000Y-48040000D02*
X67433400Y-48040000D01*
X64100000Y-24750000D02*
X64100000Y-26701700D01*
X68510600Y-48040000D02*
X68571700Y-47978900D01*
X64018300Y-45500000D02*
X64018300Y-26783400D01*
X35850000Y-42952500D02*
X47748500Y-54851000D01*
X68571700Y-47978900D02*
X68643800Y-47978900D01*
%TO.N,/FLASH_MODE*%
D23*
X30240200Y-12430000D02*
X30610000Y-12430000D01*
X23244400Y-23403000D02*
X23244400Y-19425800D01*
X23244400Y-19425800D02*
X30240200Y-12430000D01*
%TO.N,/SEL_OUT*%
X14930000Y-23600000D02*
X14880000Y-23650000D01*
X17390000Y-20270000D02*
X17730000Y-20610000D01*
X17730000Y-20610000D02*
X17730000Y-22180000D01*
X11657100Y-19048300D02*
X7738800Y-22966600D01*
X16309999Y-23600000D02*
X14930000Y-23600000D01*
X21170000Y-4660000D02*
X21170000Y-16489999D01*
X22245000Y-3585000D02*
X21170000Y-4660000D01*
X14880000Y-24500000D02*
X14880000Y-23650000D01*
X19350000Y-27600000D02*
X17980000Y-27600000D01*
X17730000Y-22180000D02*
X16309999Y-23600000D01*
X16168300Y-19048300D02*
X11657100Y-19048300D01*
X17980000Y-27600000D02*
X14880000Y-24500000D01*
X21170000Y-16489999D02*
X17390000Y-20270000D01*
X22245000Y-2750000D02*
X22245000Y-3585000D01*
X17390000Y-20270000D02*
X16168300Y-19048300D01*
%TO.N,/BOOT0*%
X24485400Y-19162600D02*
X24485400Y-24560000D01*
X24485400Y-24560000D02*
X23083300Y-25962100D01*
%TO.N,3V3*%
X22350000Y-24100000D02*
X22900000Y-24650000D01*
X22900000Y-24650000D02*
X22900000Y-24950000D01*
X30017600Y-18780000D02*
X27344500Y-21453100D01*
X27344500Y-21453100D02*
X27344500Y-22606000D01*
X48390000Y-12430000D02*
X38589600Y-12430000D01*
X22422400Y-26226900D02*
X22422400Y-25427600D01*
X13080000Y-63000000D02*
X10540000Y-63000000D01*
X22831200Y-26635700D02*
X22422400Y-26226900D01*
X13080000Y-63000000D02*
X13080000Y-36386900D01*
X23314800Y-26635700D02*
X22831200Y-26635700D01*
X17680000Y-24100000D02*
X22350000Y-24100000D01*
X27344500Y-22606000D02*
X23314800Y-26635700D01*
X38589600Y-12430000D02*
X32239600Y-18780000D01*
X32239600Y-18780000D02*
X30017600Y-18780000D01*
X13080000Y-36386900D02*
X22831200Y-26635700D01*
X22422400Y-25427600D02*
X22900000Y-24950000D01*
%TO.N,/NCLR*%
X5986800Y-24011000D02*
X6034100Y-24058300D01*
X5986800Y-20533700D02*
X5986800Y-24011000D01*
%TO.N,/Q90_GATE*%
X53281200Y-2922800D02*
X55855600Y-5497200D01*
X52516600Y-2922800D02*
X53281200Y-2922800D01*
%TO.N,/FLASH_TX*%
X20843000Y-1923300D02*
X20663300Y-2103000D01*
X29433300Y-2270000D02*
X29086600Y-1923300D01*
X20663300Y-15475200D02*
X17434700Y-18703800D01*
X20663300Y-2103000D02*
X20663300Y-15475200D01*
X30610000Y-2270000D02*
X29433300Y-2270000D01*
X29086600Y-1923300D02*
X20843000Y-1923300D01*
%TO.N,/FLASH_RX*%
X23668300Y-11751700D02*
X23668300Y-17320900D01*
X23668300Y-17320900D02*
X22986300Y-18002900D01*
X30610000Y-4810000D02*
X23668300Y-11751700D01*
%TO.N,/GP8*%
X30183400Y-27670000D02*
X30610000Y-27670000D01*
X18160000Y-39693400D02*
X30183400Y-27670000D01*
X18160000Y-63000000D02*
X18160000Y-39693400D01*
%TO.N,/GP9*%
X20700000Y-40120000D02*
X30610000Y-30210000D01*
X20700000Y-63000000D02*
X20700000Y-40120000D01*
%TO.N,/GP10*%
X23240000Y-63000000D02*
X23240000Y-42660000D01*
X23240000Y-42660000D02*
X30610000Y-35290000D01*
%TO.N,/GP11*%
X25780000Y-42660000D02*
X30610000Y-37830000D01*
X25780000Y-63000000D02*
X25780000Y-42660000D01*
%TO.N,/GP12*%
X28320000Y-63000000D02*
X28320000Y-42660000D01*
X28320000Y-42660000D02*
X30610000Y-40370000D01*
%TO.N,/GP13*%
X28871000Y-61011000D02*
X28871000Y-44649000D01*
X28871000Y-44649000D02*
X30610000Y-42910000D01*
X30860000Y-63000000D02*
X28871000Y-61011000D01*
%TO.N,/GP14*%
X29330500Y-59004900D02*
X29330500Y-49269500D01*
X29330500Y-49269500D02*
X30610000Y-47990000D01*
X33400000Y-63000000D02*
X33325600Y-63000000D01*
X33325600Y-63000000D02*
X29330500Y-59004900D01*
%TO.N,/GP15*%
X30610000Y-57670000D02*
X30610000Y-50530000D01*
X35940000Y-63000000D02*
X30610000Y-57670000D01*
%TO.N,/SEL_IN*%
X4913700Y-23885000D02*
X4913700Y-12346200D01*
X4913700Y-12346200D02*
X12915800Y-4344100D01*
%TO.N,/PWM1_G*%
X33164300Y-26869700D02*
X33164300Y-19163400D01*
X33987500Y-27692900D02*
X33164300Y-26869700D01*
%TO.N,/ID0*%
X4850000Y-28625000D02*
X4850000Y-29600000D01*
X16500000Y-20975000D02*
X12500000Y-20975000D01*
X12500000Y-20975000D02*
X4850000Y-28625000D01*
%TO.N,/PWM1*%
X28326200Y-28101200D02*
X27857900Y-28569500D01*
X28326200Y-21357600D02*
X28326200Y-28101200D01*
%TO.N,/VSYS*%
X48390000Y-4810000D02*
X59338000Y-15758000D01*
X59338000Y-15758000D02*
X62086600Y-15758000D01*
%TO.N,/GP16*%
X38480000Y-55194400D02*
X38947400Y-54727000D01*
X38480000Y-63000000D02*
X38480000Y-55194400D01*
X48390000Y-50530000D02*
X48390000Y-51706700D01*
X48390000Y-51706700D02*
X48342100Y-51754600D01*
X48342100Y-51754600D02*
X48342100Y-52526300D01*
%TO.N,/GP17*%
X47195800Y-52775800D02*
X47195800Y-49184200D01*
X47195800Y-49184200D02*
X48390000Y-47990000D01*
X41020000Y-63000000D02*
X44141300Y-59878700D01*
X44141300Y-59878700D02*
X44769300Y-59878700D01*
X48599600Y-56048400D02*
X48599600Y-54179600D01*
X48599600Y-54179600D02*
X47195800Y-52775800D01*
X44769300Y-59878700D02*
X48599600Y-56048400D01*
%TO.N,/GP18*%
X47190900Y-37332400D02*
X47190900Y-41710900D01*
X47190900Y-41710900D02*
X48390000Y-42910000D01*
X43560000Y-63000000D02*
X45536900Y-61023100D01*
X50373400Y-60386000D02*
X50373400Y-38030700D01*
X45536900Y-61023100D02*
X45536900Y-60054300D01*
X48956800Y-36614100D02*
X47909200Y-36614100D01*
X50373400Y-38030700D02*
X48956800Y-36614100D01*
X47909200Y-36614100D02*
X47190900Y-37332400D01*
%TO.N,/GP19*%
X49051300Y-60048700D02*
X49051300Y-53744700D01*
X49051300Y-53744700D02*
X48763400Y-53456800D01*
X46100000Y-63000000D02*
X49051300Y-60048700D01*
%TO.N,/GP20*%
X49566700Y-62073300D02*
X48640000Y-63000000D01*
X49566700Y-39006700D02*
X49566700Y-62073300D01*
X48390000Y-37830000D02*
X49566700Y-39006700D01*
%TO.N,/GP21*%
X51180000Y-63000000D02*
X51180000Y-38080000D01*
X51180000Y-38080000D02*
X48390000Y-35290000D01*
%TO.N,/GP22*%
X48390000Y-30210000D02*
X53720000Y-35540000D01*
X53720000Y-35540000D02*
X53720000Y-63000000D01*
%TO.N,/GP26*%
X56260000Y-33000000D02*
X56260000Y-63000000D01*
X48390000Y-25130000D02*
X56260000Y-33000000D01*
%TO.N,/GP27*%
X48390000Y-22590000D02*
X48390000Y-23040200D01*
X48390000Y-23040200D02*
X58800000Y-33450200D01*
X58800000Y-33450200D02*
X58800000Y-63000000D01*
%TO.N,/GP28*%
X59312500Y-60972500D02*
X61340000Y-63000000D01*
X48390000Y-17510000D02*
X55459100Y-24579100D01*
X59312500Y-31442600D02*
X59312500Y-60972500D01*
X55459100Y-24579100D02*
X55459100Y-27589200D01*
X55459100Y-27589200D02*
X59312500Y-31442600D01*
%TO.N,/ID1*%
X17100000Y-21625000D02*
X14300000Y-21625000D01*
X9150000Y-26775000D02*
X9150000Y-29650000D01*
X14300000Y-21625000D02*
X9150000Y-26775000D01*
%TD*%
%TA.AperFunction,Conductor*%
%TO.N,GND*%
G36*
X72002992Y-500681D02*
G01*
X72295310Y-518362D01*
X72307165Y-519802D01*
X72592281Y-572051D01*
X72603883Y-574911D01*
X72880623Y-661147D01*
X72891786Y-665380D01*
X73156117Y-784346D01*
X73156119Y-784347D01*
X73166702Y-789902D01*
X73414758Y-939856D01*
X73424583Y-946638D01*
X73652755Y-1125399D01*
X73661704Y-1133326D01*
X73866673Y-1338295D01*
X73874599Y-1347243D01*
X73995481Y-1501538D01*
X74053356Y-1575409D01*
X74060147Y-1585248D01*
X74210096Y-1833295D01*
X74215652Y-1843880D01*
X74334616Y-2108206D01*
X74338855Y-2119384D01*
X74425087Y-2396113D01*
X74427948Y-2407721D01*
X74480196Y-2692827D01*
X74481637Y-2704694D01*
X74499319Y-2997006D01*
X74499500Y-3002984D01*
X74499500Y-61997015D01*
X74499319Y-62002993D01*
X74481637Y-62295304D01*
X74480196Y-62307171D01*
X74427948Y-62592277D01*
X74425087Y-62603885D01*
X74338855Y-62880615D01*
X74334616Y-62891793D01*
X74215652Y-63156118D01*
X74210096Y-63166703D01*
X74060142Y-63414758D01*
X74053356Y-63424590D01*
X73874599Y-63652755D01*
X73866672Y-63661704D01*
X73661704Y-63866672D01*
X73652755Y-63874599D01*
X73424590Y-64053356D01*
X73414758Y-64060142D01*
X73177212Y-64203744D01*
X73166703Y-64210097D01*
X73156118Y-64215652D01*
X72891793Y-64334616D01*
X72880615Y-64338855D01*
X72603885Y-64425087D01*
X72592277Y-64427948D01*
X72307171Y-64480196D01*
X72295304Y-64481637D01*
X72023993Y-64498048D01*
X72002991Y-64499319D01*
X71997015Y-64499500D01*
X62024602Y-64499500D01*
X61966411Y-64480593D01*
X61930447Y-64431093D01*
X61930447Y-64369907D01*
X61934878Y-64358661D01*
X61984067Y-64253175D01*
X61984068Y-64253173D01*
X61990500Y-64204316D01*
X61990500Y-61795684D01*
X61984068Y-61746827D01*
X61980805Y-61739830D01*
X61934066Y-61639598D01*
X61934065Y-61639597D01*
X61934065Y-61639596D01*
X61850404Y-61555935D01*
X61850402Y-61555934D01*
X61850401Y-61555933D01*
X61743175Y-61505932D01*
X61710601Y-61501644D01*
X61694316Y-61499500D01*
X60985684Y-61499500D01*
X60969398Y-61501644D01*
X60936825Y-61505932D01*
X60936824Y-61505932D01*
X60829598Y-61555933D01*
X60745933Y-61639598D01*
X60708370Y-61720151D01*
X60666641Y-61764899D01*
X60606580Y-61776573D01*
X60551127Y-61750714D01*
X60548642Y-61748315D01*
X59679037Y-60878710D01*
X69149500Y-60878710D01*
X69149500Y-61121289D01*
X69181161Y-61361781D01*
X69181161Y-61361786D01*
X69243944Y-61596092D01*
X69243948Y-61596105D01*
X69336772Y-61820204D01*
X69336774Y-61820208D01*
X69336776Y-61820212D01*
X69458064Y-62030289D01*
X69458066Y-62030292D01*
X69605729Y-62222731D01*
X69605731Y-62222733D01*
X69605735Y-62222738D01*
X69777262Y-62394265D01*
X69777266Y-62394268D01*
X69777268Y-62394270D01*
X69933630Y-62514250D01*
X69969711Y-62541936D01*
X70179788Y-62663224D01*
X70403900Y-62756054D01*
X70638211Y-62818838D01*
X70878712Y-62850500D01*
X70878713Y-62850500D01*
X71121287Y-62850500D01*
X71121288Y-62850500D01*
X71361789Y-62818838D01*
X71596100Y-62756054D01*
X71820212Y-62663224D01*
X72030289Y-62541936D01*
X72222738Y-62394265D01*
X72394265Y-62222738D01*
X72541936Y-62030289D01*
X72663224Y-61820212D01*
X72756054Y-61596100D01*
X72818838Y-61361789D01*
X72850500Y-61121288D01*
X72850500Y-60878712D01*
X72818838Y-60638211D01*
X72756054Y-60403900D01*
X72663224Y-60179788D01*
X72541936Y-59969711D01*
X72541933Y-59969707D01*
X72394270Y-59777268D01*
X72394268Y-59777266D01*
X72394265Y-59777262D01*
X72222738Y-59605735D01*
X72222733Y-59605731D01*
X72222731Y-59605729D01*
X72030292Y-59458066D01*
X71996287Y-59438433D01*
X71820212Y-59336776D01*
X71820208Y-59336774D01*
X71820204Y-59336772D01*
X71596105Y-59243948D01*
X71596104Y-59243947D01*
X71596100Y-59243946D01*
X71361789Y-59181162D01*
X71361786Y-59181161D01*
X71361784Y-59181161D01*
X71121289Y-59149500D01*
X71121288Y-59149500D01*
X70878712Y-59149500D01*
X70878710Y-59149500D01*
X70638218Y-59181161D01*
X70638213Y-59181161D01*
X70403907Y-59243944D01*
X70403894Y-59243948D01*
X70179795Y-59336772D01*
X69969707Y-59458066D01*
X69777268Y-59605729D01*
X69605729Y-59777268D01*
X69458066Y-59969707D01*
X69336772Y-60179795D01*
X69243948Y-60403894D01*
X69243944Y-60403907D01*
X69181161Y-60638213D01*
X69181161Y-60638218D01*
X69149500Y-60878710D01*
X59679037Y-60878710D01*
X59666996Y-60866669D01*
X59639219Y-60812152D01*
X59638000Y-60796665D01*
X59638000Y-31493440D01*
X59638001Y-31493427D01*
X59638001Y-31399747D01*
X59638000Y-31399745D01*
X59615819Y-31316965D01*
X59615818Y-31316964D01*
X59615818Y-31316962D01*
X59572965Y-31242738D01*
X59512362Y-31182135D01*
X59512359Y-31182133D01*
X55813596Y-27483369D01*
X55785819Y-27428852D01*
X55784600Y-27413365D01*
X55784600Y-24536248D01*
X55784600Y-24536247D01*
X55765487Y-24464916D01*
X55763849Y-24458803D01*
X55762420Y-24453467D01*
X55762419Y-24453465D01*
X55762418Y-24453461D01*
X55719565Y-24379238D01*
X54820580Y-23480253D01*
X63049500Y-23480253D01*
X63049500Y-26019746D01*
X63049501Y-26019758D01*
X63061132Y-26078227D01*
X63061134Y-26078233D01*
X63102492Y-26140128D01*
X63105448Y-26144552D01*
X63171769Y-26188867D01*
X63216231Y-26197711D01*
X63230241Y-26200498D01*
X63230246Y-26200498D01*
X63230252Y-26200500D01*
X63300500Y-26200500D01*
X63358691Y-26219407D01*
X63394655Y-26268907D01*
X63399500Y-26299500D01*
X63399500Y-26427129D01*
X63391964Y-26465014D01*
X63344720Y-26579070D01*
X63344720Y-26579072D01*
X63330739Y-26649360D01*
X63317800Y-26714406D01*
X63317800Y-45568995D01*
X63344720Y-45704327D01*
X63344720Y-45704329D01*
X63397522Y-45831806D01*
X63397528Y-45831817D01*
X63474185Y-45946541D01*
X63571758Y-46044114D01*
X63686482Y-46120771D01*
X63686493Y-46120777D01*
X63733583Y-46140282D01*
X63813972Y-46173580D01*
X63949307Y-46200500D01*
X64087293Y-46200500D01*
X64700252Y-46200500D01*
X66226007Y-46200500D01*
X67772200Y-46200500D01*
X67830391Y-46219407D01*
X67866355Y-46268907D01*
X67871200Y-46299500D01*
X67871200Y-47240500D01*
X67852293Y-47298691D01*
X67802793Y-47334655D01*
X67772200Y-47339500D01*
X64700252Y-47339500D01*
X64700251Y-47339500D01*
X64700241Y-47339501D01*
X64641772Y-47351132D01*
X64641766Y-47351134D01*
X64575451Y-47395445D01*
X64575445Y-47395451D01*
X64531134Y-47461766D01*
X64531132Y-47461772D01*
X64519501Y-47520241D01*
X64519500Y-47520253D01*
X64519500Y-48559746D01*
X64519501Y-48559758D01*
X64531132Y-48618227D01*
X64531134Y-48618233D01*
X64552762Y-48650601D01*
X64575448Y-48684552D01*
X64641769Y-48728867D01*
X64686231Y-48737711D01*
X64700241Y-48740498D01*
X64700246Y-48740498D01*
X64700252Y-48740500D01*
X64700253Y-48740500D01*
X68579593Y-48740500D01*
X68579594Y-48740500D01*
X68714928Y-48713580D01*
X68842411Y-48660775D01*
X68857643Y-48650596D01*
X68874745Y-48641454D01*
X68975611Y-48599675D01*
X69090342Y-48523014D01*
X69187914Y-48425442D01*
X69264575Y-48310711D01*
X69317380Y-48183228D01*
X69344300Y-48047893D01*
X69344300Y-47909907D01*
X69317380Y-47774572D01*
X69279736Y-47683690D01*
X69272200Y-47645805D01*
X69272200Y-45431008D01*
X69272199Y-45431004D01*
X69245280Y-45295672D01*
X69192475Y-45168189D01*
X69192474Y-45168187D01*
X69192471Y-45168182D01*
X69115814Y-45053458D01*
X69018241Y-44955885D01*
X68903517Y-44879228D01*
X68903506Y-44879222D01*
X68776028Y-44826420D01*
X68640695Y-44799500D01*
X68640693Y-44799500D01*
X67889748Y-44799500D01*
X66363993Y-44799500D01*
X64817800Y-44799500D01*
X64759609Y-44780593D01*
X64723645Y-44731093D01*
X64718800Y-44700500D01*
X64718800Y-27057972D01*
X64726336Y-27020087D01*
X64750727Y-26961200D01*
X64773580Y-26906029D01*
X64778934Y-26879109D01*
X64800500Y-26770693D01*
X64800500Y-26299500D01*
X64819407Y-26241309D01*
X64868907Y-26205345D01*
X64899500Y-26200500D01*
X64969747Y-26200500D01*
X64969748Y-26200500D01*
X65028231Y-26188867D01*
X65094552Y-26144552D01*
X65138867Y-26078231D01*
X65150500Y-26019748D01*
X65150500Y-24246532D01*
X68129500Y-24246532D01*
X68129500Y-25253467D01*
X68169869Y-25456418D01*
X68249058Y-25647597D01*
X68364020Y-25819651D01*
X68364023Y-25819655D01*
X68510345Y-25965977D01*
X68682402Y-26080941D01*
X68873580Y-26160130D01*
X69076535Y-26200500D01*
X69076536Y-26200500D01*
X69283464Y-26200500D01*
X69283465Y-26200500D01*
X69486420Y-26160130D01*
X69677598Y-26080941D01*
X69849655Y-25965977D01*
X69995977Y-25819655D01*
X70110941Y-25647598D01*
X70190130Y-25456420D01*
X70230500Y-25253465D01*
X70230500Y-24246535D01*
X70190130Y-24043580D01*
X70110941Y-23852402D01*
X69995977Y-23680345D01*
X69849655Y-23534023D01*
X69846150Y-23531681D01*
X69677597Y-23419058D01*
X69486418Y-23339869D01*
X69283467Y-23299500D01*
X69283465Y-23299500D01*
X69076535Y-23299500D01*
X69076532Y-23299500D01*
X68873581Y-23339869D01*
X68682402Y-23419058D01*
X68510348Y-23534020D01*
X68364020Y-23680348D01*
X68249058Y-23852402D01*
X68169869Y-24043581D01*
X68129500Y-24246532D01*
X65150500Y-24246532D01*
X65150500Y-23480252D01*
X65138867Y-23421769D01*
X65094552Y-23355448D01*
X65075453Y-23342686D01*
X65028233Y-23311134D01*
X65028231Y-23311133D01*
X65028228Y-23311132D01*
X65028227Y-23311132D01*
X64969758Y-23299501D01*
X64969748Y-23299500D01*
X63230252Y-23299500D01*
X63230251Y-23299500D01*
X63230241Y-23299501D01*
X63171772Y-23311132D01*
X63171766Y-23311134D01*
X63105451Y-23355445D01*
X63105445Y-23355451D01*
X63061134Y-23421766D01*
X63061132Y-23421772D01*
X63049501Y-23480241D01*
X63049500Y-23480253D01*
X54820580Y-23480253D01*
X49375619Y-18035292D01*
X49347842Y-17980775D01*
X49354159Y-17927402D01*
X49400130Y-17816420D01*
X49440500Y-17613465D01*
X49440500Y-17406535D01*
X49440500Y-17406532D01*
X49400130Y-17203581D01*
X49399995Y-17203256D01*
X49320941Y-17012402D01*
X49205977Y-16840345D01*
X49059655Y-16694023D01*
X49059651Y-16694020D01*
X48887597Y-16579058D01*
X48696418Y-16499869D01*
X48493467Y-16459500D01*
X48493465Y-16459500D01*
X48286535Y-16459500D01*
X48286532Y-16459500D01*
X48083581Y-16499869D01*
X47892402Y-16579058D01*
X47720348Y-16694020D01*
X47574020Y-16840348D01*
X47459058Y-17012402D01*
X47379869Y-17203581D01*
X47339500Y-17406532D01*
X47339500Y-17613467D01*
X47379869Y-17816418D01*
X47459058Y-18007597D01*
X47574020Y-18179651D01*
X47574023Y-18179655D01*
X47720345Y-18325977D01*
X47892402Y-18440941D01*
X48083580Y-18520130D01*
X48286535Y-18560500D01*
X48286536Y-18560500D01*
X48493464Y-18560500D01*
X48493465Y-18560500D01*
X48696420Y-18520130D01*
X48807402Y-18474158D01*
X48868399Y-18469358D01*
X48915292Y-18495619D01*
X55104604Y-24684931D01*
X55132381Y-24739448D01*
X55133600Y-24754935D01*
X55133600Y-25874925D01*
X55114693Y-25933116D01*
X55065193Y-25969080D01*
X55004007Y-25969080D01*
X54954945Y-25933714D01*
X54936432Y-25908630D01*
X54914629Y-25879088D01*
X54914625Y-25879085D01*
X54914623Y-25879083D01*
X54805362Y-25798445D01*
X54677182Y-25753593D01*
X54677173Y-25753591D01*
X54646753Y-25750738D01*
X54646745Y-25750738D01*
X53438213Y-25750738D01*
X53438204Y-25750738D01*
X53407784Y-25753591D01*
X53407775Y-25753593D01*
X53279595Y-25798445D01*
X53170334Y-25879083D01*
X53170324Y-25879093D01*
X53089686Y-25988354D01*
X53044834Y-26116534D01*
X53044832Y-26116543D01*
X53041979Y-26146963D01*
X53041979Y-26992844D01*
X53023072Y-27051035D01*
X52973572Y-27086999D01*
X52912386Y-27086999D01*
X52872975Y-27062848D01*
X49207882Y-23397755D01*
X49180105Y-23343238D01*
X49189676Y-23282806D01*
X49203441Y-23263872D01*
X49202888Y-23263418D01*
X49205966Y-23259665D01*
X49205977Y-23259655D01*
X49320941Y-23087598D01*
X49400130Y-22896420D01*
X49440500Y-22693465D01*
X49440500Y-22486535D01*
X49400130Y-22283580D01*
X49320941Y-22092402D01*
X49205977Y-21920345D01*
X49059655Y-21774023D01*
X49008607Y-21739914D01*
X48887597Y-21659058D01*
X48696418Y-21579869D01*
X48493467Y-21539500D01*
X48493465Y-21539500D01*
X48286535Y-21539500D01*
X48286532Y-21539500D01*
X48083581Y-21579869D01*
X47892402Y-21659058D01*
X47720348Y-21774020D01*
X47574020Y-21920348D01*
X47459058Y-22092402D01*
X47379869Y-22283581D01*
X47339500Y-22486532D01*
X47339500Y-22693467D01*
X47379869Y-22896418D01*
X47459058Y-23087597D01*
X47569821Y-23253366D01*
X47574023Y-23259655D01*
X47720345Y-23405977D01*
X47892402Y-23520941D01*
X48083580Y-23600130D01*
X48286535Y-23640500D01*
X48286536Y-23640500D01*
X48488965Y-23640500D01*
X48547156Y-23659407D01*
X48558969Y-23669496D01*
X48878680Y-23989207D01*
X48906457Y-24043724D01*
X48896886Y-24104156D01*
X48853621Y-24147421D01*
X48793189Y-24156992D01*
X48770791Y-24150675D01*
X48696420Y-24119870D01*
X48493467Y-24079500D01*
X48493465Y-24079500D01*
X48286535Y-24079500D01*
X48286532Y-24079500D01*
X48083581Y-24119869D01*
X47892402Y-24199058D01*
X47720348Y-24314020D01*
X47574020Y-24460348D01*
X47459058Y-24632402D01*
X47379869Y-24823581D01*
X47339500Y-25026532D01*
X47339500Y-25233467D01*
X47379869Y-25436418D01*
X47459058Y-25627597D01*
X47574020Y-25799651D01*
X47574023Y-25799655D01*
X47720345Y-25945977D01*
X47892402Y-26060941D01*
X48083580Y-26140130D01*
X48286535Y-26180500D01*
X48286536Y-26180500D01*
X48493464Y-26180500D01*
X48493465Y-26180500D01*
X48696420Y-26140130D01*
X48807402Y-26094158D01*
X48868399Y-26089358D01*
X48915292Y-26115619D01*
X55905504Y-33105830D01*
X55933281Y-33160347D01*
X55934500Y-33175834D01*
X55934500Y-61409029D01*
X55915593Y-61467220D01*
X55866093Y-61503184D01*
X55863203Y-61504074D01*
X55856823Y-61505933D01*
X55749598Y-61555933D01*
X55665933Y-61639598D01*
X55615932Y-61746824D01*
X55615932Y-61746825D01*
X55615932Y-61746827D01*
X55609500Y-61795684D01*
X55609500Y-64204316D01*
X55613788Y-64236887D01*
X55615932Y-64253174D01*
X55615932Y-64253175D01*
X55665122Y-64358661D01*
X55672579Y-64419390D01*
X55642916Y-64472904D01*
X55587463Y-64498762D01*
X55575398Y-64499500D01*
X54404602Y-64499500D01*
X54346411Y-64480593D01*
X54310447Y-64431093D01*
X54310447Y-64369907D01*
X54314878Y-64358661D01*
X54364067Y-64253175D01*
X54364068Y-64253173D01*
X54370500Y-64204316D01*
X54370500Y-61795684D01*
X54364068Y-61746827D01*
X54360805Y-61739830D01*
X54314066Y-61639598D01*
X54314065Y-61639597D01*
X54314065Y-61639596D01*
X54230404Y-61555935D01*
X54230402Y-61555934D01*
X54230401Y-61555933D01*
X54123176Y-61505933D01*
X54116797Y-61504074D01*
X54066222Y-61469639D01*
X54045546Y-61412053D01*
X54045500Y-61409029D01*
X54045500Y-35497148D01*
X54045500Y-35497147D01*
X54023318Y-35414362D01*
X53980465Y-35340138D01*
X53980462Y-35340135D01*
X53919862Y-35279534D01*
X53919862Y-35279535D01*
X49375619Y-30735292D01*
X49347842Y-30680775D01*
X49354159Y-30627402D01*
X49400130Y-30516420D01*
X49440500Y-30313465D01*
X49440500Y-30106535D01*
X49400130Y-29903580D01*
X49320941Y-29712402D01*
X49205977Y-29540345D01*
X49059655Y-29394023D01*
X49059651Y-29394020D01*
X48887597Y-29279058D01*
X48696418Y-29199869D01*
X48493467Y-29159500D01*
X48493465Y-29159500D01*
X48286535Y-29159500D01*
X48286532Y-29159500D01*
X48083581Y-29199869D01*
X47892402Y-29279058D01*
X47720348Y-29394020D01*
X47574020Y-29540348D01*
X47459058Y-29712402D01*
X47379869Y-29903581D01*
X47339500Y-30106532D01*
X47339500Y-30313467D01*
X47379869Y-30516418D01*
X47459058Y-30707597D01*
X47477563Y-30735292D01*
X47574023Y-30879655D01*
X47720345Y-31025977D01*
X47892402Y-31140941D01*
X48083580Y-31220130D01*
X48286535Y-31260500D01*
X48286536Y-31260500D01*
X48493464Y-31260500D01*
X48493465Y-31260500D01*
X48696420Y-31220130D01*
X48807402Y-31174158D01*
X48868399Y-31169358D01*
X48915292Y-31195619D01*
X53365504Y-35645831D01*
X53393281Y-35700348D01*
X53394500Y-35715835D01*
X53394500Y-61409029D01*
X53375593Y-61467220D01*
X53326093Y-61503184D01*
X53323203Y-61504074D01*
X53316823Y-61505933D01*
X53209598Y-61555933D01*
X53125933Y-61639598D01*
X53075932Y-61746824D01*
X53075932Y-61746825D01*
X53075932Y-61746827D01*
X53069500Y-61795684D01*
X53069500Y-64204316D01*
X53073788Y-64236887D01*
X53075932Y-64253174D01*
X53075932Y-64253175D01*
X53125122Y-64358661D01*
X53132579Y-64419390D01*
X53102916Y-64472904D01*
X53047463Y-64498762D01*
X53035398Y-64499500D01*
X51864602Y-64499500D01*
X51806411Y-64480593D01*
X51770447Y-64431093D01*
X51770447Y-64369907D01*
X51774878Y-64358661D01*
X51824067Y-64253175D01*
X51824068Y-64253173D01*
X51830500Y-64204316D01*
X51830500Y-61795684D01*
X51824068Y-61746827D01*
X51820805Y-61739830D01*
X51774066Y-61639598D01*
X51774065Y-61639597D01*
X51774065Y-61639596D01*
X51690404Y-61555935D01*
X51690402Y-61555934D01*
X51690401Y-61555933D01*
X51583176Y-61505933D01*
X51576797Y-61504074D01*
X51526222Y-61469639D01*
X51505546Y-61412053D01*
X51505500Y-61409029D01*
X51505500Y-38037148D01*
X51505500Y-38037147D01*
X51483318Y-37954362D01*
X51483318Y-37954361D01*
X51454194Y-37903918D01*
X51440465Y-37880138D01*
X51379862Y-37819535D01*
X51379859Y-37819533D01*
X49375618Y-35815291D01*
X49347842Y-35760775D01*
X49354159Y-35707402D01*
X49379663Y-35645831D01*
X49400130Y-35596420D01*
X49440500Y-35393465D01*
X49440500Y-35186535D01*
X49400130Y-34983580D01*
X49320941Y-34792402D01*
X49205977Y-34620345D01*
X49059655Y-34474023D01*
X48887598Y-34359059D01*
X48887599Y-34359059D01*
X48887597Y-34359058D01*
X48696418Y-34279869D01*
X48493467Y-34239500D01*
X48493465Y-34239500D01*
X48286535Y-34239500D01*
X48286532Y-34239500D01*
X48083581Y-34279869D01*
X47892402Y-34359058D01*
X47720348Y-34474020D01*
X47574020Y-34620348D01*
X47459058Y-34792402D01*
X47379869Y-34983581D01*
X47339500Y-35186532D01*
X47339500Y-35393467D01*
X47379869Y-35596418D01*
X47459058Y-35787597D01*
X47477563Y-35815292D01*
X47574023Y-35959655D01*
X47720345Y-36105977D01*
X47720348Y-36105979D01*
X47781705Y-36146976D01*
X47819585Y-36195026D01*
X47821987Y-36256164D01*
X47787995Y-36307038D01*
X47776206Y-36315028D01*
X47709335Y-36353637D01*
X47648734Y-36414237D01*
X47648735Y-36414238D01*
X46930431Y-37132542D01*
X46887582Y-37206760D01*
X46887581Y-37206760D01*
X46887582Y-37206761D01*
X46887582Y-37206762D01*
X46865400Y-37289547D01*
X46865400Y-41668047D01*
X46865400Y-41753753D01*
X46884962Y-41826763D01*
X46887583Y-41836543D01*
X46930431Y-41910757D01*
X46930435Y-41910762D01*
X47404380Y-42384708D01*
X47432157Y-42439224D01*
X47425840Y-42492596D01*
X47379870Y-42603578D01*
X47379870Y-42603580D01*
X47339500Y-42806532D01*
X47339500Y-43013467D01*
X47379869Y-43216418D01*
X47459058Y-43407597D01*
X47574020Y-43579651D01*
X47574023Y-43579655D01*
X47720345Y-43725977D01*
X47892402Y-43840941D01*
X48083580Y-43920130D01*
X48286535Y-43960500D01*
X48286536Y-43960500D01*
X48493464Y-43960500D01*
X48493465Y-43960500D01*
X48696420Y-43920130D01*
X48887598Y-43840941D01*
X49059655Y-43725977D01*
X49072198Y-43713433D01*
X49126713Y-43685658D01*
X49187145Y-43695229D01*
X49230410Y-43738494D01*
X49241200Y-43783439D01*
X49241200Y-47116560D01*
X49222293Y-47174751D01*
X49172793Y-47210715D01*
X49111607Y-47210715D01*
X49072199Y-47186566D01*
X49059655Y-47174023D01*
X48887597Y-47059058D01*
X48696418Y-46979869D01*
X48493467Y-46939500D01*
X48493465Y-46939500D01*
X48286535Y-46939500D01*
X48286532Y-46939500D01*
X48083581Y-46979869D01*
X47892402Y-47059058D01*
X47720348Y-47174020D01*
X47574020Y-47320348D01*
X47459058Y-47492402D01*
X47379869Y-47683581D01*
X47339500Y-47886532D01*
X47339500Y-48093467D01*
X47379870Y-48296419D01*
X47379870Y-48296421D01*
X47425840Y-48407402D01*
X47430641Y-48468398D01*
X47404380Y-48515290D01*
X46935335Y-48984337D01*
X46935331Y-48984342D01*
X46892482Y-49058560D01*
X46892481Y-49058560D01*
X46892482Y-49058561D01*
X46870300Y-49141347D01*
X46870300Y-52743135D01*
X46851393Y-52801326D01*
X46801893Y-52837290D01*
X46740707Y-52837290D01*
X46701296Y-52813139D01*
X36579496Y-42691339D01*
X36551719Y-42636822D01*
X36550500Y-42621335D01*
X36550500Y-27566532D01*
X47339500Y-27566532D01*
X47339500Y-27773467D01*
X47379869Y-27976418D01*
X47459058Y-28167597D01*
X47548233Y-28301058D01*
X47574023Y-28339655D01*
X47720345Y-28485977D01*
X47892402Y-28600941D01*
X48083580Y-28680130D01*
X48286535Y-28720500D01*
X48286536Y-28720500D01*
X48493464Y-28720500D01*
X48493465Y-28720500D01*
X48696420Y-28680130D01*
X48887598Y-28600941D01*
X49059655Y-28485977D01*
X49205977Y-28339655D01*
X49320941Y-28167598D01*
X49400130Y-27976420D01*
X49440500Y-27773465D01*
X49440500Y-27566535D01*
X49400130Y-27363580D01*
X49320941Y-27172402D01*
X49205977Y-27000345D01*
X49059655Y-26854023D01*
X48934939Y-26770691D01*
X48887597Y-26739058D01*
X48696418Y-26659869D01*
X48493467Y-26619500D01*
X48493465Y-26619500D01*
X48286535Y-26619500D01*
X48286532Y-26619500D01*
X48083581Y-26659869D01*
X47892402Y-26739058D01*
X47720348Y-26854020D01*
X47574020Y-27000348D01*
X47459058Y-27172402D01*
X47379869Y-27363581D01*
X47339500Y-27566532D01*
X36550500Y-27566532D01*
X36550500Y-25099499D01*
X36569407Y-25041308D01*
X36618907Y-25005344D01*
X36649500Y-25000499D01*
X36854265Y-25000499D01*
X36860350Y-24999928D01*
X36884698Y-24997646D01*
X37012882Y-24952793D01*
X37122150Y-24872150D01*
X37202793Y-24762882D01*
X37247646Y-24634698D01*
X37250500Y-24604265D01*
X37250499Y-23489774D01*
X37949500Y-23489774D01*
X37949500Y-23710225D01*
X37983984Y-23927948D01*
X38052102Y-24137599D01*
X38052104Y-24137602D01*
X38052105Y-24137606D01*
X38083417Y-24199058D01*
X38147162Y-24324165D01*
X38152185Y-24334022D01*
X38281758Y-24512365D01*
X38437635Y-24668242D01*
X38615978Y-24797815D01*
X38812394Y-24897895D01*
X39022049Y-24966015D01*
X39109140Y-24979809D01*
X39239775Y-25000500D01*
X39239778Y-25000500D01*
X39460225Y-25000500D01*
X39569086Y-24983257D01*
X39677951Y-24966015D01*
X39887606Y-24897895D01*
X40084022Y-24797815D01*
X40262365Y-24668242D01*
X40418242Y-24512365D01*
X40547815Y-24334022D01*
X40647895Y-24137606D01*
X40716015Y-23927951D01*
X40737439Y-23792686D01*
X40750500Y-23710225D01*
X40750500Y-23489774D01*
X40726757Y-23339869D01*
X40716015Y-23272049D01*
X40647895Y-23062394D01*
X40547815Y-22865978D01*
X40418242Y-22687635D01*
X40262365Y-22531758D01*
X40084022Y-22402185D01*
X40084021Y-22402184D01*
X40084019Y-22402183D01*
X39994825Y-22356736D01*
X39887606Y-22302105D01*
X39887602Y-22302104D01*
X39887599Y-22302102D01*
X39677948Y-22233984D01*
X39460225Y-22199500D01*
X39460222Y-22199500D01*
X39239778Y-22199500D01*
X39239775Y-22199500D01*
X39022051Y-22233984D01*
X38812400Y-22302102D01*
X38615980Y-22402183D01*
X38529684Y-22464881D01*
X38437635Y-22531758D01*
X38281758Y-22687635D01*
X38219440Y-22773409D01*
X38152183Y-22865980D01*
X38052102Y-23062400D01*
X37983984Y-23272051D01*
X37949500Y-23489774D01*
X37250499Y-23489774D01*
X37250499Y-22595736D01*
X37247646Y-22565302D01*
X37202793Y-22437118D01*
X37202791Y-22437116D01*
X37202791Y-22437114D01*
X37122154Y-22327855D01*
X37122152Y-22327853D01*
X37122150Y-22327850D01*
X37122146Y-22327847D01*
X37122144Y-22327845D01*
X37012885Y-22247208D01*
X36943281Y-22222853D01*
X36884698Y-22202354D01*
X36884696Y-22202353D01*
X36884694Y-22202353D01*
X36854272Y-22199500D01*
X34845734Y-22199500D01*
X34815305Y-22202353D01*
X34687114Y-22247208D01*
X34577855Y-22327845D01*
X34577845Y-22327855D01*
X34497208Y-22437114D01*
X34452353Y-22565305D01*
X34449500Y-22595726D01*
X34449500Y-24604265D01*
X34452353Y-24634694D01*
X34452353Y-24634696D01*
X34452354Y-24634698D01*
X34469931Y-24684931D01*
X34497208Y-24762885D01*
X34577845Y-24872144D01*
X34577847Y-24872146D01*
X34577850Y-24872150D01*
X34577853Y-24872152D01*
X34577855Y-24872154D01*
X34687114Y-24952791D01*
X34687116Y-24952791D01*
X34687118Y-24952793D01*
X34815302Y-24997646D01*
X34845735Y-25000500D01*
X35050501Y-25000499D01*
X35108690Y-25019406D01*
X35144654Y-25068906D01*
X35149500Y-25099499D01*
X35149500Y-43021496D01*
X35176420Y-43156827D01*
X35176420Y-43156829D01*
X35229223Y-43284308D01*
X35298852Y-43388517D01*
X35305886Y-43399043D01*
X47301957Y-55395114D01*
X47416689Y-55471775D01*
X47544172Y-55524580D01*
X47679506Y-55551500D01*
X47679507Y-55551500D01*
X47817493Y-55551500D01*
X47817494Y-55551500D01*
X47952828Y-55524580D01*
X48080311Y-55471775D01*
X48120098Y-55445189D01*
X48178986Y-55428581D01*
X48236390Y-55449758D01*
X48270383Y-55500632D01*
X48274100Y-55527505D01*
X48274100Y-55872565D01*
X48255193Y-55930756D01*
X48245104Y-55942569D01*
X44663469Y-59524204D01*
X44608952Y-59551981D01*
X44593465Y-59553200D01*
X44184153Y-59553200D01*
X44098447Y-59553200D01*
X44015661Y-59575382D01*
X44015660Y-59575382D01*
X44015658Y-59575383D01*
X43993967Y-59587907D01*
X43941436Y-59618235D01*
X43880834Y-59678837D01*
X43880835Y-59678838D01*
X43880833Y-59678840D01*
X41811357Y-61748315D01*
X41756840Y-61776092D01*
X41696408Y-61766521D01*
X41653143Y-61723256D01*
X41651629Y-61720151D01*
X41614066Y-61639598D01*
X41614065Y-61639597D01*
X41614065Y-61639596D01*
X41530404Y-61555935D01*
X41530402Y-61555934D01*
X41530401Y-61555933D01*
X41423175Y-61505932D01*
X41390601Y-61501644D01*
X41374316Y-61499500D01*
X40665684Y-61499500D01*
X40649398Y-61501644D01*
X40616825Y-61505932D01*
X40616824Y-61505932D01*
X40509598Y-61555933D01*
X40425933Y-61639598D01*
X40375932Y-61746824D01*
X40375932Y-61746825D01*
X40375932Y-61746827D01*
X40369500Y-61795684D01*
X40369500Y-64204316D01*
X40373788Y-64236887D01*
X40375932Y-64253174D01*
X40375932Y-64253175D01*
X40425122Y-64358661D01*
X40432579Y-64419390D01*
X40402916Y-64472904D01*
X40347463Y-64498762D01*
X40335398Y-64499500D01*
X39164602Y-64499500D01*
X39106411Y-64480593D01*
X39070447Y-64431093D01*
X39070447Y-64369907D01*
X39074878Y-64358661D01*
X39124067Y-64253175D01*
X39124068Y-64253173D01*
X39130500Y-64204316D01*
X39130500Y-61795684D01*
X39124068Y-61746827D01*
X39120805Y-61739830D01*
X39074066Y-61639598D01*
X39074065Y-61639597D01*
X39074065Y-61639596D01*
X38990404Y-61555935D01*
X38990402Y-61555934D01*
X38990401Y-61555933D01*
X38883176Y-61505933D01*
X38876797Y-61504074D01*
X38826222Y-61469639D01*
X38805546Y-61412053D01*
X38805500Y-61409029D01*
X38805500Y-55370235D01*
X38824407Y-55312044D01*
X38834496Y-55300231D01*
X38878231Y-55256496D01*
X38932748Y-55228719D01*
X38948235Y-55227500D01*
X39013290Y-55227500D01*
X39013292Y-55227500D01*
X39140586Y-55193392D01*
X39140588Y-55193390D01*
X39140590Y-55193390D01*
X39254709Y-55127503D01*
X39254709Y-55127502D01*
X39254714Y-55127500D01*
X39347900Y-55034314D01*
X39347903Y-55034309D01*
X39413790Y-54920190D01*
X39413790Y-54920188D01*
X39413792Y-54920186D01*
X39447900Y-54792892D01*
X39447900Y-54661108D01*
X39413792Y-54533814D01*
X39413790Y-54533811D01*
X39413790Y-54533809D01*
X39347903Y-54419690D01*
X39347901Y-54419688D01*
X39347900Y-54419686D01*
X39254714Y-54326500D01*
X39254711Y-54326498D01*
X39254709Y-54326496D01*
X39140589Y-54260609D01*
X39140591Y-54260609D01*
X39091199Y-54247375D01*
X39013292Y-54226500D01*
X38881508Y-54226500D01*
X38803600Y-54247375D01*
X38754209Y-54260609D01*
X38640090Y-54326496D01*
X38546896Y-54419690D01*
X38481009Y-54533809D01*
X38446900Y-54661109D01*
X38446900Y-54726165D01*
X38427993Y-54784356D01*
X38417904Y-54796168D01*
X38219535Y-54994537D01*
X38219531Y-54994542D01*
X38176682Y-55068760D01*
X38176681Y-55068760D01*
X38176682Y-55068761D01*
X38154500Y-55151547D01*
X38154500Y-61409029D01*
X38135593Y-61467220D01*
X38086093Y-61503184D01*
X38083203Y-61504074D01*
X38076823Y-61505933D01*
X37969598Y-61555933D01*
X37885933Y-61639598D01*
X37835932Y-61746824D01*
X37835932Y-61746825D01*
X37835932Y-61746827D01*
X37829500Y-61795684D01*
X37829500Y-64204316D01*
X37833788Y-64236887D01*
X37835932Y-64253174D01*
X37835932Y-64253175D01*
X37885122Y-64358661D01*
X37892579Y-64419390D01*
X37862916Y-64472904D01*
X37807463Y-64498762D01*
X37795398Y-64499500D01*
X36624602Y-64499500D01*
X36566411Y-64480593D01*
X36530447Y-64431093D01*
X36530447Y-64369907D01*
X36534878Y-64358661D01*
X36584067Y-64253175D01*
X36584068Y-64253173D01*
X36590500Y-64204316D01*
X36590500Y-61795684D01*
X36584068Y-61746827D01*
X36580805Y-61739830D01*
X36534066Y-61639598D01*
X36534065Y-61639597D01*
X36534065Y-61639596D01*
X36450404Y-61555935D01*
X36450402Y-61555934D01*
X36450401Y-61555933D01*
X36343175Y-61505932D01*
X36310601Y-61501644D01*
X36294316Y-61499500D01*
X35585684Y-61499500D01*
X35569398Y-61501644D01*
X35536825Y-61505932D01*
X35536824Y-61505932D01*
X35429598Y-61555933D01*
X35345933Y-61639598D01*
X35308370Y-61720151D01*
X35266641Y-61764899D01*
X35206580Y-61776573D01*
X35151127Y-61750714D01*
X35148642Y-61748315D01*
X30964496Y-57564169D01*
X30936719Y-57509652D01*
X30935500Y-57494165D01*
X30935500Y-51598375D01*
X30954407Y-51540184D01*
X30996613Y-51506911D01*
X31107598Y-51460941D01*
X31279655Y-51345977D01*
X31425977Y-51199655D01*
X31540941Y-51027598D01*
X31620130Y-50836420D01*
X31660500Y-50633465D01*
X31660500Y-50426535D01*
X31620130Y-50223580D01*
X31540941Y-50032402D01*
X31425977Y-49860345D01*
X31279655Y-49714023D01*
X31107598Y-49599059D01*
X31107599Y-49599059D01*
X31107597Y-49599058D01*
X30916418Y-49519869D01*
X30713467Y-49479500D01*
X30713465Y-49479500D01*
X30506535Y-49479500D01*
X30506532Y-49479500D01*
X30303581Y-49519869D01*
X30112402Y-49599058D01*
X29940348Y-49714020D01*
X29940345Y-49714022D01*
X29940345Y-49714023D01*
X29825001Y-49829366D01*
X29770487Y-49857142D01*
X29710055Y-49847571D01*
X29666790Y-49804306D01*
X29656000Y-49759361D01*
X29656000Y-49445333D01*
X29674907Y-49387142D01*
X29684990Y-49375336D01*
X30084708Y-48975617D01*
X30139223Y-48947841D01*
X30192594Y-48954157D01*
X30303580Y-49000130D01*
X30506535Y-49040500D01*
X30506536Y-49040500D01*
X30713464Y-49040500D01*
X30713465Y-49040500D01*
X30916420Y-49000130D01*
X31107598Y-48920941D01*
X31279655Y-48805977D01*
X31425977Y-48659655D01*
X31540941Y-48487598D01*
X31620130Y-48296420D01*
X31660500Y-48093465D01*
X31660500Y-47886535D01*
X31620130Y-47683580D01*
X31540941Y-47492402D01*
X31425977Y-47320345D01*
X31279655Y-47174023D01*
X31107598Y-47059059D01*
X31107599Y-47059059D01*
X31107597Y-47059058D01*
X30916418Y-46979869D01*
X30713467Y-46939500D01*
X30713465Y-46939500D01*
X30506535Y-46939500D01*
X30506532Y-46939500D01*
X30303581Y-46979869D01*
X30112402Y-47059058D01*
X29940348Y-47174020D01*
X29794020Y-47320348D01*
X29679058Y-47492402D01*
X29599869Y-47683581D01*
X29559500Y-47886532D01*
X29559500Y-48093467D01*
X29599870Y-48296419D01*
X29599870Y-48296421D01*
X29645840Y-48407403D01*
X29650640Y-48468400D01*
X29624380Y-48515291D01*
X29365504Y-48774168D01*
X29310987Y-48801946D01*
X29250555Y-48792375D01*
X29207290Y-48749110D01*
X29196500Y-48704165D01*
X29196500Y-44824834D01*
X29215407Y-44766643D01*
X29225490Y-44754836D01*
X30084709Y-43895616D01*
X30139224Y-43867841D01*
X30192593Y-43874157D01*
X30303580Y-43920130D01*
X30506535Y-43960500D01*
X30506536Y-43960500D01*
X30713464Y-43960500D01*
X30713465Y-43960500D01*
X30916420Y-43920130D01*
X31107598Y-43840941D01*
X31279655Y-43725977D01*
X31425977Y-43579655D01*
X31540941Y-43407598D01*
X31620130Y-43216420D01*
X31660500Y-43013465D01*
X31660500Y-42806535D01*
X31620130Y-42603580D01*
X31540941Y-42412402D01*
X31425977Y-42240345D01*
X31279655Y-42094023D01*
X31107598Y-41979059D01*
X31107599Y-41979059D01*
X31107597Y-41979058D01*
X30916418Y-41899869D01*
X30713467Y-41859500D01*
X30713465Y-41859500D01*
X30506535Y-41859500D01*
X30506532Y-41859500D01*
X30303581Y-41899869D01*
X30112402Y-41979058D01*
X29940348Y-42094020D01*
X29794020Y-42240348D01*
X29679058Y-42412402D01*
X29599869Y-42603581D01*
X29559500Y-42806532D01*
X29559500Y-42806535D01*
X29559500Y-43013465D01*
X29588016Y-43156828D01*
X29599870Y-43216419D01*
X29599870Y-43216421D01*
X29645840Y-43327402D01*
X29650641Y-43388398D01*
X29624380Y-43435291D01*
X28814504Y-44245168D01*
X28759987Y-44272945D01*
X28699555Y-44263374D01*
X28656290Y-44220109D01*
X28645500Y-44175164D01*
X28645500Y-42835834D01*
X28664407Y-42777643D01*
X28674490Y-42765836D01*
X30084709Y-41355616D01*
X30139224Y-41327841D01*
X30192593Y-41334157D01*
X30303580Y-41380130D01*
X30506535Y-41420500D01*
X30506536Y-41420500D01*
X30713464Y-41420500D01*
X30713465Y-41420500D01*
X30916420Y-41380130D01*
X31107598Y-41300941D01*
X31279655Y-41185977D01*
X31425977Y-41039655D01*
X31540941Y-40867598D01*
X31620130Y-40676420D01*
X31660500Y-40473465D01*
X31660500Y-40266535D01*
X31620130Y-40063580D01*
X31540941Y-39872402D01*
X31425977Y-39700345D01*
X31279655Y-39554023D01*
X31279651Y-39554020D01*
X31107597Y-39439058D01*
X30916418Y-39359869D01*
X30713467Y-39319500D01*
X30713465Y-39319500D01*
X30506535Y-39319500D01*
X30506532Y-39319500D01*
X30303581Y-39359869D01*
X30112402Y-39439058D01*
X29940348Y-39554020D01*
X29794020Y-39700348D01*
X29679058Y-39872402D01*
X29599869Y-40063581D01*
X29559500Y-40266532D01*
X29559500Y-40473467D01*
X29599870Y-40676419D01*
X29599870Y-40676421D01*
X29645840Y-40787402D01*
X29650641Y-40848398D01*
X29624380Y-40895291D01*
X28059532Y-42460141D01*
X28059531Y-42460142D01*
X28016682Y-42534360D01*
X28016681Y-42534360D01*
X28016682Y-42534361D01*
X27994500Y-42617147D01*
X27994500Y-61409029D01*
X27975593Y-61467220D01*
X27926093Y-61503184D01*
X27923203Y-61504074D01*
X27916823Y-61505933D01*
X27809598Y-61555933D01*
X27725933Y-61639598D01*
X27675932Y-61746824D01*
X27675932Y-61746825D01*
X27675932Y-61746827D01*
X27669500Y-61795684D01*
X27669500Y-64204316D01*
X27673788Y-64236887D01*
X27675932Y-64253174D01*
X27675932Y-64253175D01*
X27725122Y-64358661D01*
X27732579Y-64419390D01*
X27702916Y-64472904D01*
X27647463Y-64498762D01*
X27635398Y-64499500D01*
X26464602Y-64499500D01*
X26406411Y-64480593D01*
X26370447Y-64431093D01*
X26370447Y-64369907D01*
X26374878Y-64358661D01*
X26424067Y-64253175D01*
X26424068Y-64253173D01*
X26430500Y-64204316D01*
X26430500Y-61795684D01*
X26424068Y-61746827D01*
X26420805Y-61739830D01*
X26374066Y-61639598D01*
X26374065Y-61639597D01*
X26374065Y-61639596D01*
X26290404Y-61555935D01*
X26290402Y-61555934D01*
X26290401Y-61555933D01*
X26183176Y-61505933D01*
X26176797Y-61504074D01*
X26126222Y-61469639D01*
X26105546Y-61412053D01*
X26105500Y-61409029D01*
X26105500Y-42835833D01*
X26124407Y-42777642D01*
X26134490Y-42765835D01*
X30084708Y-38815616D01*
X30139223Y-38787841D01*
X30192593Y-38794157D01*
X30303580Y-38840130D01*
X30506535Y-38880500D01*
X30506536Y-38880500D01*
X30713464Y-38880500D01*
X30713465Y-38880500D01*
X30916420Y-38840130D01*
X31107598Y-38760941D01*
X31279655Y-38645977D01*
X31425977Y-38499655D01*
X31540941Y-38327598D01*
X31620130Y-38136420D01*
X31660500Y-37933465D01*
X31660500Y-37726535D01*
X31620130Y-37523580D01*
X31540941Y-37332402D01*
X31425977Y-37160345D01*
X31279655Y-37014023D01*
X31107598Y-36899059D01*
X31107599Y-36899059D01*
X31107597Y-36899058D01*
X30916418Y-36819869D01*
X30713467Y-36779500D01*
X30713465Y-36779500D01*
X30506535Y-36779500D01*
X30506532Y-36779500D01*
X30303581Y-36819869D01*
X30112402Y-36899058D01*
X29940348Y-37014020D01*
X29794020Y-37160348D01*
X29679058Y-37332402D01*
X29599869Y-37523581D01*
X29559500Y-37726532D01*
X29559500Y-37933467D01*
X29580123Y-38037147D01*
X29599869Y-38136417D01*
X29599870Y-38136419D01*
X29599870Y-38136421D01*
X29645840Y-38247403D01*
X29650640Y-38308400D01*
X29624380Y-38355292D01*
X25519532Y-42460141D01*
X25519531Y-42460142D01*
X25476682Y-42534360D01*
X25476681Y-42534360D01*
X25476682Y-42534361D01*
X25454500Y-42617147D01*
X25454500Y-61409029D01*
X25435593Y-61467220D01*
X25386093Y-61503184D01*
X25383203Y-61504074D01*
X25376823Y-61505933D01*
X25269598Y-61555933D01*
X25185933Y-61639598D01*
X25135932Y-61746824D01*
X25135932Y-61746825D01*
X25135932Y-61746827D01*
X25129500Y-61795684D01*
X25129500Y-64204316D01*
X25133788Y-64236887D01*
X25135932Y-64253174D01*
X25135932Y-64253175D01*
X25185122Y-64358661D01*
X25192579Y-64419390D01*
X25162916Y-64472904D01*
X25107463Y-64498762D01*
X25095398Y-64499500D01*
X23924602Y-64499500D01*
X23866411Y-64480593D01*
X23830447Y-64431093D01*
X23830447Y-64369907D01*
X23834878Y-64358661D01*
X23884067Y-64253175D01*
X23884068Y-64253173D01*
X23890500Y-64204316D01*
X23890500Y-61795684D01*
X23884068Y-61746827D01*
X23880805Y-61739830D01*
X23834066Y-61639598D01*
X23834065Y-61639597D01*
X23834065Y-61639596D01*
X23750404Y-61555935D01*
X23750402Y-61555934D01*
X23750401Y-61555933D01*
X23643176Y-61505933D01*
X23636797Y-61504074D01*
X23586222Y-61469639D01*
X23565546Y-61412053D01*
X23565500Y-61409029D01*
X23565500Y-42835834D01*
X23584407Y-42777643D01*
X23594490Y-42765836D01*
X30084709Y-36275616D01*
X30139224Y-36247841D01*
X30192593Y-36254157D01*
X30303580Y-36300130D01*
X30506535Y-36340500D01*
X30506536Y-36340500D01*
X30713464Y-36340500D01*
X30713465Y-36340500D01*
X30916420Y-36300130D01*
X31107598Y-36220941D01*
X31279655Y-36105977D01*
X31425977Y-35959655D01*
X31540941Y-35787598D01*
X31620130Y-35596420D01*
X31660500Y-35393465D01*
X31660500Y-35186535D01*
X31620130Y-34983580D01*
X31540941Y-34792402D01*
X31425977Y-34620345D01*
X31279655Y-34474023D01*
X31107598Y-34359059D01*
X31107599Y-34359059D01*
X31107597Y-34359058D01*
X30916418Y-34279869D01*
X30713467Y-34239500D01*
X30713465Y-34239500D01*
X30506535Y-34239500D01*
X30506532Y-34239500D01*
X30303581Y-34279869D01*
X30112402Y-34359058D01*
X29940348Y-34474020D01*
X29794020Y-34620348D01*
X29679058Y-34792402D01*
X29599869Y-34983581D01*
X29559500Y-35186532D01*
X29559500Y-35393467D01*
X29580123Y-35497147D01*
X29599869Y-35596417D01*
X29599870Y-35596419D01*
X29599870Y-35596421D01*
X29645840Y-35707402D01*
X29650641Y-35768398D01*
X29624380Y-35815291D01*
X22979532Y-42460141D01*
X22979531Y-42460142D01*
X22936682Y-42534360D01*
X22936681Y-42534360D01*
X22936682Y-42534361D01*
X22914500Y-42617147D01*
X22914500Y-61409029D01*
X22895593Y-61467220D01*
X22846093Y-61503184D01*
X22843203Y-61504074D01*
X22836823Y-61505933D01*
X22729598Y-61555933D01*
X22645933Y-61639598D01*
X22595932Y-61746824D01*
X22595932Y-61746825D01*
X22595932Y-61746827D01*
X22589500Y-61795684D01*
X22589500Y-64204316D01*
X22593788Y-64236887D01*
X22595932Y-64253174D01*
X22595932Y-64253175D01*
X22645122Y-64358661D01*
X22652579Y-64419390D01*
X22622916Y-64472904D01*
X22567463Y-64498762D01*
X22555398Y-64499500D01*
X21384602Y-64499500D01*
X21326411Y-64480593D01*
X21290447Y-64431093D01*
X21290447Y-64369907D01*
X21294878Y-64358661D01*
X21344067Y-64253175D01*
X21344068Y-64253173D01*
X21350500Y-64204316D01*
X21350500Y-61795684D01*
X21344068Y-61746827D01*
X21340805Y-61739830D01*
X21294066Y-61639598D01*
X21294065Y-61639597D01*
X21294065Y-61639596D01*
X21210404Y-61555935D01*
X21210402Y-61555934D01*
X21210401Y-61555933D01*
X21103176Y-61505933D01*
X21096797Y-61504074D01*
X21046222Y-61469639D01*
X21025546Y-61412053D01*
X21025500Y-61409029D01*
X21025500Y-40295834D01*
X21044407Y-40237643D01*
X21054490Y-40225836D01*
X30084709Y-31195616D01*
X30139224Y-31167841D01*
X30192593Y-31174157D01*
X30303580Y-31220130D01*
X30506535Y-31260500D01*
X30506536Y-31260500D01*
X30713464Y-31260500D01*
X30713465Y-31260500D01*
X30916420Y-31220130D01*
X31107598Y-31140941D01*
X31279655Y-31025977D01*
X31425977Y-30879655D01*
X31540941Y-30707598D01*
X31620130Y-30516420D01*
X31660500Y-30313465D01*
X31660500Y-30106535D01*
X31620130Y-29903580D01*
X31540941Y-29712402D01*
X31425977Y-29540345D01*
X31279655Y-29394023D01*
X31279651Y-29394020D01*
X31107597Y-29279058D01*
X30916418Y-29199869D01*
X30713467Y-29159500D01*
X30713465Y-29159500D01*
X30506535Y-29159500D01*
X30506532Y-29159500D01*
X30303581Y-29199869D01*
X30112402Y-29279058D01*
X29940348Y-29394020D01*
X29794020Y-29540348D01*
X29679058Y-29712402D01*
X29599869Y-29903581D01*
X29559500Y-30106532D01*
X29559500Y-30106535D01*
X29559500Y-30313465D01*
X29599869Y-30516417D01*
X29599870Y-30516419D01*
X29599870Y-30516421D01*
X29645840Y-30627402D01*
X29650641Y-30688398D01*
X29624380Y-30735291D01*
X22656693Y-37702980D01*
X20439535Y-39920138D01*
X20396682Y-39994361D01*
X20396682Y-39994362D01*
X20396679Y-39994367D01*
X20391285Y-40014503D01*
X20391285Y-40014505D01*
X20374500Y-40077147D01*
X20374500Y-61409029D01*
X20355593Y-61467220D01*
X20306093Y-61503184D01*
X20303203Y-61504074D01*
X20296823Y-61505933D01*
X20189598Y-61555933D01*
X20105933Y-61639598D01*
X20055932Y-61746824D01*
X20055932Y-61746825D01*
X20055932Y-61746827D01*
X20049500Y-61795684D01*
X20049500Y-64204316D01*
X20053788Y-64236887D01*
X20055932Y-64253174D01*
X20055932Y-64253175D01*
X20105122Y-64358661D01*
X20112579Y-64419390D01*
X20082916Y-64472904D01*
X20027463Y-64498762D01*
X20015398Y-64499500D01*
X18844602Y-64499500D01*
X18786411Y-64480593D01*
X18750447Y-64431093D01*
X18750447Y-64369907D01*
X18754878Y-64358661D01*
X18804067Y-64253175D01*
X18804068Y-64253173D01*
X18810500Y-64204316D01*
X18810500Y-61795684D01*
X18804068Y-61746827D01*
X18800805Y-61739830D01*
X18754066Y-61639598D01*
X18754065Y-61639597D01*
X18754065Y-61639596D01*
X18670404Y-61555935D01*
X18670402Y-61555934D01*
X18670401Y-61555933D01*
X18563176Y-61505933D01*
X18556797Y-61504074D01*
X18506222Y-61469639D01*
X18485546Y-61412053D01*
X18485500Y-61409029D01*
X18485500Y-39869234D01*
X18504407Y-39811043D01*
X18514490Y-39799236D01*
X29815400Y-28498325D01*
X29869915Y-28470550D01*
X29930347Y-28480121D01*
X29940393Y-28486009D01*
X30112402Y-28600941D01*
X30303580Y-28680130D01*
X30506535Y-28720500D01*
X30506536Y-28720500D01*
X30713464Y-28720500D01*
X30713465Y-28720500D01*
X30916420Y-28680130D01*
X31107598Y-28600941D01*
X31279655Y-28485977D01*
X31425977Y-28339655D01*
X31540941Y-28167598D01*
X31620130Y-27976420D01*
X31660500Y-27773465D01*
X31660500Y-27566535D01*
X31620130Y-27363580D01*
X31540941Y-27172402D01*
X31425977Y-27000345D01*
X31279655Y-26854023D01*
X31154939Y-26770691D01*
X31107597Y-26739058D01*
X30916418Y-26659869D01*
X30713467Y-26619500D01*
X30713465Y-26619500D01*
X30506535Y-26619500D01*
X30506532Y-26619500D01*
X30303581Y-26659869D01*
X30112402Y-26739058D01*
X29940348Y-26854020D01*
X29794020Y-27000348D01*
X29679058Y-27172402D01*
X29599869Y-27363581D01*
X29559500Y-27566532D01*
X29559500Y-27773462D01*
X29559977Y-27778308D01*
X29558351Y-27778467D01*
X29551946Y-27832481D01*
X29532054Y-27861017D01*
X28437891Y-28955180D01*
X28383374Y-28982957D01*
X28322942Y-28973386D01*
X28279677Y-28930121D01*
X28270106Y-28869689D01*
X28282149Y-28835678D01*
X28324292Y-28762686D01*
X28358400Y-28635392D01*
X28358400Y-28570334D01*
X28377307Y-28512143D01*
X28387390Y-28500336D01*
X28586665Y-28301062D01*
X28629518Y-28226839D01*
X28651700Y-28144053D01*
X28651700Y-28058347D01*
X28651700Y-25026532D01*
X29559500Y-25026532D01*
X29559500Y-25233467D01*
X29599869Y-25436418D01*
X29679058Y-25627597D01*
X29794020Y-25799651D01*
X29794023Y-25799655D01*
X29940345Y-25945977D01*
X30112402Y-26060941D01*
X30303580Y-26140130D01*
X30506535Y-26180500D01*
X30506536Y-26180500D01*
X30713464Y-26180500D01*
X30713465Y-26180500D01*
X30916420Y-26140130D01*
X31107598Y-26060941D01*
X31279655Y-25945977D01*
X31425977Y-25799655D01*
X31540941Y-25627598D01*
X31620130Y-25436420D01*
X31660500Y-25233465D01*
X31660500Y-25026535D01*
X31620130Y-24823580D01*
X31540941Y-24632402D01*
X31425977Y-24460345D01*
X31279655Y-24314023D01*
X31236972Y-24285503D01*
X31107597Y-24199058D01*
X30916418Y-24119869D01*
X30713467Y-24079500D01*
X30713465Y-24079500D01*
X30506535Y-24079500D01*
X30506532Y-24079500D01*
X30303581Y-24119869D01*
X30112402Y-24199058D01*
X29940348Y-24314020D01*
X29794020Y-24460348D01*
X29679058Y-24632402D01*
X29599869Y-24823581D01*
X29559500Y-25026532D01*
X28651700Y-25026532D01*
X28651700Y-22486532D01*
X29559500Y-22486532D01*
X29559500Y-22693467D01*
X29599869Y-22896418D01*
X29679058Y-23087597D01*
X29789821Y-23253366D01*
X29794023Y-23259655D01*
X29940345Y-23405977D01*
X30112402Y-23520941D01*
X30303580Y-23600130D01*
X30506535Y-23640500D01*
X30506536Y-23640500D01*
X30713464Y-23640500D01*
X30713465Y-23640500D01*
X30916420Y-23600130D01*
X31107598Y-23520941D01*
X31279655Y-23405977D01*
X31425977Y-23259655D01*
X31540941Y-23087598D01*
X31620130Y-22896420D01*
X31660500Y-22693465D01*
X31660500Y-22486535D01*
X31620130Y-22283580D01*
X31540941Y-22092402D01*
X31425977Y-21920345D01*
X31279655Y-21774023D01*
X31228607Y-21739914D01*
X31107597Y-21659058D01*
X30916418Y-21579869D01*
X30713467Y-21539500D01*
X30713465Y-21539500D01*
X30506535Y-21539500D01*
X30506532Y-21539500D01*
X30303581Y-21579869D01*
X30112402Y-21659058D01*
X29940348Y-21774020D01*
X29794020Y-21920348D01*
X29679058Y-22092402D01*
X29599869Y-22283581D01*
X29559500Y-22486532D01*
X28651700Y-22486532D01*
X28651700Y-21780921D01*
X28670607Y-21722730D01*
X28680690Y-21710923D01*
X28726700Y-21664914D01*
X28726703Y-21664909D01*
X28792590Y-21550790D01*
X28792590Y-21550788D01*
X28792592Y-21550786D01*
X28826700Y-21423492D01*
X28826700Y-21291708D01*
X28792592Y-21164414D01*
X28792590Y-21164411D01*
X28792590Y-21164409D01*
X28726703Y-21050290D01*
X28726701Y-21050288D01*
X28726700Y-21050286D01*
X28633514Y-20957100D01*
X28633511Y-20957098D01*
X28534332Y-20899836D01*
X28493392Y-20854366D01*
X28486997Y-20793516D01*
X28513827Y-20744098D01*
X30123431Y-19134496D01*
X30177948Y-19106719D01*
X30193435Y-19105500D01*
X32282451Y-19105500D01*
X32282453Y-19105500D01*
X32365239Y-19083318D01*
X32365241Y-19083316D01*
X32365243Y-19083316D01*
X32439457Y-19040468D01*
X32439457Y-19040467D01*
X32439462Y-19040465D01*
X32505537Y-18974389D01*
X32560051Y-18946613D01*
X32620483Y-18956184D01*
X32663748Y-18999448D01*
X32673320Y-19059880D01*
X32671166Y-19070015D01*
X32663800Y-19097505D01*
X32663800Y-19097508D01*
X32663800Y-19229292D01*
X32671120Y-19256611D01*
X32697909Y-19356590D01*
X32763796Y-19470709D01*
X32763798Y-19470711D01*
X32763800Y-19470714D01*
X32809805Y-19516719D01*
X32837581Y-19571234D01*
X32838800Y-19586721D01*
X32838800Y-26826847D01*
X32838800Y-26912553D01*
X32851835Y-26961200D01*
X32860983Y-26995343D01*
X32903831Y-27069557D01*
X32903833Y-27069559D01*
X32903835Y-27069562D01*
X33197854Y-27363580D01*
X33458004Y-27623730D01*
X33485781Y-27678247D01*
X33487000Y-27693734D01*
X33487000Y-27758792D01*
X33495111Y-27789062D01*
X33521109Y-27886090D01*
X33586996Y-28000209D01*
X33586998Y-28000211D01*
X33587000Y-28000214D01*
X33680186Y-28093400D01*
X33680188Y-28093401D01*
X33680190Y-28093403D01*
X33794310Y-28159290D01*
X33794308Y-28159290D01*
X33794312Y-28159291D01*
X33794314Y-28159292D01*
X33921608Y-28193400D01*
X33921610Y-28193400D01*
X34053390Y-28193400D01*
X34053392Y-28193400D01*
X34180686Y-28159292D01*
X34180688Y-28159290D01*
X34180690Y-28159290D01*
X34294809Y-28093403D01*
X34294809Y-28093402D01*
X34294814Y-28093400D01*
X34388000Y-28000214D01*
X34407538Y-27966373D01*
X34453890Y-27886090D01*
X34453890Y-27886088D01*
X34453892Y-27886086D01*
X34488000Y-27758792D01*
X34488000Y-27627008D01*
X34453892Y-27499714D01*
X34453890Y-27499711D01*
X34453890Y-27499709D01*
X34388003Y-27385590D01*
X34388001Y-27385588D01*
X34388000Y-27385586D01*
X34294814Y-27292400D01*
X34294811Y-27292398D01*
X34294809Y-27292396D01*
X34180689Y-27226509D01*
X34180691Y-27226509D01*
X34131299Y-27213275D01*
X34053392Y-27192400D01*
X34053390Y-27192400D01*
X33988333Y-27192400D01*
X33930142Y-27173493D01*
X33918329Y-27163403D01*
X33518796Y-26763869D01*
X33491019Y-26709353D01*
X33489800Y-26693866D01*
X33489800Y-19586721D01*
X33508707Y-19528530D01*
X33518790Y-19516723D01*
X33564800Y-19470714D01*
X33604013Y-19402796D01*
X33630690Y-19356590D01*
X33630690Y-19356588D01*
X33630692Y-19356586D01*
X33664800Y-19229292D01*
X33664800Y-19097508D01*
X33630692Y-18970214D01*
X33630690Y-18970211D01*
X33630690Y-18970209D01*
X33564803Y-18856090D01*
X33564801Y-18856088D01*
X33564800Y-18856086D01*
X33471614Y-18762900D01*
X33471611Y-18762898D01*
X33471609Y-18762896D01*
X33357489Y-18697009D01*
X33357491Y-18697009D01*
X33308099Y-18683775D01*
X33230192Y-18662900D01*
X33098408Y-18662900D01*
X33098405Y-18662900D01*
X33070915Y-18670266D01*
X33009814Y-18667063D01*
X32962265Y-18628557D01*
X32946430Y-18569456D01*
X32968358Y-18512335D01*
X32975271Y-18504655D01*
X36613395Y-14866532D01*
X47339500Y-14866532D01*
X47339500Y-15073467D01*
X47379869Y-15276418D01*
X47459058Y-15467597D01*
X47459059Y-15467598D01*
X47574023Y-15639655D01*
X47720345Y-15785977D01*
X47892402Y-15900941D01*
X48083580Y-15980130D01*
X48286535Y-16020500D01*
X48286536Y-16020500D01*
X48493464Y-16020500D01*
X48493465Y-16020500D01*
X48696420Y-15980130D01*
X48887598Y-15900941D01*
X49059655Y-15785977D01*
X49205977Y-15639655D01*
X49320941Y-15467598D01*
X49400130Y-15276420D01*
X49440500Y-15073465D01*
X49440500Y-14866535D01*
X49400130Y-14663580D01*
X49320941Y-14472402D01*
X49205977Y-14300345D01*
X49059655Y-14154023D01*
X48887598Y-14039059D01*
X48887599Y-14039059D01*
X48887597Y-14039058D01*
X48696418Y-13959869D01*
X48493467Y-13919500D01*
X48493465Y-13919500D01*
X48286535Y-13919500D01*
X48286532Y-13919500D01*
X48083581Y-13959869D01*
X47892402Y-14039058D01*
X47720348Y-14154020D01*
X47574020Y-14300348D01*
X47459058Y-14472402D01*
X47379869Y-14663581D01*
X47339500Y-14866532D01*
X36613395Y-14866532D01*
X38695431Y-12784496D01*
X38749948Y-12756719D01*
X38765435Y-12755500D01*
X47321623Y-12755500D01*
X47379814Y-12774407D01*
X47413087Y-12816614D01*
X47459058Y-12927597D01*
X47459059Y-12927598D01*
X47574023Y-13099655D01*
X47720345Y-13245977D01*
X47892402Y-13360941D01*
X48083580Y-13440130D01*
X48286535Y-13480500D01*
X48286536Y-13480500D01*
X48493464Y-13480500D01*
X48493465Y-13480500D01*
X48696420Y-13440130D01*
X48887598Y-13360941D01*
X49059655Y-13245977D01*
X49205977Y-13099655D01*
X49320941Y-12927598D01*
X49400130Y-12736420D01*
X49440500Y-12533465D01*
X49440500Y-12326535D01*
X49400130Y-12123580D01*
X49320941Y-11932402D01*
X49205977Y-11760345D01*
X49059655Y-11614023D01*
X48966594Y-11551842D01*
X48887597Y-11499058D01*
X48696418Y-11419869D01*
X48493467Y-11379500D01*
X48493465Y-11379500D01*
X48286535Y-11379500D01*
X48286532Y-11379500D01*
X48083581Y-11419869D01*
X47892402Y-11499058D01*
X47720348Y-11614020D01*
X47574020Y-11760348D01*
X47459058Y-11932402D01*
X47413087Y-12043386D01*
X47373350Y-12089912D01*
X47321623Y-12104500D01*
X38632453Y-12104500D01*
X38546747Y-12104500D01*
X38496078Y-12118076D01*
X38463956Y-12126683D01*
X38389742Y-12169531D01*
X32133769Y-18425504D01*
X32079252Y-18453281D01*
X32063765Y-18454500D01*
X31390139Y-18454500D01*
X31331948Y-18435593D01*
X31295984Y-18386093D01*
X31295984Y-18324907D01*
X31320133Y-18285498D01*
X31425977Y-18179655D01*
X31540941Y-18007598D01*
X31620130Y-17816420D01*
X31660500Y-17613465D01*
X31660500Y-17406535D01*
X31660500Y-17406532D01*
X31620130Y-17203581D01*
X31619995Y-17203256D01*
X31540941Y-17012402D01*
X31425977Y-16840345D01*
X31279655Y-16694023D01*
X31279651Y-16694020D01*
X31107597Y-16579058D01*
X30916418Y-16499869D01*
X30713467Y-16459500D01*
X30713465Y-16459500D01*
X30506535Y-16459500D01*
X30506532Y-16459500D01*
X30303581Y-16499869D01*
X30112402Y-16579058D01*
X29940348Y-16694020D01*
X29794020Y-16840348D01*
X29679058Y-17012402D01*
X29599869Y-17203581D01*
X29559500Y-17406532D01*
X29559500Y-17613467D01*
X29599869Y-17816418D01*
X29679058Y-18007597D01*
X29794020Y-18179651D01*
X29794023Y-18179655D01*
X29927972Y-18313604D01*
X29955748Y-18368119D01*
X29946177Y-18428551D01*
X29902912Y-18471816D01*
X29895850Y-18475071D01*
X29891957Y-18476683D01*
X29817742Y-18519531D01*
X27084031Y-21253242D01*
X27041182Y-21327460D01*
X27041181Y-21327460D01*
X27041182Y-21327461D01*
X27019000Y-21410247D01*
X27019000Y-22430164D01*
X27000093Y-22488355D01*
X26990004Y-22500168D01*
X24979904Y-24510268D01*
X24925387Y-24538045D01*
X24864955Y-24528474D01*
X24821690Y-24485209D01*
X24810900Y-24440264D01*
X24810900Y-19585921D01*
X24829807Y-19527730D01*
X24839890Y-19515923D01*
X24885900Y-19469914D01*
X24951792Y-19355786D01*
X24985900Y-19228492D01*
X24985900Y-19096708D01*
X24951792Y-18969414D01*
X24951790Y-18969411D01*
X24951790Y-18969409D01*
X24885903Y-18855290D01*
X24885901Y-18855288D01*
X24885900Y-18855286D01*
X24792714Y-18762100D01*
X24792711Y-18762098D01*
X24792709Y-18762096D01*
X24678589Y-18696209D01*
X24678585Y-18696207D01*
X24651568Y-18688968D01*
X24600254Y-18655644D01*
X24578328Y-18598522D01*
X24594164Y-18539422D01*
X24607183Y-18523343D01*
X28263993Y-14866532D01*
X29559500Y-14866532D01*
X29559500Y-15073467D01*
X29599869Y-15276418D01*
X29679058Y-15467597D01*
X29679059Y-15467598D01*
X29794023Y-15639655D01*
X29940345Y-15785977D01*
X30112402Y-15900941D01*
X30303580Y-15980130D01*
X30506535Y-16020500D01*
X30506536Y-16020500D01*
X30713464Y-16020500D01*
X30713465Y-16020500D01*
X30916420Y-15980130D01*
X31107598Y-15900941D01*
X31279655Y-15785977D01*
X31425977Y-15639655D01*
X31540941Y-15467598D01*
X31620130Y-15276420D01*
X31660500Y-15073465D01*
X31660500Y-14866535D01*
X31620130Y-14663580D01*
X31540941Y-14472402D01*
X31425977Y-14300345D01*
X31279655Y-14154023D01*
X31107598Y-14039059D01*
X31107599Y-14039059D01*
X31107597Y-14039058D01*
X30916418Y-13959869D01*
X30713467Y-13919500D01*
X30713465Y-13919500D01*
X30506535Y-13919500D01*
X30506532Y-13919500D01*
X30303581Y-13959869D01*
X30112402Y-14039058D01*
X29940348Y-14154020D01*
X29794020Y-14300348D01*
X29679058Y-14472402D01*
X29599869Y-14663581D01*
X29559500Y-14866532D01*
X28263993Y-14866532D01*
X29849449Y-13281076D01*
X29903964Y-13253301D01*
X29964396Y-13262872D01*
X29974447Y-13268763D01*
X30112402Y-13360941D01*
X30303580Y-13440130D01*
X30506535Y-13480500D01*
X30506536Y-13480500D01*
X30713464Y-13480500D01*
X30713465Y-13480500D01*
X30916420Y-13440130D01*
X31107598Y-13360941D01*
X31279655Y-13245977D01*
X31425977Y-13099655D01*
X31540941Y-12927598D01*
X31620130Y-12736420D01*
X31660500Y-12533465D01*
X31660500Y-12326535D01*
X31620130Y-12123580D01*
X31540941Y-11932402D01*
X31425977Y-11760345D01*
X31279655Y-11614023D01*
X31186594Y-11551842D01*
X31107597Y-11499058D01*
X30916418Y-11419869D01*
X30713467Y-11379500D01*
X30713465Y-11379500D01*
X30506535Y-11379500D01*
X30506532Y-11379500D01*
X30303581Y-11419869D01*
X30112402Y-11499058D01*
X29940348Y-11614020D01*
X29794020Y-11760348D01*
X29679058Y-11932402D01*
X29599869Y-12123581D01*
X29559500Y-12326532D01*
X29559500Y-12533468D01*
X29568572Y-12579075D01*
X29561380Y-12639837D01*
X29541478Y-12668393D01*
X22983932Y-19225941D01*
X22983931Y-19225942D01*
X22941083Y-19300156D01*
X22926179Y-19355784D01*
X22926178Y-19355787D01*
X22918900Y-19382946D01*
X22918900Y-22979678D01*
X22899993Y-23037869D01*
X22889904Y-23049681D01*
X22843900Y-23095684D01*
X22843896Y-23095690D01*
X22778009Y-23209809D01*
X22764653Y-23259655D01*
X22743900Y-23337108D01*
X22743900Y-23468892D01*
X22760724Y-23531681D01*
X22778009Y-23596190D01*
X22843896Y-23710309D01*
X22843898Y-23710311D01*
X22843900Y-23710314D01*
X22937086Y-23803500D01*
X22937088Y-23803501D01*
X22937090Y-23803503D01*
X23051210Y-23869390D01*
X23051208Y-23869390D01*
X23051212Y-23869391D01*
X23051214Y-23869392D01*
X23178508Y-23903500D01*
X23178510Y-23903500D01*
X23310290Y-23903500D01*
X23310292Y-23903500D01*
X23437586Y-23869392D01*
X23437588Y-23869390D01*
X23437590Y-23869390D01*
X23551709Y-23803503D01*
X23551709Y-23803502D01*
X23551714Y-23803500D01*
X23644900Y-23710314D01*
X23644953Y-23710222D01*
X23710790Y-23596190D01*
X23710790Y-23596188D01*
X23710792Y-23596186D01*
X23744900Y-23468892D01*
X23744900Y-23337108D01*
X23710792Y-23209814D01*
X23710790Y-23209811D01*
X23710790Y-23209809D01*
X23644903Y-23095690D01*
X23644899Y-23095684D01*
X23598896Y-23049681D01*
X23571119Y-22995164D01*
X23569900Y-22979678D01*
X23569900Y-19601635D01*
X23588807Y-19543444D01*
X23598896Y-19531632D01*
X23846138Y-19284389D01*
X23900655Y-19256611D01*
X23961087Y-19266182D01*
X24004352Y-19309447D01*
X24011768Y-19328768D01*
X24019007Y-19355784D01*
X24019008Y-19355787D01*
X24084896Y-19469909D01*
X24084898Y-19469911D01*
X24084900Y-19469914D01*
X24130905Y-19515919D01*
X24158681Y-19570434D01*
X24159900Y-19585921D01*
X24159900Y-24384165D01*
X24140993Y-24442356D01*
X24130904Y-24454169D01*
X23569504Y-25015569D01*
X23514987Y-25043346D01*
X23454555Y-25033775D01*
X23411290Y-24990510D01*
X23400500Y-24945565D01*
X23400500Y-24884109D01*
X23384282Y-24823581D01*
X23366392Y-24756814D01*
X23366390Y-24756811D01*
X23366390Y-24756809D01*
X23300503Y-24642690D01*
X23300499Y-24642685D01*
X23229813Y-24571998D01*
X23204189Y-24527612D01*
X23203319Y-24524365D01*
X23203318Y-24524364D01*
X23203318Y-24524362D01*
X23160465Y-24450138D01*
X23135500Y-24425173D01*
X23099862Y-24389534D01*
X23099862Y-24389535D01*
X22549862Y-23839535D01*
X22549859Y-23839533D01*
X22549858Y-23839532D01*
X22549857Y-23839531D01*
X22475642Y-23796683D01*
X22475644Y-23796683D01*
X22443521Y-23788076D01*
X22392853Y-23774500D01*
X22392851Y-23774500D01*
X18103322Y-23774500D01*
X18045131Y-23755593D01*
X18033319Y-23745504D01*
X17987315Y-23699500D01*
X17987309Y-23699496D01*
X17873189Y-23633609D01*
X17873191Y-23633609D01*
X17823799Y-23620375D01*
X17745892Y-23599500D01*
X17614108Y-23599500D01*
X17536200Y-23620375D01*
X17486809Y-23633609D01*
X17372690Y-23699496D01*
X17279496Y-23792690D01*
X17213609Y-23906809D01*
X17207945Y-23927948D01*
X17179500Y-24034108D01*
X17179500Y-24165892D01*
X17186580Y-24192314D01*
X17213609Y-24293190D01*
X17279496Y-24407309D01*
X17279498Y-24407311D01*
X17279500Y-24407314D01*
X17372686Y-24500500D01*
X17372688Y-24500501D01*
X17372690Y-24500503D01*
X17486810Y-24566390D01*
X17486808Y-24566390D01*
X17486812Y-24566391D01*
X17486814Y-24566392D01*
X17614108Y-24600500D01*
X17614110Y-24600500D01*
X17745890Y-24600500D01*
X17745892Y-24600500D01*
X17873186Y-24566392D01*
X17873188Y-24566390D01*
X17873190Y-24566390D01*
X17987309Y-24500503D01*
X17987310Y-24500502D01*
X17987314Y-24500500D01*
X18002605Y-24485209D01*
X18033319Y-24454496D01*
X18087836Y-24426719D01*
X18103322Y-24425500D01*
X22174165Y-24425500D01*
X22232356Y-24444407D01*
X22244169Y-24454496D01*
X22421209Y-24631536D01*
X22448986Y-24686053D01*
X22439415Y-24746485D01*
X22436947Y-24751029D01*
X22433608Y-24756814D01*
X22415718Y-24823581D01*
X22399500Y-24884109D01*
X22399500Y-24949165D01*
X22380593Y-25007356D01*
X22370504Y-25019168D01*
X22161935Y-25227737D01*
X22161931Y-25227742D01*
X22119082Y-25301960D01*
X22119081Y-25301960D01*
X22119082Y-25301961D01*
X22119082Y-25301962D01*
X22096900Y-25384747D01*
X22096900Y-26184047D01*
X22096900Y-26269753D01*
X22104871Y-26299500D01*
X22119083Y-26352543D01*
X22161931Y-26426757D01*
X22161935Y-26426762D01*
X22300868Y-26565694D01*
X22328646Y-26620211D01*
X22319075Y-26680643D01*
X22300869Y-26705702D01*
X12819532Y-36187041D01*
X12819531Y-36187042D01*
X12776682Y-36261260D01*
X12776681Y-36261260D01*
X12776682Y-36261261D01*
X12754500Y-36344047D01*
X12754500Y-61409029D01*
X12735593Y-61467220D01*
X12686093Y-61503184D01*
X12683203Y-61504074D01*
X12676823Y-61505933D01*
X12569598Y-61555933D01*
X12485933Y-61639598D01*
X12435932Y-61746824D01*
X12435932Y-61746825D01*
X12429500Y-61795685D01*
X12429500Y-62575500D01*
X12410593Y-62633691D01*
X12361093Y-62669655D01*
X12330500Y-62674500D01*
X11289500Y-62674500D01*
X11231309Y-62655593D01*
X11195345Y-62606093D01*
X11190500Y-62575500D01*
X11190500Y-61795685D01*
X11187984Y-61776573D01*
X11184068Y-61746827D01*
X11180805Y-61739830D01*
X11134066Y-61639598D01*
X11134065Y-61639597D01*
X11134065Y-61639596D01*
X11050404Y-61555935D01*
X11050402Y-61555934D01*
X11050401Y-61555933D01*
X10943175Y-61505932D01*
X10910601Y-61501644D01*
X10894316Y-61499500D01*
X10185684Y-61499500D01*
X10169398Y-61501644D01*
X10136825Y-61505932D01*
X10136824Y-61505932D01*
X10029598Y-61555933D01*
X9945933Y-61639598D01*
X9895932Y-61746824D01*
X9895932Y-61746825D01*
X9895932Y-61746827D01*
X9889500Y-61795684D01*
X9889500Y-64204316D01*
X9893788Y-64236887D01*
X9895932Y-64253174D01*
X9895932Y-64253175D01*
X9945122Y-64358661D01*
X9952579Y-64419390D01*
X9922916Y-64472904D01*
X9867463Y-64498762D01*
X9855398Y-64499500D01*
X3002985Y-64499500D01*
X2997008Y-64499319D01*
X2973822Y-64497916D01*
X2704694Y-64481637D01*
X2692827Y-64480196D01*
X2407721Y-64427948D01*
X2396113Y-64425087D01*
X2119384Y-64338855D01*
X2108206Y-64334616D01*
X1843880Y-64215652D01*
X1833295Y-64210096D01*
X1672942Y-64113160D01*
X1585245Y-64060145D01*
X1575413Y-64053358D01*
X1347243Y-63874599D01*
X1338295Y-63866673D01*
X1133326Y-63661704D01*
X1125399Y-63652755D01*
X946638Y-63424583D01*
X939856Y-63414758D01*
X789902Y-63166703D01*
X784347Y-63156119D01*
X680434Y-62925234D01*
X665380Y-62891786D01*
X661147Y-62880623D01*
X574911Y-62603883D01*
X572051Y-62592278D01*
X572051Y-62592277D01*
X519802Y-62307165D01*
X518362Y-62295304D01*
X513972Y-62222731D01*
X500681Y-62002992D01*
X500500Y-61997015D01*
X500500Y-60878710D01*
X2149500Y-60878710D01*
X2149500Y-61121289D01*
X2181161Y-61361781D01*
X2181161Y-61361786D01*
X2243944Y-61596092D01*
X2243948Y-61596105D01*
X2336772Y-61820204D01*
X2336774Y-61820208D01*
X2336776Y-61820212D01*
X2458064Y-62030289D01*
X2458066Y-62030292D01*
X2605729Y-62222731D01*
X2605731Y-62222733D01*
X2605735Y-62222738D01*
X2777262Y-62394265D01*
X2777266Y-62394268D01*
X2777268Y-62394270D01*
X2933630Y-62514250D01*
X2969711Y-62541936D01*
X3179788Y-62663224D01*
X3403900Y-62756054D01*
X3638211Y-62818838D01*
X3878712Y-62850500D01*
X3878713Y-62850500D01*
X4121287Y-62850500D01*
X4121288Y-62850500D01*
X4361789Y-62818838D01*
X4596100Y-62756054D01*
X4820212Y-62663224D01*
X5030289Y-62541936D01*
X5222738Y-62394265D01*
X5394265Y-62222738D01*
X5541936Y-62030289D01*
X5663224Y-61820212D01*
X5756054Y-61596100D01*
X5818838Y-61361789D01*
X5850500Y-61121288D01*
X5850500Y-60878712D01*
X5818838Y-60638211D01*
X5756054Y-60403900D01*
X5663224Y-60179788D01*
X5541936Y-59969711D01*
X5541933Y-59969707D01*
X5394270Y-59777268D01*
X5394268Y-59777266D01*
X5394265Y-59777262D01*
X5222738Y-59605735D01*
X5222733Y-59605731D01*
X5222731Y-59605729D01*
X5030292Y-59458066D01*
X4996287Y-59438433D01*
X4820212Y-59336776D01*
X4820208Y-59336774D01*
X4820204Y-59336772D01*
X4596105Y-59243948D01*
X4596104Y-59243947D01*
X4596100Y-59243946D01*
X4361789Y-59181162D01*
X4361786Y-59181161D01*
X4361784Y-59181161D01*
X4121289Y-59149500D01*
X4121288Y-59149500D01*
X3878712Y-59149500D01*
X3878710Y-59149500D01*
X3638218Y-59181161D01*
X3638213Y-59181161D01*
X3403907Y-59243944D01*
X3403894Y-59243948D01*
X3179795Y-59336772D01*
X2969707Y-59458066D01*
X2777268Y-59605729D01*
X2605729Y-59777268D01*
X2458066Y-59969707D01*
X2336772Y-60179795D01*
X2243948Y-60403894D01*
X2243944Y-60403907D01*
X2181161Y-60638213D01*
X2181161Y-60638218D01*
X2149500Y-60878710D01*
X500500Y-60878710D01*
X500500Y-29534108D01*
X4349500Y-29534108D01*
X4349500Y-29665892D01*
X4379579Y-29778151D01*
X4383609Y-29793190D01*
X4449496Y-29907309D01*
X4449498Y-29907311D01*
X4449500Y-29907314D01*
X4542686Y-30000500D01*
X4542688Y-30000501D01*
X4542690Y-30000503D01*
X4656810Y-30066390D01*
X4656808Y-30066390D01*
X4656812Y-30066391D01*
X4656814Y-30066392D01*
X4784108Y-30100500D01*
X4784110Y-30100500D01*
X4915890Y-30100500D01*
X4915892Y-30100500D01*
X5043186Y-30066392D01*
X5043188Y-30066390D01*
X5043190Y-30066390D01*
X5157309Y-30000503D01*
X5157309Y-30000502D01*
X5157314Y-30000500D01*
X5250500Y-29907314D01*
X5287522Y-29843190D01*
X5316390Y-29793190D01*
X5316390Y-29793188D01*
X5316392Y-29793186D01*
X5350500Y-29665892D01*
X5350500Y-29534108D01*
X5316392Y-29406814D01*
X5316390Y-29406811D01*
X5316390Y-29406809D01*
X5250503Y-29292690D01*
X5250499Y-29292684D01*
X5204496Y-29246681D01*
X5176719Y-29192164D01*
X5175500Y-29176678D01*
X5175500Y-28800834D01*
X5194407Y-28742643D01*
X5204496Y-28730830D01*
X12605830Y-21329496D01*
X12660347Y-21301719D01*
X12675834Y-21300500D01*
X13925166Y-21300500D01*
X13983357Y-21319407D01*
X14019321Y-21368907D01*
X14019321Y-21430093D01*
X13995171Y-21469501D01*
X11432359Y-24032314D01*
X8889532Y-26575141D01*
X8889531Y-26575142D01*
X8846683Y-26649357D01*
X8846682Y-26649360D01*
X8838859Y-26678551D01*
X8838860Y-26678552D01*
X8824500Y-26732147D01*
X8824500Y-29226678D01*
X8805593Y-29284869D01*
X8795504Y-29296681D01*
X8749500Y-29342684D01*
X8749496Y-29342690D01*
X8683609Y-29456809D01*
X8683608Y-29456814D01*
X8649500Y-29584108D01*
X8649500Y-29715892D01*
X8670211Y-29793186D01*
X8683609Y-29843190D01*
X8749496Y-29957309D01*
X8749498Y-29957311D01*
X8749500Y-29957314D01*
X8842686Y-30050500D01*
X8842688Y-30050501D01*
X8842690Y-30050503D01*
X8956810Y-30116390D01*
X8956808Y-30116390D01*
X8956812Y-30116391D01*
X8956814Y-30116392D01*
X9084108Y-30150500D01*
X9084110Y-30150500D01*
X9215890Y-30150500D01*
X9215892Y-30150500D01*
X9343186Y-30116392D01*
X9343188Y-30116390D01*
X9343190Y-30116390D01*
X9457309Y-30050503D01*
X9457309Y-30050502D01*
X9457314Y-30050500D01*
X9550500Y-29957314D01*
X9579368Y-29907314D01*
X9616390Y-29843190D01*
X9616390Y-29843188D01*
X9616392Y-29843186D01*
X9650500Y-29715892D01*
X9650500Y-29584108D01*
X9616392Y-29456814D01*
X9616390Y-29456811D01*
X9616390Y-29456809D01*
X9550503Y-29342690D01*
X9550499Y-29342684D01*
X9504496Y-29296681D01*
X9476719Y-29242164D01*
X9475500Y-29226678D01*
X9475500Y-26950835D01*
X9494407Y-26892644D01*
X9504496Y-26880831D01*
X14405831Y-21979496D01*
X14460348Y-21951719D01*
X14475835Y-21950500D01*
X16676678Y-21950500D01*
X16734869Y-21969407D01*
X16746681Y-21979496D01*
X16792684Y-22025499D01*
X16792690Y-22025503D01*
X16906810Y-22091390D01*
X16906808Y-22091390D01*
X16906812Y-22091391D01*
X16906814Y-22091392D01*
X17034108Y-22125500D01*
X17034110Y-22125500D01*
X17085165Y-22125500D01*
X17143356Y-22144407D01*
X17179320Y-22193907D01*
X17179320Y-22255093D01*
X17155169Y-22294503D01*
X16676263Y-22773409D01*
X16204168Y-23245504D01*
X16149651Y-23273281D01*
X16134164Y-23274500D01*
X15253321Y-23274500D01*
X15195130Y-23255593D01*
X15192523Y-23253366D01*
X15192460Y-23253449D01*
X15187309Y-23249496D01*
X15073189Y-23183609D01*
X15073191Y-23183609D01*
X15023799Y-23170375D01*
X14945892Y-23149500D01*
X14814108Y-23149500D01*
X14736200Y-23170375D01*
X14686809Y-23183609D01*
X14572690Y-23249496D01*
X14479496Y-23342690D01*
X14413609Y-23456809D01*
X14404776Y-23489774D01*
X14379500Y-23584108D01*
X14379500Y-23715892D01*
X14401148Y-23796683D01*
X14413609Y-23843190D01*
X14479496Y-23957309D01*
X14479498Y-23957311D01*
X14479500Y-23957314D01*
X14525505Y-24003319D01*
X14553281Y-24057834D01*
X14554500Y-24073321D01*
X14554500Y-24457147D01*
X14554500Y-24542853D01*
X14569946Y-24600500D01*
X14576683Y-24625643D01*
X14619531Y-24699857D01*
X14619533Y-24699859D01*
X14619535Y-24699862D01*
X17780138Y-27860465D01*
X17780140Y-27860466D01*
X17780142Y-27860468D01*
X17854357Y-27903316D01*
X17854355Y-27903316D01*
X17854359Y-27903317D01*
X17854361Y-27903318D01*
X17937147Y-27925500D01*
X18022853Y-27925500D01*
X18926678Y-27925500D01*
X18984869Y-27944407D01*
X18996681Y-27954496D01*
X19042684Y-28000499D01*
X19042690Y-28000503D01*
X19156810Y-28066390D01*
X19156808Y-28066390D01*
X19156812Y-28066391D01*
X19156814Y-28066392D01*
X19284108Y-28100500D01*
X19284110Y-28100500D01*
X19415890Y-28100500D01*
X19415892Y-28100500D01*
X19543186Y-28066392D01*
X19543188Y-28066390D01*
X19543190Y-28066390D01*
X19657309Y-28000503D01*
X19657309Y-28000502D01*
X19657314Y-28000500D01*
X19750500Y-27907314D01*
X19777547Y-27860468D01*
X19816390Y-27793190D01*
X19816390Y-27793188D01*
X19816392Y-27793186D01*
X19850500Y-27665892D01*
X19850500Y-27534108D01*
X19816392Y-27406814D01*
X19816390Y-27406811D01*
X19816390Y-27406809D01*
X19750503Y-27292690D01*
X19750501Y-27292688D01*
X19750500Y-27292686D01*
X19657314Y-27199500D01*
X19657311Y-27199498D01*
X19657309Y-27199496D01*
X19543189Y-27133609D01*
X19543191Y-27133609D01*
X19493799Y-27120375D01*
X19415892Y-27099500D01*
X19284108Y-27099500D01*
X19206200Y-27120375D01*
X19156809Y-27133609D01*
X19042690Y-27199496D01*
X19042684Y-27199500D01*
X18996681Y-27245504D01*
X18942164Y-27273281D01*
X18926678Y-27274500D01*
X18155835Y-27274500D01*
X18097644Y-27255593D01*
X18085831Y-27245504D01*
X15234496Y-24394169D01*
X15206719Y-24339652D01*
X15205500Y-24324165D01*
X15205500Y-24073321D01*
X15224407Y-24015130D01*
X15234490Y-24003323D01*
X15280500Y-23957314D01*
X15280501Y-23957311D01*
X15283317Y-23954496D01*
X15337834Y-23926719D01*
X15353321Y-23925500D01*
X16352850Y-23925500D01*
X16352852Y-23925500D01*
X16435638Y-23903318D01*
X16435640Y-23903316D01*
X16435642Y-23903316D01*
X16509856Y-23860468D01*
X16509856Y-23860467D01*
X16509861Y-23860465D01*
X17990465Y-22379862D01*
X17990468Y-22379857D01*
X18033316Y-22305643D01*
X18033316Y-22305641D01*
X18033318Y-22305639D01*
X18055500Y-22222853D01*
X18055500Y-22137147D01*
X18055500Y-20660840D01*
X18055501Y-20660827D01*
X18055501Y-20567146D01*
X18055500Y-20567144D01*
X18033320Y-20484368D01*
X18033319Y-20484365D01*
X18033318Y-20484362D01*
X18024946Y-20469862D01*
X17990465Y-20410138D01*
X17929862Y-20349535D01*
X17929859Y-20349533D01*
X17920329Y-20340003D01*
X17892552Y-20285486D01*
X17902123Y-20225054D01*
X17920323Y-20200002D01*
X20183318Y-17937008D01*
X22485800Y-17937008D01*
X22485800Y-18068792D01*
X22514072Y-18174304D01*
X22519909Y-18196090D01*
X22585796Y-18310209D01*
X22585798Y-18310211D01*
X22585800Y-18310214D01*
X22678986Y-18403400D01*
X22678988Y-18403401D01*
X22678990Y-18403403D01*
X22793110Y-18469290D01*
X22793108Y-18469290D01*
X22793112Y-18469291D01*
X22793114Y-18469292D01*
X22920408Y-18503400D01*
X22920410Y-18503400D01*
X23052190Y-18503400D01*
X23052192Y-18503400D01*
X23179486Y-18469292D01*
X23179488Y-18469290D01*
X23179490Y-18469290D01*
X23293609Y-18403403D01*
X23293609Y-18403402D01*
X23293614Y-18403400D01*
X23386800Y-18310214D01*
X23452692Y-18196086D01*
X23486800Y-18068792D01*
X23486800Y-18003732D01*
X23505707Y-17945541D01*
X23515790Y-17933735D01*
X23868159Y-17581366D01*
X23868162Y-17581365D01*
X23928765Y-17520762D01*
X23971618Y-17446538D01*
X23982337Y-17406535D01*
X23993801Y-17363753D01*
X23993801Y-17278047D01*
X23993801Y-17271985D01*
X23993800Y-17271967D01*
X23993800Y-11927534D01*
X24012707Y-11869343D01*
X24022790Y-11857536D01*
X26093794Y-9786532D01*
X29559500Y-9786532D01*
X29559500Y-9993467D01*
X29599869Y-10196418D01*
X29679058Y-10387597D01*
X29679059Y-10387598D01*
X29794023Y-10559655D01*
X29940345Y-10705977D01*
X30112402Y-10820941D01*
X30303580Y-10900130D01*
X30506535Y-10940500D01*
X30506536Y-10940500D01*
X30713464Y-10940500D01*
X30713465Y-10940500D01*
X30916420Y-10900130D01*
X31107598Y-10820941D01*
X31279655Y-10705977D01*
X31425977Y-10559655D01*
X31540941Y-10387598D01*
X31620130Y-10196420D01*
X31660500Y-9993465D01*
X31660500Y-9786535D01*
X31660499Y-9786532D01*
X47339500Y-9786532D01*
X47339500Y-9993467D01*
X47379869Y-10196418D01*
X47459058Y-10387597D01*
X47459059Y-10387598D01*
X47574023Y-10559655D01*
X47720345Y-10705977D01*
X47892402Y-10820941D01*
X48083580Y-10900130D01*
X48286535Y-10940500D01*
X48286536Y-10940500D01*
X48493464Y-10940500D01*
X48493465Y-10940500D01*
X48696420Y-10900130D01*
X48887598Y-10820941D01*
X49059655Y-10705977D01*
X49205977Y-10559655D01*
X49320941Y-10387598D01*
X49400130Y-10196420D01*
X49440500Y-9993465D01*
X49440500Y-9786535D01*
X49400130Y-9583580D01*
X49320941Y-9392402D01*
X49205977Y-9220345D01*
X49059655Y-9074023D01*
X48887598Y-8959059D01*
X48887599Y-8959059D01*
X48887597Y-8959058D01*
X48696418Y-8879869D01*
X48493467Y-8839500D01*
X48493465Y-8839500D01*
X48286535Y-8839500D01*
X48286532Y-8839500D01*
X48083581Y-8879869D01*
X47892402Y-8959058D01*
X47720348Y-9074020D01*
X47574020Y-9220348D01*
X47459058Y-9392402D01*
X47379869Y-9583581D01*
X47339500Y-9786532D01*
X31660499Y-9786532D01*
X31620130Y-9583580D01*
X31540941Y-9392402D01*
X31425977Y-9220345D01*
X31279655Y-9074023D01*
X31107598Y-8959059D01*
X31107599Y-8959059D01*
X31107597Y-8959058D01*
X30916418Y-8879869D01*
X30713467Y-8839500D01*
X30713465Y-8839500D01*
X30506535Y-8839500D01*
X30506532Y-8839500D01*
X30303581Y-8879869D01*
X30112402Y-8959058D01*
X29940348Y-9074020D01*
X29794020Y-9220348D01*
X29679058Y-9392402D01*
X29599869Y-9583581D01*
X29559500Y-9786532D01*
X26093794Y-9786532D01*
X30084709Y-5795616D01*
X30139224Y-5767841D01*
X30192593Y-5774157D01*
X30303580Y-5820130D01*
X30506535Y-5860500D01*
X30506536Y-5860500D01*
X30713464Y-5860500D01*
X30713465Y-5860500D01*
X30916420Y-5820130D01*
X31107598Y-5740941D01*
X31279655Y-5625977D01*
X31425977Y-5479655D01*
X31540941Y-5307598D01*
X31620130Y-5116420D01*
X31660500Y-4913465D01*
X31660500Y-4706535D01*
X31660499Y-4706532D01*
X47339500Y-4706532D01*
X47339500Y-4913467D01*
X47379869Y-5116418D01*
X47459058Y-5307597D01*
X47574020Y-5479651D01*
X47574023Y-5479655D01*
X47720345Y-5625977D01*
X47892402Y-5740941D01*
X48083580Y-5820130D01*
X48286535Y-5860500D01*
X48286536Y-5860500D01*
X48493464Y-5860500D01*
X48493465Y-5860500D01*
X48696420Y-5820130D01*
X48807402Y-5774158D01*
X48868399Y-5769358D01*
X48915292Y-5795619D01*
X59138138Y-16018465D01*
X59138140Y-16018466D01*
X59138141Y-16018467D01*
X59138142Y-16018468D01*
X59212357Y-16061316D01*
X59212355Y-16061316D01*
X59212359Y-16061317D01*
X59212361Y-16061318D01*
X59295147Y-16083500D01*
X61663278Y-16083500D01*
X61721469Y-16102407D01*
X61733281Y-16112496D01*
X61779284Y-16158499D01*
X61779290Y-16158503D01*
X61893410Y-16224390D01*
X61893408Y-16224390D01*
X61893412Y-16224391D01*
X61893414Y-16224392D01*
X62020708Y-16258500D01*
X62020710Y-16258500D01*
X62152490Y-16258500D01*
X62152492Y-16258500D01*
X62279786Y-16224392D01*
X62279788Y-16224390D01*
X62279790Y-16224390D01*
X62393909Y-16158503D01*
X62393909Y-16158502D01*
X62393914Y-16158500D01*
X62487100Y-16065314D01*
X62489408Y-16061316D01*
X62552990Y-15951190D01*
X62552990Y-15951188D01*
X62552992Y-15951186D01*
X62587100Y-15823892D01*
X62587100Y-15692108D01*
X62552992Y-15564814D01*
X62552990Y-15564811D01*
X62552990Y-15564809D01*
X62487103Y-15450690D01*
X62487101Y-15450688D01*
X62487100Y-15450686D01*
X62393914Y-15357500D01*
X62393911Y-15357498D01*
X62393909Y-15357496D01*
X62279789Y-15291609D01*
X62279791Y-15291609D01*
X62223103Y-15276420D01*
X62152492Y-15257500D01*
X62020708Y-15257500D01*
X61950097Y-15276420D01*
X61893409Y-15291609D01*
X61779290Y-15357496D01*
X61779284Y-15357500D01*
X61733281Y-15403504D01*
X61678764Y-15431281D01*
X61663278Y-15432500D01*
X59513835Y-15432500D01*
X59455644Y-15413593D01*
X59443831Y-15403504D01*
X49375619Y-5335292D01*
X49347842Y-5280775D01*
X49354159Y-5227402D01*
X49365716Y-5199501D01*
X49400130Y-5116420D01*
X49440500Y-4913465D01*
X49440500Y-4706535D01*
X49400130Y-4503580D01*
X49320941Y-4312402D01*
X49205977Y-4140345D01*
X49059655Y-3994023D01*
X49059651Y-3994020D01*
X48887597Y-3879058D01*
X48696418Y-3799869D01*
X48493467Y-3759500D01*
X48493465Y-3759500D01*
X48286535Y-3759500D01*
X48286532Y-3759500D01*
X48083581Y-3799869D01*
X47892402Y-3879058D01*
X47720348Y-3994020D01*
X47574020Y-4140348D01*
X47459058Y-4312402D01*
X47379869Y-4503581D01*
X47339500Y-4706532D01*
X31660499Y-4706532D01*
X31620130Y-4503580D01*
X31540941Y-4312402D01*
X31425977Y-4140345D01*
X31279655Y-3994023D01*
X31279651Y-3994020D01*
X31107597Y-3879058D01*
X30916418Y-3799869D01*
X30713467Y-3759500D01*
X30713465Y-3759500D01*
X30506535Y-3759500D01*
X30506532Y-3759500D01*
X30303581Y-3799869D01*
X30112402Y-3879058D01*
X29940348Y-3994020D01*
X29794020Y-4140348D01*
X29679058Y-4312402D01*
X29599869Y-4503581D01*
X29559500Y-4706532D01*
X29559500Y-4913467D01*
X29576056Y-4996700D01*
X29599869Y-5116417D01*
X29599870Y-5116419D01*
X29599870Y-5116421D01*
X29645840Y-5227402D01*
X29650641Y-5288398D01*
X29624380Y-5335291D01*
X23407832Y-11551841D01*
X23407831Y-11551842D01*
X23364982Y-11626060D01*
X23364981Y-11626060D01*
X23364982Y-11626061D01*
X23342800Y-11708847D01*
X23342800Y-17145065D01*
X23323893Y-17203256D01*
X23313804Y-17215069D01*
X23055469Y-17473404D01*
X23000952Y-17501181D01*
X22985465Y-17502400D01*
X22920408Y-17502400D01*
X22842500Y-17523275D01*
X22793109Y-17536509D01*
X22678990Y-17602396D01*
X22585796Y-17695590D01*
X22519909Y-17809709D01*
X22518111Y-17816420D01*
X22485800Y-17937008D01*
X20183318Y-17937008D01*
X21430465Y-16689861D01*
X21473318Y-16615638D01*
X21495500Y-16532852D01*
X21495500Y-16447146D01*
X21495500Y-4835833D01*
X21514407Y-4777642D01*
X21524490Y-4765835D01*
X22444859Y-3845466D01*
X22444862Y-3845465D01*
X22505465Y-3784862D01*
X22548318Y-3710638D01*
X22550052Y-3704164D01*
X22567726Y-3638210D01*
X22567726Y-3638205D01*
X22570501Y-3627852D01*
X22570501Y-3549500D01*
X22589408Y-3491309D01*
X22638908Y-3455345D01*
X22669501Y-3450500D01*
X23519747Y-3450500D01*
X23519748Y-3450500D01*
X23578231Y-3438867D01*
X23644552Y-3394552D01*
X23688867Y-3328231D01*
X23700500Y-3269748D01*
X23700500Y-2347800D01*
X23719407Y-2289609D01*
X23768907Y-2253645D01*
X23799500Y-2248800D01*
X28910766Y-2248800D01*
X28968957Y-2267707D01*
X28980769Y-2277796D01*
X29169372Y-2466398D01*
X29169377Y-2466404D01*
X29169378Y-2466404D01*
X29172833Y-2469859D01*
X29172835Y-2469862D01*
X29233438Y-2530465D01*
X29248045Y-2538898D01*
X29266566Y-2549592D01*
X29266571Y-2549594D01*
X29307657Y-2573316D01*
X29307658Y-2573316D01*
X29307661Y-2573318D01*
X29390447Y-2595500D01*
X29460500Y-2595500D01*
X29518691Y-2614407D01*
X29554655Y-2663907D01*
X29559500Y-2694500D01*
X29559500Y-3139746D01*
X29559501Y-3139758D01*
X29571132Y-3198227D01*
X29571134Y-3198233D01*
X29605403Y-3249519D01*
X29615448Y-3264552D01*
X29681769Y-3308867D01*
X29726231Y-3317711D01*
X29740241Y-3320498D01*
X29740246Y-3320498D01*
X29740252Y-3320500D01*
X29740253Y-3320500D01*
X31479747Y-3320500D01*
X31479748Y-3320500D01*
X31538231Y-3308867D01*
X31604552Y-3264552D01*
X31648867Y-3198231D01*
X31660500Y-3139748D01*
X31660500Y-2166532D01*
X47339500Y-2166532D01*
X47339500Y-2373467D01*
X47379869Y-2576418D01*
X47459058Y-2767597D01*
X47574020Y-2939651D01*
X47574023Y-2939655D01*
X47720345Y-3085977D01*
X47892402Y-3200941D01*
X48083580Y-3280130D01*
X48286535Y-3320500D01*
X48286536Y-3320500D01*
X48493464Y-3320500D01*
X48493465Y-3320500D01*
X48696420Y-3280130D01*
X48887598Y-3200941D01*
X49059655Y-3085977D01*
X49205977Y-2939655D01*
X49261266Y-2856908D01*
X52016100Y-2856908D01*
X52016100Y-2988692D01*
X52042167Y-3085977D01*
X52050209Y-3115990D01*
X52116096Y-3230109D01*
X52116098Y-3230111D01*
X52116100Y-3230114D01*
X52209286Y-3323300D01*
X52209288Y-3323301D01*
X52209290Y-3323303D01*
X52323410Y-3389190D01*
X52323408Y-3389190D01*
X52323412Y-3389191D01*
X52323414Y-3389192D01*
X52450708Y-3423300D01*
X52450710Y-3423300D01*
X52582490Y-3423300D01*
X52582492Y-3423300D01*
X52709786Y-3389192D01*
X52709788Y-3389190D01*
X52709790Y-3389190D01*
X52823909Y-3323303D01*
X52823910Y-3323302D01*
X52823914Y-3323300D01*
X52838349Y-3308865D01*
X52869919Y-3277296D01*
X52924436Y-3249519D01*
X52939922Y-3248300D01*
X53105365Y-3248300D01*
X53163556Y-3267207D01*
X53175369Y-3277296D01*
X54942134Y-5044061D01*
X54969911Y-5098578D01*
X54960340Y-5159010D01*
X54917075Y-5202275D01*
X54856643Y-5211846D01*
X54839435Y-5207510D01*
X54824697Y-5202353D01*
X54794272Y-5199500D01*
X52785734Y-5199500D01*
X52755305Y-5202353D01*
X52627114Y-5247208D01*
X52517855Y-5327845D01*
X52517845Y-5327855D01*
X52437208Y-5437114D01*
X52392353Y-5565305D01*
X52389500Y-5595726D01*
X52389500Y-7604265D01*
X52392353Y-7634694D01*
X52437208Y-7762885D01*
X52517845Y-7872144D01*
X52517847Y-7872146D01*
X52517850Y-7872150D01*
X52517853Y-7872152D01*
X52517855Y-7872154D01*
X52627114Y-7952791D01*
X52627116Y-7952791D01*
X52627118Y-7952793D01*
X52755302Y-7997646D01*
X52785735Y-8000500D01*
X54794264Y-8000499D01*
X54794265Y-8000499D01*
X54800350Y-7999928D01*
X54824698Y-7997646D01*
X54952882Y-7952793D01*
X55062150Y-7872150D01*
X55142793Y-7762882D01*
X55187646Y-7634698D01*
X55190500Y-7604265D01*
X55190499Y-5700771D01*
X55209406Y-5642581D01*
X55258906Y-5606617D01*
X55320092Y-5606617D01*
X55369592Y-5642581D01*
X55385126Y-5675150D01*
X55389209Y-5690389D01*
X55455096Y-5804509D01*
X55455098Y-5804511D01*
X55455100Y-5804514D01*
X55548286Y-5897700D01*
X55548288Y-5897701D01*
X55548290Y-5897703D01*
X55662410Y-5963590D01*
X55662408Y-5963590D01*
X55662412Y-5963591D01*
X55662414Y-5963592D01*
X55789708Y-5997700D01*
X55789710Y-5997700D01*
X55921490Y-5997700D01*
X55921492Y-5997700D01*
X56048786Y-5963592D01*
X56048788Y-5963590D01*
X56048790Y-5963590D01*
X56162909Y-5897703D01*
X56162909Y-5897702D01*
X56162914Y-5897700D01*
X56256100Y-5804514D01*
X56273626Y-5774158D01*
X56321990Y-5690390D01*
X56321990Y-5690388D01*
X56321992Y-5690386D01*
X56356100Y-5563092D01*
X56356100Y-5431308D01*
X56321992Y-5304014D01*
X56321990Y-5304011D01*
X56321990Y-5304009D01*
X56256103Y-5189890D01*
X56256101Y-5189888D01*
X56256100Y-5189886D01*
X56162914Y-5096700D01*
X56162911Y-5096698D01*
X56162909Y-5096696D01*
X56048789Y-5030809D01*
X56048791Y-5030809D01*
X55999399Y-5017575D01*
X55921492Y-4996700D01*
X55921490Y-4996700D01*
X55856435Y-4996700D01*
X55798244Y-4977793D01*
X55786431Y-4967704D01*
X54764202Y-3945475D01*
X54697437Y-3878710D01*
X69149500Y-3878710D01*
X69149500Y-4121289D01*
X69181161Y-4361781D01*
X69181161Y-4361786D01*
X69243944Y-4596092D01*
X69243948Y-4596105D01*
X69336772Y-4820204D01*
X69336774Y-4820208D01*
X69336776Y-4820212D01*
X69458064Y-5030289D01*
X69458066Y-5030292D01*
X69605729Y-5222731D01*
X69605731Y-5222733D01*
X69605735Y-5222738D01*
X69777262Y-5394265D01*
X69777266Y-5394268D01*
X69777268Y-5394270D01*
X69969707Y-5541933D01*
X69969711Y-5541936D01*
X70179788Y-5663224D01*
X70403900Y-5756054D01*
X70638211Y-5818838D01*
X70878712Y-5850500D01*
X70878713Y-5850500D01*
X71121287Y-5850500D01*
X71121288Y-5850500D01*
X71361789Y-5818838D01*
X71596100Y-5756054D01*
X71820212Y-5663224D01*
X72030289Y-5541936D01*
X72222738Y-5394265D01*
X72394265Y-5222738D01*
X72541936Y-5030289D01*
X72663224Y-4820212D01*
X72756054Y-4596100D01*
X72818838Y-4361789D01*
X72850500Y-4121288D01*
X72850500Y-3878712D01*
X72818838Y-3638211D01*
X72756054Y-3403900D01*
X72663224Y-3179788D01*
X72541936Y-2969711D01*
X72455380Y-2856909D01*
X72394270Y-2777268D01*
X72394268Y-2777266D01*
X72394265Y-2777262D01*
X72222738Y-2605735D01*
X72222733Y-2605731D01*
X72222731Y-2605729D01*
X72030292Y-2458066D01*
X72027422Y-2456409D01*
X71820212Y-2336776D01*
X71820208Y-2336774D01*
X71820204Y-2336772D01*
X71596105Y-2243948D01*
X71596104Y-2243947D01*
X71596100Y-2243946D01*
X71361789Y-2181162D01*
X71361786Y-2181161D01*
X71361784Y-2181161D01*
X71121289Y-2149500D01*
X71121288Y-2149500D01*
X70878712Y-2149500D01*
X70878710Y-2149500D01*
X70638218Y-2181161D01*
X70638213Y-2181161D01*
X70403907Y-2243944D01*
X70403894Y-2243948D01*
X70179795Y-2336772D01*
X69969707Y-2458066D01*
X69777268Y-2605729D01*
X69605729Y-2777268D01*
X69458066Y-2969707D01*
X69336772Y-3179795D01*
X69247818Y-3394552D01*
X69243946Y-3403900D01*
X69181162Y-3638211D01*
X69181161Y-3638217D01*
X69181161Y-3638218D01*
X69149500Y-3878710D01*
X54697437Y-3878710D01*
X54127592Y-3308865D01*
X53481062Y-2662335D01*
X53481059Y-2662333D01*
X53481058Y-2662332D01*
X53481057Y-2662331D01*
X53406842Y-2619483D01*
X53406844Y-2619483D01*
X53355533Y-2605735D01*
X53324053Y-2597300D01*
X53324051Y-2597300D01*
X52939922Y-2597300D01*
X52881731Y-2578393D01*
X52869919Y-2568304D01*
X52823915Y-2522300D01*
X52823909Y-2522296D01*
X52709789Y-2456409D01*
X52709791Y-2456409D01*
X52660399Y-2443175D01*
X52582492Y-2422300D01*
X52450708Y-2422300D01*
X52372800Y-2443175D01*
X52323409Y-2456409D01*
X52209290Y-2522296D01*
X52116096Y-2615490D01*
X52050209Y-2729609D01*
X52040030Y-2767598D01*
X52016100Y-2856908D01*
X49261266Y-2856908D01*
X49320941Y-2767598D01*
X49400130Y-2576420D01*
X49440500Y-2373465D01*
X49440500Y-2166535D01*
X49400130Y-1963580D01*
X49320941Y-1772402D01*
X49205977Y-1600345D01*
X49059655Y-1454023D01*
X48979182Y-1400253D01*
X48887597Y-1339058D01*
X48696418Y-1259869D01*
X48493467Y-1219500D01*
X48493465Y-1219500D01*
X48286535Y-1219500D01*
X48286532Y-1219500D01*
X48083581Y-1259869D01*
X47892402Y-1339058D01*
X47720348Y-1454020D01*
X47574020Y-1600348D01*
X47459058Y-1772402D01*
X47379869Y-1963581D01*
X47339500Y-2166532D01*
X31660500Y-2166532D01*
X31660500Y-1400252D01*
X31648867Y-1341769D01*
X31604552Y-1275448D01*
X31604548Y-1275445D01*
X31538233Y-1231134D01*
X31538231Y-1231133D01*
X31538228Y-1231132D01*
X31538227Y-1231132D01*
X31479758Y-1219501D01*
X31479748Y-1219500D01*
X29740252Y-1219500D01*
X29740251Y-1219500D01*
X29740241Y-1219501D01*
X29681772Y-1231132D01*
X29681766Y-1231134D01*
X29615451Y-1275445D01*
X29615445Y-1275451D01*
X29571134Y-1341766D01*
X29571132Y-1341772D01*
X29559501Y-1400241D01*
X29559500Y-1400253D01*
X29559500Y-1696865D01*
X29540593Y-1755056D01*
X29491093Y-1791020D01*
X29429907Y-1791020D01*
X29390497Y-1766869D01*
X29286462Y-1662835D01*
X29286457Y-1662831D01*
X29212242Y-1619983D01*
X29212244Y-1619983D01*
X29180121Y-1611376D01*
X29129453Y-1597800D01*
X20885853Y-1597800D01*
X20800147Y-1597800D01*
X20749478Y-1611376D01*
X20717356Y-1619983D01*
X20643142Y-1662831D01*
X20402831Y-1903142D01*
X20359982Y-1977360D01*
X20359981Y-1977360D01*
X20359982Y-1977361D01*
X20337800Y-2060147D01*
X20337800Y-15299365D01*
X20318893Y-15357556D01*
X20308804Y-15369369D01*
X17503869Y-18174304D01*
X17449352Y-18202081D01*
X17433865Y-18203300D01*
X17368808Y-18203300D01*
X17290900Y-18224175D01*
X17241509Y-18237409D01*
X17127390Y-18303296D01*
X17034196Y-18396490D01*
X16968309Y-18510609D01*
X16960589Y-18539422D01*
X16934200Y-18637908D01*
X16934200Y-18769692D01*
X16957135Y-18855286D01*
X16968309Y-18896990D01*
X17034196Y-19011109D01*
X17034198Y-19011111D01*
X17034200Y-19011114D01*
X17127386Y-19104300D01*
X17127388Y-19104301D01*
X17127390Y-19104303D01*
X17241510Y-19170190D01*
X17241508Y-19170190D01*
X17241512Y-19170191D01*
X17241514Y-19170192D01*
X17368808Y-19204300D01*
X17368810Y-19204300D01*
X17500590Y-19204300D01*
X17500592Y-19204300D01*
X17627886Y-19170192D01*
X17627888Y-19170190D01*
X17627890Y-19170190D01*
X17742009Y-19104303D01*
X17742009Y-19104302D01*
X17742014Y-19104300D01*
X17835200Y-19011114D01*
X17835203Y-19011109D01*
X17901090Y-18896990D01*
X17901090Y-18896988D01*
X17901092Y-18896986D01*
X17935200Y-18769692D01*
X17935200Y-18704635D01*
X17954107Y-18646444D01*
X17964196Y-18634631D01*
X20675496Y-15923331D01*
X20730013Y-15895554D01*
X20790445Y-15905125D01*
X20833710Y-15948390D01*
X20844500Y-15993335D01*
X20844500Y-16314164D01*
X20825593Y-16372355D01*
X20815504Y-16384168D01*
X17460003Y-19739669D01*
X17405486Y-19767446D01*
X17345054Y-19757875D01*
X17319995Y-19739669D01*
X16880482Y-19300156D01*
X16368162Y-18787835D01*
X16368159Y-18787833D01*
X16368157Y-18787831D01*
X16293942Y-18744983D01*
X16293944Y-18744983D01*
X16261821Y-18736376D01*
X16211153Y-18722800D01*
X11699953Y-18722800D01*
X11614247Y-18722800D01*
X11563578Y-18736376D01*
X11531456Y-18744983D01*
X11457242Y-18787831D01*
X7807969Y-22437104D01*
X7753452Y-22464881D01*
X7737965Y-22466100D01*
X7672908Y-22466100D01*
X7596654Y-22486532D01*
X7545609Y-22500209D01*
X7431490Y-22566096D01*
X7338296Y-22659290D01*
X7272409Y-22773409D01*
X7253339Y-22844578D01*
X7238300Y-22900708D01*
X7238300Y-23032492D01*
X7255232Y-23095684D01*
X7272409Y-23159790D01*
X7338296Y-23273909D01*
X7338298Y-23273911D01*
X7338300Y-23273914D01*
X7431486Y-23367100D01*
X7431488Y-23367101D01*
X7431490Y-23367103D01*
X7545610Y-23432990D01*
X7545608Y-23432990D01*
X7545612Y-23432991D01*
X7545614Y-23432992D01*
X7672908Y-23467100D01*
X7672910Y-23467100D01*
X7804690Y-23467100D01*
X7804692Y-23467100D01*
X7931986Y-23432992D01*
X7931988Y-23432990D01*
X7931990Y-23432990D01*
X8046109Y-23367103D01*
X8046109Y-23367102D01*
X8046114Y-23367100D01*
X8139300Y-23273914D01*
X8139303Y-23273909D01*
X8205190Y-23159790D01*
X8205190Y-23159788D01*
X8205192Y-23159786D01*
X8239300Y-23032492D01*
X8239300Y-22967435D01*
X8258207Y-22909244D01*
X8268296Y-22897431D01*
X11762931Y-19402796D01*
X11817448Y-19375019D01*
X11832935Y-19373800D01*
X15992465Y-19373800D01*
X16050656Y-19392707D01*
X16062469Y-19402796D01*
X17129533Y-20469859D01*
X17129532Y-20469859D01*
X17129534Y-20469861D01*
X17129535Y-20469862D01*
X17259265Y-20599592D01*
X17375503Y-20715829D01*
X17403281Y-20770346D01*
X17404500Y-20785833D01*
X17404500Y-21059415D01*
X17385593Y-21117606D01*
X17336093Y-21153570D01*
X17279877Y-21155042D01*
X17165892Y-21124500D01*
X17099500Y-21124500D01*
X17041309Y-21105593D01*
X17005345Y-21056093D01*
X17000500Y-21025500D01*
X17000500Y-20909109D01*
X17000500Y-20909108D01*
X16966392Y-20781814D01*
X16966390Y-20781811D01*
X16966390Y-20781809D01*
X16900503Y-20667690D01*
X16900501Y-20667688D01*
X16900500Y-20667686D01*
X16807314Y-20574500D01*
X16807311Y-20574498D01*
X16807309Y-20574496D01*
X16693189Y-20508609D01*
X16693191Y-20508609D01*
X16643799Y-20495375D01*
X16565892Y-20474500D01*
X16434108Y-20474500D01*
X16356200Y-20495375D01*
X16306809Y-20508609D01*
X16192690Y-20574496D01*
X16192684Y-20574500D01*
X16146681Y-20620504D01*
X16092164Y-20648281D01*
X16076678Y-20649500D01*
X12548932Y-20649500D01*
X12548916Y-20649499D01*
X12542853Y-20649499D01*
X12457147Y-20649499D01*
X12457144Y-20649499D01*
X12374361Y-20671681D01*
X12374360Y-20671681D01*
X12345602Y-20688286D01*
X12300136Y-20714535D01*
X12239534Y-20775137D01*
X12239535Y-20775138D01*
X4589531Y-28425142D01*
X4546682Y-28499360D01*
X4546681Y-28499360D01*
X4546682Y-28499361D01*
X4524500Y-28582147D01*
X4524500Y-29176678D01*
X4505593Y-29234869D01*
X4495504Y-29246681D01*
X4449500Y-29292684D01*
X4449496Y-29292690D01*
X4383609Y-29406809D01*
X4383608Y-29406814D01*
X4349500Y-29534108D01*
X500500Y-29534108D01*
X500500Y-23819108D01*
X4413200Y-23819108D01*
X4413200Y-23950892D01*
X4438036Y-24043581D01*
X4447309Y-24078190D01*
X4513196Y-24192309D01*
X4513198Y-24192311D01*
X4513200Y-24192314D01*
X4606386Y-24285500D01*
X4606388Y-24285501D01*
X4606390Y-24285503D01*
X4720510Y-24351390D01*
X4720508Y-24351390D01*
X4720512Y-24351391D01*
X4720514Y-24351392D01*
X4847808Y-24385500D01*
X4847810Y-24385500D01*
X4979590Y-24385500D01*
X4979592Y-24385500D01*
X5106886Y-24351392D01*
X5106888Y-24351390D01*
X5106890Y-24351390D01*
X5221009Y-24285503D01*
X5221009Y-24285502D01*
X5221014Y-24285500D01*
X5314200Y-24192314D01*
X5357018Y-24118151D01*
X5402486Y-24077212D01*
X5463336Y-24070816D01*
X5516324Y-24101409D01*
X5538379Y-24142028D01*
X5562919Y-24233613D01*
X5567709Y-24251490D01*
X5633596Y-24365609D01*
X5633598Y-24365611D01*
X5633600Y-24365614D01*
X5726786Y-24458800D01*
X5726788Y-24458801D01*
X5726790Y-24458803D01*
X5840910Y-24524690D01*
X5840908Y-24524690D01*
X5840912Y-24524691D01*
X5840914Y-24524692D01*
X5968208Y-24558800D01*
X5968210Y-24558800D01*
X6099990Y-24558800D01*
X6099992Y-24558800D01*
X6227286Y-24524692D01*
X6227288Y-24524690D01*
X6227290Y-24524690D01*
X6341409Y-24458803D01*
X6341409Y-24458802D01*
X6341414Y-24458800D01*
X6434600Y-24365614D01*
X6452840Y-24334022D01*
X6500490Y-24251490D01*
X6500490Y-24251488D01*
X6500492Y-24251486D01*
X6534600Y-24124192D01*
X6534600Y-23992408D01*
X6500492Y-23865114D01*
X6500490Y-23865111D01*
X6500490Y-23865109D01*
X6434603Y-23750990D01*
X6434601Y-23750988D01*
X6434600Y-23750986D01*
X6341414Y-23657800D01*
X6341411Y-23657798D01*
X6341296Y-23657683D01*
X6313519Y-23603166D01*
X6312300Y-23587679D01*
X6312300Y-20957021D01*
X6331207Y-20898830D01*
X6341290Y-20887023D01*
X6387300Y-20841014D01*
X6421482Y-20781809D01*
X6453190Y-20726890D01*
X6453190Y-20726888D01*
X6453192Y-20726886D01*
X6487300Y-20599592D01*
X6487300Y-20467808D01*
X6453192Y-20340514D01*
X6453190Y-20340511D01*
X6453190Y-20340509D01*
X6387303Y-20226390D01*
X6387301Y-20226388D01*
X6387300Y-20226386D01*
X6294114Y-20133200D01*
X6294111Y-20133198D01*
X6294109Y-20133196D01*
X6179989Y-20067309D01*
X6179991Y-20067309D01*
X6130599Y-20054075D01*
X6052692Y-20033200D01*
X5920908Y-20033200D01*
X5843000Y-20054075D01*
X5793609Y-20067309D01*
X5679490Y-20133196D01*
X5586296Y-20226390D01*
X5520409Y-20340509D01*
X5520408Y-20340514D01*
X5486300Y-20467808D01*
X5486300Y-20599592D01*
X5499673Y-20649500D01*
X5520409Y-20726890D01*
X5586296Y-20841009D01*
X5586298Y-20841011D01*
X5586300Y-20841014D01*
X5632305Y-20887019D01*
X5660081Y-20941534D01*
X5661300Y-20957021D01*
X5661300Y-23682278D01*
X5642393Y-23740469D01*
X5635271Y-23748807D01*
X5633598Y-23750987D01*
X5590782Y-23825147D01*
X5545312Y-23866087D01*
X5484462Y-23872482D01*
X5431474Y-23841889D01*
X5409420Y-23801271D01*
X5380092Y-23691814D01*
X5380089Y-23691809D01*
X5314203Y-23577690D01*
X5314199Y-23577684D01*
X5268196Y-23531681D01*
X5240419Y-23477164D01*
X5239200Y-23461678D01*
X5239200Y-12522035D01*
X5258107Y-12463844D01*
X5268196Y-12452031D01*
X12846631Y-4873596D01*
X12901148Y-4845819D01*
X12916635Y-4844600D01*
X12981690Y-4844600D01*
X12981692Y-4844600D01*
X13108986Y-4810492D01*
X13108988Y-4810490D01*
X13108990Y-4810490D01*
X13223109Y-4744603D01*
X13223109Y-4744602D01*
X13223114Y-4744600D01*
X13316300Y-4651414D01*
X13382192Y-4537286D01*
X13416300Y-4409992D01*
X13416300Y-4278208D01*
X13382192Y-4150914D01*
X13382190Y-4150911D01*
X13382190Y-4150909D01*
X13316303Y-4036790D01*
X13316301Y-4036788D01*
X13316300Y-4036786D01*
X13223114Y-3943600D01*
X13223111Y-3943598D01*
X13223109Y-3943596D01*
X13108989Y-3877709D01*
X13108991Y-3877709D01*
X13059599Y-3864475D01*
X12981692Y-3843600D01*
X12849908Y-3843600D01*
X12772000Y-3864475D01*
X12722609Y-3877709D01*
X12608490Y-3943596D01*
X12515296Y-4036790D01*
X12449409Y-4150909D01*
X12415300Y-4278209D01*
X12415300Y-4343265D01*
X12396393Y-4401456D01*
X12386304Y-4413269D01*
X4653231Y-12146342D01*
X4610382Y-12220560D01*
X4610381Y-12220560D01*
X4610382Y-12220561D01*
X4588200Y-12303347D01*
X4588200Y-23461678D01*
X4569293Y-23519869D01*
X4559204Y-23531681D01*
X4513200Y-23577684D01*
X4513196Y-23577690D01*
X4447309Y-23691809D01*
X4442375Y-23710225D01*
X4413200Y-23819108D01*
X500500Y-23819108D01*
X500500Y-3878710D01*
X2149500Y-3878710D01*
X2149500Y-4121289D01*
X2181161Y-4361781D01*
X2181161Y-4361786D01*
X2243944Y-4596092D01*
X2243948Y-4596105D01*
X2336772Y-4820204D01*
X2336774Y-4820208D01*
X2336776Y-4820212D01*
X2458064Y-5030289D01*
X2458066Y-5030292D01*
X2605729Y-5222731D01*
X2605731Y-5222733D01*
X2605735Y-5222738D01*
X2777262Y-5394265D01*
X2777266Y-5394268D01*
X2777268Y-5394270D01*
X2969707Y-5541933D01*
X2969711Y-5541936D01*
X3179788Y-5663224D01*
X3403900Y-5756054D01*
X3638211Y-5818838D01*
X3878712Y-5850500D01*
X3878713Y-5850500D01*
X4121287Y-5850500D01*
X4121288Y-5850500D01*
X4361789Y-5818838D01*
X4596100Y-5756054D01*
X4820212Y-5663224D01*
X5030289Y-5541936D01*
X5222738Y-5394265D01*
X5394265Y-5222738D01*
X5541936Y-5030289D01*
X5663224Y-4820212D01*
X5756054Y-4596100D01*
X5818838Y-4361789D01*
X5850500Y-4121288D01*
X5850500Y-3878712D01*
X5818838Y-3638211D01*
X5756054Y-3403900D01*
X5663224Y-3179788D01*
X5541936Y-2969711D01*
X5455380Y-2856909D01*
X5394270Y-2777268D01*
X5394268Y-2777266D01*
X5394265Y-2777262D01*
X5222738Y-2605735D01*
X5222733Y-2605731D01*
X5222731Y-2605729D01*
X5030292Y-2458066D01*
X5027422Y-2456409D01*
X4820212Y-2336776D01*
X4820208Y-2336774D01*
X4820204Y-2336772D01*
X4596105Y-2243948D01*
X4596104Y-2243947D01*
X4596100Y-2243946D01*
X4361789Y-2181162D01*
X4361786Y-2181161D01*
X4361784Y-2181161D01*
X4121289Y-2149500D01*
X4121288Y-2149500D01*
X3878712Y-2149500D01*
X3878710Y-2149500D01*
X3638218Y-2181161D01*
X3638213Y-2181161D01*
X3403907Y-2243944D01*
X3403894Y-2243948D01*
X3179795Y-2336772D01*
X2969707Y-2458066D01*
X2777268Y-2605729D01*
X2605729Y-2777268D01*
X2458066Y-2969707D01*
X2336772Y-3179795D01*
X2247818Y-3394552D01*
X2243946Y-3403900D01*
X2181162Y-3638211D01*
X2181161Y-3638217D01*
X2181161Y-3638218D01*
X2149500Y-3878710D01*
X500500Y-3878710D01*
X500500Y-3002984D01*
X500681Y-2997007D01*
X510902Y-2828032D01*
X518362Y-2704687D01*
X519801Y-2692836D01*
X572052Y-2407714D01*
X574906Y-2396131D01*
X661152Y-2119355D01*
X665374Y-2108224D01*
X784349Y-1843873D01*
X789898Y-1833302D01*
X939860Y-1585233D01*
X946631Y-1575423D01*
X1125406Y-1347234D01*
X1133318Y-1338302D01*
X1338302Y-1133318D01*
X1347234Y-1125406D01*
X1575423Y-946631D01*
X1585233Y-939860D01*
X1833302Y-789898D01*
X1843873Y-784349D01*
X2108224Y-665374D01*
X2119355Y-661152D01*
X2396131Y-574906D01*
X2407714Y-572052D01*
X2692836Y-519801D01*
X2704687Y-518362D01*
X2997008Y-500681D01*
X3002985Y-500500D01*
X3065892Y-500500D01*
X71934108Y-500500D01*
X71997015Y-500500D01*
X72002992Y-500681D01*
G37*
%TD.AperFunction*%
%TA.AperFunction,Conductor*%
G36*
X27827642Y-21527021D02*
G01*
X27868436Y-21565732D01*
X27925696Y-21664909D01*
X27925698Y-21664911D01*
X27925700Y-21664914D01*
X27971705Y-21710919D01*
X27999481Y-21765434D01*
X28000700Y-21780921D01*
X28000700Y-27925365D01*
X27981793Y-27983556D01*
X27971704Y-27995369D01*
X27927069Y-28040004D01*
X27872552Y-28067781D01*
X27857065Y-28069000D01*
X27792008Y-28069000D01*
X27714100Y-28089875D01*
X27664709Y-28103109D01*
X27550590Y-28168996D01*
X27457396Y-28262190D01*
X27391509Y-28376309D01*
X27391508Y-28376314D01*
X27357400Y-28503608D01*
X27357400Y-28635392D01*
X27382972Y-28730830D01*
X27391509Y-28762690D01*
X27457396Y-28876809D01*
X27457398Y-28876811D01*
X27457400Y-28876814D01*
X27550586Y-28970000D01*
X27550588Y-28970001D01*
X27550590Y-28970003D01*
X27664710Y-29035890D01*
X27664708Y-29035890D01*
X27664712Y-29035891D01*
X27664714Y-29035892D01*
X27792008Y-29070000D01*
X27792010Y-29070000D01*
X27923790Y-29070000D01*
X27923792Y-29070000D01*
X28051086Y-29035892D01*
X28124076Y-28993750D01*
X28183923Y-28981029D01*
X28239819Y-29005915D01*
X28270412Y-29058903D01*
X28264017Y-29119753D01*
X28243580Y-29149491D01*
X17899532Y-39493541D01*
X17899531Y-39493542D01*
X17856682Y-39567760D01*
X17856681Y-39567760D01*
X17856682Y-39567761D01*
X17834500Y-39650547D01*
X17834500Y-61409029D01*
X17815593Y-61467220D01*
X17766093Y-61503184D01*
X17763203Y-61504074D01*
X17756823Y-61505933D01*
X17649598Y-61555933D01*
X17565933Y-61639598D01*
X17515932Y-61746824D01*
X17515932Y-61746825D01*
X17515932Y-61746827D01*
X17509500Y-61795684D01*
X17509500Y-64204316D01*
X17513788Y-64236887D01*
X17515932Y-64253174D01*
X17515932Y-64253175D01*
X17565122Y-64358661D01*
X17572579Y-64419390D01*
X17542916Y-64472904D01*
X17487463Y-64498762D01*
X17475398Y-64499500D01*
X13764602Y-64499500D01*
X13706411Y-64480593D01*
X13670447Y-64431093D01*
X13670447Y-64369907D01*
X13674878Y-64358661D01*
X13724067Y-64253175D01*
X13724068Y-64253173D01*
X13730500Y-64204316D01*
X13730500Y-61795684D01*
X13724068Y-61746827D01*
X13720805Y-61739830D01*
X13674066Y-61639598D01*
X13674065Y-61639597D01*
X13674065Y-61639596D01*
X13590404Y-61555935D01*
X13590402Y-61555934D01*
X13590401Y-61555933D01*
X13483176Y-61505933D01*
X13476797Y-61504074D01*
X13426222Y-61469639D01*
X13405546Y-61412053D01*
X13405500Y-61409029D01*
X13405500Y-36562735D01*
X13424407Y-36504544D01*
X13434496Y-36492731D01*
X22937031Y-26990196D01*
X22991548Y-26962419D01*
X23007035Y-26961200D01*
X23357651Y-26961200D01*
X23357653Y-26961200D01*
X23440439Y-26939018D01*
X23440441Y-26939016D01*
X23440443Y-26939016D01*
X23514657Y-26896168D01*
X23514657Y-26896167D01*
X23514662Y-26896165D01*
X27604965Y-22805862D01*
X27647817Y-22731639D01*
X27647818Y-22731638D01*
X27670000Y-22648853D01*
X27670000Y-21628933D01*
X27688907Y-21570742D01*
X27698989Y-21558937D01*
X27712697Y-21545229D01*
X27767209Y-21517451D01*
X27827642Y-21527021D01*
G37*
%TD.AperFunction*%
%TA.AperFunction,Conductor*%
G36*
X29825001Y-51230633D02*
G01*
X29940345Y-51345977D01*
X30112402Y-51460941D01*
X30223386Y-51506911D01*
X30269911Y-51546647D01*
X30284500Y-51598375D01*
X30284500Y-57627147D01*
X30284500Y-57712853D01*
X30304062Y-57785863D01*
X30306683Y-57795643D01*
X30349531Y-57869857D01*
X30349532Y-57869858D01*
X30349533Y-57869859D01*
X30349535Y-57869862D01*
X32085402Y-59605729D01*
X33810169Y-61330496D01*
X33837946Y-61385013D01*
X33828375Y-61445445D01*
X33785110Y-61488710D01*
X33740165Y-61499500D01*
X33045684Y-61499500D01*
X33029398Y-61501644D01*
X32996825Y-61505932D01*
X32996824Y-61505932D01*
X32889598Y-61555933D01*
X32805933Y-61639598D01*
X32755932Y-61746824D01*
X32753813Y-61754098D01*
X32752077Y-61753592D01*
X32729829Y-61800233D01*
X32676058Y-61829427D01*
X32615396Y-61821439D01*
X32588015Y-61802088D01*
X29684996Y-58899069D01*
X29657219Y-58844552D01*
X29656000Y-58829065D01*
X29656000Y-51300639D01*
X29674907Y-51242448D01*
X29724407Y-51206484D01*
X29785593Y-51206484D01*
X29825001Y-51230633D01*
G37*
%TD.AperFunction*%
%TD*%
M02*
