%TF.GenerationSoftware,KiCad,Pcbnew,10.0.6*%
%TF.CreationDate,2026-09-04T10:41:54+02:00*%
%TF.ProjectId,Dimmer1,44696d6d-6572-4312-9e6b-696361645f70,rev?*%
%TF.SameCoordinates,Original*%
%TF.FileFunction,Copper,L2,Bot*%
%TF.FilePolarity,Positive*%
%FSLAX46Y46*%
G04 Gerber Fmt 4.6, Leading zero omitted, Abs format (unit mm)*
G04 Created by KiCad (PCBNEW 10.0.6) date 2026-09-04 10:41:54*
%MOMM*%
%LPD*%
G01*
G04 APERTURE LIST*
G04 Aperture macros list*
%AMRoundRect*
0 Rectangle with rounded corners*
0 $1 Rounding radius*
0 $2 $3 $4 $5 $6 $7 $8 $9 X,Y pos of 4 corners*
0 Add a 4 corners polygon primitive as box body*
4,1,4,$2,$3,$4,$5,$6,$7,$8,$9,$2,$3,0*
0 Add four circle primitives for the rounded corners*
1,1,$1+$1,$2,$3*
1,1,$1+$1,$4,$5*
1,1,$1+$1,$6,$7*
1,1,$1+$1,$8,$9*
0 Add four rect primitives between the rounded corners*
20,1,$1+$1,$2,$3,$4,$5,0*
20,1,$1+$1,$4,$5,$6,$7,0*
20,1,$1+$1,$6,$7,$8,$9,0*
20,1,$1+$1,$8,$9,$2,$3,0*%
G04 Aperture macros list end*
%TA.AperFunction,ComponentPad*%
%ADD10RoundRect,0.250001X-0.949999X-0.949999X0.949999X-0.949999X0.949999X0.949999X-0.949999X0.949999X0*%
%TD*%
%TA.AperFunction,ComponentPad*%
%ADD11C,2.400000*%
%TD*%
%TA.AperFunction,ComponentPad*%
%ADD12R,1.700000X1.700000*%
%TD*%
%TA.AperFunction,ComponentPad*%
%ADD13C,1.700000*%
%TD*%
%TA.AperFunction,ComponentPad*%
%ADD14RoundRect,0.250000X-0.550000X-0.550000X0.550000X-0.550000X0.550000X0.550000X-0.550000X0.550000X0*%
%TD*%
%TA.AperFunction,ComponentPad*%
%ADD15C,1.600000*%
%TD*%
%TA.AperFunction,SMDPad,CuDef*%
%ADD16R,3.150000X1.000000*%
%TD*%
%TA.AperFunction,SMDPad,CuDef*%
%ADD17R,2.510000X1.000000*%
%TD*%
%TA.AperFunction,ViaPad*%
%ADD18C,0.600000*%
%TD*%
%TA.AperFunction,Conductor*%
%ADD19C,1.000000*%
%TD*%
%TA.AperFunction,Conductor*%
%ADD20C,0.250000*%
%TD*%
G04 APERTURE END LIST*
D10*
%TO.P,J5,1*%
%TO.N,/+24V*%
X10250000Y-53600000D03*
D11*
%TO.P,J5,2*%
%TO.N,/LED1*%
X13750000Y-53600000D03*
%TD*%
D12*
%TO.P,J100,1*%
%TO.N,/FLASH_TX*%
X8000000Y-13000000D03*
D13*
%TO.P,J100,2*%
%TO.N,/FLASH_RX*%
X8000000Y-10460000D03*
%TO.P,J100,3*%
%TO.N,GND*%
X10540000Y-13000000D03*
%TO.P,J100,4*%
%TO.N,unconnected-(J100-Pin_4-Pad4)*%
X10540000Y-10460000D03*
%TO.P,J100,5*%
%TO.N,/FLASH_MODE*%
X13080000Y-13000000D03*
%TO.P,J100,6*%
%TO.N,/I2C_SDA*%
X13080000Y-10460000D03*
%TO.P,J100,7*%
%TO.N,/I2C_SCL*%
X15620000Y-13000000D03*
%TO.P,J100,8*%
%TO.N,GND*%
X15620000Y-10460000D03*
%TO.P,J100,9*%
%TO.N,/NOTAUS*%
X18160000Y-13000000D03*
%TO.P,J100,10*%
%TO.N,/SEL_CLK*%
X18160000Y-10460000D03*
%TO.P,J100,11*%
%TO.N,unconnected-(J100-Pin_11-Pad11)*%
X20700000Y-13000000D03*
%TO.P,J100,12*%
%TO.N,unconnected-(J100-Pin_12-Pad12)*%
X20700000Y-10460000D03*
%TO.P,J100,13*%
%TO.N,GND*%
X23240000Y-13000000D03*
%TO.P,J100,14*%
%TO.N,unconnected-(J100-Pin_14-Pad14)*%
X23240000Y-10460000D03*
%TO.P,J100,15*%
%TO.N,unconnected-(J100-Pin_15-Pad15)*%
X25780000Y-13000000D03*
%TO.P,J100,16*%
%TO.N,unconnected-(J100-Pin_16-Pad16)*%
X25780000Y-10460000D03*
%TO.P,J100,17*%
%TO.N,unconnected-(J100-Pin_17-Pad17)*%
X28320000Y-13000000D03*
%TO.P,J100,18*%
%TO.N,GND*%
X28320000Y-10460000D03*
%TO.P,J100,19*%
%TO.N,unconnected-(J100-Pin_19-Pad19)*%
X30860000Y-13000000D03*
%TO.P,J100,20*%
%TO.N,unconnected-(J100-Pin_20-Pad20)*%
X30860000Y-10460000D03*
%TO.P,J100,21*%
%TO.N,unconnected-(J100-Pin_21-Pad21)*%
X33400000Y-13000000D03*
%TO.P,J100,22*%
%TO.N,unconnected-(J100-Pin_22-Pad22)*%
X33400000Y-10460000D03*
%TO.P,J100,23*%
%TO.N,GND*%
X35940000Y-13000000D03*
%TO.P,J100,24*%
%TO.N,unconnected-(J100-Pin_24-Pad24)*%
X35940000Y-10460000D03*
%TO.P,J100,25*%
%TO.N,unconnected-(J100-Pin_25-Pad25)*%
X38480000Y-13000000D03*
%TO.P,J100,26*%
%TO.N,unconnected-(J100-Pin_26-Pad26)*%
X38480000Y-10460000D03*
%TO.P,J100,27*%
%TO.N,unconnected-(J100-Pin_27-Pad27)*%
X41020000Y-13000000D03*
%TO.P,J100,28*%
%TO.N,GND*%
X41020000Y-10460000D03*
%TO.P,J100,29*%
%TO.N,unconnected-(J100-Pin_29-Pad29)*%
X43560000Y-13000000D03*
%TO.P,J100,30*%
%TO.N,unconnected-(J100-Pin_30-Pad30)*%
X43560000Y-10460000D03*
%TO.P,J100,31*%
%TO.N,unconnected-(J100-Pin_31-Pad31)*%
X46100000Y-13000000D03*
%TO.P,J100,32*%
%TO.N,unconnected-(J100-Pin_32-Pad32)*%
X46100000Y-10460000D03*
%TO.P,J100,33*%
%TO.N,GND*%
X48640000Y-13000000D03*
%TO.P,J100,34*%
%TO.N,unconnected-(J100-Pin_34-Pad34)*%
X48640000Y-10460000D03*
%TO.P,J100,35*%
%TO.N,unconnected-(J100-Pin_35-Pad35)*%
X51180000Y-13000000D03*
%TO.P,J100,36*%
%TO.N,3V3*%
X51180000Y-10460000D03*
%TO.P,J100,37*%
%TO.N,unconnected-(J100-Pin_37-Pad37)*%
X53720000Y-13000000D03*
%TO.P,J100,38*%
%TO.N,GND*%
X53720000Y-10460000D03*
%TO.P,J100,39*%
%TO.N,unconnected-(J100-Pin_39-Pad39)*%
X56260000Y-13000000D03*
%TO.P,J100,40*%
%TO.N,unconnected-(J100-Pin_40-Pad40)*%
X56260000Y-10460000D03*
%TD*%
D14*
%TO.P,C12,1*%
%TO.N,/+24V*%
X51502479Y-33751238D03*
D15*
%TO.P,C12,2*%
%TO.N,GND*%
X55002479Y-33751238D03*
%TD*%
D16*
%TO.P,J104,1*%
%TO.N,/PWR24V*%
X58495000Y-42000000D03*
%TO.P,J104,2*%
%TO.N,GND*%
X53445000Y-42000000D03*
%TO.P,J104,3*%
%TO.N,/PWR24V*%
X58495000Y-44540000D03*
%TO.P,J104,4*%
%TO.N,GND*%
X53445000Y-44540000D03*
%TD*%
D17*
%TO.P,J102,1*%
%TO.N,/SEL_OUT*%
X14155000Y-2750000D03*
%TO.P,J102,2*%
%TO.N,GND*%
X10845000Y-5290000D03*
%TD*%
D18*
%TO.N,/+24V*%
X44411100Y-25102100D03*
X18182600Y-32206400D03*
%TO.N,/LED1*%
X22550000Y-32150000D03*
%TO.N,/PWM1_G*%
X23313800Y-29774700D03*
X24638200Y-21656800D03*
%TO.N,GND*%
X20750000Y-37500000D03*
X28250000Y-7500000D03*
X35750000Y-30000000D03*
X13250000Y-22500000D03*
X58250000Y-37500000D03*
X28250000Y-37500000D03*
X58250000Y-7500000D03*
X7359265Y-24940000D03*
X58250000Y-30000000D03*
X35750000Y-45000000D03*
X35750000Y-52500000D03*
X20750000Y-52500000D03*
X5750000Y-45000000D03*
X35750000Y-37500000D03*
X28250000Y-52500000D03*
X13900000Y-19675000D03*
X5750000Y-52500000D03*
X20750000Y-7500000D03*
X58250000Y-52500000D03*
X43250000Y-22500000D03*
X50750000Y-52500000D03*
X20750000Y-45000000D03*
X35750000Y-22500000D03*
X43250000Y-52500000D03*
X50750000Y-7500000D03*
X13250000Y-45000000D03*
X43250000Y-37500000D03*
X43250000Y-45000000D03*
X5750000Y-7500000D03*
X43250000Y-30000000D03*
X28250000Y-45000000D03*
X28250000Y-30000000D03*
X43250000Y-7500000D03*
X35750000Y-7500000D03*
X58250000Y-22500000D03*
%TO.N,3V3*%
X18680000Y-24100000D03*
X23900000Y-24950000D03*
%TO.N,/NCLR*%
X4190000Y-27044000D03*
X9936700Y-20743600D03*
%TO.N,/ID1*%
X18100000Y-21625000D03*
X10150000Y-29650000D03*
%TO.N,/PWR24V*%
X56082900Y-44333100D03*
%TO.N,/FLASH_TX*%
X16579300Y-15919200D03*
%TO.N,/I2C_SDA*%
X15322400Y-15926700D03*
%TO.N,/SEL_OUT*%
X8888200Y-22731600D03*
X20350000Y-27600000D03*
X15880000Y-23650000D03*
%TO.N,/SEL_IN*%
X5370600Y-23475000D03*
X7302300Y-4199300D03*
%TO.N,/BOOT0*%
X23062800Y-17989300D03*
X24854700Y-28557700D03*
%TO.N,/ID0*%
X17500000Y-20975000D03*
X5850000Y-29600000D03*
%TD*%
%TO.N,/+24V*%
D19*
X45097300Y-27346000D02*
X44411100Y-27346000D01*
X44411100Y-27346000D02*
X44411100Y-25102100D01*
X44411100Y-27346000D02*
X36504000Y-27346000D01*
X36504000Y-27346000D02*
X24913100Y-38936900D01*
X24913100Y-38936900D02*
X10250000Y-53600000D01*
X24913100Y-38936900D02*
X18182600Y-32206400D01*
X51502500Y-33751200D02*
X45097300Y-27346000D01*
%TO.N,/PWM1_G*%
D20*
X24638200Y-27888000D02*
X23313800Y-29212400D01*
X24638200Y-21656800D02*
X24638200Y-27888000D01*
X23313800Y-29212400D02*
X23313800Y-29774700D01*
%TO.N,3V3*%
X23350000Y-24100000D02*
X23900000Y-24650000D01*
X18680000Y-24100000D02*
X23350000Y-24100000D01*
X23900000Y-24650000D02*
X23900000Y-24950000D01*
%TO.N,/NCLR*%
X8628700Y-22104900D02*
X8261500Y-22472100D01*
X8261500Y-22972500D02*
X4190000Y-27044000D01*
X8261500Y-22472100D02*
X8261500Y-22972500D01*
X9127000Y-22104900D02*
X8628700Y-22104900D01*
X9531500Y-21702500D02*
X9529400Y-21702500D01*
X9936700Y-21297300D02*
X9531500Y-21702500D01*
X9936700Y-20743600D02*
X9936700Y-21297300D01*
X9529400Y-21702500D02*
X9127000Y-22104900D01*
%TO.N,/ID1*%
X18100000Y-21625000D02*
X15300000Y-21625000D01*
X10150000Y-26775000D02*
X10150000Y-29650000D01*
X15300000Y-21625000D02*
X10150000Y-26775000D01*
%TO.N,/PWR24V*%
D19*
X56218300Y-44540000D02*
X56218300Y-44468500D01*
X58495000Y-44540000D02*
X60771700Y-44540000D01*
X56218300Y-44468500D02*
X56082900Y-44333100D01*
X60771700Y-44540000D02*
X60771700Y-42000000D01*
X58495000Y-44540000D02*
X56218300Y-44540000D01*
X58495000Y-42000000D02*
X60771700Y-42000000D01*
%TO.N,/FLASH_TX*%
D20*
X16579300Y-15919200D02*
X15938500Y-16560000D01*
X8000000Y-13000000D02*
X9176700Y-13000000D01*
X9176700Y-13367700D02*
X9176700Y-13000000D01*
X12369000Y-16560000D02*
X9176700Y-13367700D01*
X15938500Y-16560000D02*
X12369000Y-16560000D01*
%TO.N,/I2C_SDA*%
X14350000Y-14954300D02*
X15322400Y-15926700D01*
X13080000Y-10460000D02*
X14350000Y-11730000D01*
X14350000Y-11730000D02*
X14350000Y-14954300D01*
%TO.N,/SEL_OUT*%
X16890000Y-6311700D02*
X16890000Y-15343600D01*
X18764500Y-21893900D02*
X17008400Y-23650000D01*
X17253100Y-15706700D02*
X17253100Y-16142200D01*
X15455500Y-17939800D02*
X18764500Y-21248800D01*
X14155000Y-2750000D02*
X14155000Y-3576700D01*
X15880000Y-24500000D02*
X15880000Y-23650000D01*
X14556800Y-17939800D02*
X15455500Y-17939800D01*
X8888200Y-22731600D02*
X9765000Y-22731600D01*
X9765000Y-22731600D02*
X14556800Y-17939800D01*
X18980000Y-27600000D02*
X15880000Y-24500000D01*
X18764500Y-21248800D02*
X18764500Y-21893900D01*
X16890000Y-15343600D02*
X17253100Y-15706700D01*
X14155000Y-3576700D02*
X16890000Y-6311700D01*
X17008400Y-23650000D02*
X15880000Y-23650000D01*
X20350000Y-27600000D02*
X18980000Y-27600000D01*
X15455500Y-17939800D02*
X17253100Y-16142200D01*
%TO.N,/SEL_IN*%
X5370600Y-23475000D02*
X5370600Y-10099800D01*
X5370600Y-10099800D02*
X7302300Y-8168100D01*
X7302300Y-8168100D02*
X7302300Y-4199300D01*
%TO.N,/BOOT0*%
X25285600Y-20212100D02*
X25285600Y-28126800D01*
X25285600Y-28126800D02*
X24854700Y-28557700D01*
X23062800Y-17989300D02*
X25285600Y-20212100D01*
%TO.N,/ID0*%
X5850000Y-28625000D02*
X5850000Y-29600000D01*
X17500000Y-20975000D02*
X13500000Y-20975000D01*
X13500000Y-20975000D02*
X5850000Y-28625000D01*
%TD*%
%TA.AperFunction,Conductor*%
%TO.N,GND*%
G36*
X61002992Y-500681D02*
G01*
X61295310Y-518362D01*
X61307165Y-519802D01*
X61592281Y-572051D01*
X61603883Y-574911D01*
X61880623Y-661147D01*
X61891786Y-665380D01*
X62156117Y-784346D01*
X62156119Y-784347D01*
X62166702Y-789902D01*
X62414758Y-939856D01*
X62424583Y-946638D01*
X62652755Y-1125399D01*
X62661704Y-1133326D01*
X62866673Y-1338295D01*
X62874599Y-1347243D01*
X62995481Y-1501538D01*
X63053356Y-1575409D01*
X63060147Y-1585248D01*
X63210096Y-1833295D01*
X63215652Y-1843880D01*
X63334616Y-2108206D01*
X63338855Y-2119384D01*
X63425087Y-2396113D01*
X63427948Y-2407721D01*
X63480196Y-2692827D01*
X63481637Y-2704694D01*
X63499319Y-2997006D01*
X63499500Y-3002984D01*
X63499500Y-56997015D01*
X63499319Y-57002993D01*
X63481637Y-57295304D01*
X63480196Y-57307171D01*
X63427948Y-57592277D01*
X63425087Y-57603885D01*
X63338855Y-57880615D01*
X63334616Y-57891793D01*
X63215652Y-58156118D01*
X63210096Y-58166703D01*
X63060142Y-58414758D01*
X63053356Y-58424590D01*
X62874599Y-58652755D01*
X62866672Y-58661704D01*
X62661704Y-58866672D01*
X62652755Y-58874599D01*
X62424590Y-59053356D01*
X62414758Y-59060142D01*
X62177212Y-59203744D01*
X62166703Y-59210097D01*
X62156118Y-59215652D01*
X61891793Y-59334616D01*
X61880615Y-59338855D01*
X61603885Y-59425087D01*
X61592277Y-59427948D01*
X61307171Y-59480196D01*
X61295304Y-59481637D01*
X61023993Y-59498048D01*
X61002991Y-59499319D01*
X60997015Y-59499500D01*
X3002985Y-59499500D01*
X2997008Y-59499319D01*
X2973822Y-59497916D01*
X2704694Y-59481637D01*
X2692827Y-59480196D01*
X2407721Y-59427948D01*
X2396113Y-59425087D01*
X2119384Y-59338855D01*
X2108206Y-59334616D01*
X1843880Y-59215652D01*
X1833295Y-59210096D01*
X1672942Y-59113160D01*
X1585245Y-59060145D01*
X1575413Y-59053358D01*
X1347243Y-58874599D01*
X1338295Y-58866673D01*
X1133326Y-58661704D01*
X1125399Y-58652755D01*
X946638Y-58424583D01*
X939856Y-58414758D01*
X789902Y-58166703D01*
X784347Y-58156119D01*
X665383Y-57891793D01*
X661147Y-57880623D01*
X574911Y-57603883D01*
X572051Y-57592278D01*
X572051Y-57592277D01*
X519802Y-57307165D01*
X518362Y-57295304D01*
X513972Y-57222731D01*
X500681Y-57002992D01*
X500500Y-56997015D01*
X500500Y-55878710D01*
X2149500Y-55878710D01*
X2149500Y-56121289D01*
X2181161Y-56361781D01*
X2181161Y-56361786D01*
X2243944Y-56596092D01*
X2243948Y-56596105D01*
X2336772Y-56820204D01*
X2336774Y-56820208D01*
X2336776Y-56820212D01*
X2440577Y-57000000D01*
X2458066Y-57030292D01*
X2605729Y-57222731D01*
X2605731Y-57222733D01*
X2605735Y-57222738D01*
X2777262Y-57394265D01*
X2777266Y-57394268D01*
X2777268Y-57394270D01*
X2933630Y-57514250D01*
X2969711Y-57541936D01*
X3179788Y-57663224D01*
X3403900Y-57756054D01*
X3638211Y-57818838D01*
X3878712Y-57850500D01*
X3878713Y-57850500D01*
X4121287Y-57850500D01*
X4121288Y-57850500D01*
X4361789Y-57818838D01*
X4596100Y-57756054D01*
X4820212Y-57663224D01*
X5030289Y-57541936D01*
X5222738Y-57394265D01*
X5394265Y-57222738D01*
X5541936Y-57030289D01*
X5663224Y-56820212D01*
X5756054Y-56596100D01*
X5818838Y-56361789D01*
X5850500Y-56121288D01*
X5850500Y-55878712D01*
X5850500Y-55878710D01*
X58149500Y-55878710D01*
X58149500Y-56121289D01*
X58181161Y-56361781D01*
X58181161Y-56361786D01*
X58243944Y-56596092D01*
X58243948Y-56596105D01*
X58336772Y-56820204D01*
X58336774Y-56820208D01*
X58336776Y-56820212D01*
X58440577Y-57000000D01*
X58458066Y-57030292D01*
X58605729Y-57222731D01*
X58605731Y-57222733D01*
X58605735Y-57222738D01*
X58777262Y-57394265D01*
X58777266Y-57394268D01*
X58777268Y-57394270D01*
X58933630Y-57514250D01*
X58969711Y-57541936D01*
X59179788Y-57663224D01*
X59403900Y-57756054D01*
X59638211Y-57818838D01*
X59878712Y-57850500D01*
X59878713Y-57850500D01*
X60121287Y-57850500D01*
X60121288Y-57850500D01*
X60361789Y-57818838D01*
X60596100Y-57756054D01*
X60820212Y-57663224D01*
X61030289Y-57541936D01*
X61222738Y-57394265D01*
X61394265Y-57222738D01*
X61541936Y-57030289D01*
X61663224Y-56820212D01*
X61756054Y-56596100D01*
X61818838Y-56361789D01*
X61850500Y-56121288D01*
X61850500Y-55878712D01*
X61818838Y-55638211D01*
X61756054Y-55403900D01*
X61663224Y-55179788D01*
X61541936Y-54969711D01*
X61467075Y-54872150D01*
X61394270Y-54777268D01*
X61394268Y-54777266D01*
X61394265Y-54777262D01*
X61222738Y-54605735D01*
X61222733Y-54605731D01*
X61222731Y-54605729D01*
X61030292Y-54458066D01*
X61030289Y-54458064D01*
X60820212Y-54336776D01*
X60820208Y-54336774D01*
X60820204Y-54336772D01*
X60596105Y-54243948D01*
X60596104Y-54243947D01*
X60596100Y-54243946D01*
X60361789Y-54181162D01*
X60361786Y-54181161D01*
X60361784Y-54181161D01*
X60121289Y-54149500D01*
X60121288Y-54149500D01*
X59878712Y-54149500D01*
X59878710Y-54149500D01*
X59638218Y-54181161D01*
X59638213Y-54181161D01*
X59403907Y-54243944D01*
X59403894Y-54243948D01*
X59179795Y-54336772D01*
X58969707Y-54458066D01*
X58777268Y-54605729D01*
X58605729Y-54777268D01*
X58458066Y-54969707D01*
X58336772Y-55179795D01*
X58243948Y-55403894D01*
X58243944Y-55403907D01*
X58181161Y-55638213D01*
X58181161Y-55638218D01*
X58149500Y-55878710D01*
X5850500Y-55878710D01*
X5818838Y-55638211D01*
X5756054Y-55403900D01*
X5663224Y-55179788D01*
X5541936Y-54969711D01*
X5467075Y-54872150D01*
X5394270Y-54777268D01*
X5394268Y-54777266D01*
X5394265Y-54777262D01*
X5222738Y-54605735D01*
X5222733Y-54605731D01*
X5222731Y-54605729D01*
X5030292Y-54458066D01*
X5030289Y-54458064D01*
X4820212Y-54336776D01*
X4820208Y-54336774D01*
X4820204Y-54336772D01*
X4596105Y-54243948D01*
X4596104Y-54243947D01*
X4596100Y-54243946D01*
X4361789Y-54181162D01*
X4361786Y-54181161D01*
X4361784Y-54181161D01*
X4121289Y-54149500D01*
X4121288Y-54149500D01*
X3878712Y-54149500D01*
X3878710Y-54149500D01*
X3638218Y-54181161D01*
X3638213Y-54181161D01*
X3403907Y-54243944D01*
X3403894Y-54243948D01*
X3179795Y-54336772D01*
X2969707Y-54458066D01*
X2777268Y-54605729D01*
X2605729Y-54777268D01*
X2458066Y-54969707D01*
X2336772Y-55179795D01*
X2243948Y-55403894D01*
X2243944Y-55403907D01*
X2181161Y-55638213D01*
X2181161Y-55638218D01*
X2149500Y-55878710D01*
X500500Y-55878710D01*
X500500Y-52595726D01*
X8849500Y-52595726D01*
X8849500Y-54604265D01*
X8852353Y-54634694D01*
X8852353Y-54634696D01*
X8852354Y-54634698D01*
X8892243Y-54748697D01*
X8897208Y-54762885D01*
X8977845Y-54872144D01*
X8977847Y-54872146D01*
X8977850Y-54872150D01*
X8977853Y-54872152D01*
X8977855Y-54872154D01*
X9087114Y-54952791D01*
X9087116Y-54952791D01*
X9087118Y-54952793D01*
X9215302Y-54997646D01*
X9245735Y-55000500D01*
X11254264Y-55000499D01*
X11254265Y-55000499D01*
X11260350Y-54999928D01*
X11284698Y-54997646D01*
X11412882Y-54952793D01*
X11522150Y-54872150D01*
X11602793Y-54762882D01*
X11647646Y-54634698D01*
X11650500Y-54604265D01*
X11650499Y-53489774D01*
X12349500Y-53489774D01*
X12349500Y-53710225D01*
X12383984Y-53927948D01*
X12452102Y-54137599D01*
X12452104Y-54137602D01*
X12452105Y-54137606D01*
X12552185Y-54334022D01*
X12681758Y-54512365D01*
X12837635Y-54668242D01*
X13015978Y-54797815D01*
X13212394Y-54897895D01*
X13422049Y-54966015D01*
X13509140Y-54979809D01*
X13639775Y-55000500D01*
X13639778Y-55000500D01*
X13860225Y-55000500D01*
X13969086Y-54983257D01*
X14077951Y-54966015D01*
X14287606Y-54897895D01*
X14484022Y-54797815D01*
X14662365Y-54668242D01*
X14818242Y-54512365D01*
X14947815Y-54334022D01*
X15047895Y-54137606D01*
X15116015Y-53927951D01*
X15150500Y-53710222D01*
X15150500Y-53489778D01*
X15150500Y-53489774D01*
X15116015Y-53272051D01*
X15116015Y-53272049D01*
X15047895Y-53062394D01*
X14947815Y-52865978D01*
X14818242Y-52687635D01*
X14662365Y-52531758D01*
X14484022Y-52402185D01*
X14484021Y-52402184D01*
X14484019Y-52402183D01*
X14394825Y-52356736D01*
X14287606Y-52302105D01*
X14287602Y-52302104D01*
X14287599Y-52302102D01*
X14077948Y-52233984D01*
X13860225Y-52199500D01*
X13860222Y-52199500D01*
X13639778Y-52199500D01*
X13639775Y-52199500D01*
X13422051Y-52233984D01*
X13212400Y-52302102D01*
X13015980Y-52402183D01*
X12926806Y-52466971D01*
X12837635Y-52531758D01*
X12681758Y-52687635D01*
X12616971Y-52776806D01*
X12552183Y-52865980D01*
X12452102Y-53062400D01*
X12383984Y-53272051D01*
X12349500Y-53489774D01*
X11650499Y-53489774D01*
X11650499Y-53231163D01*
X11669406Y-53172973D01*
X11679489Y-53161166D01*
X20576553Y-44264103D01*
X55382400Y-44264103D01*
X55382400Y-44402096D01*
X55409320Y-44537427D01*
X55409320Y-44537429D01*
X55462123Y-44664908D01*
X55462124Y-44664910D01*
X55462125Y-44664911D01*
X55538786Y-44779643D01*
X55559965Y-44800822D01*
X55581423Y-44832938D01*
X55597523Y-44871808D01*
X55597523Y-44871809D01*
X55635723Y-44928979D01*
X55674186Y-44986542D01*
X55674189Y-44986545D01*
X55771758Y-45084114D01*
X55886482Y-45160771D01*
X55886493Y-45160777D01*
X55933583Y-45180282D01*
X56013972Y-45213580D01*
X56149307Y-45240500D01*
X56149308Y-45240500D01*
X60840692Y-45240500D01*
X60840693Y-45240500D01*
X60976028Y-45213580D01*
X61103511Y-45160775D01*
X61218242Y-45084114D01*
X61315814Y-44986542D01*
X61392475Y-44871811D01*
X61445280Y-44744328D01*
X61472200Y-44608993D01*
X61472200Y-41931007D01*
X61445280Y-41795672D01*
X61392475Y-41668189D01*
X61392474Y-41668187D01*
X61392471Y-41668182D01*
X61315814Y-41553458D01*
X61218241Y-41455885D01*
X61103517Y-41379228D01*
X61103506Y-41379222D01*
X60976028Y-41326420D01*
X60840695Y-41299500D01*
X60840693Y-41299500D01*
X60089748Y-41299500D01*
X56900252Y-41299500D01*
X56900251Y-41299500D01*
X56900241Y-41299501D01*
X56841772Y-41311132D01*
X56841766Y-41311134D01*
X56775451Y-41355445D01*
X56775445Y-41355451D01*
X56731134Y-41421766D01*
X56731132Y-41421772D01*
X56719501Y-41480241D01*
X56719500Y-41480253D01*
X56719500Y-42519746D01*
X56719501Y-42519758D01*
X56731132Y-42578227D01*
X56731133Y-42578231D01*
X56775448Y-42644552D01*
X56841769Y-42688867D01*
X56886231Y-42697711D01*
X56900241Y-42700498D01*
X56900246Y-42700498D01*
X56900252Y-42700500D01*
X58426007Y-42700500D01*
X59972200Y-42700500D01*
X60030391Y-42719407D01*
X60066355Y-42768907D01*
X60071200Y-42799500D01*
X60071200Y-43740500D01*
X60052293Y-43798691D01*
X60002793Y-43834655D01*
X59972200Y-43839500D01*
X56620964Y-43839500D01*
X56562773Y-43820593D01*
X56550966Y-43810509D01*
X56529443Y-43788986D01*
X56414711Y-43712325D01*
X56414710Y-43712324D01*
X56414708Y-43712323D01*
X56287228Y-43659520D01*
X56151896Y-43632600D01*
X56151894Y-43632600D01*
X56013906Y-43632600D01*
X56013903Y-43632600D01*
X55878572Y-43659520D01*
X55878570Y-43659520D01*
X55751091Y-43712323D01*
X55636360Y-43788983D01*
X55538783Y-43886560D01*
X55462123Y-44001291D01*
X55409320Y-44128770D01*
X55409320Y-44128772D01*
X55382400Y-44264103D01*
X20576553Y-44264103D01*
X25457214Y-39383443D01*
X36765161Y-28075496D01*
X36819678Y-28047719D01*
X36835165Y-28046500D01*
X44342107Y-28046500D01*
X44480093Y-28046500D01*
X44766135Y-28046500D01*
X44824326Y-28065407D01*
X44836139Y-28075496D01*
X50472983Y-33712340D01*
X50500760Y-33766857D01*
X50501979Y-33782344D01*
X50501979Y-34355512D01*
X50504832Y-34385932D01*
X50504834Y-34385941D01*
X50549686Y-34514121D01*
X50630324Y-34623382D01*
X50630326Y-34623384D01*
X50630329Y-34623388D01*
X50630332Y-34623390D01*
X50630334Y-34623392D01*
X50739595Y-34704030D01*
X50739596Y-34704030D01*
X50739597Y-34704031D01*
X50867780Y-34748884D01*
X50898204Y-34751737D01*
X50898206Y-34751738D01*
X50898213Y-34751738D01*
X52106752Y-34751738D01*
X52106752Y-34751737D01*
X52137178Y-34748884D01*
X52265361Y-34704031D01*
X52374629Y-34623388D01*
X52455272Y-34514120D01*
X52500125Y-34385937D01*
X52502978Y-34355511D01*
X52502979Y-34355511D01*
X52502979Y-33146965D01*
X52502978Y-33146963D01*
X52500125Y-33116543D01*
X52500125Y-33116539D01*
X52455272Y-32988356D01*
X52374629Y-32879088D01*
X52374625Y-32879085D01*
X52374623Y-32879083D01*
X52265362Y-32798445D01*
X52137182Y-32753593D01*
X52137173Y-32753591D01*
X52106753Y-32750738D01*
X52106745Y-32750738D01*
X51533703Y-32750738D01*
X51475512Y-32731831D01*
X51463699Y-32721742D01*
X48535143Y-29793186D01*
X45543843Y-26801886D01*
X45429111Y-26725225D01*
X45429110Y-26725224D01*
X45429108Y-26725223D01*
X45301629Y-26672420D01*
X45191285Y-26650471D01*
X45137902Y-26620574D01*
X45112286Y-26565009D01*
X45111600Y-26553373D01*
X45111600Y-25033108D01*
X45111599Y-25033104D01*
X45084680Y-24897772D01*
X45031875Y-24770289D01*
X45031874Y-24770287D01*
X45031871Y-24770282D01*
X44955214Y-24655558D01*
X44857641Y-24557985D01*
X44742917Y-24481328D01*
X44742906Y-24481322D01*
X44615428Y-24428520D01*
X44480095Y-24401600D01*
X44480093Y-24401600D01*
X44342107Y-24401600D01*
X44342104Y-24401600D01*
X44206772Y-24428520D01*
X44206770Y-24428520D01*
X44079293Y-24481322D01*
X44079282Y-24481328D01*
X43964558Y-24557985D01*
X43866985Y-24655558D01*
X43790328Y-24770282D01*
X43790322Y-24770293D01*
X43737520Y-24897770D01*
X43737520Y-24897772D01*
X43710600Y-25033104D01*
X43710600Y-26546500D01*
X43691693Y-26604691D01*
X43642193Y-26640655D01*
X43611600Y-26645500D01*
X36435003Y-26645500D01*
X36299672Y-26672420D01*
X36299670Y-26672420D01*
X36172191Y-26725223D01*
X36057460Y-26801883D01*
X24983103Y-37876239D01*
X24928586Y-37904016D01*
X24868154Y-37894445D01*
X24843095Y-37876239D01*
X19050965Y-32084108D01*
X22049500Y-32084108D01*
X22049500Y-32215892D01*
X22065444Y-32275396D01*
X22083609Y-32343190D01*
X22149496Y-32457309D01*
X22149498Y-32457311D01*
X22149500Y-32457314D01*
X22242686Y-32550500D01*
X22242688Y-32550501D01*
X22242690Y-32550503D01*
X22356810Y-32616390D01*
X22356808Y-32616390D01*
X22356812Y-32616391D01*
X22356814Y-32616392D01*
X22484108Y-32650500D01*
X22484110Y-32650500D01*
X22615890Y-32650500D01*
X22615892Y-32650500D01*
X22743186Y-32616392D01*
X22743188Y-32616390D01*
X22743190Y-32616390D01*
X22857309Y-32550503D01*
X22857309Y-32550502D01*
X22857314Y-32550500D01*
X22950500Y-32457314D01*
X23016392Y-32343186D01*
X23050500Y-32215892D01*
X23050500Y-32084108D01*
X23016392Y-31956814D01*
X23016390Y-31956811D01*
X23016390Y-31956809D01*
X22950503Y-31842690D01*
X22950501Y-31842688D01*
X22950500Y-31842686D01*
X22857314Y-31749500D01*
X22857311Y-31749498D01*
X22857309Y-31749496D01*
X22743189Y-31683609D01*
X22743191Y-31683609D01*
X22663610Y-31662286D01*
X22615892Y-31649500D01*
X22484108Y-31649500D01*
X22436390Y-31662286D01*
X22356809Y-31683609D01*
X22242690Y-31749496D01*
X22149496Y-31842690D01*
X22083609Y-31956809D01*
X22083608Y-31956814D01*
X22049500Y-32084108D01*
X19050965Y-32084108D01*
X18629143Y-31662286D01*
X18610007Y-31649500D01*
X18514408Y-31585623D01*
X18386928Y-31532820D01*
X18251596Y-31505900D01*
X18251594Y-31505900D01*
X18113606Y-31505900D01*
X18113603Y-31505900D01*
X17978272Y-31532820D01*
X17978270Y-31532820D01*
X17850791Y-31585623D01*
X17736060Y-31662283D01*
X17638483Y-31759860D01*
X17561823Y-31874591D01*
X17509020Y-32002070D01*
X17509020Y-32002072D01*
X17482100Y-32137403D01*
X17482100Y-32275396D01*
X17509020Y-32410727D01*
X17509020Y-32410729D01*
X17561823Y-32538208D01*
X17636853Y-32650500D01*
X17638486Y-32652943D01*
X22861783Y-37876239D01*
X23852439Y-38866895D01*
X23880216Y-38921412D01*
X23870645Y-38981844D01*
X23852439Y-39006903D01*
X10688837Y-52170504D01*
X10634320Y-52198281D01*
X10618833Y-52199500D01*
X9245734Y-52199500D01*
X9215305Y-52202353D01*
X9087114Y-52247208D01*
X8977855Y-52327845D01*
X8977845Y-52327855D01*
X8897208Y-52437114D01*
X8852353Y-52565305D01*
X8849500Y-52595726D01*
X500500Y-52595726D01*
X500500Y-26978108D01*
X3689500Y-26978108D01*
X3689500Y-27109892D01*
X3695855Y-27133608D01*
X3723609Y-27237190D01*
X3789496Y-27351309D01*
X3789498Y-27351311D01*
X3789500Y-27351314D01*
X3882686Y-27444500D01*
X3882688Y-27444501D01*
X3882690Y-27444503D01*
X3996810Y-27510390D01*
X3996808Y-27510390D01*
X3996812Y-27510391D01*
X3996814Y-27510392D01*
X4124108Y-27544500D01*
X4124110Y-27544500D01*
X4255890Y-27544500D01*
X4255892Y-27544500D01*
X4383186Y-27510392D01*
X4383188Y-27510390D01*
X4383190Y-27510390D01*
X4497309Y-27444503D01*
X4497309Y-27444502D01*
X4497314Y-27444500D01*
X4590500Y-27351314D01*
X4634849Y-27274500D01*
X4656390Y-27237190D01*
X4656390Y-27237188D01*
X4656392Y-27237186D01*
X4690500Y-27109892D01*
X4690500Y-27044833D01*
X4709407Y-26986642D01*
X4719490Y-26974835D01*
X8453211Y-23241113D01*
X8453215Y-23241111D01*
X8461360Y-23232965D01*
X8461362Y-23232965D01*
X8515342Y-23178984D01*
X8569856Y-23151208D01*
X8630288Y-23160779D01*
X8634835Y-23163247D01*
X8695014Y-23197992D01*
X8822308Y-23232100D01*
X8822310Y-23232100D01*
X8954090Y-23232100D01*
X8954092Y-23232100D01*
X9081386Y-23197992D01*
X9081388Y-23197990D01*
X9081390Y-23197990D01*
X9195509Y-23132103D01*
X9195510Y-23132102D01*
X9195514Y-23132100D01*
X9218132Y-23109482D01*
X9241519Y-23086096D01*
X9296036Y-23058319D01*
X9311522Y-23057100D01*
X9807851Y-23057100D01*
X9807853Y-23057100D01*
X9890639Y-23034918D01*
X9890641Y-23034916D01*
X9890643Y-23034916D01*
X9964857Y-22992068D01*
X9964857Y-22992067D01*
X9964862Y-22992065D01*
X14662630Y-18294295D01*
X14717147Y-18266519D01*
X14732634Y-18265300D01*
X15279665Y-18265300D01*
X15337856Y-18284207D01*
X15349669Y-18294296D01*
X17388386Y-20333012D01*
X17416163Y-20387529D01*
X17406592Y-20447961D01*
X17363327Y-20491226D01*
X17344006Y-20498642D01*
X17330066Y-20502377D01*
X17306809Y-20508609D01*
X17192690Y-20574496D01*
X17192684Y-20574500D01*
X17146681Y-20620504D01*
X17092164Y-20648281D01*
X17076678Y-20649500D01*
X13548932Y-20649500D01*
X13548916Y-20649499D01*
X13542853Y-20649499D01*
X13457147Y-20649499D01*
X13457144Y-20649499D01*
X13374361Y-20671681D01*
X13374360Y-20671681D01*
X13341123Y-20690872D01*
X13300136Y-20714535D01*
X13239534Y-20775137D01*
X13239535Y-20775138D01*
X13239533Y-20775140D01*
X5589535Y-28425138D01*
X5546682Y-28499361D01*
X5546682Y-28499362D01*
X5546679Y-28499367D01*
X5542533Y-28514845D01*
X5542533Y-28514846D01*
X5524500Y-28582147D01*
X5524500Y-29176678D01*
X5505593Y-29234869D01*
X5495504Y-29246681D01*
X5449500Y-29292684D01*
X5449496Y-29292690D01*
X5383609Y-29406809D01*
X5379705Y-29421381D01*
X5349500Y-29534108D01*
X5349500Y-29665892D01*
X5379579Y-29778151D01*
X5383609Y-29793190D01*
X5449496Y-29907309D01*
X5449498Y-29907311D01*
X5449500Y-29907314D01*
X5542686Y-30000500D01*
X5542688Y-30000501D01*
X5542690Y-30000503D01*
X5656810Y-30066390D01*
X5656808Y-30066390D01*
X5656812Y-30066391D01*
X5656814Y-30066392D01*
X5784108Y-30100500D01*
X5784110Y-30100500D01*
X5915890Y-30100500D01*
X5915892Y-30100500D01*
X6043186Y-30066392D01*
X6043188Y-30066390D01*
X6043190Y-30066390D01*
X6157309Y-30000503D01*
X6157309Y-30000502D01*
X6157314Y-30000500D01*
X6250500Y-29907314D01*
X6287522Y-29843190D01*
X6316390Y-29793190D01*
X6316390Y-29793188D01*
X6316392Y-29793186D01*
X6350500Y-29665892D01*
X6350500Y-29534108D01*
X6316392Y-29406814D01*
X6316390Y-29406811D01*
X6316390Y-29406809D01*
X6250503Y-29292690D01*
X6250499Y-29292684D01*
X6204496Y-29246681D01*
X6176719Y-29192164D01*
X6175500Y-29176678D01*
X6175500Y-28800834D01*
X6194407Y-28742643D01*
X6204496Y-28730830D01*
X13605830Y-21329496D01*
X13660347Y-21301719D01*
X13675834Y-21300500D01*
X14925166Y-21300500D01*
X14983357Y-21319407D01*
X15019321Y-21368907D01*
X15019321Y-21430093D01*
X14995171Y-21469501D01*
X12432359Y-24032314D01*
X9889532Y-26575141D01*
X9889531Y-26575142D01*
X9846684Y-26649355D01*
X9826813Y-26723516D01*
X9826811Y-26723521D01*
X9824500Y-26732143D01*
X9824500Y-29226678D01*
X9805593Y-29284869D01*
X9795504Y-29296681D01*
X9749500Y-29342684D01*
X9749496Y-29342690D01*
X9683609Y-29456809D01*
X9683608Y-29456814D01*
X9649500Y-29584108D01*
X9649500Y-29715892D01*
X9670211Y-29793186D01*
X9683609Y-29843190D01*
X9749496Y-29957309D01*
X9749498Y-29957311D01*
X9749500Y-29957314D01*
X9842686Y-30050500D01*
X9842688Y-30050501D01*
X9842690Y-30050503D01*
X9956810Y-30116390D01*
X9956808Y-30116390D01*
X9956812Y-30116391D01*
X9956814Y-30116392D01*
X10084108Y-30150500D01*
X10084110Y-30150500D01*
X10215890Y-30150500D01*
X10215892Y-30150500D01*
X10343186Y-30116392D01*
X10343188Y-30116390D01*
X10343190Y-30116390D01*
X10457309Y-30050503D01*
X10457309Y-30050502D01*
X10457314Y-30050500D01*
X10550500Y-29957314D01*
X10579368Y-29907314D01*
X10616390Y-29843190D01*
X10616390Y-29843188D01*
X10616392Y-29843186D01*
X10650500Y-29715892D01*
X10650500Y-29584108D01*
X10616392Y-29456814D01*
X10616390Y-29456811D01*
X10616390Y-29456809D01*
X10550503Y-29342690D01*
X10550499Y-29342684D01*
X10504496Y-29296681D01*
X10476719Y-29242164D01*
X10475500Y-29226678D01*
X10475500Y-26950835D01*
X10494407Y-26892644D01*
X10504496Y-26880831D01*
X15405831Y-21979496D01*
X15460348Y-21951719D01*
X15475835Y-21950500D01*
X17676678Y-21950500D01*
X17734869Y-21969407D01*
X17746681Y-21979496D01*
X17792684Y-22025499D01*
X17792690Y-22025503D01*
X17906810Y-22091390D01*
X17906811Y-22091390D01*
X17906814Y-22091392D01*
X17906816Y-22091392D01*
X17911249Y-22093229D01*
X17957777Y-22132963D01*
X17972064Y-22192457D01*
X17948653Y-22248986D01*
X17943373Y-22254699D01*
X16902569Y-23295504D01*
X16848052Y-23323281D01*
X16832565Y-23324500D01*
X16303322Y-23324500D01*
X16245131Y-23305593D01*
X16233319Y-23295504D01*
X16187315Y-23249500D01*
X16187309Y-23249496D01*
X16073189Y-23183609D01*
X16073191Y-23183609D01*
X16023799Y-23170375D01*
X15945892Y-23149500D01*
X15814108Y-23149500D01*
X15736200Y-23170375D01*
X15686809Y-23183609D01*
X15572690Y-23249496D01*
X15479496Y-23342690D01*
X15413609Y-23456809D01*
X15413608Y-23456814D01*
X15379500Y-23584108D01*
X15379500Y-23715892D01*
X15401148Y-23796683D01*
X15413609Y-23843190D01*
X15479496Y-23957309D01*
X15479498Y-23957311D01*
X15479500Y-23957314D01*
X15525505Y-24003319D01*
X15553281Y-24057834D01*
X15554500Y-24073321D01*
X15554500Y-24457147D01*
X15554500Y-24542853D01*
X15557284Y-24553242D01*
X15576683Y-24625643D01*
X15619531Y-24699857D01*
X15619533Y-24699859D01*
X15619535Y-24699862D01*
X18780138Y-27860465D01*
X18780140Y-27860466D01*
X18780142Y-27860468D01*
X18854357Y-27903316D01*
X18854355Y-27903316D01*
X18854359Y-27903317D01*
X18854361Y-27903318D01*
X18937147Y-27925500D01*
X19926678Y-27925500D01*
X19984869Y-27944407D01*
X19996681Y-27954496D01*
X20042684Y-28000499D01*
X20042690Y-28000503D01*
X20156810Y-28066390D01*
X20156808Y-28066390D01*
X20156812Y-28066391D01*
X20156814Y-28066392D01*
X20284108Y-28100500D01*
X20284110Y-28100500D01*
X20415890Y-28100500D01*
X20415892Y-28100500D01*
X20543186Y-28066392D01*
X20543188Y-28066390D01*
X20543190Y-28066390D01*
X20657309Y-28000503D01*
X20657309Y-28000502D01*
X20657314Y-28000500D01*
X20750500Y-27907314D01*
X20777547Y-27860468D01*
X20816390Y-27793190D01*
X20816390Y-27793188D01*
X20816392Y-27793186D01*
X20850500Y-27665892D01*
X20850500Y-27534108D01*
X20816392Y-27406814D01*
X20816390Y-27406811D01*
X20816390Y-27406809D01*
X20750503Y-27292690D01*
X20750501Y-27292688D01*
X20750500Y-27292686D01*
X20657314Y-27199500D01*
X20657311Y-27199498D01*
X20657309Y-27199496D01*
X20543189Y-27133609D01*
X20543191Y-27133609D01*
X20493799Y-27120375D01*
X20415892Y-27099500D01*
X20284108Y-27099500D01*
X20206200Y-27120375D01*
X20156809Y-27133609D01*
X20042690Y-27199496D01*
X20042684Y-27199500D01*
X19996681Y-27245504D01*
X19942164Y-27273281D01*
X19926678Y-27274500D01*
X19155835Y-27274500D01*
X19097644Y-27255593D01*
X19085831Y-27245504D01*
X16234496Y-24394169D01*
X16206719Y-24339652D01*
X16205500Y-24324165D01*
X16205500Y-24074500D01*
X16218624Y-24034108D01*
X18179500Y-24034108D01*
X18179500Y-24165892D01*
X18209579Y-24278151D01*
X18213609Y-24293190D01*
X18279496Y-24407309D01*
X18279498Y-24407311D01*
X18279500Y-24407314D01*
X18372686Y-24500500D01*
X18372688Y-24500501D01*
X18372690Y-24500503D01*
X18486810Y-24566390D01*
X18486808Y-24566390D01*
X18486812Y-24566391D01*
X18486814Y-24566392D01*
X18614108Y-24600500D01*
X18614110Y-24600500D01*
X18745890Y-24600500D01*
X18745892Y-24600500D01*
X18873186Y-24566392D01*
X18873188Y-24566390D01*
X18873190Y-24566390D01*
X18987309Y-24500503D01*
X18987310Y-24500502D01*
X18987314Y-24500500D01*
X19006492Y-24481322D01*
X19033319Y-24454496D01*
X19087836Y-24426719D01*
X19103322Y-24425500D01*
X23174165Y-24425500D01*
X23232356Y-24444407D01*
X23244169Y-24454496D01*
X23421209Y-24631536D01*
X23448986Y-24686053D01*
X23439415Y-24746485D01*
X23436947Y-24751029D01*
X23433608Y-24756814D01*
X23399500Y-24884108D01*
X23399500Y-25015892D01*
X23404112Y-25033104D01*
X23433609Y-25143190D01*
X23499496Y-25257309D01*
X23499498Y-25257311D01*
X23499500Y-25257314D01*
X23592686Y-25350500D01*
X23592688Y-25350501D01*
X23592690Y-25350503D01*
X23706810Y-25416390D01*
X23706808Y-25416390D01*
X23706812Y-25416391D01*
X23706814Y-25416392D01*
X23834108Y-25450500D01*
X23834110Y-25450500D01*
X23965890Y-25450500D01*
X23965892Y-25450500D01*
X24093186Y-25416392D01*
X24164200Y-25375391D01*
X24224047Y-25362670D01*
X24279943Y-25387556D01*
X24310536Y-25440544D01*
X24312700Y-25461128D01*
X24312700Y-27712165D01*
X24293793Y-27770356D01*
X24283704Y-27782169D01*
X23053331Y-29012542D01*
X23010483Y-29086756D01*
X22988300Y-29169548D01*
X22988300Y-29351378D01*
X22969393Y-29409569D01*
X22959304Y-29421381D01*
X22913300Y-29467384D01*
X22913296Y-29467390D01*
X22847409Y-29581509D01*
X22828339Y-29652678D01*
X22813300Y-29708808D01*
X22813300Y-29840592D01*
X22831177Y-29907309D01*
X22847409Y-29967890D01*
X22913296Y-30082009D01*
X22913298Y-30082011D01*
X22913300Y-30082014D01*
X23006486Y-30175200D01*
X23006488Y-30175201D01*
X23006490Y-30175203D01*
X23120610Y-30241090D01*
X23120608Y-30241090D01*
X23120612Y-30241091D01*
X23120614Y-30241092D01*
X23247908Y-30275200D01*
X23247910Y-30275200D01*
X23379690Y-30275200D01*
X23379692Y-30275200D01*
X23506986Y-30241092D01*
X23506988Y-30241090D01*
X23506990Y-30241090D01*
X23621109Y-30175203D01*
X23621109Y-30175202D01*
X23621114Y-30175200D01*
X23714300Y-30082014D01*
X23714303Y-30082009D01*
X23780190Y-29967890D01*
X23780190Y-29967888D01*
X23780192Y-29967886D01*
X23814300Y-29840592D01*
X23814300Y-29708808D01*
X23780192Y-29581514D01*
X23780190Y-29581511D01*
X23780190Y-29581509D01*
X23714303Y-29467390D01*
X23714298Y-29467384D01*
X23686723Y-29439808D01*
X23658947Y-29385291D01*
X23668519Y-29324860D01*
X23686721Y-29299805D01*
X24241198Y-28745327D01*
X24295713Y-28717552D01*
X24356145Y-28727123D01*
X24396936Y-28765832D01*
X24454197Y-28865009D01*
X24454200Y-28865014D01*
X24547386Y-28958200D01*
X24547388Y-28958201D01*
X24547390Y-28958203D01*
X24661510Y-29024090D01*
X24661508Y-29024090D01*
X24661512Y-29024091D01*
X24661514Y-29024092D01*
X24788808Y-29058200D01*
X24788810Y-29058200D01*
X24920590Y-29058200D01*
X24920592Y-29058200D01*
X25047886Y-29024092D01*
X25047888Y-29024090D01*
X25047890Y-29024090D01*
X25162009Y-28958203D01*
X25162009Y-28958202D01*
X25162014Y-28958200D01*
X25255200Y-28865014D01*
X25255203Y-28865009D01*
X25321090Y-28750890D01*
X25321090Y-28750888D01*
X25321092Y-28750886D01*
X25355200Y-28623592D01*
X25355200Y-28558532D01*
X25374107Y-28500341D01*
X25384191Y-28488534D01*
X25485459Y-28387266D01*
X25485462Y-28387265D01*
X25546065Y-28326662D01*
X25588918Y-28252438D01*
X25592996Y-28237220D01*
X25611101Y-28169653D01*
X25611101Y-28083947D01*
X25611101Y-28077885D01*
X25611100Y-28077867D01*
X25611100Y-20169248D01*
X25611100Y-20169247D01*
X25588918Y-20086462D01*
X25588918Y-20086461D01*
X25588918Y-20086460D01*
X25546068Y-20012242D01*
X25546067Y-20012241D01*
X25546066Y-20012240D01*
X25546065Y-20012238D01*
X23592296Y-18058469D01*
X23564519Y-18003952D01*
X23563300Y-17988465D01*
X23563300Y-17923409D01*
X23555649Y-17894855D01*
X23529192Y-17796114D01*
X23529190Y-17796111D01*
X23529190Y-17796109D01*
X23463303Y-17681990D01*
X23463301Y-17681988D01*
X23463300Y-17681986D01*
X23370114Y-17588800D01*
X23370111Y-17588798D01*
X23370109Y-17588796D01*
X23255989Y-17522909D01*
X23255991Y-17522909D01*
X23206599Y-17509675D01*
X23128692Y-17488800D01*
X22996908Y-17488800D01*
X22919000Y-17509675D01*
X22869609Y-17522909D01*
X22755490Y-17588796D01*
X22662296Y-17681990D01*
X22596409Y-17796109D01*
X22596408Y-17796114D01*
X22562300Y-17923408D01*
X22562300Y-18055192D01*
X22592379Y-18167451D01*
X22596409Y-18182490D01*
X22662296Y-18296609D01*
X22662298Y-18296611D01*
X22662300Y-18296614D01*
X22755486Y-18389800D01*
X22755488Y-18389801D01*
X22755490Y-18389803D01*
X22869610Y-18455690D01*
X22869608Y-18455690D01*
X22869612Y-18455691D01*
X22869614Y-18455692D01*
X22996908Y-18489800D01*
X23061965Y-18489800D01*
X23120156Y-18508707D01*
X23131969Y-18518796D01*
X24931104Y-20317931D01*
X24958881Y-20372448D01*
X24960100Y-20387935D01*
X24960100Y-21095877D01*
X24941193Y-21154068D01*
X24891693Y-21190032D01*
X24835478Y-21191504D01*
X24727130Y-21162473D01*
X24704092Y-21156300D01*
X24572308Y-21156300D01*
X24532670Y-21166921D01*
X24445009Y-21190409D01*
X24330890Y-21256296D01*
X24237696Y-21349490D01*
X24171809Y-21463609D01*
X24161351Y-21502640D01*
X24137700Y-21590908D01*
X24137700Y-21722692D01*
X24152568Y-21778181D01*
X24171809Y-21849990D01*
X24237696Y-21964109D01*
X24237698Y-21964111D01*
X24237700Y-21964114D01*
X24283705Y-22010119D01*
X24311481Y-22064634D01*
X24312700Y-22080121D01*
X24312700Y-24363365D01*
X24293793Y-24421556D01*
X24244293Y-24457520D01*
X24183107Y-24457520D01*
X24143696Y-24433369D01*
X24099862Y-24389535D01*
X23876217Y-24165890D01*
X23549862Y-23839535D01*
X23549859Y-23839533D01*
X23549858Y-23839532D01*
X23549857Y-23839531D01*
X23475642Y-23796683D01*
X23475644Y-23796683D01*
X23443521Y-23788076D01*
X23392853Y-23774500D01*
X23392851Y-23774500D01*
X19103322Y-23774500D01*
X19045131Y-23755593D01*
X19033319Y-23745504D01*
X18987315Y-23699500D01*
X18987309Y-23699496D01*
X18873189Y-23633609D01*
X18873191Y-23633609D01*
X18823799Y-23620375D01*
X18745892Y-23599500D01*
X18614108Y-23599500D01*
X18536200Y-23620375D01*
X18486809Y-23633609D01*
X18372690Y-23699496D01*
X18279496Y-23792690D01*
X18213609Y-23906809D01*
X18204211Y-23941883D01*
X18179500Y-24034108D01*
X16218624Y-24034108D01*
X16224407Y-24016309D01*
X16273907Y-23980345D01*
X16304500Y-23975500D01*
X17051251Y-23975500D01*
X17051253Y-23975500D01*
X17134039Y-23953318D01*
X17208262Y-23910465D01*
X19024965Y-22093762D01*
X19026333Y-22091392D01*
X19067818Y-22019538D01*
X19090000Y-21936753D01*
X19090000Y-21299640D01*
X19090001Y-21299627D01*
X19090001Y-21205946D01*
X19090000Y-21205944D01*
X19085837Y-21190409D01*
X19067818Y-21123161D01*
X19033707Y-21064080D01*
X19024965Y-21048938D01*
X18964362Y-20988335D01*
X18964359Y-20988333D01*
X15985830Y-18009804D01*
X15958053Y-17955287D01*
X15967624Y-17894855D01*
X15985830Y-17869796D01*
X16366826Y-17488800D01*
X17513565Y-16342062D01*
X17556418Y-16267838D01*
X17578600Y-16185053D01*
X17578600Y-15663847D01*
X17562582Y-15604065D01*
X17562582Y-15604064D01*
X17562582Y-15604063D01*
X17556417Y-15581059D01*
X17556416Y-15581057D01*
X17513568Y-15506842D01*
X17513564Y-15506837D01*
X17244496Y-15237768D01*
X17216719Y-15183252D01*
X17215500Y-15167765D01*
X17215500Y-13780139D01*
X17234407Y-13721948D01*
X17283907Y-13685984D01*
X17345093Y-13685984D01*
X17384501Y-13710133D01*
X17490345Y-13815977D01*
X17662402Y-13930941D01*
X17853580Y-14010130D01*
X18056535Y-14050500D01*
X18056536Y-14050500D01*
X18263464Y-14050500D01*
X18263465Y-14050500D01*
X18466420Y-14010130D01*
X18657598Y-13930941D01*
X18829655Y-13815977D01*
X18975977Y-13669655D01*
X19090941Y-13497598D01*
X19170130Y-13306420D01*
X19210500Y-13103465D01*
X19210500Y-12896535D01*
X19210499Y-12896532D01*
X19649500Y-12896532D01*
X19649500Y-13103467D01*
X19689869Y-13306418D01*
X19769058Y-13497597D01*
X19769059Y-13497598D01*
X19884023Y-13669655D01*
X20030345Y-13815977D01*
X20202402Y-13930941D01*
X20393580Y-14010130D01*
X20596535Y-14050500D01*
X20596536Y-14050500D01*
X20803464Y-14050500D01*
X20803465Y-14050500D01*
X21006420Y-14010130D01*
X21197598Y-13930941D01*
X21369655Y-13815977D01*
X21515977Y-13669655D01*
X21630941Y-13497598D01*
X21710130Y-13306420D01*
X21750500Y-13103465D01*
X21750500Y-12896535D01*
X21750499Y-12896532D01*
X24729500Y-12896532D01*
X24729500Y-13103467D01*
X24769869Y-13306418D01*
X24849058Y-13497597D01*
X24849059Y-13497598D01*
X24964023Y-13669655D01*
X25110345Y-13815977D01*
X25282402Y-13930941D01*
X25473580Y-14010130D01*
X25676535Y-14050500D01*
X25676536Y-14050500D01*
X25883464Y-14050500D01*
X25883465Y-14050500D01*
X26086420Y-14010130D01*
X26277598Y-13930941D01*
X26449655Y-13815977D01*
X26595977Y-13669655D01*
X26710941Y-13497598D01*
X26790130Y-13306420D01*
X26830500Y-13103465D01*
X26830500Y-12896535D01*
X26830499Y-12896532D01*
X27269500Y-12896532D01*
X27269500Y-13103467D01*
X27309869Y-13306418D01*
X27389058Y-13497597D01*
X27389059Y-13497598D01*
X27504023Y-13669655D01*
X27650345Y-13815977D01*
X27822402Y-13930941D01*
X28013580Y-14010130D01*
X28216535Y-14050500D01*
X28216536Y-14050500D01*
X28423464Y-14050500D01*
X28423465Y-14050500D01*
X28626420Y-14010130D01*
X28817598Y-13930941D01*
X28989655Y-13815977D01*
X29135977Y-13669655D01*
X29250941Y-13497598D01*
X29330130Y-13306420D01*
X29370500Y-13103465D01*
X29370500Y-12896535D01*
X29370499Y-12896532D01*
X29809500Y-12896532D01*
X29809500Y-13103467D01*
X29849869Y-13306418D01*
X29929058Y-13497597D01*
X29929059Y-13497598D01*
X30044023Y-13669655D01*
X30190345Y-13815977D01*
X30362402Y-13930941D01*
X30553580Y-14010130D01*
X30756535Y-14050500D01*
X30756536Y-14050500D01*
X30963464Y-14050500D01*
X30963465Y-14050500D01*
X31166420Y-14010130D01*
X31357598Y-13930941D01*
X31529655Y-13815977D01*
X31675977Y-13669655D01*
X31790941Y-13497598D01*
X31870130Y-13306420D01*
X31910500Y-13103465D01*
X31910500Y-12896535D01*
X31910499Y-12896532D01*
X32349500Y-12896532D01*
X32349500Y-13103467D01*
X32389869Y-13306418D01*
X32469058Y-13497597D01*
X32469059Y-13497598D01*
X32584023Y-13669655D01*
X32730345Y-13815977D01*
X32902402Y-13930941D01*
X33093580Y-14010130D01*
X33296535Y-14050500D01*
X33296536Y-14050500D01*
X33503464Y-14050500D01*
X33503465Y-14050500D01*
X33706420Y-14010130D01*
X33897598Y-13930941D01*
X34069655Y-13815977D01*
X34215977Y-13669655D01*
X34330941Y-13497598D01*
X34410130Y-13306420D01*
X34450500Y-13103465D01*
X34450500Y-12896535D01*
X34450499Y-12896532D01*
X37429500Y-12896532D01*
X37429500Y-13103467D01*
X37469869Y-13306418D01*
X37549058Y-13497597D01*
X37549059Y-13497598D01*
X37664023Y-13669655D01*
X37810345Y-13815977D01*
X37982402Y-13930941D01*
X38173580Y-14010130D01*
X38376535Y-14050500D01*
X38376536Y-14050500D01*
X38583464Y-14050500D01*
X38583465Y-14050500D01*
X38786420Y-14010130D01*
X38977598Y-13930941D01*
X39149655Y-13815977D01*
X39295977Y-13669655D01*
X39410941Y-13497598D01*
X39490130Y-13306420D01*
X39530500Y-13103465D01*
X39530500Y-12896535D01*
X39530499Y-12896532D01*
X39969500Y-12896532D01*
X39969500Y-13103467D01*
X40009869Y-13306418D01*
X40089058Y-13497597D01*
X40089059Y-13497598D01*
X40204023Y-13669655D01*
X40350345Y-13815977D01*
X40522402Y-13930941D01*
X40713580Y-14010130D01*
X40916535Y-14050500D01*
X40916536Y-14050500D01*
X41123464Y-14050500D01*
X41123465Y-14050500D01*
X41326420Y-14010130D01*
X41517598Y-13930941D01*
X41689655Y-13815977D01*
X41835977Y-13669655D01*
X41950941Y-13497598D01*
X42030130Y-13306420D01*
X42070500Y-13103465D01*
X42070500Y-12896535D01*
X42070499Y-12896532D01*
X42509500Y-12896532D01*
X42509500Y-13103467D01*
X42549869Y-13306418D01*
X42629058Y-13497597D01*
X42629059Y-13497598D01*
X42744023Y-13669655D01*
X42890345Y-13815977D01*
X43062402Y-13930941D01*
X43253580Y-14010130D01*
X43456535Y-14050500D01*
X43456536Y-14050500D01*
X43663464Y-14050500D01*
X43663465Y-14050500D01*
X43866420Y-14010130D01*
X44057598Y-13930941D01*
X44229655Y-13815977D01*
X44375977Y-13669655D01*
X44490941Y-13497598D01*
X44570130Y-13306420D01*
X44610500Y-13103465D01*
X44610500Y-12896535D01*
X44610499Y-12896532D01*
X45049500Y-12896532D01*
X45049500Y-13103467D01*
X45089869Y-13306418D01*
X45169058Y-13497597D01*
X45169059Y-13497598D01*
X45284023Y-13669655D01*
X45430345Y-13815977D01*
X45602402Y-13930941D01*
X45793580Y-14010130D01*
X45996535Y-14050500D01*
X45996536Y-14050500D01*
X46203464Y-14050500D01*
X46203465Y-14050500D01*
X46406420Y-14010130D01*
X46597598Y-13930941D01*
X46769655Y-13815977D01*
X46915977Y-13669655D01*
X47030941Y-13497598D01*
X47110130Y-13306420D01*
X47150500Y-13103465D01*
X47150500Y-12896535D01*
X47150499Y-12896532D01*
X50129500Y-12896532D01*
X50129500Y-13103467D01*
X50169869Y-13306418D01*
X50249058Y-13497597D01*
X50249059Y-13497598D01*
X50364023Y-13669655D01*
X50510345Y-13815977D01*
X50682402Y-13930941D01*
X50873580Y-14010130D01*
X51076535Y-14050500D01*
X51076536Y-14050500D01*
X51283464Y-14050500D01*
X51283465Y-14050500D01*
X51486420Y-14010130D01*
X51677598Y-13930941D01*
X51849655Y-13815977D01*
X51995977Y-13669655D01*
X52110941Y-13497598D01*
X52190130Y-13306420D01*
X52230500Y-13103465D01*
X52230500Y-12896535D01*
X52230499Y-12896532D01*
X52669500Y-12896532D01*
X52669500Y-13103467D01*
X52709869Y-13306418D01*
X52789058Y-13497597D01*
X52789059Y-13497598D01*
X52904023Y-13669655D01*
X53050345Y-13815977D01*
X53222402Y-13930941D01*
X53413580Y-14010130D01*
X53616535Y-14050500D01*
X53616536Y-14050500D01*
X53823464Y-14050500D01*
X53823465Y-14050500D01*
X54026420Y-14010130D01*
X54217598Y-13930941D01*
X54389655Y-13815977D01*
X54535977Y-13669655D01*
X54650941Y-13497598D01*
X54730130Y-13306420D01*
X54770500Y-13103465D01*
X54770500Y-12896535D01*
X54770499Y-12896532D01*
X55209500Y-12896532D01*
X55209500Y-13103467D01*
X55249869Y-13306418D01*
X55329058Y-13497597D01*
X55329059Y-13497598D01*
X55444023Y-13669655D01*
X55590345Y-13815977D01*
X55762402Y-13930941D01*
X55953580Y-14010130D01*
X56156535Y-14050500D01*
X56156536Y-14050500D01*
X56363464Y-14050500D01*
X56363465Y-14050500D01*
X56566420Y-14010130D01*
X56757598Y-13930941D01*
X56929655Y-13815977D01*
X57075977Y-13669655D01*
X57190941Y-13497598D01*
X57270130Y-13306420D01*
X57310500Y-13103465D01*
X57310500Y-12896535D01*
X57270130Y-12693580D01*
X57190941Y-12502402D01*
X57075977Y-12330345D01*
X56929655Y-12184023D01*
X56849182Y-12130253D01*
X56757597Y-12069058D01*
X56566418Y-11989869D01*
X56363467Y-11949500D01*
X56363465Y-11949500D01*
X56156535Y-11949500D01*
X56156532Y-11949500D01*
X55953581Y-11989869D01*
X55762402Y-12069058D01*
X55590348Y-12184020D01*
X55444020Y-12330348D01*
X55329058Y-12502402D01*
X55249869Y-12693581D01*
X55209500Y-12896532D01*
X54770499Y-12896532D01*
X54730130Y-12693580D01*
X54650941Y-12502402D01*
X54535977Y-12330345D01*
X54389655Y-12184023D01*
X54309182Y-12130253D01*
X54217597Y-12069058D01*
X54026418Y-11989869D01*
X53823467Y-11949500D01*
X53823465Y-11949500D01*
X53616535Y-11949500D01*
X53616532Y-11949500D01*
X53413581Y-11989869D01*
X53222402Y-12069058D01*
X53050348Y-12184020D01*
X52904020Y-12330348D01*
X52789058Y-12502402D01*
X52709869Y-12693581D01*
X52669500Y-12896532D01*
X52230499Y-12896532D01*
X52190130Y-12693580D01*
X52110941Y-12502402D01*
X51995977Y-12330345D01*
X51849655Y-12184023D01*
X51769182Y-12130253D01*
X51677597Y-12069058D01*
X51486418Y-11989869D01*
X51283467Y-11949500D01*
X51283465Y-11949500D01*
X51076535Y-11949500D01*
X51076532Y-11949500D01*
X50873581Y-11989869D01*
X50682402Y-12069058D01*
X50510348Y-12184020D01*
X50364020Y-12330348D01*
X50249058Y-12502402D01*
X50169869Y-12693581D01*
X50129500Y-12896532D01*
X47150499Y-12896532D01*
X47110130Y-12693580D01*
X47030941Y-12502402D01*
X46915977Y-12330345D01*
X46769655Y-12184023D01*
X46689182Y-12130253D01*
X46597597Y-12069058D01*
X46406418Y-11989869D01*
X46203467Y-11949500D01*
X46203465Y-11949500D01*
X45996535Y-11949500D01*
X45996532Y-11949500D01*
X45793581Y-11989869D01*
X45602402Y-12069058D01*
X45430348Y-12184020D01*
X45284020Y-12330348D01*
X45169058Y-12502402D01*
X45089869Y-12693581D01*
X45049500Y-12896532D01*
X44610499Y-12896532D01*
X44570130Y-12693580D01*
X44490941Y-12502402D01*
X44375977Y-12330345D01*
X44229655Y-12184023D01*
X44149182Y-12130253D01*
X44057597Y-12069058D01*
X43866418Y-11989869D01*
X43663467Y-11949500D01*
X43663465Y-11949500D01*
X43456535Y-11949500D01*
X43456532Y-11949500D01*
X43253581Y-11989869D01*
X43062402Y-12069058D01*
X42890348Y-12184020D01*
X42744020Y-12330348D01*
X42629058Y-12502402D01*
X42549869Y-12693581D01*
X42509500Y-12896532D01*
X42070499Y-12896532D01*
X42030130Y-12693580D01*
X41950941Y-12502402D01*
X41835977Y-12330345D01*
X41689655Y-12184023D01*
X41609182Y-12130253D01*
X41517597Y-12069058D01*
X41326418Y-11989869D01*
X41123467Y-11949500D01*
X41123465Y-11949500D01*
X40916535Y-11949500D01*
X40916532Y-11949500D01*
X40713581Y-11989869D01*
X40522402Y-12069058D01*
X40350348Y-12184020D01*
X40204020Y-12330348D01*
X40089058Y-12502402D01*
X40009869Y-12693581D01*
X39969500Y-12896532D01*
X39530499Y-12896532D01*
X39490130Y-12693580D01*
X39410941Y-12502402D01*
X39295977Y-12330345D01*
X39149655Y-12184023D01*
X39069182Y-12130253D01*
X38977597Y-12069058D01*
X38786418Y-11989869D01*
X38583467Y-11949500D01*
X38583465Y-11949500D01*
X38376535Y-11949500D01*
X38376532Y-11949500D01*
X38173581Y-11989869D01*
X37982402Y-12069058D01*
X37810348Y-12184020D01*
X37664020Y-12330348D01*
X37549058Y-12502402D01*
X37469869Y-12693581D01*
X37429500Y-12896532D01*
X34450499Y-12896532D01*
X34410130Y-12693580D01*
X34330941Y-12502402D01*
X34215977Y-12330345D01*
X34069655Y-12184023D01*
X33989182Y-12130253D01*
X33897597Y-12069058D01*
X33706418Y-11989869D01*
X33503467Y-11949500D01*
X33503465Y-11949500D01*
X33296535Y-11949500D01*
X33296532Y-11949500D01*
X33093581Y-11989869D01*
X32902402Y-12069058D01*
X32730348Y-12184020D01*
X32584020Y-12330348D01*
X32469058Y-12502402D01*
X32389869Y-12693581D01*
X32349500Y-12896532D01*
X31910499Y-12896532D01*
X31870130Y-12693580D01*
X31790941Y-12502402D01*
X31675977Y-12330345D01*
X31529655Y-12184023D01*
X31449182Y-12130253D01*
X31357597Y-12069058D01*
X31166418Y-11989869D01*
X30963467Y-11949500D01*
X30963465Y-11949500D01*
X30756535Y-11949500D01*
X30756532Y-11949500D01*
X30553581Y-11989869D01*
X30362402Y-12069058D01*
X30190348Y-12184020D01*
X30044020Y-12330348D01*
X29929058Y-12502402D01*
X29849869Y-12693581D01*
X29809500Y-12896532D01*
X29370499Y-12896532D01*
X29330130Y-12693580D01*
X29250941Y-12502402D01*
X29135977Y-12330345D01*
X28989655Y-12184023D01*
X28909182Y-12130253D01*
X28817597Y-12069058D01*
X28626418Y-11989869D01*
X28423467Y-11949500D01*
X28423465Y-11949500D01*
X28216535Y-11949500D01*
X28216532Y-11949500D01*
X28013581Y-11989869D01*
X27822402Y-12069058D01*
X27650348Y-12184020D01*
X27504020Y-12330348D01*
X27389058Y-12502402D01*
X27309869Y-12693581D01*
X27269500Y-12896532D01*
X26830499Y-12896532D01*
X26790130Y-12693580D01*
X26710941Y-12502402D01*
X26595977Y-12330345D01*
X26449655Y-12184023D01*
X26369182Y-12130253D01*
X26277597Y-12069058D01*
X26086418Y-11989869D01*
X25883467Y-11949500D01*
X25883465Y-11949500D01*
X25676535Y-11949500D01*
X25676532Y-11949500D01*
X25473581Y-11989869D01*
X25282402Y-12069058D01*
X25110348Y-12184020D01*
X24964020Y-12330348D01*
X24849058Y-12502402D01*
X24769869Y-12693581D01*
X24729500Y-12896532D01*
X21750499Y-12896532D01*
X21710130Y-12693580D01*
X21630941Y-12502402D01*
X21515977Y-12330345D01*
X21369655Y-12184023D01*
X21289182Y-12130253D01*
X21197597Y-12069058D01*
X21006418Y-11989869D01*
X20803467Y-11949500D01*
X20803465Y-11949500D01*
X20596535Y-11949500D01*
X20596532Y-11949500D01*
X20393581Y-11989869D01*
X20202402Y-12069058D01*
X20030348Y-12184020D01*
X19884020Y-12330348D01*
X19769058Y-12502402D01*
X19689869Y-12693581D01*
X19649500Y-12896532D01*
X19210499Y-12896532D01*
X19170130Y-12693580D01*
X19090941Y-12502402D01*
X18975977Y-12330345D01*
X18829655Y-12184023D01*
X18749182Y-12130253D01*
X18657597Y-12069058D01*
X18466418Y-11989869D01*
X18263467Y-11949500D01*
X18263465Y-11949500D01*
X18056535Y-11949500D01*
X18056532Y-11949500D01*
X17853581Y-11989869D01*
X17662402Y-12069058D01*
X17490348Y-12184020D01*
X17490345Y-12184022D01*
X17490345Y-12184023D01*
X17384501Y-12289866D01*
X17329987Y-12317642D01*
X17269555Y-12308071D01*
X17226290Y-12264806D01*
X17215500Y-12219861D01*
X17215500Y-11240139D01*
X17234407Y-11181948D01*
X17283907Y-11145984D01*
X17345093Y-11145984D01*
X17384501Y-11170133D01*
X17490345Y-11275977D01*
X17662402Y-11390941D01*
X17853580Y-11470130D01*
X18056535Y-11510500D01*
X18056536Y-11510500D01*
X18263464Y-11510500D01*
X18263465Y-11510500D01*
X18466420Y-11470130D01*
X18657598Y-11390941D01*
X18829655Y-11275977D01*
X18975977Y-11129655D01*
X19090941Y-10957598D01*
X19170130Y-10766420D01*
X19210500Y-10563465D01*
X19210500Y-10356535D01*
X19210499Y-10356532D01*
X19649500Y-10356532D01*
X19649500Y-10563467D01*
X19689869Y-10766418D01*
X19769058Y-10957597D01*
X19769059Y-10957598D01*
X19884023Y-11129655D01*
X20030345Y-11275977D01*
X20202402Y-11390941D01*
X20393580Y-11470130D01*
X20596535Y-11510500D01*
X20596536Y-11510500D01*
X20803464Y-11510500D01*
X20803465Y-11510500D01*
X21006420Y-11470130D01*
X21197598Y-11390941D01*
X21369655Y-11275977D01*
X21515977Y-11129655D01*
X21630941Y-10957598D01*
X21710130Y-10766420D01*
X21750500Y-10563465D01*
X21750500Y-10356535D01*
X21750499Y-10356532D01*
X22189500Y-10356532D01*
X22189500Y-10563467D01*
X22229869Y-10766418D01*
X22309058Y-10957597D01*
X22309059Y-10957598D01*
X22424023Y-11129655D01*
X22570345Y-11275977D01*
X22742402Y-11390941D01*
X22933580Y-11470130D01*
X23136535Y-11510500D01*
X23136536Y-11510500D01*
X23343464Y-11510500D01*
X23343465Y-11510500D01*
X23546420Y-11470130D01*
X23737598Y-11390941D01*
X23909655Y-11275977D01*
X24055977Y-11129655D01*
X24170941Y-10957598D01*
X24250130Y-10766420D01*
X24290500Y-10563465D01*
X24290500Y-10356535D01*
X24290499Y-10356532D01*
X24729500Y-10356532D01*
X24729500Y-10563467D01*
X24769869Y-10766418D01*
X24849058Y-10957597D01*
X24849059Y-10957598D01*
X24964023Y-11129655D01*
X25110345Y-11275977D01*
X25282402Y-11390941D01*
X25473580Y-11470130D01*
X25676535Y-11510500D01*
X25676536Y-11510500D01*
X25883464Y-11510500D01*
X25883465Y-11510500D01*
X26086420Y-11470130D01*
X26277598Y-11390941D01*
X26449655Y-11275977D01*
X26595977Y-11129655D01*
X26710941Y-10957598D01*
X26790130Y-10766420D01*
X26830500Y-10563465D01*
X26830500Y-10356535D01*
X26830499Y-10356532D01*
X29809500Y-10356532D01*
X29809500Y-10563467D01*
X29849869Y-10766418D01*
X29929058Y-10957597D01*
X29929059Y-10957598D01*
X30044023Y-11129655D01*
X30190345Y-11275977D01*
X30362402Y-11390941D01*
X30553580Y-11470130D01*
X30756535Y-11510500D01*
X30756536Y-11510500D01*
X30963464Y-11510500D01*
X30963465Y-11510500D01*
X31166420Y-11470130D01*
X31357598Y-11390941D01*
X31529655Y-11275977D01*
X31675977Y-11129655D01*
X31790941Y-10957598D01*
X31870130Y-10766420D01*
X31910500Y-10563465D01*
X31910500Y-10356535D01*
X31910499Y-10356532D01*
X32349500Y-10356532D01*
X32349500Y-10563467D01*
X32389869Y-10766418D01*
X32469058Y-10957597D01*
X32469059Y-10957598D01*
X32584023Y-11129655D01*
X32730345Y-11275977D01*
X32902402Y-11390941D01*
X33093580Y-11470130D01*
X33296535Y-11510500D01*
X33296536Y-11510500D01*
X33503464Y-11510500D01*
X33503465Y-11510500D01*
X33706420Y-11470130D01*
X33897598Y-11390941D01*
X34069655Y-11275977D01*
X34215977Y-11129655D01*
X34330941Y-10957598D01*
X34410130Y-10766420D01*
X34450500Y-10563465D01*
X34450500Y-10356535D01*
X34450499Y-10356532D01*
X34889500Y-10356532D01*
X34889500Y-10563467D01*
X34929869Y-10766418D01*
X35009058Y-10957597D01*
X35009059Y-10957598D01*
X35124023Y-11129655D01*
X35270345Y-11275977D01*
X35442402Y-11390941D01*
X35633580Y-11470130D01*
X35836535Y-11510500D01*
X35836536Y-11510500D01*
X36043464Y-11510500D01*
X36043465Y-11510500D01*
X36246420Y-11470130D01*
X36437598Y-11390941D01*
X36609655Y-11275977D01*
X36755977Y-11129655D01*
X36870941Y-10957598D01*
X36950130Y-10766420D01*
X36990500Y-10563465D01*
X36990500Y-10356535D01*
X36990499Y-10356532D01*
X37429500Y-10356532D01*
X37429500Y-10563467D01*
X37469869Y-10766418D01*
X37549058Y-10957597D01*
X37549059Y-10957598D01*
X37664023Y-11129655D01*
X37810345Y-11275977D01*
X37982402Y-11390941D01*
X38173580Y-11470130D01*
X38376535Y-11510500D01*
X38376536Y-11510500D01*
X38583464Y-11510500D01*
X38583465Y-11510500D01*
X38786420Y-11470130D01*
X38977598Y-11390941D01*
X39149655Y-11275977D01*
X39295977Y-11129655D01*
X39410941Y-10957598D01*
X39490130Y-10766420D01*
X39530500Y-10563465D01*
X39530500Y-10356535D01*
X39530499Y-10356532D01*
X42509500Y-10356532D01*
X42509500Y-10563467D01*
X42549869Y-10766418D01*
X42629058Y-10957597D01*
X42629059Y-10957598D01*
X42744023Y-11129655D01*
X42890345Y-11275977D01*
X43062402Y-11390941D01*
X43253580Y-11470130D01*
X43456535Y-11510500D01*
X43456536Y-11510500D01*
X43663464Y-11510500D01*
X43663465Y-11510500D01*
X43866420Y-11470130D01*
X44057598Y-11390941D01*
X44229655Y-11275977D01*
X44375977Y-11129655D01*
X44490941Y-10957598D01*
X44570130Y-10766420D01*
X44610500Y-10563465D01*
X44610500Y-10356535D01*
X44610499Y-10356532D01*
X45049500Y-10356532D01*
X45049500Y-10563467D01*
X45089869Y-10766418D01*
X45169058Y-10957597D01*
X45169059Y-10957598D01*
X45284023Y-11129655D01*
X45430345Y-11275977D01*
X45602402Y-11390941D01*
X45793580Y-11470130D01*
X45996535Y-11510500D01*
X45996536Y-11510500D01*
X46203464Y-11510500D01*
X46203465Y-11510500D01*
X46406420Y-11470130D01*
X46597598Y-11390941D01*
X46769655Y-11275977D01*
X46915977Y-11129655D01*
X47030941Y-10957598D01*
X47110130Y-10766420D01*
X47150500Y-10563465D01*
X47150500Y-10356535D01*
X47150499Y-10356532D01*
X47589500Y-10356532D01*
X47589500Y-10563467D01*
X47629869Y-10766418D01*
X47709058Y-10957597D01*
X47709059Y-10957598D01*
X47824023Y-11129655D01*
X47970345Y-11275977D01*
X48142402Y-11390941D01*
X48333580Y-11470130D01*
X48536535Y-11510500D01*
X48536536Y-11510500D01*
X48743464Y-11510500D01*
X48743465Y-11510500D01*
X48946420Y-11470130D01*
X49137598Y-11390941D01*
X49309655Y-11275977D01*
X49455977Y-11129655D01*
X49570941Y-10957598D01*
X49650130Y-10766420D01*
X49690500Y-10563465D01*
X49690500Y-10356535D01*
X49690499Y-10356532D01*
X50129500Y-10356532D01*
X50129500Y-10563467D01*
X50169869Y-10766418D01*
X50249058Y-10957597D01*
X50249059Y-10957598D01*
X50364023Y-11129655D01*
X50510345Y-11275977D01*
X50682402Y-11390941D01*
X50873580Y-11470130D01*
X51076535Y-11510500D01*
X51076536Y-11510500D01*
X51283464Y-11510500D01*
X51283465Y-11510500D01*
X51486420Y-11470130D01*
X51677598Y-11390941D01*
X51849655Y-11275977D01*
X51995977Y-11129655D01*
X52110941Y-10957598D01*
X52190130Y-10766420D01*
X52230500Y-10563465D01*
X52230500Y-10356535D01*
X52230499Y-10356532D01*
X55209500Y-10356532D01*
X55209500Y-10563467D01*
X55249869Y-10766418D01*
X55329058Y-10957597D01*
X55329059Y-10957598D01*
X55444023Y-11129655D01*
X55590345Y-11275977D01*
X55762402Y-11390941D01*
X55953580Y-11470130D01*
X56156535Y-11510500D01*
X56156536Y-11510500D01*
X56363464Y-11510500D01*
X56363465Y-11510500D01*
X56566420Y-11470130D01*
X56757598Y-11390941D01*
X56929655Y-11275977D01*
X57075977Y-11129655D01*
X57190941Y-10957598D01*
X57270130Y-10766420D01*
X57310500Y-10563465D01*
X57310500Y-10356535D01*
X57270130Y-10153580D01*
X57190941Y-9962402D01*
X57075977Y-9790345D01*
X56929655Y-9644023D01*
X56757598Y-9529059D01*
X56757599Y-9529059D01*
X56757597Y-9529058D01*
X56566418Y-9449869D01*
X56363467Y-9409500D01*
X56363465Y-9409500D01*
X56156535Y-9409500D01*
X56156532Y-9409500D01*
X55953581Y-9449869D01*
X55762402Y-9529058D01*
X55590348Y-9644020D01*
X55444020Y-9790348D01*
X55329058Y-9962402D01*
X55249869Y-10153581D01*
X55209500Y-10356532D01*
X52230499Y-10356532D01*
X52190130Y-10153580D01*
X52110941Y-9962402D01*
X51995977Y-9790345D01*
X51849655Y-9644023D01*
X51677598Y-9529059D01*
X51677599Y-9529059D01*
X51677597Y-9529058D01*
X51486418Y-9449869D01*
X51283467Y-9409500D01*
X51283465Y-9409500D01*
X51076535Y-9409500D01*
X51076532Y-9409500D01*
X50873581Y-9449869D01*
X50682402Y-9529058D01*
X50510348Y-9644020D01*
X50364020Y-9790348D01*
X50249058Y-9962402D01*
X50169869Y-10153581D01*
X50129500Y-10356532D01*
X49690499Y-10356532D01*
X49650130Y-10153580D01*
X49570941Y-9962402D01*
X49455977Y-9790345D01*
X49309655Y-9644023D01*
X49137598Y-9529059D01*
X49137599Y-9529059D01*
X49137597Y-9529058D01*
X48946418Y-9449869D01*
X48743467Y-9409500D01*
X48743465Y-9409500D01*
X48536535Y-9409500D01*
X48536532Y-9409500D01*
X48333581Y-9449869D01*
X48142402Y-9529058D01*
X47970348Y-9644020D01*
X47824020Y-9790348D01*
X47709058Y-9962402D01*
X47629869Y-10153581D01*
X47589500Y-10356532D01*
X47150499Y-10356532D01*
X47110130Y-10153580D01*
X47030941Y-9962402D01*
X46915977Y-9790345D01*
X46769655Y-9644023D01*
X46597598Y-9529059D01*
X46597599Y-9529059D01*
X46597597Y-9529058D01*
X46406418Y-9449869D01*
X46203467Y-9409500D01*
X46203465Y-9409500D01*
X45996535Y-9409500D01*
X45996532Y-9409500D01*
X45793581Y-9449869D01*
X45602402Y-9529058D01*
X45430348Y-9644020D01*
X45284020Y-9790348D01*
X45169058Y-9962402D01*
X45089869Y-10153581D01*
X45049500Y-10356532D01*
X44610499Y-10356532D01*
X44570130Y-10153580D01*
X44490941Y-9962402D01*
X44375977Y-9790345D01*
X44229655Y-9644023D01*
X44057598Y-9529059D01*
X44057599Y-9529059D01*
X44057597Y-9529058D01*
X43866418Y-9449869D01*
X43663467Y-9409500D01*
X43663465Y-9409500D01*
X43456535Y-9409500D01*
X43456532Y-9409500D01*
X43253581Y-9449869D01*
X43062402Y-9529058D01*
X42890348Y-9644020D01*
X42744020Y-9790348D01*
X42629058Y-9962402D01*
X42549869Y-10153581D01*
X42509500Y-10356532D01*
X39530499Y-10356532D01*
X39490130Y-10153580D01*
X39410941Y-9962402D01*
X39295977Y-9790345D01*
X39149655Y-9644023D01*
X38977598Y-9529059D01*
X38977599Y-9529059D01*
X38977597Y-9529058D01*
X38786418Y-9449869D01*
X38583467Y-9409500D01*
X38583465Y-9409500D01*
X38376535Y-9409500D01*
X38376532Y-9409500D01*
X38173581Y-9449869D01*
X37982402Y-9529058D01*
X37810348Y-9644020D01*
X37664020Y-9790348D01*
X37549058Y-9962402D01*
X37469869Y-10153581D01*
X37429500Y-10356532D01*
X36990499Y-10356532D01*
X36950130Y-10153580D01*
X36870941Y-9962402D01*
X36755977Y-9790345D01*
X36609655Y-9644023D01*
X36437598Y-9529059D01*
X36437599Y-9529059D01*
X36437597Y-9529058D01*
X36246418Y-9449869D01*
X36043467Y-9409500D01*
X36043465Y-9409500D01*
X35836535Y-9409500D01*
X35836532Y-9409500D01*
X35633581Y-9449869D01*
X35442402Y-9529058D01*
X35270348Y-9644020D01*
X35124020Y-9790348D01*
X35009058Y-9962402D01*
X34929869Y-10153581D01*
X34889500Y-10356532D01*
X34450499Y-10356532D01*
X34410130Y-10153580D01*
X34330941Y-9962402D01*
X34215977Y-9790345D01*
X34069655Y-9644023D01*
X33897598Y-9529059D01*
X33897599Y-9529059D01*
X33897597Y-9529058D01*
X33706418Y-9449869D01*
X33503467Y-9409500D01*
X33503465Y-9409500D01*
X33296535Y-9409500D01*
X33296532Y-9409500D01*
X33093581Y-9449869D01*
X32902402Y-9529058D01*
X32730348Y-9644020D01*
X32584020Y-9790348D01*
X32469058Y-9962402D01*
X32389869Y-10153581D01*
X32349500Y-10356532D01*
X31910499Y-10356532D01*
X31870130Y-10153580D01*
X31790941Y-9962402D01*
X31675977Y-9790345D01*
X31529655Y-9644023D01*
X31357598Y-9529059D01*
X31357599Y-9529059D01*
X31357597Y-9529058D01*
X31166418Y-9449869D01*
X30963467Y-9409500D01*
X30963465Y-9409500D01*
X30756535Y-9409500D01*
X30756532Y-9409500D01*
X30553581Y-9449869D01*
X30362402Y-9529058D01*
X30190348Y-9644020D01*
X30044020Y-9790348D01*
X29929058Y-9962402D01*
X29849869Y-10153581D01*
X29809500Y-10356532D01*
X26830499Y-10356532D01*
X26790130Y-10153580D01*
X26710941Y-9962402D01*
X26595977Y-9790345D01*
X26449655Y-9644023D01*
X26277598Y-9529059D01*
X26277599Y-9529059D01*
X26277597Y-9529058D01*
X26086418Y-9449869D01*
X25883467Y-9409500D01*
X25883465Y-9409500D01*
X25676535Y-9409500D01*
X25676532Y-9409500D01*
X25473581Y-9449869D01*
X25282402Y-9529058D01*
X25110348Y-9644020D01*
X24964020Y-9790348D01*
X24849058Y-9962402D01*
X24769869Y-10153581D01*
X24729500Y-10356532D01*
X24290499Y-10356532D01*
X24250130Y-10153580D01*
X24170941Y-9962402D01*
X24055977Y-9790345D01*
X23909655Y-9644023D01*
X23737598Y-9529059D01*
X23737599Y-9529059D01*
X23737597Y-9529058D01*
X23546418Y-9449869D01*
X23343467Y-9409500D01*
X23343465Y-9409500D01*
X23136535Y-9409500D01*
X23136532Y-9409500D01*
X22933581Y-9449869D01*
X22742402Y-9529058D01*
X22570348Y-9644020D01*
X22424020Y-9790348D01*
X22309058Y-9962402D01*
X22229869Y-10153581D01*
X22189500Y-10356532D01*
X21750499Y-10356532D01*
X21710130Y-10153580D01*
X21630941Y-9962402D01*
X21515977Y-9790345D01*
X21369655Y-9644023D01*
X21197598Y-9529059D01*
X21197599Y-9529059D01*
X21197597Y-9529058D01*
X21006418Y-9449869D01*
X20803467Y-9409500D01*
X20803465Y-9409500D01*
X20596535Y-9409500D01*
X20596532Y-9409500D01*
X20393581Y-9449869D01*
X20202402Y-9529058D01*
X20030348Y-9644020D01*
X19884020Y-9790348D01*
X19769058Y-9962402D01*
X19689869Y-10153581D01*
X19649500Y-10356532D01*
X19210499Y-10356532D01*
X19170130Y-10153580D01*
X19090941Y-9962402D01*
X18975977Y-9790345D01*
X18829655Y-9644023D01*
X18657598Y-9529059D01*
X18657599Y-9529059D01*
X18657597Y-9529058D01*
X18466418Y-9449869D01*
X18263467Y-9409500D01*
X18263465Y-9409500D01*
X18056535Y-9409500D01*
X18056532Y-9409500D01*
X17853581Y-9449869D01*
X17662402Y-9529058D01*
X17490348Y-9644020D01*
X17490345Y-9644022D01*
X17490345Y-9644023D01*
X17384501Y-9749866D01*
X17329987Y-9777642D01*
X17269555Y-9768071D01*
X17226290Y-9724806D01*
X17215500Y-9679861D01*
X17215500Y-6268848D01*
X17215500Y-6268847D01*
X17193318Y-6186062D01*
X17193318Y-6186061D01*
X17193318Y-6186060D01*
X17150468Y-6111842D01*
X17150467Y-6111841D01*
X17150466Y-6111840D01*
X17150465Y-6111838D01*
X14917337Y-3878710D01*
X58149500Y-3878710D01*
X58149500Y-4121289D01*
X58181161Y-4361781D01*
X58181161Y-4361786D01*
X58181162Y-4361789D01*
X58240064Y-4581614D01*
X58243944Y-4596092D01*
X58243948Y-4596105D01*
X58336772Y-4820204D01*
X58336774Y-4820208D01*
X58336776Y-4820212D01*
X58458064Y-5030289D01*
X58458066Y-5030292D01*
X58605729Y-5222731D01*
X58605731Y-5222733D01*
X58605735Y-5222738D01*
X58777262Y-5394265D01*
X58777266Y-5394268D01*
X58777268Y-5394270D01*
X58969707Y-5541933D01*
X58969711Y-5541936D01*
X59179788Y-5663224D01*
X59403900Y-5756054D01*
X59638211Y-5818838D01*
X59878712Y-5850500D01*
X59878713Y-5850500D01*
X60121287Y-5850500D01*
X60121288Y-5850500D01*
X60361789Y-5818838D01*
X60596100Y-5756054D01*
X60820212Y-5663224D01*
X61030289Y-5541936D01*
X61222738Y-5394265D01*
X61394265Y-5222738D01*
X61541936Y-5030289D01*
X61663224Y-4820212D01*
X61756054Y-4596100D01*
X61818838Y-4361789D01*
X61850500Y-4121288D01*
X61850500Y-3878712D01*
X61818838Y-3638211D01*
X61756054Y-3403900D01*
X61663224Y-3179788D01*
X61541936Y-2969711D01*
X61394265Y-2777262D01*
X61222738Y-2605735D01*
X61222733Y-2605731D01*
X61222731Y-2605729D01*
X61030292Y-2458066D01*
X60943092Y-2407721D01*
X60820212Y-2336776D01*
X60820208Y-2336774D01*
X60820204Y-2336772D01*
X60596105Y-2243948D01*
X60596104Y-2243947D01*
X60596100Y-2243946D01*
X60361789Y-2181162D01*
X60361786Y-2181161D01*
X60361784Y-2181161D01*
X60121289Y-2149500D01*
X60121288Y-2149500D01*
X59878712Y-2149500D01*
X59878710Y-2149500D01*
X59638218Y-2181161D01*
X59638213Y-2181161D01*
X59403907Y-2243944D01*
X59403894Y-2243948D01*
X59179795Y-2336772D01*
X58969707Y-2458066D01*
X58777268Y-2605729D01*
X58605729Y-2777268D01*
X58458066Y-2969707D01*
X58336772Y-3179795D01*
X58243948Y-3403894D01*
X58243944Y-3403907D01*
X58181161Y-3638213D01*
X58181161Y-3638218D01*
X58149500Y-3878710D01*
X14917337Y-3878710D01*
X14658131Y-3619504D01*
X14630354Y-3564987D01*
X14639925Y-3504555D01*
X14683190Y-3461290D01*
X14728135Y-3450500D01*
X15429747Y-3450500D01*
X15429748Y-3450500D01*
X15488231Y-3438867D01*
X15554552Y-3394552D01*
X15598867Y-3328231D01*
X15610500Y-3269748D01*
X15610500Y-2230252D01*
X15598867Y-2171769D01*
X15554552Y-2105448D01*
X15554548Y-2105445D01*
X15488233Y-2061134D01*
X15488231Y-2061133D01*
X15488228Y-2061132D01*
X15488227Y-2061132D01*
X15429758Y-2049501D01*
X15429748Y-2049500D01*
X12880252Y-2049500D01*
X12880251Y-2049500D01*
X12880241Y-2049501D01*
X12821772Y-2061132D01*
X12821766Y-2061134D01*
X12755451Y-2105445D01*
X12755445Y-2105451D01*
X12711134Y-2171766D01*
X12711132Y-2171772D01*
X12699501Y-2230241D01*
X12699500Y-2230253D01*
X12699500Y-3269746D01*
X12699501Y-3269758D01*
X12711132Y-3328227D01*
X12711133Y-3328231D01*
X12755448Y-3394552D01*
X12821769Y-3438867D01*
X12866231Y-3447711D01*
X12880241Y-3450498D01*
X12880246Y-3450498D01*
X12880252Y-3450500D01*
X13730500Y-3450500D01*
X13788691Y-3469407D01*
X13824655Y-3518907D01*
X13829500Y-3549500D01*
X13829500Y-3619553D01*
X13849062Y-3692563D01*
X13851683Y-3702343D01*
X13894531Y-3776557D01*
X13894533Y-3776559D01*
X13894535Y-3776562D01*
X16535505Y-6417532D01*
X16563281Y-6472047D01*
X16564500Y-6487534D01*
X16564500Y-12219861D01*
X16545593Y-12278052D01*
X16496093Y-12314016D01*
X16434907Y-12314016D01*
X16395498Y-12289866D01*
X16289655Y-12184023D01*
X16209182Y-12130253D01*
X16117597Y-12069058D01*
X15926418Y-11989869D01*
X15723467Y-11949500D01*
X15723465Y-11949500D01*
X15516535Y-11949500D01*
X15516532Y-11949500D01*
X15313581Y-11989869D01*
X15122402Y-12069058D01*
X14950348Y-12184020D01*
X14950345Y-12184022D01*
X14950345Y-12184023D01*
X14844501Y-12289866D01*
X14789987Y-12317642D01*
X14729555Y-12308071D01*
X14686290Y-12264806D01*
X14675500Y-12219861D01*
X14675500Y-11687148D01*
X14675500Y-11687147D01*
X14653318Y-11604362D01*
X14653318Y-11604361D01*
X14653318Y-11604360D01*
X14610468Y-11530142D01*
X14610466Y-11530140D01*
X14610465Y-11530138D01*
X14065616Y-10985289D01*
X14037841Y-10930775D01*
X14044157Y-10877405D01*
X14090130Y-10766420D01*
X14130500Y-10563465D01*
X14130500Y-10356535D01*
X14090130Y-10153580D01*
X14010941Y-9962402D01*
X13895977Y-9790345D01*
X13749655Y-9644023D01*
X13577598Y-9529059D01*
X13577599Y-9529059D01*
X13577597Y-9529058D01*
X13386418Y-9449869D01*
X13183467Y-9409500D01*
X13183465Y-9409500D01*
X12976535Y-9409500D01*
X12976532Y-9409500D01*
X12773581Y-9449869D01*
X12582402Y-9529058D01*
X12410348Y-9644020D01*
X12264020Y-9790348D01*
X12149058Y-9962402D01*
X12069869Y-10153581D01*
X12029500Y-10356532D01*
X12029500Y-10563467D01*
X12069869Y-10766418D01*
X12149058Y-10957597D01*
X12149059Y-10957598D01*
X12264023Y-11129655D01*
X12410345Y-11275977D01*
X12582402Y-11390941D01*
X12773580Y-11470130D01*
X12976535Y-11510500D01*
X12976536Y-11510500D01*
X13183464Y-11510500D01*
X13183465Y-11510500D01*
X13386420Y-11470130D01*
X13497402Y-11424158D01*
X13558399Y-11419358D01*
X13605292Y-11445619D01*
X13995504Y-11835831D01*
X14023281Y-11890348D01*
X14024500Y-11905835D01*
X14024500Y-12219861D01*
X14005593Y-12278052D01*
X13956093Y-12314016D01*
X13894907Y-12314016D01*
X13855498Y-12289866D01*
X13749655Y-12184023D01*
X13669182Y-12130253D01*
X13577597Y-12069058D01*
X13386418Y-11989869D01*
X13183467Y-11949500D01*
X13183465Y-11949500D01*
X12976535Y-11949500D01*
X12976532Y-11949500D01*
X12773581Y-11989869D01*
X12582402Y-12069058D01*
X12410348Y-12184020D01*
X12264020Y-12330348D01*
X12149058Y-12502402D01*
X12069869Y-12693581D01*
X12029500Y-12896532D01*
X12029500Y-13103467D01*
X12069869Y-13306418D01*
X12149058Y-13497597D01*
X12149059Y-13497598D01*
X12264023Y-13669655D01*
X12410345Y-13815977D01*
X12582402Y-13930941D01*
X12773580Y-14010130D01*
X12976535Y-14050500D01*
X12976536Y-14050500D01*
X13183464Y-14050500D01*
X13183465Y-14050500D01*
X13386420Y-14010130D01*
X13577598Y-13930941D01*
X13749655Y-13815977D01*
X13855498Y-13710133D01*
X13910013Y-13682358D01*
X13970445Y-13691929D01*
X14013710Y-13735194D01*
X14024500Y-13780139D01*
X14024500Y-14911447D01*
X14024500Y-14997153D01*
X14044062Y-15070163D01*
X14046683Y-15079943D01*
X14089531Y-15154157D01*
X14089533Y-15154159D01*
X14089535Y-15154162D01*
X14792905Y-15857532D01*
X14820681Y-15912047D01*
X14821900Y-15927534D01*
X14821900Y-15992592D01*
X14853326Y-16109879D01*
X14850124Y-16170978D01*
X14811619Y-16218528D01*
X14757700Y-16234500D01*
X12544835Y-16234500D01*
X12486644Y-16215593D01*
X12474831Y-16205504D01*
X9531196Y-13261869D01*
X9503419Y-13207352D01*
X9502200Y-13191865D01*
X9502200Y-12957148D01*
X9485959Y-12896536D01*
X9480018Y-12874362D01*
X9437165Y-12800138D01*
X9376562Y-12739535D01*
X9302338Y-12696682D01*
X9219553Y-12674500D01*
X9219551Y-12674500D01*
X9149500Y-12674500D01*
X9091309Y-12655593D01*
X9055345Y-12606093D01*
X9050500Y-12575500D01*
X9050500Y-12130253D01*
X9050498Y-12130241D01*
X9047711Y-12116231D01*
X9038867Y-12071769D01*
X8994552Y-12005448D01*
X8994548Y-12005445D01*
X8928233Y-11961134D01*
X8928231Y-11961133D01*
X8928228Y-11961132D01*
X8928227Y-11961132D01*
X8869758Y-11949501D01*
X8869748Y-11949500D01*
X7130252Y-11949500D01*
X7130251Y-11949500D01*
X7130241Y-11949501D01*
X7071772Y-11961132D01*
X7071766Y-11961134D01*
X7005451Y-12005445D01*
X7005445Y-12005451D01*
X6961134Y-12071766D01*
X6961132Y-12071772D01*
X6949501Y-12130241D01*
X6949500Y-12130253D01*
X6949500Y-13869746D01*
X6949501Y-13869758D01*
X6961132Y-13928227D01*
X6961134Y-13928233D01*
X7005445Y-13994548D01*
X7005448Y-13994552D01*
X7071769Y-14038867D01*
X7116231Y-14047711D01*
X7130241Y-14050498D01*
X7130246Y-14050498D01*
X7130252Y-14050500D01*
X7130253Y-14050500D01*
X8869747Y-14050500D01*
X8869748Y-14050500D01*
X8928231Y-14038867D01*
X8994552Y-13994552D01*
X9038867Y-13928231D01*
X9042226Y-13911342D01*
X9072121Y-13857961D01*
X9127686Y-13832344D01*
X9187696Y-13844280D01*
X9209327Y-13860654D01*
X12169138Y-16820465D01*
X12169140Y-16820466D01*
X12169141Y-16820467D01*
X12169142Y-16820468D01*
X12243357Y-16863316D01*
X12243355Y-16863316D01*
X12243359Y-16863317D01*
X12243361Y-16863318D01*
X12326147Y-16885500D01*
X12326149Y-16885500D01*
X15810464Y-16885500D01*
X15868655Y-16904407D01*
X15904619Y-16953907D01*
X15904619Y-17015093D01*
X15880468Y-17054504D01*
X15349669Y-17585304D01*
X15295152Y-17613081D01*
X15279665Y-17614300D01*
X14605732Y-17614300D01*
X14605716Y-17614299D01*
X14599653Y-17614299D01*
X14513948Y-17614299D01*
X14513945Y-17614299D01*
X14431165Y-17636480D01*
X14356935Y-17679337D01*
X14296334Y-17739937D01*
X14296335Y-17739938D01*
X9659169Y-22377104D01*
X9604652Y-22404881D01*
X9589165Y-22406100D01*
X9525133Y-22406100D01*
X9466942Y-22387193D01*
X9430978Y-22337693D01*
X9430978Y-22276507D01*
X9455129Y-22237097D01*
X9499769Y-22192457D01*
X9717747Y-21974477D01*
X9727489Y-21965936D01*
X9731358Y-21962967D01*
X9731362Y-21962965D01*
X10197165Y-21497162D01*
X10228992Y-21442035D01*
X10240018Y-21422938D01*
X10262200Y-21340153D01*
X10262200Y-21166921D01*
X10281107Y-21108730D01*
X10291190Y-21096923D01*
X10337200Y-21050914D01*
X10403092Y-20936786D01*
X10437200Y-20809492D01*
X10437200Y-20677708D01*
X10403092Y-20550414D01*
X10403090Y-20550411D01*
X10403090Y-20550409D01*
X10337203Y-20436290D01*
X10337201Y-20436288D01*
X10337200Y-20436286D01*
X10244014Y-20343100D01*
X10244011Y-20343098D01*
X10244009Y-20343096D01*
X10129889Y-20277209D01*
X10129891Y-20277209D01*
X10080499Y-20263975D01*
X10002592Y-20243100D01*
X9870808Y-20243100D01*
X9792900Y-20263975D01*
X9743509Y-20277209D01*
X9629390Y-20343096D01*
X9536196Y-20436290D01*
X9470309Y-20550409D01*
X9470308Y-20550414D01*
X9436200Y-20677708D01*
X9436200Y-20809492D01*
X9466279Y-20921751D01*
X9470309Y-20936790D01*
X9536196Y-21050909D01*
X9536198Y-21050911D01*
X9536200Y-21050914D01*
X9559477Y-21074191D01*
X9587253Y-21128706D01*
X9577682Y-21189138D01*
X9559476Y-21214196D01*
X9343140Y-21430531D01*
X9333414Y-21439061D01*
X9329536Y-21442036D01*
X9268934Y-21502637D01*
X9268935Y-21502638D01*
X9021169Y-21750404D01*
X8966652Y-21778181D01*
X8951165Y-21779400D01*
X8671553Y-21779400D01*
X8585847Y-21779400D01*
X8535178Y-21792976D01*
X8503056Y-21801583D01*
X8428842Y-21844431D01*
X8001031Y-22272242D01*
X7958182Y-22346460D01*
X7958181Y-22346460D01*
X7958182Y-22346461D01*
X7936000Y-22429247D01*
X7936000Y-22796665D01*
X7917093Y-22854856D01*
X7907004Y-22866669D01*
X4259169Y-26514504D01*
X4204652Y-26542281D01*
X4189165Y-26543500D01*
X4124108Y-26543500D01*
X4046200Y-26564375D01*
X3996809Y-26577609D01*
X3882690Y-26643496D01*
X3789496Y-26736690D01*
X3723609Y-26850809D01*
X3723608Y-26850814D01*
X3689500Y-26978108D01*
X500500Y-26978108D01*
X500500Y-23409108D01*
X4870100Y-23409108D01*
X4870100Y-23540892D01*
X4881680Y-23584108D01*
X4904209Y-23668190D01*
X4970096Y-23782309D01*
X4970098Y-23782311D01*
X4970100Y-23782314D01*
X5063286Y-23875500D01*
X5063288Y-23875501D01*
X5063290Y-23875503D01*
X5177410Y-23941390D01*
X5177408Y-23941390D01*
X5177412Y-23941391D01*
X5177414Y-23941392D01*
X5304708Y-23975500D01*
X5304710Y-23975500D01*
X5436490Y-23975500D01*
X5436492Y-23975500D01*
X5563786Y-23941392D01*
X5563788Y-23941390D01*
X5563790Y-23941390D01*
X5677909Y-23875503D01*
X5677909Y-23875502D01*
X5677914Y-23875500D01*
X5771100Y-23782314D01*
X5771103Y-23782309D01*
X5836990Y-23668190D01*
X5836990Y-23668188D01*
X5836992Y-23668186D01*
X5871100Y-23540892D01*
X5871100Y-23409108D01*
X5836992Y-23281814D01*
X5836990Y-23281811D01*
X5836990Y-23281809D01*
X5771103Y-23167690D01*
X5771099Y-23167684D01*
X5725096Y-23121681D01*
X5697319Y-23067164D01*
X5696100Y-23051678D01*
X5696100Y-10356532D01*
X6949500Y-10356532D01*
X6949500Y-10563467D01*
X6989869Y-10766418D01*
X7069058Y-10957597D01*
X7069059Y-10957598D01*
X7184023Y-11129655D01*
X7330345Y-11275977D01*
X7502402Y-11390941D01*
X7693580Y-11470130D01*
X7896535Y-11510500D01*
X7896536Y-11510500D01*
X8103464Y-11510500D01*
X8103465Y-11510500D01*
X8306420Y-11470130D01*
X8497598Y-11390941D01*
X8669655Y-11275977D01*
X8815977Y-11129655D01*
X8930941Y-10957598D01*
X9010130Y-10766420D01*
X9050500Y-10563465D01*
X9050500Y-10356535D01*
X9050499Y-10356532D01*
X9489500Y-10356532D01*
X9489500Y-10563467D01*
X9529869Y-10766418D01*
X9609058Y-10957597D01*
X9609059Y-10957598D01*
X9724023Y-11129655D01*
X9870345Y-11275977D01*
X10042402Y-11390941D01*
X10233580Y-11470130D01*
X10436535Y-11510500D01*
X10436536Y-11510500D01*
X10643464Y-11510500D01*
X10643465Y-11510500D01*
X10846420Y-11470130D01*
X11037598Y-11390941D01*
X11209655Y-11275977D01*
X11355977Y-11129655D01*
X11470941Y-10957598D01*
X11550130Y-10766420D01*
X11590500Y-10563465D01*
X11590500Y-10356535D01*
X11550130Y-10153580D01*
X11470941Y-9962402D01*
X11355977Y-9790345D01*
X11209655Y-9644023D01*
X11037598Y-9529059D01*
X11037599Y-9529059D01*
X11037597Y-9529058D01*
X10846418Y-9449869D01*
X10643467Y-9409500D01*
X10643465Y-9409500D01*
X10436535Y-9409500D01*
X10436532Y-9409500D01*
X10233581Y-9449869D01*
X10042402Y-9529058D01*
X9870348Y-9644020D01*
X9724020Y-9790348D01*
X9609058Y-9962402D01*
X9529869Y-10153581D01*
X9489500Y-10356532D01*
X9050499Y-10356532D01*
X9010130Y-10153580D01*
X8930941Y-9962402D01*
X8815977Y-9790345D01*
X8669655Y-9644023D01*
X8497598Y-9529059D01*
X8497599Y-9529059D01*
X8497597Y-9529058D01*
X8306418Y-9449869D01*
X8103467Y-9409500D01*
X8103465Y-9409500D01*
X7896535Y-9409500D01*
X7896532Y-9409500D01*
X7693581Y-9449869D01*
X7502402Y-9529058D01*
X7330348Y-9644020D01*
X7184020Y-9790348D01*
X7069058Y-9962402D01*
X6989869Y-10153581D01*
X6949500Y-10356532D01*
X5696100Y-10356532D01*
X5696100Y-10275634D01*
X5715007Y-10217443D01*
X5725090Y-10205636D01*
X7562765Y-8367962D01*
X7605617Y-8293739D01*
X7605618Y-8293738D01*
X7627800Y-8210953D01*
X7627800Y-4622621D01*
X7646707Y-4564430D01*
X7656790Y-4552623D01*
X7702800Y-4506614D01*
X7768692Y-4392486D01*
X7802800Y-4265192D01*
X7802800Y-4133408D01*
X7768692Y-4006114D01*
X7768690Y-4006111D01*
X7768690Y-4006109D01*
X7702803Y-3891990D01*
X7702801Y-3891988D01*
X7702800Y-3891986D01*
X7609614Y-3798800D01*
X7609611Y-3798798D01*
X7609609Y-3798796D01*
X7495489Y-3732909D01*
X7495491Y-3732909D01*
X7446099Y-3719675D01*
X7368192Y-3698800D01*
X7236408Y-3698800D01*
X7158500Y-3719675D01*
X7109109Y-3732909D01*
X6994990Y-3798796D01*
X6901796Y-3891990D01*
X6835909Y-4006109D01*
X6835908Y-4006114D01*
X6801800Y-4133408D01*
X6801800Y-4265192D01*
X6827681Y-4361781D01*
X6835909Y-4392490D01*
X6901796Y-4506609D01*
X6901798Y-4506611D01*
X6901800Y-4506614D01*
X6947805Y-4552619D01*
X6975581Y-4607134D01*
X6976800Y-4622621D01*
X6976800Y-7992265D01*
X6957893Y-8050456D01*
X6947804Y-8062269D01*
X5110131Y-9899942D01*
X5067282Y-9974160D01*
X5067281Y-9974160D01*
X5067282Y-9974161D01*
X5045100Y-10056947D01*
X5045100Y-23051678D01*
X5026193Y-23109869D01*
X5016104Y-23121681D01*
X4970100Y-23167684D01*
X4970096Y-23167690D01*
X4904209Y-23281809D01*
X4904208Y-23281814D01*
X4870100Y-23409108D01*
X500500Y-23409108D01*
X500500Y-3878710D01*
X2149500Y-3878710D01*
X2149500Y-4121289D01*
X2181161Y-4361781D01*
X2181161Y-4361786D01*
X2181162Y-4361789D01*
X2240064Y-4581614D01*
X2243944Y-4596092D01*
X2243948Y-4596105D01*
X2336772Y-4820204D01*
X2336774Y-4820208D01*
X2336776Y-4820212D01*
X2458064Y-5030289D01*
X2458066Y-5030292D01*
X2605729Y-5222731D01*
X2605731Y-5222733D01*
X2605735Y-5222738D01*
X2777262Y-5394265D01*
X2777266Y-5394268D01*
X2777268Y-5394270D01*
X2969707Y-5541933D01*
X2969711Y-5541936D01*
X3179788Y-5663224D01*
X3403900Y-5756054D01*
X3638211Y-5818838D01*
X3878712Y-5850500D01*
X3878713Y-5850500D01*
X4121287Y-5850500D01*
X4121288Y-5850500D01*
X4361789Y-5818838D01*
X4596100Y-5756054D01*
X4820212Y-5663224D01*
X5030289Y-5541936D01*
X5222738Y-5394265D01*
X5394265Y-5222738D01*
X5541936Y-5030289D01*
X5663224Y-4820212D01*
X5756054Y-4596100D01*
X5818838Y-4361789D01*
X5850500Y-4121288D01*
X5850500Y-3878712D01*
X5818838Y-3638211D01*
X5756054Y-3403900D01*
X5663224Y-3179788D01*
X5541936Y-2969711D01*
X5394265Y-2777262D01*
X5222738Y-2605735D01*
X5222733Y-2605731D01*
X5222731Y-2605729D01*
X5030292Y-2458066D01*
X4943092Y-2407721D01*
X4820212Y-2336776D01*
X4820208Y-2336774D01*
X4820204Y-2336772D01*
X4596105Y-2243948D01*
X4596104Y-2243947D01*
X4596100Y-2243946D01*
X4361789Y-2181162D01*
X4361786Y-2181161D01*
X4361784Y-2181161D01*
X4121289Y-2149500D01*
X4121288Y-2149500D01*
X3878712Y-2149500D01*
X3878710Y-2149500D01*
X3638218Y-2181161D01*
X3638213Y-2181161D01*
X3403907Y-2243944D01*
X3403894Y-2243948D01*
X3179795Y-2336772D01*
X2969707Y-2458066D01*
X2777268Y-2605729D01*
X2605729Y-2777268D01*
X2458066Y-2969707D01*
X2336772Y-3179795D01*
X2243948Y-3403894D01*
X2243944Y-3403907D01*
X2181161Y-3638213D01*
X2181161Y-3638218D01*
X2149500Y-3878710D01*
X500500Y-3878710D01*
X500500Y-3002984D01*
X500681Y-2997007D01*
X510902Y-2828032D01*
X518362Y-2704687D01*
X519801Y-2692836D01*
X572052Y-2407714D01*
X574906Y-2396131D01*
X661152Y-2119355D01*
X665374Y-2108224D01*
X784349Y-1843873D01*
X789898Y-1833302D01*
X939860Y-1585233D01*
X946631Y-1575423D01*
X1125406Y-1347234D01*
X1133318Y-1338302D01*
X1338302Y-1133318D01*
X1347234Y-1125406D01*
X1575423Y-946631D01*
X1585233Y-939860D01*
X1833302Y-789898D01*
X1843873Y-784349D01*
X2108224Y-665374D01*
X2119355Y-661152D01*
X2396131Y-574906D01*
X2407714Y-572052D01*
X2692836Y-519801D01*
X2704687Y-518362D01*
X2997008Y-500681D01*
X3002985Y-500500D01*
X3065892Y-500500D01*
X60934108Y-500500D01*
X60997015Y-500500D01*
X61002992Y-500681D01*
G37*
%TD.AperFunction*%
%TD*%
M02*
