M48
; DRILL file KiCad 10.0.6 date 2026-09-04T10:41:55
; FORMAT={-:-/ absolute / metric / decimal}
; #@! TF.CreationDate,2026-09-04T10:41:55+02:00
; #@! TF.GenerationSoftware,Kicad,Pcbnew,10.0.6
; #@! TF.FileFunction,MixedPlating,1,2
FMAT,2
METRIC
; #@! TA.AperFunction,Plated,PTH,ViaDrill
T1C0.300
; #@! TA.AperFunction,Plated,PTH,ComponentDrill
T2C0.800
; #@! TA.AperFunction,Plated,PTH,ComponentDrill
T3C1.000
; #@! TA.AperFunction,Plated,PTH,ComponentDrill
T4C1.200
; #@! TA.AperFunction,NonPlated,NPTH,ComponentDrill
T5C3.200
%
G90
G05
T1
X4.19Y-27.044
X5.371Y-23.475
X5.75Y-7.5
X5.75Y-45.0
X5.75Y-52.5
X5.85Y-29.6
X7.302Y-4.199
X7.359Y-24.94
X8.888Y-22.732
X9.937Y-20.744
X10.15Y-29.65
X13.25Y-22.5
X13.25Y-45.0
X13.9Y-19.675
X15.322Y-15.927
X15.88Y-23.65
X16.579Y-15.919
X17.5Y-20.975
X18.1Y-21.625
X18.183Y-32.206
X18.68Y-24.1
X20.35Y-27.6
X20.75Y-7.5
X20.75Y-37.5
X20.75Y-45.0
X20.75Y-52.5
X22.55Y-32.15
X23.063Y-17.989
X23.314Y-29.775
X23.9Y-24.95
X24.638Y-21.657
X24.855Y-28.558
X28.25Y-7.5
X28.25Y-30.0
X28.25Y-37.5
X28.25Y-45.0
X28.25Y-52.5
X35.75Y-7.5
X35.75Y-22.5
X35.75Y-30.0
X35.75Y-37.5
X35.75Y-45.0
X35.75Y-52.5
X43.25Y-7.5
X43.25Y-22.5
X43.25Y-30.0
X43.25Y-37.5
X43.25Y-45.0
X43.25Y-52.5
X44.411Y-25.102
X50.75Y-7.5
X50.75Y-52.5
X56.083Y-44.333
X58.25Y-7.5
X58.25Y-22.5
X58.25Y-30.0
X58.25Y-37.5
X58.25Y-52.5
T2
X51.502Y-33.751
X55.002Y-33.751
T3
X8.0Y-10.46
X8.0Y-13.0
X10.54Y-10.46
X10.54Y-13.0
X13.08Y-10.46
X13.08Y-13.0
X15.62Y-10.46
X15.62Y-13.0
X18.16Y-10.46
X18.16Y-13.0
X20.7Y-10.46
X20.7Y-13.0
X23.24Y-10.46
X23.24Y-13.0
X25.78Y-10.46
X25.78Y-13.0
X28.32Y-10.46
X28.32Y-13.0
X30.86Y-10.46
X30.86Y-13.0
X33.4Y-10.46
X33.4Y-13.0
X35.94Y-10.46
X35.94Y-13.0
X38.48Y-10.46
X38.48Y-13.0
X41.02Y-10.46
X41.02Y-13.0
X43.56Y-10.46
X43.56Y-13.0
X46.1Y-10.46
X46.1Y-13.0
X48.64Y-10.46
X48.64Y-13.0
X51.18Y-10.46
X51.18Y-13.0
X53.72Y-10.46
X53.72Y-13.0
X56.26Y-10.46
X56.26Y-13.0
T4
X10.25Y-53.6
X13.75Y-53.6
T5
X4.0Y-4.0
X4.0Y-56.0
X60.0Y-4.0
X60.0Y-56.0
M30
