%TF.GenerationSoftware,KiCad,Pcbnew,10.0.6*%
%TF.CreationDate,2026-09-04T10:41:54+02:00*%
%TF.ProjectId,Dimmer1,44696d6d-6572-4312-9e6b-696361645f70,rev?*%
%TF.SameCoordinates,Original*%
%TF.FileFunction,Soldermask,Top*%
%TF.FilePolarity,Negative*%
%FSLAX46Y46*%
G04 Gerber Fmt 4.6, Leading zero omitted, Abs format (unit mm)*
G04 Created by KiCad (PCBNEW 10.0.6) date 2026-09-04 10:41:54*
%MOMM*%
%LPD*%
G01*
G04 APERTURE LIST*
G04 APERTURE END LIST*
G36*
X4373513Y-54444208D02*
G01*
X4612293Y-54521793D01*
X4835998Y-54635776D01*
X5039117Y-54783350D01*
X5216650Y-54960883D01*
X5364224Y-55164002D01*
X5478207Y-55387707D01*
X5555792Y-55626487D01*
X5595068Y-55874465D01*
X5595068Y-56125535D01*
X5555792Y-56373513D01*
X5478207Y-56612293D01*
X5364224Y-56835998D01*
X5216650Y-57039117D01*
X5039117Y-57216650D01*
X4835998Y-57364224D01*
X4612293Y-57478207D01*
X4373513Y-57555792D01*
X4125535Y-57595068D01*
X3874465Y-57595068D01*
X3626487Y-57555792D01*
X3387707Y-57478207D01*
X3164002Y-57364224D01*
X2960883Y-57216650D01*
X2783350Y-57039117D01*
X2635776Y-56835998D01*
X2521793Y-56612293D01*
X2444208Y-56373513D01*
X2404932Y-56125535D01*
X2404932Y-55874465D01*
X2444208Y-55626487D01*
X2521793Y-55387707D01*
X2635776Y-55164002D01*
X2783350Y-54960883D01*
X2960883Y-54783350D01*
X3164002Y-54635776D01*
X3387707Y-54521793D01*
X3626487Y-54444208D01*
X3874465Y-54404932D01*
X4125535Y-54404932D01*
X4373513Y-54444208D01*
G37*
G36*
X60373513Y-54444208D02*
G01*
X60612293Y-54521793D01*
X60835998Y-54635776D01*
X61039117Y-54783350D01*
X61216650Y-54960883D01*
X61364224Y-55164002D01*
X61478207Y-55387707D01*
X61555792Y-55626487D01*
X61595068Y-55874465D01*
X61595068Y-56125535D01*
X61555792Y-56373513D01*
X61478207Y-56612293D01*
X61364224Y-56835998D01*
X61216650Y-57039117D01*
X61039117Y-57216650D01*
X60835998Y-57364224D01*
X60612293Y-57478207D01*
X60373513Y-57555792D01*
X60125535Y-57595068D01*
X59874465Y-57595068D01*
X59626487Y-57555792D01*
X59387707Y-57478207D01*
X59164002Y-57364224D01*
X58960883Y-57216650D01*
X58783350Y-57039117D01*
X58635776Y-56835998D01*
X58521793Y-56612293D01*
X58444208Y-56373513D01*
X58404932Y-56125535D01*
X58404932Y-55874465D01*
X58444208Y-55626487D01*
X58521793Y-55387707D01*
X58635776Y-55164002D01*
X58783350Y-54960883D01*
X58960883Y-54783350D01*
X59164002Y-54635776D01*
X59387707Y-54521793D01*
X59626487Y-54444208D01*
X59874465Y-54404932D01*
X60125535Y-54404932D01*
X60373513Y-54444208D01*
G37*
G36*
X11204046Y-52400805D02*
G01*
X11255407Y-52406764D01*
X11272953Y-52414511D01*
X11295670Y-52419030D01*
X11319987Y-52435278D01*
X11340793Y-52444465D01*
X11355004Y-52458676D01*
X11376776Y-52473224D01*
X11391323Y-52494995D01*
X11405534Y-52509206D01*
X11414719Y-52530010D01*
X11430970Y-52554330D01*
X11435488Y-52577047D01*
X11443235Y-52594592D01*
X11449196Y-52645966D01*
X11449999Y-52650002D01*
X11449999Y-52652883D01*
X11450000Y-52652892D01*
X11450000Y-53694141D01*
X11450000Y-54549999D01*
X11449194Y-54554048D01*
X11443235Y-54605407D01*
X11435489Y-54622949D01*
X11430970Y-54645670D01*
X11414718Y-54669991D01*
X11405534Y-54690793D01*
X11391325Y-54705001D01*
X11376776Y-54726776D01*
X11355001Y-54741325D01*
X11340793Y-54755534D01*
X11319991Y-54764718D01*
X11295670Y-54780970D01*
X11272950Y-54785488D01*
X11255407Y-54793235D01*
X11204034Y-54799196D01*
X11199998Y-54799999D01*
X11197115Y-54799999D01*
X11197107Y-54800000D01*
X9302893Y-54800000D01*
X9302892Y-54799999D01*
X9300001Y-54800000D01*
X9295951Y-54799194D01*
X9244592Y-54793235D01*
X9227048Y-54785488D01*
X9204330Y-54780970D01*
X9180010Y-54764719D01*
X9159206Y-54755534D01*
X9144995Y-54741323D01*
X9123224Y-54726776D01*
X9108676Y-54705004D01*
X9094465Y-54690793D01*
X9085278Y-54669987D01*
X9069030Y-54645670D01*
X9064511Y-54622954D01*
X9056764Y-54605407D01*
X9050803Y-54554033D01*
X9050001Y-54549998D01*
X9050000Y-54547115D01*
X9050000Y-54547107D01*
X9050000Y-52652892D01*
X9050000Y-52652891D01*
X9050000Y-52650001D01*
X9050804Y-52645954D01*
X9056764Y-52594592D01*
X9064511Y-52577044D01*
X9069030Y-52554330D01*
X9085277Y-52530014D01*
X9094465Y-52509206D01*
X9108678Y-52494992D01*
X9123224Y-52473224D01*
X9144992Y-52458678D01*
X9159206Y-52444465D01*
X9180014Y-52435277D01*
X9204330Y-52419030D01*
X9227043Y-52414512D01*
X9244592Y-52406764D01*
X9295967Y-52400803D01*
X9300002Y-52400001D01*
X9302884Y-52400000D01*
X9302893Y-52400000D01*
X11197107Y-52400000D01*
X11199999Y-52400000D01*
X11204046Y-52400805D01*
G37*
G36*
X14030134Y-52433156D02*
G01*
X14209220Y-52491345D01*
X14376998Y-52576832D01*
X14529338Y-52687513D01*
X14662487Y-52820662D01*
X14773168Y-52973002D01*
X14858655Y-53140780D01*
X14916844Y-53319866D01*
X14946301Y-53505849D01*
X14946301Y-53694151D01*
X14916844Y-53880134D01*
X14858655Y-54059220D01*
X14773168Y-54226998D01*
X14662487Y-54379338D01*
X14529338Y-54512487D01*
X14376998Y-54623168D01*
X14209220Y-54708655D01*
X14030134Y-54766844D01*
X13844151Y-54796301D01*
X13655849Y-54796301D01*
X13469866Y-54766844D01*
X13290780Y-54708655D01*
X13123002Y-54623168D01*
X12970662Y-54512487D01*
X12837513Y-54379338D01*
X12726832Y-54226998D01*
X12641345Y-54059220D01*
X12583156Y-53880134D01*
X12553699Y-53694151D01*
X12553699Y-53505849D01*
X12583156Y-53319866D01*
X12641345Y-53140780D01*
X12726832Y-52973002D01*
X12837513Y-52820662D01*
X12970662Y-52687513D01*
X13123002Y-52576832D01*
X13290780Y-52491345D01*
X13469866Y-52433156D01*
X13655849Y-52403699D01*
X13844151Y-52403699D01*
X14030134Y-52433156D01*
G37*
G36*
X54900000Y-45040000D02*
G01*
X51900000Y-45040000D01*
X51900000Y-44040000D01*
X54900000Y-44040000D01*
X54900000Y-45040000D01*
G37*
G36*
X59940000Y-45040000D02*
G01*
X56940000Y-45040000D01*
X56940000Y-44040000D01*
X59940000Y-44040000D01*
X59940000Y-45040000D01*
G37*
G36*
X12304049Y-37100804D02*
G01*
X12355410Y-37106763D01*
X12372960Y-37114512D01*
X12395673Y-37119030D01*
X12419989Y-37135277D01*
X12440795Y-37144464D01*
X12455004Y-37158673D01*
X12476778Y-37173222D01*
X12491326Y-37194995D01*
X12505535Y-37209204D01*
X12514720Y-37230008D01*
X12530970Y-37254327D01*
X12535487Y-37277040D01*
X12543236Y-37294589D01*
X12549196Y-37345964D01*
X12549999Y-37349998D01*
X12549999Y-37352879D01*
X12550000Y-37352888D01*
X12550000Y-40347107D01*
X12550000Y-42650003D01*
X12549194Y-42654050D01*
X12543236Y-42705410D01*
X12535488Y-42722956D01*
X12530970Y-42745673D01*
X12514719Y-42769993D01*
X12505535Y-42790795D01*
X12491328Y-42805001D01*
X12476778Y-42826778D01*
X12455001Y-42841328D01*
X12440795Y-42855535D01*
X12419993Y-42864719D01*
X12395673Y-42880970D01*
X12372957Y-42885488D01*
X12355410Y-42893236D01*
X12304037Y-42899196D01*
X12300002Y-42899999D01*
X12297119Y-42899999D01*
X12297111Y-42900000D01*
X6402889Y-42900000D01*
X6402888Y-42899999D01*
X6399997Y-42900000D01*
X6395949Y-42899194D01*
X6344589Y-42893236D01*
X6327042Y-42885488D01*
X6304327Y-42880970D01*
X6280008Y-42864720D01*
X6259204Y-42855535D01*
X6244995Y-42841326D01*
X6223222Y-42826778D01*
X6208673Y-42805004D01*
X6194464Y-42790795D01*
X6185277Y-42769989D01*
X6169030Y-42745673D01*
X6164512Y-42722961D01*
X6156763Y-42705410D01*
X6150803Y-42654035D01*
X6150001Y-42650002D01*
X6150000Y-42647119D01*
X6150000Y-42647111D01*
X6150000Y-37352888D01*
X6150000Y-37352887D01*
X6150000Y-37349997D01*
X6150804Y-37345951D01*
X6156763Y-37294589D01*
X6164512Y-37277038D01*
X6169030Y-37254327D01*
X6185276Y-37230012D01*
X6194464Y-37209204D01*
X6208675Y-37194992D01*
X6223222Y-37173222D01*
X6244992Y-37158675D01*
X6259204Y-37144464D01*
X6280012Y-37135276D01*
X6304327Y-37119030D01*
X6327036Y-37114513D01*
X6344589Y-37106763D01*
X6395964Y-37100803D01*
X6399998Y-37100001D01*
X6402880Y-37100000D01*
X6402889Y-37100000D01*
X12297111Y-37100000D01*
X12300003Y-37100000D01*
X12304049Y-37100804D01*
G37*
G36*
X3904047Y-41680805D02*
G01*
X3955408Y-41686764D01*
X3972954Y-41694511D01*
X3995671Y-41699030D01*
X4019991Y-41715280D01*
X4040793Y-41724465D01*
X4055000Y-41738672D01*
X4076777Y-41753223D01*
X4091327Y-41774999D01*
X4105534Y-41789206D01*
X4114718Y-41810006D01*
X4130970Y-41834329D01*
X4135489Y-41857048D01*
X4143235Y-41874591D01*
X4149192Y-41925940D01*
X4150000Y-41930000D01*
X4150000Y-42630000D01*
X4149192Y-42634059D01*
X4143235Y-42685408D01*
X4135489Y-42702950D01*
X4130970Y-42725671D01*
X4114716Y-42749995D01*
X4105534Y-42770793D01*
X4091329Y-42784997D01*
X4076777Y-42806777D01*
X4054997Y-42821329D01*
X4040793Y-42835534D01*
X4019995Y-42844716D01*
X3995671Y-42860970D01*
X3972950Y-42865489D01*
X3955408Y-42873235D01*
X3904061Y-42879192D01*
X3900000Y-42880000D01*
X2200000Y-42880000D01*
X2195941Y-42879192D01*
X2144591Y-42873235D01*
X2127048Y-42865489D01*
X2104329Y-42860970D01*
X2080006Y-42844718D01*
X2059206Y-42835534D01*
X2044999Y-42821327D01*
X2023223Y-42806777D01*
X2008672Y-42785000D01*
X1994465Y-42770793D01*
X1985280Y-42749991D01*
X1969030Y-42725671D01*
X1964511Y-42702954D01*
X1956764Y-42685408D01*
X1950805Y-42634049D01*
X1950000Y-42630000D01*
X1950000Y-41930000D01*
X1950804Y-41925953D01*
X1956764Y-41874591D01*
X1964511Y-41857043D01*
X1969030Y-41834329D01*
X1985278Y-41810010D01*
X1994465Y-41789206D01*
X2008674Y-41774996D01*
X2023223Y-41753223D01*
X2044996Y-41738674D01*
X2059206Y-41724465D01*
X2080010Y-41715278D01*
X2104329Y-41699030D01*
X2127043Y-41694511D01*
X2144591Y-41686764D01*
X2195952Y-41680805D01*
X2200000Y-41680000D01*
X3900000Y-41680000D01*
X3904047Y-41680805D01*
G37*
G36*
X54900000Y-42500000D02*
G01*
X51900000Y-42500000D01*
X51900000Y-41500000D01*
X54900000Y-41500000D01*
X54900000Y-42500000D01*
G37*
G36*
X59940000Y-42500000D02*
G01*
X56940000Y-42500000D01*
X56940000Y-41500000D01*
X59940000Y-41500000D01*
X59940000Y-42500000D01*
G37*
G36*
X3904047Y-39400805D02*
G01*
X3955408Y-39406764D01*
X3972954Y-39414511D01*
X3995671Y-39419030D01*
X4019991Y-39435280D01*
X4040793Y-39444465D01*
X4055000Y-39458672D01*
X4076777Y-39473223D01*
X4091327Y-39494999D01*
X4105534Y-39509206D01*
X4114718Y-39530006D01*
X4130970Y-39554329D01*
X4135489Y-39577048D01*
X4143235Y-39594591D01*
X4149192Y-39645940D01*
X4150000Y-39650000D01*
X4150000Y-40350000D01*
X4149192Y-40354059D01*
X4143235Y-40405408D01*
X4135489Y-40422950D01*
X4130970Y-40445671D01*
X4114716Y-40469995D01*
X4105534Y-40490793D01*
X4091329Y-40504997D01*
X4076777Y-40526777D01*
X4054997Y-40541329D01*
X4040793Y-40555534D01*
X4019995Y-40564716D01*
X3995671Y-40580970D01*
X3972950Y-40585489D01*
X3955408Y-40593235D01*
X3904061Y-40599192D01*
X3900000Y-40600000D01*
X2200000Y-40600000D01*
X2195941Y-40599192D01*
X2144591Y-40593235D01*
X2127048Y-40585489D01*
X2104329Y-40580970D01*
X2080006Y-40564718D01*
X2059206Y-40555534D01*
X2044999Y-40541327D01*
X2023223Y-40526777D01*
X2008672Y-40505000D01*
X1994465Y-40490793D01*
X1985280Y-40469991D01*
X1969030Y-40445671D01*
X1964511Y-40422954D01*
X1956764Y-40405408D01*
X1950805Y-40354049D01*
X1950000Y-40350000D01*
X1950000Y-39650000D01*
X1950804Y-39645953D01*
X1956764Y-39594591D01*
X1964511Y-39577043D01*
X1969030Y-39554329D01*
X1985278Y-39530010D01*
X1994465Y-39509206D01*
X2008674Y-39494996D01*
X2023223Y-39473223D01*
X2044996Y-39458674D01*
X2059206Y-39444465D01*
X2080010Y-39435278D01*
X2104329Y-39419030D01*
X2127043Y-39414511D01*
X2144591Y-39406764D01*
X2195952Y-39400805D01*
X2200000Y-39400000D01*
X3900000Y-39400000D01*
X3904047Y-39400805D01*
G37*
G36*
X3904047Y-37120805D02*
G01*
X3955408Y-37126764D01*
X3972954Y-37134511D01*
X3995671Y-37139030D01*
X4019991Y-37155280D01*
X4040793Y-37164465D01*
X4055000Y-37178672D01*
X4076777Y-37193223D01*
X4091327Y-37214999D01*
X4105534Y-37229206D01*
X4114718Y-37250006D01*
X4130970Y-37274329D01*
X4135489Y-37297048D01*
X4143235Y-37314591D01*
X4149192Y-37365940D01*
X4150000Y-37370000D01*
X4150000Y-38070000D01*
X4149192Y-38074059D01*
X4143235Y-38125408D01*
X4135489Y-38142950D01*
X4130970Y-38165671D01*
X4114716Y-38189995D01*
X4105534Y-38210793D01*
X4091329Y-38224997D01*
X4076777Y-38246777D01*
X4054997Y-38261329D01*
X4040793Y-38275534D01*
X4019995Y-38284716D01*
X3995671Y-38300970D01*
X3972950Y-38305489D01*
X3955408Y-38313235D01*
X3904061Y-38319192D01*
X3900000Y-38320000D01*
X2200000Y-38320000D01*
X2195941Y-38319192D01*
X2144591Y-38313235D01*
X2127048Y-38305489D01*
X2104329Y-38300970D01*
X2080006Y-38284718D01*
X2059206Y-38275534D01*
X2044999Y-38261327D01*
X2023223Y-38246777D01*
X2008672Y-38225000D01*
X1994465Y-38210793D01*
X1985280Y-38189991D01*
X1969030Y-38165671D01*
X1964511Y-38142954D01*
X1956764Y-38125408D01*
X1950805Y-38074049D01*
X1950000Y-38070000D01*
X1950000Y-37370000D01*
X1950804Y-37365953D01*
X1956764Y-37314591D01*
X1964511Y-37297043D01*
X1969030Y-37274329D01*
X1985278Y-37250010D01*
X1994465Y-37229206D01*
X2008674Y-37214996D01*
X2023223Y-37193223D01*
X2044996Y-37178674D01*
X2059206Y-37164465D01*
X2080010Y-37155278D01*
X2104329Y-37139030D01*
X2127043Y-37134511D01*
X2144591Y-37126764D01*
X2195952Y-37120805D01*
X2200000Y-37120000D01*
X3900000Y-37120000D01*
X3904047Y-37120805D01*
G37*
G36*
X52056526Y-32952043D02*
G01*
X52107887Y-32958002D01*
X52125433Y-32965749D01*
X52148150Y-32970268D01*
X52172470Y-32986518D01*
X52193272Y-32995703D01*
X52207479Y-33009910D01*
X52229256Y-33024461D01*
X52243806Y-33046237D01*
X52258013Y-33060444D01*
X52267197Y-33081244D01*
X52283449Y-33105567D01*
X52287968Y-33128286D01*
X52295714Y-33145829D01*
X52301671Y-33197178D01*
X52302479Y-33201238D01*
X52302479Y-34301238D01*
X52301671Y-34305297D01*
X52295714Y-34356646D01*
X52287968Y-34374188D01*
X52283449Y-34396909D01*
X52267195Y-34421233D01*
X52258013Y-34442031D01*
X52243808Y-34456235D01*
X52229256Y-34478015D01*
X52207476Y-34492567D01*
X52193272Y-34506772D01*
X52172474Y-34515954D01*
X52148150Y-34532208D01*
X52125429Y-34536727D01*
X52107887Y-34544473D01*
X52056540Y-34550430D01*
X52052479Y-34551238D01*
X50952479Y-34551238D01*
X50948420Y-34550430D01*
X50897070Y-34544473D01*
X50879527Y-34536727D01*
X50856808Y-34532208D01*
X50832485Y-34515956D01*
X50811685Y-34506772D01*
X50797478Y-34492565D01*
X50775702Y-34478015D01*
X50761151Y-34456238D01*
X50746944Y-34442031D01*
X50737759Y-34421229D01*
X50721509Y-34396909D01*
X50716990Y-34374192D01*
X50709243Y-34356646D01*
X50703284Y-34305287D01*
X50702479Y-34301238D01*
X50702479Y-33201238D01*
X50703283Y-33197191D01*
X50709243Y-33145829D01*
X50716990Y-33128281D01*
X50721509Y-33105567D01*
X50737757Y-33081248D01*
X50746944Y-33060444D01*
X50761153Y-33046234D01*
X50775702Y-33024461D01*
X50797475Y-33009912D01*
X50811685Y-32995703D01*
X50832489Y-32986516D01*
X50856808Y-32970268D01*
X50879522Y-32965749D01*
X50897070Y-32958002D01*
X50948431Y-32952043D01*
X50952479Y-32951238D01*
X52052479Y-32951238D01*
X52056526Y-32952043D01*
G37*
G36*
X6204047Y-33150805D02*
G01*
X6255408Y-33156764D01*
X6272954Y-33164511D01*
X6295671Y-33169030D01*
X6319991Y-33185280D01*
X6340793Y-33194465D01*
X6355000Y-33208672D01*
X6376777Y-33223223D01*
X6391327Y-33244999D01*
X6405534Y-33259206D01*
X6414718Y-33280006D01*
X6430970Y-33304329D01*
X6435489Y-33327048D01*
X6443235Y-33344591D01*
X6449192Y-33395940D01*
X6450000Y-33400000D01*
X6450000Y-34300000D01*
X6449192Y-34304059D01*
X6443235Y-34355408D01*
X6435489Y-34372950D01*
X6430970Y-34395671D01*
X6414716Y-34419995D01*
X6405534Y-34440793D01*
X6391329Y-34454997D01*
X6376777Y-34476777D01*
X6354997Y-34491329D01*
X6340793Y-34505534D01*
X6319995Y-34514716D01*
X6295671Y-34530970D01*
X6272950Y-34535489D01*
X6255408Y-34543235D01*
X6204061Y-34549192D01*
X6200000Y-34550000D01*
X5500000Y-34550000D01*
X5495941Y-34549192D01*
X5444591Y-34543235D01*
X5427048Y-34535489D01*
X5404329Y-34530970D01*
X5380006Y-34514718D01*
X5359206Y-34505534D01*
X5344999Y-34491327D01*
X5323223Y-34476777D01*
X5308672Y-34455000D01*
X5294465Y-34440793D01*
X5285280Y-34419991D01*
X5269030Y-34395671D01*
X5264511Y-34372954D01*
X5256764Y-34355408D01*
X5250805Y-34304049D01*
X5250000Y-34300000D01*
X5250000Y-33400000D01*
X5250804Y-33395953D01*
X5256764Y-33344591D01*
X5264511Y-33327043D01*
X5269030Y-33304329D01*
X5285278Y-33280010D01*
X5294465Y-33259206D01*
X5308674Y-33244996D01*
X5323223Y-33223223D01*
X5344996Y-33208674D01*
X5359206Y-33194465D01*
X5380010Y-33185278D01*
X5404329Y-33169030D01*
X5427043Y-33164511D01*
X5444591Y-33156764D01*
X5495952Y-33150805D01*
X5500000Y-33150000D01*
X6200000Y-33150000D01*
X6204047Y-33150805D01*
G37*
G36*
X8204047Y-33150805D02*
G01*
X8255408Y-33156764D01*
X8272954Y-33164511D01*
X8295671Y-33169030D01*
X8319991Y-33185280D01*
X8340793Y-33194465D01*
X8355000Y-33208672D01*
X8376777Y-33223223D01*
X8391327Y-33244999D01*
X8405534Y-33259206D01*
X8414718Y-33280006D01*
X8430970Y-33304329D01*
X8435489Y-33327048D01*
X8443235Y-33344591D01*
X8449192Y-33395940D01*
X8450000Y-33400000D01*
X8450000Y-34300000D01*
X8449192Y-34304059D01*
X8443235Y-34355408D01*
X8435489Y-34372950D01*
X8430970Y-34395671D01*
X8414716Y-34419995D01*
X8405534Y-34440793D01*
X8391329Y-34454997D01*
X8376777Y-34476777D01*
X8354997Y-34491329D01*
X8340793Y-34505534D01*
X8319995Y-34514716D01*
X8295671Y-34530970D01*
X8272950Y-34535489D01*
X8255408Y-34543235D01*
X8204061Y-34549192D01*
X8200000Y-34550000D01*
X7500000Y-34550000D01*
X7495941Y-34549192D01*
X7444591Y-34543235D01*
X7427048Y-34535489D01*
X7404329Y-34530970D01*
X7380006Y-34514718D01*
X7359206Y-34505534D01*
X7344999Y-34491327D01*
X7323223Y-34476777D01*
X7308672Y-34455000D01*
X7294465Y-34440793D01*
X7285280Y-34419991D01*
X7269030Y-34395671D01*
X7264511Y-34372954D01*
X7256764Y-34355408D01*
X7250805Y-34304049D01*
X7250000Y-34300000D01*
X7250000Y-33400000D01*
X7250804Y-33395953D01*
X7256764Y-33344591D01*
X7264511Y-33327043D01*
X7269030Y-33304329D01*
X7285278Y-33280010D01*
X7294465Y-33259206D01*
X7308674Y-33244996D01*
X7323223Y-33223223D01*
X7344996Y-33208674D01*
X7359206Y-33194465D01*
X7380010Y-33185278D01*
X7404329Y-33169030D01*
X7427043Y-33164511D01*
X7444591Y-33156764D01*
X7495952Y-33150805D01*
X7500000Y-33150000D01*
X8200000Y-33150000D01*
X8204047Y-33150805D01*
G37*
G36*
X10504047Y-33150805D02*
G01*
X10555408Y-33156764D01*
X10572954Y-33164511D01*
X10595671Y-33169030D01*
X10619991Y-33185280D01*
X10640793Y-33194465D01*
X10655000Y-33208672D01*
X10676777Y-33223223D01*
X10691327Y-33244999D01*
X10705534Y-33259206D01*
X10714718Y-33280006D01*
X10730970Y-33304329D01*
X10735489Y-33327048D01*
X10743235Y-33344591D01*
X10749192Y-33395940D01*
X10750000Y-33400000D01*
X10750000Y-34300000D01*
X10749192Y-34304059D01*
X10743235Y-34355408D01*
X10735489Y-34372950D01*
X10730970Y-34395671D01*
X10714716Y-34419995D01*
X10705534Y-34440793D01*
X10691329Y-34454997D01*
X10676777Y-34476777D01*
X10654997Y-34491329D01*
X10640793Y-34505534D01*
X10619995Y-34514716D01*
X10595671Y-34530970D01*
X10572950Y-34535489D01*
X10555408Y-34543235D01*
X10504061Y-34549192D01*
X10500000Y-34550000D01*
X9800000Y-34550000D01*
X9795941Y-34549192D01*
X9744591Y-34543235D01*
X9727048Y-34535489D01*
X9704329Y-34530970D01*
X9680006Y-34514718D01*
X9659206Y-34505534D01*
X9644999Y-34491327D01*
X9623223Y-34476777D01*
X9608672Y-34455000D01*
X9594465Y-34440793D01*
X9585280Y-34419991D01*
X9569030Y-34395671D01*
X9564511Y-34372954D01*
X9556764Y-34355408D01*
X9550805Y-34304049D01*
X9550000Y-34300000D01*
X9550000Y-33400000D01*
X9550804Y-33395953D01*
X9556764Y-33344591D01*
X9564511Y-33327043D01*
X9569030Y-33304329D01*
X9585278Y-33280010D01*
X9594465Y-33259206D01*
X9608674Y-33244996D01*
X9623223Y-33223223D01*
X9644996Y-33208674D01*
X9659206Y-33194465D01*
X9680010Y-33185278D01*
X9704329Y-33169030D01*
X9727043Y-33164511D01*
X9744591Y-33156764D01*
X9795952Y-33150805D01*
X9800000Y-33150000D01*
X10500000Y-33150000D01*
X10504047Y-33150805D01*
G37*
G36*
X12504047Y-33150805D02*
G01*
X12555408Y-33156764D01*
X12572954Y-33164511D01*
X12595671Y-33169030D01*
X12619991Y-33185280D01*
X12640793Y-33194465D01*
X12655000Y-33208672D01*
X12676777Y-33223223D01*
X12691327Y-33244999D01*
X12705534Y-33259206D01*
X12714718Y-33280006D01*
X12730970Y-33304329D01*
X12735489Y-33327048D01*
X12743235Y-33344591D01*
X12749192Y-33395940D01*
X12750000Y-33400000D01*
X12750000Y-34300000D01*
X12749192Y-34304059D01*
X12743235Y-34355408D01*
X12735489Y-34372950D01*
X12730970Y-34395671D01*
X12714716Y-34419995D01*
X12705534Y-34440793D01*
X12691329Y-34454997D01*
X12676777Y-34476777D01*
X12654997Y-34491329D01*
X12640793Y-34505534D01*
X12619995Y-34514716D01*
X12595671Y-34530970D01*
X12572950Y-34535489D01*
X12555408Y-34543235D01*
X12504061Y-34549192D01*
X12500000Y-34550000D01*
X11800000Y-34550000D01*
X11795941Y-34549192D01*
X11744591Y-34543235D01*
X11727048Y-34535489D01*
X11704329Y-34530970D01*
X11680006Y-34514718D01*
X11659206Y-34505534D01*
X11644999Y-34491327D01*
X11623223Y-34476777D01*
X11608672Y-34455000D01*
X11594465Y-34440793D01*
X11585280Y-34419991D01*
X11569030Y-34395671D01*
X11564511Y-34372954D01*
X11556764Y-34355408D01*
X11550805Y-34304049D01*
X11550000Y-34300000D01*
X11550000Y-33400000D01*
X11550804Y-33395953D01*
X11556764Y-33344591D01*
X11564511Y-33327043D01*
X11569030Y-33304329D01*
X11585278Y-33280010D01*
X11594465Y-33259206D01*
X11608674Y-33244996D01*
X11623223Y-33223223D01*
X11644996Y-33208674D01*
X11659206Y-33194465D01*
X11680010Y-33185278D01*
X11704329Y-33169030D01*
X11727043Y-33164511D01*
X11744591Y-33156764D01*
X11795952Y-33150805D01*
X11800000Y-33150000D01*
X12500000Y-33150000D01*
X12504047Y-33150805D01*
G37*
G36*
X55234707Y-32985686D02*
G01*
X55379596Y-33045701D01*
X55509994Y-33132830D01*
X55620887Y-33243723D01*
X55708016Y-33374121D01*
X55768031Y-33519010D01*
X55798627Y-33672824D01*
X55798627Y-33829652D01*
X55768031Y-33983466D01*
X55708016Y-34128355D01*
X55620887Y-34258753D01*
X55509994Y-34369646D01*
X55379596Y-34456775D01*
X55234707Y-34516790D01*
X55080893Y-34547386D01*
X54924065Y-34547386D01*
X54770251Y-34516790D01*
X54625362Y-34456775D01*
X54494964Y-34369646D01*
X54384071Y-34258753D01*
X54296942Y-34128355D01*
X54236927Y-33983466D01*
X54206331Y-33829652D01*
X54206331Y-33672824D01*
X54236927Y-33519010D01*
X54296942Y-33374121D01*
X54384071Y-33243723D01*
X54494964Y-33132830D01*
X54625362Y-33045701D01*
X54770251Y-32985686D01*
X54924065Y-32955090D01*
X55080893Y-32955090D01*
X55234707Y-32985686D01*
G37*
G36*
X16204047Y-30900805D02*
G01*
X16255408Y-30906764D01*
X16272954Y-30914511D01*
X16295671Y-30919030D01*
X16319991Y-30935280D01*
X16340793Y-30944465D01*
X16355000Y-30958672D01*
X16376777Y-30973223D01*
X16391327Y-30994999D01*
X16405534Y-31009206D01*
X16414718Y-31030006D01*
X16430970Y-31054329D01*
X16435489Y-31077048D01*
X16443235Y-31094591D01*
X16449192Y-31145940D01*
X16450000Y-31150000D01*
X16450000Y-33950000D01*
X16449192Y-33954059D01*
X16443235Y-34005408D01*
X16435489Y-34022950D01*
X16430970Y-34045671D01*
X16414716Y-34069995D01*
X16405534Y-34090793D01*
X16391329Y-34104997D01*
X16376777Y-34126777D01*
X16354997Y-34141329D01*
X16340793Y-34155534D01*
X16319995Y-34164716D01*
X16295671Y-34180970D01*
X16272950Y-34185489D01*
X16255408Y-34193235D01*
X16204061Y-34199192D01*
X16200000Y-34200000D01*
X14200000Y-34200000D01*
X14195941Y-34199192D01*
X14144591Y-34193235D01*
X14127048Y-34185489D01*
X14104329Y-34180970D01*
X14080006Y-34164718D01*
X14059206Y-34155534D01*
X14044999Y-34141327D01*
X14023223Y-34126777D01*
X14008672Y-34105000D01*
X13994465Y-34090793D01*
X13985280Y-34069991D01*
X13969030Y-34045671D01*
X13964511Y-34022954D01*
X13956764Y-34005408D01*
X13950805Y-33954049D01*
X13950000Y-33950000D01*
X13950000Y-31150000D01*
X13950804Y-31145953D01*
X13956764Y-31094591D01*
X13964511Y-31077043D01*
X13969030Y-31054329D01*
X13985278Y-31030010D01*
X13994465Y-31009206D01*
X14008674Y-30994996D01*
X14023223Y-30973223D01*
X14044996Y-30958674D01*
X14059206Y-30944465D01*
X14080010Y-30935278D01*
X14104329Y-30919030D01*
X14127043Y-30914511D01*
X14144591Y-30906764D01*
X14195952Y-30900805D01*
X14200000Y-30900000D01*
X16200000Y-30900000D01*
X16204047Y-30900805D01*
G37*
G36*
X23004047Y-30900805D02*
G01*
X23055408Y-30906764D01*
X23072954Y-30914511D01*
X23095671Y-30919030D01*
X23119991Y-30935280D01*
X23140793Y-30944465D01*
X23155000Y-30958672D01*
X23176777Y-30973223D01*
X23191327Y-30994999D01*
X23205534Y-31009206D01*
X23214718Y-31030006D01*
X23230970Y-31054329D01*
X23235489Y-31077048D01*
X23243235Y-31094591D01*
X23249192Y-31145940D01*
X23250000Y-31150000D01*
X23250000Y-33950000D01*
X23249192Y-33954059D01*
X23243235Y-34005408D01*
X23235489Y-34022950D01*
X23230970Y-34045671D01*
X23214716Y-34069995D01*
X23205534Y-34090793D01*
X23191329Y-34104997D01*
X23176777Y-34126777D01*
X23154997Y-34141329D01*
X23140793Y-34155534D01*
X23119995Y-34164716D01*
X23095671Y-34180970D01*
X23072950Y-34185489D01*
X23055408Y-34193235D01*
X23004061Y-34199192D01*
X23000000Y-34200000D01*
X21000000Y-34200000D01*
X20995941Y-34199192D01*
X20944591Y-34193235D01*
X20927048Y-34185489D01*
X20904329Y-34180970D01*
X20880006Y-34164718D01*
X20859206Y-34155534D01*
X20844999Y-34141327D01*
X20823223Y-34126777D01*
X20808672Y-34105000D01*
X20794465Y-34090793D01*
X20785280Y-34069991D01*
X20769030Y-34045671D01*
X20764511Y-34022954D01*
X20756764Y-34005408D01*
X20750805Y-33954049D01*
X20750000Y-33950000D01*
X20750000Y-31150000D01*
X20750804Y-31145953D01*
X20756764Y-31094591D01*
X20764511Y-31077043D01*
X20769030Y-31054329D01*
X20785278Y-31030010D01*
X20794465Y-31009206D01*
X20808674Y-30994996D01*
X20823223Y-30973223D01*
X20844996Y-30958674D01*
X20859206Y-30944465D01*
X20880010Y-30935278D01*
X20904329Y-30919030D01*
X20927043Y-30914511D01*
X20944591Y-30906764D01*
X20995952Y-30900805D01*
X21000000Y-30900000D01*
X23000000Y-30900000D01*
X23004047Y-30900805D01*
G37*
G36*
X6204047Y-30250805D02*
G01*
X6255408Y-30256764D01*
X6272954Y-30264511D01*
X6295671Y-30269030D01*
X6319991Y-30285280D01*
X6340793Y-30294465D01*
X6355000Y-30308672D01*
X6376777Y-30323223D01*
X6391327Y-30344999D01*
X6405534Y-30359206D01*
X6414718Y-30380006D01*
X6430970Y-30404329D01*
X6435489Y-30427048D01*
X6443235Y-30444591D01*
X6449192Y-30495940D01*
X6450000Y-30500000D01*
X6450000Y-31400000D01*
X6449192Y-31404059D01*
X6443235Y-31455408D01*
X6435489Y-31472950D01*
X6430970Y-31495671D01*
X6414716Y-31519995D01*
X6405534Y-31540793D01*
X6391329Y-31554997D01*
X6376777Y-31576777D01*
X6354997Y-31591329D01*
X6340793Y-31605534D01*
X6319995Y-31614716D01*
X6295671Y-31630970D01*
X6272950Y-31635489D01*
X6255408Y-31643235D01*
X6204061Y-31649192D01*
X6200000Y-31650000D01*
X5500000Y-31650000D01*
X5495941Y-31649192D01*
X5444591Y-31643235D01*
X5427048Y-31635489D01*
X5404329Y-31630970D01*
X5380006Y-31614718D01*
X5359206Y-31605534D01*
X5344999Y-31591327D01*
X5323223Y-31576777D01*
X5308672Y-31555000D01*
X5294465Y-31540793D01*
X5285280Y-31519991D01*
X5269030Y-31495671D01*
X5264511Y-31472954D01*
X5256764Y-31455408D01*
X5250805Y-31404049D01*
X5250000Y-31400000D01*
X5250000Y-30500000D01*
X5250804Y-30495953D01*
X5256764Y-30444591D01*
X5264511Y-30427043D01*
X5269030Y-30404329D01*
X5285278Y-30380010D01*
X5294465Y-30359206D01*
X5308674Y-30344996D01*
X5323223Y-30323223D01*
X5344996Y-30308674D01*
X5359206Y-30294465D01*
X5380010Y-30285278D01*
X5404329Y-30269030D01*
X5427043Y-30264511D01*
X5444591Y-30256764D01*
X5495952Y-30250805D01*
X5500000Y-30250000D01*
X6200000Y-30250000D01*
X6204047Y-30250805D01*
G37*
G36*
X8204047Y-30250805D02*
G01*
X8255408Y-30256764D01*
X8272954Y-30264511D01*
X8295671Y-30269030D01*
X8319991Y-30285280D01*
X8340793Y-30294465D01*
X8355000Y-30308672D01*
X8376777Y-30323223D01*
X8391327Y-30344999D01*
X8405534Y-30359206D01*
X8414718Y-30380006D01*
X8430970Y-30404329D01*
X8435489Y-30427048D01*
X8443235Y-30444591D01*
X8449192Y-30495940D01*
X8450000Y-30500000D01*
X8450000Y-31400000D01*
X8449192Y-31404059D01*
X8443235Y-31455408D01*
X8435489Y-31472950D01*
X8430970Y-31495671D01*
X8414716Y-31519995D01*
X8405534Y-31540793D01*
X8391329Y-31554997D01*
X8376777Y-31576777D01*
X8354997Y-31591329D01*
X8340793Y-31605534D01*
X8319995Y-31614716D01*
X8295671Y-31630970D01*
X8272950Y-31635489D01*
X8255408Y-31643235D01*
X8204061Y-31649192D01*
X8200000Y-31650000D01*
X7500000Y-31650000D01*
X7495941Y-31649192D01*
X7444591Y-31643235D01*
X7427048Y-31635489D01*
X7404329Y-31630970D01*
X7380006Y-31614718D01*
X7359206Y-31605534D01*
X7344999Y-31591327D01*
X7323223Y-31576777D01*
X7308672Y-31555000D01*
X7294465Y-31540793D01*
X7285280Y-31519991D01*
X7269030Y-31495671D01*
X7264511Y-31472954D01*
X7256764Y-31455408D01*
X7250805Y-31404049D01*
X7250000Y-31400000D01*
X7250000Y-30500000D01*
X7250804Y-30495953D01*
X7256764Y-30444591D01*
X7264511Y-30427043D01*
X7269030Y-30404329D01*
X7285278Y-30380010D01*
X7294465Y-30359206D01*
X7308674Y-30344996D01*
X7323223Y-30323223D01*
X7344996Y-30308674D01*
X7359206Y-30294465D01*
X7380010Y-30285278D01*
X7404329Y-30269030D01*
X7427043Y-30264511D01*
X7444591Y-30256764D01*
X7495952Y-30250805D01*
X7500000Y-30250000D01*
X8200000Y-30250000D01*
X8204047Y-30250805D01*
G37*
G36*
X10504047Y-30250805D02*
G01*
X10555408Y-30256764D01*
X10572954Y-30264511D01*
X10595671Y-30269030D01*
X10619991Y-30285280D01*
X10640793Y-30294465D01*
X10655000Y-30308672D01*
X10676777Y-30323223D01*
X10691327Y-30344999D01*
X10705534Y-30359206D01*
X10714718Y-30380006D01*
X10730970Y-30404329D01*
X10735489Y-30427048D01*
X10743235Y-30444591D01*
X10749192Y-30495940D01*
X10750000Y-30500000D01*
X10750000Y-31400000D01*
X10749192Y-31404059D01*
X10743235Y-31455408D01*
X10735489Y-31472950D01*
X10730970Y-31495671D01*
X10714716Y-31519995D01*
X10705534Y-31540793D01*
X10691329Y-31554997D01*
X10676777Y-31576777D01*
X10654997Y-31591329D01*
X10640793Y-31605534D01*
X10619995Y-31614716D01*
X10595671Y-31630970D01*
X10572950Y-31635489D01*
X10555408Y-31643235D01*
X10504061Y-31649192D01*
X10500000Y-31650000D01*
X9800000Y-31650000D01*
X9795941Y-31649192D01*
X9744591Y-31643235D01*
X9727048Y-31635489D01*
X9704329Y-31630970D01*
X9680006Y-31614718D01*
X9659206Y-31605534D01*
X9644999Y-31591327D01*
X9623223Y-31576777D01*
X9608672Y-31555000D01*
X9594465Y-31540793D01*
X9585280Y-31519991D01*
X9569030Y-31495671D01*
X9564511Y-31472954D01*
X9556764Y-31455408D01*
X9550805Y-31404049D01*
X9550000Y-31400000D01*
X9550000Y-30500000D01*
X9550804Y-30495953D01*
X9556764Y-30444591D01*
X9564511Y-30427043D01*
X9569030Y-30404329D01*
X9585278Y-30380010D01*
X9594465Y-30359206D01*
X9608674Y-30344996D01*
X9623223Y-30323223D01*
X9644996Y-30308674D01*
X9659206Y-30294465D01*
X9680010Y-30285278D01*
X9704329Y-30269030D01*
X9727043Y-30264511D01*
X9744591Y-30256764D01*
X9795952Y-30250805D01*
X9800000Y-30250000D01*
X10500000Y-30250000D01*
X10504047Y-30250805D01*
G37*
G36*
X12504047Y-30250805D02*
G01*
X12555408Y-30256764D01*
X12572954Y-30264511D01*
X12595671Y-30269030D01*
X12619991Y-30285280D01*
X12640793Y-30294465D01*
X12655000Y-30308672D01*
X12676777Y-30323223D01*
X12691327Y-30344999D01*
X12705534Y-30359206D01*
X12714718Y-30380006D01*
X12730970Y-30404329D01*
X12735489Y-30427048D01*
X12743235Y-30444591D01*
X12749192Y-30495940D01*
X12750000Y-30500000D01*
X12750000Y-31400000D01*
X12749192Y-31404059D01*
X12743235Y-31455408D01*
X12735489Y-31472950D01*
X12730970Y-31495671D01*
X12714716Y-31519995D01*
X12705534Y-31540793D01*
X12691329Y-31554997D01*
X12676777Y-31576777D01*
X12654997Y-31591329D01*
X12640793Y-31605534D01*
X12619995Y-31614716D01*
X12595671Y-31630970D01*
X12572950Y-31635489D01*
X12555408Y-31643235D01*
X12504061Y-31649192D01*
X12500000Y-31650000D01*
X11800000Y-31650000D01*
X11795941Y-31649192D01*
X11744591Y-31643235D01*
X11727048Y-31635489D01*
X11704329Y-31630970D01*
X11680006Y-31614718D01*
X11659206Y-31605534D01*
X11644999Y-31591327D01*
X11623223Y-31576777D01*
X11608672Y-31555000D01*
X11594465Y-31540793D01*
X11585280Y-31519991D01*
X11569030Y-31495671D01*
X11564511Y-31472954D01*
X11556764Y-31455408D01*
X11550805Y-31404049D01*
X11550000Y-31400000D01*
X11550000Y-30500000D01*
X11550804Y-30495953D01*
X11556764Y-30444591D01*
X11564511Y-30427043D01*
X11569030Y-30404329D01*
X11585278Y-30380010D01*
X11594465Y-30359206D01*
X11608674Y-30344996D01*
X11623223Y-30323223D01*
X11644996Y-30308674D01*
X11659206Y-30294465D01*
X11680010Y-30285278D01*
X11704329Y-30269030D01*
X11727043Y-30264511D01*
X11744591Y-30256764D01*
X11795952Y-30250805D01*
X11800000Y-30250000D01*
X12500000Y-30250000D01*
X12504047Y-30250805D01*
G37*
G36*
X6184047Y-27355805D02*
G01*
X6235408Y-27361764D01*
X6252954Y-27369511D01*
X6275671Y-27374030D01*
X6299991Y-27390280D01*
X6320793Y-27399465D01*
X6335000Y-27413672D01*
X6356777Y-27428223D01*
X6371327Y-27449999D01*
X6385534Y-27464206D01*
X6394718Y-27485006D01*
X6410970Y-27509329D01*
X6415489Y-27532048D01*
X6423235Y-27549591D01*
X6429192Y-27600940D01*
X6430000Y-27605000D01*
X6430000Y-28555000D01*
X6429192Y-28559059D01*
X6423235Y-28610408D01*
X6415489Y-28627950D01*
X6410970Y-28650671D01*
X6394716Y-28674995D01*
X6385534Y-28695793D01*
X6371329Y-28709997D01*
X6356777Y-28731777D01*
X6334997Y-28746329D01*
X6320793Y-28760534D01*
X6299995Y-28769716D01*
X6275671Y-28785970D01*
X6252950Y-28790489D01*
X6235408Y-28798235D01*
X6184061Y-28804192D01*
X6180000Y-28805000D01*
X5505000Y-28805000D01*
X5500941Y-28804192D01*
X5449591Y-28798235D01*
X5432048Y-28790489D01*
X5409329Y-28785970D01*
X5385006Y-28769718D01*
X5364206Y-28760534D01*
X5349999Y-28746327D01*
X5328223Y-28731777D01*
X5313672Y-28710000D01*
X5299465Y-28695793D01*
X5290280Y-28674991D01*
X5274030Y-28650671D01*
X5269511Y-28627954D01*
X5261764Y-28610408D01*
X5255805Y-28559049D01*
X5255000Y-28555000D01*
X5255000Y-27605000D01*
X5255804Y-27600953D01*
X5261764Y-27549591D01*
X5269511Y-27532043D01*
X5274030Y-27509329D01*
X5290278Y-27485010D01*
X5299465Y-27464206D01*
X5313674Y-27449996D01*
X5328223Y-27428223D01*
X5349996Y-27413674D01*
X5364206Y-27399465D01*
X5385010Y-27390278D01*
X5409329Y-27374030D01*
X5432043Y-27369511D01*
X5449591Y-27361764D01*
X5500952Y-27355805D01*
X5505000Y-27355000D01*
X6180000Y-27355000D01*
X6184047Y-27355805D01*
G37*
G36*
X8259047Y-27355805D02*
G01*
X8310408Y-27361764D01*
X8327954Y-27369511D01*
X8350671Y-27374030D01*
X8374991Y-27390280D01*
X8395793Y-27399465D01*
X8410000Y-27413672D01*
X8431777Y-27428223D01*
X8446327Y-27449999D01*
X8460534Y-27464206D01*
X8469718Y-27485006D01*
X8485970Y-27509329D01*
X8490489Y-27532048D01*
X8498235Y-27549591D01*
X8504192Y-27600940D01*
X8505000Y-27605000D01*
X8505000Y-28555000D01*
X8504192Y-28559059D01*
X8498235Y-28610408D01*
X8490489Y-28627950D01*
X8485970Y-28650671D01*
X8469716Y-28674995D01*
X8460534Y-28695793D01*
X8446329Y-28709997D01*
X8431777Y-28731777D01*
X8409997Y-28746329D01*
X8395793Y-28760534D01*
X8374995Y-28769716D01*
X8350671Y-28785970D01*
X8327950Y-28790489D01*
X8310408Y-28798235D01*
X8259061Y-28804192D01*
X8255000Y-28805000D01*
X7580000Y-28805000D01*
X7575941Y-28804192D01*
X7524591Y-28798235D01*
X7507048Y-28790489D01*
X7484329Y-28785970D01*
X7460006Y-28769718D01*
X7439206Y-28760534D01*
X7424999Y-28746327D01*
X7403223Y-28731777D01*
X7388672Y-28710000D01*
X7374465Y-28695793D01*
X7365280Y-28674991D01*
X7349030Y-28650671D01*
X7344511Y-28627954D01*
X7336764Y-28610408D01*
X7330805Y-28559049D01*
X7330000Y-28555000D01*
X7330000Y-27605000D01*
X7330804Y-27600953D01*
X7336764Y-27549591D01*
X7344511Y-27532043D01*
X7349030Y-27509329D01*
X7365278Y-27485010D01*
X7374465Y-27464206D01*
X7388674Y-27449996D01*
X7403223Y-27428223D01*
X7424996Y-27413674D01*
X7439206Y-27399465D01*
X7460010Y-27390278D01*
X7484329Y-27374030D01*
X7507043Y-27369511D01*
X7524591Y-27361764D01*
X7575952Y-27355805D01*
X7580000Y-27355000D01*
X8255000Y-27355000D01*
X8259047Y-27355805D01*
G37*
G36*
X55604049Y-22100804D02*
G01*
X55655410Y-22106763D01*
X55672960Y-22114512D01*
X55695673Y-22119030D01*
X55719989Y-22135277D01*
X55740795Y-22144464D01*
X55755004Y-22158673D01*
X55776778Y-22173222D01*
X55791326Y-22194995D01*
X55805535Y-22209204D01*
X55814720Y-22230008D01*
X55830970Y-22254327D01*
X55835487Y-22277040D01*
X55843236Y-22294589D01*
X55849196Y-22345964D01*
X55849999Y-22349998D01*
X55849999Y-22352879D01*
X55850000Y-22352888D01*
X55850000Y-25032572D01*
X55850000Y-27650003D01*
X55849194Y-27654050D01*
X55843236Y-27705410D01*
X55835488Y-27722956D01*
X55830970Y-27745673D01*
X55814719Y-27769993D01*
X55805535Y-27790795D01*
X55791328Y-27805001D01*
X55776778Y-27826778D01*
X55755001Y-27841328D01*
X55740795Y-27855535D01*
X55719993Y-27864719D01*
X55695673Y-27880970D01*
X55672957Y-27885488D01*
X55655410Y-27893236D01*
X55604037Y-27899196D01*
X55600002Y-27899999D01*
X55597119Y-27899999D01*
X55597111Y-27900000D01*
X49702889Y-27900000D01*
X49702888Y-27899999D01*
X49699997Y-27900000D01*
X49695949Y-27899194D01*
X49644589Y-27893236D01*
X49627042Y-27885488D01*
X49604327Y-27880970D01*
X49580008Y-27864720D01*
X49559204Y-27855535D01*
X49544995Y-27841326D01*
X49523222Y-27826778D01*
X49508673Y-27805004D01*
X49494464Y-27790795D01*
X49485277Y-27769989D01*
X49469030Y-27745673D01*
X49464512Y-27722961D01*
X49456763Y-27705410D01*
X49450803Y-27654035D01*
X49450001Y-27650002D01*
X49450000Y-27647119D01*
X49450000Y-27647111D01*
X49450000Y-22352888D01*
X49450000Y-22352887D01*
X49450000Y-22349997D01*
X49450804Y-22345951D01*
X49456763Y-22294589D01*
X49464512Y-22277038D01*
X49469030Y-22254327D01*
X49485276Y-22230012D01*
X49494464Y-22209204D01*
X49508675Y-22194992D01*
X49523222Y-22173222D01*
X49544992Y-22158675D01*
X49559204Y-22144464D01*
X49580012Y-22135276D01*
X49604327Y-22119030D01*
X49627036Y-22114513D01*
X49644589Y-22106763D01*
X49695964Y-22100803D01*
X49699998Y-22100001D01*
X49702880Y-22100000D01*
X49702889Y-22100000D01*
X55597111Y-22100000D01*
X55600003Y-22100000D01*
X55604049Y-22100804D01*
G37*
G36*
X47204047Y-26680805D02*
G01*
X47255408Y-26686764D01*
X47272954Y-26694511D01*
X47295671Y-26699030D01*
X47319991Y-26715280D01*
X47340793Y-26724465D01*
X47355000Y-26738672D01*
X47376777Y-26753223D01*
X47391327Y-26774999D01*
X47405534Y-26789206D01*
X47414718Y-26810006D01*
X47430970Y-26834329D01*
X47435489Y-26857048D01*
X47443235Y-26874591D01*
X47449192Y-26925940D01*
X47450000Y-26930000D01*
X47450000Y-27630000D01*
X47449192Y-27634059D01*
X47443235Y-27685408D01*
X47435489Y-27702950D01*
X47430970Y-27725671D01*
X47414716Y-27749995D01*
X47405534Y-27770793D01*
X47391329Y-27784997D01*
X47376777Y-27806777D01*
X47354997Y-27821329D01*
X47340793Y-27835534D01*
X47319995Y-27844716D01*
X47295671Y-27860970D01*
X47272950Y-27865489D01*
X47255408Y-27873235D01*
X47204061Y-27879192D01*
X47200000Y-27880000D01*
X45500000Y-27880000D01*
X45495941Y-27879192D01*
X45444591Y-27873235D01*
X45427048Y-27865489D01*
X45404329Y-27860970D01*
X45380006Y-27844718D01*
X45359206Y-27835534D01*
X45344999Y-27821327D01*
X45323223Y-27806777D01*
X45308672Y-27785000D01*
X45294465Y-27770793D01*
X45285280Y-27749991D01*
X45269030Y-27725671D01*
X45264511Y-27702954D01*
X45256764Y-27685408D01*
X45250805Y-27634049D01*
X45250000Y-27630000D01*
X45250000Y-26930000D01*
X45250804Y-26925953D01*
X45256764Y-26874591D01*
X45264511Y-26857043D01*
X45269030Y-26834329D01*
X45285278Y-26810010D01*
X45294465Y-26789206D01*
X45308674Y-26774996D01*
X45323223Y-26753223D01*
X45344996Y-26738674D01*
X45359206Y-26724465D01*
X45380010Y-26715278D01*
X45404329Y-26699030D01*
X45427043Y-26694511D01*
X45444591Y-26686764D01*
X45495952Y-26680805D01*
X45500000Y-26680000D01*
X47200000Y-26680000D01*
X47204047Y-26680805D01*
G37*
G36*
X26704047Y-23500805D02*
G01*
X26755408Y-23506764D01*
X26772954Y-23514511D01*
X26795671Y-23519030D01*
X26819991Y-23535280D01*
X26840793Y-23544465D01*
X26855000Y-23558672D01*
X26876777Y-23573223D01*
X26891327Y-23594999D01*
X26905534Y-23609206D01*
X26914718Y-23630006D01*
X26930970Y-23654329D01*
X26935489Y-23677048D01*
X26943235Y-23694591D01*
X26949192Y-23745940D01*
X26950000Y-23750000D01*
X26950000Y-26550000D01*
X26949192Y-26554059D01*
X26943235Y-26605408D01*
X26935489Y-26622950D01*
X26930970Y-26645671D01*
X26914716Y-26669995D01*
X26905534Y-26690793D01*
X26891329Y-26704997D01*
X26876777Y-26726777D01*
X26854997Y-26741329D01*
X26840793Y-26755534D01*
X26819995Y-26764716D01*
X26795671Y-26780970D01*
X26772950Y-26785489D01*
X26755408Y-26793235D01*
X26704061Y-26799192D01*
X26700000Y-26800000D01*
X24700000Y-26800000D01*
X24695941Y-26799192D01*
X24644591Y-26793235D01*
X24627048Y-26785489D01*
X24604329Y-26780970D01*
X24580006Y-26764718D01*
X24559206Y-26755534D01*
X24544999Y-26741327D01*
X24523223Y-26726777D01*
X24508672Y-26705000D01*
X24494465Y-26690793D01*
X24485280Y-26669991D01*
X24469030Y-26645671D01*
X24464511Y-26622954D01*
X24456764Y-26605408D01*
X24450805Y-26554049D01*
X24450000Y-26550000D01*
X24450000Y-23750000D01*
X24450804Y-23745953D01*
X24456764Y-23694591D01*
X24464511Y-23677043D01*
X24469030Y-23654329D01*
X24485278Y-23630010D01*
X24494465Y-23609206D01*
X24508674Y-23594996D01*
X24523223Y-23573223D01*
X24544996Y-23558674D01*
X24559206Y-23544465D01*
X24580010Y-23535278D01*
X24604329Y-23519030D01*
X24627043Y-23514511D01*
X24644591Y-23506764D01*
X24695952Y-23500805D01*
X24700000Y-23500000D01*
X26700000Y-23500000D01*
X26704047Y-23500805D01*
G37*
G36*
X33504047Y-23500805D02*
G01*
X33555408Y-23506764D01*
X33572954Y-23514511D01*
X33595671Y-23519030D01*
X33619991Y-23535280D01*
X33640793Y-23544465D01*
X33655000Y-23558672D01*
X33676777Y-23573223D01*
X33691327Y-23594999D01*
X33705534Y-23609206D01*
X33714718Y-23630006D01*
X33730970Y-23654329D01*
X33735489Y-23677048D01*
X33743235Y-23694591D01*
X33749192Y-23745940D01*
X33750000Y-23750000D01*
X33750000Y-26550000D01*
X33749192Y-26554059D01*
X33743235Y-26605408D01*
X33735489Y-26622950D01*
X33730970Y-26645671D01*
X33714716Y-26669995D01*
X33705534Y-26690793D01*
X33691329Y-26704997D01*
X33676777Y-26726777D01*
X33654997Y-26741329D01*
X33640793Y-26755534D01*
X33619995Y-26764716D01*
X33595671Y-26780970D01*
X33572950Y-26785489D01*
X33555408Y-26793235D01*
X33504061Y-26799192D01*
X33500000Y-26800000D01*
X31500000Y-26800000D01*
X31495941Y-26799192D01*
X31444591Y-26793235D01*
X31427048Y-26785489D01*
X31404329Y-26780970D01*
X31380006Y-26764718D01*
X31359206Y-26755534D01*
X31344999Y-26741327D01*
X31323223Y-26726777D01*
X31308672Y-26705000D01*
X31294465Y-26690793D01*
X31285280Y-26669991D01*
X31269030Y-26645671D01*
X31264511Y-26622954D01*
X31256764Y-26605408D01*
X31250805Y-26554049D01*
X31250000Y-26550000D01*
X31250000Y-23750000D01*
X31250804Y-23745953D01*
X31256764Y-23694591D01*
X31264511Y-23677043D01*
X31269030Y-23654329D01*
X31285278Y-23630010D01*
X31294465Y-23609206D01*
X31308674Y-23594996D01*
X31323223Y-23573223D01*
X31344996Y-23558674D01*
X31359206Y-23544465D01*
X31380010Y-23535278D01*
X31404329Y-23519030D01*
X31427043Y-23514511D01*
X31444591Y-23506764D01*
X31495952Y-23500805D01*
X31500000Y-23500000D01*
X33500000Y-23500000D01*
X33504047Y-23500805D01*
G37*
G36*
X16450985Y-26331661D02*
G01*
X16479372Y-26350628D01*
X16498339Y-26379015D01*
X16505000Y-26412500D01*
X16505000Y-26587500D01*
X16498339Y-26620985D01*
X16479372Y-26649372D01*
X16450985Y-26668339D01*
X16417500Y-26675000D01*
X15342500Y-26675000D01*
X15309015Y-26668339D01*
X15280628Y-26649372D01*
X15261661Y-26620985D01*
X15255000Y-26587500D01*
X15255000Y-26412500D01*
X15261661Y-26379015D01*
X15280628Y-26350628D01*
X15309015Y-26331661D01*
X15342500Y-26325000D01*
X16417500Y-26325000D01*
X16450985Y-26331661D01*
G37*
G36*
X19250985Y-26331661D02*
G01*
X19279372Y-26350628D01*
X19298339Y-26379015D01*
X19305000Y-26412500D01*
X19305000Y-26587500D01*
X19298339Y-26620985D01*
X19279372Y-26649372D01*
X19250985Y-26668339D01*
X19217500Y-26675000D01*
X18142500Y-26675000D01*
X18109015Y-26668339D01*
X18080628Y-26649372D01*
X18061661Y-26620985D01*
X18055000Y-26587500D01*
X18055000Y-26412500D01*
X18061661Y-26379015D01*
X18080628Y-26350628D01*
X18109015Y-26331661D01*
X18142500Y-26325000D01*
X19217500Y-26325000D01*
X19250985Y-26331661D01*
G37*
G36*
X21670985Y-26081661D02*
G01*
X21699372Y-26100628D01*
X21718339Y-26129015D01*
X21725000Y-26162500D01*
X21725000Y-26337500D01*
X21718339Y-26370985D01*
X21699372Y-26399372D01*
X21670985Y-26418339D01*
X21637500Y-26425000D01*
X20787500Y-26425000D01*
X20754015Y-26418339D01*
X20725628Y-26399372D01*
X20706661Y-26370985D01*
X20700000Y-26337500D01*
X20700000Y-26162500D01*
X20706661Y-26129015D01*
X20725628Y-26100628D01*
X20754015Y-26081661D01*
X20787500Y-26075000D01*
X21637500Y-26075000D01*
X21670985Y-26081661D01*
G37*
G36*
X23345985Y-26081661D02*
G01*
X23374372Y-26100628D01*
X23393339Y-26129015D01*
X23400000Y-26162500D01*
X23400000Y-26337500D01*
X23393339Y-26370985D01*
X23374372Y-26399372D01*
X23345985Y-26418339D01*
X23312500Y-26425000D01*
X22462500Y-26425000D01*
X22429015Y-26418339D01*
X22400628Y-26399372D01*
X22381661Y-26370985D01*
X22375000Y-26337500D01*
X22375000Y-26162500D01*
X22381661Y-26129015D01*
X22400628Y-26100628D01*
X22429015Y-26081661D01*
X22462500Y-26075000D01*
X23312500Y-26075000D01*
X23345985Y-26081661D01*
G37*
G36*
X16450985Y-25831661D02*
G01*
X16479372Y-25850628D01*
X16498339Y-25879015D01*
X16505000Y-25912500D01*
X16505000Y-26087500D01*
X16498339Y-26120985D01*
X16479372Y-26149372D01*
X16450985Y-26168339D01*
X16417500Y-26175000D01*
X15342500Y-26175000D01*
X15309015Y-26168339D01*
X15280628Y-26149372D01*
X15261661Y-26120985D01*
X15255000Y-26087500D01*
X15255000Y-25912500D01*
X15261661Y-25879015D01*
X15280628Y-25850628D01*
X15309015Y-25831661D01*
X15342500Y-25825000D01*
X16417500Y-25825000D01*
X16450985Y-25831661D01*
G37*
G36*
X19250985Y-25831661D02*
G01*
X19279372Y-25850628D01*
X19298339Y-25879015D01*
X19305000Y-25912500D01*
X19305000Y-26087500D01*
X19298339Y-26120985D01*
X19279372Y-26149372D01*
X19250985Y-26168339D01*
X19217500Y-26175000D01*
X18142500Y-26175000D01*
X18109015Y-26168339D01*
X18080628Y-26149372D01*
X18061661Y-26120985D01*
X18055000Y-26087500D01*
X18055000Y-25912500D01*
X18061661Y-25879015D01*
X18080628Y-25850628D01*
X18109015Y-25831661D01*
X18142500Y-25825000D01*
X19217500Y-25825000D01*
X19250985Y-25831661D01*
G37*
G36*
X6184047Y-24455805D02*
G01*
X6235408Y-24461764D01*
X6252954Y-24469511D01*
X6275671Y-24474030D01*
X6299991Y-24490280D01*
X6320793Y-24499465D01*
X6335000Y-24513672D01*
X6356777Y-24528223D01*
X6371327Y-24549999D01*
X6385534Y-24564206D01*
X6394718Y-24585006D01*
X6410970Y-24609329D01*
X6415489Y-24632048D01*
X6423235Y-24649591D01*
X6429192Y-24700940D01*
X6430000Y-24705000D01*
X6430000Y-25655000D01*
X6429192Y-25659059D01*
X6423235Y-25710408D01*
X6415489Y-25727950D01*
X6410970Y-25750671D01*
X6394716Y-25774995D01*
X6385534Y-25795793D01*
X6371329Y-25809997D01*
X6356777Y-25831777D01*
X6334997Y-25846329D01*
X6320793Y-25860534D01*
X6299995Y-25869716D01*
X6275671Y-25885970D01*
X6252950Y-25890489D01*
X6235408Y-25898235D01*
X6184061Y-25904192D01*
X6180000Y-25905000D01*
X5505000Y-25905000D01*
X5500941Y-25904192D01*
X5449591Y-25898235D01*
X5432048Y-25890489D01*
X5409329Y-25885970D01*
X5385006Y-25869718D01*
X5364206Y-25860534D01*
X5349999Y-25846327D01*
X5328223Y-25831777D01*
X5313672Y-25810000D01*
X5299465Y-25795793D01*
X5290280Y-25774991D01*
X5274030Y-25750671D01*
X5269511Y-25727954D01*
X5261764Y-25710408D01*
X5255805Y-25659049D01*
X5255000Y-25655000D01*
X5255000Y-24705000D01*
X5255804Y-24700953D01*
X5261764Y-24649591D01*
X5269511Y-24632043D01*
X5274030Y-24609329D01*
X5290278Y-24585010D01*
X5299465Y-24564206D01*
X5313674Y-24549996D01*
X5328223Y-24528223D01*
X5349996Y-24513674D01*
X5364206Y-24499465D01*
X5385010Y-24490278D01*
X5409329Y-24474030D01*
X5432043Y-24469511D01*
X5449591Y-24461764D01*
X5500952Y-24455805D01*
X5505000Y-24455000D01*
X6180000Y-24455000D01*
X6184047Y-24455805D01*
G37*
G36*
X8259047Y-24455805D02*
G01*
X8310408Y-24461764D01*
X8327954Y-24469511D01*
X8350671Y-24474030D01*
X8374991Y-24490280D01*
X8395793Y-24499465D01*
X8410000Y-24513672D01*
X8431777Y-24528223D01*
X8446327Y-24549999D01*
X8460534Y-24564206D01*
X8469718Y-24585006D01*
X8485970Y-24609329D01*
X8490489Y-24632048D01*
X8498235Y-24649591D01*
X8504192Y-24700940D01*
X8505000Y-24705000D01*
X8505000Y-25655000D01*
X8504192Y-25659059D01*
X8498235Y-25710408D01*
X8490489Y-25727950D01*
X8485970Y-25750671D01*
X8469716Y-25774995D01*
X8460534Y-25795793D01*
X8446329Y-25809997D01*
X8431777Y-25831777D01*
X8409997Y-25846329D01*
X8395793Y-25860534D01*
X8374995Y-25869716D01*
X8350671Y-25885970D01*
X8327950Y-25890489D01*
X8310408Y-25898235D01*
X8259061Y-25904192D01*
X8255000Y-25905000D01*
X7580000Y-25905000D01*
X7575941Y-25904192D01*
X7524591Y-25898235D01*
X7507048Y-25890489D01*
X7484329Y-25885970D01*
X7460006Y-25869718D01*
X7439206Y-25860534D01*
X7424999Y-25846327D01*
X7403223Y-25831777D01*
X7388672Y-25810000D01*
X7374465Y-25795793D01*
X7365280Y-25774991D01*
X7349030Y-25750671D01*
X7344511Y-25727954D01*
X7336764Y-25710408D01*
X7330805Y-25659049D01*
X7330000Y-25655000D01*
X7330000Y-24705000D01*
X7330804Y-24700953D01*
X7336764Y-24649591D01*
X7344511Y-24632043D01*
X7349030Y-24609329D01*
X7365278Y-24585010D01*
X7374465Y-24564206D01*
X7388674Y-24549996D01*
X7403223Y-24528223D01*
X7424996Y-24513674D01*
X7439206Y-24499465D01*
X7460010Y-24490278D01*
X7484329Y-24474030D01*
X7507043Y-24469511D01*
X7524591Y-24461764D01*
X7575952Y-24455805D01*
X7580000Y-24455000D01*
X8255000Y-24455000D01*
X8259047Y-24455805D01*
G37*
G36*
X10604047Y-24450805D02*
G01*
X10655408Y-24456764D01*
X10672954Y-24464511D01*
X10695671Y-24469030D01*
X10719991Y-24485280D01*
X10740793Y-24494465D01*
X10755000Y-24508672D01*
X10776777Y-24523223D01*
X10791327Y-24544999D01*
X10805534Y-24559206D01*
X10814718Y-24580006D01*
X10830970Y-24604329D01*
X10835489Y-24627048D01*
X10843235Y-24644591D01*
X10849192Y-24695940D01*
X10850000Y-24700000D01*
X10850000Y-25600000D01*
X10849192Y-25604059D01*
X10843235Y-25655408D01*
X10835489Y-25672950D01*
X10830970Y-25695671D01*
X10814716Y-25719995D01*
X10805534Y-25740793D01*
X10791329Y-25754997D01*
X10776777Y-25776777D01*
X10754997Y-25791329D01*
X10740793Y-25805534D01*
X10719995Y-25814716D01*
X10695671Y-25830970D01*
X10672950Y-25835489D01*
X10655408Y-25843235D01*
X10604061Y-25849192D01*
X10600000Y-25850000D01*
X9900000Y-25850000D01*
X9895941Y-25849192D01*
X9844591Y-25843235D01*
X9827048Y-25835489D01*
X9804329Y-25830970D01*
X9780006Y-25814718D01*
X9759206Y-25805534D01*
X9744999Y-25791327D01*
X9723223Y-25776777D01*
X9708672Y-25755000D01*
X9694465Y-25740793D01*
X9685280Y-25719991D01*
X9669030Y-25695671D01*
X9664511Y-25672954D01*
X9656764Y-25655408D01*
X9650805Y-25604049D01*
X9650000Y-25600000D01*
X9650000Y-24700000D01*
X9650804Y-24695953D01*
X9656764Y-24644591D01*
X9664511Y-24627043D01*
X9669030Y-24604329D01*
X9685278Y-24580010D01*
X9694465Y-24559206D01*
X9708674Y-24544996D01*
X9723223Y-24523223D01*
X9744996Y-24508674D01*
X9759206Y-24494465D01*
X9780010Y-24485278D01*
X9804329Y-24469030D01*
X9827043Y-24464511D01*
X9844591Y-24456764D01*
X9895952Y-24450805D01*
X9900000Y-24450000D01*
X10600000Y-24450000D01*
X10604047Y-24450805D01*
G37*
G36*
X12604047Y-24450805D02*
G01*
X12655408Y-24456764D01*
X12672954Y-24464511D01*
X12695671Y-24469030D01*
X12719991Y-24485280D01*
X12740793Y-24494465D01*
X12755000Y-24508672D01*
X12776777Y-24523223D01*
X12791327Y-24544999D01*
X12805534Y-24559206D01*
X12814718Y-24580006D01*
X12830970Y-24604329D01*
X12835489Y-24627048D01*
X12843235Y-24644591D01*
X12849192Y-24695940D01*
X12850000Y-24700000D01*
X12850000Y-25600000D01*
X12849192Y-25604059D01*
X12843235Y-25655408D01*
X12835489Y-25672950D01*
X12830970Y-25695671D01*
X12814716Y-25719995D01*
X12805534Y-25740793D01*
X12791329Y-25754997D01*
X12776777Y-25776777D01*
X12754997Y-25791329D01*
X12740793Y-25805534D01*
X12719995Y-25814716D01*
X12695671Y-25830970D01*
X12672950Y-25835489D01*
X12655408Y-25843235D01*
X12604061Y-25849192D01*
X12600000Y-25850000D01*
X11900000Y-25850000D01*
X11895941Y-25849192D01*
X11844591Y-25843235D01*
X11827048Y-25835489D01*
X11804329Y-25830970D01*
X11780006Y-25814718D01*
X11759206Y-25805534D01*
X11744999Y-25791327D01*
X11723223Y-25776777D01*
X11708672Y-25755000D01*
X11694465Y-25740793D01*
X11685280Y-25719991D01*
X11669030Y-25695671D01*
X11664511Y-25672954D01*
X11656764Y-25655408D01*
X11650805Y-25604049D01*
X11650000Y-25600000D01*
X11650000Y-24700000D01*
X11650804Y-24695953D01*
X11656764Y-24644591D01*
X11664511Y-24627043D01*
X11669030Y-24604329D01*
X11685278Y-24580010D01*
X11694465Y-24559206D01*
X11708674Y-24544996D01*
X11723223Y-24523223D01*
X11744996Y-24508674D01*
X11759206Y-24494465D01*
X11780010Y-24485278D01*
X11804329Y-24469030D01*
X11827043Y-24464511D01*
X11844591Y-24456764D01*
X11895952Y-24450805D01*
X11900000Y-24450000D01*
X12600000Y-24450000D01*
X12604047Y-24450805D01*
G37*
G36*
X21670985Y-25431661D02*
G01*
X21699372Y-25450628D01*
X21718339Y-25479015D01*
X21725000Y-25512500D01*
X21725000Y-25687500D01*
X21718339Y-25720985D01*
X21699372Y-25749372D01*
X21670985Y-25768339D01*
X21637500Y-25775000D01*
X20787500Y-25775000D01*
X20754015Y-25768339D01*
X20725628Y-25749372D01*
X20706661Y-25720985D01*
X20700000Y-25687500D01*
X20700000Y-25512500D01*
X20706661Y-25479015D01*
X20725628Y-25450628D01*
X20754015Y-25431661D01*
X20787500Y-25425000D01*
X21637500Y-25425000D01*
X21670985Y-25431661D01*
G37*
G36*
X16450985Y-25331661D02*
G01*
X16479372Y-25350628D01*
X16498339Y-25379015D01*
X16505000Y-25412500D01*
X16505000Y-25587500D01*
X16498339Y-25620985D01*
X16479372Y-25649372D01*
X16450985Y-25668339D01*
X16417500Y-25675000D01*
X15342500Y-25675000D01*
X15309015Y-25668339D01*
X15280628Y-25649372D01*
X15261661Y-25620985D01*
X15255000Y-25587500D01*
X15255000Y-25412500D01*
X15261661Y-25379015D01*
X15280628Y-25350628D01*
X15309015Y-25331661D01*
X15342500Y-25325000D01*
X16417500Y-25325000D01*
X16450985Y-25331661D01*
G37*
G36*
X19250985Y-25331661D02*
G01*
X19279372Y-25350628D01*
X19298339Y-25379015D01*
X19305000Y-25412500D01*
X19305000Y-25587500D01*
X19298339Y-25620985D01*
X19279372Y-25649372D01*
X19250985Y-25668339D01*
X19217500Y-25675000D01*
X18142500Y-25675000D01*
X18109015Y-25668339D01*
X18080628Y-25649372D01*
X18061661Y-25620985D01*
X18055000Y-25587500D01*
X18055000Y-25412500D01*
X18061661Y-25379015D01*
X18080628Y-25350628D01*
X18109015Y-25331661D01*
X18142500Y-25325000D01*
X19217500Y-25325000D01*
X19250985Y-25331661D01*
G37*
G36*
X47204047Y-24400805D02*
G01*
X47255408Y-24406764D01*
X47272954Y-24414511D01*
X47295671Y-24419030D01*
X47319991Y-24435280D01*
X47340793Y-24444465D01*
X47355000Y-24458672D01*
X47376777Y-24473223D01*
X47391327Y-24494999D01*
X47405534Y-24509206D01*
X47414718Y-24530006D01*
X47430970Y-24554329D01*
X47435489Y-24577048D01*
X47443235Y-24594591D01*
X47449192Y-24645940D01*
X47450000Y-24650000D01*
X47450000Y-25350000D01*
X47449192Y-25354059D01*
X47443235Y-25405408D01*
X47435489Y-25422950D01*
X47430970Y-25445671D01*
X47414716Y-25469995D01*
X47405534Y-25490793D01*
X47391329Y-25504997D01*
X47376777Y-25526777D01*
X47354997Y-25541329D01*
X47340793Y-25555534D01*
X47319995Y-25564716D01*
X47295671Y-25580970D01*
X47272950Y-25585489D01*
X47255408Y-25593235D01*
X47204061Y-25599192D01*
X47200000Y-25600000D01*
X45500000Y-25600000D01*
X45495941Y-25599192D01*
X45444591Y-25593235D01*
X45427048Y-25585489D01*
X45404329Y-25580970D01*
X45380006Y-25564718D01*
X45359206Y-25555534D01*
X45344999Y-25541327D01*
X45323223Y-25526777D01*
X45308672Y-25505000D01*
X45294465Y-25490793D01*
X45285280Y-25469991D01*
X45269030Y-25445671D01*
X45264511Y-25422954D01*
X45256764Y-25405408D01*
X45250805Y-25354049D01*
X45250000Y-25350000D01*
X45250000Y-24650000D01*
X45250804Y-24645953D01*
X45256764Y-24594591D01*
X45264511Y-24577043D01*
X45269030Y-24554329D01*
X45285278Y-24530010D01*
X45294465Y-24509206D01*
X45308674Y-24494996D01*
X45323223Y-24473223D01*
X45344996Y-24458674D01*
X45359206Y-24444465D01*
X45380010Y-24435278D01*
X45404329Y-24419030D01*
X45427043Y-24414511D01*
X45444591Y-24406764D01*
X45495952Y-24400805D01*
X45500000Y-24400000D01*
X47200000Y-24400000D01*
X47204047Y-24400805D01*
G37*
G36*
X16450985Y-24831661D02*
G01*
X16479372Y-24850628D01*
X16498339Y-24879015D01*
X16505000Y-24912500D01*
X16505000Y-25087500D01*
X16498339Y-25120985D01*
X16479372Y-25149372D01*
X16450985Y-25168339D01*
X16417500Y-25175000D01*
X15342500Y-25175000D01*
X15309015Y-25168339D01*
X15280628Y-25149372D01*
X15261661Y-25120985D01*
X15255000Y-25087500D01*
X15255000Y-24912500D01*
X15261661Y-24879015D01*
X15280628Y-24850628D01*
X15309015Y-24831661D01*
X15342500Y-24825000D01*
X16417500Y-24825000D01*
X16450985Y-24831661D01*
G37*
G36*
X19250985Y-24831661D02*
G01*
X19279372Y-24850628D01*
X19298339Y-24879015D01*
X19305000Y-24912500D01*
X19305000Y-25087500D01*
X19298339Y-25120985D01*
X19279372Y-25149372D01*
X19250985Y-25168339D01*
X19217500Y-25175000D01*
X18142500Y-25175000D01*
X18109015Y-25168339D01*
X18080628Y-25149372D01*
X18061661Y-25120985D01*
X18055000Y-25087500D01*
X18055000Y-24912500D01*
X18061661Y-24879015D01*
X18080628Y-24850628D01*
X18109015Y-24831661D01*
X18142500Y-24825000D01*
X19217500Y-24825000D01*
X19250985Y-24831661D01*
G37*
G36*
X21670985Y-24781661D02*
G01*
X21699372Y-24800628D01*
X21718339Y-24829015D01*
X21725000Y-24862500D01*
X21725000Y-25037500D01*
X21718339Y-25070985D01*
X21699372Y-25099372D01*
X21670985Y-25118339D01*
X21637500Y-25125000D01*
X20787500Y-25125000D01*
X20754015Y-25118339D01*
X20725628Y-25099372D01*
X20706661Y-25070985D01*
X20700000Y-25037500D01*
X20700000Y-24862500D01*
X20706661Y-24829015D01*
X20725628Y-24800628D01*
X20754015Y-24781661D01*
X20787500Y-24775000D01*
X21637500Y-24775000D01*
X21670985Y-24781661D01*
G37*
G36*
X23345985Y-24781661D02*
G01*
X23374372Y-24800628D01*
X23393339Y-24829015D01*
X23400000Y-24862500D01*
X23400000Y-25037500D01*
X23393339Y-25070985D01*
X23374372Y-25099372D01*
X23345985Y-25118339D01*
X23312500Y-25125000D01*
X22462500Y-25125000D01*
X22429015Y-25118339D01*
X22400628Y-25099372D01*
X22381661Y-25070985D01*
X22375000Y-25037500D01*
X22375000Y-24862500D01*
X22381661Y-24829015D01*
X22400628Y-24800628D01*
X22429015Y-24781661D01*
X22462500Y-24775000D01*
X23312500Y-24775000D01*
X23345985Y-24781661D01*
G37*
G36*
X47204047Y-22120805D02*
G01*
X47255408Y-22126764D01*
X47272954Y-22134511D01*
X47295671Y-22139030D01*
X47319991Y-22155280D01*
X47340793Y-22164465D01*
X47355000Y-22178672D01*
X47376777Y-22193223D01*
X47391327Y-22214999D01*
X47405534Y-22229206D01*
X47414718Y-22250006D01*
X47430970Y-22274329D01*
X47435489Y-22297048D01*
X47443235Y-22314591D01*
X47449192Y-22365940D01*
X47450000Y-22370000D01*
X47450000Y-23070000D01*
X47449192Y-23074059D01*
X47443235Y-23125408D01*
X47435489Y-23142950D01*
X47430970Y-23165671D01*
X47414716Y-23189995D01*
X47405534Y-23210793D01*
X47391329Y-23224997D01*
X47376777Y-23246777D01*
X47354997Y-23261329D01*
X47340793Y-23275534D01*
X47319995Y-23284716D01*
X47295671Y-23300970D01*
X47272950Y-23305489D01*
X47255408Y-23313235D01*
X47204061Y-23319192D01*
X47200000Y-23320000D01*
X45500000Y-23320000D01*
X45495941Y-23319192D01*
X45444591Y-23313235D01*
X45427048Y-23305489D01*
X45404329Y-23300970D01*
X45380006Y-23284718D01*
X45359206Y-23275534D01*
X45344999Y-23261327D01*
X45323223Y-23246777D01*
X45308672Y-23225000D01*
X45294465Y-23210793D01*
X45285280Y-23189991D01*
X45269030Y-23165671D01*
X45264511Y-23142954D01*
X45256764Y-23125408D01*
X45250805Y-23074049D01*
X45250000Y-23070000D01*
X45250000Y-22370000D01*
X45250804Y-22365953D01*
X45256764Y-22314591D01*
X45264511Y-22297043D01*
X45269030Y-22274329D01*
X45285278Y-22250010D01*
X45294465Y-22229206D01*
X45308674Y-22214996D01*
X45323223Y-22193223D01*
X45344996Y-22178674D01*
X45359206Y-22164465D01*
X45380010Y-22155278D01*
X45404329Y-22139030D01*
X45427043Y-22134511D01*
X45444591Y-22126764D01*
X45495952Y-22120805D01*
X45500000Y-22120000D01*
X47200000Y-22120000D01*
X47204047Y-22120805D01*
G37*
G36*
X16663268Y-22732612D02*
G01*
X16695711Y-22754289D01*
X16717388Y-22786732D01*
X16725000Y-22825000D01*
X16725000Y-23025000D01*
X16717388Y-23063268D01*
X16695711Y-23095711D01*
X16663268Y-23117388D01*
X16625000Y-23125000D01*
X15350000Y-23125000D01*
X15311732Y-23117388D01*
X15279289Y-23095711D01*
X15257612Y-23063268D01*
X15250000Y-23025000D01*
X15250000Y-22825000D01*
X15257612Y-22786732D01*
X15279289Y-22754289D01*
X15311732Y-22732612D01*
X15350000Y-22725000D01*
X16625000Y-22725000D01*
X16663268Y-22732612D01*
G37*
G36*
X22388268Y-22732612D02*
G01*
X22420711Y-22754289D01*
X22442388Y-22786732D01*
X22450000Y-22825000D01*
X22450000Y-23025000D01*
X22442388Y-23063268D01*
X22420711Y-23095711D01*
X22388268Y-23117388D01*
X22350000Y-23125000D01*
X21075000Y-23125000D01*
X21036732Y-23117388D01*
X21004289Y-23095711D01*
X20982612Y-23063268D01*
X20975000Y-23025000D01*
X20975000Y-22825000D01*
X20982612Y-22786732D01*
X21004289Y-22754289D01*
X21036732Y-22732612D01*
X21075000Y-22725000D01*
X22350000Y-22725000D01*
X22388268Y-22732612D01*
G37*
G36*
X6070985Y-22581661D02*
G01*
X6099372Y-22600628D01*
X6118339Y-22629015D01*
X6125000Y-22662500D01*
X6125000Y-22837500D01*
X6118339Y-22870985D01*
X6099372Y-22899372D01*
X6070985Y-22918339D01*
X6037500Y-22925000D01*
X5187500Y-22925000D01*
X5154015Y-22918339D01*
X5125628Y-22899372D01*
X5106661Y-22870985D01*
X5100000Y-22837500D01*
X5100000Y-22662500D01*
X5106661Y-22629015D01*
X5125628Y-22600628D01*
X5154015Y-22581661D01*
X5187500Y-22575000D01*
X6037500Y-22575000D01*
X6070985Y-22581661D01*
G37*
G36*
X7745985Y-22581661D02*
G01*
X7774372Y-22600628D01*
X7793339Y-22629015D01*
X7800000Y-22662500D01*
X7800000Y-22837500D01*
X7793339Y-22870985D01*
X7774372Y-22899372D01*
X7745985Y-22918339D01*
X7712500Y-22925000D01*
X6862500Y-22925000D01*
X6829015Y-22918339D01*
X6800628Y-22899372D01*
X6781661Y-22870985D01*
X6775000Y-22837500D01*
X6775000Y-22662500D01*
X6781661Y-22629015D01*
X6800628Y-22600628D01*
X6829015Y-22581661D01*
X6862500Y-22575000D01*
X7712500Y-22575000D01*
X7745985Y-22581661D01*
G37*
G36*
X16663268Y-22082612D02*
G01*
X16695711Y-22104289D01*
X16717388Y-22136732D01*
X16725000Y-22175000D01*
X16725000Y-22375000D01*
X16717388Y-22413268D01*
X16695711Y-22445711D01*
X16663268Y-22467388D01*
X16625000Y-22475000D01*
X15350000Y-22475000D01*
X15311732Y-22467388D01*
X15279289Y-22445711D01*
X15257612Y-22413268D01*
X15250000Y-22375000D01*
X15250000Y-22175000D01*
X15257612Y-22136732D01*
X15279289Y-22104289D01*
X15311732Y-22082612D01*
X15350000Y-22075000D01*
X16625000Y-22075000D01*
X16663268Y-22082612D01*
G37*
G36*
X22388268Y-22082612D02*
G01*
X22420711Y-22104289D01*
X22442388Y-22136732D01*
X22450000Y-22175000D01*
X22450000Y-22375000D01*
X22442388Y-22413268D01*
X22420711Y-22445711D01*
X22388268Y-22467388D01*
X22350000Y-22475000D01*
X21075000Y-22475000D01*
X21036732Y-22467388D01*
X21004289Y-22445711D01*
X20982612Y-22413268D01*
X20975000Y-22375000D01*
X20975000Y-22175000D01*
X20982612Y-22136732D01*
X21004289Y-22104289D01*
X21036732Y-22082612D01*
X21075000Y-22075000D01*
X22350000Y-22075000D01*
X22388268Y-22082612D01*
G37*
G36*
X6070985Y-21931661D02*
G01*
X6099372Y-21950628D01*
X6118339Y-21979015D01*
X6125000Y-22012500D01*
X6125000Y-22187500D01*
X6118339Y-22220985D01*
X6099372Y-22249372D01*
X6070985Y-22268339D01*
X6037500Y-22275000D01*
X5187500Y-22275000D01*
X5154015Y-22268339D01*
X5125628Y-22249372D01*
X5106661Y-22220985D01*
X5100000Y-22187500D01*
X5100000Y-22012500D01*
X5106661Y-21979015D01*
X5125628Y-21950628D01*
X5154015Y-21931661D01*
X5187500Y-21925000D01*
X6037500Y-21925000D01*
X6070985Y-21931661D01*
G37*
G36*
X7745985Y-21931661D02*
G01*
X7774372Y-21950628D01*
X7793339Y-21979015D01*
X7800000Y-22012500D01*
X7800000Y-22187500D01*
X7793339Y-22220985D01*
X7774372Y-22249372D01*
X7745985Y-22268339D01*
X7712500Y-22275000D01*
X6862500Y-22275000D01*
X6829015Y-22268339D01*
X6800628Y-22249372D01*
X6781661Y-22220985D01*
X6775000Y-22187500D01*
X6775000Y-22012500D01*
X6781661Y-21979015D01*
X6800628Y-21950628D01*
X6829015Y-21931661D01*
X6862500Y-21925000D01*
X7712500Y-21925000D01*
X7745985Y-21931661D01*
G37*
G36*
X16663268Y-21432612D02*
G01*
X16695711Y-21454289D01*
X16717388Y-21486732D01*
X16725000Y-21525000D01*
X16725000Y-21725000D01*
X16717388Y-21763268D01*
X16695711Y-21795711D01*
X16663268Y-21817388D01*
X16625000Y-21825000D01*
X15350000Y-21825000D01*
X15311732Y-21817388D01*
X15279289Y-21795711D01*
X15257612Y-21763268D01*
X15250000Y-21725000D01*
X15250000Y-21525000D01*
X15257612Y-21486732D01*
X15279289Y-21454289D01*
X15311732Y-21432612D01*
X15350000Y-21425000D01*
X16625000Y-21425000D01*
X16663268Y-21432612D01*
G37*
G36*
X22388268Y-21432612D02*
G01*
X22420711Y-21454289D01*
X22442388Y-21486732D01*
X22450000Y-21525000D01*
X22450000Y-21725000D01*
X22442388Y-21763268D01*
X22420711Y-21795711D01*
X22388268Y-21817388D01*
X22350000Y-21825000D01*
X21075000Y-21825000D01*
X21036732Y-21817388D01*
X21004289Y-21795711D01*
X20982612Y-21763268D01*
X20975000Y-21725000D01*
X20975000Y-21525000D01*
X20982612Y-21486732D01*
X21004289Y-21454289D01*
X21036732Y-21432612D01*
X21075000Y-21425000D01*
X22350000Y-21425000D01*
X22388268Y-21432612D01*
G37*
G36*
X6070985Y-21281661D02*
G01*
X6099372Y-21300628D01*
X6118339Y-21329015D01*
X6125000Y-21362500D01*
X6125000Y-21537500D01*
X6118339Y-21570985D01*
X6099372Y-21599372D01*
X6070985Y-21618339D01*
X6037500Y-21625000D01*
X5187500Y-21625000D01*
X5154015Y-21618339D01*
X5125628Y-21599372D01*
X5106661Y-21570985D01*
X5100000Y-21537500D01*
X5100000Y-21362500D01*
X5106661Y-21329015D01*
X5125628Y-21300628D01*
X5154015Y-21281661D01*
X5187500Y-21275000D01*
X6037500Y-21275000D01*
X6070985Y-21281661D01*
G37*
G36*
X7745985Y-21281661D02*
G01*
X7774372Y-21300628D01*
X7793339Y-21329015D01*
X7800000Y-21362500D01*
X7800000Y-21537500D01*
X7793339Y-21570985D01*
X7774372Y-21599372D01*
X7745985Y-21618339D01*
X7712500Y-21625000D01*
X6862500Y-21625000D01*
X6829015Y-21618339D01*
X6800628Y-21599372D01*
X6781661Y-21570985D01*
X6775000Y-21537500D01*
X6775000Y-21362500D01*
X6781661Y-21329015D01*
X6800628Y-21300628D01*
X6829015Y-21281661D01*
X6862500Y-21275000D01*
X7712500Y-21275000D01*
X7745985Y-21281661D01*
G37*
G36*
X16663268Y-20782612D02*
G01*
X16695711Y-20804289D01*
X16717388Y-20836732D01*
X16725000Y-20875000D01*
X16725000Y-21075000D01*
X16717388Y-21113268D01*
X16695711Y-21145711D01*
X16663268Y-21167388D01*
X16625000Y-21175000D01*
X15350000Y-21175000D01*
X15311732Y-21167388D01*
X15279289Y-21145711D01*
X15257612Y-21113268D01*
X15250000Y-21075000D01*
X15250000Y-20875000D01*
X15257612Y-20836732D01*
X15279289Y-20804289D01*
X15311732Y-20782612D01*
X15350000Y-20775000D01*
X16625000Y-20775000D01*
X16663268Y-20782612D01*
G37*
G36*
X22388268Y-20782612D02*
G01*
X22420711Y-20804289D01*
X22442388Y-20836732D01*
X22450000Y-20875000D01*
X22450000Y-21075000D01*
X22442388Y-21113268D01*
X22420711Y-21145711D01*
X22388268Y-21167388D01*
X22350000Y-21175000D01*
X21075000Y-21175000D01*
X21036732Y-21167388D01*
X21004289Y-21145711D01*
X20982612Y-21113268D01*
X20975000Y-21075000D01*
X20975000Y-20875000D01*
X20982612Y-20836732D01*
X21004289Y-20804289D01*
X21036732Y-20782612D01*
X21075000Y-20775000D01*
X22350000Y-20775000D01*
X22388268Y-20782612D01*
G37*
G36*
X16663268Y-20132612D02*
G01*
X16695711Y-20154289D01*
X16717388Y-20186732D01*
X16725000Y-20225000D01*
X16725000Y-20425000D01*
X16717388Y-20463268D01*
X16695711Y-20495711D01*
X16663268Y-20517388D01*
X16625000Y-20525000D01*
X15350000Y-20525000D01*
X15311732Y-20517388D01*
X15279289Y-20495711D01*
X15257612Y-20463268D01*
X15250000Y-20425000D01*
X15250000Y-20225000D01*
X15257612Y-20186732D01*
X15279289Y-20154289D01*
X15311732Y-20132612D01*
X15350000Y-20125000D01*
X16625000Y-20125000D01*
X16663268Y-20132612D01*
G37*
G36*
X22388268Y-20132612D02*
G01*
X22420711Y-20154289D01*
X22442388Y-20186732D01*
X22450000Y-20225000D01*
X22450000Y-20425000D01*
X22442388Y-20463268D01*
X22420711Y-20495711D01*
X22388268Y-20517388D01*
X22350000Y-20525000D01*
X21075000Y-20525000D01*
X21036732Y-20517388D01*
X21004289Y-20495711D01*
X20982612Y-20463268D01*
X20975000Y-20425000D01*
X20975000Y-20225000D01*
X20982612Y-20186732D01*
X21004289Y-20154289D01*
X21036732Y-20132612D01*
X21075000Y-20125000D01*
X22350000Y-20125000D01*
X22388268Y-20132612D01*
G37*
G36*
X25204047Y-18850805D02*
G01*
X25255408Y-18856764D01*
X25272954Y-18864511D01*
X25295671Y-18869030D01*
X25319991Y-18885280D01*
X25340793Y-18894465D01*
X25355000Y-18908672D01*
X25376777Y-18923223D01*
X25391327Y-18944999D01*
X25405534Y-18959206D01*
X25414718Y-18980006D01*
X25430970Y-19004329D01*
X25435489Y-19027048D01*
X25443235Y-19044591D01*
X25449192Y-19095940D01*
X25450000Y-19100000D01*
X25450000Y-20000000D01*
X25449192Y-20004059D01*
X25443235Y-20055408D01*
X25435489Y-20072950D01*
X25430970Y-20095671D01*
X25414716Y-20119995D01*
X25405534Y-20140793D01*
X25391329Y-20154997D01*
X25376777Y-20176777D01*
X25354997Y-20191329D01*
X25340793Y-20205534D01*
X25319995Y-20214716D01*
X25295671Y-20230970D01*
X25272950Y-20235489D01*
X25255408Y-20243235D01*
X25204061Y-20249192D01*
X25200000Y-20250000D01*
X24500000Y-20250000D01*
X24495941Y-20249192D01*
X24444591Y-20243235D01*
X24427048Y-20235489D01*
X24404329Y-20230970D01*
X24380006Y-20214718D01*
X24359206Y-20205534D01*
X24344999Y-20191327D01*
X24323223Y-20176777D01*
X24308672Y-20155000D01*
X24294465Y-20140793D01*
X24285280Y-20119991D01*
X24269030Y-20095671D01*
X24264511Y-20072954D01*
X24256764Y-20055408D01*
X24250805Y-20004049D01*
X24250000Y-20000000D01*
X24250000Y-19100000D01*
X24250804Y-19095953D01*
X24256764Y-19044591D01*
X24264511Y-19027043D01*
X24269030Y-19004329D01*
X24285278Y-18980010D01*
X24294465Y-18959206D01*
X24308674Y-18944996D01*
X24323223Y-18923223D01*
X24344996Y-18908674D01*
X24359206Y-18894465D01*
X24380010Y-18885278D01*
X24404329Y-18869030D01*
X24427043Y-18864511D01*
X24444591Y-18856764D01*
X24495952Y-18850805D01*
X24500000Y-18850000D01*
X25200000Y-18850000D01*
X25204047Y-18850805D01*
G37*
G36*
X27204047Y-18850805D02*
G01*
X27255408Y-18856764D01*
X27272954Y-18864511D01*
X27295671Y-18869030D01*
X27319991Y-18885280D01*
X27340793Y-18894465D01*
X27355000Y-18908672D01*
X27376777Y-18923223D01*
X27391327Y-18944999D01*
X27405534Y-18959206D01*
X27414718Y-18980006D01*
X27430970Y-19004329D01*
X27435489Y-19027048D01*
X27443235Y-19044591D01*
X27449192Y-19095940D01*
X27450000Y-19100000D01*
X27450000Y-20000000D01*
X27449192Y-20004059D01*
X27443235Y-20055408D01*
X27435489Y-20072950D01*
X27430970Y-20095671D01*
X27414716Y-20119995D01*
X27405534Y-20140793D01*
X27391329Y-20154997D01*
X27376777Y-20176777D01*
X27354997Y-20191329D01*
X27340793Y-20205534D01*
X27319995Y-20214716D01*
X27295671Y-20230970D01*
X27272950Y-20235489D01*
X27255408Y-20243235D01*
X27204061Y-20249192D01*
X27200000Y-20250000D01*
X26500000Y-20250000D01*
X26495941Y-20249192D01*
X26444591Y-20243235D01*
X26427048Y-20235489D01*
X26404329Y-20230970D01*
X26380006Y-20214718D01*
X26359206Y-20205534D01*
X26344999Y-20191327D01*
X26323223Y-20176777D01*
X26308672Y-20155000D01*
X26294465Y-20140793D01*
X26285280Y-20119991D01*
X26269030Y-20095671D01*
X26264511Y-20072954D01*
X26256764Y-20055408D01*
X26250805Y-20004049D01*
X26250000Y-20000000D01*
X26250000Y-19100000D01*
X26250804Y-19095953D01*
X26256764Y-19044591D01*
X26264511Y-19027043D01*
X26269030Y-19004329D01*
X26285278Y-18980010D01*
X26294465Y-18959206D01*
X26308674Y-18944996D01*
X26323223Y-18923223D01*
X26344996Y-18908674D01*
X26359206Y-18894465D01*
X26380010Y-18885278D01*
X26404329Y-18869030D01*
X26427043Y-18864511D01*
X26444591Y-18856764D01*
X26495952Y-18850805D01*
X26500000Y-18850000D01*
X27200000Y-18850000D01*
X27204047Y-18850805D01*
G37*
G36*
X16663268Y-19482612D02*
G01*
X16695711Y-19504289D01*
X16717388Y-19536732D01*
X16725000Y-19575000D01*
X16725000Y-19775000D01*
X16717388Y-19813268D01*
X16695711Y-19845711D01*
X16663268Y-19867388D01*
X16625000Y-19875000D01*
X15350000Y-19875000D01*
X15311732Y-19867388D01*
X15279289Y-19845711D01*
X15257612Y-19813268D01*
X15250000Y-19775000D01*
X15250000Y-19575000D01*
X15257612Y-19536732D01*
X15279289Y-19504289D01*
X15311732Y-19482612D01*
X15350000Y-19475000D01*
X16625000Y-19475000D01*
X16663268Y-19482612D01*
G37*
G36*
X22388268Y-19482612D02*
G01*
X22420711Y-19504289D01*
X22442388Y-19536732D01*
X22450000Y-19575000D01*
X22450000Y-19775000D01*
X22442388Y-19813268D01*
X22420711Y-19845711D01*
X22388268Y-19867388D01*
X22350000Y-19875000D01*
X21075000Y-19875000D01*
X21036732Y-19867388D01*
X21004289Y-19845711D01*
X20982612Y-19813268D01*
X20975000Y-19775000D01*
X20975000Y-19575000D01*
X20982612Y-19536732D01*
X21004289Y-19504289D01*
X21036732Y-19482612D01*
X21075000Y-19475000D01*
X22350000Y-19475000D01*
X22388268Y-19482612D01*
G37*
G36*
X16663268Y-18832612D02*
G01*
X16695711Y-18854289D01*
X16717388Y-18886732D01*
X16725000Y-18925000D01*
X16725000Y-19125000D01*
X16717388Y-19163268D01*
X16695711Y-19195711D01*
X16663268Y-19217388D01*
X16625000Y-19225000D01*
X15350000Y-19225000D01*
X15311732Y-19217388D01*
X15279289Y-19195711D01*
X15257612Y-19163268D01*
X15250000Y-19125000D01*
X15250000Y-18925000D01*
X15257612Y-18886732D01*
X15279289Y-18854289D01*
X15311732Y-18832612D01*
X15350000Y-18825000D01*
X16625000Y-18825000D01*
X16663268Y-18832612D01*
G37*
G36*
X22388268Y-18832612D02*
G01*
X22420711Y-18854289D01*
X22442388Y-18886732D01*
X22450000Y-18925000D01*
X22450000Y-19125000D01*
X22442388Y-19163268D01*
X22420711Y-19195711D01*
X22388268Y-19217388D01*
X22350000Y-19225000D01*
X21075000Y-19225000D01*
X21036732Y-19217388D01*
X21004289Y-19195711D01*
X20982612Y-19163268D01*
X20975000Y-19125000D01*
X20975000Y-18925000D01*
X20982612Y-18886732D01*
X21004289Y-18854289D01*
X21036732Y-18832612D01*
X21075000Y-18825000D01*
X22350000Y-18825000D01*
X22388268Y-18832612D01*
G37*
G36*
X16663268Y-18182612D02*
G01*
X16695711Y-18204289D01*
X16717388Y-18236732D01*
X16725000Y-18275000D01*
X16725000Y-18475000D01*
X16717388Y-18513268D01*
X16695711Y-18545711D01*
X16663268Y-18567388D01*
X16625000Y-18575000D01*
X15350000Y-18575000D01*
X15311732Y-18567388D01*
X15279289Y-18545711D01*
X15257612Y-18513268D01*
X15250000Y-18475000D01*
X15250000Y-18275000D01*
X15257612Y-18236732D01*
X15279289Y-18204289D01*
X15311732Y-18182612D01*
X15350000Y-18175000D01*
X16625000Y-18175000D01*
X16663268Y-18182612D01*
G37*
G36*
X22388268Y-18182612D02*
G01*
X22420711Y-18204289D01*
X22442388Y-18236732D01*
X22450000Y-18275000D01*
X22450000Y-18475000D01*
X22442388Y-18513268D01*
X22420711Y-18545711D01*
X22388268Y-18567388D01*
X22350000Y-18575000D01*
X21075000Y-18575000D01*
X21036732Y-18567388D01*
X21004289Y-18545711D01*
X20982612Y-18513268D01*
X20975000Y-18475000D01*
X20975000Y-18275000D01*
X20982612Y-18236732D01*
X21004289Y-18204289D01*
X21036732Y-18182612D01*
X21075000Y-18175000D01*
X22350000Y-18175000D01*
X22388268Y-18182612D01*
G37*
G36*
X16663268Y-17532612D02*
G01*
X16695711Y-17554289D01*
X16717388Y-17586732D01*
X16725000Y-17625000D01*
X16725000Y-17825000D01*
X16717388Y-17863268D01*
X16695711Y-17895711D01*
X16663268Y-17917388D01*
X16625000Y-17925000D01*
X15350000Y-17925000D01*
X15311732Y-17917388D01*
X15279289Y-17895711D01*
X15257612Y-17863268D01*
X15250000Y-17825000D01*
X15250000Y-17625000D01*
X15257612Y-17586732D01*
X15279289Y-17554289D01*
X15311732Y-17532612D01*
X15350000Y-17525000D01*
X16625000Y-17525000D01*
X16663268Y-17532612D01*
G37*
G36*
X22388268Y-17532612D02*
G01*
X22420711Y-17554289D01*
X22442388Y-17586732D01*
X22450000Y-17625000D01*
X22450000Y-17825000D01*
X22442388Y-17863268D01*
X22420711Y-17895711D01*
X22388268Y-17917388D01*
X22350000Y-17925000D01*
X21075000Y-17925000D01*
X21036732Y-17917388D01*
X21004289Y-17895711D01*
X20982612Y-17863268D01*
X20975000Y-17825000D01*
X20975000Y-17625000D01*
X20982612Y-17586732D01*
X21004289Y-17554289D01*
X21036732Y-17532612D01*
X21075000Y-17525000D01*
X22350000Y-17525000D01*
X22388268Y-17532612D01*
G37*
G36*
X16663268Y-16882612D02*
G01*
X16695711Y-16904289D01*
X16717388Y-16936732D01*
X16725000Y-16975000D01*
X16725000Y-17175000D01*
X16717388Y-17213268D01*
X16695711Y-17245711D01*
X16663268Y-17267388D01*
X16625000Y-17275000D01*
X15350000Y-17275000D01*
X15311732Y-17267388D01*
X15279289Y-17245711D01*
X15257612Y-17213268D01*
X15250000Y-17175000D01*
X15250000Y-16975000D01*
X15257612Y-16936732D01*
X15279289Y-16904289D01*
X15311732Y-16882612D01*
X15350000Y-16875000D01*
X16625000Y-16875000D01*
X16663268Y-16882612D01*
G37*
G36*
X22388268Y-16882612D02*
G01*
X22420711Y-16904289D01*
X22442388Y-16936732D01*
X22450000Y-16975000D01*
X22450000Y-17175000D01*
X22442388Y-17213268D01*
X22420711Y-17245711D01*
X22388268Y-17267388D01*
X22350000Y-17275000D01*
X21075000Y-17275000D01*
X21036732Y-17267388D01*
X21004289Y-17245711D01*
X20982612Y-17213268D01*
X20975000Y-17175000D01*
X20975000Y-16975000D01*
X20982612Y-16936732D01*
X21004289Y-16904289D01*
X21036732Y-16882612D01*
X21075000Y-16875000D01*
X22350000Y-16875000D01*
X22388268Y-16882612D01*
G37*
G36*
X25204047Y-15750805D02*
G01*
X25255408Y-15756764D01*
X25272954Y-15764511D01*
X25295671Y-15769030D01*
X25319991Y-15785280D01*
X25340793Y-15794465D01*
X25355000Y-15808672D01*
X25376777Y-15823223D01*
X25391327Y-15844999D01*
X25405534Y-15859206D01*
X25414718Y-15880006D01*
X25430970Y-15904329D01*
X25435489Y-15927048D01*
X25443235Y-15944591D01*
X25449192Y-15995940D01*
X25450000Y-16000000D01*
X25450000Y-16900000D01*
X25449192Y-16904059D01*
X25443235Y-16955408D01*
X25435489Y-16972950D01*
X25430970Y-16995671D01*
X25414716Y-17019995D01*
X25405534Y-17040793D01*
X25391329Y-17054997D01*
X25376777Y-17076777D01*
X25354997Y-17091329D01*
X25340793Y-17105534D01*
X25319995Y-17114716D01*
X25295671Y-17130970D01*
X25272950Y-17135489D01*
X25255408Y-17143235D01*
X25204061Y-17149192D01*
X25200000Y-17150000D01*
X24500000Y-17150000D01*
X24495941Y-17149192D01*
X24444591Y-17143235D01*
X24427048Y-17135489D01*
X24404329Y-17130970D01*
X24380006Y-17114718D01*
X24359206Y-17105534D01*
X24344999Y-17091327D01*
X24323223Y-17076777D01*
X24308672Y-17055000D01*
X24294465Y-17040793D01*
X24285280Y-17019991D01*
X24269030Y-16995671D01*
X24264511Y-16972954D01*
X24256764Y-16955408D01*
X24250805Y-16904049D01*
X24250000Y-16900000D01*
X24250000Y-16000000D01*
X24250804Y-15995953D01*
X24256764Y-15944591D01*
X24264511Y-15927043D01*
X24269030Y-15904329D01*
X24285278Y-15880010D01*
X24294465Y-15859206D01*
X24308674Y-15844996D01*
X24323223Y-15823223D01*
X24344996Y-15808674D01*
X24359206Y-15794465D01*
X24380010Y-15785278D01*
X24404329Y-15769030D01*
X24427043Y-15764511D01*
X24444591Y-15756764D01*
X24495952Y-15750805D01*
X24500000Y-15750000D01*
X25200000Y-15750000D01*
X25204047Y-15750805D01*
G37*
G36*
X27204047Y-15750805D02*
G01*
X27255408Y-15756764D01*
X27272954Y-15764511D01*
X27295671Y-15769030D01*
X27319991Y-15785280D01*
X27340793Y-15794465D01*
X27355000Y-15808672D01*
X27376777Y-15823223D01*
X27391327Y-15844999D01*
X27405534Y-15859206D01*
X27414718Y-15880006D01*
X27430970Y-15904329D01*
X27435489Y-15927048D01*
X27443235Y-15944591D01*
X27449192Y-15995940D01*
X27450000Y-16000000D01*
X27450000Y-16900000D01*
X27449192Y-16904059D01*
X27443235Y-16955408D01*
X27435489Y-16972950D01*
X27430970Y-16995671D01*
X27414716Y-17019995D01*
X27405534Y-17040793D01*
X27391329Y-17054997D01*
X27376777Y-17076777D01*
X27354997Y-17091329D01*
X27340793Y-17105534D01*
X27319995Y-17114716D01*
X27295671Y-17130970D01*
X27272950Y-17135489D01*
X27255408Y-17143235D01*
X27204061Y-17149192D01*
X27200000Y-17150000D01*
X26500000Y-17150000D01*
X26495941Y-17149192D01*
X26444591Y-17143235D01*
X26427048Y-17135489D01*
X26404329Y-17130970D01*
X26380006Y-17114718D01*
X26359206Y-17105534D01*
X26344999Y-17091327D01*
X26323223Y-17076777D01*
X26308672Y-17055000D01*
X26294465Y-17040793D01*
X26285280Y-17019991D01*
X26269030Y-16995671D01*
X26264511Y-16972954D01*
X26256764Y-16955408D01*
X26250805Y-16904049D01*
X26250000Y-16900000D01*
X26250000Y-16000000D01*
X26250804Y-15995953D01*
X26256764Y-15944591D01*
X26264511Y-15927043D01*
X26269030Y-15904329D01*
X26285278Y-15880010D01*
X26294465Y-15859206D01*
X26308674Y-15844996D01*
X26323223Y-15823223D01*
X26344996Y-15808674D01*
X26359206Y-15794465D01*
X26380010Y-15785278D01*
X26404329Y-15769030D01*
X26427043Y-15764511D01*
X26444591Y-15756764D01*
X26495952Y-15750805D01*
X26500000Y-15750000D01*
X27200000Y-15750000D01*
X27204047Y-15750805D01*
G37*
G36*
X45204047Y-15750805D02*
G01*
X45255408Y-15756764D01*
X45272954Y-15764511D01*
X45295671Y-15769030D01*
X45319991Y-15785280D01*
X45340793Y-15794465D01*
X45355000Y-15808672D01*
X45376777Y-15823223D01*
X45391327Y-15844999D01*
X45405534Y-15859206D01*
X45414718Y-15880006D01*
X45430970Y-15904329D01*
X45435489Y-15927048D01*
X45443235Y-15944591D01*
X45449192Y-15995940D01*
X45450000Y-16000000D01*
X45450000Y-16900000D01*
X45449192Y-16904059D01*
X45443235Y-16955408D01*
X45435489Y-16972950D01*
X45430970Y-16995671D01*
X45414716Y-17019995D01*
X45405534Y-17040793D01*
X45391329Y-17054997D01*
X45376777Y-17076777D01*
X45354997Y-17091329D01*
X45340793Y-17105534D01*
X45319995Y-17114716D01*
X45295671Y-17130970D01*
X45272950Y-17135489D01*
X45255408Y-17143235D01*
X45204061Y-17149192D01*
X45200000Y-17150000D01*
X44500000Y-17150000D01*
X44495941Y-17149192D01*
X44444591Y-17143235D01*
X44427048Y-17135489D01*
X44404329Y-17130970D01*
X44380006Y-17114718D01*
X44359206Y-17105534D01*
X44344999Y-17091327D01*
X44323223Y-17076777D01*
X44308672Y-17055000D01*
X44294465Y-17040793D01*
X44285280Y-17019991D01*
X44269030Y-16995671D01*
X44264511Y-16972954D01*
X44256764Y-16955408D01*
X44250805Y-16904049D01*
X44250000Y-16900000D01*
X44250000Y-16000000D01*
X44250804Y-15995953D01*
X44256764Y-15944591D01*
X44264511Y-15927043D01*
X44269030Y-15904329D01*
X44285278Y-15880010D01*
X44294465Y-15859206D01*
X44308674Y-15844996D01*
X44323223Y-15823223D01*
X44344996Y-15808674D01*
X44359206Y-15794465D01*
X44380010Y-15785278D01*
X44404329Y-15769030D01*
X44427043Y-15764511D01*
X44444591Y-15756764D01*
X44495952Y-15750805D01*
X44500000Y-15750000D01*
X45200000Y-15750000D01*
X45204047Y-15750805D01*
G37*
G36*
X47204047Y-15750805D02*
G01*
X47255408Y-15756764D01*
X47272954Y-15764511D01*
X47295671Y-15769030D01*
X47319991Y-15785280D01*
X47340793Y-15794465D01*
X47355000Y-15808672D01*
X47376777Y-15823223D01*
X47391327Y-15844999D01*
X47405534Y-15859206D01*
X47414718Y-15880006D01*
X47430970Y-15904329D01*
X47435489Y-15927048D01*
X47443235Y-15944591D01*
X47449192Y-15995940D01*
X47450000Y-16000000D01*
X47450000Y-16900000D01*
X47449192Y-16904059D01*
X47443235Y-16955408D01*
X47435489Y-16972950D01*
X47430970Y-16995671D01*
X47414716Y-17019995D01*
X47405534Y-17040793D01*
X47391329Y-17054997D01*
X47376777Y-17076777D01*
X47354997Y-17091329D01*
X47340793Y-17105534D01*
X47319995Y-17114716D01*
X47295671Y-17130970D01*
X47272950Y-17135489D01*
X47255408Y-17143235D01*
X47204061Y-17149192D01*
X47200000Y-17150000D01*
X46500000Y-17150000D01*
X46495941Y-17149192D01*
X46444591Y-17143235D01*
X46427048Y-17135489D01*
X46404329Y-17130970D01*
X46380006Y-17114718D01*
X46359206Y-17105534D01*
X46344999Y-17091327D01*
X46323223Y-17076777D01*
X46308672Y-17055000D01*
X46294465Y-17040793D01*
X46285280Y-17019991D01*
X46269030Y-16995671D01*
X46264511Y-16972954D01*
X46256764Y-16955408D01*
X46250805Y-16904049D01*
X46250000Y-16900000D01*
X46250000Y-16000000D01*
X46250804Y-15995953D01*
X46256764Y-15944591D01*
X46264511Y-15927043D01*
X46269030Y-15904329D01*
X46285278Y-15880010D01*
X46294465Y-15859206D01*
X46308674Y-15844996D01*
X46323223Y-15823223D01*
X46344996Y-15808674D01*
X46359206Y-15794465D01*
X46380010Y-15785278D01*
X46404329Y-15769030D01*
X46427043Y-15764511D01*
X46444591Y-15756764D01*
X46495952Y-15750805D01*
X46500000Y-15750000D01*
X47200000Y-15750000D01*
X47204047Y-15750805D01*
G37*
G36*
X49904047Y-15750805D02*
G01*
X49955408Y-15756764D01*
X49972954Y-15764511D01*
X49995671Y-15769030D01*
X50019991Y-15785280D01*
X50040793Y-15794465D01*
X50055000Y-15808672D01*
X50076777Y-15823223D01*
X50091327Y-15844999D01*
X50105534Y-15859206D01*
X50114718Y-15880006D01*
X50130970Y-15904329D01*
X50135489Y-15927048D01*
X50143235Y-15944591D01*
X50149192Y-15995940D01*
X50150000Y-16000000D01*
X50150000Y-16900000D01*
X50149192Y-16904059D01*
X50143235Y-16955408D01*
X50135489Y-16972950D01*
X50130970Y-16995671D01*
X50114716Y-17019995D01*
X50105534Y-17040793D01*
X50091329Y-17054997D01*
X50076777Y-17076777D01*
X50054997Y-17091329D01*
X50040793Y-17105534D01*
X50019995Y-17114716D01*
X49995671Y-17130970D01*
X49972950Y-17135489D01*
X49955408Y-17143235D01*
X49904061Y-17149192D01*
X49900000Y-17150000D01*
X49200000Y-17150000D01*
X49195941Y-17149192D01*
X49144591Y-17143235D01*
X49127048Y-17135489D01*
X49104329Y-17130970D01*
X49080006Y-17114718D01*
X49059206Y-17105534D01*
X49044999Y-17091327D01*
X49023223Y-17076777D01*
X49008672Y-17055000D01*
X48994465Y-17040793D01*
X48985280Y-17019991D01*
X48969030Y-16995671D01*
X48964511Y-16972954D01*
X48956764Y-16955408D01*
X48950805Y-16904049D01*
X48950000Y-16900000D01*
X48950000Y-16000000D01*
X48950804Y-15995953D01*
X48956764Y-15944591D01*
X48964511Y-15927043D01*
X48969030Y-15904329D01*
X48985278Y-15880010D01*
X48994465Y-15859206D01*
X49008674Y-15844996D01*
X49023223Y-15823223D01*
X49044996Y-15808674D01*
X49059206Y-15794465D01*
X49080010Y-15785278D01*
X49104329Y-15769030D01*
X49127043Y-15764511D01*
X49144591Y-15756764D01*
X49195952Y-15750805D01*
X49200000Y-15750000D01*
X49900000Y-15750000D01*
X49904047Y-15750805D01*
G37*
G36*
X51904047Y-15750805D02*
G01*
X51955408Y-15756764D01*
X51972954Y-15764511D01*
X51995671Y-15769030D01*
X52019991Y-15785280D01*
X52040793Y-15794465D01*
X52055000Y-15808672D01*
X52076777Y-15823223D01*
X52091327Y-15844999D01*
X52105534Y-15859206D01*
X52114718Y-15880006D01*
X52130970Y-15904329D01*
X52135489Y-15927048D01*
X52143235Y-15944591D01*
X52149192Y-15995940D01*
X52150000Y-16000000D01*
X52150000Y-16900000D01*
X52149192Y-16904059D01*
X52143235Y-16955408D01*
X52135489Y-16972950D01*
X52130970Y-16995671D01*
X52114716Y-17019995D01*
X52105534Y-17040793D01*
X52091329Y-17054997D01*
X52076777Y-17076777D01*
X52054997Y-17091329D01*
X52040793Y-17105534D01*
X52019995Y-17114716D01*
X51995671Y-17130970D01*
X51972950Y-17135489D01*
X51955408Y-17143235D01*
X51904061Y-17149192D01*
X51900000Y-17150000D01*
X51200000Y-17150000D01*
X51195941Y-17149192D01*
X51144591Y-17143235D01*
X51127048Y-17135489D01*
X51104329Y-17130970D01*
X51080006Y-17114718D01*
X51059206Y-17105534D01*
X51044999Y-17091327D01*
X51023223Y-17076777D01*
X51008672Y-17055000D01*
X50994465Y-17040793D01*
X50985280Y-17019991D01*
X50969030Y-16995671D01*
X50964511Y-16972954D01*
X50956764Y-16955408D01*
X50950805Y-16904049D01*
X50950000Y-16900000D01*
X50950000Y-16000000D01*
X50950804Y-15995953D01*
X50956764Y-15944591D01*
X50964511Y-15927043D01*
X50969030Y-15904329D01*
X50985278Y-15880010D01*
X50994465Y-15859206D01*
X51008674Y-15844996D01*
X51023223Y-15823223D01*
X51044996Y-15808674D01*
X51059206Y-15794465D01*
X51080010Y-15785278D01*
X51104329Y-15769030D01*
X51127043Y-15764511D01*
X51144591Y-15756764D01*
X51195952Y-15750805D01*
X51200000Y-15750000D01*
X51900000Y-15750000D01*
X51904047Y-15750805D01*
G37*
G36*
X8850000Y-13850000D02*
G01*
X7150000Y-13850000D01*
X7150000Y-12150000D01*
X8850000Y-12150000D01*
X8850000Y-13850000D01*
G37*
G36*
X10786742Y-12186601D02*
G01*
X10940687Y-12250367D01*
X11079234Y-12342941D01*
X11197059Y-12460766D01*
X11289633Y-12599313D01*
X11353399Y-12753258D01*
X11385907Y-12916685D01*
X11385907Y-13083315D01*
X11353399Y-13246742D01*
X11289633Y-13400687D01*
X11197059Y-13539234D01*
X11079234Y-13657059D01*
X10940687Y-13749633D01*
X10786742Y-13813399D01*
X10623315Y-13845907D01*
X10456685Y-13845907D01*
X10293258Y-13813399D01*
X10139313Y-13749633D01*
X10000766Y-13657059D01*
X9882941Y-13539234D01*
X9790367Y-13400687D01*
X9726601Y-13246742D01*
X9694093Y-13083315D01*
X9694093Y-12916685D01*
X9726601Y-12753258D01*
X9790367Y-12599313D01*
X9882941Y-12460766D01*
X10000766Y-12342941D01*
X10139313Y-12250367D01*
X10293258Y-12186601D01*
X10456685Y-12154093D01*
X10623315Y-12154093D01*
X10786742Y-12186601D01*
G37*
G36*
X13326742Y-12186601D02*
G01*
X13480687Y-12250367D01*
X13619234Y-12342941D01*
X13737059Y-12460766D01*
X13829633Y-12599313D01*
X13893399Y-12753258D01*
X13925907Y-12916685D01*
X13925907Y-13083315D01*
X13893399Y-13246742D01*
X13829633Y-13400687D01*
X13737059Y-13539234D01*
X13619234Y-13657059D01*
X13480687Y-13749633D01*
X13326742Y-13813399D01*
X13163315Y-13845907D01*
X12996685Y-13845907D01*
X12833258Y-13813399D01*
X12679313Y-13749633D01*
X12540766Y-13657059D01*
X12422941Y-13539234D01*
X12330367Y-13400687D01*
X12266601Y-13246742D01*
X12234093Y-13083315D01*
X12234093Y-12916685D01*
X12266601Y-12753258D01*
X12330367Y-12599313D01*
X12422941Y-12460766D01*
X12540766Y-12342941D01*
X12679313Y-12250367D01*
X12833258Y-12186601D01*
X12996685Y-12154093D01*
X13163315Y-12154093D01*
X13326742Y-12186601D01*
G37*
G36*
X15866742Y-12186601D02*
G01*
X16020687Y-12250367D01*
X16159234Y-12342941D01*
X16277059Y-12460766D01*
X16369633Y-12599313D01*
X16433399Y-12753258D01*
X16465907Y-12916685D01*
X16465907Y-13083315D01*
X16433399Y-13246742D01*
X16369633Y-13400687D01*
X16277059Y-13539234D01*
X16159234Y-13657059D01*
X16020687Y-13749633D01*
X15866742Y-13813399D01*
X15703315Y-13845907D01*
X15536685Y-13845907D01*
X15373258Y-13813399D01*
X15219313Y-13749633D01*
X15080766Y-13657059D01*
X14962941Y-13539234D01*
X14870367Y-13400687D01*
X14806601Y-13246742D01*
X14774093Y-13083315D01*
X14774093Y-12916685D01*
X14806601Y-12753258D01*
X14870367Y-12599313D01*
X14962941Y-12460766D01*
X15080766Y-12342941D01*
X15219313Y-12250367D01*
X15373258Y-12186601D01*
X15536685Y-12154093D01*
X15703315Y-12154093D01*
X15866742Y-12186601D01*
G37*
G36*
X18406742Y-12186601D02*
G01*
X18560687Y-12250367D01*
X18699234Y-12342941D01*
X18817059Y-12460766D01*
X18909633Y-12599313D01*
X18973399Y-12753258D01*
X19005907Y-12916685D01*
X19005907Y-13083315D01*
X18973399Y-13246742D01*
X18909633Y-13400687D01*
X18817059Y-13539234D01*
X18699234Y-13657059D01*
X18560687Y-13749633D01*
X18406742Y-13813399D01*
X18243315Y-13845907D01*
X18076685Y-13845907D01*
X17913258Y-13813399D01*
X17759313Y-13749633D01*
X17620766Y-13657059D01*
X17502941Y-13539234D01*
X17410367Y-13400687D01*
X17346601Y-13246742D01*
X17314093Y-13083315D01*
X17314093Y-12916685D01*
X17346601Y-12753258D01*
X17410367Y-12599313D01*
X17502941Y-12460766D01*
X17620766Y-12342941D01*
X17759313Y-12250367D01*
X17913258Y-12186601D01*
X18076685Y-12154093D01*
X18243315Y-12154093D01*
X18406742Y-12186601D01*
G37*
G36*
X20946742Y-12186601D02*
G01*
X21100687Y-12250367D01*
X21239234Y-12342941D01*
X21357059Y-12460766D01*
X21449633Y-12599313D01*
X21513399Y-12753258D01*
X21545907Y-12916685D01*
X21545907Y-13083315D01*
X21513399Y-13246742D01*
X21449633Y-13400687D01*
X21357059Y-13539234D01*
X21239234Y-13657059D01*
X21100687Y-13749633D01*
X20946742Y-13813399D01*
X20783315Y-13845907D01*
X20616685Y-13845907D01*
X20453258Y-13813399D01*
X20299313Y-13749633D01*
X20160766Y-13657059D01*
X20042941Y-13539234D01*
X19950367Y-13400687D01*
X19886601Y-13246742D01*
X19854093Y-13083315D01*
X19854093Y-12916685D01*
X19886601Y-12753258D01*
X19950367Y-12599313D01*
X20042941Y-12460766D01*
X20160766Y-12342941D01*
X20299313Y-12250367D01*
X20453258Y-12186601D01*
X20616685Y-12154093D01*
X20783315Y-12154093D01*
X20946742Y-12186601D01*
G37*
G36*
X23486742Y-12186601D02*
G01*
X23640687Y-12250367D01*
X23779234Y-12342941D01*
X23897059Y-12460766D01*
X23989633Y-12599313D01*
X24053399Y-12753258D01*
X24085907Y-12916685D01*
X24085907Y-13083315D01*
X24053399Y-13246742D01*
X23989633Y-13400687D01*
X23897059Y-13539234D01*
X23779234Y-13657059D01*
X23640687Y-13749633D01*
X23486742Y-13813399D01*
X23323315Y-13845907D01*
X23156685Y-13845907D01*
X22993258Y-13813399D01*
X22839313Y-13749633D01*
X22700766Y-13657059D01*
X22582941Y-13539234D01*
X22490367Y-13400687D01*
X22426601Y-13246742D01*
X22394093Y-13083315D01*
X22394093Y-12916685D01*
X22426601Y-12753258D01*
X22490367Y-12599313D01*
X22582941Y-12460766D01*
X22700766Y-12342941D01*
X22839313Y-12250367D01*
X22993258Y-12186601D01*
X23156685Y-12154093D01*
X23323315Y-12154093D01*
X23486742Y-12186601D01*
G37*
G36*
X26026742Y-12186601D02*
G01*
X26180687Y-12250367D01*
X26319234Y-12342941D01*
X26437059Y-12460766D01*
X26529633Y-12599313D01*
X26593399Y-12753258D01*
X26625907Y-12916685D01*
X26625907Y-13083315D01*
X26593399Y-13246742D01*
X26529633Y-13400687D01*
X26437059Y-13539234D01*
X26319234Y-13657059D01*
X26180687Y-13749633D01*
X26026742Y-13813399D01*
X25863315Y-13845907D01*
X25696685Y-13845907D01*
X25533258Y-13813399D01*
X25379313Y-13749633D01*
X25240766Y-13657059D01*
X25122941Y-13539234D01*
X25030367Y-13400687D01*
X24966601Y-13246742D01*
X24934093Y-13083315D01*
X24934093Y-12916685D01*
X24966601Y-12753258D01*
X25030367Y-12599313D01*
X25122941Y-12460766D01*
X25240766Y-12342941D01*
X25379313Y-12250367D01*
X25533258Y-12186601D01*
X25696685Y-12154093D01*
X25863315Y-12154093D01*
X26026742Y-12186601D01*
G37*
G36*
X28566742Y-12186601D02*
G01*
X28720687Y-12250367D01*
X28859234Y-12342941D01*
X28977059Y-12460766D01*
X29069633Y-12599313D01*
X29133399Y-12753258D01*
X29165907Y-12916685D01*
X29165907Y-13083315D01*
X29133399Y-13246742D01*
X29069633Y-13400687D01*
X28977059Y-13539234D01*
X28859234Y-13657059D01*
X28720687Y-13749633D01*
X28566742Y-13813399D01*
X28403315Y-13845907D01*
X28236685Y-13845907D01*
X28073258Y-13813399D01*
X27919313Y-13749633D01*
X27780766Y-13657059D01*
X27662941Y-13539234D01*
X27570367Y-13400687D01*
X27506601Y-13246742D01*
X27474093Y-13083315D01*
X27474093Y-12916685D01*
X27506601Y-12753258D01*
X27570367Y-12599313D01*
X27662941Y-12460766D01*
X27780766Y-12342941D01*
X27919313Y-12250367D01*
X28073258Y-12186601D01*
X28236685Y-12154093D01*
X28403315Y-12154093D01*
X28566742Y-12186601D01*
G37*
G36*
X31106742Y-12186601D02*
G01*
X31260687Y-12250367D01*
X31399234Y-12342941D01*
X31517059Y-12460766D01*
X31609633Y-12599313D01*
X31673399Y-12753258D01*
X31705907Y-12916685D01*
X31705907Y-13083315D01*
X31673399Y-13246742D01*
X31609633Y-13400687D01*
X31517059Y-13539234D01*
X31399234Y-13657059D01*
X31260687Y-13749633D01*
X31106742Y-13813399D01*
X30943315Y-13845907D01*
X30776685Y-13845907D01*
X30613258Y-13813399D01*
X30459313Y-13749633D01*
X30320766Y-13657059D01*
X30202941Y-13539234D01*
X30110367Y-13400687D01*
X30046601Y-13246742D01*
X30014093Y-13083315D01*
X30014093Y-12916685D01*
X30046601Y-12753258D01*
X30110367Y-12599313D01*
X30202941Y-12460766D01*
X30320766Y-12342941D01*
X30459313Y-12250367D01*
X30613258Y-12186601D01*
X30776685Y-12154093D01*
X30943315Y-12154093D01*
X31106742Y-12186601D01*
G37*
G36*
X33646742Y-12186601D02*
G01*
X33800687Y-12250367D01*
X33939234Y-12342941D01*
X34057059Y-12460766D01*
X34149633Y-12599313D01*
X34213399Y-12753258D01*
X34245907Y-12916685D01*
X34245907Y-13083315D01*
X34213399Y-13246742D01*
X34149633Y-13400687D01*
X34057059Y-13539234D01*
X33939234Y-13657059D01*
X33800687Y-13749633D01*
X33646742Y-13813399D01*
X33483315Y-13845907D01*
X33316685Y-13845907D01*
X33153258Y-13813399D01*
X32999313Y-13749633D01*
X32860766Y-13657059D01*
X32742941Y-13539234D01*
X32650367Y-13400687D01*
X32586601Y-13246742D01*
X32554093Y-13083315D01*
X32554093Y-12916685D01*
X32586601Y-12753258D01*
X32650367Y-12599313D01*
X32742941Y-12460766D01*
X32860766Y-12342941D01*
X32999313Y-12250367D01*
X33153258Y-12186601D01*
X33316685Y-12154093D01*
X33483315Y-12154093D01*
X33646742Y-12186601D01*
G37*
G36*
X36186742Y-12186601D02*
G01*
X36340687Y-12250367D01*
X36479234Y-12342941D01*
X36597059Y-12460766D01*
X36689633Y-12599313D01*
X36753399Y-12753258D01*
X36785907Y-12916685D01*
X36785907Y-13083315D01*
X36753399Y-13246742D01*
X36689633Y-13400687D01*
X36597059Y-13539234D01*
X36479234Y-13657059D01*
X36340687Y-13749633D01*
X36186742Y-13813399D01*
X36023315Y-13845907D01*
X35856685Y-13845907D01*
X35693258Y-13813399D01*
X35539313Y-13749633D01*
X35400766Y-13657059D01*
X35282941Y-13539234D01*
X35190367Y-13400687D01*
X35126601Y-13246742D01*
X35094093Y-13083315D01*
X35094093Y-12916685D01*
X35126601Y-12753258D01*
X35190367Y-12599313D01*
X35282941Y-12460766D01*
X35400766Y-12342941D01*
X35539313Y-12250367D01*
X35693258Y-12186601D01*
X35856685Y-12154093D01*
X36023315Y-12154093D01*
X36186742Y-12186601D01*
G37*
G36*
X38726742Y-12186601D02*
G01*
X38880687Y-12250367D01*
X39019234Y-12342941D01*
X39137059Y-12460766D01*
X39229633Y-12599313D01*
X39293399Y-12753258D01*
X39325907Y-12916685D01*
X39325907Y-13083315D01*
X39293399Y-13246742D01*
X39229633Y-13400687D01*
X39137059Y-13539234D01*
X39019234Y-13657059D01*
X38880687Y-13749633D01*
X38726742Y-13813399D01*
X38563315Y-13845907D01*
X38396685Y-13845907D01*
X38233258Y-13813399D01*
X38079313Y-13749633D01*
X37940766Y-13657059D01*
X37822941Y-13539234D01*
X37730367Y-13400687D01*
X37666601Y-13246742D01*
X37634093Y-13083315D01*
X37634093Y-12916685D01*
X37666601Y-12753258D01*
X37730367Y-12599313D01*
X37822941Y-12460766D01*
X37940766Y-12342941D01*
X38079313Y-12250367D01*
X38233258Y-12186601D01*
X38396685Y-12154093D01*
X38563315Y-12154093D01*
X38726742Y-12186601D01*
G37*
G36*
X41266742Y-12186601D02*
G01*
X41420687Y-12250367D01*
X41559234Y-12342941D01*
X41677059Y-12460766D01*
X41769633Y-12599313D01*
X41833399Y-12753258D01*
X41865907Y-12916685D01*
X41865907Y-13083315D01*
X41833399Y-13246742D01*
X41769633Y-13400687D01*
X41677059Y-13539234D01*
X41559234Y-13657059D01*
X41420687Y-13749633D01*
X41266742Y-13813399D01*
X41103315Y-13845907D01*
X40936685Y-13845907D01*
X40773258Y-13813399D01*
X40619313Y-13749633D01*
X40480766Y-13657059D01*
X40362941Y-13539234D01*
X40270367Y-13400687D01*
X40206601Y-13246742D01*
X40174093Y-13083315D01*
X40174093Y-12916685D01*
X40206601Y-12753258D01*
X40270367Y-12599313D01*
X40362941Y-12460766D01*
X40480766Y-12342941D01*
X40619313Y-12250367D01*
X40773258Y-12186601D01*
X40936685Y-12154093D01*
X41103315Y-12154093D01*
X41266742Y-12186601D01*
G37*
G36*
X43806742Y-12186601D02*
G01*
X43960687Y-12250367D01*
X44099234Y-12342941D01*
X44217059Y-12460766D01*
X44309633Y-12599313D01*
X44373399Y-12753258D01*
X44405907Y-12916685D01*
X44405907Y-13083315D01*
X44373399Y-13246742D01*
X44309633Y-13400687D01*
X44217059Y-13539234D01*
X44099234Y-13657059D01*
X43960687Y-13749633D01*
X43806742Y-13813399D01*
X43643315Y-13845907D01*
X43476685Y-13845907D01*
X43313258Y-13813399D01*
X43159313Y-13749633D01*
X43020766Y-13657059D01*
X42902941Y-13539234D01*
X42810367Y-13400687D01*
X42746601Y-13246742D01*
X42714093Y-13083315D01*
X42714093Y-12916685D01*
X42746601Y-12753258D01*
X42810367Y-12599313D01*
X42902941Y-12460766D01*
X43020766Y-12342941D01*
X43159313Y-12250367D01*
X43313258Y-12186601D01*
X43476685Y-12154093D01*
X43643315Y-12154093D01*
X43806742Y-12186601D01*
G37*
G36*
X46346742Y-12186601D02*
G01*
X46500687Y-12250367D01*
X46639234Y-12342941D01*
X46757059Y-12460766D01*
X46849633Y-12599313D01*
X46913399Y-12753258D01*
X46945907Y-12916685D01*
X46945907Y-13083315D01*
X46913399Y-13246742D01*
X46849633Y-13400687D01*
X46757059Y-13539234D01*
X46639234Y-13657059D01*
X46500687Y-13749633D01*
X46346742Y-13813399D01*
X46183315Y-13845907D01*
X46016685Y-13845907D01*
X45853258Y-13813399D01*
X45699313Y-13749633D01*
X45560766Y-13657059D01*
X45442941Y-13539234D01*
X45350367Y-13400687D01*
X45286601Y-13246742D01*
X45254093Y-13083315D01*
X45254093Y-12916685D01*
X45286601Y-12753258D01*
X45350367Y-12599313D01*
X45442941Y-12460766D01*
X45560766Y-12342941D01*
X45699313Y-12250367D01*
X45853258Y-12186601D01*
X46016685Y-12154093D01*
X46183315Y-12154093D01*
X46346742Y-12186601D01*
G37*
G36*
X48886742Y-12186601D02*
G01*
X49040687Y-12250367D01*
X49179234Y-12342941D01*
X49297059Y-12460766D01*
X49389633Y-12599313D01*
X49453399Y-12753258D01*
X49485907Y-12916685D01*
X49485907Y-13083315D01*
X49453399Y-13246742D01*
X49389633Y-13400687D01*
X49297059Y-13539234D01*
X49179234Y-13657059D01*
X49040687Y-13749633D01*
X48886742Y-13813399D01*
X48723315Y-13845907D01*
X48556685Y-13845907D01*
X48393258Y-13813399D01*
X48239313Y-13749633D01*
X48100766Y-13657059D01*
X47982941Y-13539234D01*
X47890367Y-13400687D01*
X47826601Y-13246742D01*
X47794093Y-13083315D01*
X47794093Y-12916685D01*
X47826601Y-12753258D01*
X47890367Y-12599313D01*
X47982941Y-12460766D01*
X48100766Y-12342941D01*
X48239313Y-12250367D01*
X48393258Y-12186601D01*
X48556685Y-12154093D01*
X48723315Y-12154093D01*
X48886742Y-12186601D01*
G37*
G36*
X51426742Y-12186601D02*
G01*
X51580687Y-12250367D01*
X51719234Y-12342941D01*
X51837059Y-12460766D01*
X51929633Y-12599313D01*
X51993399Y-12753258D01*
X52025907Y-12916685D01*
X52025907Y-13083315D01*
X51993399Y-13246742D01*
X51929633Y-13400687D01*
X51837059Y-13539234D01*
X51719234Y-13657059D01*
X51580687Y-13749633D01*
X51426742Y-13813399D01*
X51263315Y-13845907D01*
X51096685Y-13845907D01*
X50933258Y-13813399D01*
X50779313Y-13749633D01*
X50640766Y-13657059D01*
X50522941Y-13539234D01*
X50430367Y-13400687D01*
X50366601Y-13246742D01*
X50334093Y-13083315D01*
X50334093Y-12916685D01*
X50366601Y-12753258D01*
X50430367Y-12599313D01*
X50522941Y-12460766D01*
X50640766Y-12342941D01*
X50779313Y-12250367D01*
X50933258Y-12186601D01*
X51096685Y-12154093D01*
X51263315Y-12154093D01*
X51426742Y-12186601D01*
G37*
G36*
X53966742Y-12186601D02*
G01*
X54120687Y-12250367D01*
X54259234Y-12342941D01*
X54377059Y-12460766D01*
X54469633Y-12599313D01*
X54533399Y-12753258D01*
X54565907Y-12916685D01*
X54565907Y-13083315D01*
X54533399Y-13246742D01*
X54469633Y-13400687D01*
X54377059Y-13539234D01*
X54259234Y-13657059D01*
X54120687Y-13749633D01*
X53966742Y-13813399D01*
X53803315Y-13845907D01*
X53636685Y-13845907D01*
X53473258Y-13813399D01*
X53319313Y-13749633D01*
X53180766Y-13657059D01*
X53062941Y-13539234D01*
X52970367Y-13400687D01*
X52906601Y-13246742D01*
X52874093Y-13083315D01*
X52874093Y-12916685D01*
X52906601Y-12753258D01*
X52970367Y-12599313D01*
X53062941Y-12460766D01*
X53180766Y-12342941D01*
X53319313Y-12250367D01*
X53473258Y-12186601D01*
X53636685Y-12154093D01*
X53803315Y-12154093D01*
X53966742Y-12186601D01*
G37*
G36*
X56506742Y-12186601D02*
G01*
X56660687Y-12250367D01*
X56799234Y-12342941D01*
X56917059Y-12460766D01*
X57009633Y-12599313D01*
X57073399Y-12753258D01*
X57105907Y-12916685D01*
X57105907Y-13083315D01*
X57073399Y-13246742D01*
X57009633Y-13400687D01*
X56917059Y-13539234D01*
X56799234Y-13657059D01*
X56660687Y-13749633D01*
X56506742Y-13813399D01*
X56343315Y-13845907D01*
X56176685Y-13845907D01*
X56013258Y-13813399D01*
X55859313Y-13749633D01*
X55720766Y-13657059D01*
X55602941Y-13539234D01*
X55510367Y-13400687D01*
X55446601Y-13246742D01*
X55414093Y-13083315D01*
X55414093Y-12916685D01*
X55446601Y-12753258D01*
X55510367Y-12599313D01*
X55602941Y-12460766D01*
X55720766Y-12342941D01*
X55859313Y-12250367D01*
X56013258Y-12186601D01*
X56176685Y-12154093D01*
X56343315Y-12154093D01*
X56506742Y-12186601D01*
G37*
G36*
X8246742Y-9646601D02*
G01*
X8400687Y-9710367D01*
X8539234Y-9802941D01*
X8657059Y-9920766D01*
X8749633Y-10059313D01*
X8813399Y-10213258D01*
X8845907Y-10376685D01*
X8845907Y-10543315D01*
X8813399Y-10706742D01*
X8749633Y-10860687D01*
X8657059Y-10999234D01*
X8539234Y-11117059D01*
X8400687Y-11209633D01*
X8246742Y-11273399D01*
X8083315Y-11305907D01*
X7916685Y-11305907D01*
X7753258Y-11273399D01*
X7599313Y-11209633D01*
X7460766Y-11117059D01*
X7342941Y-10999234D01*
X7250367Y-10860687D01*
X7186601Y-10706742D01*
X7154093Y-10543315D01*
X7154093Y-10376685D01*
X7186601Y-10213258D01*
X7250367Y-10059313D01*
X7342941Y-9920766D01*
X7460766Y-9802941D01*
X7599313Y-9710367D01*
X7753258Y-9646601D01*
X7916685Y-9614093D01*
X8083315Y-9614093D01*
X8246742Y-9646601D01*
G37*
G36*
X10786742Y-9646601D02*
G01*
X10940687Y-9710367D01*
X11079234Y-9802941D01*
X11197059Y-9920766D01*
X11289633Y-10059313D01*
X11353399Y-10213258D01*
X11385907Y-10376685D01*
X11385907Y-10543315D01*
X11353399Y-10706742D01*
X11289633Y-10860687D01*
X11197059Y-10999234D01*
X11079234Y-11117059D01*
X10940687Y-11209633D01*
X10786742Y-11273399D01*
X10623315Y-11305907D01*
X10456685Y-11305907D01*
X10293258Y-11273399D01*
X10139313Y-11209633D01*
X10000766Y-11117059D01*
X9882941Y-10999234D01*
X9790367Y-10860687D01*
X9726601Y-10706742D01*
X9694093Y-10543315D01*
X9694093Y-10376685D01*
X9726601Y-10213258D01*
X9790367Y-10059313D01*
X9882941Y-9920766D01*
X10000766Y-9802941D01*
X10139313Y-9710367D01*
X10293258Y-9646601D01*
X10456685Y-9614093D01*
X10623315Y-9614093D01*
X10786742Y-9646601D01*
G37*
G36*
X13326742Y-9646601D02*
G01*
X13480687Y-9710367D01*
X13619234Y-9802941D01*
X13737059Y-9920766D01*
X13829633Y-10059313D01*
X13893399Y-10213258D01*
X13925907Y-10376685D01*
X13925907Y-10543315D01*
X13893399Y-10706742D01*
X13829633Y-10860687D01*
X13737059Y-10999234D01*
X13619234Y-11117059D01*
X13480687Y-11209633D01*
X13326742Y-11273399D01*
X13163315Y-11305907D01*
X12996685Y-11305907D01*
X12833258Y-11273399D01*
X12679313Y-11209633D01*
X12540766Y-11117059D01*
X12422941Y-10999234D01*
X12330367Y-10860687D01*
X12266601Y-10706742D01*
X12234093Y-10543315D01*
X12234093Y-10376685D01*
X12266601Y-10213258D01*
X12330367Y-10059313D01*
X12422941Y-9920766D01*
X12540766Y-9802941D01*
X12679313Y-9710367D01*
X12833258Y-9646601D01*
X12996685Y-9614093D01*
X13163315Y-9614093D01*
X13326742Y-9646601D01*
G37*
G36*
X15866742Y-9646601D02*
G01*
X16020687Y-9710367D01*
X16159234Y-9802941D01*
X16277059Y-9920766D01*
X16369633Y-10059313D01*
X16433399Y-10213258D01*
X16465907Y-10376685D01*
X16465907Y-10543315D01*
X16433399Y-10706742D01*
X16369633Y-10860687D01*
X16277059Y-10999234D01*
X16159234Y-11117059D01*
X16020687Y-11209633D01*
X15866742Y-11273399D01*
X15703315Y-11305907D01*
X15536685Y-11305907D01*
X15373258Y-11273399D01*
X15219313Y-11209633D01*
X15080766Y-11117059D01*
X14962941Y-10999234D01*
X14870367Y-10860687D01*
X14806601Y-10706742D01*
X14774093Y-10543315D01*
X14774093Y-10376685D01*
X14806601Y-10213258D01*
X14870367Y-10059313D01*
X14962941Y-9920766D01*
X15080766Y-9802941D01*
X15219313Y-9710367D01*
X15373258Y-9646601D01*
X15536685Y-9614093D01*
X15703315Y-9614093D01*
X15866742Y-9646601D01*
G37*
G36*
X18406742Y-9646601D02*
G01*
X18560687Y-9710367D01*
X18699234Y-9802941D01*
X18817059Y-9920766D01*
X18909633Y-10059313D01*
X18973399Y-10213258D01*
X19005907Y-10376685D01*
X19005907Y-10543315D01*
X18973399Y-10706742D01*
X18909633Y-10860687D01*
X18817059Y-10999234D01*
X18699234Y-11117059D01*
X18560687Y-11209633D01*
X18406742Y-11273399D01*
X18243315Y-11305907D01*
X18076685Y-11305907D01*
X17913258Y-11273399D01*
X17759313Y-11209633D01*
X17620766Y-11117059D01*
X17502941Y-10999234D01*
X17410367Y-10860687D01*
X17346601Y-10706742D01*
X17314093Y-10543315D01*
X17314093Y-10376685D01*
X17346601Y-10213258D01*
X17410367Y-10059313D01*
X17502941Y-9920766D01*
X17620766Y-9802941D01*
X17759313Y-9710367D01*
X17913258Y-9646601D01*
X18076685Y-9614093D01*
X18243315Y-9614093D01*
X18406742Y-9646601D01*
G37*
G36*
X20946742Y-9646601D02*
G01*
X21100687Y-9710367D01*
X21239234Y-9802941D01*
X21357059Y-9920766D01*
X21449633Y-10059313D01*
X21513399Y-10213258D01*
X21545907Y-10376685D01*
X21545907Y-10543315D01*
X21513399Y-10706742D01*
X21449633Y-10860687D01*
X21357059Y-10999234D01*
X21239234Y-11117059D01*
X21100687Y-11209633D01*
X20946742Y-11273399D01*
X20783315Y-11305907D01*
X20616685Y-11305907D01*
X20453258Y-11273399D01*
X20299313Y-11209633D01*
X20160766Y-11117059D01*
X20042941Y-10999234D01*
X19950367Y-10860687D01*
X19886601Y-10706742D01*
X19854093Y-10543315D01*
X19854093Y-10376685D01*
X19886601Y-10213258D01*
X19950367Y-10059313D01*
X20042941Y-9920766D01*
X20160766Y-9802941D01*
X20299313Y-9710367D01*
X20453258Y-9646601D01*
X20616685Y-9614093D01*
X20783315Y-9614093D01*
X20946742Y-9646601D01*
G37*
G36*
X23486742Y-9646601D02*
G01*
X23640687Y-9710367D01*
X23779234Y-9802941D01*
X23897059Y-9920766D01*
X23989633Y-10059313D01*
X24053399Y-10213258D01*
X24085907Y-10376685D01*
X24085907Y-10543315D01*
X24053399Y-10706742D01*
X23989633Y-10860687D01*
X23897059Y-10999234D01*
X23779234Y-11117059D01*
X23640687Y-11209633D01*
X23486742Y-11273399D01*
X23323315Y-11305907D01*
X23156685Y-11305907D01*
X22993258Y-11273399D01*
X22839313Y-11209633D01*
X22700766Y-11117059D01*
X22582941Y-10999234D01*
X22490367Y-10860687D01*
X22426601Y-10706742D01*
X22394093Y-10543315D01*
X22394093Y-10376685D01*
X22426601Y-10213258D01*
X22490367Y-10059313D01*
X22582941Y-9920766D01*
X22700766Y-9802941D01*
X22839313Y-9710367D01*
X22993258Y-9646601D01*
X23156685Y-9614093D01*
X23323315Y-9614093D01*
X23486742Y-9646601D01*
G37*
G36*
X26026742Y-9646601D02*
G01*
X26180687Y-9710367D01*
X26319234Y-9802941D01*
X26437059Y-9920766D01*
X26529633Y-10059313D01*
X26593399Y-10213258D01*
X26625907Y-10376685D01*
X26625907Y-10543315D01*
X26593399Y-10706742D01*
X26529633Y-10860687D01*
X26437059Y-10999234D01*
X26319234Y-11117059D01*
X26180687Y-11209633D01*
X26026742Y-11273399D01*
X25863315Y-11305907D01*
X25696685Y-11305907D01*
X25533258Y-11273399D01*
X25379313Y-11209633D01*
X25240766Y-11117059D01*
X25122941Y-10999234D01*
X25030367Y-10860687D01*
X24966601Y-10706742D01*
X24934093Y-10543315D01*
X24934093Y-10376685D01*
X24966601Y-10213258D01*
X25030367Y-10059313D01*
X25122941Y-9920766D01*
X25240766Y-9802941D01*
X25379313Y-9710367D01*
X25533258Y-9646601D01*
X25696685Y-9614093D01*
X25863315Y-9614093D01*
X26026742Y-9646601D01*
G37*
G36*
X28566742Y-9646601D02*
G01*
X28720687Y-9710367D01*
X28859234Y-9802941D01*
X28977059Y-9920766D01*
X29069633Y-10059313D01*
X29133399Y-10213258D01*
X29165907Y-10376685D01*
X29165907Y-10543315D01*
X29133399Y-10706742D01*
X29069633Y-10860687D01*
X28977059Y-10999234D01*
X28859234Y-11117059D01*
X28720687Y-11209633D01*
X28566742Y-11273399D01*
X28403315Y-11305907D01*
X28236685Y-11305907D01*
X28073258Y-11273399D01*
X27919313Y-11209633D01*
X27780766Y-11117059D01*
X27662941Y-10999234D01*
X27570367Y-10860687D01*
X27506601Y-10706742D01*
X27474093Y-10543315D01*
X27474093Y-10376685D01*
X27506601Y-10213258D01*
X27570367Y-10059313D01*
X27662941Y-9920766D01*
X27780766Y-9802941D01*
X27919313Y-9710367D01*
X28073258Y-9646601D01*
X28236685Y-9614093D01*
X28403315Y-9614093D01*
X28566742Y-9646601D01*
G37*
G36*
X31106742Y-9646601D02*
G01*
X31260687Y-9710367D01*
X31399234Y-9802941D01*
X31517059Y-9920766D01*
X31609633Y-10059313D01*
X31673399Y-10213258D01*
X31705907Y-10376685D01*
X31705907Y-10543315D01*
X31673399Y-10706742D01*
X31609633Y-10860687D01*
X31517059Y-10999234D01*
X31399234Y-11117059D01*
X31260687Y-11209633D01*
X31106742Y-11273399D01*
X30943315Y-11305907D01*
X30776685Y-11305907D01*
X30613258Y-11273399D01*
X30459313Y-11209633D01*
X30320766Y-11117059D01*
X30202941Y-10999234D01*
X30110367Y-10860687D01*
X30046601Y-10706742D01*
X30014093Y-10543315D01*
X30014093Y-10376685D01*
X30046601Y-10213258D01*
X30110367Y-10059313D01*
X30202941Y-9920766D01*
X30320766Y-9802941D01*
X30459313Y-9710367D01*
X30613258Y-9646601D01*
X30776685Y-9614093D01*
X30943315Y-9614093D01*
X31106742Y-9646601D01*
G37*
G36*
X33646742Y-9646601D02*
G01*
X33800687Y-9710367D01*
X33939234Y-9802941D01*
X34057059Y-9920766D01*
X34149633Y-10059313D01*
X34213399Y-10213258D01*
X34245907Y-10376685D01*
X34245907Y-10543315D01*
X34213399Y-10706742D01*
X34149633Y-10860687D01*
X34057059Y-10999234D01*
X33939234Y-11117059D01*
X33800687Y-11209633D01*
X33646742Y-11273399D01*
X33483315Y-11305907D01*
X33316685Y-11305907D01*
X33153258Y-11273399D01*
X32999313Y-11209633D01*
X32860766Y-11117059D01*
X32742941Y-10999234D01*
X32650367Y-10860687D01*
X32586601Y-10706742D01*
X32554093Y-10543315D01*
X32554093Y-10376685D01*
X32586601Y-10213258D01*
X32650367Y-10059313D01*
X32742941Y-9920766D01*
X32860766Y-9802941D01*
X32999313Y-9710367D01*
X33153258Y-9646601D01*
X33316685Y-9614093D01*
X33483315Y-9614093D01*
X33646742Y-9646601D01*
G37*
G36*
X36186742Y-9646601D02*
G01*
X36340687Y-9710367D01*
X36479234Y-9802941D01*
X36597059Y-9920766D01*
X36689633Y-10059313D01*
X36753399Y-10213258D01*
X36785907Y-10376685D01*
X36785907Y-10543315D01*
X36753399Y-10706742D01*
X36689633Y-10860687D01*
X36597059Y-10999234D01*
X36479234Y-11117059D01*
X36340687Y-11209633D01*
X36186742Y-11273399D01*
X36023315Y-11305907D01*
X35856685Y-11305907D01*
X35693258Y-11273399D01*
X35539313Y-11209633D01*
X35400766Y-11117059D01*
X35282941Y-10999234D01*
X35190367Y-10860687D01*
X35126601Y-10706742D01*
X35094093Y-10543315D01*
X35094093Y-10376685D01*
X35126601Y-10213258D01*
X35190367Y-10059313D01*
X35282941Y-9920766D01*
X35400766Y-9802941D01*
X35539313Y-9710367D01*
X35693258Y-9646601D01*
X35856685Y-9614093D01*
X36023315Y-9614093D01*
X36186742Y-9646601D01*
G37*
G36*
X38726742Y-9646601D02*
G01*
X38880687Y-9710367D01*
X39019234Y-9802941D01*
X39137059Y-9920766D01*
X39229633Y-10059313D01*
X39293399Y-10213258D01*
X39325907Y-10376685D01*
X39325907Y-10543315D01*
X39293399Y-10706742D01*
X39229633Y-10860687D01*
X39137059Y-10999234D01*
X39019234Y-11117059D01*
X38880687Y-11209633D01*
X38726742Y-11273399D01*
X38563315Y-11305907D01*
X38396685Y-11305907D01*
X38233258Y-11273399D01*
X38079313Y-11209633D01*
X37940766Y-11117059D01*
X37822941Y-10999234D01*
X37730367Y-10860687D01*
X37666601Y-10706742D01*
X37634093Y-10543315D01*
X37634093Y-10376685D01*
X37666601Y-10213258D01*
X37730367Y-10059313D01*
X37822941Y-9920766D01*
X37940766Y-9802941D01*
X38079313Y-9710367D01*
X38233258Y-9646601D01*
X38396685Y-9614093D01*
X38563315Y-9614093D01*
X38726742Y-9646601D01*
G37*
G36*
X41266742Y-9646601D02*
G01*
X41420687Y-9710367D01*
X41559234Y-9802941D01*
X41677059Y-9920766D01*
X41769633Y-10059313D01*
X41833399Y-10213258D01*
X41865907Y-10376685D01*
X41865907Y-10543315D01*
X41833399Y-10706742D01*
X41769633Y-10860687D01*
X41677059Y-10999234D01*
X41559234Y-11117059D01*
X41420687Y-11209633D01*
X41266742Y-11273399D01*
X41103315Y-11305907D01*
X40936685Y-11305907D01*
X40773258Y-11273399D01*
X40619313Y-11209633D01*
X40480766Y-11117059D01*
X40362941Y-10999234D01*
X40270367Y-10860687D01*
X40206601Y-10706742D01*
X40174093Y-10543315D01*
X40174093Y-10376685D01*
X40206601Y-10213258D01*
X40270367Y-10059313D01*
X40362941Y-9920766D01*
X40480766Y-9802941D01*
X40619313Y-9710367D01*
X40773258Y-9646601D01*
X40936685Y-9614093D01*
X41103315Y-9614093D01*
X41266742Y-9646601D01*
G37*
G36*
X43806742Y-9646601D02*
G01*
X43960687Y-9710367D01*
X44099234Y-9802941D01*
X44217059Y-9920766D01*
X44309633Y-10059313D01*
X44373399Y-10213258D01*
X44405907Y-10376685D01*
X44405907Y-10543315D01*
X44373399Y-10706742D01*
X44309633Y-10860687D01*
X44217059Y-10999234D01*
X44099234Y-11117059D01*
X43960687Y-11209633D01*
X43806742Y-11273399D01*
X43643315Y-11305907D01*
X43476685Y-11305907D01*
X43313258Y-11273399D01*
X43159313Y-11209633D01*
X43020766Y-11117059D01*
X42902941Y-10999234D01*
X42810367Y-10860687D01*
X42746601Y-10706742D01*
X42714093Y-10543315D01*
X42714093Y-10376685D01*
X42746601Y-10213258D01*
X42810367Y-10059313D01*
X42902941Y-9920766D01*
X43020766Y-9802941D01*
X43159313Y-9710367D01*
X43313258Y-9646601D01*
X43476685Y-9614093D01*
X43643315Y-9614093D01*
X43806742Y-9646601D01*
G37*
G36*
X46346742Y-9646601D02*
G01*
X46500687Y-9710367D01*
X46639234Y-9802941D01*
X46757059Y-9920766D01*
X46849633Y-10059313D01*
X46913399Y-10213258D01*
X46945907Y-10376685D01*
X46945907Y-10543315D01*
X46913399Y-10706742D01*
X46849633Y-10860687D01*
X46757059Y-10999234D01*
X46639234Y-11117059D01*
X46500687Y-11209633D01*
X46346742Y-11273399D01*
X46183315Y-11305907D01*
X46016685Y-11305907D01*
X45853258Y-11273399D01*
X45699313Y-11209633D01*
X45560766Y-11117059D01*
X45442941Y-10999234D01*
X45350367Y-10860687D01*
X45286601Y-10706742D01*
X45254093Y-10543315D01*
X45254093Y-10376685D01*
X45286601Y-10213258D01*
X45350367Y-10059313D01*
X45442941Y-9920766D01*
X45560766Y-9802941D01*
X45699313Y-9710367D01*
X45853258Y-9646601D01*
X46016685Y-9614093D01*
X46183315Y-9614093D01*
X46346742Y-9646601D01*
G37*
G36*
X48886742Y-9646601D02*
G01*
X49040687Y-9710367D01*
X49179234Y-9802941D01*
X49297059Y-9920766D01*
X49389633Y-10059313D01*
X49453399Y-10213258D01*
X49485907Y-10376685D01*
X49485907Y-10543315D01*
X49453399Y-10706742D01*
X49389633Y-10860687D01*
X49297059Y-10999234D01*
X49179234Y-11117059D01*
X49040687Y-11209633D01*
X48886742Y-11273399D01*
X48723315Y-11305907D01*
X48556685Y-11305907D01*
X48393258Y-11273399D01*
X48239313Y-11209633D01*
X48100766Y-11117059D01*
X47982941Y-10999234D01*
X47890367Y-10860687D01*
X47826601Y-10706742D01*
X47794093Y-10543315D01*
X47794093Y-10376685D01*
X47826601Y-10213258D01*
X47890367Y-10059313D01*
X47982941Y-9920766D01*
X48100766Y-9802941D01*
X48239313Y-9710367D01*
X48393258Y-9646601D01*
X48556685Y-9614093D01*
X48723315Y-9614093D01*
X48886742Y-9646601D01*
G37*
G36*
X51426742Y-9646601D02*
G01*
X51580687Y-9710367D01*
X51719234Y-9802941D01*
X51837059Y-9920766D01*
X51929633Y-10059313D01*
X51993399Y-10213258D01*
X52025907Y-10376685D01*
X52025907Y-10543315D01*
X51993399Y-10706742D01*
X51929633Y-10860687D01*
X51837059Y-10999234D01*
X51719234Y-11117059D01*
X51580687Y-11209633D01*
X51426742Y-11273399D01*
X51263315Y-11305907D01*
X51096685Y-11305907D01*
X50933258Y-11273399D01*
X50779313Y-11209633D01*
X50640766Y-11117059D01*
X50522941Y-10999234D01*
X50430367Y-10860687D01*
X50366601Y-10706742D01*
X50334093Y-10543315D01*
X50334093Y-10376685D01*
X50366601Y-10213258D01*
X50430367Y-10059313D01*
X50522941Y-9920766D01*
X50640766Y-9802941D01*
X50779313Y-9710367D01*
X50933258Y-9646601D01*
X51096685Y-9614093D01*
X51263315Y-9614093D01*
X51426742Y-9646601D01*
G37*
G36*
X53966742Y-9646601D02*
G01*
X54120687Y-9710367D01*
X54259234Y-9802941D01*
X54377059Y-9920766D01*
X54469633Y-10059313D01*
X54533399Y-10213258D01*
X54565907Y-10376685D01*
X54565907Y-10543315D01*
X54533399Y-10706742D01*
X54469633Y-10860687D01*
X54377059Y-10999234D01*
X54259234Y-11117059D01*
X54120687Y-11209633D01*
X53966742Y-11273399D01*
X53803315Y-11305907D01*
X53636685Y-11305907D01*
X53473258Y-11273399D01*
X53319313Y-11209633D01*
X53180766Y-11117059D01*
X53062941Y-10999234D01*
X52970367Y-10860687D01*
X52906601Y-10706742D01*
X52874093Y-10543315D01*
X52874093Y-10376685D01*
X52906601Y-10213258D01*
X52970367Y-10059313D01*
X53062941Y-9920766D01*
X53180766Y-9802941D01*
X53319313Y-9710367D01*
X53473258Y-9646601D01*
X53636685Y-9614093D01*
X53803315Y-9614093D01*
X53966742Y-9646601D01*
G37*
G36*
X56506742Y-9646601D02*
G01*
X56660687Y-9710367D01*
X56799234Y-9802941D01*
X56917059Y-9920766D01*
X57009633Y-10059313D01*
X57073399Y-10213258D01*
X57105907Y-10376685D01*
X57105907Y-10543315D01*
X57073399Y-10706742D01*
X57009633Y-10860687D01*
X56917059Y-10999234D01*
X56799234Y-11117059D01*
X56660687Y-11209633D01*
X56506742Y-11273399D01*
X56343315Y-11305907D01*
X56176685Y-11305907D01*
X56013258Y-11273399D01*
X55859313Y-11209633D01*
X55720766Y-11117059D01*
X55602941Y-10999234D01*
X55510367Y-10860687D01*
X55446601Y-10706742D01*
X55414093Y-10543315D01*
X55414093Y-10376685D01*
X55446601Y-10213258D01*
X55510367Y-10059313D01*
X55602941Y-9920766D01*
X55720766Y-9802941D01*
X55859313Y-9710367D01*
X56013258Y-9646601D01*
X56176685Y-9614093D01*
X56343315Y-9614093D01*
X56506742Y-9646601D01*
G37*
G36*
X15100000Y-5790000D02*
G01*
X13200000Y-5790000D01*
X13200000Y-4790000D01*
X15100000Y-4790000D01*
X15100000Y-5790000D01*
G37*
G36*
X4373513Y-2444208D02*
G01*
X4612293Y-2521793D01*
X4835998Y-2635776D01*
X5039117Y-2783350D01*
X5216650Y-2960883D01*
X5364224Y-3164002D01*
X5478207Y-3387707D01*
X5555792Y-3626487D01*
X5595068Y-3874465D01*
X5595068Y-4125535D01*
X5555792Y-4373513D01*
X5478207Y-4612293D01*
X5364224Y-4835998D01*
X5216650Y-5039117D01*
X5039117Y-5216650D01*
X4835998Y-5364224D01*
X4612293Y-5478207D01*
X4373513Y-5555792D01*
X4125535Y-5595068D01*
X3874465Y-5595068D01*
X3626487Y-5555792D01*
X3387707Y-5478207D01*
X3164002Y-5364224D01*
X2960883Y-5216650D01*
X2783350Y-5039117D01*
X2635776Y-4835998D01*
X2521793Y-4612293D01*
X2444208Y-4373513D01*
X2404932Y-4125535D01*
X2404932Y-3874465D01*
X2444208Y-3626487D01*
X2521793Y-3387707D01*
X2635776Y-3164002D01*
X2783350Y-2960883D01*
X2960883Y-2783350D01*
X3164002Y-2635776D01*
X3387707Y-2521793D01*
X3626487Y-2444208D01*
X3874465Y-2404932D01*
X4125535Y-2404932D01*
X4373513Y-2444208D01*
G37*
G36*
X60373513Y-2444208D02*
G01*
X60612293Y-2521793D01*
X60835998Y-2635776D01*
X61039117Y-2783350D01*
X61216650Y-2960883D01*
X61364224Y-3164002D01*
X61478207Y-3387707D01*
X61555792Y-3626487D01*
X61595068Y-3874465D01*
X61595068Y-4125535D01*
X61555792Y-4373513D01*
X61478207Y-4612293D01*
X61364224Y-4835998D01*
X61216650Y-5039117D01*
X61039117Y-5216650D01*
X60835998Y-5364224D01*
X60612293Y-5478207D01*
X60373513Y-5555792D01*
X60125535Y-5595068D01*
X59874465Y-5595068D01*
X59626487Y-5555792D01*
X59387707Y-5478207D01*
X59164002Y-5364224D01*
X58960883Y-5216650D01*
X58783350Y-5039117D01*
X58635776Y-4835998D01*
X58521793Y-4612293D01*
X58444208Y-4373513D01*
X58404932Y-4125535D01*
X58404932Y-3874465D01*
X58444208Y-3626487D01*
X58521793Y-3387707D01*
X58635776Y-3164002D01*
X58783350Y-2960883D01*
X58960883Y-2783350D01*
X59164002Y-2635776D01*
X59387707Y-2521793D01*
X59626487Y-2444208D01*
X59874465Y-2404932D01*
X60125535Y-2404932D01*
X60373513Y-2444208D01*
G37*
G36*
X11800000Y-3250000D02*
G01*
X9900000Y-3250000D01*
X9900000Y-2250000D01*
X11800000Y-2250000D01*
X11800000Y-3250000D01*
G37*
M02*
