%TF.GenerationSoftware,KiCad,Pcbnew,10.0.6*%
%TF.CreationDate,2026-09-09T18:25:18+02:00*%
%TF.ProjectId,Dimmer3,44696d6d-6572-4332-9e6b-696361645f70,rev?*%
%TF.SameCoordinates,Original*%
%TF.FileFunction,Copper,L2,Bot*%
%TF.FilePolarity,Positive*%
%FSLAX46Y46*%
G04 Gerber Fmt 4.6, Leading zero omitted, Abs format (unit mm)*
G04 Created by KiCad (PCBNEW 10.0.6) date 2026-09-09 18:25:18*
%MOMM*%
%LPD*%
G01*
G04 APERTURE LIST*
G04 Aperture macros list*
%AMRoundRect*
0 Rectangle with rounded corners*
0 $1 Rounding radius*
0 $2 $3 $4 $5 $6 $7 $8 $9 X,Y pos of 4 corners*
0 Add a 4 corners polygon primitive as box body*
4,1,4,$2,$3,$4,$5,$6,$7,$8,$9,$2,$3,0*
0 Add four circle primitives for the rounded corners*
1,1,$1+$1,$2,$3*
1,1,$1+$1,$4,$5*
1,1,$1+$1,$6,$7*
1,1,$1+$1,$8,$9*
0 Add four rect primitives between the rounded corners*
20,1,$1+$1,$2,$3,$4,$5,0*
20,1,$1+$1,$4,$5,$6,$7,0*
20,1,$1+$1,$6,$7,$8,$9,0*
20,1,$1+$1,$8,$9,$2,$3,0*%
G04 Aperture macros list end*
%TA.AperFunction,ComponentPad*%
%ADD10RoundRect,0.250001X-0.949999X-0.949999X0.949999X-0.949999X0.949999X0.949999X-0.949999X0.949999X0*%
%TD*%
%TA.AperFunction,ComponentPad*%
%ADD11C,2.400000*%
%TD*%
%TA.AperFunction,ComponentPad*%
%ADD12RoundRect,0.250000X-0.550000X-0.550000X0.550000X-0.550000X0.550000X0.550000X-0.550000X0.550000X0*%
%TD*%
%TA.AperFunction,ComponentPad*%
%ADD13C,1.600000*%
%TD*%
%TA.AperFunction,ComponentPad*%
%ADD14R,1.700000X2.500000*%
%TD*%
%TA.AperFunction,ComponentPad*%
%ADD15O,1.700000X2.500000*%
%TD*%
%TA.AperFunction,ComponentPad*%
%ADD16R,1.700000X1.700000*%
%TD*%
%TA.AperFunction,ComponentPad*%
%ADD17C,1.700000*%
%TD*%
%TA.AperFunction,SMDPad,CuDef*%
%ADD18RoundRect,0.135000X0.315000X1.165000X-0.315000X1.165000X-0.315000X-1.165000X0.315000X-1.165000X0*%
%TD*%
%TA.AperFunction,SMDPad,CuDef*%
%ADD19R,2.510000X1.000000*%
%TD*%
%TA.AperFunction,SMDPad,CuDef*%
%ADD20R,3.150000X1.000000*%
%TD*%
%TA.AperFunction,ViaPad*%
%ADD21C,0.600000*%
%TD*%
%TA.AperFunction,Conductor*%
%ADD22C,0.250000*%
%TD*%
%TA.AperFunction,Conductor*%
%ADD23C,1.000000*%
%TD*%
G04 APERTURE END LIST*
D10*
%TO.P,J90,1*%
%TO.N,/PWR_IN*%
X53790000Y-6600000D03*
D11*
%TO.P,J90,2*%
%TO.N,GND*%
X57290000Y-6600000D03*
%TD*%
D10*
%TO.P,J5,1*%
%TO.N,/+24V*%
X35850000Y-23600000D03*
D11*
%TO.P,J5,2*%
%TO.N,/LED1*%
X39350000Y-23600000D03*
%TD*%
D12*
%TO.P,C90,1*%
%TO.N,/+24V*%
X54042479Y-26751238D03*
D13*
%TO.P,C90,2*%
%TO.N,GND*%
X57542479Y-26751238D03*
%TD*%
D14*
%TO.P,U90,1*%
%TO.N,/+24V*%
X64100000Y-24750000D03*
D15*
%TO.P,U90,2*%
%TO.N,GND*%
X66640000Y-24750000D03*
%TO.P,U90,3*%
%TO.N,/+5V_LOKAL*%
X69180000Y-24750000D03*
%TD*%
D16*
%TO.P,J100,1*%
%TO.N,/FLASH_TX*%
X30610000Y-2270000D03*
D17*
%TO.P,J100,2*%
%TO.N,/FLASH_RX*%
X30610000Y-4810000D03*
%TO.P,J100,3*%
%TO.N,GND*%
X30610000Y-7350000D03*
%TO.P,J100,4*%
%TO.N,unconnected-(J100-Pin_4-Pad4)*%
X30610000Y-9890000D03*
%TO.P,J100,5*%
%TO.N,/FLASH_MODE*%
X30610000Y-12430000D03*
%TO.P,J100,6*%
%TO.N,/I2C_SDA*%
X30610000Y-14970000D03*
%TO.P,J100,7*%
%TO.N,/I2C_SCL*%
X30610000Y-17510000D03*
%TO.P,J100,8*%
%TO.N,GND*%
X30610000Y-20050000D03*
%TO.P,J100,9*%
%TO.N,/NOTAUS*%
X30610000Y-22590000D03*
%TO.P,J100,10*%
%TO.N,/SEL_CLK*%
X30610000Y-25130000D03*
%TO.P,J100,11*%
%TO.N,/GP8*%
X30610000Y-27670000D03*
%TO.P,J100,12*%
%TO.N,/GP9*%
X30610000Y-30210000D03*
%TO.P,J100,13*%
%TO.N,GND*%
X30610000Y-32750000D03*
%TO.P,J100,14*%
%TO.N,/GP10*%
X30610000Y-35290000D03*
%TO.P,J100,15*%
%TO.N,/GP11*%
X30610000Y-37830000D03*
%TO.P,J100,16*%
%TO.N,/GP12*%
X30610000Y-40370000D03*
%TO.P,J100,17*%
%TO.N,/GP13*%
X30610000Y-42910000D03*
%TO.P,J100,18*%
%TO.N,GND*%
X30610000Y-45450000D03*
%TO.P,J100,19*%
%TO.N,/GP14*%
X30610000Y-47990000D03*
%TO.P,J100,20*%
%TO.N,/GP15*%
X30610000Y-50530000D03*
%TD*%
D10*
%TO.P,J7,1*%
%TO.N,/+24V*%
X18450000Y-53900000D03*
D11*
%TO.P,J7,2*%
%TO.N,/LED3*%
X21950000Y-53900000D03*
%TD*%
D10*
%TO.P,J6,1*%
%TO.N,/+24V*%
X9850000Y-53900000D03*
D11*
%TO.P,J6,2*%
%TO.N,/LED2*%
X13350000Y-53900000D03*
%TD*%
D16*
%TO.P,J105,1*%
%TO.N,/GP16*%
X48390000Y-50530000D03*
D17*
%TO.P,J105,2*%
%TO.N,/GP17*%
X48390000Y-47990000D03*
%TO.P,J105,3*%
%TO.N,GND*%
X48390000Y-45450000D03*
%TO.P,J105,4*%
%TO.N,/GP18*%
X48390000Y-42910000D03*
%TO.P,J105,5*%
%TO.N,/GP19*%
X48390000Y-40370000D03*
%TO.P,J105,6*%
%TO.N,/GP20*%
X48390000Y-37830000D03*
%TO.P,J105,7*%
%TO.N,/GP21*%
X48390000Y-35290000D03*
%TO.P,J105,8*%
%TO.N,GND*%
X48390000Y-32750000D03*
%TO.P,J105,9*%
%TO.N,/GP22*%
X48390000Y-30210000D03*
%TO.P,J105,10*%
%TO.N,unconnected-(J105-Pin_10-Pad10)*%
X48390000Y-27670000D03*
%TO.P,J105,11*%
%TO.N,/GP26*%
X48390000Y-25130000D03*
%TO.P,J105,12*%
%TO.N,/GP27*%
X48390000Y-22590000D03*
%TO.P,J105,13*%
%TO.N,GND*%
X48390000Y-20050000D03*
%TO.P,J105,14*%
%TO.N,/GP28*%
X48390000Y-17510000D03*
%TO.P,J105,15*%
%TO.N,unconnected-(J105-Pin_15-Pad15)*%
X48390000Y-14970000D03*
%TO.P,J105,16*%
%TO.N,3V3*%
X48390000Y-12430000D03*
%TO.P,J105,17*%
%TO.N,unconnected-(J105-Pin_17-Pad17)*%
X48390000Y-9890000D03*
%TO.P,J105,18*%
%TO.N,GND*%
X48390000Y-7350000D03*
%TO.P,J105,19*%
%TO.N,/VSYS*%
X48390000Y-4810000D03*
%TO.P,J105,20*%
%TO.N,unconnected-(J105-Pin_20-Pad20)*%
X48390000Y-2270000D03*
%TD*%
D18*
%TO.P,J95,1*%
%TO.N,/GP8*%
X18160000Y-63000000D03*
%TO.P,J95,2*%
%TO.N,/GP9*%
X20700000Y-63000000D03*
%TO.P,J95,3*%
%TO.N,/GP10*%
X23240000Y-63000000D03*
%TO.P,J95,4*%
%TO.N,/GP11*%
X25780000Y-63000000D03*
%TO.P,J95,5*%
%TO.N,/GP12*%
X28320000Y-63000000D03*
%TO.P,J95,6*%
%TO.N,/GP13*%
X30860000Y-63000000D03*
%TO.P,J95,7*%
%TO.N,/GP14*%
X33400000Y-63000000D03*
%TO.P,J95,8*%
%TO.N,/GP15*%
X35940000Y-63000000D03*
%TO.P,J95,9*%
%TO.N,/GP16*%
X38480000Y-63000000D03*
%TO.P,J95,10*%
%TO.N,/GP17*%
X41020000Y-63000000D03*
%TO.P,J95,11*%
%TO.N,/GP18*%
X43560000Y-63000000D03*
%TO.P,J95,12*%
%TO.N,/GP19*%
X46100000Y-63000000D03*
%TO.P,J95,13*%
%TO.N,/GP20*%
X48640000Y-63000000D03*
%TO.P,J95,14*%
%TO.N,/GP21*%
X51180000Y-63000000D03*
%TO.P,J95,15*%
%TO.N,/GP22*%
X53720000Y-63000000D03*
%TO.P,J95,16*%
%TO.N,/GP26*%
X56260000Y-63000000D03*
%TO.P,J95,17*%
%TO.N,/GP27*%
X58800000Y-63000000D03*
%TO.P,J95,18*%
%TO.N,/GP28*%
X61340000Y-63000000D03*
%TD*%
D19*
%TO.P,J102,1*%
%TO.N,/SEL_OUT*%
X22245000Y-2750000D03*
%TO.P,J102,2*%
%TO.N,GND*%
X18935000Y-5290000D03*
%TD*%
D20*
%TO.P,J104,1*%
%TO.N,/+24V*%
X66295000Y-45500000D03*
%TO.P,J104,2*%
%TO.N,GND*%
X61245000Y-45500000D03*
%TO.P,J104,3*%
%TO.N,/+24V*%
X66295000Y-48040000D03*
%TO.P,J104,4*%
%TO.N,GND*%
X61245000Y-48040000D03*
%TD*%
D18*
%TO.P,J96,1*%
%TO.N,GND*%
X8000000Y-63000000D03*
%TO.P,J96,2*%
%TO.N,3V3*%
X10540000Y-63000000D03*
%TO.P,J96,3*%
X13080000Y-63000000D03*
%TO.P,J96,4*%
%TO.N,GND*%
X15620000Y-63000000D03*
%TD*%
D21*
%TO.N,/ID0*%
X16500000Y-20975000D03*
X4850000Y-29600000D03*
%TO.N,GND*%
X12900000Y-19675000D03*
X52500000Y-51250000D03*
X7500000Y-21250000D03*
X16466254Y-22450500D03*
X15000000Y-28750000D03*
X22500000Y-36250000D03*
X15000000Y-13750000D03*
X37500000Y-58750000D03*
X52500000Y-43750000D03*
X22500000Y-21250000D03*
X52500000Y-13750000D03*
X22500000Y-28750000D03*
X52500000Y-58750000D03*
X30000000Y-58750000D03*
X15000000Y-6250000D03*
X20175500Y-26313500D03*
X45000000Y-6250000D03*
X60000000Y-36250000D03*
X45000000Y-28750000D03*
X1000500Y-12219029D03*
X45000000Y-36250000D03*
X45000000Y-58750000D03*
X1000500Y-16579029D03*
X60000000Y-58750000D03*
X45000000Y-13750000D03*
X67500000Y-6250000D03*
X67500000Y-36250000D03*
X45000000Y-21250000D03*
X7500000Y-6250000D03*
X67500000Y-51250000D03*
X7500000Y-13750000D03*
X67500000Y-58750000D03*
X16170447Y-60882454D03*
X52500000Y-36250000D03*
X60000000Y-51250000D03*
X22500000Y-13750000D03*
%TO.N,/+24V*%
X6631500Y-39973100D03*
X13697000Y-41696500D03*
X34116900Y-52622600D03*
%TO.N,3V3*%
X22900000Y-24950000D03*
X17680000Y-24100000D03*
%TO.N,/NCLR*%
X6039200Y-20676600D03*
X6034100Y-24161800D03*
%TO.N,/PWM2_G*%
X7922800Y-32048000D03*
X3950100Y-43889400D03*
%TO.N,/PWM1*%
X27274800Y-27950700D03*
X25004500Y-22249700D03*
%TO.N,/PWM1_G*%
X35754400Y-16198900D03*
X36056600Y-28053700D03*
%TO.N,/SEL_OUT*%
X14880000Y-23650000D03*
X7738800Y-22963400D03*
X19350000Y-27600000D03*
%TO.N,/FLASH_MODE*%
X24460900Y-18084900D03*
X22294800Y-23054100D03*
X27546600Y-16269100D03*
%TO.N,/+5V_LOKAL*%
X59951100Y-33514400D03*
%TO.N,/Q90_GATE*%
X55855600Y-5497200D03*
X52480200Y-2881700D03*
%TO.N,/PWM2*%
X32616700Y-32102100D03*
X18949500Y-20410600D03*
%TO.N,/VSYS*%
X56547300Y-16444500D03*
%TO.N,/ID1*%
X9150000Y-29650000D03*
X17100000Y-21625000D03*
%TO.N,/PWM3*%
X26072200Y-31845500D03*
X25248000Y-24271500D03*
%TO.N,/FLASH_TX*%
X22641900Y-17849000D03*
%TO.N,/BOOT0*%
X28604400Y-24364700D03*
X25019100Y-16625700D03*
%TO.N,/SEL_IN*%
X1601200Y-22126900D03*
X10023400Y-4344100D03*
%TO.N,/GP15*%
X36055000Y-60386000D03*
X31733100Y-57690700D03*
%TO.N,/GP16*%
X44732200Y-57279400D03*
X38947400Y-60386000D03*
%TD*%
%TO.N,/ID0*%
D22*
X12500000Y-20975000D02*
X4850000Y-28625000D01*
X4850000Y-28625000D02*
X4850000Y-29600000D01*
X16500000Y-20975000D02*
X12500000Y-20975000D01*
%TO.N,/+24V*%
D23*
X66295000Y-45500000D02*
X64018300Y-45500000D01*
X34116900Y-25333100D02*
X34116900Y-52622600D01*
X35850000Y-23600000D02*
X34116900Y-25333100D01*
X64100000Y-24750000D02*
X64100000Y-26701700D01*
X66295000Y-45500000D02*
X68571700Y-45500000D01*
X9850000Y-53900000D02*
X9850000Y-45543500D01*
X6631500Y-39973100D02*
X11026000Y-44367500D01*
X11026000Y-44367500D02*
X13697000Y-41696500D01*
X9850000Y-45543500D02*
X11026000Y-44367500D01*
X68571700Y-48040000D02*
X68571700Y-45500000D01*
X64018300Y-26783400D02*
X64100000Y-26701700D01*
X66295000Y-48040000D02*
X68571700Y-48040000D01*
X64018300Y-45500000D02*
X64018300Y-26783400D01*
%TO.N,3V3*%
D22*
X13080000Y-63000000D02*
X16374800Y-59705200D01*
X16374800Y-31475200D02*
X22900000Y-24950000D01*
X13080000Y-63000000D02*
X10540000Y-63000000D01*
X22350000Y-24100000D02*
X22900000Y-24650000D01*
X22900000Y-24650000D02*
X22900000Y-24950000D01*
X17680000Y-24100000D02*
X22350000Y-24100000D01*
X16374800Y-59705200D02*
X16374800Y-31475200D01*
%TO.N,/NCLR*%
X6039200Y-24156700D02*
X6034100Y-24161800D01*
X6039200Y-20676600D02*
X6039200Y-24156700D01*
%TO.N,/PWM2_G*%
X3950100Y-36020700D02*
X3950100Y-43889400D01*
X7922800Y-32048000D02*
X3950100Y-36020700D01*
%TO.N,/PWM1*%
X27274800Y-24520000D02*
X25004500Y-22249700D01*
X27274800Y-27950700D02*
X27274800Y-24520000D01*
%TO.N,/PWM1_G*%
X37388000Y-17832500D02*
X37388000Y-26722300D01*
X35754400Y-16198900D02*
X37388000Y-17832500D01*
X37388000Y-26722300D02*
X36056600Y-28053700D01*
%TO.N,/SEL_OUT*%
X22245000Y-2750000D02*
X22245000Y-3585000D01*
X17980000Y-27600000D02*
X14880000Y-24500000D01*
X21170000Y-4660000D02*
X21170000Y-16489999D01*
X21170000Y-16489999D02*
X17390000Y-20270000D01*
X14930000Y-23600000D02*
X14880000Y-23650000D01*
X16161100Y-19041100D02*
X11661100Y-19041100D01*
X16309999Y-23600000D02*
X14930000Y-23600000D01*
X17730000Y-20610000D02*
X17730000Y-22180000D01*
X14880000Y-24500000D02*
X14880000Y-23650000D01*
X19350000Y-27600000D02*
X17980000Y-27600000D01*
X22245000Y-3585000D02*
X21170000Y-4660000D01*
X17730000Y-22180000D02*
X16309999Y-23600000D01*
X11661100Y-19041100D02*
X7738800Y-22963400D01*
X17390000Y-20270000D02*
X16161100Y-19041100D01*
X17390000Y-20270000D02*
X17730000Y-20610000D01*
%TO.N,/FLASH_MODE*%
X27546600Y-16269100D02*
X27546600Y-15493400D01*
X27546600Y-15493400D02*
X30610000Y-12430000D01*
X24460900Y-20888000D02*
X22294800Y-23054100D01*
X24460900Y-18084900D02*
X24460900Y-20888000D01*
%TO.N,/+5V_LOKAL*%
X68003300Y-24750000D02*
X68003300Y-24014600D01*
X59951100Y-26321600D02*
X59951100Y-33514400D01*
X68003300Y-24014600D02*
X67129800Y-23141100D01*
X67129800Y-23141100D02*
X63131600Y-23141100D01*
X69180000Y-24750000D02*
X68003300Y-24750000D01*
X63131600Y-23141100D02*
X59951100Y-26321600D01*
%TO.N,/Q90_GATE*%
X53240100Y-2881700D02*
X55855600Y-5497200D01*
X52480200Y-2881700D02*
X53240100Y-2881700D01*
%TO.N,/PWM2*%
X29231100Y-25456000D02*
X29231100Y-19948200D01*
X24392400Y-17071700D02*
X21053500Y-20410600D01*
X24392400Y-16366200D02*
X24392400Y-17071700D01*
X31012000Y-26400000D02*
X30175100Y-26400000D01*
X21053500Y-20410600D02*
X18949500Y-20410600D01*
X30175100Y-26400000D02*
X29231100Y-25456000D01*
X32616700Y-28004700D02*
X31012000Y-26400000D01*
X29231100Y-19948200D02*
X25280300Y-15997400D01*
X32616700Y-32102100D02*
X32616700Y-28004700D01*
X25280300Y-15997400D02*
X24761200Y-15997400D01*
X24761200Y-15997400D02*
X24392400Y-16366200D01*
%TO.N,/VSYS*%
X56547300Y-12967300D02*
X48390000Y-4810000D01*
X56547300Y-16444500D02*
X56547300Y-12967300D01*
%TO.N,/ID1*%
X14300000Y-21625000D02*
X9150000Y-26775000D01*
X17100000Y-21625000D02*
X14300000Y-21625000D01*
X9150000Y-26775000D02*
X9150000Y-29650000D01*
%TO.N,/PWM3*%
X26072200Y-31845500D02*
X26072200Y-25095700D01*
X26072200Y-25095700D02*
X25248000Y-24271500D01*
%TO.N,/FLASH_TX*%
X30610000Y-2270000D02*
X30610000Y-3446700D01*
X30610000Y-3446700D02*
X30242200Y-3446700D01*
X24945200Y-8743700D02*
X24945200Y-15174600D01*
X22641900Y-17477900D02*
X22641900Y-17849000D01*
X24945200Y-15174600D02*
X22641900Y-17477900D01*
X30242200Y-3446700D02*
X24945200Y-8743700D01*
%TO.N,/BOOT0*%
X28604400Y-20211000D02*
X25019100Y-16625700D01*
X28604400Y-24364700D02*
X28604400Y-20211000D01*
%TO.N,/SEL_IN*%
X10023400Y-4344100D02*
X10023400Y-13704700D01*
X10023400Y-13704700D02*
X1601200Y-22126900D01*
%TO.N,/GP8*%
X16874600Y-61714600D02*
X18160000Y-63000000D01*
X27009600Y-28618200D02*
X26634600Y-28243200D01*
X24621300Y-24180200D02*
X16874600Y-31926900D01*
X29661800Y-28618200D02*
X27009600Y-28618200D01*
X30610000Y-27670000D02*
X29661800Y-28618200D01*
X24621300Y-24012000D02*
X24621300Y-24180200D01*
X24988500Y-23644800D02*
X24621300Y-24012000D01*
X26634600Y-28243200D02*
X26634600Y-24771800D01*
X26634600Y-24771800D02*
X25507600Y-23644800D01*
X16874600Y-31926900D02*
X16874600Y-61714600D01*
X25507600Y-23644800D02*
X24988500Y-23644800D01*
%TO.N,/GP9*%
X20387300Y-62687300D02*
X20387300Y-40432700D01*
X20700000Y-63000000D02*
X20387300Y-62687300D01*
X20387300Y-40432700D02*
X30610000Y-30210000D01*
%TO.N,/GP10*%
X23797100Y-42102900D02*
X30610000Y-35290000D01*
X23797100Y-62442900D02*
X23797100Y-42102900D01*
X23240000Y-63000000D02*
X23797100Y-62442900D01*
%TO.N,/GP11*%
X25780000Y-63000000D02*
X25780000Y-42660000D01*
X25780000Y-42660000D02*
X30610000Y-37830000D01*
%TO.N,/GP12*%
X28320000Y-42660000D02*
X30610000Y-40370000D01*
X28320000Y-63000000D02*
X28320000Y-42660000D01*
%TO.N,/GP13*%
X30860000Y-63000000D02*
X29330500Y-61470500D01*
X29330500Y-44189500D02*
X30610000Y-42910000D01*
X29330500Y-61470500D02*
X29330500Y-44189500D01*
%TO.N,/GP14*%
X31974900Y-57046200D02*
X31974800Y-57046200D01*
X33400000Y-58471300D02*
X31974900Y-57046200D01*
X31974800Y-49354800D02*
X30610000Y-47990000D01*
X31974800Y-57046200D02*
X31974800Y-49354800D01*
X33400000Y-63000000D02*
X33400000Y-58471300D01*
%TO.N,/GP15*%
X31733100Y-57690700D02*
X30610000Y-56567600D01*
X35940000Y-60501000D02*
X36055000Y-60386000D01*
X35940000Y-63000000D02*
X35940000Y-60501000D01*
X30610000Y-56567600D02*
X30610000Y-50530000D01*
%TO.N,/GP16*%
X48390000Y-53621600D02*
X48390000Y-50530000D01*
X44732200Y-57279400D02*
X48390000Y-53621600D01*
X38480000Y-63000000D02*
X38480000Y-60853400D01*
X38480000Y-60853400D02*
X38947400Y-60386000D01*
%TO.N,/GP17*%
X41020000Y-63000000D02*
X41020000Y-55360000D01*
X41020000Y-55360000D02*
X48390000Y-47990000D01*
%TO.N,/GP18*%
X49566700Y-44086700D02*
X49566700Y-56993300D01*
X48390000Y-42910000D02*
X49566700Y-44086700D01*
X49566700Y-56993300D02*
X43560000Y-63000000D01*
%TO.N,/GP19*%
X50028500Y-59071500D02*
X46100000Y-63000000D01*
X50028500Y-42008500D02*
X50028500Y-59071500D01*
X48390000Y-40370000D02*
X50028500Y-42008500D01*
%TO.N,/GP20*%
X50521400Y-61118600D02*
X50521400Y-39961400D01*
X50521400Y-39961400D02*
X48390000Y-37830000D01*
X48640000Y-63000000D02*
X50521400Y-61118600D01*
%TO.N,/GP21*%
X51180000Y-38080000D02*
X48390000Y-35290000D01*
X51180000Y-63000000D02*
X51180000Y-38080000D01*
%TO.N,/GP22*%
X48390000Y-30210000D02*
X53720000Y-35540000D01*
X53720000Y-35540000D02*
X53720000Y-63000000D01*
%TO.N,/GP26*%
X48390000Y-25130000D02*
X56260000Y-33000000D01*
X56260000Y-33000000D02*
X56260000Y-63000000D01*
%TO.N,/GP27*%
X48390000Y-22590000D02*
X48390000Y-23376200D01*
X48390000Y-23376200D02*
X58800000Y-33786200D01*
X58800000Y-33786200D02*
X58800000Y-63000000D01*
%TO.N,/GP28*%
X59312500Y-60972500D02*
X61340000Y-63000000D01*
X59312500Y-30815300D02*
X59312500Y-60972500D01*
X48390000Y-17510000D02*
X55954200Y-25074200D01*
X55954200Y-25074200D02*
X55954200Y-27457000D01*
X55954200Y-27457000D02*
X59312500Y-30815300D01*
%TD*%
%TA.AperFunction,Conductor*%
%TO.N,GND*%
G36*
X72002992Y-500681D02*
G01*
X72295310Y-518362D01*
X72307165Y-519802D01*
X72592281Y-572051D01*
X72603883Y-574911D01*
X72880623Y-661147D01*
X72891786Y-665380D01*
X73156117Y-784346D01*
X73156119Y-784347D01*
X73166702Y-789902D01*
X73414758Y-939856D01*
X73424583Y-946638D01*
X73652755Y-1125399D01*
X73661704Y-1133326D01*
X73866673Y-1338295D01*
X73874599Y-1347243D01*
X73995481Y-1501538D01*
X74053356Y-1575409D01*
X74060147Y-1585248D01*
X74210096Y-1833295D01*
X74215652Y-1843880D01*
X74334616Y-2108206D01*
X74338855Y-2119384D01*
X74425087Y-2396113D01*
X74427948Y-2407721D01*
X74480196Y-2692827D01*
X74481637Y-2704694D01*
X74499319Y-2997006D01*
X74499500Y-3002984D01*
X74499500Y-61997015D01*
X74499319Y-62002993D01*
X74481637Y-62295304D01*
X74480196Y-62307171D01*
X74427948Y-62592277D01*
X74425087Y-62603885D01*
X74338855Y-62880615D01*
X74334616Y-62891793D01*
X74215652Y-63156118D01*
X74210096Y-63166703D01*
X74060142Y-63414758D01*
X74053356Y-63424590D01*
X73874599Y-63652755D01*
X73866672Y-63661704D01*
X73661704Y-63866672D01*
X73652755Y-63874599D01*
X73424590Y-64053356D01*
X73414758Y-64060142D01*
X73177212Y-64203744D01*
X73166703Y-64210097D01*
X73156118Y-64215652D01*
X72891793Y-64334616D01*
X72880615Y-64338855D01*
X72603885Y-64425087D01*
X72592277Y-64427948D01*
X72307171Y-64480196D01*
X72295304Y-64481637D01*
X72023993Y-64498048D01*
X72002991Y-64499319D01*
X71997015Y-64499500D01*
X62024602Y-64499500D01*
X61966411Y-64480593D01*
X61930447Y-64431093D01*
X61930447Y-64369907D01*
X61934878Y-64358661D01*
X61984067Y-64253175D01*
X61984068Y-64253173D01*
X61990500Y-64204316D01*
X61990500Y-61795684D01*
X61984068Y-61746827D01*
X61980805Y-61739830D01*
X61934066Y-61639598D01*
X61934065Y-61639597D01*
X61934065Y-61639596D01*
X61850404Y-61555935D01*
X61850402Y-61555934D01*
X61850401Y-61555933D01*
X61743175Y-61505932D01*
X61710601Y-61501644D01*
X61694316Y-61499500D01*
X60985684Y-61499500D01*
X60969398Y-61501644D01*
X60936825Y-61505932D01*
X60936824Y-61505932D01*
X60829598Y-61555933D01*
X60745933Y-61639598D01*
X60708370Y-61720151D01*
X60666641Y-61764899D01*
X60606580Y-61776573D01*
X60551127Y-61750714D01*
X60548642Y-61748315D01*
X59679037Y-60878710D01*
X69149500Y-60878710D01*
X69149500Y-61121289D01*
X69181161Y-61361781D01*
X69181161Y-61361786D01*
X69243944Y-61596092D01*
X69243948Y-61596105D01*
X69336772Y-61820204D01*
X69336774Y-61820208D01*
X69336776Y-61820212D01*
X69440577Y-62000000D01*
X69458066Y-62030292D01*
X69605729Y-62222731D01*
X69605731Y-62222733D01*
X69605735Y-62222738D01*
X69777262Y-62394265D01*
X69777266Y-62394268D01*
X69777268Y-62394270D01*
X69933630Y-62514250D01*
X69969711Y-62541936D01*
X70179788Y-62663224D01*
X70403900Y-62756054D01*
X70638211Y-62818838D01*
X70878712Y-62850500D01*
X70878713Y-62850500D01*
X71121287Y-62850500D01*
X71121288Y-62850500D01*
X71361789Y-62818838D01*
X71596100Y-62756054D01*
X71820212Y-62663224D01*
X72030289Y-62541936D01*
X72222738Y-62394265D01*
X72394265Y-62222738D01*
X72541936Y-62030289D01*
X72663224Y-61820212D01*
X72756054Y-61596100D01*
X72818838Y-61361789D01*
X72850500Y-61121288D01*
X72850500Y-60878712D01*
X72818838Y-60638211D01*
X72756054Y-60403900D01*
X72668620Y-60192814D01*
X72663227Y-60179795D01*
X72663226Y-60179794D01*
X72663224Y-60179788D01*
X72541936Y-59969711D01*
X72541933Y-59969707D01*
X72394270Y-59777268D01*
X72394268Y-59777266D01*
X72394265Y-59777262D01*
X72222738Y-59605735D01*
X72222733Y-59605731D01*
X72222731Y-59605729D01*
X72030292Y-59458066D01*
X72030289Y-59458064D01*
X71820212Y-59336776D01*
X71820208Y-59336774D01*
X71820204Y-59336772D01*
X71596105Y-59243948D01*
X71596104Y-59243947D01*
X71596100Y-59243946D01*
X71361789Y-59181162D01*
X71361786Y-59181161D01*
X71361784Y-59181161D01*
X71121289Y-59149500D01*
X71121288Y-59149500D01*
X70878712Y-59149500D01*
X70878710Y-59149500D01*
X70638218Y-59181161D01*
X70638213Y-59181161D01*
X70403907Y-59243944D01*
X70403894Y-59243948D01*
X70179795Y-59336772D01*
X69969707Y-59458066D01*
X69777268Y-59605729D01*
X69605729Y-59777268D01*
X69458066Y-59969707D01*
X69336772Y-60179795D01*
X69243948Y-60403894D01*
X69243944Y-60403907D01*
X69181161Y-60638213D01*
X69181161Y-60638218D01*
X69149500Y-60878710D01*
X59679037Y-60878710D01*
X59666996Y-60866669D01*
X59639219Y-60812152D01*
X59638000Y-60796665D01*
X59638000Y-34077680D01*
X59656907Y-34019489D01*
X59706407Y-33983525D01*
X59762620Y-33982053D01*
X59885208Y-34014900D01*
X59885210Y-34014900D01*
X60016990Y-34014900D01*
X60016992Y-34014900D01*
X60144286Y-33980792D01*
X60144288Y-33980790D01*
X60144290Y-33980790D01*
X60258409Y-33914903D01*
X60258409Y-33914902D01*
X60258414Y-33914900D01*
X60351600Y-33821714D01*
X60417492Y-33707586D01*
X60451600Y-33580292D01*
X60451600Y-33448508D01*
X60417492Y-33321214D01*
X60417490Y-33321211D01*
X60417490Y-33321209D01*
X60351603Y-33207090D01*
X60351599Y-33207084D01*
X60305596Y-33161081D01*
X60277819Y-33106564D01*
X60276600Y-33091078D01*
X60276600Y-26497435D01*
X60295507Y-26439244D01*
X60305596Y-26427431D01*
X62880496Y-23852531D01*
X62935013Y-23824754D01*
X62995445Y-23834325D01*
X63038710Y-23877590D01*
X63049500Y-23922535D01*
X63049500Y-26019746D01*
X63049501Y-26019758D01*
X63061132Y-26078227D01*
X63061134Y-26078233D01*
X63102492Y-26140128D01*
X63105448Y-26144552D01*
X63171769Y-26188867D01*
X63216231Y-26197711D01*
X63230241Y-26200498D01*
X63230246Y-26200498D01*
X63230252Y-26200500D01*
X63300500Y-26200500D01*
X63358691Y-26219407D01*
X63394655Y-26268907D01*
X63399500Y-26299500D01*
X63399500Y-26427129D01*
X63391964Y-26465014D01*
X63344720Y-26579070D01*
X63344720Y-26579072D01*
X63330739Y-26649360D01*
X63317800Y-26714406D01*
X63317800Y-45568995D01*
X63344720Y-45704327D01*
X63344720Y-45704329D01*
X63397522Y-45831806D01*
X63397528Y-45831817D01*
X63474185Y-45946541D01*
X63571758Y-46044114D01*
X63686482Y-46120771D01*
X63686493Y-46120777D01*
X63733583Y-46140282D01*
X63813972Y-46173580D01*
X63949307Y-46200500D01*
X64087293Y-46200500D01*
X64700252Y-46200500D01*
X66226007Y-46200500D01*
X67772200Y-46200500D01*
X67830391Y-46219407D01*
X67866355Y-46268907D01*
X67871200Y-46299500D01*
X67871200Y-47240500D01*
X67852293Y-47298691D01*
X67802793Y-47334655D01*
X67772200Y-47339500D01*
X64700252Y-47339500D01*
X64700251Y-47339500D01*
X64700241Y-47339501D01*
X64641772Y-47351132D01*
X64641766Y-47351134D01*
X64575451Y-47395445D01*
X64575445Y-47395451D01*
X64531134Y-47461766D01*
X64531132Y-47461772D01*
X64519501Y-47520241D01*
X64519500Y-47520253D01*
X64519500Y-48559746D01*
X64519501Y-48559758D01*
X64531132Y-48618227D01*
X64531134Y-48618233D01*
X64563375Y-48666484D01*
X64575448Y-48684552D01*
X64641769Y-48728867D01*
X64686231Y-48737711D01*
X64700241Y-48740498D01*
X64700246Y-48740498D01*
X64700252Y-48740500D01*
X64700253Y-48740500D01*
X68640692Y-48740500D01*
X68640693Y-48740500D01*
X68776028Y-48713580D01*
X68903511Y-48660775D01*
X69018242Y-48584114D01*
X69115814Y-48486542D01*
X69192475Y-48371811D01*
X69245280Y-48244328D01*
X69272200Y-48108993D01*
X69272200Y-45431007D01*
X69245280Y-45295672D01*
X69192475Y-45168189D01*
X69192474Y-45168188D01*
X69192471Y-45168182D01*
X69115814Y-45053458D01*
X69018241Y-44955885D01*
X68903517Y-44879228D01*
X68903506Y-44879222D01*
X68776028Y-44826420D01*
X68640695Y-44799500D01*
X68640693Y-44799500D01*
X67889748Y-44799500D01*
X66363993Y-44799500D01*
X64817800Y-44799500D01*
X64759609Y-44780593D01*
X64723645Y-44731093D01*
X64718800Y-44700500D01*
X64718800Y-27057972D01*
X64726336Y-27020087D01*
X64747836Y-26968178D01*
X64773580Y-26906029D01*
X64778934Y-26879109D01*
X64800500Y-26770693D01*
X64800500Y-26299500D01*
X64819407Y-26241309D01*
X64868907Y-26205345D01*
X64899500Y-26200500D01*
X64969747Y-26200500D01*
X64969748Y-26200500D01*
X65028231Y-26188867D01*
X65094552Y-26144552D01*
X65138867Y-26078231D01*
X65150500Y-26019748D01*
X65150500Y-23565600D01*
X65169407Y-23507409D01*
X65218907Y-23471445D01*
X65249500Y-23466600D01*
X66953965Y-23466600D01*
X67012156Y-23485507D01*
X67023969Y-23495596D01*
X67648804Y-24120430D01*
X67676581Y-24174947D01*
X67677800Y-24190434D01*
X67677800Y-24707147D01*
X67677800Y-24792853D01*
X67699982Y-24875638D01*
X67742835Y-24949862D01*
X67803438Y-25010465D01*
X67877662Y-25053318D01*
X67960447Y-25075500D01*
X68030500Y-25075500D01*
X68088691Y-25094407D01*
X68124655Y-25143907D01*
X68129500Y-25174500D01*
X68129500Y-25253467D01*
X68169869Y-25456418D01*
X68249058Y-25647597D01*
X68364020Y-25819651D01*
X68364023Y-25819655D01*
X68510345Y-25965977D01*
X68682402Y-26080941D01*
X68873580Y-26160130D01*
X69076535Y-26200500D01*
X69076536Y-26200500D01*
X69283464Y-26200500D01*
X69283465Y-26200500D01*
X69486420Y-26160130D01*
X69677598Y-26080941D01*
X69849655Y-25965977D01*
X69995977Y-25819655D01*
X70110941Y-25647598D01*
X70190130Y-25456420D01*
X70230500Y-25253465D01*
X70230500Y-24246535D01*
X70190130Y-24043580D01*
X70110941Y-23852402D01*
X69995977Y-23680345D01*
X69849655Y-23534023D01*
X69849651Y-23534020D01*
X69677597Y-23419058D01*
X69486418Y-23339869D01*
X69283467Y-23299500D01*
X69283465Y-23299500D01*
X69076535Y-23299500D01*
X69076532Y-23299500D01*
X68873581Y-23339869D01*
X68682402Y-23419058D01*
X68510345Y-23534022D01*
X68364030Y-23680336D01*
X68364023Y-23680345D01*
X68337054Y-23720707D01*
X68289004Y-23758586D01*
X68227866Y-23760988D01*
X68184735Y-23735709D01*
X67768326Y-23319300D01*
X67329662Y-22880635D01*
X67329659Y-22880633D01*
X67329657Y-22880631D01*
X67255442Y-22837783D01*
X67255444Y-22837783D01*
X67223321Y-22829176D01*
X67172653Y-22815600D01*
X63174453Y-22815600D01*
X63088747Y-22815600D01*
X63038078Y-22829176D01*
X63005956Y-22837783D01*
X62931742Y-22880631D01*
X59690631Y-26121742D01*
X59647782Y-26195960D01*
X59647781Y-26195960D01*
X59647782Y-26195961D01*
X59625600Y-26278747D01*
X59625600Y-30429065D01*
X59606693Y-30487256D01*
X59557193Y-30523220D01*
X59496007Y-30523220D01*
X59456596Y-30499069D01*
X56308696Y-27351169D01*
X56280919Y-27296652D01*
X56279700Y-27281165D01*
X56279700Y-25031348D01*
X56279700Y-25031347D01*
X56263279Y-24970061D01*
X56263279Y-24970060D01*
X56263279Y-24970059D01*
X56258652Y-24952794D01*
X56257518Y-24948561D01*
X56221720Y-24886557D01*
X56214668Y-24874342D01*
X56214667Y-24874341D01*
X56214666Y-24874340D01*
X56214665Y-24874338D01*
X49375619Y-18035292D01*
X49347842Y-17980775D01*
X49354159Y-17927402D01*
X49359342Y-17914890D01*
X49400130Y-17816420D01*
X49440500Y-17613465D01*
X49440500Y-17406535D01*
X49400130Y-17203580D01*
X49320941Y-17012402D01*
X49205977Y-16840345D01*
X49059655Y-16694023D01*
X49059651Y-16694020D01*
X48887597Y-16579058D01*
X48696418Y-16499869D01*
X48493467Y-16459500D01*
X48493465Y-16459500D01*
X48286535Y-16459500D01*
X48286532Y-16459500D01*
X48083581Y-16499869D01*
X47892402Y-16579058D01*
X47720348Y-16694020D01*
X47574020Y-16840348D01*
X47459058Y-17012402D01*
X47379869Y-17203581D01*
X47339500Y-17406532D01*
X47339500Y-17613467D01*
X47379869Y-17816418D01*
X47459058Y-18007597D01*
X47558427Y-18156314D01*
X47574023Y-18179655D01*
X47720345Y-18325977D01*
X47892402Y-18440941D01*
X48083580Y-18520130D01*
X48286535Y-18560500D01*
X48286536Y-18560500D01*
X48493464Y-18560500D01*
X48493465Y-18560500D01*
X48696420Y-18520130D01*
X48807402Y-18474158D01*
X48868399Y-18469358D01*
X48915292Y-18495619D01*
X55599704Y-25180031D01*
X55627481Y-25234548D01*
X55628700Y-25250035D01*
X55628700Y-27414147D01*
X55628700Y-27499853D01*
X55642994Y-27553200D01*
X55650883Y-27582643D01*
X55693731Y-27656857D01*
X55693733Y-27656859D01*
X55693735Y-27656862D01*
X58958005Y-30921132D01*
X58985781Y-30975647D01*
X58987000Y-30991134D01*
X58987000Y-33273865D01*
X58968093Y-33332056D01*
X58918593Y-33368020D01*
X58857407Y-33368020D01*
X58817996Y-33343869D01*
X53394869Y-27920742D01*
X53367092Y-27866225D01*
X53376663Y-27805793D01*
X53419928Y-27762528D01*
X53464873Y-27751738D01*
X54646752Y-27751738D01*
X54646752Y-27751737D01*
X54677178Y-27748884D01*
X54805361Y-27704031D01*
X54914629Y-27623388D01*
X54995272Y-27514120D01*
X55040125Y-27385937D01*
X55042978Y-27355511D01*
X55042979Y-27355511D01*
X55042979Y-26146965D01*
X55042978Y-26146963D01*
X55042337Y-26140128D01*
X55040125Y-26116539D01*
X54995272Y-25988356D01*
X54978757Y-25965979D01*
X54914633Y-25879093D01*
X54914631Y-25879091D01*
X54914629Y-25879088D01*
X54914625Y-25879085D01*
X54914623Y-25879083D01*
X54805362Y-25798445D01*
X54677182Y-25753593D01*
X54677173Y-25753591D01*
X54646753Y-25750738D01*
X54646745Y-25750738D01*
X53438213Y-25750738D01*
X53438204Y-25750738D01*
X53407784Y-25753591D01*
X53407775Y-25753593D01*
X53279595Y-25798445D01*
X53170334Y-25879083D01*
X53170324Y-25879093D01*
X53089686Y-25988354D01*
X53044834Y-26116534D01*
X53044832Y-26116543D01*
X53041979Y-26146963D01*
X53041979Y-27328844D01*
X53023072Y-27387035D01*
X52973572Y-27422999D01*
X52912386Y-27422999D01*
X52872975Y-27398848D01*
X49037321Y-23563194D01*
X49009544Y-23508677D01*
X49019115Y-23448245D01*
X49052327Y-23410872D01*
X49059655Y-23405977D01*
X49205977Y-23259655D01*
X49320941Y-23087598D01*
X49400130Y-22896420D01*
X49440500Y-22693465D01*
X49440500Y-22486535D01*
X49400130Y-22283580D01*
X49320941Y-22092402D01*
X49205977Y-21920345D01*
X49059655Y-21774023D01*
X49059651Y-21774020D01*
X48887597Y-21659058D01*
X48696418Y-21579869D01*
X48493467Y-21539500D01*
X48493465Y-21539500D01*
X48286535Y-21539500D01*
X48286532Y-21539500D01*
X48083581Y-21579869D01*
X47892402Y-21659058D01*
X47720348Y-21774020D01*
X47574020Y-21920348D01*
X47459058Y-22092402D01*
X47379869Y-22283581D01*
X47339500Y-22486532D01*
X47339500Y-22693467D01*
X47379869Y-22896418D01*
X47459058Y-23087597D01*
X47569821Y-23253366D01*
X47574023Y-23259655D01*
X47720345Y-23405977D01*
X47892402Y-23520941D01*
X48083580Y-23600130D01*
X48141533Y-23611657D01*
X48192224Y-23638751D01*
X48463969Y-23910496D01*
X48491746Y-23965013D01*
X48482175Y-24025445D01*
X48438910Y-24068710D01*
X48393965Y-24079500D01*
X48286532Y-24079500D01*
X48083581Y-24119869D01*
X47892402Y-24199058D01*
X47720348Y-24314020D01*
X47574020Y-24460348D01*
X47459058Y-24632402D01*
X47379869Y-24823581D01*
X47339500Y-25026532D01*
X47339500Y-25233467D01*
X47379869Y-25436418D01*
X47459058Y-25627597D01*
X47574020Y-25799651D01*
X47574023Y-25799655D01*
X47720345Y-25945977D01*
X47892402Y-26060941D01*
X48083580Y-26140130D01*
X48286535Y-26180500D01*
X48286536Y-26180500D01*
X48493464Y-26180500D01*
X48493465Y-26180500D01*
X48696420Y-26140130D01*
X48807402Y-26094158D01*
X48868399Y-26089358D01*
X48915292Y-26115619D01*
X55905504Y-33105830D01*
X55933281Y-33160347D01*
X55934500Y-33175834D01*
X55934500Y-61409029D01*
X55915593Y-61467220D01*
X55866093Y-61503184D01*
X55863203Y-61504074D01*
X55856823Y-61505933D01*
X55749598Y-61555933D01*
X55665933Y-61639598D01*
X55615932Y-61746824D01*
X55615932Y-61746825D01*
X55615932Y-61746827D01*
X55609500Y-61795684D01*
X55609500Y-64204316D01*
X55613788Y-64236887D01*
X55615932Y-64253174D01*
X55615932Y-64253175D01*
X55665122Y-64358661D01*
X55672579Y-64419390D01*
X55642916Y-64472904D01*
X55587463Y-64498762D01*
X55575398Y-64499500D01*
X54404602Y-64499500D01*
X54346411Y-64480593D01*
X54310447Y-64431093D01*
X54310447Y-64369907D01*
X54314878Y-64358661D01*
X54364067Y-64253175D01*
X54364068Y-64253173D01*
X54370500Y-64204316D01*
X54370500Y-61795684D01*
X54364068Y-61746827D01*
X54360805Y-61739830D01*
X54314066Y-61639598D01*
X54314065Y-61639597D01*
X54314065Y-61639596D01*
X54230404Y-61555935D01*
X54230402Y-61555934D01*
X54230401Y-61555933D01*
X54123176Y-61505933D01*
X54116797Y-61504074D01*
X54066222Y-61469639D01*
X54045546Y-61412053D01*
X54045500Y-61409029D01*
X54045500Y-35497148D01*
X54045500Y-35497147D01*
X54023318Y-35414362D01*
X53980465Y-35340138D01*
X53980462Y-35340135D01*
X53919862Y-35279534D01*
X53919862Y-35279535D01*
X49375619Y-30735292D01*
X49347842Y-30680775D01*
X49354159Y-30627402D01*
X49359115Y-30615438D01*
X49400130Y-30516420D01*
X49440500Y-30313465D01*
X49440500Y-30106535D01*
X49400130Y-29903580D01*
X49320941Y-29712402D01*
X49205977Y-29540345D01*
X49059655Y-29394023D01*
X49059651Y-29394020D01*
X48887597Y-29279058D01*
X48696418Y-29199869D01*
X48493467Y-29159500D01*
X48493465Y-29159500D01*
X48286535Y-29159500D01*
X48286532Y-29159500D01*
X48083581Y-29199869D01*
X47892402Y-29279058D01*
X47720348Y-29394020D01*
X47574020Y-29540348D01*
X47459058Y-29712402D01*
X47379869Y-29903581D01*
X47339500Y-30106532D01*
X47339500Y-30313467D01*
X47379869Y-30516418D01*
X47459058Y-30707597D01*
X47477563Y-30735292D01*
X47574023Y-30879655D01*
X47720345Y-31025977D01*
X47892402Y-31140941D01*
X48083580Y-31220130D01*
X48286535Y-31260500D01*
X48286536Y-31260500D01*
X48493464Y-31260500D01*
X48493465Y-31260500D01*
X48696420Y-31220130D01*
X48807402Y-31174158D01*
X48868399Y-31169358D01*
X48915292Y-31195619D01*
X53365504Y-35645831D01*
X53393281Y-35700348D01*
X53394500Y-35715835D01*
X53394500Y-61409029D01*
X53375593Y-61467220D01*
X53326093Y-61503184D01*
X53323203Y-61504074D01*
X53316823Y-61505933D01*
X53209598Y-61555933D01*
X53125933Y-61639598D01*
X53075932Y-61746824D01*
X53075932Y-61746825D01*
X53075932Y-61746827D01*
X53069500Y-61795684D01*
X53069500Y-64204316D01*
X53073788Y-64236887D01*
X53075932Y-64253174D01*
X53075932Y-64253175D01*
X53125122Y-64358661D01*
X53132579Y-64419390D01*
X53102916Y-64472904D01*
X53047463Y-64498762D01*
X53035398Y-64499500D01*
X51864602Y-64499500D01*
X51806411Y-64480593D01*
X51770447Y-64431093D01*
X51770447Y-64369907D01*
X51774878Y-64358661D01*
X51824067Y-64253175D01*
X51824068Y-64253173D01*
X51830500Y-64204316D01*
X51830500Y-61795684D01*
X51824068Y-61746827D01*
X51820805Y-61739830D01*
X51774066Y-61639598D01*
X51774065Y-61639597D01*
X51774065Y-61639596D01*
X51690404Y-61555935D01*
X51690402Y-61555934D01*
X51690401Y-61555933D01*
X51583176Y-61505933D01*
X51576797Y-61504074D01*
X51526222Y-61469639D01*
X51505546Y-61412053D01*
X51505500Y-61409029D01*
X51505500Y-38037148D01*
X51505500Y-38037147D01*
X51483318Y-37954362D01*
X51483318Y-37954361D01*
X51454194Y-37903918D01*
X51440465Y-37880138D01*
X51379862Y-37819535D01*
X51379859Y-37819533D01*
X49375619Y-35815292D01*
X49347842Y-35760775D01*
X49354159Y-35707402D01*
X49379663Y-35645831D01*
X49400130Y-35596420D01*
X49440500Y-35393465D01*
X49440500Y-35186535D01*
X49400130Y-34983580D01*
X49320941Y-34792402D01*
X49205977Y-34620345D01*
X49059655Y-34474023D01*
X48887598Y-34359059D01*
X48887599Y-34359059D01*
X48887597Y-34359058D01*
X48696418Y-34279869D01*
X48493467Y-34239500D01*
X48493465Y-34239500D01*
X48286535Y-34239500D01*
X48286532Y-34239500D01*
X48083581Y-34279869D01*
X47892402Y-34359058D01*
X47720348Y-34474020D01*
X47574020Y-34620348D01*
X47459058Y-34792402D01*
X47379869Y-34983581D01*
X47339500Y-35186532D01*
X47339500Y-35393467D01*
X47379869Y-35596418D01*
X47459058Y-35787597D01*
X47574020Y-35959651D01*
X47574023Y-35959655D01*
X47720345Y-36105977D01*
X47892402Y-36220941D01*
X48083580Y-36300130D01*
X48286535Y-36340500D01*
X48286536Y-36340500D01*
X48493464Y-36340500D01*
X48493465Y-36340500D01*
X48696420Y-36300130D01*
X48807402Y-36254158D01*
X48868399Y-36249358D01*
X48915292Y-36275619D01*
X50825504Y-38185830D01*
X50853281Y-38240347D01*
X50854500Y-38255834D01*
X50854500Y-39595165D01*
X50835593Y-39653356D01*
X50786093Y-39689320D01*
X50724907Y-39689320D01*
X50685496Y-39665169D01*
X49375619Y-38355292D01*
X49347842Y-38300775D01*
X49354159Y-38247402D01*
X49357081Y-38240347D01*
X49400130Y-38136420D01*
X49440500Y-37933465D01*
X49440500Y-37726535D01*
X49400130Y-37523580D01*
X49320941Y-37332402D01*
X49205977Y-37160345D01*
X49059655Y-37014023D01*
X48887598Y-36899059D01*
X48887599Y-36899059D01*
X48887597Y-36899058D01*
X48696418Y-36819869D01*
X48493467Y-36779500D01*
X48493465Y-36779500D01*
X48286535Y-36779500D01*
X48286532Y-36779500D01*
X48083581Y-36819869D01*
X47892402Y-36899058D01*
X47720348Y-37014020D01*
X47574020Y-37160348D01*
X47459058Y-37332402D01*
X47379869Y-37523581D01*
X47339500Y-37726532D01*
X47339500Y-37933467D01*
X47379869Y-38136418D01*
X47459058Y-38327597D01*
X47459059Y-38327598D01*
X47574023Y-38499655D01*
X47720345Y-38645977D01*
X47892402Y-38760941D01*
X48083580Y-38840130D01*
X48286535Y-38880500D01*
X48286536Y-38880500D01*
X48493464Y-38880500D01*
X48493465Y-38880500D01*
X48696420Y-38840130D01*
X48807402Y-38794158D01*
X48868399Y-38789358D01*
X48915292Y-38815619D01*
X50166904Y-40067230D01*
X50194681Y-40121747D01*
X50195900Y-40137234D01*
X50195900Y-41476565D01*
X50176993Y-41534756D01*
X50127493Y-41570720D01*
X50066307Y-41570720D01*
X50026896Y-41546569D01*
X49375619Y-40895292D01*
X49347842Y-40840775D01*
X49354159Y-40787402D01*
X49400130Y-40676420D01*
X49440500Y-40473465D01*
X49440500Y-40266535D01*
X49400130Y-40063580D01*
X49320941Y-39872402D01*
X49205977Y-39700345D01*
X49059655Y-39554023D01*
X49018558Y-39526563D01*
X48887597Y-39439058D01*
X48696418Y-39359869D01*
X48493467Y-39319500D01*
X48493465Y-39319500D01*
X48286535Y-39319500D01*
X48286532Y-39319500D01*
X48083581Y-39359869D01*
X47892402Y-39439058D01*
X47720348Y-39554020D01*
X47574020Y-39700348D01*
X47459058Y-39872402D01*
X47379869Y-40063581D01*
X47339500Y-40266532D01*
X47339500Y-40473467D01*
X47379869Y-40676418D01*
X47459058Y-40867597D01*
X47574020Y-41039651D01*
X47574023Y-41039655D01*
X47720345Y-41185977D01*
X47892402Y-41300941D01*
X48083580Y-41380130D01*
X48286535Y-41420500D01*
X48286536Y-41420500D01*
X48493464Y-41420500D01*
X48493465Y-41420500D01*
X48696420Y-41380130D01*
X48807402Y-41334158D01*
X48868399Y-41329358D01*
X48915292Y-41355619D01*
X49674004Y-42114331D01*
X49701781Y-42168848D01*
X49703000Y-42184335D01*
X49703000Y-43523665D01*
X49684093Y-43581856D01*
X49634593Y-43617820D01*
X49573407Y-43617820D01*
X49533996Y-43593669D01*
X49375619Y-43435292D01*
X49347842Y-43380775D01*
X49354159Y-43327402D01*
X49362674Y-43306845D01*
X49400130Y-43216420D01*
X49440500Y-43013465D01*
X49440500Y-42806535D01*
X49400130Y-42603580D01*
X49320941Y-42412402D01*
X49205977Y-42240345D01*
X49059655Y-42094023D01*
X48961311Y-42028312D01*
X48887597Y-41979058D01*
X48696418Y-41899869D01*
X48493467Y-41859500D01*
X48493465Y-41859500D01*
X48286535Y-41859500D01*
X48286532Y-41859500D01*
X48083581Y-41899869D01*
X47892402Y-41979058D01*
X47720348Y-42094020D01*
X47574020Y-42240348D01*
X47459058Y-42412402D01*
X47379869Y-42603581D01*
X47339500Y-42806532D01*
X47339500Y-43013467D01*
X47379869Y-43216418D01*
X47459058Y-43407597D01*
X47544908Y-43536081D01*
X47574023Y-43579655D01*
X47720345Y-43725977D01*
X47892402Y-43840941D01*
X48083580Y-43920130D01*
X48286535Y-43960500D01*
X48286536Y-43960500D01*
X48493464Y-43960500D01*
X48493465Y-43960500D01*
X48696420Y-43920130D01*
X48807402Y-43874158D01*
X48868399Y-43869358D01*
X48915292Y-43895619D01*
X49212204Y-44192531D01*
X49239981Y-44247048D01*
X49241200Y-44262535D01*
X49241200Y-47116560D01*
X49222293Y-47174751D01*
X49172793Y-47210715D01*
X49111607Y-47210715D01*
X49072199Y-47186566D01*
X49059655Y-47174023D01*
X48887597Y-47059058D01*
X48696418Y-46979869D01*
X48493467Y-46939500D01*
X48493465Y-46939500D01*
X48286535Y-46939500D01*
X48286532Y-46939500D01*
X48083581Y-46979869D01*
X47892402Y-47059058D01*
X47720348Y-47174020D01*
X47574020Y-47320348D01*
X47459058Y-47492402D01*
X47379869Y-47683581D01*
X47339500Y-47886532D01*
X47339500Y-48093467D01*
X47342589Y-48108995D01*
X47379869Y-48296417D01*
X47379870Y-48296419D01*
X47379870Y-48296421D01*
X47425840Y-48407402D01*
X47430641Y-48468398D01*
X47404380Y-48515291D01*
X40759532Y-55160141D01*
X40759531Y-55160142D01*
X40716683Y-55234356D01*
X40707745Y-55267716D01*
X40698109Y-55303680D01*
X40694500Y-55317148D01*
X40694500Y-61409029D01*
X40675593Y-61467220D01*
X40626093Y-61503184D01*
X40623203Y-61504074D01*
X40616823Y-61505933D01*
X40509598Y-61555933D01*
X40425933Y-61639598D01*
X40375932Y-61746824D01*
X40375932Y-61746825D01*
X40375932Y-61746827D01*
X40369500Y-61795684D01*
X40369500Y-64204316D01*
X40373788Y-64236887D01*
X40375932Y-64253174D01*
X40375932Y-64253175D01*
X40425122Y-64358661D01*
X40432579Y-64419390D01*
X40402916Y-64472904D01*
X40347463Y-64498762D01*
X40335398Y-64499500D01*
X39164602Y-64499500D01*
X39106411Y-64480593D01*
X39070447Y-64431093D01*
X39070447Y-64369907D01*
X39074878Y-64358661D01*
X39124067Y-64253175D01*
X39124068Y-64253173D01*
X39130500Y-64204316D01*
X39130500Y-61795684D01*
X39124068Y-61746827D01*
X39120805Y-61739830D01*
X39074066Y-61639598D01*
X39074065Y-61639597D01*
X39074065Y-61639596D01*
X38990404Y-61555935D01*
X38990402Y-61555934D01*
X38990401Y-61555933D01*
X38883176Y-61505933D01*
X38876797Y-61504074D01*
X38826222Y-61469639D01*
X38805546Y-61412053D01*
X38805500Y-61409029D01*
X38805500Y-61029235D01*
X38824407Y-60971044D01*
X38834496Y-60959231D01*
X38878231Y-60915496D01*
X38932748Y-60887719D01*
X38948235Y-60886500D01*
X39013290Y-60886500D01*
X39013292Y-60886500D01*
X39140586Y-60852392D01*
X39140588Y-60852390D01*
X39140590Y-60852390D01*
X39254709Y-60786503D01*
X39254709Y-60786502D01*
X39254714Y-60786500D01*
X39347900Y-60693314D01*
X39347903Y-60693309D01*
X39413790Y-60579190D01*
X39413790Y-60579188D01*
X39413792Y-60579186D01*
X39447900Y-60451892D01*
X39447900Y-60320108D01*
X39413792Y-60192814D01*
X39413790Y-60192811D01*
X39413790Y-60192809D01*
X39347903Y-60078690D01*
X39347901Y-60078688D01*
X39347900Y-60078686D01*
X39254714Y-59985500D01*
X39254711Y-59985498D01*
X39254709Y-59985496D01*
X39140589Y-59919609D01*
X39140591Y-59919609D01*
X39091199Y-59906375D01*
X39013292Y-59885500D01*
X38881508Y-59885500D01*
X38803600Y-59906375D01*
X38754209Y-59919609D01*
X38640090Y-59985496D01*
X38546896Y-60078690D01*
X38481009Y-60192809D01*
X38446900Y-60320109D01*
X38446900Y-60385165D01*
X38427993Y-60443356D01*
X38417904Y-60455168D01*
X38219535Y-60653537D01*
X38219531Y-60653542D01*
X38176683Y-60727756D01*
X38176682Y-60727761D01*
X38160943Y-60786500D01*
X38160943Y-60786501D01*
X38160942Y-60786500D01*
X38154500Y-60810543D01*
X38154500Y-61409029D01*
X38135593Y-61467220D01*
X38086093Y-61503184D01*
X38083203Y-61504074D01*
X38076823Y-61505933D01*
X37969598Y-61555933D01*
X37885933Y-61639598D01*
X37835932Y-61746824D01*
X37835932Y-61746825D01*
X37835932Y-61746827D01*
X37829500Y-61795684D01*
X37829500Y-64204316D01*
X37833788Y-64236887D01*
X37835932Y-64253174D01*
X37835932Y-64253175D01*
X37885122Y-64358661D01*
X37892579Y-64419390D01*
X37862916Y-64472904D01*
X37807463Y-64498762D01*
X37795398Y-64499500D01*
X36624602Y-64499500D01*
X36566411Y-64480593D01*
X36530447Y-64431093D01*
X36530447Y-64369907D01*
X36534878Y-64358661D01*
X36584067Y-64253175D01*
X36584068Y-64253173D01*
X36590500Y-64204316D01*
X36590500Y-61795684D01*
X36584068Y-61746827D01*
X36580805Y-61739830D01*
X36534066Y-61639598D01*
X36534065Y-61639597D01*
X36534065Y-61639596D01*
X36450404Y-61555935D01*
X36450402Y-61555934D01*
X36450401Y-61555933D01*
X36343176Y-61505933D01*
X36336797Y-61504074D01*
X36286222Y-61469639D01*
X36265546Y-61412053D01*
X36265500Y-61409029D01*
X36265500Y-60899553D01*
X36284407Y-60841362D01*
X36315000Y-60813817D01*
X36335024Y-60802255D01*
X36362314Y-60786500D01*
X36455500Y-60693314D01*
X36455503Y-60693309D01*
X36521390Y-60579190D01*
X36521390Y-60579188D01*
X36521392Y-60579186D01*
X36555500Y-60451892D01*
X36555500Y-60320108D01*
X36521392Y-60192814D01*
X36521390Y-60192811D01*
X36521390Y-60192809D01*
X36455503Y-60078690D01*
X36455501Y-60078688D01*
X36455500Y-60078686D01*
X36362314Y-59985500D01*
X36362311Y-59985498D01*
X36362309Y-59985496D01*
X36248189Y-59919609D01*
X36248191Y-59919609D01*
X36198799Y-59906375D01*
X36120892Y-59885500D01*
X35989108Y-59885500D01*
X35911200Y-59906375D01*
X35861809Y-59919609D01*
X35747690Y-59985496D01*
X35654496Y-60078690D01*
X35588609Y-60192809D01*
X35588608Y-60192814D01*
X35554500Y-60320108D01*
X35554500Y-60451892D01*
X35555378Y-60455168D01*
X35588609Y-60579189D01*
X35601235Y-60601056D01*
X35614500Y-60650558D01*
X35614500Y-61409029D01*
X35595593Y-61467220D01*
X35546093Y-61503184D01*
X35543203Y-61504074D01*
X35536823Y-61505933D01*
X35429598Y-61555933D01*
X35345933Y-61639598D01*
X35295932Y-61746824D01*
X35295932Y-61746825D01*
X35295932Y-61746827D01*
X35289500Y-61795684D01*
X35289500Y-64204316D01*
X35293788Y-64236887D01*
X35295932Y-64253174D01*
X35295932Y-64253175D01*
X35345122Y-64358661D01*
X35352579Y-64419390D01*
X35322916Y-64472904D01*
X35267463Y-64498762D01*
X35255398Y-64499500D01*
X34084602Y-64499500D01*
X34026411Y-64480593D01*
X33990447Y-64431093D01*
X33990447Y-64369907D01*
X33994878Y-64358661D01*
X34044067Y-64253175D01*
X34044068Y-64253173D01*
X34050500Y-64204316D01*
X34050500Y-61795684D01*
X34044068Y-61746827D01*
X34040805Y-61739830D01*
X33994066Y-61639598D01*
X33994065Y-61639597D01*
X33994065Y-61639596D01*
X33910404Y-61555935D01*
X33910402Y-61555934D01*
X33910401Y-61555933D01*
X33803176Y-61505933D01*
X33796797Y-61504074D01*
X33746222Y-61469639D01*
X33725546Y-61412053D01*
X33725500Y-61409029D01*
X33725500Y-58522140D01*
X33725501Y-58522127D01*
X33725501Y-58428449D01*
X33725501Y-58428447D01*
X33703318Y-58345661D01*
X33701737Y-58342922D01*
X33681893Y-58308551D01*
X33681889Y-58308547D01*
X33660465Y-58271438D01*
X33599862Y-58210835D01*
X33599859Y-58210833D01*
X32329296Y-56940269D01*
X32301519Y-56885752D01*
X32300300Y-56870265D01*
X32300300Y-49405640D01*
X32300301Y-49405627D01*
X32300301Y-49311946D01*
X32300300Y-49311944D01*
X32278118Y-49229162D01*
X32278116Y-49229158D01*
X32235266Y-49154940D01*
X32235265Y-49154938D01*
X32174662Y-49094335D01*
X32174659Y-49094333D01*
X31595617Y-48515290D01*
X31567841Y-48460775D01*
X31574157Y-48407405D01*
X31620130Y-48296420D01*
X31660500Y-48093465D01*
X31660500Y-47886535D01*
X31620130Y-47683580D01*
X31540941Y-47492402D01*
X31425977Y-47320345D01*
X31279655Y-47174023D01*
X31107598Y-47059059D01*
X31107599Y-47059059D01*
X31107597Y-47059058D01*
X30916418Y-46979869D01*
X30713467Y-46939500D01*
X30713465Y-46939500D01*
X30506535Y-46939500D01*
X30506532Y-46939500D01*
X30303581Y-46979869D01*
X30112402Y-47059058D01*
X29940348Y-47174020D01*
X29940345Y-47174022D01*
X29940345Y-47174023D01*
X29825001Y-47289366D01*
X29770487Y-47317142D01*
X29710055Y-47307571D01*
X29666790Y-47264306D01*
X29656000Y-47219361D01*
X29656000Y-44365333D01*
X29674907Y-44307142D01*
X29684990Y-44295336D01*
X30084708Y-43895617D01*
X30139223Y-43867841D01*
X30192594Y-43874157D01*
X30303580Y-43920130D01*
X30506535Y-43960500D01*
X30506536Y-43960500D01*
X30713464Y-43960500D01*
X30713465Y-43960500D01*
X30916420Y-43920130D01*
X31107598Y-43840941D01*
X31279655Y-43725977D01*
X31425977Y-43579655D01*
X31540941Y-43407598D01*
X31620130Y-43216420D01*
X31660500Y-43013465D01*
X31660500Y-42806535D01*
X31620130Y-42603580D01*
X31540941Y-42412402D01*
X31425977Y-42240345D01*
X31279655Y-42094023D01*
X31181311Y-42028312D01*
X31107597Y-41979058D01*
X30916418Y-41899869D01*
X30713467Y-41859500D01*
X30713465Y-41859500D01*
X30506535Y-41859500D01*
X30506532Y-41859500D01*
X30303581Y-41899869D01*
X30112402Y-41979058D01*
X29940348Y-42094020D01*
X29794020Y-42240348D01*
X29679058Y-42412402D01*
X29599869Y-42603581D01*
X29559500Y-42806532D01*
X29559500Y-42806535D01*
X29559500Y-43013465D01*
X29599869Y-43216417D01*
X29599870Y-43216419D01*
X29599870Y-43216421D01*
X29645840Y-43327402D01*
X29650641Y-43388398D01*
X29624380Y-43435290D01*
X29070035Y-43989637D01*
X29070031Y-43989642D01*
X29027182Y-44063860D01*
X29027181Y-44063860D01*
X29027182Y-44063861D01*
X29005000Y-44146647D01*
X29005000Y-61491524D01*
X28986093Y-61549715D01*
X28936593Y-61585679D01*
X28875407Y-61585679D01*
X28835998Y-61561529D01*
X28830404Y-61555935D01*
X28830402Y-61555934D01*
X28830401Y-61555933D01*
X28723176Y-61505933D01*
X28716797Y-61504074D01*
X28666222Y-61469639D01*
X28645546Y-61412053D01*
X28645500Y-61409029D01*
X28645500Y-42835834D01*
X28664407Y-42777643D01*
X28674490Y-42765836D01*
X30084709Y-41355616D01*
X30139224Y-41327841D01*
X30192593Y-41334157D01*
X30303580Y-41380130D01*
X30506535Y-41420500D01*
X30506536Y-41420500D01*
X30713464Y-41420500D01*
X30713465Y-41420500D01*
X30916420Y-41380130D01*
X31107598Y-41300941D01*
X31279655Y-41185977D01*
X31425977Y-41039655D01*
X31540941Y-40867598D01*
X31620130Y-40676420D01*
X31660500Y-40473465D01*
X31660500Y-40266535D01*
X31620130Y-40063580D01*
X31540941Y-39872402D01*
X31425977Y-39700345D01*
X31279655Y-39554023D01*
X31238558Y-39526563D01*
X31107597Y-39439058D01*
X30916418Y-39359869D01*
X30713467Y-39319500D01*
X30713465Y-39319500D01*
X30506535Y-39319500D01*
X30506532Y-39319500D01*
X30303581Y-39359869D01*
X30112402Y-39439058D01*
X29940348Y-39554020D01*
X29794020Y-39700348D01*
X29679058Y-39872402D01*
X29599869Y-40063581D01*
X29559500Y-40266532D01*
X29559500Y-40266535D01*
X29559500Y-40473465D01*
X29599869Y-40676417D01*
X29599870Y-40676419D01*
X29599870Y-40676421D01*
X29645840Y-40787402D01*
X29650641Y-40848398D01*
X29624380Y-40895291D01*
X28059532Y-42460141D01*
X28059531Y-42460142D01*
X28016682Y-42534360D01*
X28016681Y-42534360D01*
X28016682Y-42534361D01*
X27994500Y-42617147D01*
X27994500Y-61409029D01*
X27975593Y-61467220D01*
X27926093Y-61503184D01*
X27923203Y-61504074D01*
X27916823Y-61505933D01*
X27809598Y-61555933D01*
X27725933Y-61639598D01*
X27675932Y-61746824D01*
X27675932Y-61746825D01*
X27675932Y-61746827D01*
X27669500Y-61795684D01*
X27669500Y-64204316D01*
X27673788Y-64236887D01*
X27675932Y-64253174D01*
X27675932Y-64253175D01*
X27725122Y-64358661D01*
X27732579Y-64419390D01*
X27702916Y-64472904D01*
X27647463Y-64498762D01*
X27635398Y-64499500D01*
X26464602Y-64499500D01*
X26406411Y-64480593D01*
X26370447Y-64431093D01*
X26370447Y-64369907D01*
X26374878Y-64358661D01*
X26424067Y-64253175D01*
X26424068Y-64253173D01*
X26430500Y-64204316D01*
X26430500Y-61795684D01*
X26424068Y-61746827D01*
X26420805Y-61739830D01*
X26374066Y-61639598D01*
X26374065Y-61639597D01*
X26374065Y-61639596D01*
X26290404Y-61555935D01*
X26290402Y-61555934D01*
X26290401Y-61555933D01*
X26183176Y-61505933D01*
X26176797Y-61504074D01*
X26126222Y-61469639D01*
X26105546Y-61412053D01*
X26105500Y-61409029D01*
X26105500Y-42835833D01*
X26124407Y-42777642D01*
X26134490Y-42765835D01*
X30084708Y-38815616D01*
X30139223Y-38787841D01*
X30192593Y-38794157D01*
X30303580Y-38840130D01*
X30506535Y-38880500D01*
X30506536Y-38880500D01*
X30713464Y-38880500D01*
X30713465Y-38880500D01*
X30916420Y-38840130D01*
X31107598Y-38760941D01*
X31279655Y-38645977D01*
X31425977Y-38499655D01*
X31540941Y-38327598D01*
X31620130Y-38136420D01*
X31660500Y-37933465D01*
X31660500Y-37726535D01*
X31620130Y-37523580D01*
X31540941Y-37332402D01*
X31425977Y-37160345D01*
X31279655Y-37014023D01*
X31107598Y-36899059D01*
X31107599Y-36899059D01*
X31107597Y-36899058D01*
X30916418Y-36819869D01*
X30713467Y-36779500D01*
X30713465Y-36779500D01*
X30506535Y-36779500D01*
X30506532Y-36779500D01*
X30303581Y-36819869D01*
X30112402Y-36899058D01*
X29940348Y-37014020D01*
X29794020Y-37160348D01*
X29679058Y-37332402D01*
X29599869Y-37523581D01*
X29559500Y-37726532D01*
X29559500Y-37933467D01*
X29580123Y-38037147D01*
X29599869Y-38136417D01*
X29599870Y-38136419D01*
X29599870Y-38136421D01*
X29645840Y-38247403D01*
X29650640Y-38308400D01*
X29624380Y-38355292D01*
X25519532Y-42460141D01*
X25519531Y-42460142D01*
X25476682Y-42534360D01*
X25476681Y-42534360D01*
X25476682Y-42534361D01*
X25454500Y-42617147D01*
X25454500Y-61409029D01*
X25435593Y-61467220D01*
X25386093Y-61503184D01*
X25383203Y-61504074D01*
X25376823Y-61505933D01*
X25269598Y-61555933D01*
X25185933Y-61639598D01*
X25135932Y-61746824D01*
X25135932Y-61746825D01*
X25135932Y-61746827D01*
X25129500Y-61795684D01*
X25129500Y-64204316D01*
X25133788Y-64236887D01*
X25135932Y-64253174D01*
X25135932Y-64253175D01*
X25185122Y-64358661D01*
X25192579Y-64419390D01*
X25162916Y-64472904D01*
X25107463Y-64498762D01*
X25095398Y-64499500D01*
X23924602Y-64499500D01*
X23866411Y-64480593D01*
X23830447Y-64431093D01*
X23830447Y-64369907D01*
X23834878Y-64358661D01*
X23884067Y-64253175D01*
X23884068Y-64253173D01*
X23890500Y-64204316D01*
X23890500Y-62850834D01*
X23909407Y-62792643D01*
X23919490Y-62780836D01*
X24057565Y-62642762D01*
X24080010Y-62603886D01*
X24083311Y-62598169D01*
X24100417Y-62568539D01*
X24100418Y-62568538D01*
X24122600Y-62485753D01*
X24122600Y-42278733D01*
X24141507Y-42220542D01*
X24151590Y-42208735D01*
X30084708Y-36275616D01*
X30139223Y-36247841D01*
X30192593Y-36254157D01*
X30303580Y-36300130D01*
X30506535Y-36340500D01*
X30506536Y-36340500D01*
X30713464Y-36340500D01*
X30713465Y-36340500D01*
X30916420Y-36300130D01*
X31107598Y-36220941D01*
X31279655Y-36105977D01*
X31425977Y-35959655D01*
X31540941Y-35787598D01*
X31620130Y-35596420D01*
X31660500Y-35393465D01*
X31660500Y-35186535D01*
X31620130Y-34983580D01*
X31540941Y-34792402D01*
X31425977Y-34620345D01*
X31279655Y-34474023D01*
X31107598Y-34359059D01*
X31107599Y-34359059D01*
X31107597Y-34359058D01*
X30916418Y-34279869D01*
X30713467Y-34239500D01*
X30713465Y-34239500D01*
X30506535Y-34239500D01*
X30506532Y-34239500D01*
X30303581Y-34279869D01*
X30112402Y-34359058D01*
X29940348Y-34474020D01*
X29794020Y-34620348D01*
X29679058Y-34792402D01*
X29599869Y-34983581D01*
X29559500Y-35186532D01*
X29559500Y-35393467D01*
X29580123Y-35497147D01*
X29599869Y-35596417D01*
X29599870Y-35596419D01*
X29599870Y-35596421D01*
X29645840Y-35707403D01*
X29650640Y-35768400D01*
X29624380Y-35815292D01*
X23536632Y-41903041D01*
X23536631Y-41903042D01*
X23493782Y-41977260D01*
X23493781Y-41977260D01*
X23493782Y-41977261D01*
X23471600Y-42060047D01*
X23471600Y-53425826D01*
X23452693Y-53484017D01*
X23403193Y-53519981D01*
X23342007Y-53519981D01*
X23292507Y-53484017D01*
X23278445Y-53456418D01*
X23247897Y-53362400D01*
X23247896Y-53362399D01*
X23247895Y-53362394D01*
X23147815Y-53165978D01*
X23018242Y-52987635D01*
X22862365Y-52831758D01*
X22684022Y-52702185D01*
X22684021Y-52702184D01*
X22684019Y-52702183D01*
X22594825Y-52656736D01*
X22487606Y-52602105D01*
X22487602Y-52602104D01*
X22487599Y-52602102D01*
X22277948Y-52533984D01*
X22060225Y-52499500D01*
X22060222Y-52499500D01*
X21839778Y-52499500D01*
X21839775Y-52499500D01*
X21622051Y-52533984D01*
X21412400Y-52602102D01*
X21215980Y-52702183D01*
X21126806Y-52766971D01*
X21037635Y-52831758D01*
X20881801Y-52987591D01*
X20827287Y-53015367D01*
X20766855Y-53005796D01*
X20723590Y-52962531D01*
X20712800Y-52917586D01*
X20712800Y-40608534D01*
X20731707Y-40550343D01*
X20741790Y-40538536D01*
X30084709Y-31195616D01*
X30139224Y-31167841D01*
X30192593Y-31174157D01*
X30303580Y-31220130D01*
X30506535Y-31260500D01*
X30506536Y-31260500D01*
X30713464Y-31260500D01*
X30713465Y-31260500D01*
X30916420Y-31220130D01*
X31107598Y-31140941D01*
X31279655Y-31025977D01*
X31425977Y-30879655D01*
X31540941Y-30707598D01*
X31620130Y-30516420D01*
X31660500Y-30313465D01*
X31660500Y-30106535D01*
X31620130Y-29903580D01*
X31540941Y-29712402D01*
X31425977Y-29540345D01*
X31279655Y-29394023D01*
X31279651Y-29394020D01*
X31107597Y-29279058D01*
X30916418Y-29199869D01*
X30713467Y-29159500D01*
X30713465Y-29159500D01*
X30506535Y-29159500D01*
X30506532Y-29159500D01*
X30303581Y-29199869D01*
X30112402Y-29279058D01*
X29940348Y-29394020D01*
X29794020Y-29540348D01*
X29679058Y-29712402D01*
X29599869Y-29903581D01*
X29559500Y-30106532D01*
X29559500Y-30106535D01*
X29559500Y-30313465D01*
X29599869Y-30516417D01*
X29599870Y-30516419D01*
X29599870Y-30516421D01*
X29645840Y-30627402D01*
X29650641Y-30688398D01*
X29624380Y-30735291D01*
X20126832Y-40232841D01*
X20126831Y-40232842D01*
X20083982Y-40307060D01*
X20083981Y-40307060D01*
X20083982Y-40307061D01*
X20061800Y-40389847D01*
X20061800Y-61712558D01*
X20057848Y-61740252D01*
X20055932Y-61746825D01*
X20055932Y-61746827D01*
X20049500Y-61795684D01*
X20049500Y-64204316D01*
X20053788Y-64236887D01*
X20055932Y-64253174D01*
X20055932Y-64253175D01*
X20105122Y-64358661D01*
X20112579Y-64419390D01*
X20082916Y-64472904D01*
X20027463Y-64498762D01*
X20015398Y-64499500D01*
X18844602Y-64499500D01*
X18786411Y-64480593D01*
X18750447Y-64431093D01*
X18750447Y-64369907D01*
X18754878Y-64358661D01*
X18804067Y-64253175D01*
X18804068Y-64253173D01*
X18810500Y-64204316D01*
X18810500Y-61795684D01*
X18804068Y-61746827D01*
X18800805Y-61739830D01*
X18754066Y-61639598D01*
X18754065Y-61639597D01*
X18754065Y-61639596D01*
X18670404Y-61555935D01*
X18670402Y-61555934D01*
X18670401Y-61555933D01*
X18563175Y-61505932D01*
X18530601Y-61501644D01*
X18514316Y-61499500D01*
X17805684Y-61499500D01*
X17789398Y-61501644D01*
X17756825Y-61505932D01*
X17756824Y-61505932D01*
X17649598Y-61555933D01*
X17565933Y-61639598D01*
X17528370Y-61720151D01*
X17486641Y-61764899D01*
X17426580Y-61776573D01*
X17371127Y-61750714D01*
X17368642Y-61748315D01*
X17229096Y-61608769D01*
X17201319Y-61554252D01*
X17200100Y-61538765D01*
X17200100Y-55361871D01*
X17219007Y-55303680D01*
X17268507Y-55267716D01*
X17329693Y-55267716D01*
X17331742Y-55268407D01*
X17415302Y-55297646D01*
X17445735Y-55300500D01*
X19454264Y-55300499D01*
X19454265Y-55300499D01*
X19460350Y-55299928D01*
X19484698Y-55297646D01*
X19612882Y-55252793D01*
X19722150Y-55172150D01*
X19802793Y-55062882D01*
X19847646Y-54934698D01*
X19850500Y-54904265D01*
X19850499Y-52895736D01*
X19847646Y-52865302D01*
X19802793Y-52737118D01*
X19802791Y-52737116D01*
X19802791Y-52737114D01*
X19722154Y-52627855D01*
X19722152Y-52627853D01*
X19722150Y-52627850D01*
X19722146Y-52627847D01*
X19722144Y-52627845D01*
X19612885Y-52547208D01*
X19568202Y-52531573D01*
X19484698Y-52502354D01*
X19484696Y-52502353D01*
X19484694Y-52502353D01*
X19454272Y-52499500D01*
X17445734Y-52499500D01*
X17415304Y-52502353D01*
X17331796Y-52531573D01*
X17270626Y-52532945D01*
X17220332Y-52498100D01*
X17200125Y-52440348D01*
X17200100Y-52438128D01*
X17200100Y-32102734D01*
X17219007Y-32044543D01*
X17229090Y-32032736D01*
X24696261Y-24565564D01*
X24750776Y-24537789D01*
X24811208Y-24547360D01*
X24844802Y-24575299D01*
X24847494Y-24578807D01*
X24847498Y-24578811D01*
X24847500Y-24578814D01*
X24940686Y-24672000D01*
X24940688Y-24672001D01*
X24940690Y-24672003D01*
X25054810Y-24737890D01*
X25054808Y-24737890D01*
X25054812Y-24737891D01*
X25054814Y-24737892D01*
X25182108Y-24772000D01*
X25247166Y-24772000D01*
X25305357Y-24790907D01*
X25317169Y-24800996D01*
X25717703Y-25201529D01*
X25745481Y-25256046D01*
X25746700Y-25271533D01*
X25746700Y-31422178D01*
X25727793Y-31480369D01*
X25717704Y-31492181D01*
X25671700Y-31538184D01*
X25671696Y-31538190D01*
X25605809Y-31652309D01*
X25587729Y-31719786D01*
X25571700Y-31779608D01*
X25571700Y-31911392D01*
X25601779Y-32023651D01*
X25605809Y-32038690D01*
X25671696Y-32152809D01*
X25671698Y-32152811D01*
X25671700Y-32152814D01*
X25764886Y-32246000D01*
X25764888Y-32246001D01*
X25764890Y-32246003D01*
X25879010Y-32311890D01*
X25879008Y-32311890D01*
X25879012Y-32311891D01*
X25879014Y-32311892D01*
X26006308Y-32346000D01*
X26006310Y-32346000D01*
X26138090Y-32346000D01*
X26138092Y-32346000D01*
X26265386Y-32311892D01*
X26265388Y-32311890D01*
X26265390Y-32311890D01*
X26379509Y-32246003D01*
X26379509Y-32246002D01*
X26379514Y-32246000D01*
X26472700Y-32152814D01*
X26510021Y-32088173D01*
X26538590Y-32038690D01*
X26538590Y-32038688D01*
X26538592Y-32038686D01*
X26572700Y-31911392D01*
X26572700Y-31779608D01*
X26538592Y-31652314D01*
X26538590Y-31652311D01*
X26538590Y-31652309D01*
X26472703Y-31538190D01*
X26472699Y-31538184D01*
X26426696Y-31492181D01*
X26398919Y-31437664D01*
X26397700Y-31422178D01*
X26397700Y-28705634D01*
X26416607Y-28647443D01*
X26466107Y-28611479D01*
X26527293Y-28611479D01*
X26566701Y-28635628D01*
X26809738Y-28878665D01*
X26809740Y-28878666D01*
X26809742Y-28878668D01*
X26883957Y-28921516D01*
X26883955Y-28921516D01*
X26883959Y-28921517D01*
X26883961Y-28921518D01*
X26966747Y-28943700D01*
X26966749Y-28943700D01*
X29704651Y-28943700D01*
X29704653Y-28943700D01*
X29787439Y-28921518D01*
X29787441Y-28921516D01*
X29787443Y-28921516D01*
X29861657Y-28878668D01*
X29861657Y-28878667D01*
X29861662Y-28878665D01*
X30084708Y-28655617D01*
X30139223Y-28627841D01*
X30192594Y-28634157D01*
X30303580Y-28680130D01*
X30506535Y-28720500D01*
X30506536Y-28720500D01*
X30713464Y-28720500D01*
X30713465Y-28720500D01*
X30916420Y-28680130D01*
X31107598Y-28600941D01*
X31279655Y-28485977D01*
X31425977Y-28339655D01*
X31540941Y-28167598D01*
X31620130Y-27976420D01*
X31660500Y-27773465D01*
X31660500Y-27747834D01*
X31679407Y-27689643D01*
X31728907Y-27653679D01*
X31790093Y-27653679D01*
X31829502Y-27677828D01*
X32005511Y-27853837D01*
X32262204Y-28110530D01*
X32289981Y-28165047D01*
X32291200Y-28180534D01*
X32291200Y-31678778D01*
X32272293Y-31736969D01*
X32262204Y-31748781D01*
X32216200Y-31794784D01*
X32216196Y-31794790D01*
X32150309Y-31908909D01*
X32149644Y-31911392D01*
X32116200Y-32036208D01*
X32116200Y-32167992D01*
X32135812Y-32241186D01*
X32150309Y-32295290D01*
X32216196Y-32409409D01*
X32216198Y-32409411D01*
X32216200Y-32409414D01*
X32309386Y-32502600D01*
X32309388Y-32502601D01*
X32309390Y-32502603D01*
X32423510Y-32568490D01*
X32423508Y-32568490D01*
X32423512Y-32568491D01*
X32423514Y-32568492D01*
X32550808Y-32602600D01*
X32550810Y-32602600D01*
X32682590Y-32602600D01*
X32682592Y-32602600D01*
X32809886Y-32568492D01*
X32809888Y-32568490D01*
X32809890Y-32568490D01*
X32924009Y-32502603D01*
X32924009Y-32502602D01*
X32924014Y-32502600D01*
X33017200Y-32409414D01*
X33053812Y-32346000D01*
X33083090Y-32295290D01*
X33083090Y-32295288D01*
X33083092Y-32295286D01*
X33117200Y-32167992D01*
X33117200Y-32036208D01*
X33083092Y-31908914D01*
X33083090Y-31908911D01*
X33083090Y-31908909D01*
X33017203Y-31794790D01*
X33017199Y-31794784D01*
X32971196Y-31748781D01*
X32943419Y-31694264D01*
X32942200Y-31678778D01*
X32942200Y-28055540D01*
X32942201Y-28055527D01*
X32942201Y-27961847D01*
X32942200Y-27961845D01*
X32940231Y-27954496D01*
X32920018Y-27879062D01*
X32905455Y-27853838D01*
X32905455Y-27853837D01*
X32877716Y-27805793D01*
X32877165Y-27804838D01*
X32816562Y-27744235D01*
X32816559Y-27744233D01*
X31211862Y-26139535D01*
X31211859Y-26139533D01*
X31208285Y-26135959D01*
X31180508Y-26081442D01*
X31190079Y-26021010D01*
X31223289Y-25983639D01*
X31249720Y-25965979D01*
X31279655Y-25945977D01*
X31425977Y-25799655D01*
X31540941Y-25627598D01*
X31620130Y-25436420D01*
X31654406Y-25264104D01*
X33416400Y-25264104D01*
X33416400Y-52691595D01*
X33443320Y-52826927D01*
X33443320Y-52826929D01*
X33496122Y-52954406D01*
X33496128Y-52954417D01*
X33572785Y-53069141D01*
X33670358Y-53166714D01*
X33785082Y-53243371D01*
X33785093Y-53243377D01*
X33832183Y-53262882D01*
X33912572Y-53296180D01*
X34047907Y-53323100D01*
X34047908Y-53323100D01*
X34185892Y-53323100D01*
X34185893Y-53323100D01*
X34321228Y-53296180D01*
X34448711Y-53243375D01*
X34563442Y-53166714D01*
X34661014Y-53069142D01*
X34737675Y-52954411D01*
X34790480Y-52826928D01*
X34817400Y-52691593D01*
X34817400Y-25664264D01*
X34836307Y-25606073D01*
X34846390Y-25594266D01*
X35411161Y-25029494D01*
X35465678Y-25001718D01*
X35481165Y-25000499D01*
X36854265Y-25000499D01*
X36860350Y-24999928D01*
X36884698Y-24997646D01*
X36930804Y-24981512D01*
X36991971Y-24980139D01*
X37042266Y-25014983D01*
X37062475Y-25072735D01*
X37062500Y-25074957D01*
X37062500Y-26546465D01*
X37043593Y-26604656D01*
X37033504Y-26616469D01*
X36125769Y-27524204D01*
X36071252Y-27551981D01*
X36055765Y-27553200D01*
X35990708Y-27553200D01*
X35934033Y-27568386D01*
X35863409Y-27587309D01*
X35749290Y-27653196D01*
X35656096Y-27746390D01*
X35590209Y-27860509D01*
X35583698Y-27884809D01*
X35556100Y-27987808D01*
X35556100Y-28119592D01*
X35567760Y-28163107D01*
X35590209Y-28246890D01*
X35656096Y-28361009D01*
X35656098Y-28361011D01*
X35656100Y-28361014D01*
X35749286Y-28454200D01*
X35749288Y-28454201D01*
X35749290Y-28454203D01*
X35863410Y-28520090D01*
X35863408Y-28520090D01*
X35863412Y-28520091D01*
X35863414Y-28520092D01*
X35990708Y-28554200D01*
X35990710Y-28554200D01*
X36122490Y-28554200D01*
X36122492Y-28554200D01*
X36249786Y-28520092D01*
X36249788Y-28520090D01*
X36249790Y-28520090D01*
X36363909Y-28454203D01*
X36363909Y-28454202D01*
X36363914Y-28454200D01*
X36457100Y-28361014D01*
X36513283Y-28263703D01*
X36522990Y-28246890D01*
X36522990Y-28246888D01*
X36522992Y-28246886D01*
X36557100Y-28119592D01*
X36557100Y-28054534D01*
X36576007Y-27996343D01*
X36586090Y-27984536D01*
X37004094Y-27566532D01*
X47339500Y-27566532D01*
X47339500Y-27773467D01*
X47379869Y-27976418D01*
X47459058Y-28167597D01*
X47541834Y-28291481D01*
X47574023Y-28339655D01*
X47720345Y-28485977D01*
X47892402Y-28600941D01*
X48083580Y-28680130D01*
X48286535Y-28720500D01*
X48286536Y-28720500D01*
X48493464Y-28720500D01*
X48493465Y-28720500D01*
X48696420Y-28680130D01*
X48887598Y-28600941D01*
X49059655Y-28485977D01*
X49205977Y-28339655D01*
X49320941Y-28167598D01*
X49400130Y-27976420D01*
X49440500Y-27773465D01*
X49440500Y-27566535D01*
X49400130Y-27363580D01*
X49320941Y-27172402D01*
X49205977Y-27000345D01*
X49059655Y-26854023D01*
X49020453Y-26827829D01*
X48887597Y-26739058D01*
X48696418Y-26659869D01*
X48493467Y-26619500D01*
X48493465Y-26619500D01*
X48286535Y-26619500D01*
X48286532Y-26619500D01*
X48083581Y-26659869D01*
X47892402Y-26739058D01*
X47720348Y-26854020D01*
X47574020Y-27000348D01*
X47459058Y-27172402D01*
X47379869Y-27363581D01*
X47339500Y-27566532D01*
X37004094Y-27566532D01*
X37648465Y-26922162D01*
X37657775Y-26906037D01*
X37691316Y-26847943D01*
X37691316Y-26847941D01*
X37691318Y-26847939D01*
X37713500Y-26765153D01*
X37713500Y-26679447D01*
X37713500Y-23489774D01*
X37949500Y-23489774D01*
X37949500Y-23710225D01*
X37983984Y-23927948D01*
X38052102Y-24137599D01*
X38052104Y-24137602D01*
X38052105Y-24137606D01*
X38083417Y-24199058D01*
X38147162Y-24324165D01*
X38152185Y-24334022D01*
X38281758Y-24512365D01*
X38437635Y-24668242D01*
X38615978Y-24797815D01*
X38812394Y-24897895D01*
X39022049Y-24966015D01*
X39109140Y-24979809D01*
X39239775Y-25000500D01*
X39239778Y-25000500D01*
X39460225Y-25000500D01*
X39569086Y-24983257D01*
X39677951Y-24966015D01*
X39887606Y-24897895D01*
X40084022Y-24797815D01*
X40262365Y-24668242D01*
X40418242Y-24512365D01*
X40547815Y-24334022D01*
X40647895Y-24137606D01*
X40716015Y-23927951D01*
X40733946Y-23814738D01*
X40750500Y-23710225D01*
X40750500Y-23489774D01*
X40716015Y-23272051D01*
X40716015Y-23272049D01*
X40647895Y-23062394D01*
X40547815Y-22865978D01*
X40418242Y-22687635D01*
X40262365Y-22531758D01*
X40084022Y-22402185D01*
X40084021Y-22402184D01*
X40084019Y-22402183D01*
X39994825Y-22356736D01*
X39887606Y-22302105D01*
X39887602Y-22302104D01*
X39887599Y-22302102D01*
X39677948Y-22233984D01*
X39460225Y-22199500D01*
X39460222Y-22199500D01*
X39239778Y-22199500D01*
X39239775Y-22199500D01*
X39022051Y-22233984D01*
X38812400Y-22302102D01*
X38615980Y-22402183D01*
X38559952Y-22442890D01*
X38437635Y-22531758D01*
X38281758Y-22687635D01*
X38221765Y-22770209D01*
X38152183Y-22865980D01*
X38052102Y-23062400D01*
X37983984Y-23272051D01*
X37949500Y-23489774D01*
X37713500Y-23489774D01*
X37713500Y-17789647D01*
X37711339Y-17781582D01*
X37691318Y-17706861D01*
X37686505Y-17698524D01*
X37648468Y-17632642D01*
X37648467Y-17632641D01*
X37648466Y-17632640D01*
X37648465Y-17632638D01*
X36283896Y-16268069D01*
X36256119Y-16213552D01*
X36254900Y-16198065D01*
X36254900Y-16133009D01*
X36254900Y-16133008D01*
X36220792Y-16005714D01*
X36220790Y-16005711D01*
X36220790Y-16005709D01*
X36154903Y-15891590D01*
X36154901Y-15891588D01*
X36154900Y-15891586D01*
X36061714Y-15798400D01*
X36061711Y-15798398D01*
X36061709Y-15798396D01*
X35947589Y-15732509D01*
X35947591Y-15732509D01*
X35898199Y-15719275D01*
X35820292Y-15698400D01*
X35688508Y-15698400D01*
X35610600Y-15719275D01*
X35561209Y-15732509D01*
X35447090Y-15798396D01*
X35353896Y-15891590D01*
X35288009Y-16005709D01*
X35269199Y-16075909D01*
X35253900Y-16133008D01*
X35253900Y-16264792D01*
X35272710Y-16334992D01*
X35288009Y-16392090D01*
X35353896Y-16506209D01*
X35353898Y-16506211D01*
X35353900Y-16506214D01*
X35447086Y-16599400D01*
X35447088Y-16599401D01*
X35447090Y-16599403D01*
X35561210Y-16665290D01*
X35561208Y-16665290D01*
X35561212Y-16665291D01*
X35561214Y-16665292D01*
X35688508Y-16699400D01*
X35753565Y-16699400D01*
X35811756Y-16718307D01*
X35823569Y-16728396D01*
X37033504Y-17938331D01*
X37061281Y-17992848D01*
X37062500Y-18008335D01*
X37062500Y-22125042D01*
X37043593Y-22183233D01*
X36994093Y-22219197D01*
X36932907Y-22219197D01*
X36930831Y-22218496D01*
X36884698Y-22202354D01*
X36884696Y-22202353D01*
X36884694Y-22202353D01*
X36854272Y-22199500D01*
X34845734Y-22199500D01*
X34815305Y-22202353D01*
X34687114Y-22247208D01*
X34577855Y-22327845D01*
X34577845Y-22327855D01*
X34497208Y-22437114D01*
X34479916Y-22486532D01*
X34453195Y-22562900D01*
X34452353Y-22565305D01*
X34449500Y-22595726D01*
X34449500Y-23968834D01*
X34430593Y-24027025D01*
X34420504Y-24038837D01*
X33572785Y-24886557D01*
X33528529Y-24952793D01*
X33528528Y-24952794D01*
X33496128Y-25001281D01*
X33496122Y-25001293D01*
X33443320Y-25128770D01*
X33443320Y-25128772D01*
X33416400Y-25264104D01*
X31654406Y-25264104D01*
X31660500Y-25233465D01*
X31660500Y-25026535D01*
X31620130Y-24823580D01*
X31540941Y-24632402D01*
X31425977Y-24460345D01*
X31279655Y-24314023D01*
X31279651Y-24314020D01*
X31107597Y-24199058D01*
X30916418Y-24119869D01*
X30713467Y-24079500D01*
X30713465Y-24079500D01*
X30506535Y-24079500D01*
X30506532Y-24079500D01*
X30303581Y-24119869D01*
X30112402Y-24199058D01*
X29940348Y-24314020D01*
X29794020Y-24460348D01*
X29737916Y-24544315D01*
X29689866Y-24582195D01*
X29628727Y-24584597D01*
X29577854Y-24550604D01*
X29556676Y-24493201D01*
X29556600Y-24489314D01*
X29556600Y-23230685D01*
X29575507Y-23172494D01*
X29625007Y-23136530D01*
X29686193Y-23136530D01*
X29735693Y-23172494D01*
X29737910Y-23175675D01*
X29743211Y-23183609D01*
X29787237Y-23249500D01*
X29794023Y-23259655D01*
X29940345Y-23405977D01*
X30112402Y-23520941D01*
X30303580Y-23600130D01*
X30506535Y-23640500D01*
X30506536Y-23640500D01*
X30713464Y-23640500D01*
X30713465Y-23640500D01*
X30916420Y-23600130D01*
X31107598Y-23520941D01*
X31279655Y-23405977D01*
X31425977Y-23259655D01*
X31540941Y-23087598D01*
X31620130Y-22896420D01*
X31660500Y-22693465D01*
X31660500Y-22486535D01*
X31620130Y-22283580D01*
X31540941Y-22092402D01*
X31425977Y-21920345D01*
X31279655Y-21774023D01*
X31279651Y-21774020D01*
X31107597Y-21659058D01*
X30916418Y-21579869D01*
X30713467Y-21539500D01*
X30713465Y-21539500D01*
X30506535Y-21539500D01*
X30506532Y-21539500D01*
X30303581Y-21579869D01*
X30112402Y-21659058D01*
X29940348Y-21774020D01*
X29794020Y-21920348D01*
X29737916Y-22004315D01*
X29689866Y-22042195D01*
X29628727Y-22044597D01*
X29577854Y-22010604D01*
X29556676Y-21953201D01*
X29556600Y-21949314D01*
X29556600Y-19905348D01*
X29556600Y-19905347D01*
X29534418Y-19822562D01*
X29534418Y-19822561D01*
X29534418Y-19822560D01*
X29491568Y-19748342D01*
X29491566Y-19748340D01*
X29491565Y-19748338D01*
X27149759Y-17406532D01*
X29559500Y-17406532D01*
X29559500Y-17613467D01*
X29599869Y-17816418D01*
X29679058Y-18007597D01*
X29778427Y-18156314D01*
X29794023Y-18179655D01*
X29940345Y-18325977D01*
X30112402Y-18440941D01*
X30303580Y-18520130D01*
X30506535Y-18560500D01*
X30506536Y-18560500D01*
X30713464Y-18560500D01*
X30713465Y-18560500D01*
X30916420Y-18520130D01*
X31107598Y-18440941D01*
X31279655Y-18325977D01*
X31425977Y-18179655D01*
X31540941Y-18007598D01*
X31620130Y-17816420D01*
X31660500Y-17613465D01*
X31660500Y-17406535D01*
X31620130Y-17203580D01*
X31540941Y-17012402D01*
X31425977Y-16840345D01*
X31279655Y-16694023D01*
X31279651Y-16694020D01*
X31107597Y-16579058D01*
X30916418Y-16499869D01*
X30713467Y-16459500D01*
X30713465Y-16459500D01*
X30506535Y-16459500D01*
X30506532Y-16459500D01*
X30303581Y-16499869D01*
X30112402Y-16579058D01*
X29940348Y-16694020D01*
X29794020Y-16840348D01*
X29679058Y-17012402D01*
X29599869Y-17203581D01*
X29559500Y-17406532D01*
X27149759Y-17406532D01*
X25946435Y-16203208D01*
X27046100Y-16203208D01*
X27046100Y-16334992D01*
X27061398Y-16392086D01*
X27080209Y-16462290D01*
X27146096Y-16576409D01*
X27146098Y-16576411D01*
X27146100Y-16576414D01*
X27239286Y-16669600D01*
X27239288Y-16669601D01*
X27239290Y-16669603D01*
X27353410Y-16735490D01*
X27353408Y-16735490D01*
X27353412Y-16735491D01*
X27353414Y-16735492D01*
X27480708Y-16769600D01*
X27480710Y-16769600D01*
X27612490Y-16769600D01*
X27612492Y-16769600D01*
X27739786Y-16735492D01*
X27739788Y-16735490D01*
X27739790Y-16735490D01*
X27853909Y-16669603D01*
X27853909Y-16669602D01*
X27853914Y-16669600D01*
X27947100Y-16576414D01*
X27991293Y-16499870D01*
X28012990Y-16462290D01*
X28012990Y-16462288D01*
X28012992Y-16462286D01*
X28047100Y-16334992D01*
X28047100Y-16203208D01*
X28012992Y-16075914D01*
X28012990Y-16075911D01*
X28012990Y-16075909D01*
X27947103Y-15961790D01*
X27947099Y-15961784D01*
X27901096Y-15915781D01*
X27873319Y-15861264D01*
X27872100Y-15845778D01*
X27872100Y-15669233D01*
X27891007Y-15611042D01*
X27901090Y-15599235D01*
X28633793Y-14866532D01*
X29559500Y-14866532D01*
X29559500Y-15073467D01*
X29599869Y-15276418D01*
X29679058Y-15467597D01*
X29786386Y-15628226D01*
X29794023Y-15639655D01*
X29940345Y-15785977D01*
X30112402Y-15900941D01*
X30303580Y-15980130D01*
X30506535Y-16020500D01*
X30506536Y-16020500D01*
X30713464Y-16020500D01*
X30713465Y-16020500D01*
X30916420Y-15980130D01*
X31107598Y-15900941D01*
X31279655Y-15785977D01*
X31425977Y-15639655D01*
X31540941Y-15467598D01*
X31620130Y-15276420D01*
X31660500Y-15073465D01*
X31660500Y-14866535D01*
X31660499Y-14866532D01*
X47339500Y-14866532D01*
X47339500Y-15073467D01*
X47379869Y-15276418D01*
X47459058Y-15467597D01*
X47566386Y-15628226D01*
X47574023Y-15639655D01*
X47720345Y-15785977D01*
X47892402Y-15900941D01*
X48083580Y-15980130D01*
X48286535Y-16020500D01*
X48286536Y-16020500D01*
X48493464Y-16020500D01*
X48493465Y-16020500D01*
X48696420Y-15980130D01*
X48887598Y-15900941D01*
X49059655Y-15785977D01*
X49205977Y-15639655D01*
X49320941Y-15467598D01*
X49400130Y-15276420D01*
X49440500Y-15073465D01*
X49440500Y-14866535D01*
X49400130Y-14663580D01*
X49320941Y-14472402D01*
X49205977Y-14300345D01*
X49059655Y-14154023D01*
X48887598Y-14039059D01*
X48887599Y-14039059D01*
X48887597Y-14039058D01*
X48696418Y-13959869D01*
X48493467Y-13919500D01*
X48493465Y-13919500D01*
X48286535Y-13919500D01*
X48286532Y-13919500D01*
X48083581Y-13959869D01*
X47892402Y-14039058D01*
X47720348Y-14154020D01*
X47574020Y-14300348D01*
X47459058Y-14472402D01*
X47379869Y-14663581D01*
X47339500Y-14866532D01*
X31660499Y-14866532D01*
X31620130Y-14663580D01*
X31540941Y-14472402D01*
X31425977Y-14300345D01*
X31279655Y-14154023D01*
X31107598Y-14039059D01*
X31107599Y-14039059D01*
X31107597Y-14039058D01*
X30916418Y-13959869D01*
X30713467Y-13919500D01*
X30713465Y-13919500D01*
X30506535Y-13919500D01*
X30506532Y-13919500D01*
X30303581Y-13959869D01*
X30112402Y-14039058D01*
X29940348Y-14154020D01*
X29794020Y-14300348D01*
X29679058Y-14472402D01*
X29599869Y-14663581D01*
X29559500Y-14866532D01*
X28633793Y-14866532D01*
X30084708Y-13415616D01*
X30139223Y-13387841D01*
X30192593Y-13394157D01*
X30303580Y-13440130D01*
X30506535Y-13480500D01*
X30506536Y-13480500D01*
X30713464Y-13480500D01*
X30713465Y-13480500D01*
X30916420Y-13440130D01*
X31107598Y-13360941D01*
X31279655Y-13245977D01*
X31425977Y-13099655D01*
X31540941Y-12927598D01*
X31620130Y-12736420D01*
X31660500Y-12533465D01*
X31660500Y-12326535D01*
X31660499Y-12326532D01*
X47339500Y-12326532D01*
X47339500Y-12533467D01*
X47379869Y-12736418D01*
X47459058Y-12927597D01*
X47459059Y-12927598D01*
X47574023Y-13099655D01*
X47720345Y-13245977D01*
X47892402Y-13360941D01*
X48083580Y-13440130D01*
X48286535Y-13480500D01*
X48286536Y-13480500D01*
X48493464Y-13480500D01*
X48493465Y-13480500D01*
X48696420Y-13440130D01*
X48887598Y-13360941D01*
X49059655Y-13245977D01*
X49205977Y-13099655D01*
X49320941Y-12927598D01*
X49400130Y-12736420D01*
X49440500Y-12533465D01*
X49440500Y-12326535D01*
X49400130Y-12123580D01*
X49320941Y-11932402D01*
X49205977Y-11760345D01*
X49059655Y-11614023D01*
X48887598Y-11499059D01*
X48887599Y-11499059D01*
X48887597Y-11499058D01*
X48696418Y-11419869D01*
X48493467Y-11379500D01*
X48493465Y-11379500D01*
X48286535Y-11379500D01*
X48286532Y-11379500D01*
X48083581Y-11419869D01*
X47892402Y-11499058D01*
X47720348Y-11614020D01*
X47574020Y-11760348D01*
X47459058Y-11932402D01*
X47379869Y-12123581D01*
X47339500Y-12326532D01*
X31660499Y-12326532D01*
X31620130Y-12123580D01*
X31540941Y-11932402D01*
X31425977Y-11760345D01*
X31279655Y-11614023D01*
X31107598Y-11499059D01*
X31107599Y-11499059D01*
X31107597Y-11499058D01*
X30916418Y-11419869D01*
X30713467Y-11379500D01*
X30713465Y-11379500D01*
X30506535Y-11379500D01*
X30506532Y-11379500D01*
X30303581Y-11419869D01*
X30112402Y-11499058D01*
X29940348Y-11614020D01*
X29794020Y-11760348D01*
X29679058Y-11932402D01*
X29599869Y-12123581D01*
X29559500Y-12326532D01*
X29559500Y-12533467D01*
X29599870Y-12736419D01*
X29599870Y-12736421D01*
X29645840Y-12847403D01*
X29650640Y-12908400D01*
X29624380Y-12955292D01*
X27286132Y-15293541D01*
X27286131Y-15293542D01*
X27243282Y-15367760D01*
X27243281Y-15367760D01*
X27243282Y-15367761D01*
X27221100Y-15450547D01*
X27221100Y-15845778D01*
X27202193Y-15903969D01*
X27192104Y-15915781D01*
X27146100Y-15961784D01*
X27146096Y-15961790D01*
X27080209Y-16075909D01*
X27080208Y-16075914D01*
X27046100Y-16203208D01*
X25946435Y-16203208D01*
X25480162Y-15736935D01*
X25480159Y-15736933D01*
X25480157Y-15736931D01*
X25405942Y-15694083D01*
X25405944Y-15694083D01*
X25373821Y-15685476D01*
X25323153Y-15671900D01*
X25323151Y-15671900D01*
X25147234Y-15671900D01*
X25089043Y-15652993D01*
X25053079Y-15603493D01*
X25053079Y-15542307D01*
X25077228Y-15502898D01*
X25205665Y-15374462D01*
X25209534Y-15367761D01*
X25248516Y-15300243D01*
X25248516Y-15300241D01*
X25248518Y-15300239D01*
X25270700Y-15217453D01*
X25270700Y-15131747D01*
X25270700Y-9786532D01*
X29559500Y-9786532D01*
X29559500Y-9993467D01*
X29599869Y-10196418D01*
X29679058Y-10387597D01*
X29679059Y-10387598D01*
X29794023Y-10559655D01*
X29940345Y-10705977D01*
X30112402Y-10820941D01*
X30303580Y-10900130D01*
X30506535Y-10940500D01*
X30506536Y-10940500D01*
X30713464Y-10940500D01*
X30713465Y-10940500D01*
X30916420Y-10900130D01*
X31107598Y-10820941D01*
X31279655Y-10705977D01*
X31425977Y-10559655D01*
X31540941Y-10387598D01*
X31620130Y-10196420D01*
X31660500Y-9993465D01*
X31660500Y-9786535D01*
X31660499Y-9786532D01*
X47339500Y-9786532D01*
X47339500Y-9993467D01*
X47379869Y-10196418D01*
X47459058Y-10387597D01*
X47459059Y-10387598D01*
X47574023Y-10559655D01*
X47720345Y-10705977D01*
X47892402Y-10820941D01*
X48083580Y-10900130D01*
X48286535Y-10940500D01*
X48286536Y-10940500D01*
X48493464Y-10940500D01*
X48493465Y-10940500D01*
X48696420Y-10900130D01*
X48887598Y-10820941D01*
X49059655Y-10705977D01*
X49205977Y-10559655D01*
X49320941Y-10387598D01*
X49400130Y-10196420D01*
X49440500Y-9993465D01*
X49440500Y-9786535D01*
X49400130Y-9583580D01*
X49320941Y-9392402D01*
X49205977Y-9220345D01*
X49059655Y-9074023D01*
X48887598Y-8959059D01*
X48887599Y-8959059D01*
X48887597Y-8959058D01*
X48696418Y-8879869D01*
X48493467Y-8839500D01*
X48493465Y-8839500D01*
X48286535Y-8839500D01*
X48286532Y-8839500D01*
X48083581Y-8879869D01*
X47892402Y-8959058D01*
X47720348Y-9074020D01*
X47574020Y-9220348D01*
X47459058Y-9392402D01*
X47379869Y-9583581D01*
X47339500Y-9786532D01*
X31660499Y-9786532D01*
X31620130Y-9583580D01*
X31540941Y-9392402D01*
X31425977Y-9220345D01*
X31279655Y-9074023D01*
X31107598Y-8959059D01*
X31107599Y-8959059D01*
X31107597Y-8959058D01*
X30916418Y-8879869D01*
X30713467Y-8839500D01*
X30713465Y-8839500D01*
X30506535Y-8839500D01*
X30506532Y-8839500D01*
X30303581Y-8879869D01*
X30112402Y-8959058D01*
X29940348Y-9074020D01*
X29794020Y-9220348D01*
X29679058Y-9392402D01*
X29599869Y-9583581D01*
X29559500Y-9786532D01*
X25270700Y-9786532D01*
X25270700Y-8919534D01*
X25289607Y-8861343D01*
X25299690Y-8849536D01*
X29390496Y-4758729D01*
X29445013Y-4730953D01*
X29505445Y-4740524D01*
X29548710Y-4783789D01*
X29559500Y-4828734D01*
X29559500Y-4913467D01*
X29599869Y-5116418D01*
X29679058Y-5307597D01*
X29761719Y-5431309D01*
X29794023Y-5479655D01*
X29940345Y-5625977D01*
X30112402Y-5740941D01*
X30303580Y-5820130D01*
X30506535Y-5860500D01*
X30506536Y-5860500D01*
X30713464Y-5860500D01*
X30713465Y-5860500D01*
X30916420Y-5820130D01*
X31107598Y-5740941D01*
X31279655Y-5625977D01*
X31425977Y-5479655D01*
X31540941Y-5307598D01*
X31620130Y-5116420D01*
X31660500Y-4913465D01*
X31660500Y-4706535D01*
X31660499Y-4706532D01*
X47339500Y-4706532D01*
X47339500Y-4913467D01*
X47379869Y-5116418D01*
X47459058Y-5307597D01*
X47541719Y-5431309D01*
X47574023Y-5479655D01*
X47720345Y-5625977D01*
X47892402Y-5740941D01*
X48083580Y-5820130D01*
X48286535Y-5860500D01*
X48286536Y-5860500D01*
X48493464Y-5860500D01*
X48493465Y-5860500D01*
X48696420Y-5820130D01*
X48807402Y-5774158D01*
X48868399Y-5769358D01*
X48915292Y-5795619D01*
X56192804Y-13073131D01*
X56220581Y-13127648D01*
X56221800Y-13143135D01*
X56221800Y-16021178D01*
X56202893Y-16079369D01*
X56192804Y-16091181D01*
X56146800Y-16137184D01*
X56146796Y-16137190D01*
X56080909Y-16251309D01*
X56064068Y-16314163D01*
X56046800Y-16378608D01*
X56046800Y-16510392D01*
X56070650Y-16599403D01*
X56080909Y-16637690D01*
X56146796Y-16751809D01*
X56146798Y-16751811D01*
X56146800Y-16751814D01*
X56239986Y-16845000D01*
X56239988Y-16845001D01*
X56239990Y-16845003D01*
X56354110Y-16910890D01*
X56354108Y-16910890D01*
X56354112Y-16910891D01*
X56354114Y-16910892D01*
X56481408Y-16945000D01*
X56481410Y-16945000D01*
X56613190Y-16945000D01*
X56613192Y-16945000D01*
X56740486Y-16910892D01*
X56740488Y-16910890D01*
X56740490Y-16910890D01*
X56854609Y-16845003D01*
X56854609Y-16845002D01*
X56854614Y-16845000D01*
X56947800Y-16751814D01*
X56957225Y-16735490D01*
X57013690Y-16637690D01*
X57013690Y-16637688D01*
X57013692Y-16637686D01*
X57047800Y-16510392D01*
X57047800Y-16378608D01*
X57013692Y-16251314D01*
X57013690Y-16251311D01*
X57013690Y-16251309D01*
X56947803Y-16137190D01*
X56947799Y-16137184D01*
X56901796Y-16091181D01*
X56874019Y-16036664D01*
X56872800Y-16021178D01*
X56872800Y-12924448D01*
X56872800Y-12924447D01*
X56850618Y-12841662D01*
X56807765Y-12767438D01*
X56807762Y-12767435D01*
X56747162Y-12706834D01*
X56747162Y-12706835D01*
X49375619Y-5335292D01*
X49347842Y-5280775D01*
X49354159Y-5227402D01*
X49365716Y-5199501D01*
X49400130Y-5116420D01*
X49440500Y-4913465D01*
X49440500Y-4706535D01*
X49400130Y-4503580D01*
X49320941Y-4312402D01*
X49205977Y-4140345D01*
X49059655Y-3994023D01*
X49059651Y-3994020D01*
X48887597Y-3879058D01*
X48696418Y-3799869D01*
X48493467Y-3759500D01*
X48493465Y-3759500D01*
X48286535Y-3759500D01*
X48286532Y-3759500D01*
X48083581Y-3799869D01*
X47892402Y-3879058D01*
X47720348Y-3994020D01*
X47574020Y-4140348D01*
X47459058Y-4312402D01*
X47379869Y-4503581D01*
X47339500Y-4706532D01*
X31660499Y-4706532D01*
X31620130Y-4503580D01*
X31540941Y-4312402D01*
X31425977Y-4140345D01*
X31279655Y-3994023D01*
X31279651Y-3994020D01*
X31107597Y-3879058D01*
X31000754Y-3834802D01*
X30916420Y-3799870D01*
X30916417Y-3799869D01*
X30911926Y-3798009D01*
X30912858Y-3795758D01*
X30870365Y-3766106D01*
X30850353Y-3708286D01*
X30867379Y-3652273D01*
X30867220Y-3652181D01*
X30867616Y-3651493D01*
X30868148Y-3649746D01*
X30870409Y-3646657D01*
X30870462Y-3646564D01*
X30870465Y-3646562D01*
X30913318Y-3572338D01*
X30935500Y-3489553D01*
X30935500Y-3419500D01*
X30954407Y-3361309D01*
X31003907Y-3325345D01*
X31034500Y-3320500D01*
X31479747Y-3320500D01*
X31479748Y-3320500D01*
X31538231Y-3308867D01*
X31604552Y-3264552D01*
X31648867Y-3198231D01*
X31660500Y-3139748D01*
X31660500Y-2166532D01*
X47339500Y-2166532D01*
X47339500Y-2373467D01*
X47379869Y-2576418D01*
X47459058Y-2767597D01*
X47574020Y-2939651D01*
X47574023Y-2939655D01*
X47720345Y-3085977D01*
X47892402Y-3200941D01*
X48083580Y-3280130D01*
X48286535Y-3320500D01*
X48286536Y-3320500D01*
X48493464Y-3320500D01*
X48493465Y-3320500D01*
X48696420Y-3280130D01*
X48887598Y-3200941D01*
X49059655Y-3085977D01*
X49205977Y-2939655D01*
X49288728Y-2815808D01*
X51979700Y-2815808D01*
X51979700Y-2947592D01*
X51992941Y-2997007D01*
X52013809Y-3074890D01*
X52079696Y-3189009D01*
X52079698Y-3189011D01*
X52079700Y-3189014D01*
X52172886Y-3282200D01*
X52172888Y-3282201D01*
X52172890Y-3282203D01*
X52287010Y-3348090D01*
X52287008Y-3348090D01*
X52287012Y-3348091D01*
X52287014Y-3348092D01*
X52414308Y-3382200D01*
X52414310Y-3382200D01*
X52546090Y-3382200D01*
X52546092Y-3382200D01*
X52673386Y-3348092D01*
X52673388Y-3348090D01*
X52673390Y-3348090D01*
X52787509Y-3282203D01*
X52787510Y-3282202D01*
X52787514Y-3282200D01*
X52805166Y-3264548D01*
X52833519Y-3236196D01*
X52888036Y-3208419D01*
X52903522Y-3207200D01*
X53064265Y-3207200D01*
X53122456Y-3226107D01*
X53134269Y-3236196D01*
X54210475Y-4312402D01*
X54942136Y-5044062D01*
X54969913Y-5098579D01*
X54960342Y-5159011D01*
X54917077Y-5202276D01*
X54856645Y-5211847D01*
X54839436Y-5207511D01*
X54824695Y-5202353D01*
X54794272Y-5199500D01*
X52785734Y-5199500D01*
X52755305Y-5202353D01*
X52627114Y-5247208D01*
X52517855Y-5327845D01*
X52517845Y-5327855D01*
X52437208Y-5437114D01*
X52392353Y-5565305D01*
X52389500Y-5595726D01*
X52389500Y-7604265D01*
X52392353Y-7634694D01*
X52437208Y-7762885D01*
X52517845Y-7872144D01*
X52517847Y-7872146D01*
X52517850Y-7872150D01*
X52517853Y-7872152D01*
X52517855Y-7872154D01*
X52627114Y-7952791D01*
X52627116Y-7952791D01*
X52627118Y-7952793D01*
X52755302Y-7997646D01*
X52785735Y-8000500D01*
X54794264Y-8000499D01*
X54794265Y-8000499D01*
X54800350Y-7999928D01*
X54824698Y-7997646D01*
X54952882Y-7952793D01*
X55062150Y-7872150D01*
X55142793Y-7762882D01*
X55187646Y-7634698D01*
X55190500Y-7604265D01*
X55190499Y-5700771D01*
X55209406Y-5642581D01*
X55258906Y-5606617D01*
X55320092Y-5606617D01*
X55369592Y-5642581D01*
X55385126Y-5675150D01*
X55389209Y-5690389D01*
X55455096Y-5804509D01*
X55455098Y-5804511D01*
X55455100Y-5804514D01*
X55548286Y-5897700D01*
X55548288Y-5897701D01*
X55548290Y-5897703D01*
X55662410Y-5963590D01*
X55662408Y-5963590D01*
X55662412Y-5963591D01*
X55662414Y-5963592D01*
X55789708Y-5997700D01*
X55789710Y-5997700D01*
X55921490Y-5997700D01*
X55921492Y-5997700D01*
X56048786Y-5963592D01*
X56048788Y-5963590D01*
X56048790Y-5963590D01*
X56162909Y-5897703D01*
X56162909Y-5897702D01*
X56162914Y-5897700D01*
X56256100Y-5804514D01*
X56273626Y-5774159D01*
X56321990Y-5690390D01*
X56321990Y-5690388D01*
X56321992Y-5690386D01*
X56356100Y-5563092D01*
X56356100Y-5431308D01*
X56321992Y-5304014D01*
X56321990Y-5304011D01*
X56321990Y-5304009D01*
X56256103Y-5189890D01*
X56256101Y-5189888D01*
X56256100Y-5189886D01*
X56162914Y-5096700D01*
X56162911Y-5096698D01*
X56162909Y-5096696D01*
X56048789Y-5030809D01*
X56048791Y-5030809D01*
X55999399Y-5017575D01*
X55921492Y-4996700D01*
X55921490Y-4996700D01*
X55856434Y-4996700D01*
X55798243Y-4977793D01*
X55786430Y-4967704D01*
X54697436Y-3878710D01*
X69149500Y-3878710D01*
X69149500Y-4121289D01*
X69181161Y-4361781D01*
X69181161Y-4361786D01*
X69243944Y-4596092D01*
X69243948Y-4596105D01*
X69336772Y-4820204D01*
X69336774Y-4820208D01*
X69336776Y-4820212D01*
X69458064Y-5030289D01*
X69458066Y-5030292D01*
X69605729Y-5222731D01*
X69605731Y-5222733D01*
X69605735Y-5222738D01*
X69777262Y-5394265D01*
X69777266Y-5394268D01*
X69777268Y-5394270D01*
X69969707Y-5541933D01*
X69969711Y-5541936D01*
X70179788Y-5663224D01*
X70403900Y-5756054D01*
X70638211Y-5818838D01*
X70878712Y-5850500D01*
X70878713Y-5850500D01*
X71121287Y-5850500D01*
X71121288Y-5850500D01*
X71361789Y-5818838D01*
X71596100Y-5756054D01*
X71820212Y-5663224D01*
X72030289Y-5541936D01*
X72222738Y-5394265D01*
X72394265Y-5222738D01*
X72541936Y-5030289D01*
X72663224Y-4820212D01*
X72756054Y-4596100D01*
X72818838Y-4361789D01*
X72850500Y-4121288D01*
X72850500Y-3878712D01*
X72818838Y-3638211D01*
X72756054Y-3403900D01*
X72667046Y-3189014D01*
X72663227Y-3179795D01*
X72663226Y-3179794D01*
X72663224Y-3179788D01*
X72541936Y-2969711D01*
X72423843Y-2815809D01*
X72394270Y-2777268D01*
X72394268Y-2777266D01*
X72394265Y-2777262D01*
X72222738Y-2605735D01*
X72222733Y-2605731D01*
X72222731Y-2605729D01*
X72030292Y-2458066D01*
X72030289Y-2458064D01*
X71820212Y-2336776D01*
X71820208Y-2336774D01*
X71820204Y-2336772D01*
X71596105Y-2243948D01*
X71596104Y-2243947D01*
X71596100Y-2243946D01*
X71361789Y-2181162D01*
X71361786Y-2181161D01*
X71361784Y-2181161D01*
X71121289Y-2149500D01*
X71121288Y-2149500D01*
X70878712Y-2149500D01*
X70878710Y-2149500D01*
X70638218Y-2181161D01*
X70638213Y-2181161D01*
X70403907Y-2243944D01*
X70403894Y-2243948D01*
X70179795Y-2336772D01*
X69969707Y-2458066D01*
X69777268Y-2605729D01*
X69605729Y-2777268D01*
X69458066Y-2969707D01*
X69336772Y-3179795D01*
X69243948Y-3403894D01*
X69243944Y-3403907D01*
X69181161Y-3638213D01*
X69181161Y-3638218D01*
X69149500Y-3878710D01*
X54697436Y-3878710D01*
X54662326Y-3843600D01*
X53439962Y-2621235D01*
X53439959Y-2621233D01*
X53439957Y-2621231D01*
X53365742Y-2578383D01*
X53365744Y-2578383D01*
X53333621Y-2569776D01*
X53282953Y-2556200D01*
X53282951Y-2556200D01*
X52903522Y-2556200D01*
X52845331Y-2537293D01*
X52833519Y-2527204D01*
X52787515Y-2481200D01*
X52787509Y-2481196D01*
X52673389Y-2415309D01*
X52673391Y-2415309D01*
X52601752Y-2396114D01*
X52546092Y-2381200D01*
X52414308Y-2381200D01*
X52358648Y-2396114D01*
X52287009Y-2415309D01*
X52172890Y-2481196D01*
X52079696Y-2574390D01*
X52013809Y-2688509D01*
X52009472Y-2704695D01*
X51979700Y-2815808D01*
X49288728Y-2815808D01*
X49320941Y-2767598D01*
X49400130Y-2576420D01*
X49440500Y-2373465D01*
X49440500Y-2166535D01*
X49400130Y-1963580D01*
X49320941Y-1772402D01*
X49205977Y-1600345D01*
X49059655Y-1454023D01*
X48979182Y-1400253D01*
X48887597Y-1339058D01*
X48696418Y-1259869D01*
X48493467Y-1219500D01*
X48493465Y-1219500D01*
X48286535Y-1219500D01*
X48286532Y-1219500D01*
X48083581Y-1259869D01*
X47892402Y-1339058D01*
X47720348Y-1454020D01*
X47574020Y-1600348D01*
X47459058Y-1772402D01*
X47379869Y-1963581D01*
X47339500Y-2166532D01*
X31660500Y-2166532D01*
X31660500Y-1400252D01*
X31648867Y-1341769D01*
X31604552Y-1275448D01*
X31604548Y-1275445D01*
X31538233Y-1231134D01*
X31538231Y-1231133D01*
X31538228Y-1231132D01*
X31538227Y-1231132D01*
X31479758Y-1219501D01*
X31479748Y-1219500D01*
X29740252Y-1219500D01*
X29740251Y-1219500D01*
X29740241Y-1219501D01*
X29681772Y-1231132D01*
X29681766Y-1231134D01*
X29615451Y-1275445D01*
X29615445Y-1275451D01*
X29571134Y-1341766D01*
X29571132Y-1341772D01*
X29559501Y-1400241D01*
X29559500Y-1400253D01*
X29559500Y-3139746D01*
X29559501Y-3139758D01*
X29571132Y-3198227D01*
X29571134Y-3198233D01*
X29615445Y-3264548D01*
X29615448Y-3264552D01*
X29681769Y-3308867D01*
X29698572Y-3312209D01*
X29751955Y-3342103D01*
X29777572Y-3397668D01*
X29765636Y-3457678D01*
X29749262Y-3479310D01*
X24684732Y-8543841D01*
X24684731Y-8543842D01*
X24641882Y-8618060D01*
X24641881Y-8618060D01*
X24641882Y-8618061D01*
X24619700Y-8700847D01*
X24619700Y-14998765D01*
X24600793Y-15056956D01*
X24590704Y-15068769D01*
X22381434Y-17278039D01*
X22338580Y-17352264D01*
X22338579Y-17352266D01*
X22330451Y-17382606D01*
X22330451Y-17382607D01*
X22316399Y-17435050D01*
X22315988Y-17438172D01*
X22315018Y-17440204D01*
X22314721Y-17441314D01*
X22314515Y-17441258D01*
X22289642Y-17493394D01*
X22287841Y-17495243D01*
X22241401Y-17541684D01*
X22241396Y-17541690D01*
X22175509Y-17655809D01*
X22167848Y-17684400D01*
X22141400Y-17783108D01*
X22141400Y-17914892D01*
X22149173Y-17943901D01*
X22175509Y-18042190D01*
X22241396Y-18156309D01*
X22241398Y-18156311D01*
X22241400Y-18156314D01*
X22334586Y-18249500D01*
X22334588Y-18249501D01*
X22334590Y-18249503D01*
X22448710Y-18315390D01*
X22448711Y-18315391D01*
X22448713Y-18315391D01*
X22448714Y-18315392D01*
X22472102Y-18321658D01*
X22523416Y-18354981D01*
X22545344Y-18412102D01*
X22529509Y-18471203D01*
X22516484Y-18487289D01*
X20947669Y-20056104D01*
X20893152Y-20083881D01*
X20877665Y-20085100D01*
X19372822Y-20085100D01*
X19314631Y-20066193D01*
X19302819Y-20056104D01*
X19256815Y-20010100D01*
X19256809Y-20010096D01*
X19142689Y-19944209D01*
X19142691Y-19944209D01*
X19093299Y-19930975D01*
X19015392Y-19910100D01*
X18883608Y-19910100D01*
X18805700Y-19930975D01*
X18756309Y-19944209D01*
X18642190Y-20010096D01*
X18548996Y-20103290D01*
X18483109Y-20217409D01*
X18483108Y-20217414D01*
X18449000Y-20344708D01*
X18449000Y-20476492D01*
X18473291Y-20567147D01*
X18483109Y-20603790D01*
X18548996Y-20717909D01*
X18548998Y-20717911D01*
X18549000Y-20717914D01*
X18642186Y-20811100D01*
X18642188Y-20811101D01*
X18642190Y-20811103D01*
X18756310Y-20876990D01*
X18756308Y-20876990D01*
X18756312Y-20876991D01*
X18756314Y-20876992D01*
X18883608Y-20911100D01*
X18883610Y-20911100D01*
X19015390Y-20911100D01*
X19015392Y-20911100D01*
X19142686Y-20876992D01*
X19142688Y-20876990D01*
X19142690Y-20876990D01*
X19256809Y-20811103D01*
X19256810Y-20811102D01*
X19256814Y-20811100D01*
X19256815Y-20811099D01*
X19302819Y-20765096D01*
X19357336Y-20737319D01*
X19372822Y-20736100D01*
X21096351Y-20736100D01*
X21096353Y-20736100D01*
X21179139Y-20713918D01*
X21179141Y-20713916D01*
X21179143Y-20713916D01*
X21253357Y-20671068D01*
X21253357Y-20671067D01*
X21253362Y-20671065D01*
X23799683Y-18124741D01*
X23854198Y-18096966D01*
X23914630Y-18106537D01*
X23957895Y-18149802D01*
X23965312Y-18169124D01*
X23994509Y-18278090D01*
X24060396Y-18392209D01*
X24060398Y-18392211D01*
X24060400Y-18392214D01*
X24106405Y-18438219D01*
X24134181Y-18492734D01*
X24135400Y-18508221D01*
X24135400Y-20712165D01*
X24116493Y-20770356D01*
X24106404Y-20782169D01*
X22363969Y-22524604D01*
X22309452Y-22552381D01*
X22293965Y-22553600D01*
X22228908Y-22553600D01*
X22151000Y-22574475D01*
X22101609Y-22587709D01*
X21987490Y-22653596D01*
X21894296Y-22746790D01*
X21828409Y-22860909D01*
X21811711Y-22923227D01*
X21794300Y-22988208D01*
X21794300Y-23119992D01*
X21811346Y-23183608D01*
X21828409Y-23247290D01*
X21894296Y-23361409D01*
X21894298Y-23361411D01*
X21894300Y-23361414D01*
X21987486Y-23454600D01*
X21987488Y-23454601D01*
X21987490Y-23454603D01*
X22101610Y-23520490D01*
X22101608Y-23520490D01*
X22101612Y-23520491D01*
X22101614Y-23520492D01*
X22228908Y-23554600D01*
X22228910Y-23554600D01*
X22360690Y-23554600D01*
X22360692Y-23554600D01*
X22487986Y-23520492D01*
X22487988Y-23520490D01*
X22487990Y-23520490D01*
X22602109Y-23454603D01*
X22602109Y-23454602D01*
X22602114Y-23454600D01*
X22695300Y-23361414D01*
X22706808Y-23341482D01*
X22761190Y-23247290D01*
X22761190Y-23247288D01*
X22761192Y-23247286D01*
X22795300Y-23119992D01*
X22795300Y-23054934D01*
X22814207Y-22996743D01*
X22824290Y-22984936D01*
X24721365Y-21087862D01*
X24748000Y-21041730D01*
X24764216Y-21013643D01*
X24764216Y-21013641D01*
X24764218Y-21013639D01*
X24786400Y-20930853D01*
X24786400Y-20845147D01*
X24786400Y-18508221D01*
X24805307Y-18450030D01*
X24815390Y-18438223D01*
X24861400Y-18392214D01*
X24902136Y-18321658D01*
X24927290Y-18278090D01*
X24927290Y-18278088D01*
X24927292Y-18278086D01*
X24961400Y-18150792D01*
X24961400Y-18019008D01*
X24927292Y-17891714D01*
X24927290Y-17891711D01*
X24927290Y-17891709D01*
X24861403Y-17777590D01*
X24861401Y-17777588D01*
X24861400Y-17777586D01*
X24768214Y-17684400D01*
X24768211Y-17684398D01*
X24768209Y-17684396D01*
X24654089Y-17618509D01*
X24654090Y-17618509D01*
X24545124Y-17589312D01*
X24493809Y-17555988D01*
X24471883Y-17498866D01*
X24487719Y-17439766D01*
X24500738Y-17423686D01*
X24592259Y-17332166D01*
X24592262Y-17332165D01*
X24652865Y-17271562D01*
X24695718Y-17197338D01*
X24699158Y-17184500D01*
X24705128Y-17162216D01*
X24738451Y-17110905D01*
X24795572Y-17088978D01*
X24826370Y-17092214D01*
X24953208Y-17126200D01*
X25018265Y-17126200D01*
X25076456Y-17145107D01*
X25088269Y-17155196D01*
X28249904Y-20316831D01*
X28277681Y-20371348D01*
X28278900Y-20386835D01*
X28278900Y-23941378D01*
X28259993Y-23999569D01*
X28249904Y-24011381D01*
X28203900Y-24057384D01*
X28203896Y-24057390D01*
X28138009Y-24171509D01*
X28130627Y-24199059D01*
X28103900Y-24298808D01*
X28103900Y-24430592D01*
X28125811Y-24512365D01*
X28138009Y-24557890D01*
X28203896Y-24672009D01*
X28203898Y-24672011D01*
X28203900Y-24672014D01*
X28297086Y-24765200D01*
X28297088Y-24765201D01*
X28297090Y-24765203D01*
X28411210Y-24831090D01*
X28411208Y-24831090D01*
X28411212Y-24831091D01*
X28411214Y-24831092D01*
X28538508Y-24865200D01*
X28538510Y-24865200D01*
X28670290Y-24865200D01*
X28670292Y-24865200D01*
X28780981Y-24835541D01*
X28842078Y-24838743D01*
X28889628Y-24877248D01*
X28905600Y-24931168D01*
X28905600Y-25413147D01*
X28905600Y-25498853D01*
X28925162Y-25571863D01*
X28927783Y-25581643D01*
X28970631Y-25655857D01*
X28970633Y-25655859D01*
X28970635Y-25655862D01*
X29914633Y-26599859D01*
X29914635Y-26599862D01*
X29975238Y-26660465D01*
X29975240Y-26660466D01*
X29975244Y-26660470D01*
X29980384Y-26664414D01*
X29979389Y-26665710D01*
X30014987Y-26705247D01*
X30021382Y-26766097D01*
X29990789Y-26819085D01*
X29979547Y-26827829D01*
X29940348Y-26854020D01*
X29794020Y-27000348D01*
X29679058Y-27172402D01*
X29599869Y-27363581D01*
X29559500Y-27566532D01*
X29559500Y-27773467D01*
X29585329Y-27903316D01*
X29596971Y-27961848D01*
X29599870Y-27976419D01*
X29599870Y-27976421D01*
X29645840Y-28087403D01*
X29650640Y-28148400D01*
X29624380Y-28195291D01*
X29555968Y-28263704D01*
X29501454Y-28291481D01*
X29485966Y-28292700D01*
X27826748Y-28292700D01*
X27768557Y-28273793D01*
X27732593Y-28224293D01*
X27732593Y-28163107D01*
X27741009Y-28144205D01*
X27741189Y-28143891D01*
X27741190Y-28143891D01*
X27741190Y-28143888D01*
X27741192Y-28143886D01*
X27775300Y-28016592D01*
X27775300Y-27884808D01*
X27741192Y-27757514D01*
X27741190Y-27757511D01*
X27741190Y-27757509D01*
X27675303Y-27643390D01*
X27675299Y-27643384D01*
X27629296Y-27597381D01*
X27601519Y-27542864D01*
X27600300Y-27527378D01*
X27600300Y-24477148D01*
X27600300Y-24477147D01*
X27587826Y-24430590D01*
X27586619Y-24426086D01*
X27586619Y-24426085D01*
X27578118Y-24394361D01*
X27578116Y-24394357D01*
X27535268Y-24320142D01*
X27535267Y-24320141D01*
X27535266Y-24320140D01*
X27535265Y-24320138D01*
X25533996Y-22318869D01*
X25506219Y-22264352D01*
X25505000Y-22248865D01*
X25505000Y-22183809D01*
X25504846Y-22183233D01*
X25470892Y-22056514D01*
X25470890Y-22056511D01*
X25470890Y-22056509D01*
X25405003Y-21942390D01*
X25405001Y-21942388D01*
X25405000Y-21942386D01*
X25311814Y-21849200D01*
X25311811Y-21849198D01*
X25311809Y-21849196D01*
X25197689Y-21783309D01*
X25197691Y-21783309D01*
X25148299Y-21770075D01*
X25070392Y-21749200D01*
X24938608Y-21749200D01*
X24860700Y-21770075D01*
X24811309Y-21783309D01*
X24697190Y-21849196D01*
X24603996Y-21942390D01*
X24538109Y-22056509D01*
X24528492Y-22092402D01*
X24504000Y-22183808D01*
X24504000Y-22315592D01*
X24507286Y-22327855D01*
X24538109Y-22442890D01*
X24603996Y-22557009D01*
X24603998Y-22557011D01*
X24604000Y-22557014D01*
X24697186Y-22650200D01*
X24697188Y-22650201D01*
X24697190Y-22650203D01*
X24811310Y-22716090D01*
X24811308Y-22716090D01*
X24811312Y-22716091D01*
X24811314Y-22716092D01*
X24938608Y-22750200D01*
X25003665Y-22750200D01*
X25061856Y-22769107D01*
X25073669Y-22779196D01*
X25444769Y-23150296D01*
X25472546Y-23204813D01*
X25462975Y-23265245D01*
X25419710Y-23308510D01*
X25374765Y-23319300D01*
X25031353Y-23319300D01*
X24945647Y-23319300D01*
X24894978Y-23332876D01*
X24862856Y-23341483D01*
X24788642Y-23384331D01*
X24360834Y-23812139D01*
X24317980Y-23886364D01*
X24317979Y-23886366D01*
X24310071Y-23915885D01*
X24310071Y-23915886D01*
X24295800Y-23969147D01*
X24295800Y-24004365D01*
X24276893Y-24062556D01*
X24266804Y-24074369D01*
X23533703Y-24807469D01*
X23479186Y-24835246D01*
X23418754Y-24825675D01*
X23375489Y-24782410D01*
X23368074Y-24763092D01*
X23366392Y-24756814D01*
X23366389Y-24756808D01*
X23300503Y-24642690D01*
X23300499Y-24642685D01*
X23229813Y-24571998D01*
X23204189Y-24527612D01*
X23203319Y-24524365D01*
X23203318Y-24524364D01*
X23203318Y-24524362D01*
X23160465Y-24450138D01*
X23135827Y-24425500D01*
X23099862Y-24389534D01*
X23099862Y-24389535D01*
X22549862Y-23839535D01*
X22549859Y-23839533D01*
X22549858Y-23839532D01*
X22549857Y-23839531D01*
X22475642Y-23796683D01*
X22475644Y-23796683D01*
X22430495Y-23784586D01*
X22392853Y-23774500D01*
X22392851Y-23774500D01*
X18103322Y-23774500D01*
X18045131Y-23755593D01*
X18033319Y-23745504D01*
X17987315Y-23699500D01*
X17987309Y-23699496D01*
X17873189Y-23633609D01*
X17873191Y-23633609D01*
X17813129Y-23617516D01*
X17745892Y-23599500D01*
X17614108Y-23599500D01*
X17546871Y-23617516D01*
X17486809Y-23633609D01*
X17372690Y-23699496D01*
X17279496Y-23792690D01*
X17213609Y-23906809D01*
X17207945Y-23927948D01*
X17179500Y-24034108D01*
X17179500Y-24165892D01*
X17186076Y-24190434D01*
X17213609Y-24293190D01*
X17279496Y-24407309D01*
X17279498Y-24407311D01*
X17279500Y-24407314D01*
X17372686Y-24500500D01*
X17372688Y-24500501D01*
X17372690Y-24500503D01*
X17486810Y-24566390D01*
X17486808Y-24566390D01*
X17486812Y-24566391D01*
X17486814Y-24566392D01*
X17614108Y-24600500D01*
X17614110Y-24600500D01*
X17745890Y-24600500D01*
X17745892Y-24600500D01*
X17873186Y-24566392D01*
X17873188Y-24566390D01*
X17873190Y-24566390D01*
X17987309Y-24500503D01*
X17987310Y-24500502D01*
X17987314Y-24500500D01*
X17998500Y-24489314D01*
X18033319Y-24454496D01*
X18087836Y-24426719D01*
X18103322Y-24425500D01*
X22174165Y-24425500D01*
X22232356Y-24444407D01*
X22244169Y-24454496D01*
X22421209Y-24631536D01*
X22448986Y-24686053D01*
X22439415Y-24746485D01*
X22436947Y-24751029D01*
X22433608Y-24756814D01*
X22402118Y-24874338D01*
X22399500Y-24884109D01*
X22399500Y-24949165D01*
X22380593Y-25007356D01*
X22370504Y-25019169D01*
X19968553Y-27421119D01*
X19914036Y-27448896D01*
X19853604Y-27439325D01*
X19812814Y-27400617D01*
X19750500Y-27292686D01*
X19657314Y-27199500D01*
X19657311Y-27199498D01*
X19657309Y-27199496D01*
X19543189Y-27133609D01*
X19543191Y-27133609D01*
X19493799Y-27120375D01*
X19415892Y-27099500D01*
X19284108Y-27099500D01*
X19206200Y-27120375D01*
X19156809Y-27133609D01*
X19042690Y-27199496D01*
X19042684Y-27199500D01*
X18996681Y-27245504D01*
X18942164Y-27273281D01*
X18926678Y-27274500D01*
X18155835Y-27274500D01*
X18097644Y-27255593D01*
X18085831Y-27245504D01*
X15234496Y-24394169D01*
X15206719Y-24339652D01*
X15205500Y-24324165D01*
X15205500Y-24073321D01*
X15224407Y-24015130D01*
X15234490Y-24003323D01*
X15280500Y-23957314D01*
X15280501Y-23957311D01*
X15283317Y-23954496D01*
X15337834Y-23926719D01*
X15353321Y-23925500D01*
X16352850Y-23925500D01*
X16352852Y-23925500D01*
X16435638Y-23903318D01*
X16435640Y-23903316D01*
X16435642Y-23903316D01*
X16509856Y-23860468D01*
X16509856Y-23860467D01*
X16509861Y-23860465D01*
X17990465Y-22379862D01*
X17990468Y-22379857D01*
X18033316Y-22305643D01*
X18033316Y-22305641D01*
X18033318Y-22305639D01*
X18055500Y-22222853D01*
X18055500Y-22137147D01*
X18055500Y-20660840D01*
X18055501Y-20660827D01*
X18055501Y-20567146D01*
X18055500Y-20567144D01*
X18033320Y-20484368D01*
X18033319Y-20484365D01*
X18033318Y-20484362D01*
X18024946Y-20469862D01*
X17990465Y-20410138D01*
X17929862Y-20349535D01*
X17929859Y-20349533D01*
X17920329Y-20340003D01*
X17892552Y-20285486D01*
X17902123Y-20225054D01*
X17920323Y-20200002D01*
X21430465Y-16689861D01*
X21460586Y-16637690D01*
X21473316Y-16615642D01*
X21473316Y-16615640D01*
X21473318Y-16615638D01*
X21495500Y-16532852D01*
X21495500Y-16447146D01*
X21495500Y-4835833D01*
X21514407Y-4777642D01*
X21524490Y-4765835D01*
X22444859Y-3845466D01*
X22444862Y-3845465D01*
X22505465Y-3784862D01*
X22548318Y-3710638D01*
X22549249Y-3707165D01*
X22570501Y-3627852D01*
X22570501Y-3549500D01*
X22589408Y-3491309D01*
X22638908Y-3455345D01*
X22669501Y-3450500D01*
X23519747Y-3450500D01*
X23519748Y-3450500D01*
X23578231Y-3438867D01*
X23644552Y-3394552D01*
X23688867Y-3328231D01*
X23700500Y-3269748D01*
X23700500Y-2230252D01*
X23688867Y-2171769D01*
X23644552Y-2105448D01*
X23644548Y-2105445D01*
X23578233Y-2061134D01*
X23578231Y-2061133D01*
X23578228Y-2061132D01*
X23578227Y-2061132D01*
X23519758Y-2049501D01*
X23519748Y-2049500D01*
X20970252Y-2049500D01*
X20970251Y-2049500D01*
X20970241Y-2049501D01*
X20911772Y-2061132D01*
X20911766Y-2061134D01*
X20845451Y-2105445D01*
X20845445Y-2105451D01*
X20801134Y-2171766D01*
X20801132Y-2171772D01*
X20789501Y-2230241D01*
X20789500Y-2230253D01*
X20789500Y-3269746D01*
X20789501Y-3269758D01*
X20801132Y-3328227D01*
X20801134Y-3328233D01*
X20845445Y-3394548D01*
X20845448Y-3394552D01*
X20911769Y-3438867D01*
X20956231Y-3447711D01*
X20970241Y-3450498D01*
X20970246Y-3450498D01*
X20970252Y-3450500D01*
X21680166Y-3450500D01*
X21738357Y-3469407D01*
X21774321Y-3518907D01*
X21774321Y-3580093D01*
X21750170Y-3619503D01*
X21248386Y-4121287D01*
X20909532Y-4460141D01*
X20909531Y-4460142D01*
X20866683Y-4534357D01*
X20866682Y-4534358D01*
X20862615Y-4549538D01*
X20844500Y-4617147D01*
X20844500Y-16314163D01*
X20825593Y-16372354D01*
X20815504Y-16384167D01*
X17460002Y-19739668D01*
X17405485Y-19767445D01*
X17345053Y-19757874D01*
X17319997Y-19739670D01*
X16360962Y-18780635D01*
X16360959Y-18780633D01*
X16360957Y-18780631D01*
X16286742Y-18737783D01*
X16286744Y-18737783D01*
X16254621Y-18729176D01*
X16203953Y-18715600D01*
X11703953Y-18715600D01*
X11618247Y-18715600D01*
X11567578Y-18729176D01*
X11535456Y-18737783D01*
X11461242Y-18780631D01*
X7807969Y-22433904D01*
X7753452Y-22461681D01*
X7737965Y-22462900D01*
X7672908Y-22462900D01*
X7595000Y-22483775D01*
X7545609Y-22497009D01*
X7431490Y-22562896D01*
X7338296Y-22656090D01*
X7272409Y-22770209D01*
X7272408Y-22770214D01*
X7238300Y-22897508D01*
X7238300Y-23029292D01*
X7253923Y-23087597D01*
X7272409Y-23156590D01*
X7338296Y-23270709D01*
X7338298Y-23270711D01*
X7338300Y-23270714D01*
X7431486Y-23363900D01*
X7431488Y-23363901D01*
X7431490Y-23363903D01*
X7545610Y-23429790D01*
X7545608Y-23429790D01*
X7545612Y-23429791D01*
X7545614Y-23429792D01*
X7672908Y-23463900D01*
X7672910Y-23463900D01*
X7804690Y-23463900D01*
X7804692Y-23463900D01*
X7931986Y-23429792D01*
X7931988Y-23429790D01*
X7931990Y-23429790D01*
X8046109Y-23363903D01*
X8046109Y-23363902D01*
X8046114Y-23363900D01*
X8139300Y-23270714D01*
X8194166Y-23175684D01*
X8205190Y-23156590D01*
X8205190Y-23156588D01*
X8205192Y-23156586D01*
X8239300Y-23029292D01*
X8239300Y-22964235D01*
X8258207Y-22906044D01*
X8268296Y-22894231D01*
X11766931Y-19395596D01*
X11821448Y-19367819D01*
X11836935Y-19366600D01*
X15985265Y-19366600D01*
X16043456Y-19385507D01*
X16055269Y-19395596D01*
X17129535Y-20469862D01*
X17129534Y-20469862D01*
X17375503Y-20715829D01*
X17403281Y-20770346D01*
X17404500Y-20785833D01*
X17404500Y-21059415D01*
X17385593Y-21117606D01*
X17336093Y-21153570D01*
X17279877Y-21155042D01*
X17165892Y-21124500D01*
X17099500Y-21124500D01*
X17041309Y-21105593D01*
X17005345Y-21056093D01*
X17000500Y-21025500D01*
X17000500Y-20909109D01*
X17000500Y-20909108D01*
X16966392Y-20781814D01*
X16966390Y-20781811D01*
X16966390Y-20781809D01*
X16900503Y-20667690D01*
X16900501Y-20667688D01*
X16900500Y-20667686D01*
X16807314Y-20574500D01*
X16807311Y-20574498D01*
X16807309Y-20574496D01*
X16693189Y-20508609D01*
X16693191Y-20508609D01*
X16643799Y-20495375D01*
X16565892Y-20474500D01*
X16434108Y-20474500D01*
X16356200Y-20495375D01*
X16306809Y-20508609D01*
X16192690Y-20574496D01*
X16192684Y-20574500D01*
X16146681Y-20620504D01*
X16092164Y-20648281D01*
X16076678Y-20649500D01*
X12548932Y-20649500D01*
X12548916Y-20649499D01*
X12542853Y-20649499D01*
X12457147Y-20649499D01*
X12457144Y-20649499D01*
X12374361Y-20671681D01*
X12374357Y-20671683D01*
X12345859Y-20688136D01*
X12345860Y-20688137D01*
X12300136Y-20714535D01*
X12239534Y-20775137D01*
X12239535Y-20775138D01*
X4589531Y-28425142D01*
X4546682Y-28499360D01*
X4546681Y-28499360D01*
X4546682Y-28499361D01*
X4524500Y-28582147D01*
X4524500Y-29176678D01*
X4505593Y-29234869D01*
X4495504Y-29246681D01*
X4449500Y-29292684D01*
X4449496Y-29292690D01*
X4383609Y-29406809D01*
X4383608Y-29406814D01*
X4349500Y-29534108D01*
X4349500Y-29665892D01*
X4379579Y-29778151D01*
X4383609Y-29793190D01*
X4449496Y-29907309D01*
X4449498Y-29907311D01*
X4449500Y-29907314D01*
X4542686Y-30000500D01*
X4542688Y-30000501D01*
X4542690Y-30000503D01*
X4656810Y-30066390D01*
X4656808Y-30066390D01*
X4656812Y-30066391D01*
X4656814Y-30066392D01*
X4784108Y-30100500D01*
X4784110Y-30100500D01*
X4915890Y-30100500D01*
X4915892Y-30100500D01*
X5043186Y-30066392D01*
X5043188Y-30066390D01*
X5043190Y-30066390D01*
X5157309Y-30000503D01*
X5157309Y-30000502D01*
X5157314Y-30000500D01*
X5250500Y-29907314D01*
X5287522Y-29843190D01*
X5316390Y-29793190D01*
X5316390Y-29793188D01*
X5316392Y-29793186D01*
X5350500Y-29665892D01*
X5350500Y-29534108D01*
X5316392Y-29406814D01*
X5316390Y-29406811D01*
X5316390Y-29406809D01*
X5250503Y-29292690D01*
X5250499Y-29292684D01*
X5204496Y-29246681D01*
X5176719Y-29192164D01*
X5175500Y-29176678D01*
X5175500Y-28800834D01*
X5194407Y-28742643D01*
X5204496Y-28730830D01*
X12605830Y-21329496D01*
X12660347Y-21301719D01*
X12675834Y-21300500D01*
X13925166Y-21300500D01*
X13983357Y-21319407D01*
X14019321Y-21368907D01*
X14019321Y-21430093D01*
X13995171Y-21469501D01*
X11439228Y-24025445D01*
X8889532Y-26575141D01*
X8889531Y-26575142D01*
X8846682Y-26649360D01*
X8846681Y-26649360D01*
X8846682Y-26649361D01*
X8824500Y-26732147D01*
X8824500Y-29226678D01*
X8805593Y-29284869D01*
X8795504Y-29296681D01*
X8749500Y-29342684D01*
X8749496Y-29342690D01*
X8683609Y-29456809D01*
X8683608Y-29456814D01*
X8649500Y-29584108D01*
X8649500Y-29715892D01*
X8670211Y-29793186D01*
X8683609Y-29843190D01*
X8749496Y-29957309D01*
X8749498Y-29957311D01*
X8749500Y-29957314D01*
X8842686Y-30050500D01*
X8842688Y-30050501D01*
X8842690Y-30050503D01*
X8956810Y-30116390D01*
X8956808Y-30116390D01*
X8956812Y-30116391D01*
X8956814Y-30116392D01*
X9084108Y-30150500D01*
X9084110Y-30150500D01*
X9215890Y-30150500D01*
X9215892Y-30150500D01*
X9343186Y-30116392D01*
X9343188Y-30116390D01*
X9343190Y-30116390D01*
X9457309Y-30050503D01*
X9457309Y-30050502D01*
X9457314Y-30050500D01*
X9550500Y-29957314D01*
X9579368Y-29907314D01*
X9616390Y-29843190D01*
X9616390Y-29843188D01*
X9616392Y-29843186D01*
X9650500Y-29715892D01*
X9650500Y-29584108D01*
X9616392Y-29456814D01*
X9616390Y-29456811D01*
X9616390Y-29456809D01*
X9550503Y-29342690D01*
X9550499Y-29342684D01*
X9504496Y-29296681D01*
X9476719Y-29242164D01*
X9475500Y-29226678D01*
X9475500Y-26950835D01*
X9494407Y-26892644D01*
X9504496Y-26880831D01*
X14405831Y-21979496D01*
X14460348Y-21951719D01*
X14475835Y-21950500D01*
X16676678Y-21950500D01*
X16734869Y-21969407D01*
X16746681Y-21979496D01*
X16792684Y-22025499D01*
X16792690Y-22025503D01*
X16906810Y-22091390D01*
X16906808Y-22091390D01*
X16906812Y-22091391D01*
X16906814Y-22091392D01*
X17034108Y-22125500D01*
X17034110Y-22125500D01*
X17085165Y-22125500D01*
X17143356Y-22144407D01*
X17179320Y-22193907D01*
X17179320Y-22255093D01*
X17155169Y-22294503D01*
X16679463Y-22770209D01*
X16204168Y-23245504D01*
X16149651Y-23273281D01*
X16134164Y-23274500D01*
X15253321Y-23274500D01*
X15195130Y-23255593D01*
X15192523Y-23253366D01*
X15192460Y-23253449D01*
X15187309Y-23249496D01*
X15073189Y-23183609D01*
X15073191Y-23183609D01*
X15023799Y-23170375D01*
X14945892Y-23149500D01*
X14814108Y-23149500D01*
X14736200Y-23170375D01*
X14686809Y-23183609D01*
X14572690Y-23249496D01*
X14479496Y-23342690D01*
X14413609Y-23456809D01*
X14407328Y-23480252D01*
X14379500Y-23584108D01*
X14379500Y-23715892D01*
X14408236Y-23823136D01*
X14413609Y-23843190D01*
X14479496Y-23957309D01*
X14479498Y-23957311D01*
X14479500Y-23957314D01*
X14525505Y-24003319D01*
X14553281Y-24057834D01*
X14554500Y-24073321D01*
X14554500Y-24457147D01*
X14554500Y-24542853D01*
X14565685Y-24584597D01*
X14576683Y-24625643D01*
X14619531Y-24699857D01*
X14619533Y-24699859D01*
X14619535Y-24699862D01*
X17780138Y-27860465D01*
X17780140Y-27860466D01*
X17780142Y-27860468D01*
X17854357Y-27903316D01*
X17854355Y-27903316D01*
X17854359Y-27903317D01*
X17854361Y-27903318D01*
X17937147Y-27925500D01*
X18926678Y-27925500D01*
X18984869Y-27944407D01*
X18996681Y-27954496D01*
X19026716Y-27984530D01*
X19042686Y-28000500D01*
X19150616Y-28062814D01*
X19191556Y-28108282D01*
X19197952Y-28169132D01*
X19171119Y-28218553D01*
X16114332Y-31275341D01*
X16114331Y-31275342D01*
X16071482Y-31349560D01*
X16071481Y-31349560D01*
X16071482Y-31349561D01*
X16049300Y-31432347D01*
X16049300Y-59529365D01*
X16030393Y-59587556D01*
X16020304Y-59599369D01*
X13871357Y-61748315D01*
X13816840Y-61776092D01*
X13756408Y-61766521D01*
X13713143Y-61723256D01*
X13711629Y-61720151D01*
X13674066Y-61639598D01*
X13674065Y-61639597D01*
X13674065Y-61639596D01*
X13590404Y-61555935D01*
X13590402Y-61555934D01*
X13590401Y-61555933D01*
X13483175Y-61505932D01*
X13450601Y-61501644D01*
X13434316Y-61499500D01*
X12725684Y-61499500D01*
X12709398Y-61501644D01*
X12676825Y-61505932D01*
X12676824Y-61505932D01*
X12569598Y-61555933D01*
X12485933Y-61639598D01*
X12435932Y-61746824D01*
X12435932Y-61746825D01*
X12429500Y-61795685D01*
X12429500Y-62575500D01*
X12410593Y-62633691D01*
X12361093Y-62669655D01*
X12330500Y-62674500D01*
X11289500Y-62674500D01*
X11231309Y-62655593D01*
X11195345Y-62606093D01*
X11190500Y-62575500D01*
X11190500Y-61795685D01*
X11187984Y-61776573D01*
X11184068Y-61746827D01*
X11180805Y-61739830D01*
X11134066Y-61639598D01*
X11134065Y-61639597D01*
X11134065Y-61639596D01*
X11050404Y-61555935D01*
X11050402Y-61555934D01*
X11050401Y-61555933D01*
X10943175Y-61505932D01*
X10910601Y-61501644D01*
X10894316Y-61499500D01*
X10185684Y-61499500D01*
X10169398Y-61501644D01*
X10136825Y-61505932D01*
X10136824Y-61505932D01*
X10029598Y-61555933D01*
X9945933Y-61639598D01*
X9895932Y-61746824D01*
X9895932Y-61746825D01*
X9895932Y-61746827D01*
X9889500Y-61795684D01*
X9889500Y-64204316D01*
X9893788Y-64236887D01*
X9895932Y-64253174D01*
X9895932Y-64253175D01*
X9945122Y-64358661D01*
X9952579Y-64419390D01*
X9922916Y-64472904D01*
X9867463Y-64498762D01*
X9855398Y-64499500D01*
X3002985Y-64499500D01*
X2997008Y-64499319D01*
X2973822Y-64497916D01*
X2704694Y-64481637D01*
X2692827Y-64480196D01*
X2407721Y-64427948D01*
X2396113Y-64425087D01*
X2119384Y-64338855D01*
X2108206Y-64334616D01*
X1843880Y-64215652D01*
X1833295Y-64210096D01*
X1672942Y-64113160D01*
X1585245Y-64060145D01*
X1575413Y-64053358D01*
X1347243Y-63874599D01*
X1338295Y-63866673D01*
X1133326Y-63661704D01*
X1125399Y-63652755D01*
X946638Y-63424583D01*
X939856Y-63414758D01*
X789902Y-63166703D01*
X784347Y-63156119D01*
X665383Y-62891793D01*
X661147Y-62880623D01*
X574911Y-62603883D01*
X572051Y-62592278D01*
X572051Y-62592277D01*
X519802Y-62307165D01*
X518362Y-62295304D01*
X513972Y-62222731D01*
X500681Y-62002992D01*
X500500Y-61997015D01*
X500500Y-60878710D01*
X2149500Y-60878710D01*
X2149500Y-61121289D01*
X2181161Y-61361781D01*
X2181161Y-61361786D01*
X2243944Y-61596092D01*
X2243948Y-61596105D01*
X2336772Y-61820204D01*
X2336774Y-61820208D01*
X2336776Y-61820212D01*
X2440577Y-62000000D01*
X2458066Y-62030292D01*
X2605729Y-62222731D01*
X2605731Y-62222733D01*
X2605735Y-62222738D01*
X2777262Y-62394265D01*
X2777266Y-62394268D01*
X2777268Y-62394270D01*
X2933630Y-62514250D01*
X2969711Y-62541936D01*
X3179788Y-62663224D01*
X3403900Y-62756054D01*
X3638211Y-62818838D01*
X3878712Y-62850500D01*
X3878713Y-62850500D01*
X4121287Y-62850500D01*
X4121288Y-62850500D01*
X4361789Y-62818838D01*
X4596100Y-62756054D01*
X4820212Y-62663224D01*
X5030289Y-62541936D01*
X5222738Y-62394265D01*
X5394265Y-62222738D01*
X5541936Y-62030289D01*
X5663224Y-61820212D01*
X5756054Y-61596100D01*
X5818838Y-61361789D01*
X5850500Y-61121288D01*
X5850500Y-60878712D01*
X5818838Y-60638211D01*
X5756054Y-60403900D01*
X5668620Y-60192814D01*
X5663227Y-60179795D01*
X5663226Y-60179794D01*
X5663224Y-60179788D01*
X5541936Y-59969711D01*
X5541933Y-59969707D01*
X5394270Y-59777268D01*
X5394268Y-59777266D01*
X5394265Y-59777262D01*
X5222738Y-59605735D01*
X5222733Y-59605731D01*
X5222731Y-59605729D01*
X5030292Y-59458066D01*
X5030289Y-59458064D01*
X4820212Y-59336776D01*
X4820208Y-59336774D01*
X4820204Y-59336772D01*
X4596105Y-59243948D01*
X4596104Y-59243947D01*
X4596100Y-59243946D01*
X4361789Y-59181162D01*
X4361786Y-59181161D01*
X4361784Y-59181161D01*
X4121289Y-59149500D01*
X4121288Y-59149500D01*
X3878712Y-59149500D01*
X3878710Y-59149500D01*
X3638218Y-59181161D01*
X3638213Y-59181161D01*
X3403907Y-59243944D01*
X3403894Y-59243948D01*
X3179795Y-59336772D01*
X2969707Y-59458066D01*
X2777268Y-59605729D01*
X2605729Y-59777268D01*
X2458066Y-59969707D01*
X2336772Y-60179795D01*
X2243948Y-60403894D01*
X2243944Y-60403907D01*
X2181161Y-60638213D01*
X2181161Y-60638218D01*
X2149500Y-60878710D01*
X500500Y-60878710D01*
X500500Y-43823508D01*
X3449600Y-43823508D01*
X3449600Y-43955292D01*
X3458803Y-43989637D01*
X3483709Y-44082590D01*
X3549596Y-44196709D01*
X3549598Y-44196711D01*
X3549600Y-44196714D01*
X3642786Y-44289900D01*
X3642788Y-44289901D01*
X3642790Y-44289903D01*
X3756910Y-44355790D01*
X3756908Y-44355790D01*
X3756912Y-44355791D01*
X3756914Y-44355792D01*
X3884208Y-44389900D01*
X3884210Y-44389900D01*
X4015990Y-44389900D01*
X4015992Y-44389900D01*
X4143286Y-44355792D01*
X4143288Y-44355790D01*
X4143290Y-44355790D01*
X4257409Y-44289903D01*
X4257409Y-44289902D01*
X4257414Y-44289900D01*
X4350600Y-44196714D01*
X4416492Y-44082586D01*
X4450600Y-43955292D01*
X4450600Y-43823508D01*
X4416492Y-43696214D01*
X4416490Y-43696211D01*
X4416490Y-43696209D01*
X4350603Y-43582090D01*
X4350599Y-43582084D01*
X4304596Y-43536081D01*
X4276819Y-43481564D01*
X4275600Y-43466078D01*
X4275600Y-39904109D01*
X5931000Y-39904109D01*
X5931000Y-40042097D01*
X5931000Y-40042099D01*
X5931001Y-40042102D01*
X5935274Y-40063581D01*
X5957921Y-40177434D01*
X5957924Y-40177444D01*
X6010728Y-40304916D01*
X6010729Y-40304918D01*
X6012161Y-40307061D01*
X6087390Y-40419648D01*
X9965331Y-44297501D01*
X9993109Y-44352017D01*
X9983538Y-44412449D01*
X9965332Y-44437508D01*
X9305885Y-45096957D01*
X9258292Y-45168188D01*
X9258291Y-45168189D01*
X9229223Y-45211690D01*
X9229223Y-45211691D01*
X9176420Y-45339170D01*
X9176420Y-45339172D01*
X9149500Y-45474504D01*
X9149500Y-52400500D01*
X9130593Y-52458691D01*
X9081093Y-52494655D01*
X9050500Y-52499500D01*
X8845734Y-52499500D01*
X8815305Y-52502353D01*
X8687114Y-52547208D01*
X8577855Y-52627845D01*
X8577845Y-52627855D01*
X8497208Y-52737114D01*
X8452353Y-52865305D01*
X8449500Y-52895726D01*
X8449500Y-54904265D01*
X8452353Y-54934694D01*
X8452353Y-54934696D01*
X8452354Y-54934698D01*
X8492243Y-55048697D01*
X8497208Y-55062885D01*
X8577845Y-55172144D01*
X8577847Y-55172146D01*
X8577850Y-55172150D01*
X8577853Y-55172152D01*
X8577855Y-55172154D01*
X8687114Y-55252791D01*
X8687116Y-55252791D01*
X8687118Y-55252793D01*
X8815302Y-55297646D01*
X8845735Y-55300500D01*
X10854264Y-55300499D01*
X10854265Y-55300499D01*
X10860350Y-55299928D01*
X10884698Y-55297646D01*
X11012882Y-55252793D01*
X11122150Y-55172150D01*
X11202793Y-55062882D01*
X11247646Y-54934698D01*
X11250500Y-54904265D01*
X11250499Y-53789774D01*
X11949500Y-53789774D01*
X11949500Y-54010225D01*
X11983984Y-54227948D01*
X12052102Y-54437599D01*
X12052104Y-54437602D01*
X12052105Y-54437606D01*
X12152185Y-54634022D01*
X12281758Y-54812365D01*
X12437635Y-54968242D01*
X12615978Y-55097815D01*
X12812394Y-55197895D01*
X13022049Y-55266015D01*
X13109140Y-55279809D01*
X13239775Y-55300500D01*
X13239778Y-55300500D01*
X13460225Y-55300500D01*
X13569086Y-55283257D01*
X13677951Y-55266015D01*
X13887606Y-55197895D01*
X14084022Y-55097815D01*
X14262365Y-54968242D01*
X14418242Y-54812365D01*
X14547815Y-54634022D01*
X14647895Y-54437606D01*
X14716015Y-54227951D01*
X14750500Y-54010222D01*
X14750500Y-53789778D01*
X14750500Y-53789774D01*
X14716015Y-53572051D01*
X14716015Y-53572049D01*
X14647895Y-53362394D01*
X14547815Y-53165978D01*
X14418242Y-52987635D01*
X14262365Y-52831758D01*
X14084022Y-52702185D01*
X14084021Y-52702184D01*
X14084019Y-52702183D01*
X13994825Y-52656736D01*
X13887606Y-52602105D01*
X13887602Y-52602104D01*
X13887599Y-52602102D01*
X13677948Y-52533984D01*
X13460225Y-52499500D01*
X13460222Y-52499500D01*
X13239778Y-52499500D01*
X13239775Y-52499500D01*
X13022051Y-52533984D01*
X12812400Y-52602102D01*
X12615980Y-52702183D01*
X12526806Y-52766971D01*
X12437635Y-52831758D01*
X12281758Y-52987635D01*
X12261610Y-53015367D01*
X12152183Y-53165980D01*
X12052102Y-53362400D01*
X11983984Y-53572051D01*
X11949500Y-53789774D01*
X11250499Y-53789774D01*
X11250499Y-52895736D01*
X11247646Y-52865302D01*
X11202793Y-52737118D01*
X11202791Y-52737116D01*
X11202791Y-52737114D01*
X11122154Y-52627855D01*
X11122152Y-52627853D01*
X11122150Y-52627850D01*
X11122146Y-52627847D01*
X11122144Y-52627845D01*
X11012885Y-52547208D01*
X10968202Y-52531573D01*
X10884698Y-52502354D01*
X10884696Y-52502353D01*
X10884694Y-52502353D01*
X10854273Y-52499500D01*
X10854265Y-52499500D01*
X10649500Y-52499500D01*
X10591309Y-52480593D01*
X10555345Y-52431093D01*
X10550500Y-52400500D01*
X10550500Y-45874664D01*
X10569407Y-45816473D01*
X10579490Y-45804666D01*
X11472545Y-44911611D01*
X11472549Y-44911609D01*
X11541157Y-44843000D01*
X11570114Y-44814043D01*
X11570114Y-44814042D01*
X14241113Y-42143043D01*
X14317774Y-42028312D01*
X14370580Y-41900829D01*
X14397499Y-41765494D01*
X14397499Y-41627506D01*
X14370580Y-41492172D01*
X14317774Y-41364689D01*
X14241113Y-41249957D01*
X14143543Y-41152387D01*
X14028811Y-41075726D01*
X14028812Y-41075726D01*
X14028810Y-41075725D01*
X13901331Y-41022921D01*
X13901325Y-41022919D01*
X13765996Y-40996001D01*
X13765994Y-40996001D01*
X13628006Y-40996001D01*
X13628003Y-40996001D01*
X13492673Y-41022919D01*
X13492667Y-41022921D01*
X13365188Y-41075725D01*
X13250457Y-41152387D01*
X13250453Y-41152390D01*
X11095996Y-43306845D01*
X11041479Y-43334622D01*
X10981047Y-43325051D01*
X10955989Y-43306845D01*
X10662604Y-43013467D01*
X9626374Y-41977260D01*
X7078045Y-39428988D01*
X7078040Y-39428984D01*
X7078037Y-39428981D01*
X6963304Y-39352322D01*
X6953970Y-39348455D01*
X6835828Y-39299520D01*
X6835822Y-39299518D01*
X6835821Y-39299518D01*
X6768153Y-39286059D01*
X6700487Y-39272600D01*
X6562502Y-39272600D01*
X6562499Y-39272600D01*
X6562498Y-39272601D01*
X6535578Y-39277955D01*
X6427165Y-39299521D01*
X6427155Y-39299524D01*
X6299683Y-39352328D01*
X6184951Y-39428990D01*
X6087386Y-39526557D01*
X6087382Y-39526561D01*
X6087381Y-39526563D01*
X6010722Y-39641296D01*
X6010720Y-39641298D01*
X6010720Y-39641300D01*
X5957920Y-39768771D01*
X5957918Y-39768779D01*
X5931000Y-39904109D01*
X4275600Y-39904109D01*
X4275600Y-36196535D01*
X4294507Y-36138344D01*
X4304596Y-36126531D01*
X7853631Y-32577496D01*
X7908148Y-32549719D01*
X7923635Y-32548500D01*
X7988690Y-32548500D01*
X7988692Y-32548500D01*
X8115986Y-32514392D01*
X8115988Y-32514390D01*
X8115990Y-32514390D01*
X8230109Y-32448503D01*
X8230109Y-32448502D01*
X8230114Y-32448500D01*
X8323300Y-32355314D01*
X8323303Y-32355309D01*
X8389190Y-32241190D01*
X8389190Y-32241188D01*
X8389192Y-32241186D01*
X8423300Y-32113892D01*
X8423300Y-31982108D01*
X8389192Y-31854814D01*
X8389190Y-31854811D01*
X8389190Y-31854809D01*
X8323303Y-31740690D01*
X8323301Y-31740688D01*
X8323300Y-31740686D01*
X8230114Y-31647500D01*
X8230111Y-31647498D01*
X8230109Y-31647496D01*
X8115989Y-31581609D01*
X8115991Y-31581609D01*
X8066599Y-31568375D01*
X7988692Y-31547500D01*
X7856908Y-31547500D01*
X7779000Y-31568375D01*
X7729609Y-31581609D01*
X7615490Y-31647496D01*
X7522296Y-31740690D01*
X7456409Y-31854809D01*
X7422300Y-31982109D01*
X7422300Y-32047165D01*
X7403393Y-32105356D01*
X7393304Y-32117169D01*
X3689631Y-35820842D01*
X3646782Y-35895060D01*
X3646781Y-35895060D01*
X3646782Y-35895061D01*
X3624600Y-35977847D01*
X3624600Y-43466078D01*
X3605693Y-43524269D01*
X3595604Y-43536081D01*
X3549600Y-43582084D01*
X3549596Y-43582090D01*
X3483709Y-43696209D01*
X3465901Y-43762673D01*
X3449600Y-43823508D01*
X500500Y-43823508D01*
X500500Y-24095908D01*
X5533600Y-24095908D01*
X5533600Y-24227692D01*
X5551149Y-24293186D01*
X5567709Y-24354990D01*
X5633596Y-24469109D01*
X5633598Y-24469111D01*
X5633600Y-24469114D01*
X5726786Y-24562300D01*
X5726788Y-24562301D01*
X5726790Y-24562303D01*
X5840910Y-24628190D01*
X5840908Y-24628190D01*
X5840912Y-24628191D01*
X5840914Y-24628192D01*
X5968208Y-24662300D01*
X5968210Y-24662300D01*
X6099990Y-24662300D01*
X6099992Y-24662300D01*
X6227286Y-24628192D01*
X6227288Y-24628190D01*
X6227290Y-24628190D01*
X6341409Y-24562303D01*
X6341409Y-24562302D01*
X6341414Y-24562300D01*
X6434600Y-24469114D01*
X6459781Y-24425500D01*
X6500490Y-24354990D01*
X6500490Y-24354988D01*
X6500492Y-24354986D01*
X6534600Y-24227692D01*
X6534600Y-24095908D01*
X6500492Y-23968614D01*
X6500490Y-23968611D01*
X6500490Y-23968609D01*
X6434603Y-23854490D01*
X6434599Y-23854484D01*
X6393696Y-23813581D01*
X6365919Y-23759064D01*
X6364700Y-23743578D01*
X6364700Y-21099921D01*
X6383607Y-21041730D01*
X6393690Y-21029923D01*
X6439700Y-20983914D01*
X6470336Y-20930851D01*
X6505590Y-20869790D01*
X6505590Y-20869788D01*
X6505592Y-20869786D01*
X6539700Y-20742492D01*
X6539700Y-20610708D01*
X6505592Y-20483414D01*
X6505590Y-20483411D01*
X6505590Y-20483409D01*
X6439703Y-20369290D01*
X6439701Y-20369288D01*
X6439700Y-20369286D01*
X6346514Y-20276100D01*
X6346511Y-20276098D01*
X6346509Y-20276096D01*
X6232389Y-20210209D01*
X6232391Y-20210209D01*
X6182999Y-20196975D01*
X6105092Y-20176100D01*
X5973308Y-20176100D01*
X5895400Y-20196975D01*
X5846009Y-20210209D01*
X5731890Y-20276096D01*
X5638696Y-20369290D01*
X5572809Y-20483409D01*
X5572554Y-20484362D01*
X5538700Y-20610708D01*
X5538700Y-20742492D01*
X5550313Y-20785833D01*
X5572809Y-20869790D01*
X5638696Y-20983909D01*
X5638698Y-20983911D01*
X5638700Y-20983914D01*
X5684705Y-21029919D01*
X5712481Y-21084434D01*
X5713700Y-21099921D01*
X5713700Y-23733378D01*
X5694793Y-23791569D01*
X5684704Y-23803381D01*
X5633600Y-23854484D01*
X5633596Y-23854490D01*
X5567709Y-23968609D01*
X5556661Y-24009842D01*
X5533600Y-24095908D01*
X500500Y-24095908D01*
X500500Y-22061008D01*
X1100700Y-22061008D01*
X1100700Y-22192792D01*
X1119874Y-22264352D01*
X1134809Y-22320090D01*
X1200696Y-22434209D01*
X1200698Y-22434211D01*
X1200700Y-22434214D01*
X1293886Y-22527400D01*
X1293888Y-22527401D01*
X1293890Y-22527403D01*
X1408010Y-22593290D01*
X1408008Y-22593290D01*
X1408012Y-22593291D01*
X1408014Y-22593292D01*
X1535308Y-22627400D01*
X1535310Y-22627400D01*
X1667090Y-22627400D01*
X1667092Y-22627400D01*
X1794386Y-22593292D01*
X1794388Y-22593290D01*
X1794390Y-22593290D01*
X1908509Y-22527403D01*
X1908509Y-22527402D01*
X1908514Y-22527400D01*
X2001700Y-22434214D01*
X2063107Y-22327855D01*
X2067590Y-22320090D01*
X2067590Y-22320088D01*
X2067592Y-22320086D01*
X2101700Y-22192792D01*
X2101700Y-22127734D01*
X2120607Y-22069543D01*
X2130690Y-22057736D01*
X10283865Y-13904562D01*
X10326717Y-13830339D01*
X10326718Y-13830338D01*
X10348900Y-13747553D01*
X10348900Y-4767421D01*
X10367807Y-4709230D01*
X10377890Y-4697423D01*
X10423900Y-4651414D01*
X10476261Y-4560723D01*
X10489790Y-4537290D01*
X10489790Y-4537288D01*
X10489792Y-4537286D01*
X10523900Y-4409992D01*
X10523900Y-4278208D01*
X10489792Y-4150914D01*
X10489790Y-4150911D01*
X10489790Y-4150909D01*
X10423903Y-4036790D01*
X10423901Y-4036788D01*
X10423900Y-4036786D01*
X10330714Y-3943600D01*
X10330711Y-3943598D01*
X10330709Y-3943596D01*
X10216589Y-3877709D01*
X10216591Y-3877709D01*
X10167199Y-3864475D01*
X10089292Y-3843600D01*
X9957508Y-3843600D01*
X9879600Y-3864475D01*
X9830209Y-3877709D01*
X9716090Y-3943596D01*
X9622896Y-4036790D01*
X9557009Y-4150909D01*
X9557008Y-4150914D01*
X9522900Y-4278208D01*
X9522900Y-4409992D01*
X9536338Y-4460142D01*
X9557009Y-4537290D01*
X9622896Y-4651409D01*
X9622898Y-4651411D01*
X9622900Y-4651414D01*
X9668905Y-4697419D01*
X9696681Y-4751934D01*
X9697900Y-4767421D01*
X9697900Y-13528865D01*
X9678993Y-13587056D01*
X9668904Y-13598869D01*
X1670369Y-21597404D01*
X1615852Y-21625181D01*
X1600365Y-21626400D01*
X1535308Y-21626400D01*
X1457400Y-21647275D01*
X1408009Y-21660509D01*
X1293890Y-21726396D01*
X1200696Y-21819590D01*
X1134809Y-21933709D01*
X1125244Y-21969407D01*
X1100700Y-22061008D01*
X500500Y-22061008D01*
X500500Y-3878710D01*
X2149500Y-3878710D01*
X2149500Y-4121289D01*
X2181161Y-4361781D01*
X2181161Y-4361786D01*
X2243944Y-4596092D01*
X2243948Y-4596105D01*
X2336772Y-4820204D01*
X2336774Y-4820208D01*
X2336776Y-4820212D01*
X2458064Y-5030289D01*
X2458066Y-5030292D01*
X2605729Y-5222731D01*
X2605731Y-5222733D01*
X2605735Y-5222738D01*
X2777262Y-5394265D01*
X2777266Y-5394268D01*
X2777268Y-5394270D01*
X2969707Y-5541933D01*
X2969711Y-5541936D01*
X3179788Y-5663224D01*
X3403900Y-5756054D01*
X3638211Y-5818838D01*
X3878712Y-5850500D01*
X3878713Y-5850500D01*
X4121287Y-5850500D01*
X4121288Y-5850500D01*
X4361789Y-5818838D01*
X4596100Y-5756054D01*
X4820212Y-5663224D01*
X5030289Y-5541936D01*
X5222738Y-5394265D01*
X5394265Y-5222738D01*
X5541936Y-5030289D01*
X5663224Y-4820212D01*
X5756054Y-4596100D01*
X5818838Y-4361789D01*
X5850500Y-4121288D01*
X5850500Y-3878712D01*
X5818838Y-3638211D01*
X5756054Y-3403900D01*
X5667046Y-3189014D01*
X5663227Y-3179795D01*
X5663226Y-3179794D01*
X5663224Y-3179788D01*
X5541936Y-2969711D01*
X5423843Y-2815809D01*
X5394270Y-2777268D01*
X5394268Y-2777266D01*
X5394265Y-2777262D01*
X5222738Y-2605735D01*
X5222733Y-2605731D01*
X5222731Y-2605729D01*
X5030292Y-2458066D01*
X5030289Y-2458064D01*
X4820212Y-2336776D01*
X4820208Y-2336774D01*
X4820204Y-2336772D01*
X4596105Y-2243948D01*
X4596104Y-2243947D01*
X4596100Y-2243946D01*
X4361789Y-2181162D01*
X4361786Y-2181161D01*
X4361784Y-2181161D01*
X4121289Y-2149500D01*
X4121288Y-2149500D01*
X3878712Y-2149500D01*
X3878710Y-2149500D01*
X3638218Y-2181161D01*
X3638213Y-2181161D01*
X3403907Y-2243944D01*
X3403894Y-2243948D01*
X3179795Y-2336772D01*
X2969707Y-2458066D01*
X2777268Y-2605729D01*
X2605729Y-2777268D01*
X2458066Y-2969707D01*
X2336772Y-3179795D01*
X2243948Y-3403894D01*
X2243944Y-3403907D01*
X2181161Y-3638213D01*
X2181161Y-3638218D01*
X2149500Y-3878710D01*
X500500Y-3878710D01*
X500500Y-3002984D01*
X500681Y-2997007D01*
X511641Y-2815808D01*
X518362Y-2704687D01*
X519801Y-2692836D01*
X572052Y-2407714D01*
X574906Y-2396131D01*
X661152Y-2119355D01*
X665374Y-2108224D01*
X784349Y-1843873D01*
X789898Y-1833302D01*
X939860Y-1585233D01*
X946631Y-1575423D01*
X1125406Y-1347234D01*
X1133318Y-1338302D01*
X1338302Y-1133318D01*
X1347234Y-1125406D01*
X1575423Y-946631D01*
X1585233Y-939860D01*
X1833302Y-789898D01*
X1843873Y-784349D01*
X2108224Y-665374D01*
X2119355Y-661152D01*
X2396131Y-574906D01*
X2407714Y-572052D01*
X2692836Y-519801D01*
X2704687Y-518362D01*
X2997008Y-500681D01*
X3002985Y-500500D01*
X3065892Y-500500D01*
X71934108Y-500500D01*
X71997015Y-500500D01*
X72002992Y-500681D01*
G37*
%TD.AperFunction*%
%TA.AperFunction,Conductor*%
G36*
X16495045Y-60142025D02*
G01*
X16538310Y-60185290D01*
X16549100Y-60230235D01*
X16549100Y-61671747D01*
X16549100Y-61757453D01*
X16565914Y-61820204D01*
X16571283Y-61840243D01*
X16614131Y-61914457D01*
X16614133Y-61914459D01*
X16614135Y-61914462D01*
X17480505Y-62780832D01*
X17508281Y-62835347D01*
X17509500Y-62850834D01*
X17509500Y-64204316D01*
X17513788Y-64236887D01*
X17515932Y-64253174D01*
X17515932Y-64253175D01*
X17565122Y-64358661D01*
X17572579Y-64419390D01*
X17542916Y-64472904D01*
X17487463Y-64498762D01*
X17475398Y-64499500D01*
X13764602Y-64499500D01*
X13706411Y-64480593D01*
X13670447Y-64431093D01*
X13670447Y-64369907D01*
X13674878Y-64358661D01*
X13724067Y-64253175D01*
X13724068Y-64253173D01*
X13730500Y-64204316D01*
X13730500Y-62850834D01*
X13749407Y-62792644D01*
X13759496Y-62780831D01*
X16380096Y-60160231D01*
X16434613Y-60132454D01*
X16495045Y-60142025D01*
G37*
%TD.AperFunction*%
%TA.AperFunction,Conductor*%
G36*
X29825001Y-51230633D02*
G01*
X29940345Y-51345977D01*
X30112402Y-51460941D01*
X30223386Y-51506911D01*
X30269911Y-51546647D01*
X30284500Y-51598375D01*
X30284500Y-56524747D01*
X30284500Y-56610453D01*
X30304062Y-56683463D01*
X30306683Y-56693243D01*
X30349531Y-56767457D01*
X30349533Y-56767459D01*
X30349535Y-56767462D01*
X31203605Y-57621532D01*
X31231381Y-57676047D01*
X31232600Y-57691534D01*
X31232600Y-57756592D01*
X31258012Y-57851432D01*
X31266709Y-57883890D01*
X31332596Y-57998009D01*
X31332598Y-57998011D01*
X31332600Y-57998014D01*
X31425786Y-58091200D01*
X31425788Y-58091201D01*
X31425790Y-58091203D01*
X31539910Y-58157090D01*
X31539908Y-58157090D01*
X31539912Y-58157091D01*
X31539914Y-58157092D01*
X31667208Y-58191200D01*
X31667210Y-58191200D01*
X31798990Y-58191200D01*
X31798992Y-58191200D01*
X31926286Y-58157092D01*
X31926288Y-58157090D01*
X31926290Y-58157090D01*
X32040409Y-58091203D01*
X32040409Y-58091202D01*
X32040414Y-58091200D01*
X32133600Y-57998014D01*
X32190899Y-57898768D01*
X32236368Y-57857828D01*
X32297218Y-57851432D01*
X32346639Y-57878265D01*
X33045504Y-58577130D01*
X33073281Y-58631647D01*
X33074500Y-58647134D01*
X33074500Y-61409029D01*
X33055593Y-61467220D01*
X33006093Y-61503184D01*
X33003203Y-61504074D01*
X32996823Y-61505933D01*
X32889598Y-61555933D01*
X32805933Y-61639598D01*
X32755932Y-61746824D01*
X32755932Y-61746825D01*
X32755932Y-61746827D01*
X32749500Y-61795684D01*
X32749500Y-64204316D01*
X32753788Y-64236887D01*
X32755932Y-64253174D01*
X32755932Y-64253175D01*
X32805122Y-64358661D01*
X32812579Y-64419390D01*
X32782916Y-64472904D01*
X32727463Y-64498762D01*
X32715398Y-64499500D01*
X31544602Y-64499500D01*
X31486411Y-64480593D01*
X31450447Y-64431093D01*
X31450447Y-64369907D01*
X31454878Y-64358661D01*
X31504067Y-64253175D01*
X31504068Y-64253173D01*
X31510500Y-64204316D01*
X31510500Y-61795684D01*
X31504068Y-61746827D01*
X31500805Y-61739830D01*
X31454066Y-61639598D01*
X31454065Y-61639597D01*
X31454065Y-61639596D01*
X31370404Y-61555935D01*
X31370402Y-61555934D01*
X31370401Y-61555933D01*
X31263175Y-61505932D01*
X31230601Y-61501644D01*
X31214316Y-61499500D01*
X30505684Y-61499500D01*
X30489398Y-61501644D01*
X30456825Y-61505932D01*
X30456824Y-61505932D01*
X30349598Y-61555933D01*
X30265933Y-61639598D01*
X30228370Y-61720151D01*
X30186641Y-61764899D01*
X30126580Y-61776573D01*
X30071127Y-61750714D01*
X30068642Y-61748315D01*
X29684996Y-61364669D01*
X29657219Y-61310152D01*
X29656000Y-61294665D01*
X29656000Y-51300639D01*
X29674907Y-51242448D01*
X29724407Y-51206484D01*
X29785593Y-51206484D01*
X29825001Y-51230633D01*
G37*
%TD.AperFunction*%
%TA.AperFunction,Conductor*%
G36*
X47285445Y-49651624D02*
G01*
X47328710Y-49694889D01*
X47339500Y-49739834D01*
X47339500Y-51399746D01*
X47339501Y-51399758D01*
X47351132Y-51458227D01*
X47351134Y-51458233D01*
X47352944Y-51460942D01*
X47395448Y-51524552D01*
X47461769Y-51568867D01*
X47506231Y-51577711D01*
X47520241Y-51580498D01*
X47520246Y-51580498D01*
X47520252Y-51580500D01*
X47965500Y-51580500D01*
X48023691Y-51599407D01*
X48059655Y-51648907D01*
X48064500Y-51679500D01*
X48064500Y-53445765D01*
X48045593Y-53503956D01*
X48035504Y-53515769D01*
X44801369Y-56749904D01*
X44746852Y-56777681D01*
X44731365Y-56778900D01*
X44666308Y-56778900D01*
X44588400Y-56799775D01*
X44539009Y-56813009D01*
X44424890Y-56878896D01*
X44331696Y-56972090D01*
X44265809Y-57086209D01*
X44265808Y-57086214D01*
X44231700Y-57213508D01*
X44231700Y-57345292D01*
X44261779Y-57457551D01*
X44265809Y-57472590D01*
X44331696Y-57586709D01*
X44331698Y-57586711D01*
X44331700Y-57586714D01*
X44424886Y-57679900D01*
X44424888Y-57679901D01*
X44424890Y-57679903D01*
X44539010Y-57745790D01*
X44539008Y-57745790D01*
X44539012Y-57745791D01*
X44539014Y-57745792D01*
X44666308Y-57779900D01*
X44666310Y-57779900D01*
X44798090Y-57779900D01*
X44798092Y-57779900D01*
X44925386Y-57745792D01*
X44925388Y-57745790D01*
X44925390Y-57745790D01*
X45039509Y-57679903D01*
X45039509Y-57679902D01*
X45039514Y-57679900D01*
X45132700Y-57586714D01*
X45198592Y-57472586D01*
X45232700Y-57345292D01*
X45232700Y-57280234D01*
X45251607Y-57222043D01*
X45261690Y-57210236D01*
X48650465Y-53821462D01*
X48653484Y-53816233D01*
X48693318Y-53747238D01*
X48715500Y-53664453D01*
X48715500Y-51679500D01*
X48734407Y-51621309D01*
X48783907Y-51585345D01*
X48814500Y-51580500D01*
X49142200Y-51580500D01*
X49200391Y-51599407D01*
X49236355Y-51648907D01*
X49241200Y-51679500D01*
X49241200Y-56817465D01*
X49222293Y-56875656D01*
X49212204Y-56887469D01*
X44351357Y-61748315D01*
X44296840Y-61776092D01*
X44236408Y-61766521D01*
X44193143Y-61723256D01*
X44191629Y-61720151D01*
X44154066Y-61639598D01*
X44154065Y-61639597D01*
X44154065Y-61639596D01*
X44070404Y-61555935D01*
X44070402Y-61555934D01*
X44070401Y-61555933D01*
X43963175Y-61505932D01*
X43930601Y-61501644D01*
X43914316Y-61499500D01*
X43205684Y-61499500D01*
X43189398Y-61501644D01*
X43156825Y-61505932D01*
X43156824Y-61505932D01*
X43049598Y-61555933D01*
X42965933Y-61639598D01*
X42915932Y-61746824D01*
X42915932Y-61746825D01*
X42915932Y-61746827D01*
X42909500Y-61795684D01*
X42909500Y-64204316D01*
X42913788Y-64236887D01*
X42915932Y-64253174D01*
X42915932Y-64253175D01*
X42965122Y-64358661D01*
X42972579Y-64419390D01*
X42942916Y-64472904D01*
X42887463Y-64498762D01*
X42875398Y-64499500D01*
X41704602Y-64499500D01*
X41646411Y-64480593D01*
X41610447Y-64431093D01*
X41610447Y-64369907D01*
X41614878Y-64358661D01*
X41664067Y-64253175D01*
X41664068Y-64253173D01*
X41670500Y-64204316D01*
X41670500Y-61795684D01*
X41664068Y-61746827D01*
X41660805Y-61739830D01*
X41614066Y-61639598D01*
X41614065Y-61639597D01*
X41614065Y-61639596D01*
X41530404Y-61555935D01*
X41530402Y-61555934D01*
X41530401Y-61555933D01*
X41423176Y-61505933D01*
X41416797Y-61504074D01*
X41366222Y-61469639D01*
X41345546Y-61412053D01*
X41345500Y-61409029D01*
X41345500Y-55535834D01*
X41364407Y-55477643D01*
X41374490Y-55465836D01*
X47170496Y-49669829D01*
X47225013Y-49642053D01*
X47285445Y-49651624D01*
G37*
%TD.AperFunction*%
%TD*%
M02*
