M48
; DRILL file KiCad 10.0.6 date 2026-09-09T18:25:19
; FORMAT={-:-/ absolute / metric / decimal}
; #@! TF.CreationDate,2026-09-09T18:25:19+02:00
; #@! TF.GenerationSoftware,Kicad,Pcbnew,10.0.6
; #@! TF.FileFunction,MixedPlating,1,2
FMAT,2
METRIC
; #@! TA.AperFunction,Plated,PTH,ViaDrill
T1C0.300
; #@! TA.AperFunction,Plated,PTH,ComponentDrill
T2C0.800
; #@! TA.AperFunction,Plated,PTH,ComponentDrill
T3C1.000
; #@! TA.AperFunction,Plated,PTH,ComponentDrill
T4C1.200
; #@! TA.AperFunction,NonPlated,NPTH,ComponentDrill
T5C3.200
%
G90
G05
T1
X1.0Y-12.219
X1.0Y-16.579
X1.601Y-22.127
X3.95Y-43.889
X4.85Y-29.6
X6.034Y-24.162
X6.039Y-20.677
X6.631Y-39.973
X7.5Y-6.25
X7.5Y-13.75
X7.5Y-21.25
X7.739Y-22.963
X7.923Y-32.048
X9.15Y-29.65
X10.023Y-4.344
X12.9Y-19.675
X13.697Y-41.697
X14.88Y-23.65
X15.0Y-6.25
X15.0Y-13.75
X15.0Y-28.75
X16.17Y-60.882
X16.466Y-22.45
X16.5Y-20.975
X17.1Y-21.625
X17.68Y-24.1
X18.95Y-20.411
X19.35Y-27.6
X20.175Y-26.313
X22.295Y-23.054
X22.5Y-13.75
X22.5Y-21.25
X22.5Y-28.75
X22.5Y-36.25
X22.642Y-17.849
X22.9Y-24.95
X24.461Y-18.085
X25.005Y-22.25
X25.019Y-16.626
X25.248Y-24.271
X26.072Y-31.845
X27.275Y-27.951
X27.547Y-16.269
X28.604Y-24.365
X30.0Y-58.75
X31.733Y-57.691
X32.617Y-32.102
X34.117Y-52.623
X35.754Y-16.199
X36.055Y-60.386
X36.057Y-28.054
X37.5Y-58.75
X38.947Y-60.386
X44.732Y-57.279
X45.0Y-6.25
X45.0Y-13.75
X45.0Y-21.25
X45.0Y-28.75
X45.0Y-36.25
X45.0Y-58.75
X52.48Y-2.882
X52.5Y-13.75
X52.5Y-36.25
X52.5Y-43.75
X52.5Y-51.25
X52.5Y-58.75
X55.856Y-5.497
X56.547Y-16.444
X59.951Y-33.514
X60.0Y-36.25
X60.0Y-51.25
X60.0Y-58.75
X67.5Y-6.25
X67.5Y-36.25
X67.5Y-51.25
X67.5Y-58.75
T2
X54.042Y-26.751
X57.542Y-26.751
T3
X30.61Y-2.27
X30.61Y-4.81
X30.61Y-7.35
X30.61Y-9.89
X30.61Y-12.43
X30.61Y-14.97
X30.61Y-17.51
X30.61Y-20.05
X30.61Y-22.59
X30.61Y-25.13
X30.61Y-27.67
X30.61Y-30.21
X30.61Y-32.75
X30.61Y-35.29
X30.61Y-37.83
X30.61Y-40.37
X30.61Y-42.91
X30.61Y-45.45
X30.61Y-47.99
X30.61Y-50.53
X48.39Y-2.27
X48.39Y-4.81
X48.39Y-7.35
X48.39Y-9.89
X48.39Y-12.43
X48.39Y-14.97
X48.39Y-17.51
X48.39Y-20.05
X48.39Y-22.59
X48.39Y-25.13
X48.39Y-27.67
X48.39Y-30.21
X48.39Y-32.75
X48.39Y-35.29
X48.39Y-37.83
X48.39Y-40.37
X48.39Y-42.91
X48.39Y-45.45
X48.39Y-47.99
X48.39Y-50.53
T4
X9.85Y-53.9
X13.35Y-53.9
X18.45Y-53.9
X21.95Y-53.9
X35.85Y-23.6
X39.35Y-23.6
X53.79Y-6.6
X57.29Y-6.6
X64.1Y-24.75
X66.64Y-24.75
X69.18Y-24.75
T5
X4.0Y-4.0
X4.0Y-61.0
X71.0Y-4.0
X71.0Y-61.0
M30
