%TF.GenerationSoftware,KiCad,Pcbnew,10.0.6*%
%TF.CreationDate,2026-09-04T10:41:57+02:00*%
%TF.ProjectId,Dimmer3,44696d6d-6572-4332-9e6b-696361645f70,rev?*%
%TF.SameCoordinates,Original*%
%TF.FileFunction,Copper,L2,Bot*%
%TF.FilePolarity,Positive*%
%FSLAX46Y46*%
G04 Gerber Fmt 4.6, Leading zero omitted, Abs format (unit mm)*
G04 Created by KiCad (PCBNEW 10.0.6) date 2026-09-04 10:41:57*
%MOMM*%
%LPD*%
G01*
G04 APERTURE LIST*
G04 Aperture macros list*
%AMRoundRect*
0 Rectangle with rounded corners*
0 $1 Rounding radius*
0 $2 $3 $4 $5 $6 $7 $8 $9 X,Y pos of 4 corners*
0 Add a 4 corners polygon primitive as box body*
4,1,4,$2,$3,$4,$5,$6,$7,$8,$9,$2,$3,0*
0 Add four circle primitives for the rounded corners*
1,1,$1+$1,$2,$3*
1,1,$1+$1,$4,$5*
1,1,$1+$1,$6,$7*
1,1,$1+$1,$8,$9*
0 Add four rect primitives between the rounded corners*
20,1,$1+$1,$2,$3,$4,$5,0*
20,1,$1+$1,$4,$5,$6,$7,0*
20,1,$1+$1,$6,$7,$8,$9,0*
20,1,$1+$1,$8,$9,$2,$3,0*%
G04 Aperture macros list end*
%TA.AperFunction,ComponentPad*%
%ADD10RoundRect,0.250001X-0.949999X-0.949999X0.949999X-0.949999X0.949999X0.949999X-0.949999X0.949999X0*%
%TD*%
%TA.AperFunction,ComponentPad*%
%ADD11C,2.400000*%
%TD*%
%TA.AperFunction,ComponentPad*%
%ADD12RoundRect,0.250000X-0.550000X-0.550000X0.550000X-0.550000X0.550000X0.550000X-0.550000X0.550000X0*%
%TD*%
%TA.AperFunction,ComponentPad*%
%ADD13C,1.600000*%
%TD*%
%TA.AperFunction,ComponentPad*%
%ADD14R,1.700000X1.700000*%
%TD*%
%TA.AperFunction,ComponentPad*%
%ADD15C,1.700000*%
%TD*%
%TA.AperFunction,SMDPad,CuDef*%
%ADD16R,3.150000X1.000000*%
%TD*%
%TA.AperFunction,SMDPad,CuDef*%
%ADD17R,2.510000X1.000000*%
%TD*%
%TA.AperFunction,ViaPad*%
%ADD18C,0.600000*%
%TD*%
%TA.AperFunction,Conductor*%
%ADD19C,0.250000*%
%TD*%
%TA.AperFunction,Conductor*%
%ADD20C,1.000000*%
%TD*%
G04 APERTURE END LIST*
D10*
%TO.P,J7,1*%
%TO.N,/+24V*%
X27450000Y-53600000D03*
D11*
%TO.P,J7,2*%
%TO.N,/LED3*%
X30950000Y-53600000D03*
%TD*%
D12*
%TO.P,C12,1*%
%TO.N,/+24V*%
X51502479Y-33751238D03*
D13*
%TO.P,C12,2*%
%TO.N,GND*%
X55002479Y-33751238D03*
%TD*%
D14*
%TO.P,J100,1*%
%TO.N,/FLASH_TX*%
X8000000Y-13000000D03*
D15*
%TO.P,J100,2*%
%TO.N,/FLASH_RX*%
X8000000Y-10460000D03*
%TO.P,J100,3*%
%TO.N,GND*%
X10540000Y-13000000D03*
%TO.P,J100,4*%
%TO.N,unconnected-(J100-Pin_4-Pad4)*%
X10540000Y-10460000D03*
%TO.P,J100,5*%
%TO.N,/FLASH_MODE*%
X13080000Y-13000000D03*
%TO.P,J100,6*%
%TO.N,/I2C_SDA*%
X13080000Y-10460000D03*
%TO.P,J100,7*%
%TO.N,/I2C_SCL*%
X15620000Y-13000000D03*
%TO.P,J100,8*%
%TO.N,GND*%
X15620000Y-10460000D03*
%TO.P,J100,9*%
%TO.N,/NOTAUS*%
X18160000Y-13000000D03*
%TO.P,J100,10*%
%TO.N,/SEL_CLK*%
X18160000Y-10460000D03*
%TO.P,J100,11*%
%TO.N,unconnected-(J100-Pin_11-Pad11)*%
X20700000Y-13000000D03*
%TO.P,J100,12*%
%TO.N,unconnected-(J100-Pin_12-Pad12)*%
X20700000Y-10460000D03*
%TO.P,J100,13*%
%TO.N,GND*%
X23240000Y-13000000D03*
%TO.P,J100,14*%
%TO.N,unconnected-(J100-Pin_14-Pad14)*%
X23240000Y-10460000D03*
%TO.P,J100,15*%
%TO.N,unconnected-(J100-Pin_15-Pad15)*%
X25780000Y-13000000D03*
%TO.P,J100,16*%
%TO.N,unconnected-(J100-Pin_16-Pad16)*%
X25780000Y-10460000D03*
%TO.P,J100,17*%
%TO.N,unconnected-(J100-Pin_17-Pad17)*%
X28320000Y-13000000D03*
%TO.P,J100,18*%
%TO.N,GND*%
X28320000Y-10460000D03*
%TO.P,J100,19*%
%TO.N,unconnected-(J100-Pin_19-Pad19)*%
X30860000Y-13000000D03*
%TO.P,J100,20*%
%TO.N,unconnected-(J100-Pin_20-Pad20)*%
X30860000Y-10460000D03*
%TO.P,J100,21*%
%TO.N,unconnected-(J100-Pin_21-Pad21)*%
X33400000Y-13000000D03*
%TO.P,J100,22*%
%TO.N,unconnected-(J100-Pin_22-Pad22)*%
X33400000Y-10460000D03*
%TO.P,J100,23*%
%TO.N,GND*%
X35940000Y-13000000D03*
%TO.P,J100,24*%
%TO.N,unconnected-(J100-Pin_24-Pad24)*%
X35940000Y-10460000D03*
%TO.P,J100,25*%
%TO.N,unconnected-(J100-Pin_25-Pad25)*%
X38480000Y-13000000D03*
%TO.P,J100,26*%
%TO.N,unconnected-(J100-Pin_26-Pad26)*%
X38480000Y-10460000D03*
%TO.P,J100,27*%
%TO.N,unconnected-(J100-Pin_27-Pad27)*%
X41020000Y-13000000D03*
%TO.P,J100,28*%
%TO.N,GND*%
X41020000Y-10460000D03*
%TO.P,J100,29*%
%TO.N,unconnected-(J100-Pin_29-Pad29)*%
X43560000Y-13000000D03*
%TO.P,J100,30*%
%TO.N,unconnected-(J100-Pin_30-Pad30)*%
X43560000Y-10460000D03*
%TO.P,J100,31*%
%TO.N,unconnected-(J100-Pin_31-Pad31)*%
X46100000Y-13000000D03*
%TO.P,J100,32*%
%TO.N,unconnected-(J100-Pin_32-Pad32)*%
X46100000Y-10460000D03*
%TO.P,J100,33*%
%TO.N,GND*%
X48640000Y-13000000D03*
%TO.P,J100,34*%
%TO.N,unconnected-(J100-Pin_34-Pad34)*%
X48640000Y-10460000D03*
%TO.P,J100,35*%
%TO.N,unconnected-(J100-Pin_35-Pad35)*%
X51180000Y-13000000D03*
%TO.P,J100,36*%
%TO.N,3V3*%
X51180000Y-10460000D03*
%TO.P,J100,37*%
%TO.N,unconnected-(J100-Pin_37-Pad37)*%
X53720000Y-13000000D03*
%TO.P,J100,38*%
%TO.N,GND*%
X53720000Y-10460000D03*
%TO.P,J100,39*%
%TO.N,unconnected-(J100-Pin_39-Pad39)*%
X56260000Y-13000000D03*
%TO.P,J100,40*%
%TO.N,unconnected-(J100-Pin_40-Pad40)*%
X56260000Y-10460000D03*
%TD*%
D10*
%TO.P,J5,1*%
%TO.N,/+24V*%
X10250000Y-53600000D03*
D11*
%TO.P,J5,2*%
%TO.N,/LED1*%
X13750000Y-53600000D03*
%TD*%
D10*
%TO.P,J6,1*%
%TO.N,/+24V*%
X18850000Y-53600000D03*
D11*
%TO.P,J6,2*%
%TO.N,/LED2*%
X22350000Y-53600000D03*
%TD*%
D16*
%TO.P,J104,1*%
%TO.N,/PWR24V*%
X58495000Y-42000000D03*
%TO.P,J104,2*%
%TO.N,GND*%
X53445000Y-42000000D03*
%TO.P,J104,3*%
%TO.N,/PWR24V*%
X58495000Y-44540000D03*
%TO.P,J104,4*%
%TO.N,GND*%
X53445000Y-44540000D03*
%TD*%
D17*
%TO.P,J102,1*%
%TO.N,/SEL_OUT*%
X14155000Y-2750000D03*
%TO.P,J102,2*%
%TO.N,GND*%
X10845000Y-5290000D03*
%TD*%
D18*
%TO.N,/PWM1_G*%
X15420600Y-35857500D03*
X24429600Y-21293600D03*
%TO.N,GND*%
X43250000Y-7500000D03*
X35750000Y-22500000D03*
X50750000Y-7500000D03*
X13900000Y-19675000D03*
X7094182Y-24896800D03*
X5750000Y-7500000D03*
X32686221Y-16069500D03*
X58250000Y-7500000D03*
X58250000Y-22500000D03*
X43250000Y-37500000D03*
X58250000Y-30000000D03*
X58250000Y-52500000D03*
X28255100Y-17560793D03*
X6321700Y-23595300D03*
X43250000Y-52500000D03*
X43250000Y-45000000D03*
X20750000Y-45000000D03*
X13250000Y-22500000D03*
X5750000Y-52500000D03*
X20750000Y-7500000D03*
X28250000Y-45000000D03*
X58250000Y-37500000D03*
X28250000Y-7500000D03*
X5750000Y-45000000D03*
X13250000Y-45000000D03*
X17228654Y-22450500D03*
X35750000Y-52500000D03*
X43250000Y-22500000D03*
X50750000Y-52500000D03*
X35750000Y-45000000D03*
X35750000Y-7500000D03*
%TO.N,/PWM3_G*%
X30587400Y-20691700D03*
X30894200Y-36026500D03*
%TO.N,/PWM2*%
X23725100Y-20459600D03*
X28078500Y-16728100D03*
%TO.N,/PWM2_G*%
X23185900Y-35713600D03*
X25377000Y-21372600D03*
%TO.N,/ID0*%
X17500000Y-20975000D03*
X5850000Y-29600000D03*
%TO.N,/PWR24V*%
X56082900Y-44333100D03*
%TO.N,/SEL_CLK*%
X6960700Y-20769800D03*
%TO.N,/SEL_IN*%
X7302300Y-4199300D03*
X5456700Y-23701000D03*
%TO.N,/SEL_OUT*%
X20350000Y-27600000D03*
X15880000Y-23650000D03*
%TO.N,3V3*%
X23900000Y-24950000D03*
X18680000Y-24100000D03*
%TO.N,/ID1*%
X10150000Y-29650000D03*
X18100000Y-21625000D03*
%TO.N,/PWM3*%
X19165700Y-15244000D03*
X17662700Y-17886900D03*
%TO.N,/FLASH_MODE*%
X18760900Y-19892000D03*
%TO.N,/BOOT0*%
X21842500Y-27390400D03*
X20178000Y-18045200D03*
%TO.N,/I2C_SDA*%
X15534500Y-15522800D03*
%TO.N,/FLASH_RX*%
X17959100Y-19592900D03*
%TO.N,/FLASH_TX*%
X11465700Y-15995400D03*
%TO.N,/LED1*%
X22550000Y-32150000D03*
%TD*%
%TO.N,/PWM1_G*%
D19*
X15420600Y-35857500D02*
X24576900Y-26701200D01*
X24576900Y-21440900D02*
X24429600Y-21293600D01*
X24576900Y-26701200D02*
X24576900Y-21440900D01*
%TO.N,/+24V*%
D20*
X27450000Y-51818700D02*
X27450000Y-53600000D01*
X45517500Y-33751200D02*
X27450000Y-51818700D01*
X51502500Y-33751200D02*
X45517500Y-33751200D01*
%TO.N,/PWM3_G*%
D19*
X30894200Y-36026500D02*
X30587400Y-35719700D01*
X30587400Y-35719700D02*
X30587400Y-20691700D01*
%TO.N,/PWM2*%
X24347000Y-20459600D02*
X23725100Y-20459600D01*
X28078500Y-16728100D02*
X24347000Y-20459600D01*
%TO.N,/PWM2_G*%
X23185900Y-35713600D02*
X25377000Y-33522500D01*
X25377000Y-33522500D02*
X25377000Y-21372600D01*
%TO.N,/ID0*%
X13500000Y-20975000D02*
X5850000Y-28625000D01*
X17500000Y-20975000D02*
X13500000Y-20975000D01*
X5850000Y-28625000D02*
X5850000Y-29600000D01*
%TO.N,/PWR24V*%
D20*
X56218300Y-44468500D02*
X56082900Y-44333100D01*
X58495000Y-44540000D02*
X60771700Y-44540000D01*
X58495000Y-42000000D02*
X60771700Y-42000000D01*
X56218300Y-44540000D02*
X56218300Y-44468500D01*
X58495000Y-44540000D02*
X56218300Y-44540000D01*
X60771700Y-44540000D02*
X60771700Y-42000000D01*
%TO.N,/SEL_CLK*%
D19*
X8668000Y-5249100D02*
X8668000Y-7299200D01*
X18160000Y-4517900D02*
X15565400Y-1923300D01*
X8668000Y-7299200D02*
X6763300Y-9203900D01*
X18160000Y-10460000D02*
X18160000Y-4517900D01*
X6763300Y-20572400D02*
X6960700Y-20769800D01*
X15565400Y-1923300D02*
X11993800Y-1923300D01*
X11993800Y-1923300D02*
X8668000Y-5249100D01*
X6763300Y-9203900D02*
X6763300Y-20572400D01*
%TO.N,/SEL_IN*%
X5456700Y-9493300D02*
X5456700Y-23701000D01*
X7302300Y-7647700D02*
X5456700Y-9493300D01*
X7302300Y-4199300D02*
X7302300Y-7647700D01*
%TO.N,/SEL_OUT*%
X19551300Y-21084800D02*
X16986100Y-23650000D01*
X18018400Y-14532700D02*
X19369000Y-14532700D01*
X14350000Y-3771700D02*
X14350000Y-10910500D01*
X16890000Y-12569100D02*
X16890000Y-13404300D01*
X15076200Y-11636700D02*
X15957600Y-11636700D01*
X18980000Y-27600000D02*
X15880000Y-24500000D01*
X19794000Y-17543000D02*
X19551300Y-17785700D01*
X20350000Y-27600000D02*
X18980000Y-27600000D01*
X14350000Y-10910500D02*
X15076200Y-11636700D01*
X16890000Y-13404300D02*
X18018400Y-14532700D01*
X14155000Y-2750000D02*
X14155000Y-3576700D01*
X14155000Y-3576700D02*
X14350000Y-3771700D01*
X19369000Y-14532700D02*
X19794000Y-14957700D01*
X19794000Y-14957700D02*
X19794000Y-17543000D01*
X19551300Y-17785700D02*
X19551300Y-21084800D01*
X15957600Y-11636700D02*
X16890000Y-12569100D01*
X16986100Y-23650000D02*
X15880000Y-23650000D01*
X15880000Y-24500000D02*
X15880000Y-23650000D01*
%TO.N,3V3*%
X23900000Y-24650000D02*
X23900000Y-24950000D01*
X18680000Y-24100000D02*
X23350000Y-24100000D01*
X23350000Y-24100000D02*
X23900000Y-24650000D01*
%TO.N,/ID1*%
X10150000Y-26775000D02*
X10150000Y-29650000D01*
X15300000Y-21625000D02*
X10150000Y-26775000D01*
X18100000Y-21625000D02*
X15300000Y-21625000D01*
%TO.N,/PWM3*%
X19165700Y-16383900D02*
X19165700Y-15244000D01*
X17662700Y-17886900D02*
X19165700Y-16383900D01*
%TO.N,/FLASH_MODE*%
X18091700Y-18798700D02*
X18760900Y-19467900D01*
X18760900Y-19467900D02*
X18760900Y-19892000D01*
X13080000Y-13000000D02*
X13080000Y-14192000D01*
X17686700Y-18798700D02*
X18091700Y-18798700D01*
X13080000Y-14192000D02*
X17686700Y-18798700D01*
%TO.N,/BOOT0*%
X18043100Y-23821300D02*
X20178000Y-21686400D01*
X18043100Y-24406600D02*
X18043100Y-23821300D01*
X21026900Y-27390400D02*
X18043100Y-24406600D01*
X20178000Y-21686400D02*
X20178000Y-18045200D01*
X21842500Y-27390400D02*
X21026900Y-27390400D01*
%TO.N,/I2C_SDA*%
X13080000Y-10460000D02*
X14256700Y-11636700D01*
X14256700Y-11636700D02*
X14256700Y-14245000D01*
X14256700Y-14245000D02*
X15534500Y-15522800D01*
%TO.N,/FLASH_RX*%
X11725300Y-15368700D02*
X11237500Y-15368700D01*
X15949500Y-19592900D02*
X11725300Y-15368700D01*
X17959100Y-19592900D02*
X15949500Y-19592900D01*
X9270000Y-13401200D02*
X9270000Y-11730000D01*
X11237500Y-15368700D02*
X9270000Y-13401200D01*
X9270000Y-11730000D02*
X8000000Y-10460000D01*
%TO.N,/FLASH_TX*%
X8000000Y-13000000D02*
X10995400Y-15995400D01*
X10995400Y-15995400D02*
X11465700Y-15995400D01*
%TO.N,/LED1*%
D20*
X22184200Y-45165800D02*
X13750000Y-53600000D01*
X22184200Y-32515800D02*
X22184200Y-45165800D01*
X22550000Y-32150000D02*
X22184200Y-32515800D01*
%TD*%
%TA.AperFunction,Conductor*%
%TO.N,GND*%
G36*
X12658691Y-2267707D02*
G01*
X12694655Y-2317207D01*
X12699500Y-2347800D01*
X12699500Y-3269746D01*
X12699501Y-3269758D01*
X12711132Y-3328227D01*
X12711133Y-3328231D01*
X12755448Y-3394552D01*
X12821769Y-3438867D01*
X12866231Y-3447711D01*
X12880241Y-3450498D01*
X12880246Y-3450498D01*
X12880252Y-3450500D01*
X13730500Y-3450500D01*
X13788691Y-3469407D01*
X13824655Y-3518907D01*
X13829500Y-3549500D01*
X13829500Y-3619553D01*
X13836603Y-3646062D01*
X13851683Y-3702343D01*
X13894534Y-3776562D01*
X13995503Y-3877529D01*
X14023281Y-3932045D01*
X14024500Y-3947533D01*
X14024500Y-9679861D01*
X14005593Y-9738052D01*
X13956093Y-9774016D01*
X13894907Y-9774016D01*
X13855498Y-9749866D01*
X13749655Y-9644023D01*
X13749651Y-9644020D01*
X13577597Y-9529058D01*
X13386418Y-9449869D01*
X13183467Y-9409500D01*
X13183465Y-9409500D01*
X12976535Y-9409500D01*
X12976532Y-9409500D01*
X12773581Y-9449869D01*
X12582402Y-9529058D01*
X12410348Y-9644020D01*
X12264020Y-9790348D01*
X12149058Y-9962402D01*
X12069869Y-10153581D01*
X12029500Y-10356532D01*
X12029500Y-10563467D01*
X12069869Y-10766418D01*
X12149058Y-10957597D01*
X12264020Y-11129651D01*
X12264023Y-11129655D01*
X12410345Y-11275977D01*
X12582402Y-11390941D01*
X12773580Y-11470130D01*
X12976535Y-11510500D01*
X12976536Y-11510500D01*
X13183464Y-11510500D01*
X13183465Y-11510500D01*
X13386420Y-11470130D01*
X13497402Y-11424158D01*
X13558399Y-11419358D01*
X13605292Y-11445619D01*
X13902204Y-11742531D01*
X13929981Y-11797048D01*
X13931200Y-11812535D01*
X13931200Y-12126560D01*
X13912293Y-12184751D01*
X13862793Y-12220715D01*
X13801607Y-12220715D01*
X13762199Y-12196566D01*
X13749655Y-12184023D01*
X13577597Y-12069058D01*
X13386418Y-11989869D01*
X13183467Y-11949500D01*
X13183465Y-11949500D01*
X12976535Y-11949500D01*
X12976532Y-11949500D01*
X12773581Y-11989869D01*
X12582402Y-12069058D01*
X12410348Y-12184020D01*
X12264020Y-12330348D01*
X12149058Y-12502402D01*
X12069869Y-12693581D01*
X12029500Y-12896532D01*
X12029500Y-13103467D01*
X12069869Y-13306418D01*
X12149058Y-13497597D01*
X12260266Y-13664032D01*
X12264023Y-13669655D01*
X12410345Y-13815977D01*
X12582402Y-13930941D01*
X12693386Y-13976911D01*
X12739911Y-14016647D01*
X12754500Y-14068375D01*
X12754500Y-14149147D01*
X12754500Y-14234853D01*
X12768701Y-14287853D01*
X12776683Y-14317643D01*
X12819531Y-14391857D01*
X12819533Y-14391859D01*
X12819535Y-14391862D01*
X17426233Y-18998559D01*
X17426235Y-18998562D01*
X17486838Y-19059165D01*
X17511239Y-19073253D01*
X17527539Y-19082664D01*
X17568479Y-19128134D01*
X17574874Y-19188984D01*
X17544281Y-19241972D01*
X17488385Y-19266858D01*
X17478038Y-19267400D01*
X16125335Y-19267400D01*
X16067144Y-19248493D01*
X16055331Y-19238404D01*
X14011417Y-17194490D01*
X11925162Y-15108235D01*
X11925159Y-15108233D01*
X11925158Y-15108232D01*
X11925157Y-15108231D01*
X11850942Y-15065383D01*
X11850944Y-15065383D01*
X11796569Y-15050814D01*
X11768153Y-15043200D01*
X11768151Y-15043200D01*
X11413335Y-15043200D01*
X11355144Y-15024293D01*
X11343331Y-15014204D01*
X9624496Y-13295369D01*
X9596719Y-13240852D01*
X9595500Y-13225365D01*
X9595500Y-11687148D01*
X9595500Y-11687147D01*
X9573318Y-11604362D01*
X9573318Y-11604361D01*
X9573318Y-11604360D01*
X9530468Y-11530142D01*
X9530466Y-11530140D01*
X9530465Y-11530138D01*
X8985616Y-10985289D01*
X8957841Y-10930775D01*
X8964157Y-10877405D01*
X9010130Y-10766420D01*
X9050500Y-10563465D01*
X9050500Y-10356535D01*
X9050499Y-10356532D01*
X9489500Y-10356532D01*
X9489500Y-10563467D01*
X9529869Y-10766418D01*
X9609058Y-10957597D01*
X9724020Y-11129651D01*
X9724023Y-11129655D01*
X9870345Y-11275977D01*
X10042402Y-11390941D01*
X10233580Y-11470130D01*
X10436535Y-11510500D01*
X10436536Y-11510500D01*
X10643464Y-11510500D01*
X10643465Y-11510500D01*
X10846420Y-11470130D01*
X11037598Y-11390941D01*
X11209655Y-11275977D01*
X11355977Y-11129655D01*
X11470941Y-10957598D01*
X11550130Y-10766420D01*
X11590500Y-10563465D01*
X11590500Y-10356535D01*
X11550130Y-10153580D01*
X11470941Y-9962402D01*
X11355977Y-9790345D01*
X11209655Y-9644023D01*
X11209651Y-9644020D01*
X11037597Y-9529058D01*
X10846418Y-9449869D01*
X10643467Y-9409500D01*
X10643465Y-9409500D01*
X10436535Y-9409500D01*
X10436532Y-9409500D01*
X10233581Y-9449869D01*
X10042402Y-9529058D01*
X9870348Y-9644020D01*
X9724020Y-9790348D01*
X9609058Y-9962402D01*
X9529869Y-10153581D01*
X9489500Y-10356532D01*
X9050499Y-10356532D01*
X9010130Y-10153580D01*
X8930941Y-9962402D01*
X8815977Y-9790345D01*
X8669655Y-9644023D01*
X8669651Y-9644020D01*
X8497597Y-9529058D01*
X8306418Y-9449869D01*
X8103467Y-9409500D01*
X8103465Y-9409500D01*
X7896535Y-9409500D01*
X7896532Y-9409500D01*
X7693581Y-9449869D01*
X7502402Y-9529058D01*
X7330348Y-9644020D01*
X7330345Y-9644022D01*
X7330345Y-9644023D01*
X7257801Y-9716566D01*
X7203287Y-9744342D01*
X7142855Y-9734771D01*
X7099590Y-9691506D01*
X7088800Y-9646561D01*
X7088800Y-9379733D01*
X7107707Y-9321542D01*
X7117790Y-9309735D01*
X8867859Y-7559666D01*
X8867862Y-7559665D01*
X8928465Y-7499062D01*
X8971318Y-7424838D01*
X8981394Y-7387235D01*
X8993501Y-7342052D01*
X8993501Y-7256347D01*
X8993501Y-7250285D01*
X8993500Y-7250267D01*
X8993500Y-5424935D01*
X9012407Y-5366744D01*
X9022496Y-5354931D01*
X12099631Y-2277796D01*
X12154148Y-2250019D01*
X12169635Y-2248800D01*
X12600500Y-2248800D01*
X12658691Y-2267707D01*
G37*
%TD.AperFunction*%
%TA.AperFunction,Conductor*%
G36*
X61002992Y-500681D02*
G01*
X61295310Y-518362D01*
X61307165Y-519802D01*
X61592281Y-572051D01*
X61603883Y-574911D01*
X61880623Y-661147D01*
X61891786Y-665380D01*
X62156117Y-784346D01*
X62156119Y-784347D01*
X62166702Y-789902D01*
X62414758Y-939856D01*
X62424583Y-946638D01*
X62652755Y-1125399D01*
X62661704Y-1133326D01*
X62866673Y-1338295D01*
X62874599Y-1347243D01*
X62995481Y-1501538D01*
X63053356Y-1575409D01*
X63060147Y-1585248D01*
X63210096Y-1833295D01*
X63215652Y-1843880D01*
X63334616Y-2108206D01*
X63338855Y-2119384D01*
X63425087Y-2396113D01*
X63427948Y-2407721D01*
X63480196Y-2692827D01*
X63481637Y-2704694D01*
X63499319Y-2997006D01*
X63499500Y-3002984D01*
X63499500Y-56997015D01*
X63499319Y-57002993D01*
X63481637Y-57295304D01*
X63480196Y-57307171D01*
X63427948Y-57592277D01*
X63425087Y-57603885D01*
X63338855Y-57880615D01*
X63334616Y-57891793D01*
X63215652Y-58156118D01*
X63210096Y-58166703D01*
X63060142Y-58414758D01*
X63053356Y-58424590D01*
X62874599Y-58652755D01*
X62866672Y-58661704D01*
X62661704Y-58866672D01*
X62652755Y-58874599D01*
X62424590Y-59053356D01*
X62414758Y-59060142D01*
X62177212Y-59203744D01*
X62166703Y-59210097D01*
X62156118Y-59215652D01*
X61891793Y-59334616D01*
X61880615Y-59338855D01*
X61603885Y-59425087D01*
X61592277Y-59427948D01*
X61307171Y-59480196D01*
X61295304Y-59481637D01*
X61023993Y-59498048D01*
X61002991Y-59499319D01*
X60997015Y-59499500D01*
X3002985Y-59499500D01*
X2997008Y-59499319D01*
X2973822Y-59497916D01*
X2704694Y-59481637D01*
X2692827Y-59480196D01*
X2407721Y-59427948D01*
X2396113Y-59425087D01*
X2119384Y-59338855D01*
X2108206Y-59334616D01*
X1843880Y-59215652D01*
X1833295Y-59210096D01*
X1672942Y-59113160D01*
X1585245Y-59060145D01*
X1575413Y-59053358D01*
X1347243Y-58874599D01*
X1338295Y-58866673D01*
X1133326Y-58661704D01*
X1125399Y-58652755D01*
X946638Y-58424583D01*
X939856Y-58414758D01*
X789902Y-58166703D01*
X784347Y-58156119D01*
X665383Y-57891793D01*
X661147Y-57880623D01*
X574911Y-57603883D01*
X572051Y-57592278D01*
X572051Y-57592277D01*
X519802Y-57307165D01*
X518362Y-57295304D01*
X513972Y-57222731D01*
X500681Y-57002992D01*
X500500Y-56997015D01*
X500500Y-55878710D01*
X2149500Y-55878710D01*
X2149500Y-56121289D01*
X2181161Y-56361781D01*
X2181161Y-56361786D01*
X2243944Y-56596092D01*
X2243948Y-56596105D01*
X2336772Y-56820204D01*
X2336774Y-56820208D01*
X2336776Y-56820212D01*
X2440577Y-57000000D01*
X2458066Y-57030292D01*
X2605729Y-57222731D01*
X2605731Y-57222733D01*
X2605735Y-57222738D01*
X2777262Y-57394265D01*
X2777266Y-57394268D01*
X2777268Y-57394270D01*
X2933630Y-57514250D01*
X2969711Y-57541936D01*
X3179788Y-57663224D01*
X3403900Y-57756054D01*
X3638211Y-57818838D01*
X3878712Y-57850500D01*
X3878713Y-57850500D01*
X4121287Y-57850500D01*
X4121288Y-57850500D01*
X4361789Y-57818838D01*
X4596100Y-57756054D01*
X4820212Y-57663224D01*
X5030289Y-57541936D01*
X5222738Y-57394265D01*
X5394265Y-57222738D01*
X5541936Y-57030289D01*
X5663224Y-56820212D01*
X5756054Y-56596100D01*
X5818838Y-56361789D01*
X5850500Y-56121288D01*
X5850500Y-55878712D01*
X5850500Y-55878710D01*
X58149500Y-55878710D01*
X58149500Y-56121289D01*
X58181161Y-56361781D01*
X58181161Y-56361786D01*
X58243944Y-56596092D01*
X58243948Y-56596105D01*
X58336772Y-56820204D01*
X58336774Y-56820208D01*
X58336776Y-56820212D01*
X58440577Y-57000000D01*
X58458066Y-57030292D01*
X58605729Y-57222731D01*
X58605731Y-57222733D01*
X58605735Y-57222738D01*
X58777262Y-57394265D01*
X58777266Y-57394268D01*
X58777268Y-57394270D01*
X58933630Y-57514250D01*
X58969711Y-57541936D01*
X59179788Y-57663224D01*
X59403900Y-57756054D01*
X59638211Y-57818838D01*
X59878712Y-57850500D01*
X59878713Y-57850500D01*
X60121287Y-57850500D01*
X60121288Y-57850500D01*
X60361789Y-57818838D01*
X60596100Y-57756054D01*
X60820212Y-57663224D01*
X61030289Y-57541936D01*
X61222738Y-57394265D01*
X61394265Y-57222738D01*
X61541936Y-57030289D01*
X61663224Y-56820212D01*
X61756054Y-56596100D01*
X61818838Y-56361789D01*
X61850500Y-56121288D01*
X61850500Y-55878712D01*
X61818838Y-55638211D01*
X61756054Y-55403900D01*
X61663224Y-55179788D01*
X61541936Y-54969711D01*
X61467075Y-54872150D01*
X61394270Y-54777268D01*
X61394268Y-54777266D01*
X61394265Y-54777262D01*
X61222738Y-54605735D01*
X61222733Y-54605731D01*
X61222731Y-54605729D01*
X61030292Y-54458066D01*
X61030289Y-54458064D01*
X60820212Y-54336776D01*
X60820208Y-54336774D01*
X60820204Y-54336772D01*
X60596105Y-54243948D01*
X60596104Y-54243947D01*
X60596100Y-54243946D01*
X60361789Y-54181162D01*
X60361786Y-54181161D01*
X60361784Y-54181161D01*
X60121289Y-54149500D01*
X60121288Y-54149500D01*
X59878712Y-54149500D01*
X59878710Y-54149500D01*
X59638218Y-54181161D01*
X59638213Y-54181161D01*
X59403907Y-54243944D01*
X59403894Y-54243948D01*
X59179795Y-54336772D01*
X58969707Y-54458066D01*
X58777268Y-54605729D01*
X58605729Y-54777268D01*
X58458066Y-54969707D01*
X58336772Y-55179795D01*
X58243948Y-55403894D01*
X58243944Y-55403907D01*
X58181161Y-55638213D01*
X58181161Y-55638218D01*
X58149500Y-55878710D01*
X5850500Y-55878710D01*
X5818838Y-55638211D01*
X5756054Y-55403900D01*
X5663224Y-55179788D01*
X5541936Y-54969711D01*
X5467075Y-54872150D01*
X5394270Y-54777268D01*
X5394268Y-54777266D01*
X5394265Y-54777262D01*
X5222738Y-54605735D01*
X5222733Y-54605731D01*
X5222731Y-54605729D01*
X5030292Y-54458066D01*
X5030289Y-54458064D01*
X4820212Y-54336776D01*
X4820208Y-54336774D01*
X4820204Y-54336772D01*
X4596105Y-54243948D01*
X4596104Y-54243947D01*
X4596100Y-54243946D01*
X4361789Y-54181162D01*
X4361786Y-54181161D01*
X4361784Y-54181161D01*
X4121289Y-54149500D01*
X4121288Y-54149500D01*
X3878712Y-54149500D01*
X3878710Y-54149500D01*
X3638218Y-54181161D01*
X3638213Y-54181161D01*
X3403907Y-54243944D01*
X3403894Y-54243948D01*
X3179795Y-54336772D01*
X2969707Y-54458066D01*
X2777268Y-54605729D01*
X2605729Y-54777268D01*
X2458066Y-54969707D01*
X2336772Y-55179795D01*
X2243948Y-55403894D01*
X2243944Y-55403907D01*
X2181161Y-55638213D01*
X2181161Y-55638218D01*
X2149500Y-55878710D01*
X500500Y-55878710D01*
X500500Y-52595726D01*
X8849500Y-52595726D01*
X8849500Y-54604265D01*
X8852353Y-54634694D01*
X8852353Y-54634696D01*
X8852354Y-54634698D01*
X8892243Y-54748697D01*
X8897208Y-54762885D01*
X8977845Y-54872144D01*
X8977847Y-54872146D01*
X8977850Y-54872150D01*
X8977853Y-54872152D01*
X8977855Y-54872154D01*
X9087114Y-54952791D01*
X9087116Y-54952791D01*
X9087118Y-54952793D01*
X9215302Y-54997646D01*
X9245735Y-55000500D01*
X11254264Y-55000499D01*
X11254265Y-55000499D01*
X11260350Y-54999928D01*
X11284698Y-54997646D01*
X11412882Y-54952793D01*
X11522150Y-54872150D01*
X11602793Y-54762882D01*
X11647646Y-54634698D01*
X11650500Y-54604265D01*
X11650499Y-52595736D01*
X11647646Y-52565302D01*
X11602793Y-52437118D01*
X11602791Y-52437116D01*
X11602791Y-52437114D01*
X11522154Y-52327855D01*
X11522152Y-52327853D01*
X11522150Y-52327850D01*
X11522146Y-52327847D01*
X11522144Y-52327845D01*
X11412885Y-52247208D01*
X11375092Y-52233984D01*
X11284698Y-52202354D01*
X11284696Y-52202353D01*
X11284694Y-52202353D01*
X11254272Y-52199500D01*
X9245734Y-52199500D01*
X9215305Y-52202353D01*
X9087114Y-52247208D01*
X8977855Y-52327845D01*
X8977845Y-52327855D01*
X8897208Y-52437114D01*
X8852353Y-52565305D01*
X8849500Y-52595726D01*
X500500Y-52595726D01*
X500500Y-23635108D01*
X4956200Y-23635108D01*
X4956200Y-23766892D01*
X4976643Y-23843186D01*
X4990309Y-23894190D01*
X5056196Y-24008309D01*
X5056198Y-24008311D01*
X5056200Y-24008314D01*
X5149386Y-24101500D01*
X5149388Y-24101501D01*
X5149390Y-24101503D01*
X5263510Y-24167390D01*
X5263508Y-24167390D01*
X5263512Y-24167391D01*
X5263514Y-24167392D01*
X5390808Y-24201500D01*
X5390810Y-24201500D01*
X5522590Y-24201500D01*
X5522592Y-24201500D01*
X5649886Y-24167392D01*
X5649888Y-24167390D01*
X5649890Y-24167390D01*
X5764009Y-24101503D01*
X5764009Y-24101502D01*
X5764014Y-24101500D01*
X5857200Y-24008314D01*
X5913692Y-23910468D01*
X5923090Y-23894190D01*
X5923090Y-23894188D01*
X5923092Y-23894186D01*
X5957200Y-23766892D01*
X5957200Y-23635108D01*
X5923092Y-23507814D01*
X5923090Y-23507811D01*
X5923090Y-23507809D01*
X5857203Y-23393690D01*
X5857199Y-23393684D01*
X5811196Y-23347681D01*
X5783419Y-23293164D01*
X5782200Y-23277678D01*
X5782200Y-9669133D01*
X5801107Y-9610942D01*
X5811190Y-9599135D01*
X6268797Y-9141528D01*
X6323313Y-9113752D01*
X6383745Y-9123323D01*
X6427010Y-9166588D01*
X6437800Y-9211533D01*
X6437800Y-20529547D01*
X6437800Y-20615253D01*
X6456827Y-20686267D01*
X6460200Y-20711884D01*
X6460200Y-20835692D01*
X6479095Y-20906208D01*
X6494309Y-20962990D01*
X6560196Y-21077109D01*
X6560198Y-21077111D01*
X6560200Y-21077114D01*
X6653386Y-21170300D01*
X6653388Y-21170301D01*
X6653390Y-21170303D01*
X6767510Y-21236190D01*
X6767508Y-21236190D01*
X6767512Y-21236191D01*
X6767514Y-21236192D01*
X6894808Y-21270300D01*
X6894810Y-21270300D01*
X7026590Y-21270300D01*
X7026592Y-21270300D01*
X7153886Y-21236192D01*
X7153888Y-21236190D01*
X7153890Y-21236190D01*
X7268009Y-21170303D01*
X7268009Y-21170302D01*
X7268014Y-21170300D01*
X7361200Y-21077114D01*
X7383810Y-21037953D01*
X7427090Y-20962990D01*
X7427090Y-20962988D01*
X7427092Y-20962986D01*
X7461200Y-20835692D01*
X7461200Y-20703908D01*
X7427092Y-20576614D01*
X7427090Y-20576611D01*
X7427090Y-20576609D01*
X7361203Y-20462490D01*
X7361201Y-20462488D01*
X7361200Y-20462486D01*
X7268014Y-20369300D01*
X7268011Y-20369298D01*
X7268009Y-20369296D01*
X7153885Y-20303407D01*
X7149910Y-20301760D01*
X7103386Y-20262022D01*
X7088800Y-20210298D01*
X7088800Y-14149500D01*
X7107707Y-14091309D01*
X7157207Y-14055345D01*
X7187800Y-14050500D01*
X8549165Y-14050500D01*
X8607356Y-14069407D01*
X8619169Y-14079496D01*
X10734935Y-16195262D01*
X10734934Y-16195262D01*
X10767273Y-16227600D01*
X10795538Y-16255865D01*
X10869762Y-16298718D01*
X10952547Y-16320900D01*
X11042378Y-16320900D01*
X11100569Y-16339807D01*
X11112381Y-16349896D01*
X11158384Y-16395899D01*
X11158390Y-16395903D01*
X11272510Y-16461790D01*
X11272508Y-16461790D01*
X11272512Y-16461791D01*
X11272514Y-16461792D01*
X11399808Y-16495900D01*
X11399810Y-16495900D01*
X11531590Y-16495900D01*
X11531592Y-16495900D01*
X11658886Y-16461792D01*
X11658888Y-16461790D01*
X11658890Y-16461790D01*
X11773009Y-16395903D01*
X11773009Y-16395902D01*
X11773014Y-16395900D01*
X11866200Y-16302714D01*
X11923499Y-16203468D01*
X11968968Y-16162529D01*
X12029818Y-16156133D01*
X12079239Y-16182966D01*
X15749638Y-19853365D01*
X15749640Y-19853366D01*
X15749641Y-19853367D01*
X15749642Y-19853368D01*
X15823857Y-19896216D01*
X15823855Y-19896216D01*
X15823859Y-19896217D01*
X15823861Y-19896218D01*
X15906647Y-19918400D01*
X17535778Y-19918400D01*
X17593969Y-19937307D01*
X17605781Y-19947396D01*
X17651784Y-19993399D01*
X17651790Y-19993403D01*
X17765910Y-20059290D01*
X17765908Y-20059290D01*
X17765912Y-20059291D01*
X17765914Y-20059292D01*
X17893208Y-20093400D01*
X17893210Y-20093400D01*
X18024990Y-20093400D01*
X18024992Y-20093400D01*
X18152286Y-20059292D01*
X18162001Y-20053682D01*
X18221848Y-20040960D01*
X18277744Y-20065844D01*
X18297239Y-20089918D01*
X18360396Y-20199309D01*
X18360398Y-20199311D01*
X18360400Y-20199314D01*
X18453586Y-20292500D01*
X18453588Y-20292501D01*
X18453590Y-20292503D01*
X18567710Y-20358390D01*
X18567708Y-20358390D01*
X18567712Y-20358391D01*
X18567714Y-20358392D01*
X18695008Y-20392500D01*
X18695010Y-20392500D01*
X18826790Y-20392500D01*
X18826792Y-20392500D01*
X18954086Y-20358392D01*
X18954088Y-20358390D01*
X18954090Y-20358390D01*
X19073834Y-20289256D01*
X19074768Y-20290875D01*
X19124200Y-20273366D01*
X19182868Y-20290739D01*
X19220119Y-20339278D01*
X19225800Y-20372332D01*
X19225800Y-20908965D01*
X19206893Y-20967156D01*
X19196803Y-20978969D01*
X18722615Y-21453156D01*
X18668099Y-21480933D01*
X18607667Y-21471362D01*
X18566875Y-21432652D01*
X18566392Y-21431816D01*
X18566392Y-21431814D01*
X18500500Y-21317686D01*
X18407314Y-21224500D01*
X18407311Y-21224498D01*
X18407309Y-21224496D01*
X18293189Y-21158609D01*
X18293191Y-21158609D01*
X18226232Y-21140668D01*
X18165892Y-21124500D01*
X18099500Y-21124500D01*
X18041309Y-21105593D01*
X18005345Y-21056093D01*
X18000500Y-21025500D01*
X18000500Y-20909109D01*
X18000500Y-20909108D01*
X17966392Y-20781814D01*
X17966390Y-20781811D01*
X17966390Y-20781809D01*
X17900503Y-20667690D01*
X17900501Y-20667688D01*
X17900500Y-20667686D01*
X17807314Y-20574500D01*
X17807311Y-20574498D01*
X17807309Y-20574496D01*
X17693189Y-20508609D01*
X17693191Y-20508609D01*
X17643799Y-20495375D01*
X17565892Y-20474500D01*
X17434108Y-20474500D01*
X17356200Y-20495375D01*
X17306809Y-20508609D01*
X17192690Y-20574496D01*
X17192684Y-20574500D01*
X17146681Y-20620504D01*
X17092164Y-20648281D01*
X17076678Y-20649500D01*
X13548932Y-20649500D01*
X13548916Y-20649499D01*
X13542853Y-20649499D01*
X13457147Y-20649499D01*
X13457144Y-20649499D01*
X13374361Y-20671681D01*
X13350834Y-20685265D01*
X13337250Y-20693108D01*
X13313721Y-20706692D01*
X13300137Y-20714535D01*
X13239534Y-20775137D01*
X13239535Y-20775138D01*
X5589531Y-28425142D01*
X5546682Y-28499360D01*
X5546681Y-28499360D01*
X5546682Y-28499361D01*
X5524500Y-28582147D01*
X5524500Y-29176678D01*
X5505593Y-29234869D01*
X5495504Y-29246681D01*
X5449500Y-29292684D01*
X5449496Y-29292690D01*
X5383609Y-29406809D01*
X5383608Y-29406814D01*
X5349500Y-29534108D01*
X5349500Y-29665892D01*
X5379579Y-29778151D01*
X5383609Y-29793190D01*
X5449496Y-29907309D01*
X5449498Y-29907311D01*
X5449500Y-29907314D01*
X5542686Y-30000500D01*
X5542688Y-30000501D01*
X5542690Y-30000503D01*
X5656810Y-30066390D01*
X5656808Y-30066390D01*
X5656812Y-30066391D01*
X5656814Y-30066392D01*
X5784108Y-30100500D01*
X5784110Y-30100500D01*
X5915890Y-30100500D01*
X5915892Y-30100500D01*
X6043186Y-30066392D01*
X6043188Y-30066390D01*
X6043190Y-30066390D01*
X6157309Y-30000503D01*
X6157309Y-30000502D01*
X6157314Y-30000500D01*
X6250500Y-29907314D01*
X6287522Y-29843190D01*
X6316390Y-29793190D01*
X6316390Y-29793188D01*
X6316392Y-29793186D01*
X6350500Y-29665892D01*
X6350500Y-29534108D01*
X6316392Y-29406814D01*
X6316390Y-29406811D01*
X6316390Y-29406809D01*
X6250503Y-29292690D01*
X6250499Y-29292684D01*
X6204496Y-29246681D01*
X6176719Y-29192164D01*
X6175500Y-29176678D01*
X6175500Y-28800834D01*
X6194407Y-28742643D01*
X6204496Y-28730830D01*
X13605830Y-21329496D01*
X13660347Y-21301719D01*
X13675834Y-21300500D01*
X14925166Y-21300500D01*
X14983357Y-21319407D01*
X15019321Y-21368907D01*
X15019321Y-21430093D01*
X14995171Y-21469501D01*
X12432359Y-24032314D01*
X9889532Y-26575141D01*
X9889531Y-26575142D01*
X9846682Y-26649360D01*
X9846681Y-26649360D01*
X9846682Y-26649361D01*
X9824500Y-26732147D01*
X9824500Y-29226678D01*
X9805593Y-29284869D01*
X9795504Y-29296681D01*
X9749500Y-29342684D01*
X9749496Y-29342690D01*
X9683609Y-29456809D01*
X9683608Y-29456814D01*
X9649500Y-29584108D01*
X9649500Y-29715892D01*
X9670211Y-29793186D01*
X9683609Y-29843190D01*
X9749496Y-29957309D01*
X9749498Y-29957311D01*
X9749500Y-29957314D01*
X9842686Y-30050500D01*
X9842688Y-30050501D01*
X9842690Y-30050503D01*
X9956810Y-30116390D01*
X9956808Y-30116390D01*
X9956812Y-30116391D01*
X9956814Y-30116392D01*
X10084108Y-30150500D01*
X10084110Y-30150500D01*
X10215890Y-30150500D01*
X10215892Y-30150500D01*
X10343186Y-30116392D01*
X10343188Y-30116390D01*
X10343190Y-30116390D01*
X10457309Y-30050503D01*
X10457309Y-30050502D01*
X10457314Y-30050500D01*
X10550500Y-29957314D01*
X10579368Y-29907314D01*
X10616390Y-29843190D01*
X10616390Y-29843188D01*
X10616392Y-29843186D01*
X10650500Y-29715892D01*
X10650500Y-29584108D01*
X10616392Y-29456814D01*
X10616390Y-29456811D01*
X10616390Y-29456809D01*
X10550503Y-29342690D01*
X10550499Y-29342684D01*
X10504496Y-29296681D01*
X10476719Y-29242164D01*
X10475500Y-29226678D01*
X10475500Y-26950835D01*
X10494407Y-26892644D01*
X10504496Y-26880831D01*
X15405831Y-21979496D01*
X15460348Y-21951719D01*
X15475835Y-21950500D01*
X17676678Y-21950500D01*
X17734869Y-21969407D01*
X17746681Y-21979496D01*
X17792684Y-22025499D01*
X17792690Y-22025503D01*
X17907652Y-22091877D01*
X17948593Y-22137346D01*
X17954989Y-22198197D01*
X17928156Y-22247617D01*
X16880269Y-23295504D01*
X16825752Y-23323281D01*
X16810265Y-23324500D01*
X16303322Y-23324500D01*
X16245131Y-23305593D01*
X16233319Y-23295504D01*
X16187315Y-23249500D01*
X16187309Y-23249496D01*
X16073189Y-23183609D01*
X16073191Y-23183609D01*
X16023799Y-23170375D01*
X15945892Y-23149500D01*
X15814108Y-23149500D01*
X15736200Y-23170375D01*
X15686809Y-23183609D01*
X15572690Y-23249496D01*
X15479496Y-23342690D01*
X15413609Y-23456809D01*
X15413608Y-23456814D01*
X15379500Y-23584108D01*
X15379500Y-23715892D01*
X15401148Y-23796683D01*
X15413609Y-23843190D01*
X15479496Y-23957309D01*
X15479498Y-23957311D01*
X15479500Y-23957314D01*
X15525505Y-24003319D01*
X15553281Y-24057834D01*
X15554500Y-24073321D01*
X15554500Y-24457147D01*
X15554500Y-24542853D01*
X15557284Y-24553242D01*
X15576683Y-24625643D01*
X15619531Y-24699857D01*
X15619533Y-24699859D01*
X15619535Y-24699862D01*
X18780138Y-27860465D01*
X18780140Y-27860466D01*
X18780142Y-27860468D01*
X18854357Y-27903316D01*
X18854355Y-27903316D01*
X18854359Y-27903317D01*
X18854361Y-27903318D01*
X18937147Y-27925500D01*
X19926678Y-27925500D01*
X19984869Y-27944407D01*
X19996681Y-27954496D01*
X20042684Y-28000499D01*
X20042690Y-28000503D01*
X20156810Y-28066390D01*
X20156808Y-28066390D01*
X20156812Y-28066391D01*
X20156814Y-28066392D01*
X20284108Y-28100500D01*
X20284110Y-28100500D01*
X20415890Y-28100500D01*
X20415892Y-28100500D01*
X20543186Y-28066392D01*
X20543188Y-28066390D01*
X20543190Y-28066390D01*
X20657309Y-28000503D01*
X20657309Y-28000502D01*
X20657314Y-28000500D01*
X20750500Y-27907314D01*
X20816392Y-27793186D01*
X20821321Y-27774790D01*
X20854642Y-27723477D01*
X20911763Y-27701549D01*
X20942567Y-27704785D01*
X20984047Y-27715900D01*
X21419178Y-27715900D01*
X21477369Y-27734807D01*
X21489181Y-27744896D01*
X21535184Y-27790899D01*
X21535190Y-27790903D01*
X21649310Y-27856790D01*
X21649308Y-27856790D01*
X21649312Y-27856791D01*
X21649314Y-27856792D01*
X21776608Y-27890900D01*
X21776610Y-27890900D01*
X21908390Y-27890900D01*
X21908392Y-27890900D01*
X22035686Y-27856792D01*
X22035688Y-27856790D01*
X22035690Y-27856790D01*
X22149809Y-27790903D01*
X22149809Y-27790902D01*
X22149814Y-27790900D01*
X22243000Y-27697714D01*
X22245307Y-27693718D01*
X22308890Y-27583590D01*
X22308890Y-27583588D01*
X22308892Y-27583586D01*
X22343000Y-27456292D01*
X22343000Y-27324508D01*
X22308892Y-27197214D01*
X22308890Y-27197211D01*
X22308890Y-27197209D01*
X22243003Y-27083090D01*
X22243001Y-27083088D01*
X22243000Y-27083086D01*
X22149814Y-26989900D01*
X22149811Y-26989898D01*
X22149809Y-26989896D01*
X22035689Y-26924009D01*
X22035691Y-26924009D01*
X21982761Y-26909827D01*
X21908392Y-26889900D01*
X21776608Y-26889900D01*
X21702239Y-26909827D01*
X21649309Y-26924009D01*
X21535190Y-26989896D01*
X21535184Y-26989900D01*
X21489181Y-27035904D01*
X21434664Y-27063681D01*
X21419178Y-27064900D01*
X21202735Y-27064900D01*
X21144544Y-27045993D01*
X21132731Y-27035904D01*
X18828840Y-24732013D01*
X18801063Y-24677496D01*
X18810634Y-24617064D01*
X18853899Y-24573799D01*
X18873055Y-24566446D01*
X18873181Y-24566393D01*
X18873186Y-24566392D01*
X18987314Y-24500500D01*
X18987315Y-24500499D01*
X19033319Y-24454496D01*
X19087836Y-24426719D01*
X19103322Y-24425500D01*
X23174165Y-24425500D01*
X23232356Y-24444407D01*
X23244169Y-24454496D01*
X23421209Y-24631536D01*
X23448986Y-24686053D01*
X23439415Y-24746485D01*
X23436947Y-24751029D01*
X23433608Y-24756814D01*
X23399500Y-24884108D01*
X23399500Y-25015892D01*
X23429579Y-25128151D01*
X23433609Y-25143190D01*
X23499496Y-25257309D01*
X23499498Y-25257311D01*
X23499500Y-25257314D01*
X23592686Y-25350500D01*
X23592688Y-25350501D01*
X23592690Y-25350503D01*
X23706810Y-25416390D01*
X23706808Y-25416390D01*
X23706812Y-25416391D01*
X23706814Y-25416392D01*
X23834108Y-25450500D01*
X23834110Y-25450500D01*
X23965890Y-25450500D01*
X23965892Y-25450500D01*
X24093186Y-25416392D01*
X24102898Y-25410785D01*
X24162746Y-25398062D01*
X24218642Y-25422947D01*
X24249236Y-25475934D01*
X24251400Y-25496520D01*
X24251400Y-26525365D01*
X24232493Y-26583556D01*
X24222404Y-26595369D01*
X15489769Y-35328004D01*
X15435252Y-35355781D01*
X15419765Y-35357000D01*
X15354708Y-35357000D01*
X15276800Y-35377875D01*
X15227409Y-35391109D01*
X15113290Y-35456996D01*
X15020096Y-35550190D01*
X14954209Y-35664309D01*
X14939505Y-35719186D01*
X14920100Y-35791608D01*
X14920100Y-35923392D01*
X14936963Y-35986326D01*
X14954209Y-36050690D01*
X15020096Y-36164809D01*
X15020098Y-36164811D01*
X15020100Y-36164814D01*
X15113286Y-36258000D01*
X15113288Y-36258001D01*
X15113290Y-36258003D01*
X15227410Y-36323890D01*
X15227408Y-36323890D01*
X15227412Y-36323891D01*
X15227414Y-36323892D01*
X15354708Y-36358000D01*
X15354710Y-36358000D01*
X15486490Y-36358000D01*
X15486492Y-36358000D01*
X15613786Y-36323892D01*
X15613788Y-36323890D01*
X15613790Y-36323890D01*
X15727909Y-36258003D01*
X15727909Y-36258002D01*
X15727914Y-36258000D01*
X15821100Y-36164814D01*
X15821103Y-36164809D01*
X15886990Y-36050690D01*
X15886990Y-36050688D01*
X15886992Y-36050686D01*
X15921100Y-35923392D01*
X15921100Y-35858333D01*
X15940007Y-35800142D01*
X15950090Y-35788335D01*
X24776759Y-26961666D01*
X24776762Y-26961665D01*
X24837365Y-26901062D01*
X24866765Y-26850138D01*
X24912233Y-26809200D01*
X24973083Y-26802804D01*
X25026071Y-26833397D01*
X25050958Y-26889292D01*
X25051500Y-26899641D01*
X25051500Y-33346665D01*
X25032593Y-33404856D01*
X25022504Y-33416669D01*
X23255069Y-35184104D01*
X23200552Y-35211881D01*
X23185065Y-35213100D01*
X23120008Y-35213100D01*
X23009321Y-35242757D01*
X22948221Y-35239555D01*
X22900671Y-35201050D01*
X22884700Y-35147131D01*
X22884700Y-32846963D01*
X22903607Y-32788772D01*
X22913690Y-32776965D01*
X23094113Y-32596543D01*
X23170774Y-32481811D01*
X23223580Y-32354329D01*
X23250499Y-32218994D01*
X23250499Y-32081006D01*
X23223580Y-31945672D01*
X23170774Y-31818189D01*
X23094113Y-31703457D01*
X22996543Y-31605887D01*
X22881811Y-31529226D01*
X22881812Y-31529226D01*
X22881810Y-31529225D01*
X22754331Y-31476421D01*
X22754325Y-31476419D01*
X22618996Y-31449501D01*
X22618994Y-31449501D01*
X22481006Y-31449501D01*
X22481003Y-31449501D01*
X22345673Y-31476419D01*
X22345667Y-31476421D01*
X22218190Y-31529225D01*
X22218184Y-31529228D01*
X22103457Y-31605886D01*
X21640090Y-32069251D01*
X21640085Y-32069257D01*
X21563423Y-32183991D01*
X21510620Y-32311470D01*
X21510620Y-32311472D01*
X21493824Y-32395912D01*
X21483700Y-32446808D01*
X21483700Y-44834634D01*
X21464793Y-44892825D01*
X21454704Y-44904638D01*
X14154543Y-52204798D01*
X14100026Y-52232575D01*
X14069052Y-52232575D01*
X13860225Y-52199500D01*
X13860222Y-52199500D01*
X13639778Y-52199500D01*
X13639775Y-52199500D01*
X13422051Y-52233984D01*
X13212400Y-52302102D01*
X13015980Y-52402183D01*
X12926806Y-52466971D01*
X12837635Y-52531758D01*
X12681758Y-52687635D01*
X12616971Y-52776806D01*
X12552183Y-52865980D01*
X12452102Y-53062400D01*
X12383984Y-53272051D01*
X12349500Y-53489774D01*
X12349500Y-53710225D01*
X12383984Y-53927948D01*
X12452102Y-54137599D01*
X12452104Y-54137602D01*
X12452105Y-54137606D01*
X12552185Y-54334022D01*
X12681758Y-54512365D01*
X12837635Y-54668242D01*
X13015978Y-54797815D01*
X13212394Y-54897895D01*
X13422049Y-54966015D01*
X13509140Y-54979809D01*
X13639775Y-55000500D01*
X13639778Y-55000500D01*
X13860225Y-55000500D01*
X13969086Y-54983257D01*
X14077951Y-54966015D01*
X14287606Y-54897895D01*
X14484022Y-54797815D01*
X14662365Y-54668242D01*
X14818242Y-54512365D01*
X14947815Y-54334022D01*
X15047895Y-54137606D01*
X15116015Y-53927951D01*
X15150500Y-53710222D01*
X15150500Y-53489778D01*
X15150500Y-53489774D01*
X15117424Y-53280945D01*
X15126995Y-53220513D01*
X15145198Y-53195457D01*
X15744929Y-52595726D01*
X17449500Y-52595726D01*
X17449500Y-54604265D01*
X17452353Y-54634694D01*
X17452353Y-54634696D01*
X17452354Y-54634698D01*
X17492243Y-54748697D01*
X17497208Y-54762885D01*
X17577845Y-54872144D01*
X17577847Y-54872146D01*
X17577850Y-54872150D01*
X17577853Y-54872152D01*
X17577855Y-54872154D01*
X17687114Y-54952791D01*
X17687116Y-54952791D01*
X17687118Y-54952793D01*
X17815302Y-54997646D01*
X17845735Y-55000500D01*
X19854264Y-55000499D01*
X19854265Y-55000499D01*
X19860350Y-54999928D01*
X19884698Y-54997646D01*
X20012882Y-54952793D01*
X20122150Y-54872150D01*
X20202793Y-54762882D01*
X20247646Y-54634698D01*
X20250500Y-54604265D01*
X20250499Y-53489774D01*
X20949500Y-53489774D01*
X20949500Y-53710225D01*
X20983984Y-53927948D01*
X21052102Y-54137599D01*
X21052104Y-54137602D01*
X21052105Y-54137606D01*
X21152185Y-54334022D01*
X21281758Y-54512365D01*
X21437635Y-54668242D01*
X21615978Y-54797815D01*
X21812394Y-54897895D01*
X22022049Y-54966015D01*
X22109140Y-54979809D01*
X22239775Y-55000500D01*
X22239778Y-55000500D01*
X22460225Y-55000500D01*
X22569086Y-54983257D01*
X22677951Y-54966015D01*
X22887606Y-54897895D01*
X23084022Y-54797815D01*
X23262365Y-54668242D01*
X23418242Y-54512365D01*
X23547815Y-54334022D01*
X23647895Y-54137606D01*
X23716015Y-53927951D01*
X23750500Y-53710222D01*
X23750500Y-53489778D01*
X23750500Y-53489774D01*
X23716015Y-53272051D01*
X23716015Y-53272049D01*
X23647895Y-53062394D01*
X23547815Y-52865978D01*
X23418242Y-52687635D01*
X23326333Y-52595726D01*
X26049500Y-52595726D01*
X26049500Y-54604265D01*
X26052353Y-54634694D01*
X26052353Y-54634696D01*
X26052354Y-54634698D01*
X26092243Y-54748697D01*
X26097208Y-54762885D01*
X26177845Y-54872144D01*
X26177847Y-54872146D01*
X26177850Y-54872150D01*
X26177853Y-54872152D01*
X26177855Y-54872154D01*
X26287114Y-54952791D01*
X26287116Y-54952791D01*
X26287118Y-54952793D01*
X26415302Y-54997646D01*
X26445735Y-55000500D01*
X28454264Y-55000499D01*
X28454265Y-55000499D01*
X28460350Y-54999928D01*
X28484698Y-54997646D01*
X28612882Y-54952793D01*
X28722150Y-54872150D01*
X28802793Y-54762882D01*
X28847646Y-54634698D01*
X28850500Y-54604265D01*
X28850499Y-53489774D01*
X29549500Y-53489774D01*
X29549500Y-53710225D01*
X29583984Y-53927948D01*
X29652102Y-54137599D01*
X29652104Y-54137602D01*
X29652105Y-54137606D01*
X29752185Y-54334022D01*
X29881758Y-54512365D01*
X30037635Y-54668242D01*
X30215978Y-54797815D01*
X30412394Y-54897895D01*
X30622049Y-54966015D01*
X30709140Y-54979809D01*
X30839775Y-55000500D01*
X30839778Y-55000500D01*
X31060225Y-55000500D01*
X31169086Y-54983257D01*
X31277951Y-54966015D01*
X31487606Y-54897895D01*
X31684022Y-54797815D01*
X31862365Y-54668242D01*
X32018242Y-54512365D01*
X32147815Y-54334022D01*
X32247895Y-54137606D01*
X32316015Y-53927951D01*
X32350500Y-53710222D01*
X32350500Y-53489778D01*
X32350500Y-53489774D01*
X32316015Y-53272051D01*
X32316015Y-53272049D01*
X32247895Y-53062394D01*
X32147815Y-52865978D01*
X32018242Y-52687635D01*
X31862365Y-52531758D01*
X31684022Y-52402185D01*
X31684021Y-52402184D01*
X31684019Y-52402183D01*
X31594825Y-52356736D01*
X31487606Y-52302105D01*
X31487602Y-52302104D01*
X31487599Y-52302102D01*
X31277948Y-52233984D01*
X31060225Y-52199500D01*
X31060222Y-52199500D01*
X30839778Y-52199500D01*
X30839775Y-52199500D01*
X30622051Y-52233984D01*
X30412400Y-52302102D01*
X30215980Y-52402183D01*
X30126806Y-52466971D01*
X30037635Y-52531758D01*
X29881758Y-52687635D01*
X29816971Y-52776806D01*
X29752183Y-52865980D01*
X29652102Y-53062400D01*
X29583984Y-53272051D01*
X29549500Y-53489774D01*
X28850499Y-53489774D01*
X28850499Y-52595736D01*
X28847646Y-52565302D01*
X28802793Y-52437118D01*
X28802791Y-52437116D01*
X28802791Y-52437114D01*
X28722154Y-52327855D01*
X28722152Y-52327853D01*
X28722150Y-52327850D01*
X28722146Y-52327847D01*
X28722144Y-52327845D01*
X28612885Y-52247208D01*
X28575092Y-52233984D01*
X28484698Y-52202354D01*
X28484696Y-52202353D01*
X28484694Y-52202353D01*
X28454273Y-52199500D01*
X28454265Y-52199500D01*
X28298865Y-52199500D01*
X28240674Y-52180593D01*
X28204710Y-52131093D01*
X28204710Y-52069907D01*
X28228861Y-52030496D01*
X35995254Y-44264103D01*
X55382400Y-44264103D01*
X55382400Y-44402096D01*
X55409320Y-44537427D01*
X55409320Y-44537429D01*
X55462123Y-44664908D01*
X55462124Y-44664910D01*
X55462125Y-44664911D01*
X55538786Y-44779643D01*
X55559965Y-44800822D01*
X55581423Y-44832938D01*
X55597523Y-44871808D01*
X55597523Y-44871809D01*
X55600085Y-44875643D01*
X55674186Y-44986542D01*
X55674189Y-44986545D01*
X55771758Y-45084114D01*
X55886482Y-45160771D01*
X55886493Y-45160777D01*
X55933583Y-45180282D01*
X56013972Y-45213580D01*
X56149307Y-45240500D01*
X56149308Y-45240500D01*
X60840692Y-45240500D01*
X60840693Y-45240500D01*
X60976028Y-45213580D01*
X61103511Y-45160775D01*
X61218242Y-45084114D01*
X61315814Y-44986542D01*
X61392475Y-44871811D01*
X61445280Y-44744328D01*
X61472200Y-44608993D01*
X61472200Y-41931007D01*
X61445280Y-41795672D01*
X61392475Y-41668189D01*
X61392474Y-41668187D01*
X61392471Y-41668182D01*
X61315814Y-41553458D01*
X61218241Y-41455885D01*
X61103517Y-41379228D01*
X61103506Y-41379222D01*
X60976028Y-41326420D01*
X60840695Y-41299500D01*
X60840693Y-41299500D01*
X60089748Y-41299500D01*
X56900252Y-41299500D01*
X56900251Y-41299500D01*
X56900241Y-41299501D01*
X56841772Y-41311132D01*
X56841766Y-41311134D01*
X56775451Y-41355445D01*
X56775445Y-41355451D01*
X56731134Y-41421766D01*
X56731132Y-41421772D01*
X56719501Y-41480241D01*
X56719500Y-41480253D01*
X56719500Y-42519746D01*
X56719501Y-42519758D01*
X56731132Y-42578227D01*
X56731133Y-42578231D01*
X56775448Y-42644552D01*
X56841769Y-42688867D01*
X56886231Y-42697711D01*
X56900241Y-42700498D01*
X56900246Y-42700498D01*
X56900252Y-42700500D01*
X58426007Y-42700500D01*
X59972200Y-42700500D01*
X60030391Y-42719407D01*
X60066355Y-42768907D01*
X60071200Y-42799500D01*
X60071200Y-43740500D01*
X60052293Y-43798691D01*
X60002793Y-43834655D01*
X59972200Y-43839500D01*
X56620964Y-43839500D01*
X56562773Y-43820593D01*
X56550966Y-43810509D01*
X56529443Y-43788986D01*
X56414711Y-43712325D01*
X56414710Y-43712324D01*
X56414708Y-43712323D01*
X56287228Y-43659520D01*
X56151896Y-43632600D01*
X56151894Y-43632600D01*
X56013906Y-43632600D01*
X56013903Y-43632600D01*
X55878572Y-43659520D01*
X55878570Y-43659520D01*
X55751091Y-43712323D01*
X55636360Y-43788983D01*
X55538783Y-43886560D01*
X55462123Y-44001291D01*
X55409320Y-44128770D01*
X55409320Y-44128772D01*
X55382400Y-44264103D01*
X35995254Y-44264103D01*
X45778661Y-34480696D01*
X45833178Y-34452919D01*
X45848665Y-34451700D01*
X50457600Y-34451700D01*
X50515791Y-34470607D01*
X50544107Y-34508678D01*
X50546220Y-34507562D01*
X50549687Y-34514123D01*
X50630324Y-34623382D01*
X50630326Y-34623384D01*
X50630329Y-34623388D01*
X50630332Y-34623390D01*
X50630334Y-34623392D01*
X50739595Y-34704030D01*
X50739596Y-34704030D01*
X50739597Y-34704031D01*
X50867780Y-34748884D01*
X50898204Y-34751737D01*
X50898206Y-34751738D01*
X50898213Y-34751738D01*
X52106752Y-34751738D01*
X52106752Y-34751737D01*
X52137178Y-34748884D01*
X52265361Y-34704031D01*
X52374629Y-34623388D01*
X52455272Y-34514120D01*
X52500125Y-34385937D01*
X52502978Y-34355511D01*
X52502979Y-34355511D01*
X52502979Y-33146965D01*
X52502978Y-33146963D01*
X52500125Y-33116543D01*
X52500125Y-33116539D01*
X52455272Y-32988356D01*
X52374629Y-32879088D01*
X52374625Y-32879085D01*
X52374623Y-32879083D01*
X52265362Y-32798445D01*
X52137182Y-32753593D01*
X52137173Y-32753591D01*
X52106753Y-32750738D01*
X52106745Y-32750738D01*
X50898213Y-32750738D01*
X50898204Y-32750738D01*
X50867784Y-32753591D01*
X50867775Y-32753593D01*
X50739595Y-32798445D01*
X50630334Y-32879083D01*
X50630324Y-32879093D01*
X50549686Y-32988354D01*
X50546221Y-32994912D01*
X50543970Y-32993722D01*
X50514009Y-33033076D01*
X50457627Y-33050700D01*
X45448504Y-33050700D01*
X45313172Y-33077620D01*
X45313170Y-33077620D01*
X45185691Y-33130423D01*
X45070960Y-33207083D01*
X26905883Y-51372160D01*
X26829223Y-51486891D01*
X26776420Y-51614370D01*
X26776420Y-51614372D01*
X26749500Y-51749704D01*
X26749500Y-52100500D01*
X26730593Y-52158691D01*
X26681093Y-52194655D01*
X26650500Y-52199500D01*
X26445734Y-52199500D01*
X26415305Y-52202353D01*
X26287114Y-52247208D01*
X26177855Y-52327845D01*
X26177845Y-52327855D01*
X26097208Y-52437114D01*
X26052353Y-52565305D01*
X26049500Y-52595726D01*
X23326333Y-52595726D01*
X23262365Y-52531758D01*
X23084022Y-52402185D01*
X23084021Y-52402184D01*
X23084019Y-52402183D01*
X22994825Y-52356736D01*
X22887606Y-52302105D01*
X22887602Y-52302104D01*
X22887599Y-52302102D01*
X22677948Y-52233984D01*
X22460225Y-52199500D01*
X22460222Y-52199500D01*
X22239778Y-52199500D01*
X22239775Y-52199500D01*
X22022051Y-52233984D01*
X21812400Y-52302102D01*
X21615980Y-52402183D01*
X21526806Y-52466971D01*
X21437635Y-52531758D01*
X21281758Y-52687635D01*
X21216971Y-52776806D01*
X21152183Y-52865980D01*
X21052102Y-53062400D01*
X20983984Y-53272051D01*
X20949500Y-53489774D01*
X20250499Y-53489774D01*
X20250499Y-52595736D01*
X20247646Y-52565302D01*
X20202793Y-52437118D01*
X20202791Y-52437116D01*
X20202791Y-52437114D01*
X20122154Y-52327855D01*
X20122152Y-52327853D01*
X20122150Y-52327850D01*
X20122146Y-52327847D01*
X20122144Y-52327845D01*
X20012885Y-52247208D01*
X19975092Y-52233984D01*
X19884698Y-52202354D01*
X19884696Y-52202353D01*
X19884694Y-52202353D01*
X19854272Y-52199500D01*
X17845734Y-52199500D01*
X17815305Y-52202353D01*
X17687114Y-52247208D01*
X17577855Y-52327845D01*
X17577845Y-52327855D01*
X17497208Y-52437114D01*
X17452353Y-52565305D01*
X17449500Y-52595726D01*
X15744929Y-52595726D01*
X22728314Y-45612343D01*
X22804975Y-45497611D01*
X22857780Y-45370128D01*
X22884700Y-45234794D01*
X22884700Y-45096806D01*
X22884700Y-36280068D01*
X22903607Y-36221877D01*
X22953107Y-36185913D01*
X23009318Y-36184441D01*
X23120008Y-36214100D01*
X23120010Y-36214100D01*
X23251790Y-36214100D01*
X23251792Y-36214100D01*
X23379086Y-36179992D01*
X23379088Y-36179990D01*
X23379090Y-36179990D01*
X23493209Y-36114103D01*
X23493209Y-36114102D01*
X23493214Y-36114100D01*
X23586400Y-36020914D01*
X23591636Y-36011845D01*
X23652290Y-35906790D01*
X23652290Y-35906788D01*
X23652292Y-35906786D01*
X23686400Y-35779492D01*
X23686400Y-35714434D01*
X23705307Y-35656243D01*
X23715390Y-35644436D01*
X25637465Y-33722362D01*
X25680318Y-33648138D01*
X25702500Y-33565353D01*
X25702500Y-21795921D01*
X25721407Y-21737730D01*
X25731490Y-21725923D01*
X25777500Y-21679914D01*
X25798499Y-21643543D01*
X25843390Y-21565790D01*
X25843390Y-21565788D01*
X25843392Y-21565786D01*
X25877500Y-21438492D01*
X25877500Y-21306708D01*
X25843392Y-21179414D01*
X25843390Y-21179411D01*
X25843390Y-21179409D01*
X25777503Y-21065290D01*
X25777501Y-21065288D01*
X25777500Y-21065286D01*
X25684314Y-20972100D01*
X25684311Y-20972098D01*
X25684309Y-20972096D01*
X25570189Y-20906209D01*
X25570191Y-20906209D01*
X25490610Y-20884886D01*
X25442892Y-20872100D01*
X25311108Y-20872100D01*
X25263390Y-20884886D01*
X25183809Y-20906209D01*
X25069690Y-20972096D01*
X25069685Y-20972100D01*
X25003832Y-21037953D01*
X24949315Y-21065730D01*
X24888883Y-21056158D01*
X24848093Y-21017450D01*
X24830101Y-20986288D01*
X24830100Y-20986286D01*
X24736914Y-20893100D01*
X24736911Y-20893098D01*
X24736909Y-20893096D01*
X24618460Y-20824709D01*
X24599648Y-20803816D01*
X24579750Y-20783918D01*
X24579326Y-20781246D01*
X24577519Y-20779239D01*
X24574578Y-20751266D01*
X24570179Y-20723486D01*
X24571405Y-20721078D01*
X24571123Y-20718389D01*
X24597953Y-20668973D01*
X24641118Y-20625808D01*
X30086900Y-20625808D01*
X30086900Y-20757592D01*
X30116979Y-20869851D01*
X30121009Y-20884890D01*
X30186896Y-20999009D01*
X30186898Y-20999011D01*
X30186900Y-20999014D01*
X30232905Y-21045019D01*
X30260681Y-21099534D01*
X30261900Y-21115021D01*
X30261900Y-35676847D01*
X30261900Y-35762553D01*
X30271972Y-35800142D01*
X30284083Y-35845343D01*
X30326931Y-35919557D01*
X30326934Y-35919561D01*
X30364703Y-35957329D01*
X30392481Y-36011845D01*
X30393700Y-36027333D01*
X30393700Y-36092392D01*
X30413104Y-36164809D01*
X30427809Y-36219690D01*
X30493696Y-36333809D01*
X30493698Y-36333811D01*
X30493700Y-36333814D01*
X30586886Y-36427000D01*
X30586888Y-36427001D01*
X30586890Y-36427003D01*
X30701010Y-36492890D01*
X30701008Y-36492890D01*
X30701012Y-36492891D01*
X30701014Y-36492892D01*
X30828308Y-36527000D01*
X30828310Y-36527000D01*
X30960090Y-36527000D01*
X30960092Y-36527000D01*
X31087386Y-36492892D01*
X31087388Y-36492890D01*
X31087390Y-36492890D01*
X31201509Y-36427003D01*
X31201509Y-36427002D01*
X31201514Y-36427000D01*
X31294700Y-36333814D01*
X31294703Y-36333809D01*
X31360590Y-36219690D01*
X31360590Y-36219688D01*
X31360592Y-36219686D01*
X31394700Y-36092392D01*
X31394700Y-35960608D01*
X31360592Y-35833314D01*
X31360590Y-35833311D01*
X31360590Y-35833309D01*
X31294703Y-35719190D01*
X31294701Y-35719188D01*
X31294700Y-35719186D01*
X31201514Y-35626000D01*
X31201511Y-35625998D01*
X31201509Y-35625996D01*
X31087389Y-35560109D01*
X31087390Y-35560109D01*
X30986277Y-35533016D01*
X30934962Y-35499691D01*
X30913036Y-35442570D01*
X30912900Y-35437389D01*
X30912900Y-21115021D01*
X30931807Y-21056830D01*
X30941890Y-21045023D01*
X30987900Y-20999014D01*
X30987903Y-20999009D01*
X31053790Y-20884890D01*
X31053790Y-20884888D01*
X31053792Y-20884886D01*
X31087900Y-20757592D01*
X31087900Y-20625808D01*
X31053792Y-20498514D01*
X31053790Y-20498511D01*
X31053790Y-20498509D01*
X30987903Y-20384390D01*
X30987901Y-20384388D01*
X30987900Y-20384386D01*
X30894714Y-20291200D01*
X30894711Y-20291198D01*
X30894709Y-20291196D01*
X30780589Y-20225309D01*
X30780591Y-20225309D01*
X30724567Y-20210298D01*
X30653292Y-20191200D01*
X30521508Y-20191200D01*
X30450233Y-20210298D01*
X30394209Y-20225309D01*
X30280090Y-20291196D01*
X30186896Y-20384390D01*
X30121009Y-20498509D01*
X30121008Y-20498514D01*
X30086900Y-20625808D01*
X24641118Y-20625808D01*
X28009331Y-17257596D01*
X28063848Y-17229819D01*
X28079335Y-17228600D01*
X28144390Y-17228600D01*
X28144392Y-17228600D01*
X28271686Y-17194492D01*
X28271688Y-17194490D01*
X28271690Y-17194490D01*
X28385809Y-17128603D01*
X28385809Y-17128602D01*
X28385814Y-17128600D01*
X28479000Y-17035414D01*
X28544892Y-16921286D01*
X28579000Y-16793992D01*
X28579000Y-16662208D01*
X28544892Y-16534914D01*
X28544890Y-16534911D01*
X28544890Y-16534909D01*
X28479003Y-16420790D01*
X28479001Y-16420788D01*
X28479000Y-16420786D01*
X28385814Y-16327600D01*
X28385811Y-16327598D01*
X28385809Y-16327596D01*
X28271689Y-16261709D01*
X28271691Y-16261709D01*
X28222299Y-16248475D01*
X28144392Y-16227600D01*
X28012608Y-16227600D01*
X27934700Y-16248475D01*
X27885309Y-16261709D01*
X27771190Y-16327596D01*
X27677996Y-16420790D01*
X27612109Y-16534909D01*
X27578000Y-16662209D01*
X27578000Y-16727265D01*
X27559093Y-16785456D01*
X27549004Y-16797269D01*
X24241169Y-20105104D01*
X24186652Y-20132881D01*
X24171165Y-20134100D01*
X24148422Y-20134100D01*
X24090231Y-20115193D01*
X24078419Y-20105104D01*
X24032415Y-20059100D01*
X24032409Y-20059096D01*
X23918289Y-19993209D01*
X23918291Y-19993209D01*
X23868899Y-19979975D01*
X23790992Y-19959100D01*
X23659208Y-19959100D01*
X23581300Y-19979975D01*
X23531909Y-19993209D01*
X23417790Y-20059096D01*
X23324596Y-20152290D01*
X23258709Y-20266409D01*
X23239639Y-20337578D01*
X23224600Y-20393708D01*
X23224600Y-20525492D01*
X23237732Y-20574500D01*
X23258709Y-20652790D01*
X23324596Y-20766909D01*
X23324598Y-20766911D01*
X23324600Y-20766914D01*
X23417786Y-20860100D01*
X23417788Y-20860101D01*
X23417790Y-20860103D01*
X23531910Y-20925990D01*
X23531908Y-20925990D01*
X23531912Y-20925991D01*
X23531914Y-20925992D01*
X23659208Y-20960100D01*
X23659210Y-20960100D01*
X23790991Y-20960100D01*
X23790992Y-20960100D01*
X23859699Y-20941690D01*
X23920799Y-20944891D01*
X23968349Y-20983396D01*
X23984185Y-21042496D01*
X23971059Y-21086813D01*
X23963209Y-21100409D01*
X23963208Y-21100414D01*
X23929100Y-21227708D01*
X23929100Y-21359492D01*
X23948703Y-21432652D01*
X23963209Y-21486790D01*
X24029096Y-21600909D01*
X24029098Y-21600911D01*
X24029100Y-21600914D01*
X24122286Y-21694100D01*
X24201900Y-21740065D01*
X24242841Y-21785533D01*
X24251400Y-21825801D01*
X24251400Y-24302065D01*
X24232493Y-24360256D01*
X24182993Y-24396220D01*
X24121807Y-24396220D01*
X24082396Y-24372069D01*
X23877717Y-24167390D01*
X23549862Y-23839535D01*
X23549859Y-23839533D01*
X23549858Y-23839532D01*
X23549857Y-23839531D01*
X23475642Y-23796683D01*
X23475644Y-23796683D01*
X23443521Y-23788076D01*
X23392853Y-23774500D01*
X23392851Y-23774500D01*
X19103322Y-23774500D01*
X19045131Y-23755593D01*
X19033319Y-23745504D01*
X18987314Y-23699500D01*
X18980658Y-23695657D01*
X18873186Y-23633608D01*
X18873184Y-23633607D01*
X18869494Y-23631477D01*
X18828553Y-23586007D01*
X18822157Y-23525157D01*
X18848988Y-23475737D01*
X20377859Y-21946866D01*
X20377862Y-21946865D01*
X20438465Y-21886262D01*
X20481318Y-21812038D01*
X20503501Y-21729252D01*
X20503501Y-21643547D01*
X20503501Y-21637485D01*
X20503500Y-21637467D01*
X20503500Y-18468521D01*
X20522407Y-18410330D01*
X20532490Y-18398523D01*
X20578500Y-18352514D01*
X20578503Y-18352509D01*
X20644390Y-18238390D01*
X20644390Y-18238388D01*
X20644392Y-18238386D01*
X20678500Y-18111092D01*
X20678500Y-17979308D01*
X20644392Y-17852014D01*
X20644390Y-17852011D01*
X20644390Y-17852009D01*
X20578503Y-17737890D01*
X20578501Y-17737888D01*
X20578500Y-17737886D01*
X20485314Y-17644700D01*
X20485311Y-17644698D01*
X20485309Y-17644696D01*
X20371189Y-17578809D01*
X20371191Y-17578809D01*
X20321799Y-17565575D01*
X20243892Y-17544700D01*
X20243890Y-17544700D01*
X20218500Y-17544700D01*
X20160309Y-17525793D01*
X20124345Y-17476293D01*
X20119500Y-17445700D01*
X20119500Y-15008540D01*
X20119501Y-15008527D01*
X20119501Y-14914846D01*
X20119500Y-14914844D01*
X20097318Y-14832061D01*
X20097317Y-14832059D01*
X20065879Y-14777608D01*
X20054465Y-14757838D01*
X19993862Y-14697235D01*
X19993859Y-14697233D01*
X19990404Y-14693777D01*
X19990398Y-14693772D01*
X19568862Y-14272235D01*
X19568857Y-14272231D01*
X19494642Y-14229383D01*
X19494644Y-14229383D01*
X19462521Y-14220776D01*
X19411853Y-14207200D01*
X19411851Y-14207200D01*
X18480847Y-14207200D01*
X18422656Y-14188293D01*
X18386692Y-14138793D01*
X18386692Y-14077607D01*
X18422656Y-14028107D01*
X18461530Y-14011102D01*
X18466420Y-14010130D01*
X18657598Y-13930941D01*
X18829655Y-13815977D01*
X18975977Y-13669655D01*
X19090941Y-13497598D01*
X19170130Y-13306420D01*
X19210500Y-13103465D01*
X19210500Y-12896535D01*
X19210499Y-12896532D01*
X19649500Y-12896532D01*
X19649500Y-13103467D01*
X19689869Y-13306418D01*
X19769058Y-13497597D01*
X19880266Y-13664032D01*
X19884023Y-13669655D01*
X20030345Y-13815977D01*
X20202402Y-13930941D01*
X20393580Y-14010130D01*
X20596535Y-14050500D01*
X20596536Y-14050500D01*
X20803464Y-14050500D01*
X20803465Y-14050500D01*
X21006420Y-14010130D01*
X21197598Y-13930941D01*
X21369655Y-13815977D01*
X21515977Y-13669655D01*
X21630941Y-13497598D01*
X21710130Y-13306420D01*
X21750500Y-13103465D01*
X21750500Y-12896535D01*
X21750499Y-12896532D01*
X24729500Y-12896532D01*
X24729500Y-13103467D01*
X24769869Y-13306418D01*
X24849058Y-13497597D01*
X24960266Y-13664032D01*
X24964023Y-13669655D01*
X25110345Y-13815977D01*
X25282402Y-13930941D01*
X25473580Y-14010130D01*
X25676535Y-14050500D01*
X25676536Y-14050500D01*
X25883464Y-14050500D01*
X25883465Y-14050500D01*
X26086420Y-14010130D01*
X26277598Y-13930941D01*
X26449655Y-13815977D01*
X26595977Y-13669655D01*
X26710941Y-13497598D01*
X26790130Y-13306420D01*
X26830500Y-13103465D01*
X26830500Y-12896535D01*
X26830499Y-12896532D01*
X27269500Y-12896532D01*
X27269500Y-13103467D01*
X27309869Y-13306418D01*
X27389058Y-13497597D01*
X27500266Y-13664032D01*
X27504023Y-13669655D01*
X27650345Y-13815977D01*
X27822402Y-13930941D01*
X28013580Y-14010130D01*
X28216535Y-14050500D01*
X28216536Y-14050500D01*
X28423464Y-14050500D01*
X28423465Y-14050500D01*
X28626420Y-14010130D01*
X28817598Y-13930941D01*
X28989655Y-13815977D01*
X29135977Y-13669655D01*
X29250941Y-13497598D01*
X29330130Y-13306420D01*
X29370500Y-13103465D01*
X29370500Y-12896535D01*
X29370499Y-12896532D01*
X29809500Y-12896532D01*
X29809500Y-13103467D01*
X29849869Y-13306418D01*
X29929058Y-13497597D01*
X30040266Y-13664032D01*
X30044023Y-13669655D01*
X30190345Y-13815977D01*
X30362402Y-13930941D01*
X30553580Y-14010130D01*
X30756535Y-14050500D01*
X30756536Y-14050500D01*
X30963464Y-14050500D01*
X30963465Y-14050500D01*
X31166420Y-14010130D01*
X31357598Y-13930941D01*
X31529655Y-13815977D01*
X31675977Y-13669655D01*
X31790941Y-13497598D01*
X31870130Y-13306420D01*
X31910500Y-13103465D01*
X31910500Y-12896535D01*
X31910499Y-12896532D01*
X32349500Y-12896532D01*
X32349500Y-13103467D01*
X32389869Y-13306418D01*
X32469058Y-13497597D01*
X32580266Y-13664032D01*
X32584023Y-13669655D01*
X32730345Y-13815977D01*
X32902402Y-13930941D01*
X33093580Y-14010130D01*
X33296535Y-14050500D01*
X33296536Y-14050500D01*
X33503464Y-14050500D01*
X33503465Y-14050500D01*
X33706420Y-14010130D01*
X33897598Y-13930941D01*
X34069655Y-13815977D01*
X34215977Y-13669655D01*
X34330941Y-13497598D01*
X34410130Y-13306420D01*
X34450500Y-13103465D01*
X34450500Y-12896535D01*
X34450499Y-12896532D01*
X37429500Y-12896532D01*
X37429500Y-13103467D01*
X37469869Y-13306418D01*
X37549058Y-13497597D01*
X37660266Y-13664032D01*
X37664023Y-13669655D01*
X37810345Y-13815977D01*
X37982402Y-13930941D01*
X38173580Y-14010130D01*
X38376535Y-14050500D01*
X38376536Y-14050500D01*
X38583464Y-14050500D01*
X38583465Y-14050500D01*
X38786420Y-14010130D01*
X38977598Y-13930941D01*
X39149655Y-13815977D01*
X39295977Y-13669655D01*
X39410941Y-13497598D01*
X39490130Y-13306420D01*
X39530500Y-13103465D01*
X39530500Y-12896535D01*
X39530499Y-12896532D01*
X39969500Y-12896532D01*
X39969500Y-13103467D01*
X40009869Y-13306418D01*
X40089058Y-13497597D01*
X40200266Y-13664032D01*
X40204023Y-13669655D01*
X40350345Y-13815977D01*
X40522402Y-13930941D01*
X40713580Y-14010130D01*
X40916535Y-14050500D01*
X40916536Y-14050500D01*
X41123464Y-14050500D01*
X41123465Y-14050500D01*
X41326420Y-14010130D01*
X41517598Y-13930941D01*
X41689655Y-13815977D01*
X41835977Y-13669655D01*
X41950941Y-13497598D01*
X42030130Y-13306420D01*
X42070500Y-13103465D01*
X42070500Y-12896535D01*
X42070499Y-12896532D01*
X42509500Y-12896532D01*
X42509500Y-13103467D01*
X42549869Y-13306418D01*
X42629058Y-13497597D01*
X42740266Y-13664032D01*
X42744023Y-13669655D01*
X42890345Y-13815977D01*
X43062402Y-13930941D01*
X43253580Y-14010130D01*
X43456535Y-14050500D01*
X43456536Y-14050500D01*
X43663464Y-14050500D01*
X43663465Y-14050500D01*
X43866420Y-14010130D01*
X44057598Y-13930941D01*
X44229655Y-13815977D01*
X44375977Y-13669655D01*
X44490941Y-13497598D01*
X44570130Y-13306420D01*
X44610500Y-13103465D01*
X44610500Y-12896535D01*
X44610499Y-12896532D01*
X45049500Y-12896532D01*
X45049500Y-13103467D01*
X45089869Y-13306418D01*
X45169058Y-13497597D01*
X45280266Y-13664032D01*
X45284023Y-13669655D01*
X45430345Y-13815977D01*
X45602402Y-13930941D01*
X45793580Y-14010130D01*
X45996535Y-14050500D01*
X45996536Y-14050500D01*
X46203464Y-14050500D01*
X46203465Y-14050500D01*
X46406420Y-14010130D01*
X46597598Y-13930941D01*
X46769655Y-13815977D01*
X46915977Y-13669655D01*
X47030941Y-13497598D01*
X47110130Y-13306420D01*
X47150500Y-13103465D01*
X47150500Y-12896535D01*
X47150499Y-12896532D01*
X50129500Y-12896532D01*
X50129500Y-13103467D01*
X50169869Y-13306418D01*
X50249058Y-13497597D01*
X50360266Y-13664032D01*
X50364023Y-13669655D01*
X50510345Y-13815977D01*
X50682402Y-13930941D01*
X50873580Y-14010130D01*
X51076535Y-14050500D01*
X51076536Y-14050500D01*
X51283464Y-14050500D01*
X51283465Y-14050500D01*
X51486420Y-14010130D01*
X51677598Y-13930941D01*
X51849655Y-13815977D01*
X51995977Y-13669655D01*
X52110941Y-13497598D01*
X52190130Y-13306420D01*
X52230500Y-13103465D01*
X52230500Y-12896535D01*
X52230499Y-12896532D01*
X52669500Y-12896532D01*
X52669500Y-13103467D01*
X52709869Y-13306418D01*
X52789058Y-13497597D01*
X52900266Y-13664032D01*
X52904023Y-13669655D01*
X53050345Y-13815977D01*
X53222402Y-13930941D01*
X53413580Y-14010130D01*
X53616535Y-14050500D01*
X53616536Y-14050500D01*
X53823464Y-14050500D01*
X53823465Y-14050500D01*
X54026420Y-14010130D01*
X54217598Y-13930941D01*
X54389655Y-13815977D01*
X54535977Y-13669655D01*
X54650941Y-13497598D01*
X54730130Y-13306420D01*
X54770500Y-13103465D01*
X54770500Y-12896535D01*
X54770499Y-12896532D01*
X55209500Y-12896532D01*
X55209500Y-13103467D01*
X55249869Y-13306418D01*
X55329058Y-13497597D01*
X55440266Y-13664032D01*
X55444023Y-13669655D01*
X55590345Y-13815977D01*
X55762402Y-13930941D01*
X55953580Y-14010130D01*
X56156535Y-14050500D01*
X56156536Y-14050500D01*
X56363464Y-14050500D01*
X56363465Y-14050500D01*
X56566420Y-14010130D01*
X56757598Y-13930941D01*
X56929655Y-13815977D01*
X57075977Y-13669655D01*
X57190941Y-13497598D01*
X57270130Y-13306420D01*
X57310500Y-13103465D01*
X57310500Y-12896535D01*
X57270130Y-12693580D01*
X57190941Y-12502402D01*
X57075977Y-12330345D01*
X56929655Y-12184023D01*
X56929651Y-12184020D01*
X56757597Y-12069058D01*
X56566418Y-11989869D01*
X56363467Y-11949500D01*
X56363465Y-11949500D01*
X56156535Y-11949500D01*
X56156532Y-11949500D01*
X55953581Y-11989869D01*
X55762402Y-12069058D01*
X55590348Y-12184020D01*
X55444020Y-12330348D01*
X55329058Y-12502402D01*
X55249869Y-12693581D01*
X55209500Y-12896532D01*
X54770499Y-12896532D01*
X54730130Y-12693580D01*
X54650941Y-12502402D01*
X54535977Y-12330345D01*
X54389655Y-12184023D01*
X54389651Y-12184020D01*
X54217597Y-12069058D01*
X54026418Y-11989869D01*
X53823467Y-11949500D01*
X53823465Y-11949500D01*
X53616535Y-11949500D01*
X53616532Y-11949500D01*
X53413581Y-11989869D01*
X53222402Y-12069058D01*
X53050348Y-12184020D01*
X52904020Y-12330348D01*
X52789058Y-12502402D01*
X52709869Y-12693581D01*
X52669500Y-12896532D01*
X52230499Y-12896532D01*
X52190130Y-12693580D01*
X52110941Y-12502402D01*
X51995977Y-12330345D01*
X51849655Y-12184023D01*
X51849651Y-12184020D01*
X51677597Y-12069058D01*
X51486418Y-11989869D01*
X51283467Y-11949500D01*
X51283465Y-11949500D01*
X51076535Y-11949500D01*
X51076532Y-11949500D01*
X50873581Y-11989869D01*
X50682402Y-12069058D01*
X50510348Y-12184020D01*
X50364020Y-12330348D01*
X50249058Y-12502402D01*
X50169869Y-12693581D01*
X50129500Y-12896532D01*
X47150499Y-12896532D01*
X47110130Y-12693580D01*
X47030941Y-12502402D01*
X46915977Y-12330345D01*
X46769655Y-12184023D01*
X46769651Y-12184020D01*
X46597597Y-12069058D01*
X46406418Y-11989869D01*
X46203467Y-11949500D01*
X46203465Y-11949500D01*
X45996535Y-11949500D01*
X45996532Y-11949500D01*
X45793581Y-11989869D01*
X45602402Y-12069058D01*
X45430348Y-12184020D01*
X45284020Y-12330348D01*
X45169058Y-12502402D01*
X45089869Y-12693581D01*
X45049500Y-12896532D01*
X44610499Y-12896532D01*
X44570130Y-12693580D01*
X44490941Y-12502402D01*
X44375977Y-12330345D01*
X44229655Y-12184023D01*
X44229651Y-12184020D01*
X44057597Y-12069058D01*
X43866418Y-11989869D01*
X43663467Y-11949500D01*
X43663465Y-11949500D01*
X43456535Y-11949500D01*
X43456532Y-11949500D01*
X43253581Y-11989869D01*
X43062402Y-12069058D01*
X42890348Y-12184020D01*
X42744020Y-12330348D01*
X42629058Y-12502402D01*
X42549869Y-12693581D01*
X42509500Y-12896532D01*
X42070499Y-12896532D01*
X42030130Y-12693580D01*
X41950941Y-12502402D01*
X41835977Y-12330345D01*
X41689655Y-12184023D01*
X41689651Y-12184020D01*
X41517597Y-12069058D01*
X41326418Y-11989869D01*
X41123467Y-11949500D01*
X41123465Y-11949500D01*
X40916535Y-11949500D01*
X40916532Y-11949500D01*
X40713581Y-11989869D01*
X40522402Y-12069058D01*
X40350348Y-12184020D01*
X40204020Y-12330348D01*
X40089058Y-12502402D01*
X40009869Y-12693581D01*
X39969500Y-12896532D01*
X39530499Y-12896532D01*
X39490130Y-12693580D01*
X39410941Y-12502402D01*
X39295977Y-12330345D01*
X39149655Y-12184023D01*
X39149651Y-12184020D01*
X38977597Y-12069058D01*
X38786418Y-11989869D01*
X38583467Y-11949500D01*
X38583465Y-11949500D01*
X38376535Y-11949500D01*
X38376532Y-11949500D01*
X38173581Y-11989869D01*
X37982402Y-12069058D01*
X37810348Y-12184020D01*
X37664020Y-12330348D01*
X37549058Y-12502402D01*
X37469869Y-12693581D01*
X37429500Y-12896532D01*
X34450499Y-12896532D01*
X34410130Y-12693580D01*
X34330941Y-12502402D01*
X34215977Y-12330345D01*
X34069655Y-12184023D01*
X34069651Y-12184020D01*
X33897597Y-12069058D01*
X33706418Y-11989869D01*
X33503467Y-11949500D01*
X33503465Y-11949500D01*
X33296535Y-11949500D01*
X33296532Y-11949500D01*
X33093581Y-11989869D01*
X32902402Y-12069058D01*
X32730348Y-12184020D01*
X32584020Y-12330348D01*
X32469058Y-12502402D01*
X32389869Y-12693581D01*
X32349500Y-12896532D01*
X31910499Y-12896532D01*
X31870130Y-12693580D01*
X31790941Y-12502402D01*
X31675977Y-12330345D01*
X31529655Y-12184023D01*
X31529651Y-12184020D01*
X31357597Y-12069058D01*
X31166418Y-11989869D01*
X30963467Y-11949500D01*
X30963465Y-11949500D01*
X30756535Y-11949500D01*
X30756532Y-11949500D01*
X30553581Y-11989869D01*
X30362402Y-12069058D01*
X30190348Y-12184020D01*
X30044020Y-12330348D01*
X29929058Y-12502402D01*
X29849869Y-12693581D01*
X29809500Y-12896532D01*
X29370499Y-12896532D01*
X29330130Y-12693580D01*
X29250941Y-12502402D01*
X29135977Y-12330345D01*
X28989655Y-12184023D01*
X28989651Y-12184020D01*
X28817597Y-12069058D01*
X28626418Y-11989869D01*
X28423467Y-11949500D01*
X28423465Y-11949500D01*
X28216535Y-11949500D01*
X28216532Y-11949500D01*
X28013581Y-11989869D01*
X27822402Y-12069058D01*
X27650348Y-12184020D01*
X27504020Y-12330348D01*
X27389058Y-12502402D01*
X27309869Y-12693581D01*
X27269500Y-12896532D01*
X26830499Y-12896532D01*
X26790130Y-12693580D01*
X26710941Y-12502402D01*
X26595977Y-12330345D01*
X26449655Y-12184023D01*
X26449651Y-12184020D01*
X26277597Y-12069058D01*
X26086418Y-11989869D01*
X25883467Y-11949500D01*
X25883465Y-11949500D01*
X25676535Y-11949500D01*
X25676532Y-11949500D01*
X25473581Y-11989869D01*
X25282402Y-12069058D01*
X25110348Y-12184020D01*
X24964020Y-12330348D01*
X24849058Y-12502402D01*
X24769869Y-12693581D01*
X24729500Y-12896532D01*
X21750499Y-12896532D01*
X21710130Y-12693580D01*
X21630941Y-12502402D01*
X21515977Y-12330345D01*
X21369655Y-12184023D01*
X21369651Y-12184020D01*
X21197597Y-12069058D01*
X21006418Y-11989869D01*
X20803467Y-11949500D01*
X20803465Y-11949500D01*
X20596535Y-11949500D01*
X20596532Y-11949500D01*
X20393581Y-11989869D01*
X20202402Y-12069058D01*
X20030348Y-12184020D01*
X19884020Y-12330348D01*
X19769058Y-12502402D01*
X19689869Y-12693581D01*
X19649500Y-12896532D01*
X19210499Y-12896532D01*
X19170130Y-12693580D01*
X19090941Y-12502402D01*
X18975977Y-12330345D01*
X18829655Y-12184023D01*
X18829651Y-12184020D01*
X18657597Y-12069058D01*
X18466418Y-11989869D01*
X18263467Y-11949500D01*
X18263465Y-11949500D01*
X18056535Y-11949500D01*
X18056532Y-11949500D01*
X17853581Y-11989869D01*
X17662402Y-12069058D01*
X17490348Y-12184020D01*
X17344019Y-12330349D01*
X17316589Y-12371401D01*
X17268538Y-12409280D01*
X17207400Y-12411682D01*
X17156527Y-12377688D01*
X17153337Y-12372981D01*
X17150469Y-12369243D01*
X17150466Y-12369240D01*
X17150465Y-12369238D01*
X17089862Y-12308635D01*
X17089859Y-12308633D01*
X16157462Y-11376235D01*
X16157459Y-11376233D01*
X16157457Y-11376231D01*
X16083242Y-11333383D01*
X16083244Y-11333383D01*
X16051121Y-11324776D01*
X16000453Y-11311200D01*
X16000451Y-11311200D01*
X15252035Y-11311200D01*
X15193844Y-11292293D01*
X15182031Y-11282204D01*
X14704496Y-10804669D01*
X14676719Y-10750152D01*
X14675500Y-10734665D01*
X14675500Y-3822540D01*
X14675501Y-3822527D01*
X14675501Y-3728846D01*
X14675500Y-3728844D01*
X14653318Y-3646062D01*
X14653317Y-3646060D01*
X14638014Y-3619555D01*
X14638013Y-3619552D01*
X14626148Y-3599002D01*
X14613425Y-3539154D01*
X14638310Y-3483258D01*
X14691297Y-3452664D01*
X14711883Y-3450500D01*
X15429747Y-3450500D01*
X15429748Y-3450500D01*
X15488231Y-3438867D01*
X15554552Y-3394552D01*
X15598867Y-3328231D01*
X15610500Y-3269748D01*
X15610500Y-2667734D01*
X15629407Y-2609543D01*
X15678907Y-2573579D01*
X15740093Y-2573579D01*
X15779504Y-2597730D01*
X17805504Y-4623730D01*
X17833281Y-4678247D01*
X17834500Y-4693734D01*
X17834500Y-9391623D01*
X17815593Y-9449814D01*
X17773386Y-9483087D01*
X17662402Y-9529058D01*
X17490348Y-9644020D01*
X17344020Y-9790348D01*
X17229058Y-9962402D01*
X17149869Y-10153581D01*
X17109500Y-10356532D01*
X17109500Y-10563467D01*
X17149869Y-10766418D01*
X17229058Y-10957597D01*
X17344020Y-11129651D01*
X17344023Y-11129655D01*
X17490345Y-11275977D01*
X17662402Y-11390941D01*
X17853580Y-11470130D01*
X18056535Y-11510500D01*
X18056536Y-11510500D01*
X18263464Y-11510500D01*
X18263465Y-11510500D01*
X18466420Y-11470130D01*
X18657598Y-11390941D01*
X18829655Y-11275977D01*
X18975977Y-11129655D01*
X19090941Y-10957598D01*
X19170130Y-10766420D01*
X19210500Y-10563465D01*
X19210500Y-10356535D01*
X19210499Y-10356532D01*
X19649500Y-10356532D01*
X19649500Y-10563467D01*
X19689869Y-10766418D01*
X19769058Y-10957597D01*
X19884020Y-11129651D01*
X19884023Y-11129655D01*
X20030345Y-11275977D01*
X20202402Y-11390941D01*
X20393580Y-11470130D01*
X20596535Y-11510500D01*
X20596536Y-11510500D01*
X20803464Y-11510500D01*
X20803465Y-11510500D01*
X21006420Y-11470130D01*
X21197598Y-11390941D01*
X21369655Y-11275977D01*
X21515977Y-11129655D01*
X21630941Y-10957598D01*
X21710130Y-10766420D01*
X21750500Y-10563465D01*
X21750500Y-10356535D01*
X21750499Y-10356532D01*
X22189500Y-10356532D01*
X22189500Y-10563467D01*
X22229869Y-10766418D01*
X22309058Y-10957597D01*
X22424020Y-11129651D01*
X22424023Y-11129655D01*
X22570345Y-11275977D01*
X22742402Y-11390941D01*
X22933580Y-11470130D01*
X23136535Y-11510500D01*
X23136536Y-11510500D01*
X23343464Y-11510500D01*
X23343465Y-11510500D01*
X23546420Y-11470130D01*
X23737598Y-11390941D01*
X23909655Y-11275977D01*
X24055977Y-11129655D01*
X24170941Y-10957598D01*
X24250130Y-10766420D01*
X24290500Y-10563465D01*
X24290500Y-10356535D01*
X24290499Y-10356532D01*
X24729500Y-10356532D01*
X24729500Y-10563467D01*
X24769869Y-10766418D01*
X24849058Y-10957597D01*
X24964020Y-11129651D01*
X24964023Y-11129655D01*
X25110345Y-11275977D01*
X25282402Y-11390941D01*
X25473580Y-11470130D01*
X25676535Y-11510500D01*
X25676536Y-11510500D01*
X25883464Y-11510500D01*
X25883465Y-11510500D01*
X26086420Y-11470130D01*
X26277598Y-11390941D01*
X26449655Y-11275977D01*
X26595977Y-11129655D01*
X26710941Y-10957598D01*
X26790130Y-10766420D01*
X26830500Y-10563465D01*
X26830500Y-10356535D01*
X26830499Y-10356532D01*
X29809500Y-10356532D01*
X29809500Y-10563467D01*
X29849869Y-10766418D01*
X29929058Y-10957597D01*
X30044020Y-11129651D01*
X30044023Y-11129655D01*
X30190345Y-11275977D01*
X30362402Y-11390941D01*
X30553580Y-11470130D01*
X30756535Y-11510500D01*
X30756536Y-11510500D01*
X30963464Y-11510500D01*
X30963465Y-11510500D01*
X31166420Y-11470130D01*
X31357598Y-11390941D01*
X31529655Y-11275977D01*
X31675977Y-11129655D01*
X31790941Y-10957598D01*
X31870130Y-10766420D01*
X31910500Y-10563465D01*
X31910500Y-10356535D01*
X31910499Y-10356532D01*
X32349500Y-10356532D01*
X32349500Y-10563467D01*
X32389869Y-10766418D01*
X32469058Y-10957597D01*
X32584020Y-11129651D01*
X32584023Y-11129655D01*
X32730345Y-11275977D01*
X32902402Y-11390941D01*
X33093580Y-11470130D01*
X33296535Y-11510500D01*
X33296536Y-11510500D01*
X33503464Y-11510500D01*
X33503465Y-11510500D01*
X33706420Y-11470130D01*
X33897598Y-11390941D01*
X34069655Y-11275977D01*
X34215977Y-11129655D01*
X34330941Y-10957598D01*
X34410130Y-10766420D01*
X34450500Y-10563465D01*
X34450500Y-10356535D01*
X34450499Y-10356532D01*
X34889500Y-10356532D01*
X34889500Y-10563467D01*
X34929869Y-10766418D01*
X35009058Y-10957597D01*
X35124020Y-11129651D01*
X35124023Y-11129655D01*
X35270345Y-11275977D01*
X35442402Y-11390941D01*
X35633580Y-11470130D01*
X35836535Y-11510500D01*
X35836536Y-11510500D01*
X36043464Y-11510500D01*
X36043465Y-11510500D01*
X36246420Y-11470130D01*
X36437598Y-11390941D01*
X36609655Y-11275977D01*
X36755977Y-11129655D01*
X36870941Y-10957598D01*
X36950130Y-10766420D01*
X36990500Y-10563465D01*
X36990500Y-10356535D01*
X36990499Y-10356532D01*
X37429500Y-10356532D01*
X37429500Y-10563467D01*
X37469869Y-10766418D01*
X37549058Y-10957597D01*
X37664020Y-11129651D01*
X37664023Y-11129655D01*
X37810345Y-11275977D01*
X37982402Y-11390941D01*
X38173580Y-11470130D01*
X38376535Y-11510500D01*
X38376536Y-11510500D01*
X38583464Y-11510500D01*
X38583465Y-11510500D01*
X38786420Y-11470130D01*
X38977598Y-11390941D01*
X39149655Y-11275977D01*
X39295977Y-11129655D01*
X39410941Y-10957598D01*
X39490130Y-10766420D01*
X39530500Y-10563465D01*
X39530500Y-10356535D01*
X39530499Y-10356532D01*
X42509500Y-10356532D01*
X42509500Y-10563467D01*
X42549869Y-10766418D01*
X42629058Y-10957597D01*
X42744020Y-11129651D01*
X42744023Y-11129655D01*
X42890345Y-11275977D01*
X43062402Y-11390941D01*
X43253580Y-11470130D01*
X43456535Y-11510500D01*
X43456536Y-11510500D01*
X43663464Y-11510500D01*
X43663465Y-11510500D01*
X43866420Y-11470130D01*
X44057598Y-11390941D01*
X44229655Y-11275977D01*
X44375977Y-11129655D01*
X44490941Y-10957598D01*
X44570130Y-10766420D01*
X44610500Y-10563465D01*
X44610500Y-10356535D01*
X44610499Y-10356532D01*
X45049500Y-10356532D01*
X45049500Y-10563467D01*
X45089869Y-10766418D01*
X45169058Y-10957597D01*
X45284020Y-11129651D01*
X45284023Y-11129655D01*
X45430345Y-11275977D01*
X45602402Y-11390941D01*
X45793580Y-11470130D01*
X45996535Y-11510500D01*
X45996536Y-11510500D01*
X46203464Y-11510500D01*
X46203465Y-11510500D01*
X46406420Y-11470130D01*
X46597598Y-11390941D01*
X46769655Y-11275977D01*
X46915977Y-11129655D01*
X47030941Y-10957598D01*
X47110130Y-10766420D01*
X47150500Y-10563465D01*
X47150500Y-10356535D01*
X47150499Y-10356532D01*
X47589500Y-10356532D01*
X47589500Y-10563467D01*
X47629869Y-10766418D01*
X47709058Y-10957597D01*
X47824020Y-11129651D01*
X47824023Y-11129655D01*
X47970345Y-11275977D01*
X48142402Y-11390941D01*
X48333580Y-11470130D01*
X48536535Y-11510500D01*
X48536536Y-11510500D01*
X48743464Y-11510500D01*
X48743465Y-11510500D01*
X48946420Y-11470130D01*
X49137598Y-11390941D01*
X49309655Y-11275977D01*
X49455977Y-11129655D01*
X49570941Y-10957598D01*
X49650130Y-10766420D01*
X49690500Y-10563465D01*
X49690500Y-10356535D01*
X49690499Y-10356532D01*
X50129500Y-10356532D01*
X50129500Y-10563467D01*
X50169869Y-10766418D01*
X50249058Y-10957597D01*
X50364020Y-11129651D01*
X50364023Y-11129655D01*
X50510345Y-11275977D01*
X50682402Y-11390941D01*
X50873580Y-11470130D01*
X51076535Y-11510500D01*
X51076536Y-11510500D01*
X51283464Y-11510500D01*
X51283465Y-11510500D01*
X51486420Y-11470130D01*
X51677598Y-11390941D01*
X51849655Y-11275977D01*
X51995977Y-11129655D01*
X52110941Y-10957598D01*
X52190130Y-10766420D01*
X52230500Y-10563465D01*
X52230500Y-10356535D01*
X52230499Y-10356532D01*
X55209500Y-10356532D01*
X55209500Y-10563467D01*
X55249869Y-10766418D01*
X55329058Y-10957597D01*
X55444020Y-11129651D01*
X55444023Y-11129655D01*
X55590345Y-11275977D01*
X55762402Y-11390941D01*
X55953580Y-11470130D01*
X56156535Y-11510500D01*
X56156536Y-11510500D01*
X56363464Y-11510500D01*
X56363465Y-11510500D01*
X56566420Y-11470130D01*
X56757598Y-11390941D01*
X56929655Y-11275977D01*
X57075977Y-11129655D01*
X57190941Y-10957598D01*
X57270130Y-10766420D01*
X57310500Y-10563465D01*
X57310500Y-10356535D01*
X57270130Y-10153580D01*
X57190941Y-9962402D01*
X57075977Y-9790345D01*
X56929655Y-9644023D01*
X56929651Y-9644020D01*
X56757597Y-9529058D01*
X56566418Y-9449869D01*
X56363467Y-9409500D01*
X56363465Y-9409500D01*
X56156535Y-9409500D01*
X56156532Y-9409500D01*
X55953581Y-9449869D01*
X55762402Y-9529058D01*
X55590348Y-9644020D01*
X55444020Y-9790348D01*
X55329058Y-9962402D01*
X55249869Y-10153581D01*
X55209500Y-10356532D01*
X52230499Y-10356532D01*
X52190130Y-10153580D01*
X52110941Y-9962402D01*
X51995977Y-9790345D01*
X51849655Y-9644023D01*
X51849651Y-9644020D01*
X51677597Y-9529058D01*
X51486418Y-9449869D01*
X51283467Y-9409500D01*
X51283465Y-9409500D01*
X51076535Y-9409500D01*
X51076532Y-9409500D01*
X50873581Y-9449869D01*
X50682402Y-9529058D01*
X50510348Y-9644020D01*
X50364020Y-9790348D01*
X50249058Y-9962402D01*
X50169869Y-10153581D01*
X50129500Y-10356532D01*
X49690499Y-10356532D01*
X49650130Y-10153580D01*
X49570941Y-9962402D01*
X49455977Y-9790345D01*
X49309655Y-9644023D01*
X49309651Y-9644020D01*
X49137597Y-9529058D01*
X48946418Y-9449869D01*
X48743467Y-9409500D01*
X48743465Y-9409500D01*
X48536535Y-9409500D01*
X48536532Y-9409500D01*
X48333581Y-9449869D01*
X48142402Y-9529058D01*
X47970348Y-9644020D01*
X47824020Y-9790348D01*
X47709058Y-9962402D01*
X47629869Y-10153581D01*
X47589500Y-10356532D01*
X47150499Y-10356532D01*
X47110130Y-10153580D01*
X47030941Y-9962402D01*
X46915977Y-9790345D01*
X46769655Y-9644023D01*
X46769651Y-9644020D01*
X46597597Y-9529058D01*
X46406418Y-9449869D01*
X46203467Y-9409500D01*
X46203465Y-9409500D01*
X45996535Y-9409500D01*
X45996532Y-9409500D01*
X45793581Y-9449869D01*
X45602402Y-9529058D01*
X45430348Y-9644020D01*
X45284020Y-9790348D01*
X45169058Y-9962402D01*
X45089869Y-10153581D01*
X45049500Y-10356532D01*
X44610499Y-10356532D01*
X44570130Y-10153580D01*
X44490941Y-9962402D01*
X44375977Y-9790345D01*
X44229655Y-9644023D01*
X44229651Y-9644020D01*
X44057597Y-9529058D01*
X43866418Y-9449869D01*
X43663467Y-9409500D01*
X43663465Y-9409500D01*
X43456535Y-9409500D01*
X43456532Y-9409500D01*
X43253581Y-9449869D01*
X43062402Y-9529058D01*
X42890348Y-9644020D01*
X42744020Y-9790348D01*
X42629058Y-9962402D01*
X42549869Y-10153581D01*
X42509500Y-10356532D01*
X39530499Y-10356532D01*
X39490130Y-10153580D01*
X39410941Y-9962402D01*
X39295977Y-9790345D01*
X39149655Y-9644023D01*
X39149651Y-9644020D01*
X38977597Y-9529058D01*
X38786418Y-9449869D01*
X38583467Y-9409500D01*
X38583465Y-9409500D01*
X38376535Y-9409500D01*
X38376532Y-9409500D01*
X38173581Y-9449869D01*
X37982402Y-9529058D01*
X37810348Y-9644020D01*
X37664020Y-9790348D01*
X37549058Y-9962402D01*
X37469869Y-10153581D01*
X37429500Y-10356532D01*
X36990499Y-10356532D01*
X36950130Y-10153580D01*
X36870941Y-9962402D01*
X36755977Y-9790345D01*
X36609655Y-9644023D01*
X36609651Y-9644020D01*
X36437597Y-9529058D01*
X36246418Y-9449869D01*
X36043467Y-9409500D01*
X36043465Y-9409500D01*
X35836535Y-9409500D01*
X35836532Y-9409500D01*
X35633581Y-9449869D01*
X35442402Y-9529058D01*
X35270348Y-9644020D01*
X35124020Y-9790348D01*
X35009058Y-9962402D01*
X34929869Y-10153581D01*
X34889500Y-10356532D01*
X34450499Y-10356532D01*
X34410130Y-10153580D01*
X34330941Y-9962402D01*
X34215977Y-9790345D01*
X34069655Y-9644023D01*
X34069651Y-9644020D01*
X33897597Y-9529058D01*
X33706418Y-9449869D01*
X33503467Y-9409500D01*
X33503465Y-9409500D01*
X33296535Y-9409500D01*
X33296532Y-9409500D01*
X33093581Y-9449869D01*
X32902402Y-9529058D01*
X32730348Y-9644020D01*
X32584020Y-9790348D01*
X32469058Y-9962402D01*
X32389869Y-10153581D01*
X32349500Y-10356532D01*
X31910499Y-10356532D01*
X31870130Y-10153580D01*
X31790941Y-9962402D01*
X31675977Y-9790345D01*
X31529655Y-9644023D01*
X31529651Y-9644020D01*
X31357597Y-9529058D01*
X31166418Y-9449869D01*
X30963467Y-9409500D01*
X30963465Y-9409500D01*
X30756535Y-9409500D01*
X30756532Y-9409500D01*
X30553581Y-9449869D01*
X30362402Y-9529058D01*
X30190348Y-9644020D01*
X30044020Y-9790348D01*
X29929058Y-9962402D01*
X29849869Y-10153581D01*
X29809500Y-10356532D01*
X26830499Y-10356532D01*
X26790130Y-10153580D01*
X26710941Y-9962402D01*
X26595977Y-9790345D01*
X26449655Y-9644023D01*
X26449651Y-9644020D01*
X26277597Y-9529058D01*
X26086418Y-9449869D01*
X25883467Y-9409500D01*
X25883465Y-9409500D01*
X25676535Y-9409500D01*
X25676532Y-9409500D01*
X25473581Y-9449869D01*
X25282402Y-9529058D01*
X25110348Y-9644020D01*
X24964020Y-9790348D01*
X24849058Y-9962402D01*
X24769869Y-10153581D01*
X24729500Y-10356532D01*
X24290499Y-10356532D01*
X24250130Y-10153580D01*
X24170941Y-9962402D01*
X24055977Y-9790345D01*
X23909655Y-9644023D01*
X23909651Y-9644020D01*
X23737597Y-9529058D01*
X23546418Y-9449869D01*
X23343467Y-9409500D01*
X23343465Y-9409500D01*
X23136535Y-9409500D01*
X23136532Y-9409500D01*
X22933581Y-9449869D01*
X22742402Y-9529058D01*
X22570348Y-9644020D01*
X22424020Y-9790348D01*
X22309058Y-9962402D01*
X22229869Y-10153581D01*
X22189500Y-10356532D01*
X21750499Y-10356532D01*
X21710130Y-10153580D01*
X21630941Y-9962402D01*
X21515977Y-9790345D01*
X21369655Y-9644023D01*
X21369651Y-9644020D01*
X21197597Y-9529058D01*
X21006418Y-9449869D01*
X20803467Y-9409500D01*
X20803465Y-9409500D01*
X20596535Y-9409500D01*
X20596532Y-9409500D01*
X20393581Y-9449869D01*
X20202402Y-9529058D01*
X20030348Y-9644020D01*
X19884020Y-9790348D01*
X19769058Y-9962402D01*
X19689869Y-10153581D01*
X19649500Y-10356532D01*
X19210499Y-10356532D01*
X19170130Y-10153580D01*
X19090941Y-9962402D01*
X18975977Y-9790345D01*
X18829655Y-9644023D01*
X18829651Y-9644020D01*
X18657597Y-9529058D01*
X18546614Y-9483087D01*
X18500088Y-9443350D01*
X18485500Y-9391623D01*
X18485500Y-4568740D01*
X18485501Y-4568727D01*
X18485501Y-4475047D01*
X18485500Y-4475045D01*
X18463319Y-4392265D01*
X18463318Y-4392264D01*
X18463318Y-4392262D01*
X18420465Y-4318038D01*
X18359862Y-4257435D01*
X18359859Y-4257433D01*
X17981136Y-3878710D01*
X58149500Y-3878710D01*
X58149500Y-4121289D01*
X58181161Y-4361781D01*
X58181161Y-4361786D01*
X58181162Y-4361789D01*
X58240064Y-4581614D01*
X58243944Y-4596092D01*
X58243948Y-4596105D01*
X58336772Y-4820204D01*
X58336774Y-4820208D01*
X58336776Y-4820212D01*
X58458064Y-5030289D01*
X58458066Y-5030292D01*
X58605729Y-5222731D01*
X58605731Y-5222733D01*
X58605735Y-5222738D01*
X58777262Y-5394265D01*
X58777266Y-5394268D01*
X58777268Y-5394270D01*
X58817232Y-5424935D01*
X58969711Y-5541936D01*
X59179788Y-5663224D01*
X59403900Y-5756054D01*
X59638211Y-5818838D01*
X59878712Y-5850500D01*
X59878713Y-5850500D01*
X60121287Y-5850500D01*
X60121288Y-5850500D01*
X60361789Y-5818838D01*
X60596100Y-5756054D01*
X60820212Y-5663224D01*
X61030289Y-5541936D01*
X61222738Y-5394265D01*
X61394265Y-5222738D01*
X61541936Y-5030289D01*
X61663224Y-4820212D01*
X61756054Y-4596100D01*
X61818838Y-4361789D01*
X61850500Y-4121288D01*
X61850500Y-3878712D01*
X61818838Y-3638211D01*
X61756054Y-3403900D01*
X61663224Y-3179788D01*
X61541936Y-2969711D01*
X61394265Y-2777262D01*
X61222738Y-2605735D01*
X61222733Y-2605731D01*
X61222731Y-2605729D01*
X61030292Y-2458066D01*
X61030289Y-2458064D01*
X60820212Y-2336776D01*
X60820208Y-2336774D01*
X60820204Y-2336772D01*
X60596105Y-2243948D01*
X60596104Y-2243947D01*
X60596100Y-2243946D01*
X60361789Y-2181162D01*
X60361786Y-2181161D01*
X60361784Y-2181161D01*
X60121289Y-2149500D01*
X60121288Y-2149500D01*
X59878712Y-2149500D01*
X59878710Y-2149500D01*
X59638218Y-2181161D01*
X59638213Y-2181161D01*
X59403907Y-2243944D01*
X59403894Y-2243948D01*
X59179795Y-2336772D01*
X58969707Y-2458066D01*
X58777268Y-2605729D01*
X58605729Y-2777268D01*
X58458066Y-2969707D01*
X58336772Y-3179795D01*
X58243948Y-3403894D01*
X58243944Y-3403907D01*
X58181161Y-3638213D01*
X58181161Y-3638218D01*
X58149500Y-3878710D01*
X17981136Y-3878710D01*
X15765262Y-1662835D01*
X15765259Y-1662833D01*
X15765257Y-1662831D01*
X15691042Y-1619983D01*
X15691044Y-1619983D01*
X15658921Y-1611376D01*
X15608253Y-1597800D01*
X11950947Y-1597800D01*
X11868162Y-1619982D01*
X11793938Y-1662835D01*
X8407531Y-5049242D01*
X8364682Y-5123460D01*
X8364681Y-5123460D01*
X8364682Y-5123461D01*
X8342500Y-5206247D01*
X8342500Y-7123365D01*
X8323593Y-7181556D01*
X8313504Y-7193369D01*
X7796805Y-7710068D01*
X7742288Y-7737845D01*
X7681856Y-7728274D01*
X7638591Y-7685009D01*
X7627801Y-7640064D01*
X7627801Y-7598785D01*
X7627800Y-7598767D01*
X7627800Y-4622621D01*
X7646707Y-4564430D01*
X7656790Y-4552623D01*
X7702800Y-4506614D01*
X7721025Y-4475047D01*
X7768690Y-4392490D01*
X7768690Y-4392488D01*
X7768692Y-4392486D01*
X7802800Y-4265192D01*
X7802800Y-4133408D01*
X7768692Y-4006114D01*
X7768690Y-4006111D01*
X7768690Y-4006109D01*
X7702803Y-3891990D01*
X7702801Y-3891988D01*
X7702800Y-3891986D01*
X7609614Y-3798800D01*
X7609611Y-3798798D01*
X7609609Y-3798796D01*
X7495489Y-3732909D01*
X7495491Y-3732909D01*
X7446099Y-3719675D01*
X7368192Y-3698800D01*
X7236408Y-3698800D01*
X7158500Y-3719675D01*
X7109109Y-3732909D01*
X6994990Y-3798796D01*
X6901796Y-3891990D01*
X6835909Y-4006109D01*
X6835908Y-4006114D01*
X6801800Y-4133408D01*
X6801800Y-4265192D01*
X6815960Y-4318038D01*
X6835909Y-4392490D01*
X6901796Y-4506609D01*
X6901798Y-4506611D01*
X6901800Y-4506614D01*
X6947805Y-4552619D01*
X6975581Y-4607134D01*
X6976800Y-4622621D01*
X6976800Y-7471865D01*
X6957893Y-7530056D01*
X6947804Y-7541869D01*
X5196231Y-9293442D01*
X5153383Y-9367656D01*
X5153382Y-9367661D01*
X5131355Y-9449870D01*
X5131200Y-9450447D01*
X5131200Y-9450449D01*
X5131200Y-23277678D01*
X5112293Y-23335869D01*
X5102204Y-23347681D01*
X5056200Y-23393684D01*
X5056196Y-23393690D01*
X4990309Y-23507809D01*
X4990308Y-23507814D01*
X4956200Y-23635108D01*
X500500Y-23635108D01*
X500500Y-3878710D01*
X2149500Y-3878710D01*
X2149500Y-4121289D01*
X2181161Y-4361781D01*
X2181161Y-4361786D01*
X2181162Y-4361789D01*
X2240064Y-4581614D01*
X2243944Y-4596092D01*
X2243948Y-4596105D01*
X2336772Y-4820204D01*
X2336774Y-4820208D01*
X2336776Y-4820212D01*
X2458064Y-5030289D01*
X2458066Y-5030292D01*
X2605729Y-5222731D01*
X2605731Y-5222733D01*
X2605735Y-5222738D01*
X2777262Y-5394265D01*
X2777266Y-5394268D01*
X2777268Y-5394270D01*
X2817232Y-5424935D01*
X2969711Y-5541936D01*
X3179788Y-5663224D01*
X3403900Y-5756054D01*
X3638211Y-5818838D01*
X3878712Y-5850500D01*
X3878713Y-5850500D01*
X4121287Y-5850500D01*
X4121288Y-5850500D01*
X4361789Y-5818838D01*
X4596100Y-5756054D01*
X4820212Y-5663224D01*
X5030289Y-5541936D01*
X5222738Y-5394265D01*
X5394265Y-5222738D01*
X5541936Y-5030289D01*
X5663224Y-4820212D01*
X5756054Y-4596100D01*
X5818838Y-4361789D01*
X5850500Y-4121288D01*
X5850500Y-3878712D01*
X5818838Y-3638211D01*
X5756054Y-3403900D01*
X5663224Y-3179788D01*
X5541936Y-2969711D01*
X5394265Y-2777262D01*
X5222738Y-2605735D01*
X5222733Y-2605731D01*
X5222731Y-2605729D01*
X5030292Y-2458066D01*
X5030289Y-2458064D01*
X4820212Y-2336776D01*
X4820208Y-2336774D01*
X4820204Y-2336772D01*
X4596105Y-2243948D01*
X4596104Y-2243947D01*
X4596100Y-2243946D01*
X4361789Y-2181162D01*
X4361786Y-2181161D01*
X4361784Y-2181161D01*
X4121289Y-2149500D01*
X4121288Y-2149500D01*
X3878712Y-2149500D01*
X3878710Y-2149500D01*
X3638218Y-2181161D01*
X3638213Y-2181161D01*
X3403907Y-2243944D01*
X3403894Y-2243948D01*
X3179795Y-2336772D01*
X2969707Y-2458066D01*
X2777268Y-2605729D01*
X2605729Y-2777268D01*
X2458066Y-2969707D01*
X2336772Y-3179795D01*
X2243948Y-3403894D01*
X2243944Y-3403907D01*
X2181161Y-3638213D01*
X2181161Y-3638218D01*
X2149500Y-3878710D01*
X500500Y-3878710D01*
X500500Y-3002984D01*
X500681Y-2997007D01*
X510902Y-2828032D01*
X518362Y-2704687D01*
X519801Y-2692836D01*
X572052Y-2407714D01*
X574906Y-2396131D01*
X661152Y-2119355D01*
X665374Y-2108224D01*
X784349Y-1843873D01*
X789898Y-1833302D01*
X939860Y-1585233D01*
X946631Y-1575423D01*
X1125406Y-1347234D01*
X1133318Y-1338302D01*
X1338302Y-1133318D01*
X1347234Y-1125406D01*
X1575423Y-946631D01*
X1585233Y-939860D01*
X1833302Y-789898D01*
X1843873Y-784349D01*
X2108224Y-665374D01*
X2119355Y-661152D01*
X2396131Y-574906D01*
X2407714Y-572052D01*
X2692836Y-519801D01*
X2704687Y-518362D01*
X2997008Y-500681D01*
X3002985Y-500500D01*
X3065892Y-500500D01*
X60934108Y-500500D01*
X60997015Y-500500D01*
X61002992Y-500681D01*
G37*
%TD.AperFunction*%
%TD*%
M02*
