%TF.GenerationSoftware,KiCad,Pcbnew,10.0.6*%
%TF.CreationDate,2026-09-04T10:41:57+02:00*%
%TF.ProjectId,Dimmer3,44696d6d-6572-4332-9e6b-696361645f70,rev?*%
%TF.SameCoordinates,Original*%
%TF.FileFunction,Paste,Top*%
%TF.FilePolarity,Positive*%
%FSLAX46Y46*%
G04 Gerber Fmt 4.6, Leading zero omitted, Abs format (unit mm)*
G04 Created by KiCad (PCBNEW 10.0.6) date 2026-09-04 10:41:57*
%MOMM*%
%LPD*%
G01*
G04 APERTURE LIST*
G04 Aperture macros list*
%AMRoundRect*
0 Rectangle with rounded corners*
0 $1 Rounding radius*
0 $2 $3 $4 $5 $6 $7 $8 $9 X,Y pos of 4 corners*
0 Add a 4 corners polygon primitive as box body*
4,1,4,$2,$3,$4,$5,$6,$7,$8,$9,$2,$3,0*
0 Add four circle primitives for the rounded corners*
1,1,$1+$1,$2,$3*
1,1,$1+$1,$4,$5*
1,1,$1+$1,$6,$7*
1,1,$1+$1,$8,$9*
0 Add four rect primitives between the rounded corners*
20,1,$1+$1,$2,$3,$4,$5,0*
20,1,$1+$1,$4,$5,$6,$7,0*
20,1,$1+$1,$6,$7,$8,$9,0*
20,1,$1+$1,$8,$9,$2,$3,0*%
G04 Aperture macros list end*
%ADD10RoundRect,0.250000X-0.350000X-0.450000X0.350000X-0.450000X0.350000X0.450000X-0.350000X0.450000X0*%
%ADD11RoundRect,0.250000X1.000000X-1.400000X1.000000X1.400000X-1.000000X1.400000X-1.000000X-1.400000X0*%
%ADD12RoundRect,0.250000X-1.275000X-1.125000X1.275000X-1.125000X1.275000X1.125000X-1.275000X1.125000X0*%
%ADD13RoundRect,0.250000X-0.850000X-0.350000X0.850000X-0.350000X0.850000X0.350000X-0.850000X0.350000X0*%
%ADD14RoundRect,0.087500X-0.425000X-0.087500X0.425000X-0.087500X0.425000X0.087500X-0.425000X0.087500X0*%
%ADD15R,1.900000X1.000000*%
%ADD16RoundRect,0.087500X-0.537500X-0.087500X0.537500X-0.087500X0.537500X0.087500X-0.537500X0.087500X0*%
%ADD17RoundRect,0.250000X-0.337500X-0.475000X0.337500X-0.475000X0.337500X0.475000X-0.337500X0.475000X0*%
%ADD18RoundRect,0.100000X-0.637500X-0.100000X0.637500X-0.100000X0.637500X0.100000X-0.637500X0.100000X0*%
%ADD19R,3.000000X1.000000*%
G04 APERTURE END LIST*
D10*
%TO.C,RP1*%
X24850000Y-19550000D03*
X26850000Y-19550000D03*
%TD*%
D11*
%TO.C,D2*%
X25650000Y-32550000D03*
X32450000Y-32550000D03*
%TD*%
D12*
%TO.C,Q3*%
X31275000Y-38475000D03*
X31275000Y-41525000D03*
X34625000Y-38475000D03*
X34625000Y-41525000D03*
D13*
X26650000Y-37720000D03*
X26650000Y-40000000D03*
X26650000Y-42280000D03*
%TD*%
D10*
%TO.C,RG2*%
X29550000Y-16450000D03*
X31550000Y-16450000D03*
%TD*%
D12*
%TO.C,Q2*%
X19475000Y-38475000D03*
X19475000Y-41525000D03*
X22825000Y-38475000D03*
X22825000Y-41525000D03*
D13*
X14850000Y-37720000D03*
X14850000Y-40000000D03*
X14850000Y-42280000D03*
%TD*%
D10*
%TO.C,R100*%
X5850000Y-30950000D03*
X7850000Y-30950000D03*
%TD*%
D12*
%TO.C,Q10*%
X50975000Y-23475000D03*
X50975000Y-26525000D03*
X54325000Y-23475000D03*
X54325000Y-26525000D03*
D13*
X46350000Y-22720000D03*
X46350000Y-25000000D03*
X46350000Y-27280000D03*
%TD*%
D11*
%TO.C,D10*%
X25700000Y-25150000D03*
X32500000Y-25150000D03*
%TD*%
D14*
%TO.C,U101*%
X5612500Y-21450000D03*
X5612500Y-22100000D03*
X5612500Y-22750000D03*
X7287500Y-22750000D03*
X7287500Y-22100000D03*
X7287500Y-21450000D03*
%TD*%
D15*
%TO.C,J101*%
X10850000Y-2750000D03*
X14150000Y-5290000D03*
%TD*%
D10*
%TO.C,R101*%
X10150000Y-30950000D03*
X12150000Y-30950000D03*
%TD*%
%TO.C,RG1*%
X24850000Y-16450000D03*
X26850000Y-16450000D03*
%TD*%
%TO.C,RG3*%
X34250000Y-16450000D03*
X36250000Y-16450000D03*
%TD*%
D14*
%TO.C,U103*%
X21212500Y-24950000D03*
X21212500Y-25600000D03*
X21212500Y-26250000D03*
X22887500Y-26250000D03*
X22887500Y-24950000D03*
%TD*%
D10*
%TO.C,R105*%
X10150000Y-33850000D03*
X12150000Y-33850000D03*
%TD*%
D16*
%TO.C,U102*%
X15880000Y-25000000D03*
X15880000Y-25500000D03*
X15880000Y-26000000D03*
X15880000Y-26500000D03*
X18680000Y-26500000D03*
X18680000Y-26000000D03*
X18680000Y-25500000D03*
X18680000Y-25000000D03*
%TD*%
D17*
%TO.C,C101*%
X5842500Y-25180000D03*
X7917500Y-25180000D03*
%TD*%
D10*
%TO.C,R104*%
X5850000Y-33850000D03*
X7850000Y-33850000D03*
%TD*%
%TO.C,RP3*%
X34250000Y-19550000D03*
X36250000Y-19550000D03*
%TD*%
%TO.C,R12*%
X49550000Y-16450000D03*
X51550000Y-16450000D03*
%TD*%
%TO.C,RP2*%
X29550000Y-19550000D03*
X31550000Y-19550000D03*
%TD*%
D18*
%TO.C,U100*%
X15987500Y-17075000D03*
X15987500Y-17725000D03*
X15987500Y-18375000D03*
X15987500Y-19025000D03*
X15987500Y-19675000D03*
X15987500Y-20325000D03*
X15987500Y-20975000D03*
X15987500Y-21625000D03*
X15987500Y-22275000D03*
X15987500Y-22925000D03*
X21712500Y-22925000D03*
X21712500Y-22275000D03*
X21712500Y-21625000D03*
X21712500Y-20975000D03*
X21712500Y-20325000D03*
X21712500Y-19675000D03*
X21712500Y-19025000D03*
X21712500Y-18375000D03*
X21712500Y-17725000D03*
X21712500Y-17075000D03*
%TD*%
D17*
%TO.C,C100*%
X5842500Y-28080000D03*
X7917500Y-28080000D03*
%TD*%
D19*
%TO.C,J103*%
X58440000Y-42000000D03*
X53400000Y-42000000D03*
X58440000Y-44540000D03*
X53400000Y-44540000D03*
%TD*%
D12*
%TO.C,Q1*%
X7675000Y-38475000D03*
X7675000Y-41525000D03*
X11025000Y-38475000D03*
X11025000Y-41525000D03*
D13*
X3050000Y-37720000D03*
X3050000Y-40000000D03*
X3050000Y-42280000D03*
%TD*%
D10*
%TO.C,R11*%
X44850000Y-16450000D03*
X46850000Y-16450000D03*
%TD*%
%TO.C,R102*%
X10250000Y-25150000D03*
X12250000Y-25150000D03*
%TD*%
D11*
%TO.C,D1*%
X15200000Y-32550000D03*
X22000000Y-32550000D03*
%TD*%
%TO.C,D3*%
X36100000Y-32550000D03*
X42900000Y-32550000D03*
%TD*%
M02*
