%TF.GenerationSoftware,KiCad,Pcbnew,10.0.6*%
%TF.CreationDate,2026-09-09T18:25:18+02:00*%
%TF.ProjectId,Dimmer3,44696d6d-6572-4332-9e6b-696361645f70,rev?*%
%TF.SameCoordinates,Original*%
%TF.FileFunction,Copper,L1,Top*%
%TF.FilePolarity,Positive*%
%FSLAX46Y46*%
G04 Gerber Fmt 4.6, Leading zero omitted, Abs format (unit mm)*
G04 Created by KiCad (PCBNEW 10.0.6) date 2026-09-09 18:25:18*
%MOMM*%
%LPD*%
G01*
G04 APERTURE LIST*
G04 Aperture macros list*
%AMRoundRect*
0 Rectangle with rounded corners*
0 $1 Rounding radius*
0 $2 $3 $4 $5 $6 $7 $8 $9 X,Y pos of 4 corners*
0 Add a 4 corners polygon primitive as box body*
4,1,4,$2,$3,$4,$5,$6,$7,$8,$9,$2,$3,0*
0 Add four circle primitives for the rounded corners*
1,1,$1+$1,$2,$3*
1,1,$1+$1,$4,$5*
1,1,$1+$1,$6,$7*
1,1,$1+$1,$8,$9*
0 Add four rect primitives between the rounded corners*
20,1,$1+$1,$2,$3,$4,$5,0*
20,1,$1+$1,$4,$5,$6,$7,0*
20,1,$1+$1,$6,$7,$8,$9,0*
20,1,$1+$1,$8,$9,$2,$3,0*%
G04 Aperture macros list end*
%TA.AperFunction,SMDPad,CuDef*%
%ADD10RoundRect,0.250000X-0.350000X-0.450000X0.350000X-0.450000X0.350000X0.450000X-0.350000X0.450000X0*%
%TD*%
%TA.AperFunction,SMDPad,CuDef*%
%ADD11RoundRect,0.250000X1.000000X-1.400000X1.000000X1.400000X-1.000000X1.400000X-1.000000X-1.400000X0*%
%TD*%
%TA.AperFunction,SMDPad,CuDef*%
%ADD12RoundRect,0.087500X-0.537500X-0.087500X0.537500X-0.087500X0.537500X0.087500X-0.537500X0.087500X0*%
%TD*%
%TA.AperFunction,ComponentPad*%
%ADD13RoundRect,0.250001X-0.949999X-0.949999X0.949999X-0.949999X0.949999X0.949999X-0.949999X0.949999X0*%
%TD*%
%TA.AperFunction,ComponentPad*%
%ADD14C,2.400000*%
%TD*%
%TA.AperFunction,SMDPad,CuDef*%
%ADD15RoundRect,0.250000X-0.850000X-0.350000X0.850000X-0.350000X0.850000X0.350000X-0.850000X0.350000X0*%
%TD*%
%TA.AperFunction,SMDPad,CuDef*%
%ADD16RoundRect,0.249997X-2.950003X-2.650003X2.950003X-2.650003X2.950003X2.650003X-2.950003X2.650003X0*%
%TD*%
%TA.AperFunction,SMDPad,CuDef*%
%ADD17RoundRect,0.250000X-0.337500X-0.475000X0.337500X-0.475000X0.337500X0.475000X-0.337500X0.475000X0*%
%TD*%
%TA.AperFunction,SMDPad,CuDef*%
%ADD18R,3.000000X1.000000*%
%TD*%
%TA.AperFunction,ComponentPad*%
%ADD19RoundRect,0.250000X-0.550000X-0.550000X0.550000X-0.550000X0.550000X0.550000X-0.550000X0.550000X0*%
%TD*%
%TA.AperFunction,ComponentPad*%
%ADD20C,1.600000*%
%TD*%
%TA.AperFunction,ComponentPad*%
%ADD21R,1.700000X2.500000*%
%TD*%
%TA.AperFunction,ComponentPad*%
%ADD22O,1.700000X2.500000*%
%TD*%
%TA.AperFunction,SMDPad,CuDef*%
%ADD23RoundRect,0.250000X0.475000X-0.337500X0.475000X0.337500X-0.475000X0.337500X-0.475000X-0.337500X0*%
%TD*%
%TA.AperFunction,SMDPad,CuDef*%
%ADD24RoundRect,0.100000X-0.637500X-0.100000X0.637500X-0.100000X0.637500X0.100000X-0.637500X0.100000X0*%
%TD*%
%TA.AperFunction,SMDPad,CuDef*%
%ADD25RoundRect,0.250000X0.350000X-0.850000X0.350000X0.850000X-0.350000X0.850000X-0.350000X-0.850000X0*%
%TD*%
%TA.AperFunction,SMDPad,CuDef*%
%ADD26RoundRect,0.249997X2.650003X-2.950003X2.650003X2.950003X-2.650003X2.950003X-2.650003X-2.950003X0*%
%TD*%
%TA.AperFunction,SMDPad,CuDef*%
%ADD27RoundRect,0.087500X-0.425000X-0.087500X0.425000X-0.087500X0.425000X0.087500X-0.425000X0.087500X0*%
%TD*%
%TA.AperFunction,ComponentPad*%
%ADD28R,1.700000X1.700000*%
%TD*%
%TA.AperFunction,ComponentPad*%
%ADD29C,1.700000*%
%TD*%
%TA.AperFunction,SMDPad,CuDef*%
%ADD30R,1.900000X1.000000*%
%TD*%
%TA.AperFunction,ViaPad*%
%ADD31C,0.600000*%
%TD*%
%TA.AperFunction,Conductor*%
%ADD32C,0.250000*%
%TD*%
%TA.AperFunction,Conductor*%
%ADD33C,1.000000*%
%TD*%
%TA.AperFunction,Conductor*%
%ADD34C,0.200000*%
%TD*%
G04 APERTURE END LIST*
D10*
%TO.P,R100,1*%
%TO.N,/ID0*%
X4850000Y-30950000D03*
%TO.P,R100,2*%
%TO.N,GND*%
X6850000Y-30950000D03*
%TD*%
D11*
%TO.P,D3,1*%
%TO.N,/+24V*%
X13700000Y-38750000D03*
%TO.P,D3,2*%
%TO.N,/LED3*%
X20500000Y-38750000D03*
%TD*%
D10*
%TO.P,R102,1*%
%TO.N,3V3*%
X9250000Y-25150000D03*
%TO.P,R102,2*%
%TO.N,/NCLR*%
X11250000Y-25150000D03*
%TD*%
%TO.P,RP2,1*%
%TO.N,/PWM2_G*%
X39750000Y-33249999D03*
%TO.P,RP2,2*%
%TO.N,GND*%
X41750000Y-33249999D03*
%TD*%
%TO.P,RG1,1*%
%TO.N,/PWM1*%
X34450000Y-30150000D03*
%TO.P,RG1,2*%
%TO.N,/PWM1_G*%
X36450000Y-30150000D03*
%TD*%
D12*
%TO.P,U102,1*%
%TO.N,/SEL_OUT*%
X14880000Y-25000000D03*
%TO.P,U102,2*%
X14880000Y-25500000D03*
%TO.P,U102,3*%
%TO.N,/NRST*%
X14880000Y-26000000D03*
%TO.P,U102,4*%
%TO.N,GND*%
X14880000Y-26500000D03*
%TO.P,U102,5*%
%TO.N,/FLASH_MODE*%
X17680000Y-26500000D03*
%TO.P,U102,6*%
%TO.N,/NQ*%
X17680000Y-26000000D03*
%TO.P,U102,7*%
X17680000Y-25500000D03*
%TO.P,U102,8*%
%TO.N,3V3*%
X17680000Y-25000000D03*
%TD*%
D13*
%TO.P,J90,1*%
%TO.N,/PWR_IN*%
X53790000Y-6600000D03*
D14*
%TO.P,J90,2*%
%TO.N,GND*%
X57290000Y-6600000D03*
%TD*%
D15*
%TO.P,Q2,1*%
%TO.N,/PWM2_G*%
X1850000Y-43920000D03*
%TO.P,Q2,2*%
%TO.N,/LED2*%
X1850000Y-46200000D03*
D16*
X8150000Y-46200000D03*
D15*
%TO.P,Q2,3*%
%TO.N,GND*%
X1850000Y-48480000D03*
%TD*%
D13*
%TO.P,J5,1*%
%TO.N,/+24V*%
X35850000Y-23600000D03*
D14*
%TO.P,J5,2*%
%TO.N,/LED1*%
X39350000Y-23600000D03*
%TD*%
D17*
%TO.P,C91,1*%
%TO.N,/+5V_LOKAL*%
X52382500Y-33080000D03*
%TO.P,C91,2*%
%TO.N,GND*%
X54457500Y-33080000D03*
%TD*%
D18*
%TO.P,J103,1*%
%TO.N,/+24V*%
X66240000Y-45500000D03*
%TO.P,J103,2*%
%TO.N,GND*%
X61200000Y-45500000D03*
%TO.P,J103,3*%
%TO.N,/+24V*%
X66240000Y-48040000D03*
%TO.P,J103,4*%
%TO.N,GND*%
X61200000Y-48040000D03*
%TD*%
D15*
%TO.P,Q90,1*%
%TO.N,/Q90_GATE*%
X61490000Y-8820000D03*
%TO.P,Q90,2*%
%TO.N,/PWR_IN*%
X61490000Y-11100000D03*
D16*
X67790000Y-11100000D03*
D15*
%TO.P,Q90,3*%
%TO.N,/+24V*%
X61490000Y-13380000D03*
%TD*%
D10*
%TO.P,RP1,1*%
%TO.N,/PWM1_G*%
X38750000Y-30150000D03*
%TO.P,RP1,2*%
%TO.N,GND*%
X40750000Y-30150000D03*
%TD*%
%TO.P,RG2,1*%
%TO.N,/PWM2*%
X35450000Y-33249999D03*
%TO.P,RG2,2*%
%TO.N,/PWM2_G*%
X37450000Y-33249999D03*
%TD*%
D11*
%TO.P,D1,1*%
%TO.N,/+24V*%
X36100000Y-4350000D03*
%TO.P,D1,2*%
%TO.N,/LED1*%
X42900000Y-4350000D03*
%TD*%
D19*
%TO.P,C90,1*%
%TO.N,/+24V*%
X54042479Y-26751238D03*
D20*
%TO.P,C90,2*%
%TO.N,GND*%
X57542479Y-26751238D03*
%TD*%
D21*
%TO.P,U90,1*%
%TO.N,/+24V*%
X64100000Y-24750000D03*
D22*
%TO.P,U90,2*%
%TO.N,GND*%
X66640000Y-24750000D03*
%TO.P,U90,3*%
%TO.N,/+5V_LOKAL*%
X69180000Y-24750000D03*
%TD*%
D23*
%TO.P,C104,1*%
%TO.N,3V3*%
X1530000Y-19637499D03*
%TO.P,C104,2*%
%TO.N,GND*%
X1530000Y-17562499D03*
%TD*%
D11*
%TO.P,D91,1*%
%TO.N,/VSYS*%
X63500000Y-18550000D03*
%TO.P,D91,2*%
%TO.N,/+5V_LOKAL*%
X70300000Y-18550000D03*
%TD*%
D24*
%TO.P,U100,1*%
%TO.N,/I2C_SDA*%
X14987500Y-17075000D03*
%TO.P,U100,2*%
%TO.N,unconnected-(U100-PC14-Pad2)*%
X14987500Y-17725000D03*
%TO.P,U100,3*%
%TO.N,unconnected-(U100-PC15-Pad3)*%
X14987500Y-18375000D03*
%TO.P,U100,4*%
%TO.N,3V3*%
X14987500Y-19025000D03*
%TO.P,U100,5*%
%TO.N,GND*%
X14987500Y-19675000D03*
%TO.P,U100,6*%
%TO.N,/NRST*%
X14987500Y-20325000D03*
%TO.P,U100,7*%
%TO.N,/ID0*%
X14987500Y-20975000D03*
%TO.P,U100,8*%
%TO.N,/ID1*%
X14987500Y-21625000D03*
%TO.P,U100,9*%
%TO.N,unconnected-(U100-PA2-Pad9)*%
X14987500Y-22275000D03*
%TO.P,U100,10*%
%TO.N,unconnected-(U100-PA3-Pad10)*%
X14987500Y-22925000D03*
%TO.P,U100,11*%
%TO.N,unconnected-(U100-PA4-Pad11)*%
X20712500Y-22925000D03*
%TO.P,U100,12*%
%TO.N,/PWM3*%
X20712500Y-22275000D03*
%TO.P,U100,13*%
%TO.N,unconnected-(U100-PA6-Pad13)*%
X20712500Y-21625000D03*
%TO.P,U100,14*%
%TO.N,/PWM2*%
X20712500Y-20975000D03*
%TO.P,U100,15*%
%TO.N,/PWM1*%
X20712500Y-20325000D03*
%TO.P,U100,16*%
%TO.N,/FLASH_RX*%
X20712500Y-19675000D03*
%TO.P,U100,17*%
%TO.N,/FLASH_TX*%
X20712500Y-19025000D03*
%TO.P,U100,18*%
%TO.N,unconnected-(U100-PA13-Pad18)*%
X20712500Y-18375000D03*
%TO.P,U100,19*%
%TO.N,/BOOT0*%
X20712500Y-17725000D03*
%TO.P,U100,20*%
%TO.N,/I2C_SCL*%
X20712500Y-17075000D03*
%TD*%
D10*
%TO.P,R104,1*%
%TO.N,3V3*%
X4850000Y-33850000D03*
%TO.P,R104,2*%
%TO.N,/ID0*%
X6850000Y-33850000D03*
%TD*%
D23*
%TO.P,C103,1*%
%TO.N,3V3*%
X1530000Y-15277500D03*
%TO.P,C103,2*%
%TO.N,GND*%
X1530000Y-13202500D03*
%TD*%
D25*
%TO.P,Q1,1*%
%TO.N,/PWM1_G*%
X35220000Y-18050000D03*
%TO.P,Q1,2*%
%TO.N,/LED1*%
X37500000Y-18050000D03*
D26*
X37500000Y-11750000D03*
D25*
%TO.P,Q1,3*%
%TO.N,GND*%
X39780000Y-18050000D03*
%TD*%
D27*
%TO.P,U101,1*%
%TO.N,/SEL_CLK*%
X4612500Y-21450000D03*
%TO.P,U101,2*%
%TO.N,GND*%
X4612500Y-22100000D03*
%TO.P,U101,3*%
%TO.N,/SEL_IN*%
X4612500Y-22750000D03*
%TO.P,U101,4*%
%TO.N,/SEL_OUT*%
X6287500Y-22750000D03*
%TO.P,U101,5*%
%TO.N,3V3*%
X6287500Y-22100000D03*
%TO.P,U101,6*%
%TO.N,/NCLR*%
X6287500Y-21450000D03*
%TD*%
D28*
%TO.P,J100,1*%
%TO.N,/FLASH_TX*%
X30610000Y-2270000D03*
D29*
%TO.P,J100,2*%
%TO.N,/FLASH_RX*%
X30610000Y-4810000D03*
%TO.P,J100,3*%
%TO.N,GND*%
X30610000Y-7350000D03*
%TO.P,J100,4*%
%TO.N,unconnected-(J100-Pin_4-Pad4)*%
X30610000Y-9890000D03*
%TO.P,J100,5*%
%TO.N,/FLASH_MODE*%
X30610000Y-12430000D03*
%TO.P,J100,6*%
%TO.N,/I2C_SDA*%
X30610000Y-14970000D03*
%TO.P,J100,7*%
%TO.N,/I2C_SCL*%
X30610000Y-17510000D03*
%TO.P,J100,8*%
%TO.N,GND*%
X30610000Y-20050000D03*
%TO.P,J100,9*%
%TO.N,/NOTAUS*%
X30610000Y-22590000D03*
%TO.P,J100,10*%
%TO.N,/SEL_CLK*%
X30610000Y-25130000D03*
%TO.P,J100,11*%
%TO.N,/GP8*%
X30610000Y-27670000D03*
%TO.P,J100,12*%
%TO.N,/GP9*%
X30610000Y-30210000D03*
%TO.P,J100,13*%
%TO.N,GND*%
X30610000Y-32750000D03*
%TO.P,J100,14*%
%TO.N,/GP10*%
X30610000Y-35290000D03*
%TO.P,J100,15*%
%TO.N,/GP11*%
X30610000Y-37830000D03*
%TO.P,J100,16*%
%TO.N,/GP12*%
X30610000Y-40370000D03*
%TO.P,J100,17*%
%TO.N,/GP13*%
X30610000Y-42910000D03*
%TO.P,J100,18*%
%TO.N,GND*%
X30610000Y-45450000D03*
%TO.P,J100,19*%
%TO.N,/GP14*%
X30610000Y-47990000D03*
%TO.P,J100,20*%
%TO.N,/GP15*%
X30610000Y-50530000D03*
%TD*%
D23*
%TO.P,C102,1*%
%TO.N,3V3*%
X1530000Y-10917500D03*
%TO.P,C102,2*%
%TO.N,GND*%
X1530000Y-8842500D03*
%TD*%
D17*
%TO.P,C100,1*%
%TO.N,3V3*%
X4842500Y-28080000D03*
%TO.P,C100,2*%
%TO.N,GND*%
X6917500Y-28080000D03*
%TD*%
%TO.P,C101,1*%
%TO.N,/NCLR*%
X4842500Y-25180000D03*
%TO.P,C101,2*%
%TO.N,GND*%
X6917500Y-25180000D03*
%TD*%
D11*
%TO.P,D2,1*%
%TO.N,/+24V*%
X2000000Y-38750000D03*
%TO.P,D2,2*%
%TO.N,/LED2*%
X8800000Y-38750000D03*
%TD*%
D10*
%TO.P,R91,1*%
%TO.N,/Q90_GATE*%
X56690000Y-1450000D03*
%TO.P,R91,2*%
%TO.N,GND*%
X58690000Y-1450000D03*
%TD*%
D15*
%TO.P,Q3,1*%
%TO.N,/PWM3_G*%
X13550000Y-43920000D03*
%TO.P,Q3,2*%
%TO.N,/LED3*%
X13550000Y-46200000D03*
D16*
X19850000Y-46200000D03*
D15*
%TO.P,Q3,3*%
%TO.N,GND*%
X13550000Y-48480000D03*
%TD*%
D27*
%TO.P,U103,1*%
%TO.N,/FLASH_MODE*%
X20212500Y-24950000D03*
%TO.P,U103,2*%
%TO.N,/SEL_OUT*%
X20212500Y-25600000D03*
%TO.P,U103,3*%
%TO.N,GND*%
X20212500Y-26250000D03*
%TO.P,U103,4*%
%TO.N,/BOOT0*%
X21887500Y-26250000D03*
%TO.P,U103,5*%
%TO.N,3V3*%
X21887500Y-24950000D03*
%TD*%
D10*
%TO.P,RP3,1*%
%TO.N,/PWM3_G*%
X39750000Y-35750000D03*
%TO.P,RP3,2*%
%TO.N,GND*%
X41750000Y-35750000D03*
%TD*%
D13*
%TO.P,J7,1*%
%TO.N,/+24V*%
X18450000Y-53900000D03*
D14*
%TO.P,J7,2*%
%TO.N,/LED3*%
X21950000Y-53900000D03*
%TD*%
D13*
%TO.P,J6,1*%
%TO.N,/+24V*%
X9850000Y-53900000D03*
D14*
%TO.P,J6,2*%
%TO.N,/LED2*%
X13350000Y-53900000D03*
%TD*%
D10*
%TO.P,R90,1*%
%TO.N,/Q90_GATE*%
X52390000Y-1450000D03*
%TO.P,R90,2*%
%TO.N,/+24V*%
X54390000Y-1450000D03*
%TD*%
D30*
%TO.P,J101,1*%
%TO.N,/SEL_IN*%
X18940000Y-2750000D03*
%TO.P,J101,2*%
%TO.N,GND*%
X22240000Y-5290000D03*
%TD*%
D10*
%TO.P,R101,1*%
%TO.N,/ID1*%
X9150000Y-30950000D03*
%TO.P,R101,2*%
%TO.N,GND*%
X11150000Y-30950000D03*
%TD*%
%TO.P,RG3,1*%
%TO.N,/PWM3*%
X35450000Y-35750000D03*
%TO.P,RG3,2*%
%TO.N,/PWM3_G*%
X37450000Y-35750000D03*
%TD*%
%TO.P,R105,1*%
%TO.N,3V3*%
X9150000Y-33850000D03*
%TO.P,R105,2*%
%TO.N,/ID1*%
X11150000Y-33850000D03*
%TD*%
D28*
%TO.P,J105,1*%
%TO.N,/GP16*%
X48390000Y-50530000D03*
D29*
%TO.P,J105,2*%
%TO.N,/GP17*%
X48390000Y-47990000D03*
%TO.P,J105,3*%
%TO.N,GND*%
X48390000Y-45450000D03*
%TO.P,J105,4*%
%TO.N,/GP18*%
X48390000Y-42910000D03*
%TO.P,J105,5*%
%TO.N,/GP19*%
X48390000Y-40370000D03*
%TO.P,J105,6*%
%TO.N,/GP20*%
X48390000Y-37830000D03*
%TO.P,J105,7*%
%TO.N,/GP21*%
X48390000Y-35290000D03*
%TO.P,J105,8*%
%TO.N,GND*%
X48390000Y-32750000D03*
%TO.P,J105,9*%
%TO.N,/GP22*%
X48390000Y-30210000D03*
%TO.P,J105,10*%
%TO.N,unconnected-(J105-Pin_10-Pad10)*%
X48390000Y-27670000D03*
%TO.P,J105,11*%
%TO.N,/GP26*%
X48390000Y-25130000D03*
%TO.P,J105,12*%
%TO.N,/GP27*%
X48390000Y-22590000D03*
%TO.P,J105,13*%
%TO.N,GND*%
X48390000Y-20050000D03*
%TO.P,J105,14*%
%TO.N,/GP28*%
X48390000Y-17510000D03*
%TO.P,J105,15*%
%TO.N,unconnected-(J105-Pin_15-Pad15)*%
X48390000Y-14970000D03*
%TO.P,J105,16*%
%TO.N,3V3*%
X48390000Y-12430000D03*
%TO.P,J105,17*%
%TO.N,unconnected-(J105-Pin_17-Pad17)*%
X48390000Y-9890000D03*
%TO.P,J105,18*%
%TO.N,GND*%
X48390000Y-7350000D03*
%TO.P,J105,19*%
%TO.N,/VSYS*%
X48390000Y-4810000D03*
%TO.P,J105,20*%
%TO.N,unconnected-(J105-Pin_20-Pad20)*%
X48390000Y-2270000D03*
%TD*%
D11*
%TO.P,D90,1*%
%TO.N,/+24V*%
X53040000Y-18550000D03*
%TO.P,D90,2*%
%TO.N,GND*%
X59840000Y-18550000D03*
%TD*%
D31*
%TO.N,/ID0*%
X16500000Y-20975000D03*
X4850000Y-29600000D03*
%TO.N,GND*%
X12900000Y-19675000D03*
X52500000Y-51250000D03*
X7500000Y-21250000D03*
X16466254Y-22450500D03*
X15000000Y-28750000D03*
X22500000Y-36250000D03*
X15000000Y-13750000D03*
X37500000Y-58750000D03*
X52500000Y-43750000D03*
X22500000Y-21250000D03*
X52500000Y-13750000D03*
X22500000Y-28750000D03*
X52500000Y-58750000D03*
X30000000Y-58750000D03*
X15000000Y-6250000D03*
X20175500Y-26313500D03*
X45000000Y-6250000D03*
X60000000Y-36250000D03*
X45000000Y-28750000D03*
X1000500Y-12219029D03*
X45000000Y-36250000D03*
X45000000Y-58750000D03*
X1000500Y-16579029D03*
X60000000Y-58750000D03*
X45000000Y-13750000D03*
X67500000Y-6250000D03*
X67500000Y-36250000D03*
X45000000Y-21250000D03*
X7500000Y-6250000D03*
X67500000Y-51250000D03*
X7500000Y-13750000D03*
X67500000Y-58750000D03*
X16170447Y-60882454D03*
X52500000Y-36250000D03*
X60000000Y-51250000D03*
X22500000Y-13750000D03*
%TO.N,/+24V*%
X6631500Y-39973100D03*
X13697000Y-41696500D03*
X34116900Y-52622600D03*
%TO.N,3V3*%
X22900000Y-24950000D03*
X17680000Y-24100000D03*
%TO.N,/NCLR*%
X6039200Y-20676600D03*
X6034100Y-24161800D03*
%TO.N,/PWM2_G*%
X7922800Y-32048000D03*
X3950100Y-43889400D03*
%TO.N,/PWM1*%
X27274800Y-27950700D03*
X25004500Y-22249700D03*
%TO.N,/PWM1_G*%
X35754400Y-16198900D03*
X36056600Y-28053700D03*
%TO.N,/SEL_OUT*%
X14880000Y-23650000D03*
X7738800Y-22963400D03*
X19350000Y-27600000D03*
%TO.N,/FLASH_MODE*%
X24460900Y-18084900D03*
X22294800Y-23054100D03*
X27546600Y-16269100D03*
%TO.N,/+5V_LOKAL*%
X59951100Y-33514400D03*
%TO.N,/Q90_GATE*%
X55855600Y-5497200D03*
X52480200Y-2881700D03*
%TO.N,/PWM2*%
X32616700Y-32102100D03*
X18949500Y-20410600D03*
%TO.N,/VSYS*%
X56547300Y-16444500D03*
%TO.N,/ID1*%
X9150000Y-29650000D03*
X17100000Y-21625000D03*
%TO.N,/PWM3*%
X26072200Y-31845500D03*
X25248000Y-24271500D03*
%TO.N,/FLASH_TX*%
X22641900Y-17849000D03*
%TO.N,/BOOT0*%
X28604400Y-24364700D03*
X25019100Y-16625700D03*
%TO.N,/SEL_IN*%
X1601200Y-22126900D03*
X10023400Y-4344100D03*
%TO.N,/GP15*%
X36055000Y-60386000D03*
X31733100Y-57690700D03*
%TO.N,/GP16*%
X44732200Y-57279400D03*
X38947400Y-60386000D03*
%TD*%
%TO.N,/ID0*%
D32*
X4850000Y-29600000D02*
X4850000Y-30950000D01*
X4850000Y-30950000D02*
X4850000Y-31850000D01*
X14987500Y-20975000D02*
X16500000Y-20975000D01*
X4850000Y-31850000D02*
X6850000Y-33850000D01*
%TO.N,GND*%
X14987500Y-19675000D02*
X12900000Y-19675000D01*
%TO.N,/+24V*%
D33*
X35850000Y-23600000D02*
X33873400Y-21623400D01*
X51860800Y-7958200D02*
X51860800Y-4917700D01*
X18450000Y-53900000D02*
X20351700Y-55801700D01*
X34116900Y-52622600D02*
X60056500Y-52622600D01*
X64038300Y-36185000D02*
X54604500Y-26751200D01*
X13697000Y-41696500D02*
X13407800Y-41407300D01*
X13407800Y-39042200D02*
X13700000Y-38750000D01*
X11783700Y-55833700D02*
X16516300Y-55833700D01*
X13407800Y-41407300D02*
X13407800Y-39042200D01*
X20351700Y-55801700D02*
X30937800Y-55801700D01*
X54390000Y-2388500D02*
X54390000Y-1450000D01*
X9850000Y-53900000D02*
X11783700Y-55833700D01*
X2000000Y-38750000D02*
X5408400Y-38750000D01*
X30937800Y-55801700D02*
X34116900Y-52622600D01*
X56043700Y-24750000D02*
X54042500Y-26751200D01*
X64038300Y-48640800D02*
X64038300Y-48040000D01*
X54604500Y-26751200D02*
X54042500Y-26751200D01*
X33873400Y-6576600D02*
X36100000Y-4350000D01*
X61490000Y-13380000D02*
X57282600Y-13380000D01*
X66240000Y-48040000D02*
X68441700Y-48040000D01*
X60056500Y-52622600D02*
X64038300Y-48640800D01*
X53040000Y-17622600D02*
X53040000Y-18550000D01*
X57282600Y-13380000D02*
X53040000Y-17622600D01*
X51860800Y-4917700D02*
X54390000Y-2388500D01*
X64100000Y-24750000D02*
X56043700Y-24750000D01*
X16516300Y-55833700D02*
X18450000Y-53900000D01*
X66240000Y-48040000D02*
X64038300Y-48040000D01*
X56043700Y-24750000D02*
X56043700Y-21553700D01*
X56043700Y-21553700D02*
X53040000Y-18550000D01*
X64038300Y-45500000D02*
X64038300Y-36185000D01*
X68441700Y-48040000D02*
X68441700Y-45500000D01*
X5408400Y-38750000D02*
X6631500Y-39973100D01*
X66240000Y-45500000D02*
X68441700Y-45500000D01*
X33873400Y-21623400D02*
X33873400Y-6576600D01*
X57282600Y-13380000D02*
X51860800Y-7958200D01*
X66240000Y-45500000D02*
X64038300Y-45500000D01*
%TO.N,/LED3*%
X20500000Y-45550000D02*
X20500000Y-38750000D01*
X19850000Y-46200000D02*
X13550000Y-46200000D01*
X19850000Y-46200000D02*
X20500000Y-45550000D01*
X21950000Y-53900000D02*
X21950000Y-48300000D01*
X21950000Y-48300000D02*
X19850000Y-46200000D01*
%TO.N,3V3*%
D32*
X29046100Y-23920100D02*
X28864000Y-23738000D01*
X3036100Y-19025000D02*
X14987500Y-19025000D01*
X48390000Y-12430000D02*
X40927400Y-19892600D01*
X40927400Y-24187500D02*
X39950300Y-25164600D01*
X32741600Y-23920100D02*
X29046100Y-23920100D01*
X1530000Y-15277500D02*
X2589300Y-16336800D01*
X8180000Y-26980000D02*
X5942000Y-26980000D01*
X17750000Y-24030000D02*
X17680000Y-24100000D01*
X3921500Y-32921500D02*
X3921500Y-29001000D01*
X40927400Y-19892600D02*
X40927400Y-24187500D01*
X17750000Y-21028000D02*
X17750000Y-24030000D01*
X2589300Y-18578200D02*
X1530000Y-19637500D01*
X1530000Y-19637500D02*
X934500Y-20233000D01*
X27262400Y-23738000D02*
X26050400Y-24950000D01*
X28864000Y-23738000D02*
X27262400Y-23738000D01*
X22900000Y-24950000D02*
X21887500Y-24950000D01*
X33986100Y-25164600D02*
X32741600Y-23920100D01*
X3921500Y-29001000D02*
X4842500Y-28080000D01*
X9250000Y-25150000D02*
X9250000Y-22100000D01*
X9250000Y-22100000D02*
X6287500Y-22100000D01*
X934500Y-23016700D02*
X4897800Y-26980000D01*
X4897800Y-26980000D02*
X5942000Y-26980000D01*
X39950300Y-25164600D02*
X33986100Y-25164600D01*
X5942000Y-26980000D02*
X4842500Y-28080000D01*
X14987500Y-19025000D02*
X15747000Y-19025000D01*
X9150000Y-33850000D02*
X8101100Y-34898900D01*
X1530000Y-10917500D02*
X2618700Y-12006200D01*
X934500Y-20233000D02*
X934500Y-23016700D01*
X2618700Y-14188800D02*
X1530000Y-15277500D01*
X8101100Y-34898900D02*
X5898900Y-34898900D01*
X2618700Y-12006200D02*
X2618700Y-14188800D01*
X9250000Y-25150000D02*
X9250000Y-28050000D01*
X15747000Y-19025000D02*
X17750000Y-21028000D01*
X2589300Y-16336800D02*
X2589300Y-18578200D01*
X2589300Y-18578200D02*
X3036100Y-19025000D01*
X17680000Y-25000000D02*
X17680000Y-24100000D01*
X5898900Y-34898900D02*
X4850000Y-33850000D01*
X4850000Y-33850000D02*
X3921500Y-32921500D01*
X9250000Y-28050000D02*
X8180000Y-26980000D01*
X26050400Y-24950000D02*
X22900000Y-24950000D01*
%TO.N,/NCLR*%
X6287500Y-20676600D02*
X6039200Y-20676600D01*
X6287500Y-21450000D02*
X6287500Y-20676600D01*
X6379100Y-20585000D02*
X8378000Y-20585000D01*
X11250000Y-23457000D02*
X11250000Y-25150000D01*
X8378000Y-20585000D02*
X11250000Y-23457000D01*
X6287500Y-20676600D02*
X6379100Y-20585000D01*
X5860700Y-24161800D02*
X4842500Y-25180000D01*
X6034100Y-24161800D02*
X5860700Y-24161800D01*
%TO.N,/PWM2_G*%
X9528400Y-29003100D02*
X8876100Y-29003100D01*
X28133700Y-29693700D02*
X10219000Y-29693700D01*
X10219000Y-29693700D02*
X9528400Y-29003100D01*
X8876100Y-29003100D02*
X7922800Y-29956400D01*
X3950100Y-43889400D02*
X1880600Y-43889400D01*
X7922800Y-29956400D02*
X7922800Y-32048000D01*
X35675400Y-31475400D02*
X29915400Y-31475400D01*
X37450000Y-33250000D02*
X39750000Y-33250000D01*
X37450000Y-33250000D02*
X35675400Y-31475400D01*
X29915400Y-31475400D02*
X28133700Y-29693700D01*
X1880600Y-43889400D02*
X1850000Y-43920000D01*
%TO.N,/PWM1*%
X33240000Y-28940000D02*
X34450000Y-30150000D01*
X23079800Y-20325000D02*
X25004500Y-22249700D01*
X27274800Y-27950700D02*
X28264100Y-28940000D01*
X20712500Y-20325000D02*
X23079800Y-20325000D01*
X28264100Y-28940000D02*
X33240000Y-28940000D01*
%TO.N,/PWM1_G*%
X38750000Y-30150000D02*
X36450000Y-30150000D01*
X35754400Y-17515600D02*
X35754400Y-16198900D01*
X36450000Y-28447100D02*
X36056600Y-28053700D01*
X36450000Y-30150000D02*
X36450000Y-28447100D01*
X35220000Y-18050000D02*
X35754400Y-17515600D01*
%TO.N,/SEL_OUT*%
X20212500Y-25600000D02*
X19350000Y-25600000D01*
X14880000Y-23650000D02*
X14880000Y-25000000D01*
X14880000Y-25000000D02*
X14880000Y-25500000D01*
X19350000Y-25600000D02*
X19350000Y-27600000D01*
X6287500Y-22750000D02*
X6500900Y-22963400D01*
X6500900Y-22963400D02*
X7738800Y-22963400D01*
%TO.N,/NRST*%
X13500000Y-20325000D02*
X14987500Y-20325000D01*
D34*
X14880000Y-26000000D02*
X13500000Y-26000000D01*
D32*
X13500000Y-26000000D02*
X13500000Y-20325000D01*
%TO.N,/FLASH_MODE*%
X20998900Y-24350000D02*
X20212000Y-24350000D01*
X20212000Y-24350000D02*
X20212500Y-24950000D01*
X17680000Y-27200000D02*
X18680000Y-27200000D01*
X27546600Y-16269100D02*
X25730800Y-18084900D01*
X18680000Y-24350000D02*
X20212000Y-24350000D01*
X17680000Y-26500000D02*
X17680000Y-27200000D01*
X25730800Y-18084900D02*
X24460900Y-18084900D01*
X22294800Y-23054100D02*
X20998900Y-24350000D01*
X18680000Y-27200000D02*
X18680000Y-24350000D01*
%TO.N,/NQ*%
X17680000Y-26000000D02*
X17680000Y-25500000D01*
%TO.N,/PWR_IN*%
D33*
X61490000Y-11100000D02*
X58290000Y-11100000D01*
X58290000Y-11100000D02*
X53790000Y-6600000D01*
X67790000Y-11100000D02*
X61490000Y-11100000D01*
%TO.N,/LED2*%
X13350000Y-51400000D02*
X8150000Y-46200000D01*
X8800000Y-45550000D02*
X8800000Y-38750000D01*
X8150000Y-46200000D02*
X1850000Y-46200000D01*
X8150000Y-46200000D02*
X8800000Y-45550000D01*
X13350000Y-53900000D02*
X13350000Y-51400000D01*
%TO.N,/LED1*%
X37500000Y-11750000D02*
X37500000Y-18050000D01*
X39350000Y-23600000D02*
X37500000Y-21750000D01*
X37500000Y-11750000D02*
X42900000Y-6350000D01*
X37500000Y-21750000D02*
X37500000Y-18050000D01*
X42900000Y-6350000D02*
X42900000Y-4350000D01*
%TO.N,/+5V_LOKAL*%
D32*
X59951100Y-33514400D02*
X59287700Y-34177800D01*
X69180000Y-24750000D02*
X69180000Y-19670000D01*
X53480300Y-34177800D02*
X52382500Y-33080000D01*
X59287700Y-34177800D02*
X53480300Y-34177800D01*
X69180000Y-19670000D02*
X70300000Y-18550000D01*
%TO.N,/Q90_GATE*%
X61490000Y-8579100D02*
X57984200Y-5073300D01*
X56690000Y-5073300D02*
X56690000Y-1450000D01*
X56279500Y-5073300D02*
X55855600Y-5497200D01*
X52390000Y-1450000D02*
X52480200Y-1540200D01*
X56690000Y-5073300D02*
X56279500Y-5073300D01*
X61490000Y-8820000D02*
X61490000Y-8579100D01*
X52480200Y-1540200D02*
X52480200Y-2881700D01*
X57984200Y-5073300D02*
X56690000Y-5073300D01*
%TO.N,/PWM2*%
X33764600Y-33250000D02*
X32616700Y-32102100D01*
X20712500Y-20975000D02*
X19513900Y-20975000D01*
X35450000Y-33250000D02*
X33764600Y-33250000D01*
X19513900Y-20975000D02*
X18949500Y-20410600D01*
%TO.N,/VSYS*%
X61394500Y-16444500D02*
X56547300Y-16444500D01*
X63500000Y-18550000D02*
X61394500Y-16444500D01*
%TO.N,/I2C_SDA*%
X30610000Y-14970000D02*
X17092500Y-14970000D01*
X17092500Y-14970000D02*
X14987500Y-17075000D01*
%TO.N,/ID1*%
X9150000Y-31850000D02*
X11150000Y-33850000D01*
X9150000Y-30950000D02*
X9150000Y-31850000D01*
X14987500Y-21625000D02*
X17100000Y-21625000D01*
X9150000Y-29650000D02*
X9150000Y-30950000D01*
%TO.N,/PWM3*%
X20712500Y-22275000D02*
X23251500Y-22275000D01*
X33720000Y-34020000D02*
X28246700Y-34020000D01*
X23251500Y-22275000D02*
X25248000Y-24271500D01*
X35450000Y-35750000D02*
X33720000Y-34020000D01*
X28246700Y-34020000D02*
X26072200Y-31845500D01*
%TO.N,/FLASH_RX*%
X23259900Y-19675000D02*
X20712500Y-19675000D01*
X31801000Y-6001000D02*
X31801000Y-18016300D01*
X24220900Y-18714000D02*
X23259900Y-19675000D01*
X31801000Y-18016300D02*
X31103300Y-18714000D01*
X30610000Y-4810000D02*
X31801000Y-6001000D01*
X31103300Y-18714000D02*
X24220900Y-18714000D01*
%TO.N,/FLASH_TX*%
X21465900Y-19025000D02*
X20712500Y-19025000D01*
X22641900Y-17849000D02*
X21465900Y-19025000D01*
%TO.N,/BOOT0*%
X20712500Y-17725000D02*
X21475800Y-17725000D01*
X26719100Y-26250000D02*
X28604400Y-24364700D01*
X21475800Y-17725000D02*
X22575100Y-16625700D01*
X22575100Y-16625700D02*
X25019100Y-16625700D01*
X21887500Y-26250000D02*
X26719100Y-26250000D01*
%TO.N,/I2C_SCL*%
X28738500Y-15638500D02*
X22149000Y-15638500D01*
X22149000Y-15638500D02*
X20712500Y-17075000D01*
X30610000Y-17510000D02*
X28738500Y-15638500D01*
%TO.N,/SEL_CLK*%
X12534300Y-24089600D02*
X8494600Y-20049900D01*
X14515000Y-27344100D02*
X14158300Y-27344100D01*
X4612500Y-21217100D02*
X4612500Y-21450000D01*
X23349500Y-26750500D02*
X21854900Y-28245100D01*
X14158300Y-27344100D02*
X12534300Y-25720100D01*
X21854900Y-28245100D02*
X15416000Y-28245100D01*
X8494600Y-20049900D02*
X5779700Y-20049900D01*
X30610000Y-25130000D02*
X28989500Y-26750500D01*
X28989500Y-26750500D02*
X23349500Y-26750500D01*
X12534300Y-25720100D02*
X12534300Y-24089600D01*
X5779700Y-20049900D02*
X4612500Y-21217100D01*
X15416000Y-28245100D02*
X14515000Y-27344100D01*
%TO.N,/SEL_IN*%
X4612500Y-22750000D02*
X2224300Y-22750000D01*
X18940000Y-2750000D02*
X18940000Y-3576700D01*
X18940000Y-3576700D02*
X10790800Y-3576700D01*
X2224300Y-22750000D02*
X1601200Y-22126900D01*
X10790800Y-3576700D02*
X10023400Y-4344100D01*
%TO.N,/GP15*%
X36055000Y-60386000D02*
X33359700Y-57690700D01*
X33359700Y-57690700D02*
X31733100Y-57690700D01*
%TO.N,/PWM3_G*%
X12122300Y-40389300D02*
X12581000Y-40848000D01*
X12122300Y-37110600D02*
X12122300Y-40389300D01*
X12581100Y-40848000D02*
X12581100Y-41749700D01*
X36407500Y-36792500D02*
X34689800Y-36792500D01*
X12581100Y-41749700D02*
X13549900Y-42718500D01*
X27996600Y-36560000D02*
X27014700Y-35578100D01*
X37450000Y-35750000D02*
X36407500Y-36792500D01*
X12581000Y-40848000D02*
X12581100Y-40848000D01*
X13550000Y-42718500D02*
X13550000Y-43920000D01*
X13654800Y-35578100D02*
X12122300Y-37110600D01*
X13549900Y-42718500D02*
X13550000Y-42718500D01*
X34457300Y-36560000D02*
X27996600Y-36560000D01*
X27014700Y-35578100D02*
X13654800Y-35578100D01*
X34689800Y-36792500D02*
X34457300Y-36560000D01*
X37450000Y-35750000D02*
X39750000Y-35750000D01*
%TO.N,/GP16*%
X38947400Y-60386000D02*
X41625600Y-60386000D01*
X41625600Y-60386000D02*
X44732200Y-57279400D01*
%TD*%
%TA.AperFunction,Conductor*%
%TO.N,GND*%
G36*
X72002992Y-500681D02*
G01*
X72295310Y-518362D01*
X72307165Y-519802D01*
X72592281Y-572051D01*
X72603883Y-574911D01*
X72880623Y-661147D01*
X72891786Y-665380D01*
X73156117Y-784346D01*
X73156119Y-784347D01*
X73166702Y-789902D01*
X73414758Y-939856D01*
X73424583Y-946638D01*
X73652755Y-1125399D01*
X73661704Y-1133326D01*
X73866673Y-1338295D01*
X73874599Y-1347243D01*
X73995481Y-1501538D01*
X74053356Y-1575409D01*
X74060147Y-1585248D01*
X74210096Y-1833295D01*
X74215652Y-1843880D01*
X74334616Y-2108206D01*
X74338855Y-2119384D01*
X74425087Y-2396113D01*
X74427948Y-2407721D01*
X74480196Y-2692827D01*
X74481637Y-2704694D01*
X74499319Y-2997006D01*
X74499500Y-3002984D01*
X74499500Y-61997015D01*
X74499319Y-62002993D01*
X74481637Y-62295304D01*
X74480196Y-62307171D01*
X74427948Y-62592277D01*
X74425087Y-62603885D01*
X74338855Y-62880615D01*
X74334616Y-62891793D01*
X74215652Y-63156118D01*
X74210096Y-63166703D01*
X74060142Y-63414758D01*
X74053356Y-63424590D01*
X73874599Y-63652755D01*
X73866672Y-63661704D01*
X73661704Y-63866672D01*
X73652755Y-63874599D01*
X73424590Y-64053356D01*
X73414758Y-64060142D01*
X73177212Y-64203744D01*
X73166703Y-64210097D01*
X73156118Y-64215652D01*
X72891793Y-64334616D01*
X72880615Y-64338855D01*
X72603885Y-64425087D01*
X72592277Y-64427948D01*
X72307171Y-64480196D01*
X72295304Y-64481637D01*
X72023993Y-64498048D01*
X72002991Y-64499319D01*
X71997015Y-64499500D01*
X3002985Y-64499500D01*
X2997008Y-64499319D01*
X2973822Y-64497916D01*
X2704694Y-64481637D01*
X2692827Y-64480196D01*
X2407721Y-64427948D01*
X2396113Y-64425087D01*
X2119384Y-64338855D01*
X2108206Y-64334616D01*
X1843880Y-64215652D01*
X1833295Y-64210096D01*
X1672942Y-64113160D01*
X1585245Y-64060145D01*
X1575413Y-64053358D01*
X1347243Y-63874599D01*
X1338295Y-63866673D01*
X1133326Y-63661704D01*
X1125399Y-63652755D01*
X946638Y-63424583D01*
X939856Y-63414758D01*
X789902Y-63166703D01*
X784347Y-63156119D01*
X665383Y-62891793D01*
X661147Y-62880623D01*
X574911Y-62603883D01*
X572051Y-62592278D01*
X572051Y-62592277D01*
X519802Y-62307165D01*
X518362Y-62295304D01*
X513972Y-62222731D01*
X500681Y-62002992D01*
X500500Y-61997015D01*
X500500Y-60878710D01*
X2149500Y-60878710D01*
X2149500Y-61121289D01*
X2181161Y-61361781D01*
X2181161Y-61361786D01*
X2243944Y-61596092D01*
X2243948Y-61596105D01*
X2336772Y-61820204D01*
X2336774Y-61820208D01*
X2336776Y-61820212D01*
X2440577Y-62000000D01*
X2458066Y-62030292D01*
X2605729Y-62222731D01*
X2605731Y-62222733D01*
X2605735Y-62222738D01*
X2777262Y-62394265D01*
X2777266Y-62394268D01*
X2777268Y-62394270D01*
X2933630Y-62514250D01*
X2969711Y-62541936D01*
X3179788Y-62663224D01*
X3403900Y-62756054D01*
X3638211Y-62818838D01*
X3878712Y-62850500D01*
X3878713Y-62850500D01*
X4121287Y-62850500D01*
X4121288Y-62850500D01*
X4361789Y-62818838D01*
X4596100Y-62756054D01*
X4820212Y-62663224D01*
X5030289Y-62541936D01*
X5222738Y-62394265D01*
X5394265Y-62222738D01*
X5541936Y-62030289D01*
X5663224Y-61820212D01*
X5756054Y-61596100D01*
X5818838Y-61361789D01*
X5850500Y-61121288D01*
X5850500Y-60878712D01*
X5818838Y-60638211D01*
X5756054Y-60403900D01*
X5668620Y-60192814D01*
X5663227Y-60179795D01*
X5663226Y-60179794D01*
X5663224Y-60179788D01*
X5541936Y-59969711D01*
X5541933Y-59969707D01*
X5394270Y-59777268D01*
X5394268Y-59777266D01*
X5394265Y-59777262D01*
X5222738Y-59605735D01*
X5222733Y-59605731D01*
X5222731Y-59605729D01*
X5030292Y-59458066D01*
X5030289Y-59458064D01*
X4820212Y-59336776D01*
X4820208Y-59336774D01*
X4820204Y-59336772D01*
X4596105Y-59243948D01*
X4596104Y-59243947D01*
X4596100Y-59243946D01*
X4361789Y-59181162D01*
X4361786Y-59181161D01*
X4361784Y-59181161D01*
X4121289Y-59149500D01*
X4121288Y-59149500D01*
X3878712Y-59149500D01*
X3878710Y-59149500D01*
X3638218Y-59181161D01*
X3638213Y-59181161D01*
X3403907Y-59243944D01*
X3403894Y-59243948D01*
X3179795Y-59336772D01*
X2969707Y-59458066D01*
X2777268Y-59605729D01*
X2605729Y-59777268D01*
X2458066Y-59969707D01*
X2336772Y-60179795D01*
X2243948Y-60403894D01*
X2243944Y-60403907D01*
X2181161Y-60638213D01*
X2181161Y-60638218D01*
X2149500Y-60878710D01*
X500500Y-60878710D01*
X500500Y-57624808D01*
X31232600Y-57624808D01*
X31232600Y-57756592D01*
X31239172Y-57781119D01*
X31266709Y-57883890D01*
X31332596Y-57998009D01*
X31332598Y-57998011D01*
X31332600Y-57998014D01*
X31425786Y-58091200D01*
X31425788Y-58091201D01*
X31425790Y-58091203D01*
X31539910Y-58157090D01*
X31539908Y-58157090D01*
X31539912Y-58157091D01*
X31539914Y-58157092D01*
X31667208Y-58191200D01*
X31667210Y-58191200D01*
X31798990Y-58191200D01*
X31798992Y-58191200D01*
X31926286Y-58157092D01*
X31926288Y-58157090D01*
X31926290Y-58157090D01*
X32040409Y-58091203D01*
X32040410Y-58091202D01*
X32040414Y-58091200D01*
X32040415Y-58091199D01*
X32086419Y-58045196D01*
X32140936Y-58017419D01*
X32156422Y-58016200D01*
X33183865Y-58016200D01*
X33242056Y-58035107D01*
X33253869Y-58045196D01*
X35525504Y-60316830D01*
X35553281Y-60371347D01*
X35554500Y-60386834D01*
X35554500Y-60451892D01*
X35584579Y-60564151D01*
X35588609Y-60579190D01*
X35654496Y-60693309D01*
X35654498Y-60693311D01*
X35654500Y-60693314D01*
X35747686Y-60786500D01*
X35747688Y-60786501D01*
X35747690Y-60786503D01*
X35861810Y-60852390D01*
X35861808Y-60852390D01*
X35861812Y-60852391D01*
X35861814Y-60852392D01*
X35989108Y-60886500D01*
X35989110Y-60886500D01*
X36120890Y-60886500D01*
X36120892Y-60886500D01*
X36248186Y-60852392D01*
X36248188Y-60852390D01*
X36248190Y-60852390D01*
X36362309Y-60786503D01*
X36362309Y-60786502D01*
X36362314Y-60786500D01*
X36455500Y-60693314D01*
X36482547Y-60646467D01*
X36521390Y-60579190D01*
X36521390Y-60579188D01*
X36521392Y-60579186D01*
X36555500Y-60451892D01*
X36555500Y-60320108D01*
X38446900Y-60320108D01*
X38446900Y-60451892D01*
X38476979Y-60564151D01*
X38481009Y-60579190D01*
X38546896Y-60693309D01*
X38546898Y-60693311D01*
X38546900Y-60693314D01*
X38640086Y-60786500D01*
X38640088Y-60786501D01*
X38640090Y-60786503D01*
X38754210Y-60852390D01*
X38754208Y-60852390D01*
X38754212Y-60852391D01*
X38754214Y-60852392D01*
X38881508Y-60886500D01*
X38881510Y-60886500D01*
X39013290Y-60886500D01*
X39013292Y-60886500D01*
X39042365Y-60878710D01*
X69149500Y-60878710D01*
X69149500Y-61121289D01*
X69181161Y-61361781D01*
X69181161Y-61361786D01*
X69243944Y-61596092D01*
X69243948Y-61596105D01*
X69336772Y-61820204D01*
X69336774Y-61820208D01*
X69336776Y-61820212D01*
X69440577Y-62000000D01*
X69458066Y-62030292D01*
X69605729Y-62222731D01*
X69605731Y-62222733D01*
X69605735Y-62222738D01*
X69777262Y-62394265D01*
X69777266Y-62394268D01*
X69777268Y-62394270D01*
X69933630Y-62514250D01*
X69969711Y-62541936D01*
X70179788Y-62663224D01*
X70403900Y-62756054D01*
X70638211Y-62818838D01*
X70878712Y-62850500D01*
X70878713Y-62850500D01*
X71121287Y-62850500D01*
X71121288Y-62850500D01*
X71361789Y-62818838D01*
X71596100Y-62756054D01*
X71820212Y-62663224D01*
X72030289Y-62541936D01*
X72222738Y-62394265D01*
X72394265Y-62222738D01*
X72541936Y-62030289D01*
X72663224Y-61820212D01*
X72756054Y-61596100D01*
X72818838Y-61361789D01*
X72850500Y-61121288D01*
X72850500Y-60878712D01*
X72818838Y-60638211D01*
X72756054Y-60403900D01*
X72668620Y-60192814D01*
X72663227Y-60179795D01*
X72663226Y-60179794D01*
X72663224Y-60179788D01*
X72541936Y-59969711D01*
X72541933Y-59969707D01*
X72394270Y-59777268D01*
X72394268Y-59777266D01*
X72394265Y-59777262D01*
X72222738Y-59605735D01*
X72222733Y-59605731D01*
X72222731Y-59605729D01*
X72030292Y-59458066D01*
X72030289Y-59458064D01*
X71820212Y-59336776D01*
X71820208Y-59336774D01*
X71820204Y-59336772D01*
X71596105Y-59243948D01*
X71596104Y-59243947D01*
X71596100Y-59243946D01*
X71361789Y-59181162D01*
X71361786Y-59181161D01*
X71361784Y-59181161D01*
X71121289Y-59149500D01*
X71121288Y-59149500D01*
X70878712Y-59149500D01*
X70878710Y-59149500D01*
X70638218Y-59181161D01*
X70638213Y-59181161D01*
X70403907Y-59243944D01*
X70403894Y-59243948D01*
X70179795Y-59336772D01*
X69969707Y-59458066D01*
X69777268Y-59605729D01*
X69605729Y-59777268D01*
X69458066Y-59969707D01*
X69336772Y-60179795D01*
X69243948Y-60403894D01*
X69243944Y-60403907D01*
X69181161Y-60638213D01*
X69181161Y-60638218D01*
X69149500Y-60878710D01*
X39042365Y-60878710D01*
X39140586Y-60852392D01*
X39140588Y-60852390D01*
X39140590Y-60852390D01*
X39240083Y-60794947D01*
X39240082Y-60794947D01*
X39254714Y-60786500D01*
X39302535Y-60738678D01*
X39304454Y-60736950D01*
X39330166Y-60725492D01*
X39355236Y-60712719D01*
X39359601Y-60712375D01*
X39360341Y-60712046D01*
X39361273Y-60712243D01*
X39370722Y-60711500D01*
X41668451Y-60711500D01*
X41668453Y-60711500D01*
X41751239Y-60689318D01*
X41751241Y-60689316D01*
X41751243Y-60689316D01*
X41825457Y-60646468D01*
X41825457Y-60646467D01*
X41825462Y-60646465D01*
X44663031Y-57808896D01*
X44717548Y-57781119D01*
X44733035Y-57779900D01*
X44798090Y-57779900D01*
X44798092Y-57779900D01*
X44925386Y-57745792D01*
X44925388Y-57745790D01*
X44925390Y-57745790D01*
X45039509Y-57679903D01*
X45039509Y-57679902D01*
X45039514Y-57679900D01*
X45132700Y-57586714D01*
X45198592Y-57472586D01*
X45232700Y-57345292D01*
X45232700Y-57213508D01*
X45198592Y-57086214D01*
X45198590Y-57086211D01*
X45198590Y-57086209D01*
X45132703Y-56972090D01*
X45132701Y-56972088D01*
X45132700Y-56972086D01*
X45039514Y-56878900D01*
X45039511Y-56878898D01*
X45039509Y-56878896D01*
X44925389Y-56813009D01*
X44925391Y-56813009D01*
X44875999Y-56799775D01*
X44798092Y-56778900D01*
X44666308Y-56778900D01*
X44588400Y-56799775D01*
X44539009Y-56813009D01*
X44424890Y-56878896D01*
X44331696Y-56972090D01*
X44265809Y-57086209D01*
X44231700Y-57213509D01*
X44231700Y-57278565D01*
X44212793Y-57336756D01*
X44202704Y-57348569D01*
X41519769Y-60031504D01*
X41465252Y-60059281D01*
X41449765Y-60060500D01*
X39370722Y-60060500D01*
X39312531Y-60041593D01*
X39300719Y-60031504D01*
X39254715Y-59985500D01*
X39254709Y-59985496D01*
X39140589Y-59919609D01*
X39140591Y-59919609D01*
X39091199Y-59906375D01*
X39013292Y-59885500D01*
X38881508Y-59885500D01*
X38803600Y-59906375D01*
X38754209Y-59919609D01*
X38640090Y-59985496D01*
X38546896Y-60078690D01*
X38481009Y-60192809D01*
X38481008Y-60192814D01*
X38446900Y-60320108D01*
X36555500Y-60320108D01*
X36521392Y-60192814D01*
X36521390Y-60192811D01*
X36521390Y-60192809D01*
X36455503Y-60078690D01*
X36455501Y-60078688D01*
X36455500Y-60078686D01*
X36362314Y-59985500D01*
X36362311Y-59985498D01*
X36362309Y-59985496D01*
X36248189Y-59919609D01*
X36248191Y-59919609D01*
X36198799Y-59906375D01*
X36120892Y-59885500D01*
X36120890Y-59885500D01*
X36055834Y-59885500D01*
X35997643Y-59866593D01*
X35985830Y-59856504D01*
X35278826Y-59149500D01*
X33559562Y-57430235D01*
X33559559Y-57430233D01*
X33559557Y-57430231D01*
X33485342Y-57387383D01*
X33485344Y-57387383D01*
X33453221Y-57378776D01*
X33402553Y-57365200D01*
X33402551Y-57365200D01*
X32156422Y-57365200D01*
X32098231Y-57346293D01*
X32086419Y-57336204D01*
X32040415Y-57290200D01*
X32040409Y-57290196D01*
X31926289Y-57224309D01*
X31926291Y-57224309D01*
X31876899Y-57211075D01*
X31798992Y-57190200D01*
X31667208Y-57190200D01*
X31589300Y-57211075D01*
X31539909Y-57224309D01*
X31425790Y-57290196D01*
X31332596Y-57383390D01*
X31266709Y-57497509D01*
X31266708Y-57497514D01*
X31232600Y-57624808D01*
X500500Y-57624808D01*
X500500Y-46932706D01*
X519407Y-46874515D01*
X568907Y-46838551D01*
X630093Y-46838551D01*
X671270Y-46868236D01*
X672604Y-46866903D01*
X677847Y-46872146D01*
X677850Y-46872150D01*
X677853Y-46872152D01*
X677855Y-46872154D01*
X787116Y-46952792D01*
X787117Y-46952792D01*
X787118Y-46952793D01*
X915301Y-46997646D01*
X945725Y-47000499D01*
X945727Y-47000500D01*
X945734Y-47000500D01*
X2754273Y-47000500D01*
X2754273Y-47000499D01*
X2784699Y-46997646D01*
X2912882Y-46952793D01*
X2940099Y-46932706D01*
X2957526Y-46919845D01*
X3015574Y-46900503D01*
X3016314Y-46900500D01*
X4650500Y-46900500D01*
X4708691Y-46919407D01*
X4744655Y-46968907D01*
X4749500Y-46999500D01*
X4749500Y-48904273D01*
X4752353Y-48934705D01*
X4752354Y-48934706D01*
X4797206Y-49062885D01*
X4877844Y-49172146D01*
X4877853Y-49172155D01*
X4987114Y-49252793D01*
X4987115Y-49252793D01*
X4987116Y-49252794D01*
X5115293Y-49297645D01*
X5115294Y-49297646D01*
X5115295Y-49297646D01*
X5115298Y-49297647D01*
X5145724Y-49300500D01*
X10218835Y-49300500D01*
X10277026Y-49319407D01*
X10288839Y-49329496D01*
X12620504Y-51661161D01*
X12648281Y-51715678D01*
X12649500Y-51731165D01*
X12649500Y-52627386D01*
X12630593Y-52685577D01*
X12608691Y-52707478D01*
X12437638Y-52831755D01*
X12437635Y-52831758D01*
X12281758Y-52987635D01*
X12216971Y-53076806D01*
X12152183Y-53165980D01*
X12052102Y-53362400D01*
X11983984Y-53572051D01*
X11949500Y-53789774D01*
X11949500Y-54010225D01*
X11983984Y-54227948D01*
X12052102Y-54437599D01*
X12052104Y-54437602D01*
X12052105Y-54437606D01*
X12152185Y-54634022D01*
X12281758Y-54812365D01*
X12433591Y-54964198D01*
X12461367Y-55018713D01*
X12451796Y-55079145D01*
X12408531Y-55122410D01*
X12363586Y-55133200D01*
X12114865Y-55133200D01*
X12056674Y-55114293D01*
X12044861Y-55104204D01*
X11279495Y-54338838D01*
X11251718Y-54284321D01*
X11250499Y-54268834D01*
X11250499Y-52895734D01*
X11247646Y-52865305D01*
X11247646Y-52865302D01*
X11202793Y-52737118D01*
X11202791Y-52737116D01*
X11202791Y-52737114D01*
X11122154Y-52627855D01*
X11122152Y-52627853D01*
X11122150Y-52627850D01*
X11122146Y-52627847D01*
X11122144Y-52627845D01*
X11012885Y-52547208D01*
X10998697Y-52542243D01*
X10884698Y-52502354D01*
X10884696Y-52502353D01*
X10884694Y-52502353D01*
X10854272Y-52499500D01*
X8845734Y-52499500D01*
X8815305Y-52502353D01*
X8687114Y-52547208D01*
X8577855Y-52627845D01*
X8577845Y-52627855D01*
X8497208Y-52737114D01*
X8452353Y-52865305D01*
X8449500Y-52895726D01*
X8449500Y-54904265D01*
X8452353Y-54934694D01*
X8452353Y-54934696D01*
X8452354Y-54934698D01*
X8465269Y-54971607D01*
X8497208Y-55062885D01*
X8577845Y-55172144D01*
X8577847Y-55172146D01*
X8577850Y-55172150D01*
X8577853Y-55172152D01*
X8577855Y-55172154D01*
X8687114Y-55252791D01*
X8687116Y-55252791D01*
X8687118Y-55252793D01*
X8815302Y-55297646D01*
X8845735Y-55300500D01*
X10218834Y-55300499D01*
X10277025Y-55319406D01*
X10288838Y-55329495D01*
X11337157Y-56377814D01*
X11451889Y-56454475D01*
X11579372Y-56507280D01*
X11714706Y-56534200D01*
X11714707Y-56534200D01*
X16585293Y-56534200D01*
X16585294Y-56534200D01*
X16720628Y-56507280D01*
X16848111Y-56454475D01*
X16962843Y-56377814D01*
X18011161Y-55329494D01*
X18065678Y-55301718D01*
X18081165Y-55300499D01*
X18818834Y-55300499D01*
X18877025Y-55319406D01*
X18888838Y-55329495D01*
X19905157Y-56345814D01*
X20019889Y-56422475D01*
X20147372Y-56475280D01*
X20282706Y-56502200D01*
X20282707Y-56502200D01*
X31006793Y-56502200D01*
X31006794Y-56502200D01*
X31142128Y-56475280D01*
X31269611Y-56422475D01*
X31384343Y-56345814D01*
X34378060Y-53352095D01*
X34432577Y-53324319D01*
X34448064Y-53323100D01*
X60125493Y-53323100D01*
X60125494Y-53323100D01*
X60260828Y-53296180D01*
X60388311Y-53243375D01*
X60503043Y-53166714D01*
X64582414Y-49087343D01*
X64659075Y-48972611D01*
X64711880Y-48845128D01*
X64716841Y-48820185D01*
X64746738Y-48766802D01*
X64802303Y-48741186D01*
X64813939Y-48740500D01*
X68510692Y-48740500D01*
X68510693Y-48740500D01*
X68646028Y-48713580D01*
X68773511Y-48660775D01*
X68888242Y-48584114D01*
X68985814Y-48486542D01*
X69062475Y-48371811D01*
X69115280Y-48244328D01*
X69142200Y-48108993D01*
X69142200Y-45431007D01*
X69115280Y-45295672D01*
X69062475Y-45168189D01*
X69062474Y-45168187D01*
X69062471Y-45168182D01*
X68985814Y-45053458D01*
X68888241Y-44955885D01*
X68773517Y-44879228D01*
X68773506Y-44879222D01*
X68646028Y-44826420D01*
X68510695Y-44799500D01*
X68510693Y-44799500D01*
X67759748Y-44799500D01*
X66308993Y-44799500D01*
X64837800Y-44799500D01*
X64779609Y-44780593D01*
X64743645Y-44731093D01*
X64738800Y-44700500D01*
X64738800Y-36116008D01*
X64738799Y-36116004D01*
X64736805Y-36105979D01*
X64711880Y-35980672D01*
X64659075Y-35853189D01*
X64659074Y-35853187D01*
X64659071Y-35853182D01*
X64618759Y-35792852D01*
X64618758Y-35792850D01*
X64582418Y-35738462D01*
X64582416Y-35738460D01*
X64582414Y-35738457D01*
X55384158Y-26540201D01*
X55356383Y-26485687D01*
X55365954Y-26425255D01*
X55384157Y-26400199D01*
X56304861Y-25479496D01*
X56359378Y-25451719D01*
X56374865Y-25450500D01*
X62950500Y-25450500D01*
X63008691Y-25469407D01*
X63044655Y-25518907D01*
X63049500Y-25549500D01*
X63049500Y-26019746D01*
X63049501Y-26019758D01*
X63061132Y-26078227D01*
X63061134Y-26078233D01*
X63102493Y-26140130D01*
X63105448Y-26144552D01*
X63171769Y-26188867D01*
X63216231Y-26197711D01*
X63230241Y-26200498D01*
X63230246Y-26200498D01*
X63230252Y-26200500D01*
X63230253Y-26200500D01*
X64969747Y-26200500D01*
X64969748Y-26200500D01*
X65028231Y-26188867D01*
X65094552Y-26144552D01*
X65138867Y-26078231D01*
X65150500Y-26019748D01*
X65150500Y-24246532D01*
X68129500Y-24246532D01*
X68129500Y-25253467D01*
X68169869Y-25456418D01*
X68249058Y-25647597D01*
X68364007Y-25819631D01*
X68364023Y-25819655D01*
X68510345Y-25965977D01*
X68682402Y-26080941D01*
X68873580Y-26160130D01*
X69076535Y-26200500D01*
X69076536Y-26200500D01*
X69283464Y-26200500D01*
X69283465Y-26200500D01*
X69486420Y-26160130D01*
X69677598Y-26080941D01*
X69849655Y-25965977D01*
X69995977Y-25819655D01*
X70110941Y-25647598D01*
X70190130Y-25456420D01*
X70230500Y-25253465D01*
X70230500Y-24246535D01*
X70190130Y-24043580D01*
X70110941Y-23852402D01*
X69995977Y-23680345D01*
X69849655Y-23534023D01*
X69849651Y-23534020D01*
X69677597Y-23419058D01*
X69566614Y-23373087D01*
X69520088Y-23333350D01*
X69505500Y-23281623D01*
X69505500Y-20499500D01*
X69524407Y-20441309D01*
X69573907Y-20405345D01*
X69604500Y-20400500D01*
X71354273Y-20400500D01*
X71354273Y-20400499D01*
X71384699Y-20397646D01*
X71512882Y-20352793D01*
X71622150Y-20272150D01*
X71702793Y-20162882D01*
X71747646Y-20034699D01*
X71750499Y-20004273D01*
X71750500Y-20004273D01*
X71750500Y-17095727D01*
X71750499Y-17095725D01*
X71747646Y-17065305D01*
X71747646Y-17065301D01*
X71702793Y-16937118D01*
X71699862Y-16933147D01*
X71622154Y-16827855D01*
X71622152Y-16827853D01*
X71622150Y-16827850D01*
X71622146Y-16827847D01*
X71622144Y-16827845D01*
X71512883Y-16747207D01*
X71384703Y-16702355D01*
X71384694Y-16702353D01*
X71354274Y-16699500D01*
X71354266Y-16699500D01*
X69245734Y-16699500D01*
X69245725Y-16699500D01*
X69215305Y-16702353D01*
X69215296Y-16702355D01*
X69087116Y-16747207D01*
X68977855Y-16827845D01*
X68977845Y-16827855D01*
X68897207Y-16937116D01*
X68852355Y-17065296D01*
X68852353Y-17065305D01*
X68849500Y-17095725D01*
X68849500Y-20004274D01*
X68852805Y-20039514D01*
X68854500Y-20055209D01*
X68854500Y-23281623D01*
X68835593Y-23339814D01*
X68793386Y-23373087D01*
X68682402Y-23419058D01*
X68510348Y-23534020D01*
X68364020Y-23680348D01*
X68249058Y-23852402D01*
X68169869Y-24043581D01*
X68129500Y-24246532D01*
X65150500Y-24246532D01*
X65150500Y-23480252D01*
X65138867Y-23421769D01*
X65094552Y-23355448D01*
X65078027Y-23344406D01*
X65028233Y-23311134D01*
X65028231Y-23311133D01*
X65028228Y-23311132D01*
X65028227Y-23311132D01*
X64969758Y-23299501D01*
X64969748Y-23299500D01*
X63230252Y-23299500D01*
X63230251Y-23299500D01*
X63230241Y-23299501D01*
X63171772Y-23311132D01*
X63171766Y-23311134D01*
X63105451Y-23355445D01*
X63105445Y-23355451D01*
X63061134Y-23421766D01*
X63061132Y-23421772D01*
X63049501Y-23480241D01*
X63049500Y-23480253D01*
X63049500Y-23950500D01*
X63030593Y-24008691D01*
X62981093Y-24044655D01*
X62950500Y-24049500D01*
X56843200Y-24049500D01*
X56785009Y-24030593D01*
X56749045Y-23981093D01*
X56744200Y-23950500D01*
X56744200Y-21484708D01*
X56744199Y-21484704D01*
X56743291Y-21480140D01*
X56718101Y-21353501D01*
X56718100Y-21353493D01*
X56717281Y-21349376D01*
X56717280Y-21349372D01*
X56714555Y-21342794D01*
X56664475Y-21221889D01*
X56587814Y-21107157D01*
X54519496Y-19038839D01*
X54491719Y-18984322D01*
X54490500Y-18968835D01*
X54490500Y-17203764D01*
X54509407Y-17145573D01*
X54519496Y-17133760D01*
X55274648Y-16378608D01*
X56046800Y-16378608D01*
X56046800Y-16510392D01*
X56065199Y-16579058D01*
X56080909Y-16637690D01*
X56146796Y-16751809D01*
X56146798Y-16751811D01*
X56146800Y-16751814D01*
X56239986Y-16845000D01*
X56239988Y-16845001D01*
X56239990Y-16845003D01*
X56354110Y-16910890D01*
X56354108Y-16910890D01*
X56354112Y-16910891D01*
X56354114Y-16910892D01*
X56481408Y-16945000D01*
X56481410Y-16945000D01*
X56613190Y-16945000D01*
X56613192Y-16945000D01*
X56740486Y-16910892D01*
X56740488Y-16910890D01*
X56740490Y-16910890D01*
X56854609Y-16845003D01*
X56854610Y-16845002D01*
X56854614Y-16845000D01*
X56871769Y-16827845D01*
X56900619Y-16798996D01*
X56955136Y-16771219D01*
X56970622Y-16770000D01*
X61218665Y-16770000D01*
X61276856Y-16788907D01*
X61288669Y-16798996D01*
X62020504Y-17530830D01*
X62048281Y-17585347D01*
X62049500Y-17600834D01*
X62049500Y-20004274D01*
X62052353Y-20034694D01*
X62052355Y-20034703D01*
X62097207Y-20162883D01*
X62177845Y-20272144D01*
X62177847Y-20272146D01*
X62177850Y-20272150D01*
X62177853Y-20272152D01*
X62177855Y-20272154D01*
X62287116Y-20352792D01*
X62287117Y-20352792D01*
X62287118Y-20352793D01*
X62415301Y-20397646D01*
X62445725Y-20400499D01*
X62445727Y-20400500D01*
X62445734Y-20400500D01*
X64554273Y-20400500D01*
X64554273Y-20400499D01*
X64584699Y-20397646D01*
X64712882Y-20352793D01*
X64822150Y-20272150D01*
X64902793Y-20162882D01*
X64947646Y-20034699D01*
X64950499Y-20004273D01*
X64950500Y-20004273D01*
X64950500Y-17095727D01*
X64950499Y-17095725D01*
X64947646Y-17065305D01*
X64947646Y-17065301D01*
X64902793Y-16937118D01*
X64899862Y-16933147D01*
X64822154Y-16827855D01*
X64822152Y-16827853D01*
X64822150Y-16827850D01*
X64822146Y-16827847D01*
X64822144Y-16827845D01*
X64712883Y-16747207D01*
X64584703Y-16702355D01*
X64584694Y-16702353D01*
X64554274Y-16699500D01*
X64554266Y-16699500D01*
X62445734Y-16699500D01*
X62445725Y-16699500D01*
X62415305Y-16702353D01*
X62415296Y-16702355D01*
X62287121Y-16747205D01*
X62287111Y-16747211D01*
X62281101Y-16751646D01*
X62223052Y-16770983D01*
X62164723Y-16752507D01*
X62152316Y-16741990D01*
X61907474Y-16497148D01*
X61594362Y-16184035D01*
X61594359Y-16184033D01*
X61594357Y-16184031D01*
X61520142Y-16141183D01*
X61520144Y-16141183D01*
X61488021Y-16132576D01*
X61437353Y-16119000D01*
X61437351Y-16119000D01*
X56970622Y-16119000D01*
X56912431Y-16100093D01*
X56900619Y-16090004D01*
X56854615Y-16044000D01*
X56854609Y-16043996D01*
X56740489Y-15978109D01*
X56740491Y-15978109D01*
X56687834Y-15964000D01*
X56613192Y-15944000D01*
X56481408Y-15944000D01*
X56406766Y-15964000D01*
X56354109Y-15978109D01*
X56239990Y-16043996D01*
X56146796Y-16137190D01*
X56080909Y-16251309D01*
X56069484Y-16293948D01*
X56046800Y-16378608D01*
X55274648Y-16378608D01*
X57543760Y-14109496D01*
X57598277Y-14081719D01*
X57613764Y-14080500D01*
X60323686Y-14080500D01*
X60381877Y-14099407D01*
X60382474Y-14099845D01*
X60427116Y-14132792D01*
X60427117Y-14132792D01*
X60427118Y-14132793D01*
X60555301Y-14177646D01*
X60585725Y-14180499D01*
X60585727Y-14180500D01*
X60585734Y-14180500D01*
X62394273Y-14180500D01*
X62394273Y-14180499D01*
X62424699Y-14177646D01*
X62552882Y-14132793D01*
X62662150Y-14052150D01*
X62742793Y-13942882D01*
X62787646Y-13814699D01*
X62790499Y-13784273D01*
X62790500Y-13784273D01*
X62790500Y-12975727D01*
X62790499Y-12975725D01*
X62787646Y-12945305D01*
X62787646Y-12945301D01*
X62742793Y-12817118D01*
X62683236Y-12736421D01*
X62662154Y-12707855D01*
X62662152Y-12707853D01*
X62662150Y-12707850D01*
X62662146Y-12707847D01*
X62662144Y-12707845D01*
X62552883Y-12627207D01*
X62424703Y-12582355D01*
X62424694Y-12582353D01*
X62394274Y-12579500D01*
X62394266Y-12579500D01*
X60585734Y-12579500D01*
X60585725Y-12579500D01*
X60555305Y-12582353D01*
X60555296Y-12582355D01*
X60427116Y-12627207D01*
X60382474Y-12660155D01*
X60324426Y-12679497D01*
X60323686Y-12679500D01*
X57613765Y-12679500D01*
X57555574Y-12660593D01*
X57543761Y-12650504D01*
X53062760Y-8169503D01*
X53034983Y-8114986D01*
X53044554Y-8054554D01*
X53087819Y-8011289D01*
X53132764Y-8000499D01*
X54158834Y-8000499D01*
X54217025Y-8019406D01*
X54228838Y-8029495D01*
X57843457Y-11644114D01*
X57958189Y-11720775D01*
X58085672Y-11773580D01*
X58221006Y-11800500D01*
X58221007Y-11800500D01*
X60323686Y-11800500D01*
X60381877Y-11819407D01*
X60382474Y-11819845D01*
X60427116Y-11852792D01*
X60427117Y-11852792D01*
X60427118Y-11852793D01*
X60555301Y-11897646D01*
X60585725Y-11900499D01*
X60585727Y-11900500D01*
X60585734Y-11900500D01*
X62394273Y-11900500D01*
X62394273Y-11900499D01*
X62424699Y-11897646D01*
X62552882Y-11852793D01*
X62577721Y-11834461D01*
X62597526Y-11819845D01*
X62655574Y-11800503D01*
X62656314Y-11800500D01*
X64290500Y-11800500D01*
X64348691Y-11819407D01*
X64384655Y-11868907D01*
X64389500Y-11899500D01*
X64389500Y-13804273D01*
X64392353Y-13834705D01*
X64392354Y-13834706D01*
X64437206Y-13962885D01*
X64517844Y-14072146D01*
X64517853Y-14072155D01*
X64627114Y-14152793D01*
X64627115Y-14152793D01*
X64627116Y-14152794D01*
X64755293Y-14197645D01*
X64755294Y-14197646D01*
X64755295Y-14197646D01*
X64755298Y-14197647D01*
X64785724Y-14200500D01*
X64785727Y-14200500D01*
X70794273Y-14200500D01*
X70794276Y-14200500D01*
X70824702Y-14197647D01*
X70952884Y-14152794D01*
X71062151Y-14072151D01*
X71062886Y-14071156D01*
X71142793Y-13962885D01*
X71142792Y-13962885D01*
X71142794Y-13962884D01*
X71187647Y-13834702D01*
X71190500Y-13804276D01*
X71190500Y-8395724D01*
X71187647Y-8365298D01*
X71142794Y-8237116D01*
X71142793Y-8237114D01*
X71062155Y-8127853D01*
X71062146Y-8127844D01*
X70952885Y-8047206D01*
X70824706Y-8002354D01*
X70824705Y-8002353D01*
X70805932Y-8000593D01*
X70794276Y-7999500D01*
X64785724Y-7999500D01*
X64774068Y-8000593D01*
X64755294Y-8002353D01*
X64755293Y-8002354D01*
X64627114Y-8047206D01*
X64517853Y-8127844D01*
X64517844Y-8127853D01*
X64437206Y-8237114D01*
X64392354Y-8365293D01*
X64392353Y-8365294D01*
X64389500Y-8395726D01*
X64389500Y-10300500D01*
X64370593Y-10358691D01*
X64321093Y-10394655D01*
X64290500Y-10399500D01*
X62656314Y-10399500D01*
X62598123Y-10380593D01*
X62597526Y-10380155D01*
X62552883Y-10347207D01*
X62424703Y-10302355D01*
X62424694Y-10302353D01*
X62394274Y-10299500D01*
X62394266Y-10299500D01*
X60585734Y-10299500D01*
X60585725Y-10299500D01*
X60555305Y-10302353D01*
X60555296Y-10302355D01*
X60427116Y-10347207D01*
X60382474Y-10380155D01*
X60324426Y-10399497D01*
X60323686Y-10399500D01*
X58621165Y-10399500D01*
X58562974Y-10380593D01*
X58551161Y-10370504D01*
X55219495Y-7038838D01*
X55191718Y-6984321D01*
X55190499Y-6968834D01*
X55190499Y-5700772D01*
X55209406Y-5642581D01*
X55258906Y-5606617D01*
X55320092Y-5606617D01*
X55369592Y-5642581D01*
X55385126Y-5675150D01*
X55389209Y-5690389D01*
X55455096Y-5804509D01*
X55455098Y-5804511D01*
X55455100Y-5804514D01*
X55548286Y-5897700D01*
X55548288Y-5897701D01*
X55548290Y-5897703D01*
X55662410Y-5963590D01*
X55662408Y-5963590D01*
X55662412Y-5963591D01*
X55662414Y-5963592D01*
X55789708Y-5997700D01*
X55789710Y-5997700D01*
X55921490Y-5997700D01*
X55921492Y-5997700D01*
X56048786Y-5963592D01*
X56048788Y-5963590D01*
X56048790Y-5963590D01*
X56162909Y-5897703D01*
X56162909Y-5897702D01*
X56162914Y-5897700D01*
X56256100Y-5804514D01*
X56273626Y-5774159D01*
X56321990Y-5690390D01*
X56321990Y-5690388D01*
X56321992Y-5690386D01*
X56356100Y-5563092D01*
X56356100Y-5498035D01*
X56375007Y-5439844D01*
X56385096Y-5428031D01*
X56385331Y-5427796D01*
X56439848Y-5400019D01*
X56455335Y-5398800D01*
X56647147Y-5398800D01*
X57808365Y-5398800D01*
X57866556Y-5417707D01*
X57878369Y-5427796D01*
X60397935Y-7947362D01*
X60425712Y-8001879D01*
X60416141Y-8062311D01*
X60386720Y-8097021D01*
X60317852Y-8147848D01*
X60317845Y-8147855D01*
X60237207Y-8257116D01*
X60192355Y-8385296D01*
X60192353Y-8385305D01*
X60189500Y-8415725D01*
X60189500Y-9224274D01*
X60192353Y-9254694D01*
X60192355Y-9254703D01*
X60237207Y-9382883D01*
X60317845Y-9492144D01*
X60317847Y-9492146D01*
X60317850Y-9492150D01*
X60317853Y-9492152D01*
X60317855Y-9492154D01*
X60427116Y-9572792D01*
X60427117Y-9572792D01*
X60427118Y-9572793D01*
X60555301Y-9617646D01*
X60585725Y-9620499D01*
X60585727Y-9620500D01*
X60585734Y-9620500D01*
X62394273Y-9620500D01*
X62394273Y-9620499D01*
X62424699Y-9617646D01*
X62552882Y-9572793D01*
X62662150Y-9492150D01*
X62742793Y-9382882D01*
X62787646Y-9254699D01*
X62790499Y-9224273D01*
X62790500Y-9224273D01*
X62790500Y-8415727D01*
X62790499Y-8415725D01*
X62788762Y-8397206D01*
X62787646Y-8385301D01*
X62742793Y-8257118D01*
X62728029Y-8237114D01*
X62662154Y-8147855D01*
X62662152Y-8147853D01*
X62662150Y-8147850D01*
X62662146Y-8147847D01*
X62662144Y-8147845D01*
X62552883Y-8067207D01*
X62424703Y-8022355D01*
X62424694Y-8022353D01*
X62394274Y-8019500D01*
X62394266Y-8019500D01*
X61431735Y-8019500D01*
X61373544Y-8000593D01*
X61361731Y-7990504D01*
X59790219Y-6418992D01*
X58184062Y-4812835D01*
X58184059Y-4812833D01*
X58184058Y-4812832D01*
X58184057Y-4812831D01*
X58109842Y-4769983D01*
X58109844Y-4769983D01*
X58077721Y-4761376D01*
X58027053Y-4747800D01*
X58027051Y-4747800D01*
X57114500Y-4747800D01*
X57056309Y-4728893D01*
X57020345Y-4679393D01*
X57015500Y-4648800D01*
X57015500Y-3878710D01*
X69149500Y-3878710D01*
X69149500Y-4121289D01*
X69181161Y-4361781D01*
X69181161Y-4361786D01*
X69194078Y-4409992D01*
X69241210Y-4585891D01*
X69243944Y-4596092D01*
X69243948Y-4596105D01*
X69336772Y-4820204D01*
X69336774Y-4820208D01*
X69336776Y-4820212D01*
X69458064Y-5030289D01*
X69458066Y-5030292D01*
X69605729Y-5222731D01*
X69605731Y-5222733D01*
X69605735Y-5222738D01*
X69777262Y-5394265D01*
X69777266Y-5394268D01*
X69777268Y-5394270D01*
X69907087Y-5493883D01*
X69969711Y-5541936D01*
X70179788Y-5663224D01*
X70403900Y-5756054D01*
X70638211Y-5818838D01*
X70878712Y-5850500D01*
X70878713Y-5850500D01*
X71121287Y-5850500D01*
X71121288Y-5850500D01*
X71361789Y-5818838D01*
X71596100Y-5756054D01*
X71820212Y-5663224D01*
X72030289Y-5541936D01*
X72222738Y-5394265D01*
X72394265Y-5222738D01*
X72541936Y-5030289D01*
X72663224Y-4820212D01*
X72756054Y-4596100D01*
X72818838Y-4361789D01*
X72850500Y-4121288D01*
X72850500Y-3878712D01*
X72818838Y-3638211D01*
X72756054Y-3403900D01*
X72667046Y-3189014D01*
X72663227Y-3179795D01*
X72663226Y-3179794D01*
X72663224Y-3179788D01*
X72541936Y-2969711D01*
X72423843Y-2815809D01*
X72394270Y-2777268D01*
X72394268Y-2777266D01*
X72394265Y-2777262D01*
X72222738Y-2605735D01*
X72222733Y-2605731D01*
X72222731Y-2605729D01*
X72030292Y-2458066D01*
X72029305Y-2457496D01*
X71820212Y-2336776D01*
X71820208Y-2336774D01*
X71820204Y-2336772D01*
X71596105Y-2243948D01*
X71596104Y-2243947D01*
X71596100Y-2243946D01*
X71361789Y-2181162D01*
X71361786Y-2181161D01*
X71361784Y-2181161D01*
X71121289Y-2149500D01*
X71121288Y-2149500D01*
X70878712Y-2149500D01*
X70878710Y-2149500D01*
X70638218Y-2181161D01*
X70638213Y-2181161D01*
X70403907Y-2243944D01*
X70403894Y-2243948D01*
X70179795Y-2336772D01*
X69969707Y-2458066D01*
X69777268Y-2605729D01*
X69605729Y-2777268D01*
X69458066Y-2969707D01*
X69336772Y-3179795D01*
X69243948Y-3403894D01*
X69243944Y-3403907D01*
X69181161Y-3638213D01*
X69181161Y-3638218D01*
X69149500Y-3878710D01*
X57015500Y-3878710D01*
X57015500Y-2448037D01*
X57034407Y-2389846D01*
X57083907Y-2353882D01*
X57105255Y-2349470D01*
X57115712Y-2348488D01*
X57124699Y-2347646D01*
X57252882Y-2302793D01*
X57362150Y-2222150D01*
X57442793Y-2112882D01*
X57487646Y-1984699D01*
X57490499Y-1954273D01*
X57490500Y-1954273D01*
X57490500Y-945727D01*
X57490499Y-945725D01*
X57487646Y-915305D01*
X57487646Y-915301D01*
X57442793Y-787118D01*
X57440747Y-784346D01*
X57362154Y-677855D01*
X57362152Y-677853D01*
X57362150Y-677850D01*
X57362146Y-677847D01*
X57356903Y-672604D01*
X57358261Y-671245D01*
X57328325Y-629384D01*
X57328785Y-568200D01*
X57365120Y-518972D01*
X57422707Y-500500D01*
X71934108Y-500500D01*
X71997015Y-500500D01*
X72002992Y-500681D01*
G37*
%TD.AperFunction*%
%TA.AperFunction,Conductor*%
G36*
X51715484Y-519407D02*
G01*
X51751448Y-568907D01*
X51751448Y-630093D01*
X51721764Y-671271D01*
X51723097Y-672604D01*
X51717845Y-677855D01*
X51637207Y-787116D01*
X51592355Y-915296D01*
X51592353Y-915305D01*
X51589500Y-945725D01*
X51589500Y-1954274D01*
X51592353Y-1984694D01*
X51592355Y-1984703D01*
X51637207Y-2112883D01*
X51717845Y-2222144D01*
X51717847Y-2222146D01*
X51717850Y-2222150D01*
X51717853Y-2222152D01*
X51717855Y-2222154D01*
X51827116Y-2302792D01*
X51827117Y-2302792D01*
X51827118Y-2302793D01*
X51955301Y-2347646D01*
X51985725Y-2350499D01*
X51985727Y-2350500D01*
X51985734Y-2350500D01*
X52055700Y-2350500D01*
X52113891Y-2369407D01*
X52149855Y-2418907D01*
X52154700Y-2449500D01*
X52154700Y-2458378D01*
X52135793Y-2516569D01*
X52125704Y-2528381D01*
X52079700Y-2574384D01*
X52079696Y-2574390D01*
X52013809Y-2688509D01*
X52009472Y-2704695D01*
X51979700Y-2815808D01*
X51979700Y-2947592D01*
X51992941Y-2997007D01*
X52013809Y-3074890D01*
X52079696Y-3189009D01*
X52079698Y-3189011D01*
X52079700Y-3189014D01*
X52172886Y-3282200D01*
X52272112Y-3339488D01*
X52313051Y-3384956D01*
X52319447Y-3445806D01*
X52292614Y-3495226D01*
X51316685Y-4471157D01*
X51268041Y-4543961D01*
X51268040Y-4543962D01*
X51240023Y-4585890D01*
X51240023Y-4585891D01*
X51187220Y-4713370D01*
X51187220Y-4713372D01*
X51160300Y-4848704D01*
X51160300Y-8027196D01*
X51187220Y-8162527D01*
X51187220Y-8162529D01*
X51240023Y-8290008D01*
X51310659Y-8395724D01*
X51316686Y-8404743D01*
X56221940Y-13309997D01*
X56249716Y-13364512D01*
X56240145Y-13424944D01*
X56221939Y-13450003D01*
X53001439Y-16670504D01*
X52946922Y-16698281D01*
X52931435Y-16699500D01*
X51985725Y-16699500D01*
X51955305Y-16702353D01*
X51955296Y-16702355D01*
X51827116Y-16747207D01*
X51717855Y-16827845D01*
X51717845Y-16827855D01*
X51637207Y-16937116D01*
X51592355Y-17065296D01*
X51592353Y-17065305D01*
X51589500Y-17095725D01*
X51589500Y-20004274D01*
X51592353Y-20034694D01*
X51592355Y-20034703D01*
X51637207Y-20162883D01*
X51717845Y-20272144D01*
X51717847Y-20272146D01*
X51717850Y-20272150D01*
X51717853Y-20272152D01*
X51717855Y-20272154D01*
X51827116Y-20352792D01*
X51827117Y-20352792D01*
X51827118Y-20352793D01*
X51955301Y-20397646D01*
X51985725Y-20400499D01*
X51985727Y-20400500D01*
X51985734Y-20400500D01*
X53858835Y-20400500D01*
X53917026Y-20419407D01*
X53928839Y-20429496D01*
X55314204Y-21814861D01*
X55341981Y-21869378D01*
X55343200Y-21884865D01*
X55343200Y-24418835D01*
X55324293Y-24477026D01*
X55314204Y-24488839D01*
X54081301Y-25721742D01*
X54026784Y-25749519D01*
X54011297Y-25750738D01*
X53438204Y-25750738D01*
X53407784Y-25753591D01*
X53407775Y-25753593D01*
X53279595Y-25798445D01*
X53170334Y-25879083D01*
X53170324Y-25879093D01*
X53089686Y-25988354D01*
X53044834Y-26116534D01*
X53044832Y-26116543D01*
X53041979Y-26146963D01*
X53041979Y-27355512D01*
X53044832Y-27385932D01*
X53044834Y-27385941D01*
X53089686Y-27514121D01*
X53170324Y-27623382D01*
X53170326Y-27623384D01*
X53170329Y-27623388D01*
X53170332Y-27623390D01*
X53170334Y-27623392D01*
X53279595Y-27704030D01*
X53279596Y-27704030D01*
X53279597Y-27704031D01*
X53407780Y-27748884D01*
X53438204Y-27751737D01*
X53438206Y-27751738D01*
X53438213Y-27751738D01*
X54573373Y-27751738D01*
X54631564Y-27770645D01*
X54643377Y-27780734D01*
X59763514Y-32900871D01*
X59791291Y-32955388D01*
X59781720Y-33015820D01*
X59743011Y-33056611D01*
X59643788Y-33113898D01*
X59550596Y-33207090D01*
X59484709Y-33321209D01*
X59450600Y-33448509D01*
X59450600Y-33513565D01*
X59431693Y-33571756D01*
X59421604Y-33583569D01*
X59181869Y-33823304D01*
X59127352Y-33851081D01*
X59111865Y-33852300D01*
X53656133Y-33852300D01*
X53597942Y-33833393D01*
X53586129Y-33823303D01*
X53199496Y-33436669D01*
X53171719Y-33382153D01*
X53170500Y-33366666D01*
X53170500Y-32550727D01*
X53170499Y-32550725D01*
X53167646Y-32520305D01*
X53167646Y-32520301D01*
X53122793Y-32392118D01*
X53110156Y-32374996D01*
X53042154Y-32282855D01*
X53042152Y-32282853D01*
X53042150Y-32282850D01*
X53042146Y-32282847D01*
X53042144Y-32282845D01*
X52932883Y-32202207D01*
X52804703Y-32157355D01*
X52804694Y-32157353D01*
X52774274Y-32154500D01*
X52774266Y-32154500D01*
X51990734Y-32154500D01*
X51990725Y-32154500D01*
X51960305Y-32157353D01*
X51960296Y-32157355D01*
X51832116Y-32202207D01*
X51722855Y-32282845D01*
X51722845Y-32282855D01*
X51642207Y-32392116D01*
X51597355Y-32520296D01*
X51597353Y-32520305D01*
X51594500Y-32550725D01*
X51594500Y-33609274D01*
X51597353Y-33639694D01*
X51597355Y-33639703D01*
X51642207Y-33767883D01*
X51722845Y-33877144D01*
X51722847Y-33877146D01*
X51722850Y-33877150D01*
X51722853Y-33877152D01*
X51722855Y-33877154D01*
X51832116Y-33957792D01*
X51832117Y-33957792D01*
X51832118Y-33957793D01*
X51960301Y-34002646D01*
X51990725Y-34005499D01*
X51990727Y-34005500D01*
X51990734Y-34005500D01*
X52774272Y-34005500D01*
X52795039Y-34003552D01*
X52854741Y-34016942D01*
X52874288Y-34032115D01*
X53216372Y-34374198D01*
X53216377Y-34374204D01*
X53216378Y-34374204D01*
X53219833Y-34377659D01*
X53219835Y-34377662D01*
X53280438Y-34438265D01*
X53316197Y-34458910D01*
X53342374Y-34474024D01*
X53342373Y-34474024D01*
X53352062Y-34479617D01*
X53354662Y-34481118D01*
X53354664Y-34481118D01*
X53354665Y-34481119D01*
X53396054Y-34492209D01*
X53437444Y-34503300D01*
X53437446Y-34503301D01*
X53437447Y-34503301D01*
X53529216Y-34503301D01*
X53529232Y-34503300D01*
X59330551Y-34503300D01*
X59330553Y-34503300D01*
X59413339Y-34481118D01*
X59413341Y-34481116D01*
X59413343Y-34481116D01*
X59487557Y-34438268D01*
X59487557Y-34438267D01*
X59487562Y-34438265D01*
X59778184Y-34147643D01*
X59881932Y-34043896D01*
X59936448Y-34016119D01*
X59951935Y-34014900D01*
X60016990Y-34014900D01*
X60016992Y-34014900D01*
X60144286Y-33980792D01*
X60144288Y-33980790D01*
X60144290Y-33980790D01*
X60258409Y-33914903D01*
X60258409Y-33914902D01*
X60258414Y-33914900D01*
X60351600Y-33821714D01*
X60408888Y-33722487D01*
X60454357Y-33681548D01*
X60515207Y-33675152D01*
X60564628Y-33701985D01*
X63308804Y-36446161D01*
X63336581Y-36500678D01*
X63337800Y-36516165D01*
X63337800Y-45568995D01*
X63364720Y-45704327D01*
X63364720Y-45704329D01*
X63417522Y-45831806D01*
X63417528Y-45831817D01*
X63494185Y-45946541D01*
X63591758Y-46044114D01*
X63706482Y-46120771D01*
X63706493Y-46120777D01*
X63753583Y-46140282D01*
X63833972Y-46173580D01*
X63969307Y-46200500D01*
X64720252Y-46200500D01*
X66171007Y-46200500D01*
X67642200Y-46200500D01*
X67700391Y-46219407D01*
X67736355Y-46268907D01*
X67741200Y-46299500D01*
X67741200Y-47240500D01*
X67722293Y-47298691D01*
X67672793Y-47334655D01*
X67642200Y-47339500D01*
X63969304Y-47339500D01*
X63833972Y-47366420D01*
X63833970Y-47366420D01*
X63706493Y-47419222D01*
X63706482Y-47419228D01*
X63591758Y-47495885D01*
X63494185Y-47593458D01*
X63417528Y-47708182D01*
X63417522Y-47708193D01*
X63364720Y-47835670D01*
X63364720Y-47835672D01*
X63337800Y-47971004D01*
X63337800Y-48309635D01*
X63318893Y-48367826D01*
X63308804Y-48379639D01*
X59795339Y-51893104D01*
X59740822Y-51920881D01*
X59725335Y-51922100D01*
X50099000Y-51922100D01*
X50040809Y-51903193D01*
X50004845Y-51853693D01*
X50000000Y-51823100D01*
X50000000Y-42900001D01*
X50000000Y-42900000D01*
X49999999Y-42900000D01*
X49539434Y-42900000D01*
X49481243Y-42881093D01*
X49445279Y-42831593D01*
X49440910Y-42810700D01*
X49440500Y-42806542D01*
X49440500Y-42806535D01*
X49400130Y-42603580D01*
X49320941Y-42412402D01*
X49205977Y-42240345D01*
X49059655Y-42094023D01*
X48961311Y-42028312D01*
X48887597Y-41979058D01*
X48696418Y-41899869D01*
X48493467Y-41859500D01*
X48493465Y-41859500D01*
X48286535Y-41859500D01*
X48286532Y-41859500D01*
X48083581Y-41899869D01*
X47892402Y-41979058D01*
X47720348Y-42094020D01*
X47574020Y-42240348D01*
X47459058Y-42412402D01*
X47379869Y-42603581D01*
X47339500Y-42806532D01*
X47339090Y-42810700D01*
X47314572Y-42866758D01*
X47261786Y-42897699D01*
X47240566Y-42900000D01*
X31759434Y-42900000D01*
X31701243Y-42881093D01*
X31665279Y-42831593D01*
X31660910Y-42810700D01*
X31660500Y-42806542D01*
X31660500Y-42806535D01*
X31620130Y-42603580D01*
X31540941Y-42412402D01*
X31425977Y-42240345D01*
X31279655Y-42094023D01*
X31181311Y-42028312D01*
X31107597Y-41979058D01*
X30916418Y-41899869D01*
X30713467Y-41859500D01*
X30713465Y-41859500D01*
X30506535Y-41859500D01*
X30506532Y-41859500D01*
X30303581Y-41899869D01*
X30112402Y-41979058D01*
X29940348Y-42094020D01*
X29794020Y-42240348D01*
X29679058Y-42412402D01*
X29599869Y-42603581D01*
X29559500Y-42806532D01*
X29559090Y-42810700D01*
X29534572Y-42866758D01*
X29481786Y-42897699D01*
X29460566Y-42900000D01*
X29000000Y-42900000D01*
X29000000Y-51900000D01*
X29000001Y-51900000D01*
X33611157Y-51900000D01*
X33669348Y-51918907D01*
X33705312Y-51968407D01*
X33705312Y-52029593D01*
X33673965Y-52075525D01*
X33670366Y-52078478D01*
X30676639Y-55072204D01*
X30622122Y-55099981D01*
X30606635Y-55101200D01*
X22968414Y-55101200D01*
X22910223Y-55082293D01*
X22874259Y-55032793D01*
X22874259Y-54971607D01*
X22898408Y-54932198D01*
X23018242Y-54812365D01*
X23147815Y-54634022D01*
X23247895Y-54437606D01*
X23316015Y-54227951D01*
X23350500Y-54010222D01*
X23350500Y-53789778D01*
X23350500Y-53789774D01*
X23316015Y-53572051D01*
X23316015Y-53572049D01*
X23247895Y-53362394D01*
X23147815Y-53165978D01*
X23018242Y-52987635D01*
X22862365Y-52831758D01*
X22862361Y-52831755D01*
X22691309Y-52707478D01*
X22655345Y-52657978D01*
X22650500Y-52627386D01*
X22650500Y-49399500D01*
X22669407Y-49341309D01*
X22718907Y-49305345D01*
X22749500Y-49300500D01*
X22854273Y-49300500D01*
X22854276Y-49300500D01*
X22884702Y-49297647D01*
X23012884Y-49252794D01*
X23122151Y-49172151D01*
X23202794Y-49062884D01*
X23247647Y-48934702D01*
X23250500Y-48904276D01*
X23250500Y-43495724D01*
X23247647Y-43465298D01*
X23202794Y-43337116D01*
X23161877Y-43281675D01*
X23122155Y-43227853D01*
X23122146Y-43227844D01*
X23012885Y-43147206D01*
X22884706Y-43102354D01*
X22884705Y-43102353D01*
X22865932Y-43100593D01*
X22854276Y-43099500D01*
X22854273Y-43099500D01*
X21299500Y-43099500D01*
X21241309Y-43080593D01*
X21205345Y-43031093D01*
X21200500Y-43000500D01*
X21200500Y-40699500D01*
X21219407Y-40641309D01*
X21268907Y-40605345D01*
X21299500Y-40600500D01*
X21554273Y-40600500D01*
X21554273Y-40600499D01*
X21584699Y-40597646D01*
X21712882Y-40552793D01*
X21822150Y-40472150D01*
X21902793Y-40362882D01*
X21936507Y-40266532D01*
X29559500Y-40266532D01*
X29559500Y-40473467D01*
X29599869Y-40676418D01*
X29679058Y-40867597D01*
X29679059Y-40867598D01*
X29794023Y-41039655D01*
X29940345Y-41185977D01*
X30112402Y-41300941D01*
X30303580Y-41380130D01*
X30506535Y-41420500D01*
X30506536Y-41420500D01*
X30713464Y-41420500D01*
X30713465Y-41420500D01*
X30916420Y-41380130D01*
X31107598Y-41300941D01*
X31279655Y-41185977D01*
X31425977Y-41039655D01*
X31540941Y-40867598D01*
X31620130Y-40676420D01*
X31660500Y-40473465D01*
X31660500Y-40266535D01*
X31660499Y-40266532D01*
X47339500Y-40266532D01*
X47339500Y-40473467D01*
X47379869Y-40676418D01*
X47459058Y-40867597D01*
X47459059Y-40867598D01*
X47574023Y-41039655D01*
X47720345Y-41185977D01*
X47892402Y-41300941D01*
X48083580Y-41380130D01*
X48286535Y-41420500D01*
X48286536Y-41420500D01*
X48493464Y-41420500D01*
X48493465Y-41420500D01*
X48696420Y-41380130D01*
X48887598Y-41300941D01*
X49059655Y-41185977D01*
X49205977Y-41039655D01*
X49320941Y-40867598D01*
X49400130Y-40676420D01*
X49440500Y-40473465D01*
X49440500Y-40266535D01*
X49400130Y-40063580D01*
X49320941Y-39872402D01*
X49205977Y-39700345D01*
X49059655Y-39554023D01*
X49052886Y-39549500D01*
X48887597Y-39439058D01*
X48696418Y-39359869D01*
X48493467Y-39319500D01*
X48493465Y-39319500D01*
X48286535Y-39319500D01*
X48286532Y-39319500D01*
X48083581Y-39359869D01*
X47892402Y-39439058D01*
X47720348Y-39554020D01*
X47574020Y-39700348D01*
X47459058Y-39872402D01*
X47379869Y-40063581D01*
X47339500Y-40266532D01*
X31660499Y-40266532D01*
X31620130Y-40063580D01*
X31540941Y-39872402D01*
X31425977Y-39700345D01*
X31279655Y-39554023D01*
X31272886Y-39549500D01*
X31107597Y-39439058D01*
X30916418Y-39359869D01*
X30713467Y-39319500D01*
X30713465Y-39319500D01*
X30506535Y-39319500D01*
X30506532Y-39319500D01*
X30303581Y-39359869D01*
X30112402Y-39439058D01*
X29940348Y-39554020D01*
X29794020Y-39700348D01*
X29679058Y-39872402D01*
X29599869Y-40063581D01*
X29559500Y-40266532D01*
X21936507Y-40266532D01*
X21947646Y-40234699D01*
X21950499Y-40204273D01*
X21950500Y-40204273D01*
X21950500Y-37295727D01*
X21950499Y-37295725D01*
X21947646Y-37265305D01*
X21947646Y-37265301D01*
X21902793Y-37137118D01*
X21888684Y-37118001D01*
X21822154Y-37027855D01*
X21822152Y-37027853D01*
X21822150Y-37027850D01*
X21822146Y-37027847D01*
X21822144Y-37027845D01*
X21712883Y-36947207D01*
X21584703Y-36902355D01*
X21584694Y-36902353D01*
X21554274Y-36899500D01*
X21554266Y-36899500D01*
X19445734Y-36899500D01*
X19445725Y-36899500D01*
X19415305Y-36902353D01*
X19415296Y-36902355D01*
X19287116Y-36947207D01*
X19177855Y-37027845D01*
X19177845Y-37027855D01*
X19097207Y-37137116D01*
X19052355Y-37265296D01*
X19052353Y-37265305D01*
X19049500Y-37295725D01*
X19049500Y-40204274D01*
X19052353Y-40234694D01*
X19052355Y-40234703D01*
X19097207Y-40362883D01*
X19177845Y-40472144D01*
X19177847Y-40472146D01*
X19177850Y-40472150D01*
X19177853Y-40472152D01*
X19177855Y-40472154D01*
X19287116Y-40552792D01*
X19287117Y-40552792D01*
X19287118Y-40552793D01*
X19415301Y-40597646D01*
X19445725Y-40600499D01*
X19445727Y-40600500D01*
X19445734Y-40600500D01*
X19700500Y-40600500D01*
X19758691Y-40619407D01*
X19794655Y-40668907D01*
X19799500Y-40699500D01*
X19799500Y-43000500D01*
X19780593Y-43058691D01*
X19731093Y-43094655D01*
X19700500Y-43099500D01*
X16845724Y-43099500D01*
X16834068Y-43100593D01*
X16815294Y-43102353D01*
X16815293Y-43102354D01*
X16687114Y-43147206D01*
X16577853Y-43227844D01*
X16577844Y-43227853D01*
X16497206Y-43337114D01*
X16452354Y-43465293D01*
X16452353Y-43465294D01*
X16449500Y-43495726D01*
X16449500Y-45400500D01*
X16430593Y-45458691D01*
X16381093Y-45494655D01*
X16350500Y-45499500D01*
X14716314Y-45499500D01*
X14658123Y-45480593D01*
X14657526Y-45480155D01*
X14612883Y-45447207D01*
X14484703Y-45402355D01*
X14484694Y-45402353D01*
X14454274Y-45399500D01*
X14454266Y-45399500D01*
X12645734Y-45399500D01*
X12645725Y-45399500D01*
X12615305Y-45402353D01*
X12615296Y-45402355D01*
X12487116Y-45447207D01*
X12377855Y-45527845D01*
X12377845Y-45527855D01*
X12297207Y-45637116D01*
X12252355Y-45765296D01*
X12252353Y-45765305D01*
X12249500Y-45795725D01*
X12249500Y-46604274D01*
X12252353Y-46634694D01*
X12252355Y-46634703D01*
X12297207Y-46762883D01*
X12377845Y-46872144D01*
X12377847Y-46872146D01*
X12377850Y-46872150D01*
X12377853Y-46872152D01*
X12377855Y-46872154D01*
X12487116Y-46952792D01*
X12487117Y-46952792D01*
X12487118Y-46952793D01*
X12615301Y-46997646D01*
X12645725Y-47000499D01*
X12645727Y-47000500D01*
X12645734Y-47000500D01*
X14454273Y-47000500D01*
X14454273Y-47000499D01*
X14484699Y-46997646D01*
X14612882Y-46952793D01*
X14640099Y-46932706D01*
X14657526Y-46919845D01*
X14715574Y-46900503D01*
X14716314Y-46900500D01*
X16350500Y-46900500D01*
X16408691Y-46919407D01*
X16444655Y-46968907D01*
X16449500Y-46999500D01*
X16449500Y-48904273D01*
X16452353Y-48934705D01*
X16452354Y-48934706D01*
X16497206Y-49062885D01*
X16577844Y-49172146D01*
X16577853Y-49172155D01*
X16687114Y-49252793D01*
X16687115Y-49252793D01*
X16687116Y-49252794D01*
X16815293Y-49297645D01*
X16815294Y-49297646D01*
X16815295Y-49297646D01*
X16815298Y-49297647D01*
X16845724Y-49300500D01*
X21150500Y-49300500D01*
X21208691Y-49319407D01*
X21244655Y-49368907D01*
X21249500Y-49399500D01*
X21249500Y-52627386D01*
X21230593Y-52685577D01*
X21208691Y-52707478D01*
X21037638Y-52831755D01*
X21037635Y-52831758D01*
X20881758Y-52987635D01*
X20816971Y-53076806D01*
X20752183Y-53165980D01*
X20652102Y-53362400D01*
X20583984Y-53572051D01*
X20549500Y-53789774D01*
X20549500Y-54010225D01*
X20583984Y-54227948D01*
X20652102Y-54437599D01*
X20652104Y-54437602D01*
X20652105Y-54437606D01*
X20752185Y-54634022D01*
X20881758Y-54812365D01*
X21001591Y-54932198D01*
X21029367Y-54986713D01*
X21019796Y-55047145D01*
X20976531Y-55090410D01*
X20931586Y-55101200D01*
X20682865Y-55101200D01*
X20624674Y-55082293D01*
X20612861Y-55072204D01*
X19879495Y-54338838D01*
X19851718Y-54284321D01*
X19850499Y-54268834D01*
X19850499Y-52895734D01*
X19847646Y-52865305D01*
X19847646Y-52865302D01*
X19802793Y-52737118D01*
X19802791Y-52737116D01*
X19802791Y-52737114D01*
X19722154Y-52627855D01*
X19722152Y-52627853D01*
X19722150Y-52627850D01*
X19722146Y-52627847D01*
X19722144Y-52627845D01*
X19612885Y-52547208D01*
X19598697Y-52542243D01*
X19484698Y-52502354D01*
X19484696Y-52502353D01*
X19484694Y-52502353D01*
X19454272Y-52499500D01*
X17445734Y-52499500D01*
X17415305Y-52502353D01*
X17287114Y-52547208D01*
X17177855Y-52627845D01*
X17177845Y-52627855D01*
X17097208Y-52737114D01*
X17052353Y-52865305D01*
X17049500Y-52895726D01*
X17049500Y-54268834D01*
X17030593Y-54327025D01*
X17020504Y-54338838D01*
X16255139Y-55104204D01*
X16200622Y-55131981D01*
X16185135Y-55133200D01*
X14336414Y-55133200D01*
X14278223Y-55114293D01*
X14242259Y-55064793D01*
X14242259Y-55003607D01*
X14266408Y-54964198D01*
X14418242Y-54812365D01*
X14547815Y-54634022D01*
X14647895Y-54437606D01*
X14716015Y-54227951D01*
X14750500Y-54010222D01*
X14750500Y-53789778D01*
X14750500Y-53789774D01*
X14716015Y-53572051D01*
X14716015Y-53572049D01*
X14647895Y-53362394D01*
X14547815Y-53165978D01*
X14418242Y-52987635D01*
X14262365Y-52831758D01*
X14262361Y-52831755D01*
X14091309Y-52707478D01*
X14055345Y-52657978D01*
X14050500Y-52627386D01*
X14050500Y-51331008D01*
X14050499Y-51331004D01*
X14023580Y-51195672D01*
X13970775Y-51068189D01*
X13930836Y-51008416D01*
X13894114Y-50953457D01*
X11579496Y-48638839D01*
X11551719Y-48584322D01*
X11550500Y-48568835D01*
X11550500Y-43495726D01*
X11549860Y-43488900D01*
X11547647Y-43465298D01*
X11502794Y-43337116D01*
X11461877Y-43281675D01*
X11422155Y-43227853D01*
X11422146Y-43227844D01*
X11312885Y-43147206D01*
X11184706Y-43102354D01*
X11184705Y-43102353D01*
X11165932Y-43100593D01*
X11154276Y-43099500D01*
X11154273Y-43099500D01*
X9599500Y-43099500D01*
X9541309Y-43080593D01*
X9505345Y-43031093D01*
X9500500Y-43000500D01*
X9500500Y-40699500D01*
X9519407Y-40641309D01*
X9568907Y-40605345D01*
X9599500Y-40600500D01*
X9854273Y-40600500D01*
X9854273Y-40600499D01*
X9884699Y-40597646D01*
X10012882Y-40552793D01*
X10122150Y-40472150D01*
X10202793Y-40362882D01*
X10247646Y-40234699D01*
X10250499Y-40204273D01*
X10250500Y-40204273D01*
X10250500Y-37295727D01*
X10250499Y-37295725D01*
X10247646Y-37265305D01*
X10247646Y-37265301D01*
X10202793Y-37137118D01*
X10188684Y-37118001D01*
X10122154Y-37027855D01*
X10122152Y-37027853D01*
X10122150Y-37027850D01*
X10122146Y-37027847D01*
X10122144Y-37027845D01*
X10012883Y-36947207D01*
X9884703Y-36902355D01*
X9884694Y-36902353D01*
X9854274Y-36899500D01*
X9854266Y-36899500D01*
X7745734Y-36899500D01*
X7745725Y-36899500D01*
X7715305Y-36902353D01*
X7715296Y-36902355D01*
X7587116Y-36947207D01*
X7477855Y-37027845D01*
X7477845Y-37027855D01*
X7397207Y-37137116D01*
X7352355Y-37265296D01*
X7352353Y-37265305D01*
X7349500Y-37295725D01*
X7349500Y-39461751D01*
X7330593Y-39519942D01*
X7281093Y-39555906D01*
X7219907Y-39555906D01*
X7180224Y-39528825D01*
X7179053Y-39529997D01*
X7175616Y-39526560D01*
X7175614Y-39526557D01*
X5854943Y-38205886D01*
X5740211Y-38129225D01*
X5740210Y-38129224D01*
X5740208Y-38129223D01*
X5612728Y-38076420D01*
X5477396Y-38049500D01*
X5477394Y-38049500D01*
X5477393Y-38049500D01*
X3549500Y-38049500D01*
X3491309Y-38030593D01*
X3455345Y-37981093D01*
X3450500Y-37950500D01*
X3450500Y-37295727D01*
X3450499Y-37295725D01*
X3447646Y-37265305D01*
X3447646Y-37265301D01*
X3402793Y-37137118D01*
X3388684Y-37118001D01*
X3322154Y-37027855D01*
X3322152Y-37027853D01*
X3322150Y-37027850D01*
X3322146Y-37027847D01*
X3322144Y-37027845D01*
X3212883Y-36947207D01*
X3084703Y-36902355D01*
X3084694Y-36902353D01*
X3054274Y-36899500D01*
X3054266Y-36899500D01*
X945734Y-36899500D01*
X945725Y-36899500D01*
X915305Y-36902353D01*
X915296Y-36902355D01*
X787116Y-36947207D01*
X677855Y-37027845D01*
X672604Y-37033097D01*
X671245Y-37031738D01*
X629384Y-37061675D01*
X568200Y-37061215D01*
X518972Y-37024880D01*
X500500Y-36967293D01*
X500500Y-23282034D01*
X519407Y-23223843D01*
X568907Y-23187879D01*
X630093Y-23187879D01*
X669504Y-23212030D01*
X674033Y-23216559D01*
X674035Y-23216562D01*
X2652471Y-25194997D01*
X4452993Y-26995519D01*
X4480770Y-27050036D01*
X4471199Y-27110468D01*
X4427934Y-27153733D01*
X4415687Y-27158967D01*
X4292117Y-27202207D01*
X4292116Y-27202207D01*
X4182855Y-27282845D01*
X4182845Y-27282855D01*
X4102207Y-27392116D01*
X4057355Y-27520296D01*
X4057353Y-27520305D01*
X4054500Y-27550725D01*
X4054500Y-28366665D01*
X4035593Y-28424856D01*
X4025504Y-28436668D01*
X3661035Y-28801137D01*
X3661031Y-28801142D01*
X3618183Y-28875357D01*
X3618180Y-28875363D01*
X3617618Y-28877459D01*
X3617619Y-28877460D01*
X3596095Y-28957792D01*
X3596000Y-28958147D01*
X3596000Y-32878647D01*
X3596000Y-32964353D01*
X3609790Y-33015820D01*
X3618183Y-33047143D01*
X3661031Y-33121357D01*
X3661033Y-33121359D01*
X3661035Y-33121362D01*
X4020505Y-33480832D01*
X4048281Y-33535347D01*
X4049500Y-33550834D01*
X4049500Y-34354274D01*
X4052353Y-34384694D01*
X4052355Y-34384703D01*
X4097207Y-34512883D01*
X4177845Y-34622144D01*
X4177847Y-34622146D01*
X4177850Y-34622150D01*
X4177853Y-34622152D01*
X4177855Y-34622154D01*
X4287116Y-34702792D01*
X4287117Y-34702792D01*
X4287118Y-34702793D01*
X4415301Y-34747646D01*
X4445725Y-34750499D01*
X4445727Y-34750500D01*
X5249166Y-34750500D01*
X5307357Y-34769407D01*
X5319170Y-34779496D01*
X5638433Y-35098759D01*
X5638435Y-35098762D01*
X5699038Y-35159365D01*
X5726209Y-35175052D01*
X5746099Y-35186536D01*
X5746098Y-35186536D01*
X5770493Y-35200619D01*
X5773262Y-35202218D01*
X5773264Y-35202218D01*
X5773265Y-35202219D01*
X5814654Y-35213309D01*
X5856044Y-35224400D01*
X5856046Y-35224401D01*
X5856047Y-35224401D01*
X5947816Y-35224401D01*
X5947832Y-35224400D01*
X8143951Y-35224400D01*
X8143953Y-35224400D01*
X8226739Y-35202218D01*
X8226741Y-35202216D01*
X8226743Y-35202216D01*
X8300957Y-35159368D01*
X8300957Y-35159367D01*
X8300962Y-35159365D01*
X8680828Y-34779496D01*
X8735345Y-34751719D01*
X8750832Y-34750500D01*
X9554273Y-34750500D01*
X9554273Y-34750499D01*
X9584699Y-34747646D01*
X9712882Y-34702793D01*
X9822150Y-34622150D01*
X9902793Y-34512882D01*
X9947646Y-34384699D01*
X9950499Y-34354273D01*
X9950500Y-34354273D01*
X9950500Y-33349834D01*
X9969407Y-33291643D01*
X10018907Y-33255679D01*
X10080093Y-33255679D01*
X10119501Y-33279828D01*
X10320505Y-33480832D01*
X10348281Y-33535347D01*
X10349500Y-33550834D01*
X10349500Y-34354274D01*
X10352353Y-34384694D01*
X10352355Y-34384703D01*
X10397207Y-34512883D01*
X10477845Y-34622144D01*
X10477847Y-34622146D01*
X10477850Y-34622150D01*
X10477853Y-34622152D01*
X10477855Y-34622154D01*
X10587116Y-34702792D01*
X10587117Y-34702792D01*
X10587118Y-34702793D01*
X10715301Y-34747646D01*
X10745725Y-34750499D01*
X10745727Y-34750500D01*
X10745734Y-34750500D01*
X11554273Y-34750500D01*
X11554273Y-34750499D01*
X11584699Y-34747646D01*
X11712882Y-34702793D01*
X11822150Y-34622150D01*
X11902793Y-34512882D01*
X11947646Y-34384699D01*
X11950499Y-34354273D01*
X11950500Y-34354273D01*
X11950500Y-33345727D01*
X11950499Y-33345725D01*
X11947646Y-33315301D01*
X11902793Y-33187118D01*
X11854263Y-33121362D01*
X11822154Y-33077855D01*
X11822152Y-33077853D01*
X11822150Y-33077850D01*
X11822146Y-33077847D01*
X11822144Y-33077845D01*
X11712883Y-32997207D01*
X11584703Y-32952355D01*
X11584694Y-32952353D01*
X11554274Y-32949500D01*
X11554266Y-32949500D01*
X10750835Y-32949500D01*
X10692644Y-32930593D01*
X10680831Y-32920504D01*
X9708060Y-31947733D01*
X9680283Y-31893216D01*
X9689854Y-31832784D01*
X9719276Y-31798074D01*
X9744295Y-31779609D01*
X9822150Y-31722150D01*
X9902793Y-31612882D01*
X9947646Y-31484699D01*
X9950499Y-31454273D01*
X9950500Y-31454273D01*
X9950500Y-30445727D01*
X9950499Y-30445725D01*
X9947646Y-30415305D01*
X9947646Y-30415301D01*
X9902793Y-30287118D01*
X9899312Y-30282402D01*
X9822154Y-30177855D01*
X9822151Y-30177852D01*
X9822150Y-30177850D01*
X9822146Y-30177847D01*
X9822144Y-30177845D01*
X9712883Y-30097207D01*
X9623381Y-30065889D01*
X9574701Y-30028824D01*
X9557104Y-29970224D01*
X9570342Y-29922945D01*
X9616392Y-29843186D01*
X9633669Y-29778706D01*
X9666992Y-29727393D01*
X9724113Y-29705466D01*
X9783214Y-29721301D01*
X9799298Y-29734326D01*
X10019137Y-29954164D01*
X10019142Y-29954168D01*
X10093357Y-29997016D01*
X10093355Y-29997016D01*
X10093359Y-29997017D01*
X10093361Y-29997018D01*
X10176147Y-30019200D01*
X10261853Y-30019200D01*
X27957865Y-30019200D01*
X28016056Y-30038107D01*
X28027869Y-30048196D01*
X29654935Y-31675262D01*
X29654934Y-31675262D01*
X29701817Y-31722144D01*
X29715538Y-31735865D01*
X29789762Y-31778718D01*
X29872547Y-31800900D01*
X29958253Y-31800900D01*
X32050231Y-31800900D01*
X32108422Y-31819807D01*
X32144386Y-31869307D01*
X32145857Y-31925521D01*
X32116200Y-32036208D01*
X32116200Y-32167992D01*
X32125368Y-32202207D01*
X32150309Y-32295290D01*
X32216196Y-32409409D01*
X32216198Y-32409411D01*
X32216200Y-32409414D01*
X32309386Y-32502600D01*
X32309388Y-32502601D01*
X32309390Y-32502603D01*
X32423510Y-32568490D01*
X32423508Y-32568490D01*
X32423512Y-32568491D01*
X32423514Y-32568492D01*
X32550808Y-32602600D01*
X32615865Y-32602600D01*
X32674056Y-32621507D01*
X32685869Y-32631596D01*
X33504133Y-33449859D01*
X33504135Y-33449862D01*
X33564738Y-33510465D01*
X33564740Y-33510466D01*
X33564743Y-33510469D01*
X33569889Y-33514418D01*
X33568887Y-33515723D01*
X33604462Y-33555232D01*
X33610859Y-33616082D01*
X33580267Y-33669071D01*
X33524372Y-33693958D01*
X33514022Y-33694500D01*
X28422535Y-33694500D01*
X28364344Y-33675593D01*
X28352531Y-33665504D01*
X26601696Y-31914669D01*
X26573919Y-31860152D01*
X26572700Y-31844665D01*
X26572700Y-31779609D01*
X26572700Y-31779608D01*
X26538592Y-31652314D01*
X26538590Y-31652311D01*
X26538590Y-31652309D01*
X26472703Y-31538190D01*
X26472701Y-31538188D01*
X26472700Y-31538186D01*
X26379514Y-31445000D01*
X26379511Y-31444998D01*
X26379509Y-31444996D01*
X26265389Y-31379109D01*
X26265391Y-31379109D01*
X26215999Y-31365875D01*
X26138092Y-31345000D01*
X26006308Y-31345000D01*
X25928400Y-31365875D01*
X25879009Y-31379109D01*
X25764890Y-31444996D01*
X25671696Y-31538190D01*
X25605809Y-31652309D01*
X25605808Y-31652314D01*
X25571700Y-31779608D01*
X25571700Y-31911392D01*
X25601779Y-32023651D01*
X25605809Y-32038690D01*
X25671696Y-32152809D01*
X25671698Y-32152811D01*
X25671700Y-32152814D01*
X25764886Y-32246000D01*
X25764888Y-32246001D01*
X25764890Y-32246003D01*
X25879010Y-32311890D01*
X25879008Y-32311890D01*
X25879012Y-32311891D01*
X25879014Y-32311892D01*
X26006308Y-32346000D01*
X26071365Y-32346000D01*
X26129556Y-32364907D01*
X26141369Y-32374996D01*
X27986235Y-34219862D01*
X27986234Y-34219862D01*
X28046242Y-34279869D01*
X28046838Y-34280465D01*
X28121062Y-34323318D01*
X28203847Y-34345500D01*
X28289553Y-34345500D01*
X29829861Y-34345500D01*
X29888052Y-34364407D01*
X29924016Y-34413907D01*
X29924016Y-34475093D01*
X29899866Y-34514501D01*
X29842187Y-34572181D01*
X29794020Y-34620348D01*
X29679058Y-34792402D01*
X29599869Y-34983581D01*
X29559500Y-35186532D01*
X29559500Y-35393467D01*
X29599869Y-35596418D01*
X29679058Y-35787597D01*
X29775943Y-35932596D01*
X29794023Y-35959655D01*
X29899866Y-36065498D01*
X29927642Y-36120013D01*
X29918071Y-36180445D01*
X29874806Y-36223710D01*
X29829861Y-36234500D01*
X28172435Y-36234500D01*
X28114244Y-36215593D01*
X28102431Y-36205504D01*
X27684524Y-35787597D01*
X27214562Y-35317635D01*
X27214559Y-35317633D01*
X27214558Y-35317632D01*
X27214557Y-35317631D01*
X27140342Y-35274783D01*
X27140344Y-35274783D01*
X27108221Y-35266176D01*
X27057553Y-35252600D01*
X13611947Y-35252600D01*
X13529162Y-35274782D01*
X13454938Y-35317635D01*
X11861831Y-36910742D01*
X11818982Y-36984960D01*
X11818981Y-36984960D01*
X11818982Y-36984961D01*
X11806084Y-37033097D01*
X11796800Y-37067747D01*
X11796800Y-40346447D01*
X11796800Y-40432153D01*
X11807870Y-40473467D01*
X11818983Y-40514943D01*
X11861831Y-40589157D01*
X11861835Y-40589162D01*
X12226603Y-40953929D01*
X12254381Y-41008446D01*
X12255600Y-41023933D01*
X12255600Y-41706847D01*
X12255600Y-41792553D01*
X12273538Y-41859500D01*
X12277783Y-41875343D01*
X12320631Y-41949557D01*
X12320633Y-41949559D01*
X12320635Y-41949562D01*
X13195505Y-42824432D01*
X13223281Y-42878947D01*
X13224500Y-42894434D01*
X13224500Y-43020500D01*
X13205593Y-43078691D01*
X13156093Y-43114655D01*
X13125500Y-43119500D01*
X12645725Y-43119500D01*
X12615305Y-43122353D01*
X12615296Y-43122355D01*
X12487116Y-43167207D01*
X12377855Y-43247845D01*
X12377845Y-43247855D01*
X12297207Y-43357116D01*
X12252355Y-43485296D01*
X12252353Y-43485305D01*
X12249500Y-43515725D01*
X12249500Y-44324274D01*
X12252353Y-44354694D01*
X12252355Y-44354703D01*
X12297207Y-44482883D01*
X12377845Y-44592144D01*
X12377847Y-44592146D01*
X12377850Y-44592150D01*
X12377853Y-44592152D01*
X12377855Y-44592154D01*
X12487116Y-44672792D01*
X12487117Y-44672792D01*
X12487118Y-44672793D01*
X12615301Y-44717646D01*
X12645725Y-44720499D01*
X12645727Y-44720500D01*
X12645734Y-44720500D01*
X14454273Y-44720500D01*
X14454273Y-44720499D01*
X14484699Y-44717646D01*
X14612882Y-44672793D01*
X14722150Y-44592150D01*
X14802793Y-44482882D01*
X14847646Y-44354699D01*
X14850499Y-44324273D01*
X14850500Y-44324273D01*
X14850500Y-43515727D01*
X14850499Y-43515725D01*
X14847646Y-43485301D01*
X14802793Y-43357118D01*
X14788029Y-43337114D01*
X14722154Y-43247855D01*
X14722152Y-43247853D01*
X14722150Y-43247850D01*
X14722146Y-43247847D01*
X14722144Y-43247845D01*
X14612883Y-43167207D01*
X14484703Y-43122355D01*
X14484694Y-43122353D01*
X14454274Y-43119500D01*
X14454266Y-43119500D01*
X13974500Y-43119500D01*
X13916309Y-43100593D01*
X13880345Y-43051093D01*
X13875500Y-43020500D01*
X13875500Y-42675648D01*
X13875500Y-42675647D01*
X13853318Y-42592862D01*
X13811966Y-42521239D01*
X13799245Y-42461392D01*
X13824131Y-42405496D01*
X13877119Y-42374903D01*
X13878312Y-42374658D01*
X13901329Y-42370080D01*
X14028812Y-42317275D01*
X14143543Y-42240614D01*
X14241114Y-42143043D01*
X14317775Y-42028312D01*
X14370580Y-41900829D01*
X14397500Y-41765494D01*
X14397500Y-41627506D01*
X14370580Y-41492172D01*
X14317775Y-41364689D01*
X14241114Y-41249957D01*
X14137296Y-41146138D01*
X14109519Y-41091622D01*
X14108300Y-41076135D01*
X14108300Y-40699500D01*
X14127207Y-40641309D01*
X14176707Y-40605345D01*
X14207300Y-40600500D01*
X14754273Y-40600500D01*
X14754273Y-40600499D01*
X14784699Y-40597646D01*
X14912882Y-40552793D01*
X15022150Y-40472150D01*
X15102793Y-40362882D01*
X15147646Y-40234699D01*
X15150499Y-40204273D01*
X15150500Y-40204273D01*
X15150500Y-37295727D01*
X15150499Y-37295725D01*
X15147646Y-37265305D01*
X15147646Y-37265301D01*
X15102793Y-37137118D01*
X15088684Y-37118001D01*
X15022154Y-37027855D01*
X15022152Y-37027853D01*
X15022150Y-37027850D01*
X15022146Y-37027847D01*
X15022144Y-37027845D01*
X14912883Y-36947207D01*
X14784703Y-36902355D01*
X14784694Y-36902353D01*
X14754274Y-36899500D01*
X14754266Y-36899500D01*
X13032735Y-36899500D01*
X12974544Y-36880593D01*
X12938580Y-36831093D01*
X12938580Y-36769907D01*
X12962731Y-36730496D01*
X13760631Y-35932596D01*
X13815148Y-35904819D01*
X13830635Y-35903600D01*
X26838865Y-35903600D01*
X26897056Y-35922507D01*
X26908869Y-35932596D01*
X27736135Y-36759862D01*
X27736134Y-36759862D01*
X27796142Y-36819869D01*
X27796738Y-36820465D01*
X27870962Y-36863318D01*
X27953747Y-36885500D01*
X29829861Y-36885500D01*
X29888052Y-36904407D01*
X29924016Y-36953907D01*
X29924016Y-37015093D01*
X29899866Y-37054501D01*
X29836368Y-37118000D01*
X29794020Y-37160348D01*
X29679058Y-37332402D01*
X29599869Y-37523581D01*
X29559500Y-37726532D01*
X29559500Y-37933467D01*
X29599869Y-38136418D01*
X29679058Y-38327597D01*
X29679059Y-38327598D01*
X29794023Y-38499655D01*
X29940345Y-38645977D01*
X30112402Y-38760941D01*
X30303580Y-38840130D01*
X30506535Y-38880500D01*
X30506536Y-38880500D01*
X30713464Y-38880500D01*
X30713465Y-38880500D01*
X30916420Y-38840130D01*
X31107598Y-38760941D01*
X31279655Y-38645977D01*
X31425977Y-38499655D01*
X31540941Y-38327598D01*
X31620130Y-38136420D01*
X31660500Y-37933465D01*
X31660500Y-37726535D01*
X31660499Y-37726532D01*
X47339500Y-37726532D01*
X47339500Y-37933467D01*
X47379869Y-38136418D01*
X47459058Y-38327597D01*
X47459059Y-38327598D01*
X47574023Y-38499655D01*
X47720345Y-38645977D01*
X47892402Y-38760941D01*
X48083580Y-38840130D01*
X48286535Y-38880500D01*
X48286536Y-38880500D01*
X48493464Y-38880500D01*
X48493465Y-38880500D01*
X48696420Y-38840130D01*
X48887598Y-38760941D01*
X49059655Y-38645977D01*
X49205977Y-38499655D01*
X49320941Y-38327598D01*
X49400130Y-38136420D01*
X49440500Y-37933465D01*
X49440500Y-37726535D01*
X49400130Y-37523580D01*
X49320941Y-37332402D01*
X49205977Y-37160345D01*
X49059655Y-37014023D01*
X49059651Y-37014020D01*
X48887597Y-36899058D01*
X48696418Y-36819869D01*
X48493467Y-36779500D01*
X48493465Y-36779500D01*
X48286535Y-36779500D01*
X48286532Y-36779500D01*
X48083581Y-36819869D01*
X47892402Y-36899058D01*
X47720348Y-37014020D01*
X47574020Y-37160348D01*
X47459058Y-37332402D01*
X47379869Y-37523581D01*
X47339500Y-37726532D01*
X31660499Y-37726532D01*
X31620130Y-37523580D01*
X31540941Y-37332402D01*
X31425977Y-37160345D01*
X31320133Y-37054501D01*
X31292358Y-36999987D01*
X31301929Y-36939555D01*
X31345194Y-36896290D01*
X31390139Y-36885500D01*
X34281465Y-36885500D01*
X34339656Y-36904407D01*
X34351469Y-36914496D01*
X34429335Y-36992362D01*
X34429334Y-36992362D01*
X34489938Y-37052965D01*
X34564158Y-37095816D01*
X34564162Y-37095818D01*
X34646944Y-37118000D01*
X34646946Y-37118001D01*
X34646947Y-37118001D01*
X34738716Y-37118001D01*
X34738732Y-37118000D01*
X36450351Y-37118000D01*
X36450353Y-37118000D01*
X36533139Y-37095818D01*
X36533141Y-37095816D01*
X36533143Y-37095816D01*
X36607357Y-37052968D01*
X36607357Y-37052967D01*
X36607362Y-37052965D01*
X36980828Y-36679496D01*
X37035345Y-36651719D01*
X37050832Y-36650500D01*
X37854273Y-36650500D01*
X37854273Y-36650499D01*
X37884699Y-36647646D01*
X38012882Y-36602793D01*
X38122150Y-36522150D01*
X38202793Y-36412882D01*
X38247646Y-36284699D01*
X38250499Y-36254273D01*
X38250500Y-36254273D01*
X38250500Y-36174500D01*
X38269407Y-36116309D01*
X38318907Y-36080345D01*
X38349500Y-36075500D01*
X38850500Y-36075500D01*
X38908691Y-36094407D01*
X38944655Y-36143907D01*
X38949500Y-36174500D01*
X38949500Y-36254274D01*
X38952353Y-36284694D01*
X38952355Y-36284703D01*
X38997207Y-36412883D01*
X39077845Y-36522144D01*
X39077847Y-36522146D01*
X39077850Y-36522150D01*
X39077853Y-36522152D01*
X39077855Y-36522154D01*
X39187116Y-36602792D01*
X39187117Y-36602792D01*
X39187118Y-36602793D01*
X39315301Y-36647646D01*
X39345725Y-36650499D01*
X39345727Y-36650500D01*
X39345734Y-36650500D01*
X40154273Y-36650500D01*
X40154273Y-36650499D01*
X40184699Y-36647646D01*
X40312882Y-36602793D01*
X40422150Y-36522150D01*
X40502793Y-36412882D01*
X40547646Y-36284699D01*
X40550499Y-36254273D01*
X40550500Y-36254273D01*
X40550500Y-35245727D01*
X40550499Y-35245725D01*
X40547646Y-35215305D01*
X40547646Y-35215301D01*
X40543068Y-35202219D01*
X40537579Y-35186532D01*
X47339500Y-35186532D01*
X47339500Y-35393467D01*
X47379869Y-35596418D01*
X47459058Y-35787597D01*
X47555943Y-35932596D01*
X47574023Y-35959655D01*
X47720345Y-36105977D01*
X47892402Y-36220941D01*
X48083580Y-36300130D01*
X48286535Y-36340500D01*
X48286536Y-36340500D01*
X48493464Y-36340500D01*
X48493465Y-36340500D01*
X48696420Y-36300130D01*
X48887598Y-36220941D01*
X49059655Y-36105977D01*
X49205977Y-35959655D01*
X49320941Y-35787598D01*
X49400130Y-35596420D01*
X49440500Y-35393465D01*
X49440500Y-35186535D01*
X49400130Y-34983580D01*
X49320941Y-34792402D01*
X49205977Y-34620345D01*
X49059655Y-34474023D01*
X49059651Y-34474020D01*
X48887597Y-34359058D01*
X48696418Y-34279869D01*
X48493467Y-34239500D01*
X48493465Y-34239500D01*
X48286535Y-34239500D01*
X48286532Y-34239500D01*
X48083581Y-34279869D01*
X47892402Y-34359058D01*
X47720348Y-34474020D01*
X47574020Y-34620348D01*
X47459058Y-34792402D01*
X47379869Y-34983581D01*
X47339500Y-35186532D01*
X40537579Y-35186532D01*
X40502792Y-35087116D01*
X40422154Y-34977855D01*
X40422152Y-34977853D01*
X40422150Y-34977850D01*
X40422146Y-34977847D01*
X40422144Y-34977845D01*
X40312883Y-34897207D01*
X40184703Y-34852355D01*
X40184694Y-34852353D01*
X40154274Y-34849500D01*
X40154266Y-34849500D01*
X39345734Y-34849500D01*
X39345725Y-34849500D01*
X39315305Y-34852353D01*
X39315296Y-34852355D01*
X39187116Y-34897207D01*
X39077855Y-34977845D01*
X39077845Y-34977855D01*
X38997207Y-35087116D01*
X38952355Y-35215296D01*
X38952353Y-35215305D01*
X38949500Y-35245725D01*
X38949500Y-35325500D01*
X38930593Y-35383691D01*
X38881093Y-35419655D01*
X38850500Y-35424500D01*
X38349500Y-35424500D01*
X38291309Y-35405593D01*
X38255345Y-35356093D01*
X38250500Y-35325500D01*
X38250500Y-35245727D01*
X38250499Y-35245725D01*
X38247646Y-35215305D01*
X38247646Y-35215301D01*
X38202793Y-35087118D01*
X38122150Y-34977850D01*
X38122146Y-34977847D01*
X38122144Y-34977845D01*
X38012883Y-34897207D01*
X37884703Y-34852355D01*
X37884694Y-34852353D01*
X37854274Y-34849500D01*
X37854266Y-34849500D01*
X37045734Y-34849500D01*
X37045725Y-34849500D01*
X37015305Y-34852353D01*
X37015296Y-34852355D01*
X36887116Y-34897207D01*
X36777855Y-34977845D01*
X36777845Y-34977855D01*
X36697207Y-35087116D01*
X36652355Y-35215296D01*
X36652353Y-35215305D01*
X36649500Y-35245725D01*
X36649500Y-36049165D01*
X36630593Y-36107356D01*
X36620504Y-36119169D01*
X36419504Y-36320169D01*
X36364987Y-36347946D01*
X36304555Y-36338375D01*
X36261290Y-36295110D01*
X36250500Y-36250165D01*
X36250500Y-35245727D01*
X36250499Y-35245725D01*
X36247646Y-35215305D01*
X36247646Y-35215301D01*
X36202793Y-35087118D01*
X36122150Y-34977850D01*
X36122146Y-34977847D01*
X36122144Y-34977845D01*
X36012883Y-34897207D01*
X35884703Y-34852355D01*
X35884694Y-34852353D01*
X35854274Y-34849500D01*
X35854266Y-34849500D01*
X35050835Y-34849500D01*
X34992644Y-34830593D01*
X34980831Y-34820504D01*
X34483644Y-34323317D01*
X33919862Y-33759535D01*
X33919859Y-33759533D01*
X33919858Y-33759532D01*
X33914713Y-33755584D01*
X33915714Y-33754279D01*
X33880138Y-33714770D01*
X33873740Y-33653921D01*
X33904330Y-33600931D01*
X33960225Y-33576043D01*
X33970577Y-33575500D01*
X34550500Y-33575500D01*
X34608691Y-33594407D01*
X34644655Y-33643907D01*
X34649500Y-33674500D01*
X34649500Y-33754273D01*
X34652353Y-33784693D01*
X34652355Y-33784702D01*
X34697207Y-33912882D01*
X34777845Y-34022143D01*
X34777847Y-34022145D01*
X34777850Y-34022149D01*
X34777853Y-34022151D01*
X34777855Y-34022153D01*
X34887116Y-34102791D01*
X34887117Y-34102791D01*
X34887118Y-34102792D01*
X35015301Y-34147645D01*
X35045725Y-34150498D01*
X35045727Y-34150499D01*
X35045734Y-34150499D01*
X35854273Y-34150499D01*
X35854273Y-34150498D01*
X35884699Y-34147645D01*
X36012882Y-34102792D01*
X36122150Y-34022149D01*
X36202793Y-33912881D01*
X36247646Y-33784698D01*
X36250499Y-33754272D01*
X36250500Y-33754272D01*
X36250500Y-32749835D01*
X36269407Y-32691644D01*
X36318907Y-32655680D01*
X36380093Y-32655680D01*
X36419504Y-32679831D01*
X36620504Y-32880831D01*
X36648281Y-32935348D01*
X36649500Y-32950835D01*
X36649500Y-33754273D01*
X36652353Y-33784693D01*
X36652355Y-33784702D01*
X36697207Y-33912882D01*
X36777845Y-34022143D01*
X36777847Y-34022145D01*
X36777850Y-34022149D01*
X36777853Y-34022151D01*
X36777855Y-34022153D01*
X36887116Y-34102791D01*
X36887117Y-34102791D01*
X36887118Y-34102792D01*
X37015301Y-34147645D01*
X37045725Y-34150498D01*
X37045727Y-34150499D01*
X37045734Y-34150499D01*
X37854273Y-34150499D01*
X37854273Y-34150498D01*
X37884699Y-34147645D01*
X38012882Y-34102792D01*
X38122150Y-34022149D01*
X38202793Y-33912881D01*
X38247646Y-33784698D01*
X38250499Y-33754272D01*
X38250500Y-33754272D01*
X38250500Y-33674500D01*
X38269407Y-33616309D01*
X38318907Y-33580345D01*
X38349500Y-33575500D01*
X38850500Y-33575500D01*
X38908691Y-33594407D01*
X38944655Y-33643907D01*
X38949500Y-33674500D01*
X38949500Y-33754273D01*
X38952353Y-33784693D01*
X38952355Y-33784702D01*
X38997207Y-33912882D01*
X39077845Y-34022143D01*
X39077847Y-34022145D01*
X39077850Y-34022149D01*
X39077853Y-34022151D01*
X39077855Y-34022153D01*
X39187116Y-34102791D01*
X39187117Y-34102791D01*
X39187118Y-34102792D01*
X39315301Y-34147645D01*
X39345725Y-34150498D01*
X39345727Y-34150499D01*
X39345734Y-34150499D01*
X40154273Y-34150499D01*
X40154273Y-34150498D01*
X40184699Y-34147645D01*
X40312882Y-34102792D01*
X40422150Y-34022149D01*
X40502793Y-33912881D01*
X40547646Y-33784698D01*
X40550499Y-33754272D01*
X40550500Y-33754272D01*
X40550500Y-32745726D01*
X40550499Y-32745724D01*
X40547646Y-32715300D01*
X40502793Y-32587117D01*
X40489047Y-32568492D01*
X40422154Y-32477854D01*
X40422152Y-32477852D01*
X40422150Y-32477849D01*
X40422146Y-32477846D01*
X40422144Y-32477844D01*
X40312883Y-32397206D01*
X40184703Y-32352354D01*
X40184694Y-32352352D01*
X40154274Y-32349499D01*
X40154266Y-32349499D01*
X39345734Y-32349499D01*
X39345725Y-32349499D01*
X39315305Y-32352352D01*
X39315296Y-32352354D01*
X39187116Y-32397206D01*
X39077855Y-32477844D01*
X39077845Y-32477854D01*
X38997207Y-32587115D01*
X38952355Y-32715295D01*
X38952353Y-32715304D01*
X38949500Y-32745724D01*
X38949500Y-32825500D01*
X38930593Y-32883691D01*
X38881093Y-32919655D01*
X38850500Y-32924500D01*
X38349500Y-32924500D01*
X38291309Y-32905593D01*
X38255345Y-32856093D01*
X38250500Y-32825500D01*
X38250500Y-32745726D01*
X38250499Y-32745724D01*
X38247646Y-32715300D01*
X38202793Y-32587117D01*
X38189047Y-32568492D01*
X38122154Y-32477854D01*
X38122152Y-32477852D01*
X38122150Y-32477849D01*
X38122146Y-32477846D01*
X38122144Y-32477844D01*
X38012883Y-32397206D01*
X37884703Y-32352354D01*
X37884694Y-32352352D01*
X37854274Y-32349499D01*
X37854266Y-32349499D01*
X37050834Y-32349499D01*
X36992643Y-32330592D01*
X36980830Y-32320503D01*
X36432846Y-31772519D01*
X35875262Y-31214935D01*
X35801039Y-31172082D01*
X35782043Y-31166992D01*
X35768940Y-31163481D01*
X35718253Y-31149900D01*
X35718251Y-31149900D01*
X35114417Y-31149900D01*
X35056226Y-31130993D01*
X35020262Y-31081493D01*
X35020262Y-31020307D01*
X35055629Y-30971245D01*
X35092852Y-30943772D01*
X35122150Y-30922150D01*
X35202793Y-30812882D01*
X35247646Y-30684699D01*
X35250499Y-30654273D01*
X35250500Y-30654273D01*
X35250500Y-29645727D01*
X35250499Y-29645725D01*
X35247646Y-29615305D01*
X35247646Y-29615301D01*
X35202793Y-29487118D01*
X35163962Y-29434504D01*
X35122154Y-29377855D01*
X35122152Y-29377853D01*
X35122150Y-29377850D01*
X35122146Y-29377847D01*
X35122144Y-29377845D01*
X35012883Y-29297207D01*
X34884703Y-29252355D01*
X34884694Y-29252353D01*
X34854274Y-29249500D01*
X34854266Y-29249500D01*
X34050835Y-29249500D01*
X33992644Y-29230593D01*
X33980831Y-29220504D01*
X33718119Y-28957792D01*
X33439862Y-28679535D01*
X33439859Y-28679533D01*
X33439858Y-28679532D01*
X33439857Y-28679531D01*
X33365642Y-28636683D01*
X33365644Y-28636683D01*
X33313109Y-28622607D01*
X33282853Y-28614500D01*
X33282851Y-28614500D01*
X31390139Y-28614500D01*
X31331948Y-28595593D01*
X31295984Y-28546093D01*
X31295984Y-28484907D01*
X31320133Y-28445498D01*
X31425977Y-28339655D01*
X31540941Y-28167598D01*
X31615413Y-27987808D01*
X35556100Y-27987808D01*
X35556100Y-28119592D01*
X35574064Y-28186635D01*
X35590209Y-28246890D01*
X35656096Y-28361009D01*
X35656098Y-28361011D01*
X35656100Y-28361014D01*
X35749286Y-28454200D01*
X35749288Y-28454201D01*
X35749290Y-28454203D01*
X35863410Y-28520090D01*
X35863408Y-28520090D01*
X35863412Y-28520091D01*
X35863414Y-28520092D01*
X35990708Y-28554200D01*
X36025500Y-28554200D01*
X36083691Y-28573107D01*
X36119655Y-28622607D01*
X36124500Y-28653200D01*
X36124500Y-29151962D01*
X36105593Y-29210153D01*
X36056093Y-29246117D01*
X36034748Y-29250529D01*
X36015304Y-29252353D01*
X36015296Y-29252355D01*
X35887116Y-29297207D01*
X35777855Y-29377845D01*
X35777845Y-29377855D01*
X35697207Y-29487116D01*
X35652355Y-29615296D01*
X35652353Y-29615305D01*
X35649500Y-29645725D01*
X35649500Y-30654274D01*
X35652353Y-30684694D01*
X35652355Y-30684703D01*
X35697207Y-30812883D01*
X35777845Y-30922144D01*
X35777847Y-30922146D01*
X35777850Y-30922150D01*
X35777853Y-30922152D01*
X35777855Y-30922154D01*
X35867768Y-30988513D01*
X35867771Y-30988514D01*
X35887118Y-31002793D01*
X35925905Y-31016365D01*
X35925907Y-31016366D01*
X35937170Y-31020307D01*
X36015301Y-31047646D01*
X36045725Y-31050499D01*
X36045727Y-31050500D01*
X36045734Y-31050500D01*
X36854273Y-31050500D01*
X36854273Y-31050499D01*
X36884699Y-31047646D01*
X37012882Y-31002793D01*
X37122150Y-30922150D01*
X37202793Y-30812882D01*
X37247646Y-30684699D01*
X37250499Y-30654273D01*
X37250500Y-30654273D01*
X37250500Y-30574500D01*
X37269407Y-30516309D01*
X37318907Y-30480345D01*
X37349500Y-30475500D01*
X37850500Y-30475500D01*
X37908691Y-30494407D01*
X37944655Y-30543907D01*
X37949500Y-30574500D01*
X37949500Y-30654274D01*
X37952353Y-30684694D01*
X37952355Y-30684703D01*
X37997207Y-30812883D01*
X38077845Y-30922144D01*
X38077847Y-30922146D01*
X38077850Y-30922150D01*
X38077853Y-30922152D01*
X38077855Y-30922154D01*
X38187116Y-31002792D01*
X38187117Y-31002792D01*
X38187118Y-31002793D01*
X38315301Y-31047646D01*
X38345725Y-31050499D01*
X38345727Y-31050500D01*
X38345734Y-31050500D01*
X39154273Y-31050500D01*
X39154273Y-31050499D01*
X39184699Y-31047646D01*
X39312882Y-31002793D01*
X39422150Y-30922150D01*
X39502793Y-30812882D01*
X39547646Y-30684699D01*
X39550499Y-30654273D01*
X39550500Y-30654273D01*
X39550500Y-30106532D01*
X47339500Y-30106532D01*
X47339500Y-30313467D01*
X47379869Y-30516418D01*
X47459058Y-30707597D01*
X47574020Y-30879651D01*
X47574023Y-30879655D01*
X47720345Y-31025977D01*
X47892402Y-31140941D01*
X48083580Y-31220130D01*
X48286535Y-31260500D01*
X48286536Y-31260500D01*
X48493464Y-31260500D01*
X48493465Y-31260500D01*
X48696420Y-31220130D01*
X48887598Y-31140941D01*
X49059655Y-31025977D01*
X49205977Y-30879655D01*
X49320941Y-30707598D01*
X49400130Y-30516420D01*
X49440500Y-30313465D01*
X49440500Y-30106535D01*
X49400130Y-29903580D01*
X49320941Y-29712402D01*
X49205977Y-29540345D01*
X49059655Y-29394023D01*
X49054206Y-29390382D01*
X48887597Y-29279058D01*
X48696418Y-29199869D01*
X48493467Y-29159500D01*
X48493465Y-29159500D01*
X48286535Y-29159500D01*
X48286532Y-29159500D01*
X48083581Y-29199869D01*
X47892402Y-29279058D01*
X47720348Y-29394020D01*
X47574020Y-29540348D01*
X47459058Y-29712402D01*
X47379869Y-29903581D01*
X47339500Y-30106532D01*
X39550500Y-30106532D01*
X39550500Y-29645727D01*
X39550499Y-29645725D01*
X39547646Y-29615305D01*
X39547646Y-29615301D01*
X39502793Y-29487118D01*
X39463962Y-29434504D01*
X39422154Y-29377855D01*
X39422152Y-29377853D01*
X39422150Y-29377850D01*
X39422146Y-29377847D01*
X39422144Y-29377845D01*
X39312883Y-29297207D01*
X39184703Y-29252355D01*
X39184694Y-29252353D01*
X39154274Y-29249500D01*
X39154266Y-29249500D01*
X38345734Y-29249500D01*
X38345725Y-29249500D01*
X38315305Y-29252353D01*
X38315296Y-29252355D01*
X38187116Y-29297207D01*
X38077855Y-29377845D01*
X38077845Y-29377855D01*
X37997207Y-29487116D01*
X37952355Y-29615296D01*
X37952353Y-29615305D01*
X37949500Y-29645725D01*
X37949500Y-29725500D01*
X37930593Y-29783691D01*
X37881093Y-29819655D01*
X37850500Y-29824500D01*
X37349500Y-29824500D01*
X37291309Y-29805593D01*
X37255345Y-29756093D01*
X37250500Y-29725500D01*
X37250500Y-29645727D01*
X37250499Y-29645725D01*
X37247646Y-29615305D01*
X37247646Y-29615301D01*
X37202793Y-29487118D01*
X37163962Y-29434504D01*
X37122154Y-29377855D01*
X37122152Y-29377853D01*
X37122150Y-29377850D01*
X37122146Y-29377847D01*
X37122144Y-29377845D01*
X37012883Y-29297207D01*
X36884703Y-29252355D01*
X36884695Y-29252353D01*
X36865252Y-29250529D01*
X36809082Y-29226268D01*
X36777899Y-29173625D01*
X36775500Y-29151962D01*
X36775500Y-28497940D01*
X36775501Y-28497927D01*
X36775501Y-28404246D01*
X36775500Y-28404244D01*
X36753319Y-28321465D01*
X36753316Y-28321458D01*
X36746970Y-28310466D01*
X36731541Y-28283743D01*
X36710465Y-28247238D01*
X36649862Y-28186635D01*
X36649859Y-28186633D01*
X36646404Y-28183177D01*
X36646398Y-28183172D01*
X36586096Y-28122869D01*
X36558319Y-28068352D01*
X36557100Y-28052866D01*
X36557100Y-27987809D01*
X36557100Y-27987808D01*
X36522992Y-27860514D01*
X36522990Y-27860511D01*
X36522990Y-27860509D01*
X36457103Y-27746390D01*
X36457101Y-27746388D01*
X36457100Y-27746386D01*
X36363914Y-27653200D01*
X36363911Y-27653198D01*
X36353883Y-27647408D01*
X36353882Y-27647408D01*
X36249787Y-27587308D01*
X36207354Y-27575938D01*
X36172249Y-27566532D01*
X47339500Y-27566532D01*
X47339500Y-27773467D01*
X47379869Y-27976418D01*
X47459058Y-28167597D01*
X47554521Y-28310468D01*
X47574023Y-28339655D01*
X47720345Y-28485977D01*
X47892402Y-28600941D01*
X48083580Y-28680130D01*
X48286535Y-28720500D01*
X48286536Y-28720500D01*
X48493464Y-28720500D01*
X48493465Y-28720500D01*
X48696420Y-28680130D01*
X48887598Y-28600941D01*
X49059655Y-28485977D01*
X49205977Y-28339655D01*
X49320941Y-28167598D01*
X49400130Y-27976420D01*
X49440500Y-27773465D01*
X49440500Y-27566535D01*
X49400130Y-27363580D01*
X49320941Y-27172402D01*
X49205977Y-27000345D01*
X49059655Y-26854023D01*
X49045264Y-26844407D01*
X48887597Y-26739058D01*
X48696418Y-26659869D01*
X48493467Y-26619500D01*
X48493465Y-26619500D01*
X48286535Y-26619500D01*
X48286532Y-26619500D01*
X48083581Y-26659869D01*
X47892402Y-26739058D01*
X47720348Y-26854020D01*
X47574020Y-27000348D01*
X47459058Y-27172402D01*
X47379869Y-27363581D01*
X47339500Y-27566532D01*
X36172249Y-27566532D01*
X36122492Y-27553200D01*
X35990708Y-27553200D01*
X35912800Y-27574075D01*
X35863409Y-27587309D01*
X35749290Y-27653196D01*
X35656096Y-27746390D01*
X35590209Y-27860509D01*
X35583698Y-27884809D01*
X35556100Y-27987808D01*
X31615413Y-27987808D01*
X31620130Y-27976420D01*
X31660500Y-27773465D01*
X31660500Y-27566535D01*
X31620130Y-27363580D01*
X31540941Y-27172402D01*
X31425977Y-27000345D01*
X31279655Y-26854023D01*
X31265264Y-26844407D01*
X31107597Y-26739058D01*
X30916418Y-26659869D01*
X30713467Y-26619500D01*
X30713465Y-26619500D01*
X30506535Y-26619500D01*
X30506532Y-26619500D01*
X30303581Y-26659869D01*
X30112402Y-26739058D01*
X29940348Y-26854020D01*
X29794020Y-27000348D01*
X29679058Y-27172402D01*
X29599869Y-27363581D01*
X29559500Y-27566532D01*
X29559500Y-27773467D01*
X29599869Y-27976418D01*
X29679058Y-28167597D01*
X29774521Y-28310468D01*
X29794023Y-28339655D01*
X29899866Y-28445498D01*
X29927642Y-28500013D01*
X29918071Y-28560445D01*
X29874806Y-28603710D01*
X29829861Y-28614500D01*
X28439935Y-28614500D01*
X28381744Y-28595593D01*
X28369931Y-28585504D01*
X27804296Y-28019869D01*
X27776519Y-27965352D01*
X27775300Y-27949865D01*
X27775300Y-27884809D01*
X27775300Y-27884808D01*
X27741192Y-27757514D01*
X27741190Y-27757511D01*
X27741190Y-27757509D01*
X27675303Y-27643390D01*
X27675301Y-27643388D01*
X27675300Y-27643386D01*
X27582114Y-27550200D01*
X27582111Y-27550198D01*
X27582109Y-27550196D01*
X27467989Y-27484309D01*
X27467991Y-27484309D01*
X27418599Y-27471075D01*
X27340692Y-27450200D01*
X27208908Y-27450200D01*
X27131000Y-27471075D01*
X27081609Y-27484309D01*
X26967490Y-27550196D01*
X26874296Y-27643390D01*
X26808409Y-27757509D01*
X26804134Y-27773465D01*
X26774300Y-27884808D01*
X26774300Y-28016592D01*
X26795007Y-28093873D01*
X26808409Y-28143890D01*
X26874296Y-28258009D01*
X26874298Y-28258011D01*
X26874300Y-28258014D01*
X26967486Y-28351200D01*
X26967488Y-28351201D01*
X26967490Y-28351203D01*
X27081610Y-28417090D01*
X27081608Y-28417090D01*
X27081612Y-28417091D01*
X27081614Y-28417092D01*
X27208908Y-28451200D01*
X27273965Y-28451200D01*
X27332156Y-28470107D01*
X27343969Y-28480196D01*
X28003635Y-29139862D01*
X28003634Y-29139862D01*
X28062969Y-29199196D01*
X28090747Y-29253712D01*
X28081176Y-29314144D01*
X28037912Y-29357409D01*
X27992966Y-29368200D01*
X10394835Y-29368200D01*
X10336644Y-29349293D01*
X10324831Y-29339204D01*
X10069543Y-29083916D01*
X9728262Y-28742635D01*
X9728259Y-28742633D01*
X9728258Y-28742632D01*
X9728257Y-28742631D01*
X9654042Y-28699783D01*
X9654044Y-28699783D01*
X9621921Y-28691176D01*
X9571253Y-28677600D01*
X8918953Y-28677600D01*
X8833247Y-28677600D01*
X8750461Y-28699782D01*
X8750459Y-28699782D01*
X8750456Y-28699784D01*
X8736981Y-28707563D01*
X8736982Y-28707564D01*
X8676236Y-28742635D01*
X8615634Y-28803237D01*
X8615635Y-28803238D01*
X7662331Y-29756542D01*
X7619482Y-29830760D01*
X7619481Y-29830760D01*
X7619482Y-29830761D01*
X7597300Y-29913547D01*
X7597300Y-31624678D01*
X7578393Y-31682869D01*
X7568304Y-31694681D01*
X7522300Y-31740684D01*
X7522296Y-31740690D01*
X7456409Y-31854809D01*
X7446118Y-31893216D01*
X7422300Y-31982108D01*
X7422300Y-32113892D01*
X7436796Y-32167992D01*
X7456409Y-32241190D01*
X7522296Y-32355309D01*
X7522298Y-32355311D01*
X7522300Y-32355314D01*
X7615486Y-32448500D01*
X7615488Y-32448501D01*
X7615490Y-32448503D01*
X7729610Y-32514390D01*
X7729608Y-32514390D01*
X7729612Y-32514391D01*
X7729614Y-32514392D01*
X7856908Y-32548500D01*
X7856910Y-32548500D01*
X7988690Y-32548500D01*
X7988692Y-32548500D01*
X8115986Y-32514392D01*
X8115988Y-32514390D01*
X8115990Y-32514390D01*
X8230109Y-32448503D01*
X8230109Y-32448502D01*
X8230114Y-32448500D01*
X8323300Y-32355314D01*
X8326657Y-32349499D01*
X8389190Y-32241190D01*
X8389190Y-32241188D01*
X8389192Y-32241186D01*
X8423300Y-32113892D01*
X8423300Y-31982108D01*
X8396253Y-31881166D01*
X8399455Y-31820069D01*
X8437961Y-31772519D01*
X8497061Y-31756683D01*
X8550667Y-31775891D01*
X8587118Y-31802793D01*
X8715301Y-31847646D01*
X8745734Y-31850500D01*
X8745742Y-31850500D01*
X8746328Y-31850555D01*
X8802499Y-31874813D01*
X8832712Y-31923500D01*
X8846683Y-31975643D01*
X8889531Y-32049857D01*
X8889532Y-32049858D01*
X8889533Y-32049859D01*
X8889535Y-32049862D01*
X9288173Y-32448500D01*
X9620169Y-32780496D01*
X9647946Y-32835013D01*
X9638375Y-32895445D01*
X9595110Y-32938710D01*
X9550165Y-32949500D01*
X8745725Y-32949500D01*
X8715305Y-32952353D01*
X8715296Y-32952355D01*
X8587116Y-32997207D01*
X8477855Y-33077845D01*
X8477845Y-33077855D01*
X8397207Y-33187116D01*
X8352355Y-33315296D01*
X8352353Y-33315305D01*
X8349500Y-33345725D01*
X8349500Y-34149165D01*
X8330593Y-34207356D01*
X8320504Y-34219169D01*
X7995269Y-34544404D01*
X7940752Y-34572181D01*
X7925265Y-34573400D01*
X7721144Y-34573400D01*
X7662953Y-34554493D01*
X7626989Y-34504993D01*
X7626989Y-34443807D01*
X7627700Y-34441702D01*
X7635234Y-34420170D01*
X7647646Y-34384699D01*
X7650499Y-34354273D01*
X7650500Y-34354273D01*
X7650500Y-33345727D01*
X7650499Y-33345725D01*
X7647646Y-33315301D01*
X7602793Y-33187118D01*
X7554263Y-33121362D01*
X7522154Y-33077855D01*
X7522152Y-33077853D01*
X7522150Y-33077850D01*
X7522146Y-33077847D01*
X7522144Y-33077845D01*
X7412883Y-32997207D01*
X7284703Y-32952355D01*
X7284694Y-32952353D01*
X7254274Y-32949500D01*
X7254266Y-32949500D01*
X6450835Y-32949500D01*
X6392644Y-32930593D01*
X6380831Y-32920504D01*
X5408060Y-31947733D01*
X5380283Y-31893216D01*
X5389854Y-31832784D01*
X5419276Y-31798074D01*
X5444295Y-31779609D01*
X5522150Y-31722150D01*
X5602793Y-31612882D01*
X5647646Y-31484699D01*
X5650499Y-31454273D01*
X5650500Y-31454273D01*
X5650500Y-30445727D01*
X5650499Y-30445725D01*
X5647646Y-30415305D01*
X5647646Y-30415301D01*
X5602793Y-30287118D01*
X5599312Y-30282402D01*
X5522154Y-30177855D01*
X5522151Y-30177852D01*
X5522150Y-30177850D01*
X5522146Y-30177847D01*
X5522144Y-30177845D01*
X5412883Y-30097207D01*
X5299124Y-30057401D01*
X5250444Y-30020336D01*
X5232847Y-29961735D01*
X5249474Y-29914215D01*
X5247256Y-29912934D01*
X5316390Y-29793190D01*
X5316390Y-29793188D01*
X5316392Y-29793186D01*
X5350500Y-29665892D01*
X5350500Y-29534108D01*
X5316392Y-29406814D01*
X5316390Y-29406811D01*
X5316390Y-29406809D01*
X5250503Y-29292690D01*
X5250501Y-29292688D01*
X5250500Y-29292686D01*
X5157314Y-29199500D01*
X5157311Y-29199498D01*
X5141269Y-29190236D01*
X5100329Y-29144766D01*
X5093934Y-29083916D01*
X5124527Y-29030928D01*
X5180423Y-29006042D01*
X5190770Y-29005500D01*
X5234273Y-29005500D01*
X5234273Y-29005499D01*
X5264699Y-29002646D01*
X5392882Y-28957793D01*
X5502150Y-28877150D01*
X5582793Y-28767882D01*
X5627646Y-28639699D01*
X5630499Y-28609273D01*
X5630500Y-28609273D01*
X5630500Y-27793065D01*
X5649407Y-27734874D01*
X5659475Y-27723083D01*
X6047871Y-27334511D01*
X6102381Y-27306722D01*
X6117890Y-27305500D01*
X8004165Y-27305500D01*
X8062356Y-27324407D01*
X8074169Y-27334496D01*
X8532739Y-27793065D01*
X8989533Y-28249859D01*
X8989535Y-28249862D01*
X9050138Y-28310465D01*
X9124362Y-28353318D01*
X9124364Y-28353318D01*
X9124365Y-28353319D01*
X9153064Y-28361009D01*
X9207145Y-28375500D01*
X9207147Y-28375501D01*
X9207148Y-28375501D01*
X9292854Y-28375501D01*
X9292854Y-28375500D01*
X9375639Y-28353318D01*
X9449862Y-28310465D01*
X9510465Y-28249862D01*
X9511980Y-28247239D01*
X9546969Y-28186635D01*
X9553318Y-28175639D01*
X9575501Y-28092853D01*
X9575501Y-28007148D01*
X9575501Y-28001086D01*
X9575500Y-28001068D01*
X9575500Y-26148037D01*
X9594407Y-26089846D01*
X9643907Y-26053882D01*
X9665255Y-26049470D01*
X9675712Y-26048488D01*
X9684699Y-26047646D01*
X9812882Y-26002793D01*
X9922150Y-25922150D01*
X10002793Y-25812882D01*
X10047646Y-25684699D01*
X10050499Y-25654273D01*
X10050500Y-25654273D01*
X10050500Y-24645727D01*
X10050499Y-24645725D01*
X10049465Y-24634698D01*
X10047646Y-24615301D01*
X10002793Y-24487118D01*
X10000203Y-24483609D01*
X9922154Y-24377855D01*
X9922152Y-24377853D01*
X9922150Y-24377850D01*
X9922146Y-24377847D01*
X9922144Y-24377845D01*
X9812883Y-24297207D01*
X9684703Y-24252355D01*
X9684695Y-24252353D01*
X9665252Y-24250529D01*
X9609082Y-24226268D01*
X9577899Y-24173625D01*
X9575500Y-24151962D01*
X9575500Y-22481835D01*
X9594407Y-22423644D01*
X9643907Y-22387680D01*
X9705093Y-22387680D01*
X9744504Y-22411831D01*
X10895504Y-23562831D01*
X10923281Y-23617348D01*
X10924500Y-23632835D01*
X10924500Y-24151962D01*
X10905593Y-24210153D01*
X10856093Y-24246117D01*
X10834748Y-24250529D01*
X10815304Y-24252353D01*
X10815296Y-24252355D01*
X10687116Y-24297207D01*
X10577855Y-24377845D01*
X10577845Y-24377855D01*
X10497207Y-24487116D01*
X10452355Y-24615296D01*
X10452353Y-24615305D01*
X10449500Y-24645725D01*
X10449500Y-25654274D01*
X10452353Y-25684694D01*
X10452355Y-25684703D01*
X10497207Y-25812883D01*
X10577845Y-25922144D01*
X10577847Y-25922146D01*
X10577850Y-25922150D01*
X10577853Y-25922152D01*
X10577855Y-25922154D01*
X10687116Y-26002792D01*
X10687117Y-26002792D01*
X10687118Y-26002793D01*
X10815301Y-26047646D01*
X10845725Y-26050499D01*
X10845727Y-26050500D01*
X10845734Y-26050500D01*
X11654273Y-26050500D01*
X11654273Y-26050499D01*
X11684699Y-26047646D01*
X11812882Y-26002793D01*
X11922150Y-25922150D01*
X12002793Y-25812882D01*
X12021034Y-25760749D01*
X12058098Y-25712071D01*
X12116698Y-25694473D01*
X12174450Y-25714680D01*
X12209295Y-25764974D01*
X12210105Y-25767824D01*
X12230982Y-25845739D01*
X12230983Y-25845741D01*
X12230984Y-25845744D01*
X12273831Y-25919957D01*
X12273833Y-25919959D01*
X12273835Y-25919962D01*
X13897833Y-27543959D01*
X13897835Y-27543962D01*
X13958438Y-27604565D01*
X13986184Y-27620584D01*
X13991038Y-27623386D01*
X13991040Y-27623388D01*
X13991041Y-27623388D01*
X14032661Y-27647418D01*
X14115447Y-27669600D01*
X14201153Y-27669600D01*
X14339165Y-27669600D01*
X14397356Y-27688507D01*
X14409169Y-27698596D01*
X15155535Y-28444962D01*
X15155534Y-28444962D01*
X15190769Y-28480196D01*
X15216138Y-28505565D01*
X15290362Y-28548418D01*
X15373147Y-28570600D01*
X15373149Y-28570600D01*
X21897751Y-28570600D01*
X21897753Y-28570600D01*
X21980539Y-28548418D01*
X21980541Y-28548416D01*
X21980543Y-28548416D01*
X22054757Y-28505568D01*
X22054757Y-28505567D01*
X22054762Y-28505565D01*
X23455330Y-27104995D01*
X23509847Y-27077219D01*
X23525334Y-27076000D01*
X29032351Y-27076000D01*
X29032353Y-27076000D01*
X29115139Y-27053818D01*
X29115141Y-27053816D01*
X29115143Y-27053816D01*
X29189357Y-27010968D01*
X29189357Y-27010967D01*
X29189362Y-27010965D01*
X30084709Y-26115616D01*
X30139224Y-26087841D01*
X30192593Y-26094157D01*
X30303580Y-26140130D01*
X30506535Y-26180500D01*
X30506536Y-26180500D01*
X30713464Y-26180500D01*
X30713465Y-26180500D01*
X30916420Y-26140130D01*
X31107598Y-26060941D01*
X31279655Y-25945977D01*
X31425977Y-25799655D01*
X31540941Y-25627598D01*
X31620130Y-25436420D01*
X31660500Y-25233465D01*
X31660500Y-25026535D01*
X31620130Y-24823580D01*
X31540941Y-24632402D01*
X31425977Y-24460345D01*
X31380233Y-24414601D01*
X31352458Y-24360087D01*
X31362029Y-24299655D01*
X31405294Y-24256390D01*
X31450239Y-24245600D01*
X32565765Y-24245600D01*
X32623956Y-24264507D01*
X32635769Y-24274596D01*
X33180808Y-24819634D01*
X33725633Y-25364459D01*
X33725635Y-25364462D01*
X33786238Y-25425065D01*
X33805901Y-25436417D01*
X33805905Y-25436421D01*
X33805906Y-25436420D01*
X33860461Y-25467918D01*
X33943247Y-25490100D01*
X33943249Y-25490100D01*
X39993151Y-25490100D01*
X39993153Y-25490100D01*
X40075939Y-25467918D01*
X40075941Y-25467916D01*
X40075943Y-25467916D01*
X40150157Y-25425068D01*
X40150157Y-25425067D01*
X40150162Y-25425065D01*
X40548695Y-25026532D01*
X47339500Y-25026532D01*
X47339500Y-25233467D01*
X47370447Y-25389047D01*
X47379870Y-25436420D01*
X47419262Y-25531520D01*
X47459058Y-25627597D01*
X47574020Y-25799651D01*
X47574023Y-25799655D01*
X47720345Y-25945977D01*
X47892402Y-26060941D01*
X48083580Y-26140130D01*
X48286535Y-26180500D01*
X48286536Y-26180500D01*
X48493464Y-26180500D01*
X48493465Y-26180500D01*
X48696420Y-26140130D01*
X48887598Y-26060941D01*
X49059655Y-25945977D01*
X49205977Y-25799655D01*
X49320941Y-25627598D01*
X49400130Y-25436420D01*
X49440500Y-25233465D01*
X49440500Y-25026535D01*
X49400130Y-24823580D01*
X49320941Y-24632402D01*
X49205977Y-24460345D01*
X49059655Y-24314023D01*
X49059651Y-24314020D01*
X48887597Y-24199058D01*
X48696418Y-24119869D01*
X48493467Y-24079500D01*
X48493465Y-24079500D01*
X48286535Y-24079500D01*
X48286532Y-24079500D01*
X48083581Y-24119869D01*
X47892402Y-24199058D01*
X47720348Y-24314020D01*
X47574020Y-24460348D01*
X47459058Y-24632402D01*
X47379869Y-24823581D01*
X47339500Y-25026532D01*
X40548695Y-25026532D01*
X41187865Y-24387362D01*
X41201431Y-24363865D01*
X41230716Y-24313143D01*
X41230716Y-24313141D01*
X41230718Y-24313139D01*
X41252900Y-24230353D01*
X41252900Y-24144647D01*
X41252900Y-22486532D01*
X47339500Y-22486532D01*
X47339500Y-22693467D01*
X47379869Y-22896418D01*
X47459058Y-23087597D01*
X47565758Y-23247286D01*
X47574023Y-23259655D01*
X47720345Y-23405977D01*
X47892402Y-23520941D01*
X48083580Y-23600130D01*
X48286535Y-23640500D01*
X48286536Y-23640500D01*
X48493464Y-23640500D01*
X48493465Y-23640500D01*
X48696420Y-23600130D01*
X48887598Y-23520941D01*
X49059655Y-23405977D01*
X49205977Y-23259655D01*
X49320941Y-23087598D01*
X49400130Y-22896420D01*
X49440500Y-22693465D01*
X49440500Y-22486535D01*
X49400130Y-22283580D01*
X49320941Y-22092402D01*
X49205977Y-21920345D01*
X49059655Y-21774023D01*
X49059651Y-21774020D01*
X48887597Y-21659058D01*
X48696418Y-21579869D01*
X48493467Y-21539500D01*
X48493465Y-21539500D01*
X48286535Y-21539500D01*
X48286532Y-21539500D01*
X48083581Y-21579869D01*
X47892402Y-21659058D01*
X47720348Y-21774020D01*
X47574020Y-21920348D01*
X47459058Y-22092402D01*
X47379869Y-22283581D01*
X47339500Y-22486532D01*
X41252900Y-22486532D01*
X41252900Y-20068434D01*
X41271807Y-20010243D01*
X41281890Y-19998436D01*
X43873793Y-17406532D01*
X47339500Y-17406532D01*
X47339500Y-17613467D01*
X47379869Y-17816418D01*
X47459058Y-18007597D01*
X47558427Y-18156314D01*
X47574023Y-18179655D01*
X47720345Y-18325977D01*
X47892402Y-18440941D01*
X48083580Y-18520130D01*
X48286535Y-18560500D01*
X48286536Y-18560500D01*
X48493464Y-18560500D01*
X48493465Y-18560500D01*
X48696420Y-18520130D01*
X48887598Y-18440941D01*
X49059655Y-18325977D01*
X49205977Y-18179655D01*
X49320941Y-18007598D01*
X49400130Y-17816420D01*
X49440500Y-17613465D01*
X49440500Y-17406535D01*
X49400130Y-17203580D01*
X49320941Y-17012402D01*
X49205977Y-16840345D01*
X49059655Y-16694023D01*
X49056014Y-16691590D01*
X48887597Y-16579058D01*
X48696418Y-16499869D01*
X48493467Y-16459500D01*
X48493465Y-16459500D01*
X48286535Y-16459500D01*
X48286532Y-16459500D01*
X48083581Y-16499869D01*
X47892402Y-16579058D01*
X47720348Y-16694020D01*
X47574020Y-16840348D01*
X47459058Y-17012402D01*
X47379869Y-17203581D01*
X47339500Y-17406532D01*
X43873793Y-17406532D01*
X46413793Y-14866532D01*
X47339500Y-14866532D01*
X47339500Y-15073467D01*
X47379869Y-15276418D01*
X47459058Y-15467597D01*
X47459059Y-15467598D01*
X47574023Y-15639655D01*
X47720345Y-15785977D01*
X47892402Y-15900941D01*
X48083580Y-15980130D01*
X48286535Y-16020500D01*
X48286536Y-16020500D01*
X48493464Y-16020500D01*
X48493465Y-16020500D01*
X48696420Y-15980130D01*
X48887598Y-15900941D01*
X49059655Y-15785977D01*
X49205977Y-15639655D01*
X49320941Y-15467598D01*
X49400130Y-15276420D01*
X49440500Y-15073465D01*
X49440500Y-14866535D01*
X49400130Y-14663580D01*
X49320941Y-14472402D01*
X49205977Y-14300345D01*
X49059655Y-14154023D01*
X49057816Y-14152794D01*
X48887597Y-14039058D01*
X48696418Y-13959869D01*
X48493467Y-13919500D01*
X48493465Y-13919500D01*
X48286535Y-13919500D01*
X48286532Y-13919500D01*
X48083581Y-13959869D01*
X47892402Y-14039058D01*
X47720348Y-14154020D01*
X47574020Y-14300348D01*
X47459058Y-14472402D01*
X47413088Y-14583386D01*
X47379870Y-14663580D01*
X47339500Y-14866532D01*
X46413793Y-14866532D01*
X47864709Y-13415616D01*
X47919224Y-13387841D01*
X47972593Y-13394157D01*
X48083580Y-13440130D01*
X48286535Y-13480500D01*
X48286536Y-13480500D01*
X48493464Y-13480500D01*
X48493465Y-13480500D01*
X48696420Y-13440130D01*
X48887598Y-13360941D01*
X49059655Y-13245977D01*
X49205977Y-13099655D01*
X49320941Y-12927598D01*
X49400130Y-12736420D01*
X49440500Y-12533465D01*
X49440500Y-12326535D01*
X49400130Y-12123580D01*
X49320941Y-11932402D01*
X49205977Y-11760345D01*
X49059655Y-11614023D01*
X49059651Y-11614020D01*
X48887597Y-11499058D01*
X48696418Y-11419869D01*
X48493467Y-11379500D01*
X48493465Y-11379500D01*
X48286535Y-11379500D01*
X48286532Y-11379500D01*
X48083581Y-11419869D01*
X47892402Y-11499058D01*
X47720348Y-11614020D01*
X47574020Y-11760348D01*
X47459058Y-11932402D01*
X47379869Y-12123581D01*
X47339500Y-12326532D01*
X47339500Y-12533467D01*
X47379870Y-12736419D01*
X47379870Y-12736421D01*
X47425840Y-12847402D01*
X47430641Y-12908398D01*
X47404380Y-12955291D01*
X40666932Y-19692741D01*
X40666931Y-19692742D01*
X40624083Y-19766957D01*
X40624081Y-19766961D01*
X40603175Y-19844982D01*
X40603176Y-19844983D01*
X40601900Y-19849747D01*
X40601900Y-22635728D01*
X40582993Y-22693919D01*
X40533493Y-22729883D01*
X40472307Y-22729883D01*
X40422810Y-22693923D01*
X40418242Y-22687635D01*
X40262365Y-22531758D01*
X40084022Y-22402185D01*
X40084021Y-22402184D01*
X40084019Y-22402183D01*
X39914075Y-22315592D01*
X39887606Y-22302105D01*
X39887602Y-22302104D01*
X39887599Y-22302102D01*
X39677948Y-22233984D01*
X39460225Y-22199500D01*
X39460222Y-22199500D01*
X39239778Y-22199500D01*
X39239775Y-22199500D01*
X39030946Y-22232575D01*
X38970514Y-22223004D01*
X38945455Y-22204798D01*
X38229496Y-21488839D01*
X38201719Y-21434322D01*
X38200500Y-21418835D01*
X38200500Y-19216312D01*
X38219407Y-19158121D01*
X38219711Y-19157706D01*
X38252793Y-19112882D01*
X38297646Y-18984699D01*
X38300499Y-18954273D01*
X38300500Y-18954273D01*
X38300500Y-17145727D01*
X38300499Y-17145725D01*
X38297646Y-17115305D01*
X38297646Y-17115301D01*
X38252793Y-16987118D01*
X38251014Y-16984707D01*
X38219845Y-16942474D01*
X38200503Y-16884426D01*
X38200500Y-16883686D01*
X38200500Y-15249500D01*
X38219407Y-15191309D01*
X38268907Y-15155345D01*
X38299500Y-15150500D01*
X40204273Y-15150500D01*
X40204276Y-15150500D01*
X40234702Y-15147647D01*
X40362884Y-15102794D01*
X40412943Y-15065848D01*
X40472146Y-15022155D01*
X40472147Y-15022153D01*
X40472151Y-15022151D01*
X40552794Y-14912884D01*
X40597647Y-14784702D01*
X40600500Y-14754276D01*
X40600500Y-9786532D01*
X47339500Y-9786532D01*
X47339500Y-9993467D01*
X47379869Y-10196418D01*
X47459058Y-10387597D01*
X47524500Y-10485538D01*
X47574023Y-10559655D01*
X47720345Y-10705977D01*
X47892402Y-10820941D01*
X48083580Y-10900130D01*
X48286535Y-10940500D01*
X48286536Y-10940500D01*
X48493464Y-10940500D01*
X48493465Y-10940500D01*
X48696420Y-10900130D01*
X48887598Y-10820941D01*
X49059655Y-10705977D01*
X49205977Y-10559655D01*
X49320941Y-10387598D01*
X49400130Y-10196420D01*
X49440500Y-9993465D01*
X49440500Y-9786535D01*
X49400130Y-9583580D01*
X49320941Y-9392402D01*
X49205977Y-9220345D01*
X49059655Y-9074023D01*
X48887598Y-8959059D01*
X48887599Y-8959059D01*
X48887597Y-8959058D01*
X48696418Y-8879869D01*
X48493467Y-8839500D01*
X48493465Y-8839500D01*
X48286535Y-8839500D01*
X48286532Y-8839500D01*
X48083581Y-8879869D01*
X47892402Y-8959058D01*
X47720348Y-9074020D01*
X47574020Y-9220348D01*
X47459058Y-9392402D01*
X47379869Y-9583581D01*
X47339500Y-9786532D01*
X40600500Y-9786532D01*
X40600500Y-9681164D01*
X40619407Y-9622973D01*
X40629490Y-9611166D01*
X43444114Y-6796543D01*
X43520775Y-6681811D01*
X43573580Y-6554329D01*
X43582874Y-6507606D01*
X43600500Y-6418993D01*
X43600500Y-6299500D01*
X43619407Y-6241309D01*
X43668907Y-6205345D01*
X43699500Y-6200500D01*
X43954273Y-6200500D01*
X43954273Y-6200499D01*
X43984699Y-6197646D01*
X44112882Y-6152793D01*
X44222150Y-6072150D01*
X44302793Y-5962882D01*
X44347646Y-5834699D01*
X44350499Y-5804273D01*
X44350500Y-5804273D01*
X44350500Y-4706532D01*
X47339500Y-4706532D01*
X47339500Y-4913467D01*
X47379869Y-5116418D01*
X47459058Y-5307597D01*
X47574020Y-5479651D01*
X47574023Y-5479655D01*
X47720345Y-5625977D01*
X47892402Y-5740941D01*
X48083580Y-5820130D01*
X48286535Y-5860500D01*
X48286536Y-5860500D01*
X48493464Y-5860500D01*
X48493465Y-5860500D01*
X48696420Y-5820130D01*
X48887598Y-5740941D01*
X49059655Y-5625977D01*
X49205977Y-5479655D01*
X49320941Y-5307598D01*
X49400130Y-5116420D01*
X49440500Y-4913465D01*
X49440500Y-4706535D01*
X49400130Y-4503580D01*
X49320941Y-4312402D01*
X49205977Y-4140345D01*
X49059655Y-3994023D01*
X49059651Y-3994020D01*
X48887597Y-3879058D01*
X48696418Y-3799869D01*
X48493467Y-3759500D01*
X48493465Y-3759500D01*
X48286535Y-3759500D01*
X48286532Y-3759500D01*
X48083581Y-3799869D01*
X47892402Y-3879058D01*
X47720348Y-3994020D01*
X47574020Y-4140348D01*
X47459058Y-4312402D01*
X47379869Y-4503581D01*
X47339500Y-4706532D01*
X44350500Y-4706532D01*
X44350500Y-2895727D01*
X44350499Y-2895725D01*
X44347646Y-2865305D01*
X44347646Y-2865301D01*
X44302793Y-2737118D01*
X44284491Y-2712320D01*
X44222154Y-2627855D01*
X44222152Y-2627853D01*
X44222150Y-2627850D01*
X44222146Y-2627847D01*
X44222144Y-2627845D01*
X44112883Y-2547207D01*
X43984703Y-2502355D01*
X43984694Y-2502353D01*
X43954274Y-2499500D01*
X43954266Y-2499500D01*
X41845734Y-2499500D01*
X41845725Y-2499500D01*
X41815305Y-2502353D01*
X41815296Y-2502355D01*
X41687116Y-2547207D01*
X41577855Y-2627845D01*
X41577845Y-2627855D01*
X41497207Y-2737116D01*
X41452355Y-2865296D01*
X41452353Y-2865305D01*
X41449500Y-2895725D01*
X41449500Y-5804274D01*
X41452353Y-5834694D01*
X41452355Y-5834703D01*
X41497207Y-5962883D01*
X41577845Y-6072144D01*
X41577847Y-6072146D01*
X41577850Y-6072150D01*
X41577853Y-6072152D01*
X41577855Y-6072154D01*
X41687116Y-6152792D01*
X41687117Y-6152792D01*
X41687118Y-6152793D01*
X41815301Y-6197646D01*
X41830902Y-6199109D01*
X41887071Y-6223365D01*
X41918257Y-6276006D01*
X41912546Y-6336924D01*
X41891662Y-6367680D01*
X39938839Y-8320504D01*
X39884322Y-8348281D01*
X39868835Y-8349500D01*
X34795724Y-8349500D01*
X34777468Y-8351211D01*
X34765296Y-8352353D01*
X34705597Y-8373243D01*
X34644427Y-8374615D01*
X34594133Y-8339771D01*
X34573925Y-8282019D01*
X34573900Y-8279798D01*
X34573900Y-6907765D01*
X34592807Y-6849574D01*
X34602896Y-6837761D01*
X35211161Y-6229496D01*
X35265678Y-6201719D01*
X35281165Y-6200500D01*
X37154273Y-6200500D01*
X37154273Y-6200499D01*
X37184699Y-6197646D01*
X37312882Y-6152793D01*
X37422150Y-6072150D01*
X37502793Y-5962882D01*
X37547646Y-5834699D01*
X37550499Y-5804273D01*
X37550500Y-5804273D01*
X37550500Y-2895727D01*
X37550499Y-2895725D01*
X37547646Y-2865305D01*
X37547646Y-2865301D01*
X37502793Y-2737118D01*
X37484491Y-2712320D01*
X37422154Y-2627855D01*
X37422152Y-2627853D01*
X37422150Y-2627850D01*
X37422146Y-2627847D01*
X37422144Y-2627845D01*
X37312883Y-2547207D01*
X37184703Y-2502355D01*
X37184694Y-2502353D01*
X37154274Y-2499500D01*
X37154266Y-2499500D01*
X35045734Y-2499500D01*
X35045725Y-2499500D01*
X35015305Y-2502353D01*
X35015296Y-2502355D01*
X34887116Y-2547207D01*
X34777855Y-2627845D01*
X34777845Y-2627855D01*
X34697207Y-2737116D01*
X34652355Y-2865296D01*
X34652353Y-2865305D01*
X34649500Y-2895725D01*
X34649500Y-4768835D01*
X34630593Y-4827026D01*
X34620504Y-4838839D01*
X33329283Y-6130060D01*
X33252623Y-6244791D01*
X33199822Y-6372265D01*
X33199819Y-6372275D01*
X33190527Y-6418992D01*
X33190527Y-6418993D01*
X33172900Y-6507605D01*
X33172900Y-21692396D01*
X33185471Y-21755593D01*
X33199376Y-21825498D01*
X33199820Y-21827727D01*
X33199820Y-21827729D01*
X33252623Y-21955208D01*
X33324389Y-22062615D01*
X33329286Y-22069943D01*
X33878336Y-22618993D01*
X34420504Y-23161161D01*
X34448281Y-23215678D01*
X34449500Y-23231165D01*
X34449500Y-24604265D01*
X34452353Y-24634694D01*
X34452353Y-24634696D01*
X34452354Y-24634698D01*
X34477795Y-24707405D01*
X34479167Y-24768573D01*
X34444323Y-24818867D01*
X34386571Y-24839075D01*
X34384350Y-24839100D01*
X34161934Y-24839100D01*
X34103743Y-24820193D01*
X34091930Y-24810104D01*
X33531326Y-24249500D01*
X32941462Y-23659635D01*
X32941459Y-23659633D01*
X32941457Y-23659631D01*
X32867242Y-23616783D01*
X32867244Y-23616783D01*
X32835121Y-23608176D01*
X32784453Y-23594600D01*
X32784451Y-23594600D01*
X31323720Y-23594600D01*
X31265529Y-23575693D01*
X31229565Y-23526193D01*
X31229565Y-23465007D01*
X31265529Y-23415507D01*
X31268720Y-23413284D01*
X31279649Y-23405981D01*
X31279648Y-23405981D01*
X31279655Y-23405977D01*
X31425977Y-23259655D01*
X31540941Y-23087598D01*
X31620130Y-22896420D01*
X31660500Y-22693465D01*
X31660500Y-22486535D01*
X31620130Y-22283580D01*
X31540941Y-22092402D01*
X31425977Y-21920345D01*
X31279655Y-21774023D01*
X31279651Y-21774020D01*
X31107597Y-21659058D01*
X30916418Y-21579869D01*
X30713467Y-21539500D01*
X30713465Y-21539500D01*
X30506535Y-21539500D01*
X30506532Y-21539500D01*
X30303581Y-21579869D01*
X30112402Y-21659058D01*
X29940348Y-21774020D01*
X29794020Y-21920348D01*
X29679058Y-22092402D01*
X29599869Y-22283581D01*
X29559500Y-22486532D01*
X29559500Y-22693467D01*
X29599869Y-22896418D01*
X29679058Y-23087597D01*
X29785758Y-23247286D01*
X29794023Y-23259655D01*
X29940345Y-23405977D01*
X29940348Y-23405979D01*
X29940350Y-23405981D01*
X29951280Y-23413284D01*
X29989160Y-23461333D01*
X29991563Y-23522471D01*
X29957571Y-23573345D01*
X29900168Y-23594524D01*
X29896280Y-23594600D01*
X29221935Y-23594600D01*
X29163744Y-23575693D01*
X29151932Y-23565604D01*
X29063862Y-23477535D01*
X29063857Y-23477531D01*
X28989642Y-23434683D01*
X28989644Y-23434683D01*
X28941457Y-23421772D01*
X28906853Y-23412500D01*
X27305253Y-23412500D01*
X27219547Y-23412500D01*
X27184943Y-23421772D01*
X27136756Y-23434683D01*
X27109991Y-23450136D01*
X27109992Y-23450137D01*
X27062536Y-23477535D01*
X27001934Y-23538137D01*
X27001935Y-23538138D01*
X25944569Y-24595504D01*
X25890052Y-24623281D01*
X25874565Y-24624500D01*
X25793597Y-24624500D01*
X25735406Y-24605593D01*
X25699442Y-24556093D01*
X25699442Y-24494907D01*
X25707860Y-24476001D01*
X25712645Y-24467711D01*
X25714392Y-24464686D01*
X25748500Y-24337392D01*
X25748500Y-24205608D01*
X25714392Y-24078314D01*
X25714390Y-24078311D01*
X25714390Y-24078309D01*
X25648503Y-23964190D01*
X25648501Y-23964188D01*
X25648500Y-23964186D01*
X25555314Y-23871000D01*
X25555311Y-23870998D01*
X25555309Y-23870996D01*
X25441189Y-23805109D01*
X25441191Y-23805109D01*
X25391799Y-23791875D01*
X25313892Y-23771000D01*
X25313890Y-23771000D01*
X25248835Y-23771000D01*
X25190644Y-23752093D01*
X25178831Y-23742004D01*
X24317327Y-22880500D01*
X23451362Y-22014535D01*
X23451359Y-22014533D01*
X23451358Y-22014532D01*
X23451357Y-22014531D01*
X23377142Y-21971683D01*
X23377144Y-21971683D01*
X23345021Y-21963076D01*
X23294353Y-21949500D01*
X23294351Y-21949500D01*
X21731296Y-21949500D01*
X21673105Y-21930593D01*
X21637141Y-21881093D01*
X21637141Y-21819907D01*
X21640725Y-21810526D01*
X21647585Y-21794991D01*
X21650500Y-21769865D01*
X21650499Y-21480136D01*
X21647585Y-21455009D01*
X21602206Y-21352235D01*
X21602205Y-21352234D01*
X21598500Y-21343843D01*
X21600875Y-21342794D01*
X21587462Y-21297261D01*
X21600526Y-21257051D01*
X21598500Y-21256157D01*
X21602204Y-21247766D01*
X21602206Y-21247765D01*
X21647585Y-21144991D01*
X21650500Y-21119865D01*
X21650499Y-20830136D01*
X21647585Y-20805009D01*
X21640732Y-20789488D01*
X21640732Y-20789487D01*
X21634525Y-20728617D01*
X21665281Y-20675724D01*
X21721254Y-20651011D01*
X21731297Y-20650500D01*
X22903965Y-20650500D01*
X22962156Y-20669407D01*
X22973969Y-20679496D01*
X24475004Y-22180530D01*
X24502781Y-22235047D01*
X24504000Y-22250534D01*
X24504000Y-22315592D01*
X24529787Y-22411831D01*
X24538109Y-22442890D01*
X24603996Y-22557009D01*
X24603998Y-22557011D01*
X24604000Y-22557014D01*
X24697186Y-22650200D01*
X24697188Y-22650201D01*
X24697190Y-22650203D01*
X24811310Y-22716090D01*
X24811308Y-22716090D01*
X24811312Y-22716091D01*
X24811314Y-22716092D01*
X24938608Y-22750200D01*
X24938610Y-22750200D01*
X25070390Y-22750200D01*
X25070392Y-22750200D01*
X25197686Y-22716092D01*
X25197688Y-22716090D01*
X25197690Y-22716090D01*
X25311809Y-22650203D01*
X25311809Y-22650202D01*
X25311814Y-22650200D01*
X25405000Y-22557014D01*
X25414831Y-22539987D01*
X25470890Y-22442890D01*
X25470890Y-22442888D01*
X25470892Y-22442886D01*
X25505000Y-22315592D01*
X25505000Y-22183808D01*
X25470892Y-22056514D01*
X25470890Y-22056511D01*
X25470890Y-22056509D01*
X25405003Y-21942390D01*
X25405001Y-21942388D01*
X25405000Y-21942386D01*
X25311814Y-21849200D01*
X25311811Y-21849198D01*
X25311809Y-21849196D01*
X25197689Y-21783309D01*
X25197691Y-21783309D01*
X25147493Y-21769859D01*
X25070392Y-21749200D01*
X25070390Y-21749200D01*
X25005334Y-21749200D01*
X24947143Y-21730293D01*
X24935330Y-21720204D01*
X24124234Y-20909108D01*
X23354474Y-20139347D01*
X23326698Y-20084832D01*
X23336269Y-20024400D01*
X23379534Y-19981135D01*
X23385122Y-19978559D01*
X23459757Y-19935468D01*
X23459757Y-19935467D01*
X23459762Y-19935465D01*
X24326731Y-19068496D01*
X24381248Y-19040719D01*
X24396735Y-19039500D01*
X31146151Y-19039500D01*
X31146153Y-19039500D01*
X31228939Y-19017318D01*
X31228941Y-19017316D01*
X31228943Y-19017316D01*
X31303157Y-18974468D01*
X31303157Y-18974467D01*
X31303162Y-18974465D01*
X32000859Y-18276766D01*
X32000862Y-18276765D01*
X32061465Y-18216162D01*
X32096018Y-18156314D01*
X32104318Y-18141939D01*
X32126500Y-18059153D01*
X32126500Y-17973447D01*
X32126500Y-5958147D01*
X32104318Y-5875362D01*
X32061465Y-5801138D01*
X32034486Y-5774159D01*
X32000862Y-5740534D01*
X32000862Y-5740535D01*
X31595619Y-5335292D01*
X31567842Y-5280775D01*
X31574159Y-5227402D01*
X31585716Y-5199501D01*
X31620130Y-5116420D01*
X31660500Y-4913465D01*
X31660500Y-4706535D01*
X31620130Y-4503580D01*
X31540941Y-4312402D01*
X31425977Y-4140345D01*
X31279655Y-3994023D01*
X31279651Y-3994020D01*
X31107597Y-3879058D01*
X30916418Y-3799869D01*
X30713467Y-3759500D01*
X30713465Y-3759500D01*
X30506535Y-3759500D01*
X30506532Y-3759500D01*
X30303581Y-3799869D01*
X30112402Y-3879058D01*
X29940348Y-3994020D01*
X29794020Y-4140348D01*
X29679058Y-4312402D01*
X29599869Y-4503581D01*
X29559500Y-4706532D01*
X29559500Y-4913467D01*
X29599869Y-5116418D01*
X29679058Y-5307597D01*
X29794020Y-5479651D01*
X29794023Y-5479655D01*
X29940345Y-5625977D01*
X30112402Y-5740941D01*
X30303580Y-5820130D01*
X30506535Y-5860500D01*
X30506536Y-5860500D01*
X30713464Y-5860500D01*
X30713465Y-5860500D01*
X30916420Y-5820130D01*
X31027402Y-5774158D01*
X31088399Y-5769358D01*
X31135292Y-5795619D01*
X31446504Y-6106831D01*
X31474281Y-6161348D01*
X31475500Y-6176835D01*
X31475500Y-9030860D01*
X31456593Y-9089051D01*
X31407093Y-9125015D01*
X31345907Y-9125015D01*
X31306498Y-9100865D01*
X31279655Y-9074022D01*
X31107597Y-8959058D01*
X30916418Y-8879869D01*
X30713467Y-8839500D01*
X30713465Y-8839500D01*
X30506535Y-8839500D01*
X30506532Y-8839500D01*
X30303581Y-8879869D01*
X30112402Y-8959058D01*
X29940348Y-9074020D01*
X29794020Y-9220348D01*
X29679058Y-9392402D01*
X29599869Y-9583581D01*
X29559500Y-9786532D01*
X29559500Y-9993467D01*
X29599869Y-10196418D01*
X29679058Y-10387597D01*
X29744500Y-10485538D01*
X29794023Y-10559655D01*
X29940345Y-10705977D01*
X30112402Y-10820941D01*
X30303580Y-10900130D01*
X30506535Y-10940500D01*
X30506536Y-10940500D01*
X30713464Y-10940500D01*
X30713465Y-10940500D01*
X30916420Y-10900130D01*
X31107598Y-10820941D01*
X31279655Y-10705977D01*
X31306498Y-10679133D01*
X31361013Y-10651358D01*
X31421445Y-10660929D01*
X31464710Y-10704194D01*
X31475500Y-10749139D01*
X31475500Y-11570860D01*
X31456593Y-11629051D01*
X31407093Y-11665015D01*
X31345907Y-11665015D01*
X31306498Y-11640865D01*
X31279655Y-11614022D01*
X31107597Y-11499058D01*
X30916418Y-11419869D01*
X30713467Y-11379500D01*
X30713465Y-11379500D01*
X30506535Y-11379500D01*
X30506532Y-11379500D01*
X30303581Y-11419869D01*
X30112402Y-11499058D01*
X29940348Y-11614020D01*
X29794020Y-11760348D01*
X29679058Y-11932402D01*
X29599869Y-12123581D01*
X29559500Y-12326532D01*
X29559500Y-12533467D01*
X29599869Y-12736418D01*
X29679058Y-12927597D01*
X29711222Y-12975734D01*
X29794023Y-13099655D01*
X29940345Y-13245977D01*
X30112402Y-13360941D01*
X30303580Y-13440130D01*
X30506535Y-13480500D01*
X30506536Y-13480500D01*
X30713464Y-13480500D01*
X30713465Y-13480500D01*
X30916420Y-13440130D01*
X31107598Y-13360941D01*
X31279655Y-13245977D01*
X31306498Y-13219133D01*
X31361013Y-13191358D01*
X31421445Y-13200929D01*
X31464710Y-13244194D01*
X31475500Y-13289139D01*
X31475500Y-14110860D01*
X31456593Y-14169051D01*
X31407093Y-14205015D01*
X31345907Y-14205015D01*
X31306498Y-14180865D01*
X31279655Y-14154022D01*
X31107597Y-14039058D01*
X30916418Y-13959869D01*
X30713467Y-13919500D01*
X30713465Y-13919500D01*
X30506535Y-13919500D01*
X30506532Y-13919500D01*
X30303581Y-13959869D01*
X30112402Y-14039058D01*
X29940348Y-14154020D01*
X29794020Y-14300348D01*
X29679058Y-14472402D01*
X29633087Y-14583386D01*
X29593350Y-14629912D01*
X29541623Y-14644500D01*
X17141432Y-14644500D01*
X17141416Y-14644499D01*
X17135353Y-14644499D01*
X17049648Y-14644499D01*
X16978439Y-14663579D01*
X16966862Y-14666682D01*
X16927505Y-14689405D01*
X16892635Y-14709537D01*
X16832034Y-14770137D01*
X16832035Y-14770138D01*
X16832033Y-14770140D01*
X14956667Y-16645504D01*
X14902150Y-16673281D01*
X14886663Y-16674500D01*
X14305139Y-16674500D01*
X14305136Y-16674501D01*
X14280009Y-16677414D01*
X14177235Y-16722794D01*
X14097794Y-16802235D01*
X14052414Y-16905011D01*
X14049500Y-16930130D01*
X14049500Y-17219859D01*
X14049501Y-17219864D01*
X14052414Y-17244990D01*
X14076437Y-17299397D01*
X14097046Y-17346071D01*
X14101500Y-17356157D01*
X14099126Y-17357205D01*
X14112537Y-17402757D01*
X14099477Y-17442949D01*
X14101500Y-17443843D01*
X14097794Y-17452234D01*
X14097794Y-17452235D01*
X14091422Y-17466667D01*
X14052414Y-17555011D01*
X14049500Y-17580130D01*
X14049500Y-17869859D01*
X14049501Y-17869864D01*
X14052414Y-17894990D01*
X14101500Y-18006157D01*
X14099126Y-18007205D01*
X14112537Y-18052757D01*
X14099477Y-18092949D01*
X14101500Y-18093843D01*
X14097794Y-18102234D01*
X14097794Y-18102235D01*
X14073918Y-18156309D01*
X14052414Y-18205011D01*
X14049500Y-18230130D01*
X14049500Y-18519859D01*
X14049501Y-18519864D01*
X14052414Y-18544990D01*
X14052415Y-18544992D01*
X14059268Y-18560513D01*
X14065475Y-18621383D01*
X14034719Y-18674276D01*
X13978746Y-18698989D01*
X13968703Y-18699500D01*
X3211933Y-18699500D01*
X3153742Y-18680593D01*
X3141929Y-18670503D01*
X2943796Y-18472369D01*
X2916019Y-18417853D01*
X2914800Y-18402366D01*
X2914800Y-16293948D01*
X2908706Y-16271204D01*
X2892618Y-16211162D01*
X2849765Y-16136938D01*
X2831827Y-16119000D01*
X2789162Y-16076334D01*
X2789162Y-16076335D01*
X2482115Y-15769288D01*
X2454338Y-15714771D01*
X2453552Y-15690038D01*
X2455500Y-15669272D01*
X2455500Y-14885727D01*
X2455499Y-14885725D01*
X2453552Y-14864958D01*
X2466942Y-14805256D01*
X2482112Y-14785713D01*
X2879165Y-14388662D01*
X2922017Y-14314439D01*
X2922018Y-14314438D01*
X2944200Y-14231653D01*
X2944200Y-11963347D01*
X2922018Y-11880562D01*
X2879165Y-11806338D01*
X2873326Y-11800499D01*
X2818562Y-11745734D01*
X2818562Y-11745735D01*
X2482115Y-11409288D01*
X2454338Y-11354771D01*
X2453552Y-11330038D01*
X2455500Y-11309272D01*
X2455500Y-10525727D01*
X2455499Y-10525725D01*
X2452646Y-10495305D01*
X2452646Y-10495301D01*
X2407793Y-10367118D01*
X2393098Y-10347207D01*
X2327154Y-10257855D01*
X2327151Y-10257852D01*
X2327150Y-10257850D01*
X2327146Y-10257847D01*
X2327144Y-10257845D01*
X2217883Y-10177207D01*
X2089703Y-10132355D01*
X2089694Y-10132353D01*
X2059274Y-10129500D01*
X2059266Y-10129500D01*
X1000734Y-10129500D01*
X1000725Y-10129500D01*
X970305Y-10132353D01*
X970296Y-10132355D01*
X842116Y-10177207D01*
X732855Y-10257845D01*
X732848Y-10257852D01*
X679155Y-10330604D01*
X629387Y-10366196D01*
X568204Y-10365738D01*
X518974Y-10329405D01*
X500500Y-10271815D01*
X500500Y-3878710D01*
X2149500Y-3878710D01*
X2149500Y-4121289D01*
X2181161Y-4361781D01*
X2181161Y-4361786D01*
X2194078Y-4409992D01*
X2241210Y-4585891D01*
X2243944Y-4596092D01*
X2243948Y-4596105D01*
X2336772Y-4820204D01*
X2336774Y-4820208D01*
X2336776Y-4820212D01*
X2458064Y-5030289D01*
X2458066Y-5030292D01*
X2605729Y-5222731D01*
X2605731Y-5222733D01*
X2605735Y-5222738D01*
X2777262Y-5394265D01*
X2777266Y-5394268D01*
X2777268Y-5394270D01*
X2907087Y-5493883D01*
X2969711Y-5541936D01*
X3179788Y-5663224D01*
X3403900Y-5756054D01*
X3638211Y-5818838D01*
X3878712Y-5850500D01*
X3878713Y-5850500D01*
X4121287Y-5850500D01*
X4121288Y-5850500D01*
X4361789Y-5818838D01*
X4596100Y-5756054D01*
X4820212Y-5663224D01*
X5030289Y-5541936D01*
X5222738Y-5394265D01*
X5394265Y-5222738D01*
X5541936Y-5030289D01*
X5663224Y-4820212D01*
X5756054Y-4596100D01*
X5818838Y-4361789D01*
X5829841Y-4278208D01*
X9522900Y-4278208D01*
X9522900Y-4409992D01*
X9539289Y-4471157D01*
X9557009Y-4537290D01*
X9622896Y-4651409D01*
X9622898Y-4651411D01*
X9622900Y-4651414D01*
X9716086Y-4744600D01*
X9716088Y-4744601D01*
X9716090Y-4744603D01*
X9830210Y-4810490D01*
X9830208Y-4810490D01*
X9830212Y-4810491D01*
X9830214Y-4810492D01*
X9957508Y-4844600D01*
X9957510Y-4844600D01*
X10089290Y-4844600D01*
X10089292Y-4844600D01*
X10216586Y-4810492D01*
X10216588Y-4810490D01*
X10216590Y-4810490D01*
X10330709Y-4744603D01*
X10330709Y-4744602D01*
X10330714Y-4744600D01*
X10423900Y-4651414D01*
X10461730Y-4585891D01*
X10489790Y-4537290D01*
X10489790Y-4537288D01*
X10489792Y-4537286D01*
X10523900Y-4409992D01*
X10523900Y-4344935D01*
X10542807Y-4286744D01*
X10552896Y-4274931D01*
X10896631Y-3931196D01*
X10951148Y-3903419D01*
X10966635Y-3902200D01*
X18982851Y-3902200D01*
X18982853Y-3902200D01*
X19065638Y-3880018D01*
X19139862Y-3837165D01*
X19200465Y-3776562D01*
X19243318Y-3702338D01*
X19265500Y-3619553D01*
X19265500Y-3549500D01*
X19284407Y-3491309D01*
X19333907Y-3455345D01*
X19364500Y-3450500D01*
X19909747Y-3450500D01*
X19909748Y-3450500D01*
X19968231Y-3438867D01*
X20034552Y-3394552D01*
X20078867Y-3328231D01*
X20090500Y-3269748D01*
X20090500Y-2230252D01*
X20078867Y-2171769D01*
X20034552Y-2105448D01*
X19999658Y-2082132D01*
X19968233Y-2061134D01*
X19968231Y-2061133D01*
X19968228Y-2061132D01*
X19968227Y-2061132D01*
X19909758Y-2049501D01*
X19909748Y-2049500D01*
X17970252Y-2049500D01*
X17970251Y-2049500D01*
X17970241Y-2049501D01*
X17911772Y-2061132D01*
X17911766Y-2061134D01*
X17845451Y-2105445D01*
X17845445Y-2105451D01*
X17801134Y-2171766D01*
X17801132Y-2171772D01*
X17789501Y-2230241D01*
X17789500Y-2230253D01*
X17789500Y-3152200D01*
X17770593Y-3210391D01*
X17721093Y-3246355D01*
X17690500Y-3251200D01*
X10747947Y-3251200D01*
X10706554Y-3262291D01*
X10665160Y-3273382D01*
X10649889Y-3282200D01*
X10649888Y-3282199D01*
X10590940Y-3316233D01*
X10092569Y-3814604D01*
X10038052Y-3842381D01*
X10022565Y-3843600D01*
X9957508Y-3843600D01*
X9879600Y-3864475D01*
X9830209Y-3877709D01*
X9716090Y-3943596D01*
X9622896Y-4036790D01*
X9557009Y-4150909D01*
X9557008Y-4150914D01*
X9522900Y-4278208D01*
X5829841Y-4278208D01*
X5850500Y-4121288D01*
X5850500Y-3878712D01*
X5818838Y-3638211D01*
X5756054Y-3403900D01*
X5667046Y-3189014D01*
X5663227Y-3179795D01*
X5663226Y-3179794D01*
X5663224Y-3179788D01*
X5541936Y-2969711D01*
X5423843Y-2815809D01*
X5394270Y-2777268D01*
X5394268Y-2777266D01*
X5394265Y-2777262D01*
X5222738Y-2605735D01*
X5222733Y-2605731D01*
X5222731Y-2605729D01*
X5030292Y-2458066D01*
X5029305Y-2457496D01*
X4820212Y-2336776D01*
X4820208Y-2336774D01*
X4820204Y-2336772D01*
X4596105Y-2243948D01*
X4596104Y-2243947D01*
X4596100Y-2243946D01*
X4361789Y-2181162D01*
X4361786Y-2181161D01*
X4361784Y-2181161D01*
X4121289Y-2149500D01*
X4121288Y-2149500D01*
X3878712Y-2149500D01*
X3878710Y-2149500D01*
X3638218Y-2181161D01*
X3638213Y-2181161D01*
X3403907Y-2243944D01*
X3403894Y-2243948D01*
X3179795Y-2336772D01*
X2969707Y-2458066D01*
X2777268Y-2605729D01*
X2605729Y-2777268D01*
X2458066Y-2969707D01*
X2336772Y-3179795D01*
X2243948Y-3403894D01*
X2243944Y-3403907D01*
X2181161Y-3638213D01*
X2181161Y-3638218D01*
X2149500Y-3878710D01*
X500500Y-3878710D01*
X500500Y-3002984D01*
X500681Y-2997007D01*
X508647Y-2865305D01*
X518362Y-2704687D01*
X519801Y-2692836D01*
X572052Y-2407714D01*
X574906Y-2396131D01*
X661152Y-2119355D01*
X665374Y-2108224D01*
X784349Y-1843873D01*
X789898Y-1833302D01*
X939860Y-1585233D01*
X946631Y-1575423D01*
X1083868Y-1400253D01*
X29559500Y-1400253D01*
X29559500Y-3139746D01*
X29559501Y-3139758D01*
X29571132Y-3198227D01*
X29571134Y-3198233D01*
X29579258Y-3210391D01*
X29615448Y-3264552D01*
X29681769Y-3308867D01*
X29726231Y-3317711D01*
X29740241Y-3320498D01*
X29740246Y-3320498D01*
X29740252Y-3320500D01*
X29740253Y-3320500D01*
X31479747Y-3320500D01*
X31479748Y-3320500D01*
X31538231Y-3308867D01*
X31604552Y-3264552D01*
X31648867Y-3198231D01*
X31660500Y-3139748D01*
X31660500Y-2166532D01*
X47339500Y-2166532D01*
X47339500Y-2373467D01*
X47379869Y-2576418D01*
X47459058Y-2767597D01*
X47574020Y-2939651D01*
X47574023Y-2939655D01*
X47720345Y-3085977D01*
X47892402Y-3200941D01*
X48083580Y-3280130D01*
X48286535Y-3320500D01*
X48286536Y-3320500D01*
X48493464Y-3320500D01*
X48493465Y-3320500D01*
X48696420Y-3280130D01*
X48887598Y-3200941D01*
X49059655Y-3085977D01*
X49205977Y-2939655D01*
X49320941Y-2767598D01*
X49400130Y-2576420D01*
X49440500Y-2373465D01*
X49440500Y-2166535D01*
X49400130Y-1963580D01*
X49320941Y-1772402D01*
X49205977Y-1600345D01*
X49059655Y-1454023D01*
X48979182Y-1400253D01*
X48887597Y-1339058D01*
X48696418Y-1259869D01*
X48493467Y-1219500D01*
X48493465Y-1219500D01*
X48286535Y-1219500D01*
X48286532Y-1219500D01*
X48083581Y-1259869D01*
X47892402Y-1339058D01*
X47720348Y-1454020D01*
X47574020Y-1600348D01*
X47459058Y-1772402D01*
X47379869Y-1963581D01*
X47339500Y-2166532D01*
X31660500Y-2166532D01*
X31660500Y-1400252D01*
X31648867Y-1341769D01*
X31604552Y-1275448D01*
X31604548Y-1275445D01*
X31538233Y-1231134D01*
X31538231Y-1231133D01*
X31538228Y-1231132D01*
X31538227Y-1231132D01*
X31479758Y-1219501D01*
X31479748Y-1219500D01*
X29740252Y-1219500D01*
X29740251Y-1219500D01*
X29740241Y-1219501D01*
X29681772Y-1231132D01*
X29681766Y-1231134D01*
X29615451Y-1275445D01*
X29615445Y-1275451D01*
X29571134Y-1341766D01*
X29571132Y-1341772D01*
X29559501Y-1400241D01*
X29559500Y-1400253D01*
X1083868Y-1400253D01*
X1125406Y-1347234D01*
X1133318Y-1338302D01*
X1338302Y-1133318D01*
X1347234Y-1125406D01*
X1575423Y-946631D01*
X1585233Y-939860D01*
X1833302Y-789898D01*
X1843873Y-784349D01*
X2108224Y-665374D01*
X2119355Y-661152D01*
X2396131Y-574906D01*
X2407714Y-572052D01*
X2692836Y-519801D01*
X2704687Y-518362D01*
X2997008Y-500681D01*
X3002985Y-500500D01*
X3065892Y-500500D01*
X51657293Y-500500D01*
X51715484Y-519407D01*
G37*
%TD.AperFunction*%
%TA.AperFunction,Conductor*%
G36*
X16734869Y-21969407D02*
G01*
X16746681Y-21979496D01*
X16792684Y-22025499D01*
X16792690Y-22025503D01*
X16906810Y-22091390D01*
X16906808Y-22091390D01*
X16906812Y-22091391D01*
X16906814Y-22091392D01*
X17034108Y-22125500D01*
X17034110Y-22125500D01*
X17165890Y-22125500D01*
X17165892Y-22125500D01*
X17293186Y-22091392D01*
X17293187Y-22091391D01*
X17299454Y-22089712D01*
X17300263Y-22092731D01*
X17348458Y-22088862D01*
X17400678Y-22120748D01*
X17424182Y-22177239D01*
X17424500Y-22185163D01*
X17424500Y-23612427D01*
X17405593Y-23670618D01*
X17375002Y-23698162D01*
X17372690Y-23699496D01*
X17279496Y-23792690D01*
X17213609Y-23906809D01*
X17213608Y-23906814D01*
X17179500Y-24034108D01*
X17179500Y-24165892D01*
X17203242Y-24254500D01*
X17213609Y-24293190D01*
X17279496Y-24407309D01*
X17279498Y-24407311D01*
X17279500Y-24407314D01*
X17325505Y-24453319D01*
X17353281Y-24507834D01*
X17354500Y-24523321D01*
X17354500Y-24575500D01*
X17335593Y-24633691D01*
X17286093Y-24669655D01*
X17255500Y-24674500D01*
X17119058Y-24674500D01*
X17119057Y-24674500D01*
X17119047Y-24674501D01*
X17049640Y-24688308D01*
X17049634Y-24688310D01*
X16970912Y-24740909D01*
X16970909Y-24740912D01*
X16918310Y-24819634D01*
X16918308Y-24819640D01*
X16904501Y-24889047D01*
X16904500Y-24889059D01*
X16904500Y-25110940D01*
X16904501Y-25110952D01*
X16918308Y-25180359D01*
X16918311Y-25180368D01*
X16928088Y-25195000D01*
X16944696Y-25253888D01*
X16928088Y-25305000D01*
X16918311Y-25319631D01*
X16918308Y-25319640D01*
X16904501Y-25389047D01*
X16904500Y-25389059D01*
X16904500Y-25610940D01*
X16904501Y-25610952D01*
X16918308Y-25680359D01*
X16918311Y-25680368D01*
X16928088Y-25695000D01*
X16944696Y-25753888D01*
X16928088Y-25805000D01*
X16918311Y-25819631D01*
X16918308Y-25819640D01*
X16904501Y-25889047D01*
X16904500Y-25889059D01*
X16904500Y-26110940D01*
X16904501Y-26110952D01*
X16918308Y-26180359D01*
X16918311Y-26180368D01*
X16928088Y-26195000D01*
X16944696Y-26253888D01*
X16928088Y-26305000D01*
X16918311Y-26319631D01*
X16918308Y-26319640D01*
X16904501Y-26389047D01*
X16904500Y-26389059D01*
X16904500Y-26610940D01*
X16904501Y-26610952D01*
X16918308Y-26680359D01*
X16918310Y-26680365D01*
X16970909Y-26759087D01*
X16970912Y-26759090D01*
X17049634Y-26811689D01*
X17049637Y-26811691D01*
X17102413Y-26822189D01*
X17119047Y-26825498D01*
X17119052Y-26825498D01*
X17119058Y-26825500D01*
X17255500Y-26825500D01*
X17313691Y-26844407D01*
X17349655Y-26893907D01*
X17354500Y-26924500D01*
X17354500Y-27242853D01*
X17376682Y-27325638D01*
X17419535Y-27399862D01*
X17480138Y-27460465D01*
X17554362Y-27503318D01*
X17637147Y-27525500D01*
X17637149Y-27525500D01*
X18722852Y-27525500D01*
X18722853Y-27525500D01*
X18724875Y-27524958D01*
X18726372Y-27525036D01*
X18729285Y-27524653D01*
X18729356Y-27525192D01*
X18785977Y-27528159D01*
X18833527Y-27566663D01*
X18849500Y-27620584D01*
X18849500Y-27665892D01*
X18880272Y-27780734D01*
X18884088Y-27794977D01*
X18880885Y-27856079D01*
X18842380Y-27903629D01*
X18788461Y-27919600D01*
X15591835Y-27919600D01*
X15533644Y-27900693D01*
X15521831Y-27890604D01*
X15134544Y-27503317D01*
X14714862Y-27083635D01*
X14714859Y-27083633D01*
X14714858Y-27083632D01*
X14714857Y-27083631D01*
X14640642Y-27040783D01*
X14640644Y-27040783D01*
X14608521Y-27032176D01*
X14557853Y-27018600D01*
X14557851Y-27018600D01*
X14334134Y-27018600D01*
X14275943Y-26999693D01*
X14264130Y-26989604D01*
X13744031Y-26469504D01*
X13716254Y-26414987D01*
X13725825Y-26354555D01*
X13769090Y-26311290D01*
X13814035Y-26300500D01*
X14202927Y-26300500D01*
X14240810Y-26308035D01*
X14249635Y-26311689D01*
X14249637Y-26311691D01*
X14285313Y-26318787D01*
X14319047Y-26325498D01*
X14319052Y-26325498D01*
X14319058Y-26325500D01*
X14319059Y-26325500D01*
X15440941Y-26325500D01*
X15440942Y-26325500D01*
X15510363Y-26311691D01*
X15589089Y-26259089D01*
X15641691Y-26180363D01*
X15655500Y-26110942D01*
X15655500Y-25889058D01*
X15641691Y-25819637D01*
X15637178Y-25812883D01*
X15631913Y-25805003D01*
X15615303Y-25746115D01*
X15631913Y-25694997D01*
X15638791Y-25684703D01*
X15641691Y-25680363D01*
X15655500Y-25610942D01*
X15655500Y-25389058D01*
X15641691Y-25319637D01*
X15631913Y-25305003D01*
X15615303Y-25246115D01*
X15631913Y-25194997D01*
X15633570Y-25192516D01*
X15641691Y-25180363D01*
X15655500Y-25110942D01*
X15655500Y-24889058D01*
X15641691Y-24819637D01*
X15610050Y-24772282D01*
X15589090Y-24740912D01*
X15589087Y-24740909D01*
X15510365Y-24688310D01*
X15510363Y-24688309D01*
X15510360Y-24688308D01*
X15510359Y-24688308D01*
X15440952Y-24674501D01*
X15440942Y-24674500D01*
X15440941Y-24674500D01*
X15304500Y-24674500D01*
X15246309Y-24655593D01*
X15210345Y-24606093D01*
X15205500Y-24575500D01*
X15205500Y-24073321D01*
X15224407Y-24015130D01*
X15234490Y-24003323D01*
X15280500Y-23957314D01*
X15284434Y-23950500D01*
X15346390Y-23843190D01*
X15346390Y-23843188D01*
X15346392Y-23843186D01*
X15380500Y-23715892D01*
X15380500Y-23584108D01*
X15346392Y-23456814D01*
X15346391Y-23456812D01*
X15344712Y-23450546D01*
X15347716Y-23449740D01*
X15343881Y-23401460D01*
X15375811Y-23349267D01*
X15432321Y-23325810D01*
X15440163Y-23325499D01*
X15669861Y-23325499D01*
X15669864Y-23325499D01*
X15694991Y-23322585D01*
X15797765Y-23277206D01*
X15877206Y-23197765D01*
X15922585Y-23094991D01*
X15925500Y-23069865D01*
X15925499Y-22780136D01*
X15922585Y-22755009D01*
X15877206Y-22652235D01*
X15877205Y-22652234D01*
X15873500Y-22643843D01*
X15875875Y-22642794D01*
X15862462Y-22597261D01*
X15875526Y-22557051D01*
X15873500Y-22556157D01*
X15877204Y-22547766D01*
X15877206Y-22547765D01*
X15922585Y-22444991D01*
X15925500Y-22419865D01*
X15925499Y-22130136D01*
X15922585Y-22105009D01*
X15917164Y-22092731D01*
X15915732Y-22089487D01*
X15909525Y-22028617D01*
X15940281Y-21975724D01*
X15996254Y-21951011D01*
X16006297Y-21950500D01*
X16676678Y-21950500D01*
X16734869Y-21969407D01*
G37*
%TD.AperFunction*%
%TA.AperFunction,Conductor*%
G36*
X28096122Y-24082407D02*
G01*
X28132086Y-24131907D01*
X28133557Y-24188121D01*
X28104329Y-24297207D01*
X28103900Y-24298809D01*
X28103900Y-24363865D01*
X28084993Y-24422056D01*
X28074904Y-24433869D01*
X26613269Y-25895504D01*
X26558752Y-25923281D01*
X26543265Y-25924500D01*
X22507376Y-25924500D01*
X22467390Y-25916065D01*
X22379580Y-25877293D01*
X22379577Y-25877292D01*
X22379576Y-25877292D01*
X22355508Y-25874500D01*
X21419499Y-25874500D01*
X21419496Y-25874501D01*
X21395418Y-25877293D01*
X21296922Y-25920784D01*
X21296921Y-25920785D01*
X21220785Y-25996921D01*
X21177851Y-26094158D01*
X21177292Y-26095423D01*
X21174500Y-26119488D01*
X21174500Y-26380500D01*
X21174501Y-26380503D01*
X21177293Y-26404581D01*
X21220784Y-26503077D01*
X21220785Y-26503079D01*
X21296921Y-26579215D01*
X21395420Y-26622707D01*
X21419495Y-26625500D01*
X22355504Y-26625499D01*
X22379580Y-26622707D01*
X22467387Y-26583935D01*
X22507376Y-26575500D01*
X22825166Y-26575500D01*
X22883357Y-26594407D01*
X22919321Y-26643907D01*
X22919321Y-26705093D01*
X22895170Y-26744503D01*
X22315266Y-27324407D01*
X21749069Y-27890604D01*
X21694552Y-27918381D01*
X21679065Y-27919600D01*
X19911539Y-27919600D01*
X19853348Y-27900693D01*
X19817384Y-27851193D01*
X19815912Y-27794977D01*
X19819728Y-27780734D01*
X19850500Y-27665892D01*
X19850500Y-27534108D01*
X19816392Y-27406814D01*
X19816390Y-27406811D01*
X19816390Y-27406809D01*
X19750503Y-27292690D01*
X19750499Y-27292684D01*
X19704496Y-27246681D01*
X19676719Y-27192164D01*
X19675500Y-27176678D01*
X19675500Y-26074499D01*
X19694407Y-26016308D01*
X19743907Y-25980344D01*
X19774493Y-25975499D01*
X20680504Y-25975499D01*
X20704580Y-25972707D01*
X20803079Y-25929215D01*
X20879215Y-25853079D01*
X20922707Y-25754580D01*
X20925500Y-25730505D01*
X20925499Y-25469496D01*
X20922707Y-25445420D01*
X20879215Y-25346921D01*
X20877295Y-25345001D01*
X20875541Y-25341558D01*
X20874030Y-25339352D01*
X20874317Y-25339155D01*
X20849520Y-25290487D01*
X20859091Y-25230055D01*
X20877294Y-25204999D01*
X20879215Y-25203079D01*
X20922707Y-25104580D01*
X20925500Y-25080505D01*
X20925499Y-24819496D01*
X20922707Y-24795420D01*
X20922706Y-24795419D01*
X20921849Y-24788022D01*
X20924706Y-24787690D01*
X20927058Y-24739367D01*
X20965385Y-24691673D01*
X21019614Y-24675500D01*
X21041751Y-24675500D01*
X21041753Y-24675500D01*
X21056778Y-24671474D01*
X21117877Y-24674676D01*
X21165427Y-24713181D01*
X21181263Y-24772282D01*
X21177927Y-24793089D01*
X21177292Y-24795420D01*
X21174500Y-24819488D01*
X21174500Y-25080500D01*
X21174501Y-25080503D01*
X21177293Y-25104581D01*
X21210757Y-25180368D01*
X21220785Y-25203079D01*
X21296921Y-25279215D01*
X21395420Y-25322707D01*
X21419495Y-25325500D01*
X22355504Y-25325499D01*
X22379580Y-25322707D01*
X22446094Y-25293337D01*
X22506961Y-25287129D01*
X22556082Y-25313896D01*
X22592686Y-25350500D01*
X22592688Y-25350501D01*
X22592690Y-25350503D01*
X22706810Y-25416390D01*
X22706808Y-25416390D01*
X22706812Y-25416391D01*
X22706814Y-25416392D01*
X22834108Y-25450500D01*
X22834110Y-25450500D01*
X22965890Y-25450500D01*
X22965892Y-25450500D01*
X23093186Y-25416392D01*
X23093188Y-25416390D01*
X23093190Y-25416390D01*
X23207309Y-25350503D01*
X23207310Y-25350502D01*
X23207314Y-25350500D01*
X23220508Y-25337306D01*
X23253319Y-25304496D01*
X23307836Y-25276719D01*
X23323322Y-25275500D01*
X26093251Y-25275500D01*
X26093253Y-25275500D01*
X26176039Y-25253318D01*
X26176041Y-25253316D01*
X26176043Y-25253316D01*
X26250257Y-25210468D01*
X26250257Y-25210467D01*
X26250262Y-25210465D01*
X27368230Y-24092495D01*
X27422747Y-24064719D01*
X27438234Y-24063500D01*
X28037931Y-24063500D01*
X28096122Y-24082407D01*
G37*
%TD.AperFunction*%
%TA.AperFunction,Conductor*%
G36*
X2634246Y-19090325D02*
G01*
X2659303Y-19108529D01*
X2775633Y-19224859D01*
X2775635Y-19224862D01*
X2836238Y-19285465D01*
X2866251Y-19302793D01*
X2900895Y-19322795D01*
X2900894Y-19322795D01*
X2910458Y-19328316D01*
X2910460Y-19328316D01*
X2910462Y-19328318D01*
X2910463Y-19328318D01*
X2910465Y-19328319D01*
X2918952Y-19330593D01*
X2993244Y-19350500D01*
X2993246Y-19350501D01*
X2993247Y-19350501D01*
X3085016Y-19350501D01*
X3085032Y-19350500D01*
X14109522Y-19350500D01*
X14167713Y-19369407D01*
X14175262Y-19375854D01*
X14177233Y-19377204D01*
X14177235Y-19377206D01*
X14280009Y-19422585D01*
X14305135Y-19425500D01*
X15646164Y-19425499D01*
X15704355Y-19444406D01*
X15716168Y-19454495D01*
X16543821Y-20282148D01*
X16567170Y-20305496D01*
X16594947Y-20360013D01*
X16585376Y-20420445D01*
X16542111Y-20463710D01*
X16497166Y-20474500D01*
X16434108Y-20474500D01*
X16357645Y-20494988D01*
X16306809Y-20508609D01*
X16192690Y-20574496D01*
X16192684Y-20574500D01*
X16146681Y-20620504D01*
X16092164Y-20648281D01*
X16076678Y-20649500D01*
X16006296Y-20649500D01*
X15948105Y-20630593D01*
X15912141Y-20581093D01*
X15912141Y-20519907D01*
X15915731Y-20510513D01*
X15922585Y-20494991D01*
X15925500Y-20469865D01*
X15925499Y-20180136D01*
X15922585Y-20155009D01*
X15877206Y-20052235D01*
X15797765Y-19972794D01*
X15694991Y-19927415D01*
X15694990Y-19927414D01*
X15694988Y-19927414D01*
X15669868Y-19924500D01*
X14305139Y-19924500D01*
X14305136Y-19924501D01*
X14280009Y-19927414D01*
X14177233Y-19972795D01*
X14169666Y-19977979D01*
X14168421Y-19976161D01*
X14125009Y-19998281D01*
X14109522Y-19999500D01*
X13542853Y-19999500D01*
X13457147Y-19999500D01*
X13374362Y-20021682D01*
X13300138Y-20064535D01*
X13239535Y-20125138D01*
X13196682Y-20199362D01*
X13177181Y-20272144D01*
X13174500Y-20282148D01*
X13174500Y-25660965D01*
X13155593Y-25719156D01*
X13106093Y-25755120D01*
X13044907Y-25755120D01*
X13005496Y-25730969D01*
X12888796Y-25614269D01*
X12861019Y-25559752D01*
X12859800Y-25544265D01*
X12859800Y-24140440D01*
X12859801Y-24140427D01*
X12859801Y-24046747D01*
X12859800Y-24046745D01*
X12853839Y-24024500D01*
X12837618Y-23963962D01*
X12833777Y-23957310D01*
X12822550Y-23937864D01*
X12822548Y-23937861D01*
X12816825Y-23927948D01*
X12794765Y-23889738D01*
X12734162Y-23829135D01*
X12734159Y-23829133D01*
X8694462Y-19789435D01*
X8694459Y-19789433D01*
X8694457Y-19789431D01*
X8620242Y-19746583D01*
X8620244Y-19746583D01*
X8588121Y-19737976D01*
X8537453Y-19724400D01*
X5822553Y-19724400D01*
X5736847Y-19724400D01*
X5686178Y-19737976D01*
X5654056Y-19746583D01*
X5579842Y-19789431D01*
X4352031Y-21017242D01*
X4347550Y-21025004D01*
X4302078Y-21065943D01*
X4261817Y-21074500D01*
X4144500Y-21074500D01*
X4144495Y-21074501D01*
X4120418Y-21077293D01*
X4021922Y-21120784D01*
X4021921Y-21120785D01*
X3945785Y-21196921D01*
X3903700Y-21292235D01*
X3902292Y-21295423D01*
X3899500Y-21319488D01*
X3899500Y-21580500D01*
X3899501Y-21580503D01*
X3902293Y-21604581D01*
X3932480Y-21672947D01*
X3945785Y-21703079D01*
X4021921Y-21779215D01*
X4120420Y-21822707D01*
X4144495Y-21825500D01*
X5080504Y-21825499D01*
X5104580Y-21822707D01*
X5203079Y-21779215D01*
X5279215Y-21703079D01*
X5322707Y-21604580D01*
X5325500Y-21580505D01*
X5325499Y-21319496D01*
X5322707Y-21295420D01*
X5279215Y-21196921D01*
X5256111Y-21173817D01*
X5228336Y-21119303D01*
X5237907Y-21058871D01*
X5256110Y-21033815D01*
X5425698Y-20864227D01*
X5480213Y-20836452D01*
X5540645Y-20846023D01*
X5581436Y-20884732D01*
X5638698Y-20983911D01*
X5638700Y-20983914D01*
X5666244Y-21011458D01*
X5694020Y-21065973D01*
X5684449Y-21126405D01*
X5666245Y-21151460D01*
X5620785Y-21196921D01*
X5578700Y-21292235D01*
X5577292Y-21295423D01*
X5574500Y-21319488D01*
X5574500Y-21580500D01*
X5574501Y-21580503D01*
X5577293Y-21604581D01*
X5620784Y-21703078D01*
X5620787Y-21703081D01*
X5622706Y-21705001D01*
X5624459Y-21708442D01*
X5625970Y-21710648D01*
X5625682Y-21710844D01*
X5650480Y-21759519D01*
X5640905Y-21819950D01*
X5622706Y-21844999D01*
X5620786Y-21846919D01*
X5620785Y-21846920D01*
X5620785Y-21846921D01*
X5588364Y-21920348D01*
X5577292Y-21945423D01*
X5574500Y-21969488D01*
X5574500Y-22230500D01*
X5574501Y-22230503D01*
X5577293Y-22254581D01*
X5620784Y-22353078D01*
X5620787Y-22353081D01*
X5622706Y-22355001D01*
X5624459Y-22358442D01*
X5625970Y-22360648D01*
X5625682Y-22360844D01*
X5650480Y-22409519D01*
X5640905Y-22469950D01*
X5622706Y-22494999D01*
X5620786Y-22496919D01*
X5620785Y-22496920D01*
X5620785Y-22496921D01*
X5577698Y-22594504D01*
X5577292Y-22595423D01*
X5574500Y-22619488D01*
X5574500Y-22880500D01*
X5574501Y-22880503D01*
X5577293Y-22904581D01*
X5614219Y-22988208D01*
X5620785Y-23003079D01*
X5696921Y-23079215D01*
X5795420Y-23122707D01*
X5819495Y-23125500D01*
X6161664Y-23125499D01*
X6219855Y-23144406D01*
X6231667Y-23154495D01*
X6301037Y-23223864D01*
X6301042Y-23223868D01*
X6375257Y-23266716D01*
X6375255Y-23266716D01*
X6375259Y-23266717D01*
X6375261Y-23266718D01*
X6458047Y-23288900D01*
X7315478Y-23288900D01*
X7373669Y-23307807D01*
X7385481Y-23317896D01*
X7431484Y-23363899D01*
X7431490Y-23363903D01*
X7545610Y-23429790D01*
X7545608Y-23429790D01*
X7545612Y-23429791D01*
X7545614Y-23429792D01*
X7672908Y-23463900D01*
X7672910Y-23463900D01*
X7804690Y-23463900D01*
X7804692Y-23463900D01*
X7931986Y-23429792D01*
X7931988Y-23429790D01*
X7931990Y-23429790D01*
X8046109Y-23363903D01*
X8046109Y-23363902D01*
X8046114Y-23363900D01*
X8139300Y-23270714D01*
X8145687Y-23259651D01*
X8205190Y-23156590D01*
X8205190Y-23156588D01*
X8205192Y-23156586D01*
X8239300Y-23029292D01*
X8239300Y-22897508D01*
X8205192Y-22770214D01*
X8205190Y-22770211D01*
X8205190Y-22770209D01*
X8139303Y-22656090D01*
X8139301Y-22656088D01*
X8139300Y-22656086D01*
X8077715Y-22594501D01*
X8049940Y-22539987D01*
X8059511Y-22479555D01*
X8102776Y-22436290D01*
X8147721Y-22425500D01*
X8825500Y-22425500D01*
X8883691Y-22444407D01*
X8919655Y-22493907D01*
X8924500Y-22524500D01*
X8924500Y-24151962D01*
X8905593Y-24210153D01*
X8856093Y-24246117D01*
X8834748Y-24250529D01*
X8815304Y-24252353D01*
X8815296Y-24252355D01*
X8687116Y-24297207D01*
X8577855Y-24377845D01*
X8577845Y-24377855D01*
X8497207Y-24487116D01*
X8452355Y-24615296D01*
X8452353Y-24615305D01*
X8449500Y-24645725D01*
X8449500Y-25654274D01*
X8452353Y-25684694D01*
X8452355Y-25684703D01*
X8497207Y-25812883D01*
X8577845Y-25922144D01*
X8577847Y-25922146D01*
X8577850Y-25922150D01*
X8577853Y-25922152D01*
X8577855Y-25922154D01*
X8687116Y-26002792D01*
X8687117Y-26002792D01*
X8687118Y-26002793D01*
X8815301Y-26047646D01*
X8823221Y-26048388D01*
X8834745Y-26049470D01*
X8890915Y-26073728D01*
X8922100Y-26126370D01*
X8924500Y-26148037D01*
X8924500Y-27025165D01*
X8905593Y-27083356D01*
X8856093Y-27119320D01*
X8794907Y-27119320D01*
X8755497Y-27095169D01*
X8379862Y-26719535D01*
X8379857Y-26719531D01*
X8305642Y-26676683D01*
X8305644Y-26676683D01*
X8273521Y-26668076D01*
X8222853Y-26654500D01*
X8222851Y-26654500D01*
X5991394Y-26654500D01*
X5991213Y-26654488D01*
X5941950Y-26654499D01*
X5941926Y-26654500D01*
X5073634Y-26654500D01*
X5015443Y-26635593D01*
X5003630Y-26625504D01*
X4652630Y-26274504D01*
X4624853Y-26219987D01*
X4634424Y-26159555D01*
X4677689Y-26116290D01*
X4722634Y-26105500D01*
X5234273Y-26105500D01*
X5234273Y-26105499D01*
X5264699Y-26102646D01*
X5392882Y-26057793D01*
X5502150Y-25977150D01*
X5582793Y-25867882D01*
X5627646Y-25739699D01*
X5630499Y-25709273D01*
X5630500Y-25709273D01*
X5630500Y-24893333D01*
X5649407Y-24835142D01*
X5659490Y-24823335D01*
X5811319Y-24671506D01*
X5865834Y-24643730D01*
X5906942Y-24645883D01*
X5968208Y-24662300D01*
X5968210Y-24662300D01*
X6099990Y-24662300D01*
X6099992Y-24662300D01*
X6227286Y-24628192D01*
X6227288Y-24628190D01*
X6227290Y-24628190D01*
X6341409Y-24562303D01*
X6341409Y-24562302D01*
X6341414Y-24562300D01*
X6434600Y-24469114D01*
X6439953Y-24459843D01*
X6500490Y-24354990D01*
X6500490Y-24354988D01*
X6500492Y-24354986D01*
X6534600Y-24227692D01*
X6534600Y-24095908D01*
X6500492Y-23968614D01*
X6500490Y-23968610D01*
X6500490Y-23968609D01*
X6434603Y-23854490D01*
X6434601Y-23854488D01*
X6434600Y-23854486D01*
X6341414Y-23761300D01*
X6341411Y-23761298D01*
X6341409Y-23761296D01*
X6227289Y-23695409D01*
X6227291Y-23695409D01*
X6171081Y-23680348D01*
X6099992Y-23661300D01*
X5968208Y-23661300D01*
X5897119Y-23680348D01*
X5840909Y-23695409D01*
X5726790Y-23761296D01*
X5633596Y-23854490D01*
X5567709Y-23968610D01*
X5567707Y-23968615D01*
X5565110Y-23978306D01*
X5539489Y-24022682D01*
X5334287Y-24227884D01*
X5279770Y-24255661D01*
X5255040Y-24256448D01*
X5234266Y-24254500D01*
X4450734Y-24254500D01*
X4450725Y-24254500D01*
X4420305Y-24257353D01*
X4420296Y-24257355D01*
X4292116Y-24302207D01*
X4182855Y-24382845D01*
X4182845Y-24382855D01*
X4102207Y-24492116D01*
X4057355Y-24620296D01*
X4057353Y-24620305D01*
X4054500Y-24650725D01*
X4054500Y-25437365D01*
X4035593Y-25495556D01*
X3986093Y-25531520D01*
X3924907Y-25531520D01*
X3885496Y-25507369D01*
X1288996Y-22910869D01*
X1261219Y-22856352D01*
X1260000Y-22840865D01*
X1260000Y-22679309D01*
X1278907Y-22621118D01*
X1328407Y-22585154D01*
X1389593Y-22585154D01*
X1405936Y-22592431D01*
X1408008Y-22593290D01*
X1408012Y-22593291D01*
X1408014Y-22593292D01*
X1535308Y-22627400D01*
X1600365Y-22627400D01*
X1658556Y-22646307D01*
X1670369Y-22656396D01*
X1963835Y-22949862D01*
X1963834Y-22949862D01*
X2002181Y-22988208D01*
X2024438Y-23010465D01*
X2098662Y-23053318D01*
X2181447Y-23075500D01*
X2267152Y-23075500D01*
X3992624Y-23075500D01*
X4032609Y-23083934D01*
X4120420Y-23122707D01*
X4144495Y-23125500D01*
X5080504Y-23125499D01*
X5104580Y-23122707D01*
X5203079Y-23079215D01*
X5279215Y-23003079D01*
X5322707Y-22904580D01*
X5325500Y-22880505D01*
X5325499Y-22619496D01*
X5322707Y-22595420D01*
X5279215Y-22496921D01*
X5203079Y-22420785D01*
X5104580Y-22377293D01*
X5104577Y-22377292D01*
X5104576Y-22377292D01*
X5080508Y-22374500D01*
X4144499Y-22374500D01*
X4144496Y-22374501D01*
X4120418Y-22377293D01*
X4032613Y-22416064D01*
X3992624Y-22424500D01*
X2400135Y-22424500D01*
X2341944Y-22405593D01*
X2330131Y-22395504D01*
X2130696Y-22196069D01*
X2102919Y-22141552D01*
X2101700Y-22126065D01*
X2101700Y-22061009D01*
X2100496Y-22056514D01*
X2067592Y-21933714D01*
X2067590Y-21933711D01*
X2067590Y-21933709D01*
X2001703Y-21819590D01*
X2001701Y-21819588D01*
X2001700Y-21819586D01*
X1908514Y-21726400D01*
X1908511Y-21726398D01*
X1908509Y-21726396D01*
X1794389Y-21660509D01*
X1794391Y-21660509D01*
X1744999Y-21647275D01*
X1667092Y-21626400D01*
X1535308Y-21626400D01*
X1475654Y-21642383D01*
X1408008Y-21660509D01*
X1402016Y-21662992D01*
X1401488Y-21661718D01*
X1348644Y-21672947D01*
X1292750Y-21648056D01*
X1262162Y-21595066D01*
X1260000Y-21574490D01*
X1260000Y-20524499D01*
X1278907Y-20466308D01*
X1328407Y-20430344D01*
X1359000Y-20425499D01*
X2059273Y-20425499D01*
X2059273Y-20425498D01*
X2089699Y-20422645D01*
X2217882Y-20377792D01*
X2327150Y-20297149D01*
X2407793Y-20187881D01*
X2452646Y-20059698D01*
X2455499Y-20029272D01*
X2455500Y-20029272D01*
X2455500Y-19245726D01*
X2453552Y-19224960D01*
X2466942Y-19165258D01*
X2482112Y-19145713D01*
X2519297Y-19108529D01*
X2573814Y-19080753D01*
X2634246Y-19090325D01*
G37*
%TD.AperFunction*%
%TA.AperFunction,Conductor*%
G36*
X8260356Y-20929407D02*
G01*
X8272169Y-20939496D01*
X8938169Y-21605496D01*
X8965946Y-21660013D01*
X8956375Y-21720445D01*
X8913110Y-21763710D01*
X8868165Y-21774500D01*
X7074613Y-21774500D01*
X7016422Y-21755593D01*
X6980458Y-21706093D01*
X6980458Y-21644907D01*
X6984049Y-21635511D01*
X6988072Y-21626400D01*
X6997707Y-21604580D01*
X7000500Y-21580505D01*
X7000499Y-21319496D01*
X6997707Y-21295420D01*
X6954215Y-21196921D01*
X6878079Y-21120785D01*
X6876004Y-21119869D01*
X6831151Y-21100064D01*
X6785556Y-21059263D01*
X6772651Y-20999455D01*
X6797365Y-20943483D01*
X6850259Y-20912727D01*
X6871140Y-20910500D01*
X8202165Y-20910500D01*
X8260356Y-20929407D01*
G37*
%TD.AperFunction*%
%TA.AperFunction,Conductor*%
G36*
X679155Y-15864396D02*
G01*
X732846Y-15937145D01*
X732850Y-15937150D01*
X732853Y-15937152D01*
X732855Y-15937154D01*
X842116Y-16017792D01*
X842117Y-16017792D01*
X842118Y-16017793D01*
X970301Y-16062646D01*
X1000725Y-16065499D01*
X1000727Y-16065500D01*
X1000734Y-16065500D01*
X1816665Y-16065500D01*
X1874856Y-16084407D01*
X1886669Y-16094496D01*
X2234804Y-16442631D01*
X2262581Y-16497148D01*
X2263800Y-16512635D01*
X2263800Y-18402365D01*
X2244893Y-18460556D01*
X2234804Y-18472369D01*
X1886670Y-18820503D01*
X1832153Y-18848280D01*
X1816666Y-18849499D01*
X1000725Y-18849499D01*
X970305Y-18852352D01*
X970296Y-18852354D01*
X842116Y-18897206D01*
X732855Y-18977844D01*
X732848Y-18977851D01*
X679155Y-19050603D01*
X629387Y-19086195D01*
X568204Y-19085737D01*
X518974Y-19049404D01*
X500500Y-18991814D01*
X500500Y-15923184D01*
X519407Y-15864993D01*
X568907Y-15829029D01*
X630093Y-15829029D01*
X679155Y-15864396D01*
G37*
%TD.AperFunction*%
%TA.AperFunction,Conductor*%
G36*
X679155Y-11504396D02*
G01*
X732846Y-11577145D01*
X732850Y-11577150D01*
X732853Y-11577152D01*
X732855Y-11577154D01*
X842116Y-11657792D01*
X842117Y-11657792D01*
X842118Y-11657793D01*
X970301Y-11702646D01*
X1000725Y-11705499D01*
X1000727Y-11705500D01*
X1000734Y-11705500D01*
X1816665Y-11705500D01*
X1874856Y-11724407D01*
X1886669Y-11734496D01*
X2264204Y-12112031D01*
X2291981Y-12166548D01*
X2293200Y-12182035D01*
X2293200Y-14012965D01*
X2274293Y-14071156D01*
X2264204Y-14082969D01*
X1886669Y-14460504D01*
X1832152Y-14488281D01*
X1816665Y-14489500D01*
X1000725Y-14489500D01*
X970305Y-14492353D01*
X970296Y-14492355D01*
X842116Y-14537207D01*
X732855Y-14617845D01*
X732848Y-14617852D01*
X679155Y-14690604D01*
X629387Y-14726196D01*
X568204Y-14725738D01*
X518974Y-14689405D01*
X500500Y-14631815D01*
X500500Y-11563184D01*
X519407Y-11504993D01*
X568907Y-11469029D01*
X630093Y-11469029D01*
X679155Y-11504396D01*
G37*
%TD.AperFunction*%
%TD*%
M02*
