%TF.GenerationSoftware,KiCad,Pcbnew,10.0.6*%
%TF.CreationDate,2026-09-03T19:15:08+02:00*%
%TF.ProjectId,Sockelplatine,536f636b-656c-4706-9c61-74696e652e6b,rev?*%
%TF.SameCoordinates,Original*%
%TF.FileFunction,AssemblyDrawing,Top*%
%FSLAX46Y46*%
G04 Gerber Fmt 4.6, Leading zero omitted, Abs format (unit mm)*
G04 Created by KiCad (PCBNEW 10.0.6) date 2026-09-03 19:15:08*
%MOMM*%
%LPD*%
G01*
G04 APERTURE LIST*
%ADD10C,0.150000*%
%ADD11C,0.120000*%
%ADD12C,0.080000*%
%ADD13C,0.100000*%
G04 APERTURE END LIST*
D10*
X23238095Y-52454819D02*
X23238095Y-53264342D01*
X23238095Y-53264342D02*
X23285714Y-53359580D01*
X23285714Y-53359580D02*
X23333333Y-53407200D01*
X23333333Y-53407200D02*
X23428571Y-53454819D01*
X23428571Y-53454819D02*
X23619047Y-53454819D01*
X23619047Y-53454819D02*
X23714285Y-53407200D01*
X23714285Y-53407200D02*
X23761904Y-53359580D01*
X23761904Y-53359580D02*
X23809523Y-53264342D01*
X23809523Y-53264342D02*
X23809523Y-52454819D01*
X24238095Y-52550057D02*
X24285714Y-52502438D01*
X24285714Y-52502438D02*
X24380952Y-52454819D01*
X24380952Y-52454819D02*
X24619047Y-52454819D01*
X24619047Y-52454819D02*
X24714285Y-52502438D01*
X24714285Y-52502438D02*
X24761904Y-52550057D01*
X24761904Y-52550057D02*
X24809523Y-52645295D01*
X24809523Y-52645295D02*
X24809523Y-52740533D01*
X24809523Y-52740533D02*
X24761904Y-52883390D01*
X24761904Y-52883390D02*
X24190476Y-53454819D01*
X24190476Y-53454819D02*
X24809523Y-53454819D01*
X38085812Y-53110818D02*
X38038193Y-53158438D01*
X38038193Y-53158438D02*
X37895336Y-53206057D01*
X37895336Y-53206057D02*
X37800098Y-53206057D01*
X37800098Y-53206057D02*
X37657241Y-53158438D01*
X37657241Y-53158438D02*
X37562003Y-53063199D01*
X37562003Y-53063199D02*
X37514384Y-52967961D01*
X37514384Y-52967961D02*
X37466765Y-52777485D01*
X37466765Y-52777485D02*
X37466765Y-52634628D01*
X37466765Y-52634628D02*
X37514384Y-52444152D01*
X37514384Y-52444152D02*
X37562003Y-52348914D01*
X37562003Y-52348914D02*
X37657241Y-52253676D01*
X37657241Y-52253676D02*
X37800098Y-52206057D01*
X37800098Y-52206057D02*
X37895336Y-52206057D01*
X37895336Y-52206057D02*
X38038193Y-52253676D01*
X38038193Y-52253676D02*
X38085812Y-52301295D01*
X38419146Y-52206057D02*
X39038193Y-52206057D01*
X39038193Y-52206057D02*
X38704860Y-52587009D01*
X38704860Y-52587009D02*
X38847717Y-52587009D01*
X38847717Y-52587009D02*
X38942955Y-52634628D01*
X38942955Y-52634628D02*
X38990574Y-52682247D01*
X38990574Y-52682247D02*
X39038193Y-52777485D01*
X39038193Y-52777485D02*
X39038193Y-53015580D01*
X39038193Y-53015580D02*
X38990574Y-53110818D01*
X38990574Y-53110818D02*
X38942955Y-53158438D01*
X38942955Y-53158438D02*
X38847717Y-53206057D01*
X38847717Y-53206057D02*
X38562003Y-53206057D01*
X38562003Y-53206057D02*
X38466765Y-53158438D01*
X38466765Y-53158438D02*
X38419146Y-53110818D01*
X31796666Y-11184819D02*
X31796666Y-11899104D01*
X31796666Y-11899104D02*
X31749047Y-12041961D01*
X31749047Y-12041961D02*
X31653809Y-12137200D01*
X31653809Y-12137200D02*
X31510952Y-12184819D01*
X31510952Y-12184819D02*
X31415714Y-12184819D01*
X32225238Y-11280057D02*
X32272857Y-11232438D01*
X32272857Y-11232438D02*
X32368095Y-11184819D01*
X32368095Y-11184819D02*
X32606190Y-11184819D01*
X32606190Y-11184819D02*
X32701428Y-11232438D01*
X32701428Y-11232438D02*
X32749047Y-11280057D01*
X32749047Y-11280057D02*
X32796666Y-11375295D01*
X32796666Y-11375295D02*
X32796666Y-11470533D01*
X32796666Y-11470533D02*
X32749047Y-11613390D01*
X32749047Y-11613390D02*
X32177619Y-12184819D01*
X32177619Y-12184819D02*
X32796666Y-12184819D01*
D11*
X27118855Y-26840576D02*
X27766474Y-26840576D01*
X27766474Y-26840576D02*
X27842664Y-26802481D01*
X27842664Y-26802481D02*
X27880760Y-26764386D01*
X27880760Y-26764386D02*
X27918855Y-26688195D01*
X27918855Y-26688195D02*
X27918855Y-26535814D01*
X27918855Y-26535814D02*
X27880760Y-26459624D01*
X27880760Y-26459624D02*
X27842664Y-26421529D01*
X27842664Y-26421529D02*
X27766474Y-26383433D01*
X27766474Y-26383433D02*
X27118855Y-26383433D01*
X27918855Y-25583434D02*
X27918855Y-26040577D01*
X27918855Y-25812005D02*
X27118855Y-25812005D01*
X27118855Y-25812005D02*
X27233140Y-25888196D01*
X27233140Y-25888196D02*
X27309331Y-25964386D01*
X27309331Y-25964386D02*
X27347426Y-26040577D01*
D10*
X27168095Y-26564819D02*
X27168095Y-27374342D01*
X27168095Y-27374342D02*
X27215714Y-27469580D01*
X27215714Y-27469580D02*
X27263333Y-27517200D01*
X27263333Y-27517200D02*
X27358571Y-27564819D01*
X27358571Y-27564819D02*
X27549047Y-27564819D01*
X27549047Y-27564819D02*
X27644285Y-27517200D01*
X27644285Y-27517200D02*
X27691904Y-27469580D01*
X27691904Y-27469580D02*
X27739523Y-27374342D01*
X27739523Y-27374342D02*
X27739523Y-26564819D01*
X28739523Y-27564819D02*
X28168095Y-27564819D01*
X28453809Y-27564819D02*
X28453809Y-26564819D01*
X28453809Y-26564819D02*
X28358571Y-26707676D01*
X28358571Y-26707676D02*
X28263333Y-26802914D01*
X28263333Y-26802914D02*
X28168095Y-26850533D01*
D11*
X50318333Y-52863855D02*
X50318333Y-53435283D01*
X50318333Y-53435283D02*
X50280238Y-53549569D01*
X50280238Y-53549569D02*
X50204047Y-53625760D01*
X50204047Y-53625760D02*
X50089762Y-53663855D01*
X50089762Y-53663855D02*
X50013571Y-53663855D01*
X51118333Y-53663855D02*
X50661190Y-53663855D01*
X50889762Y-53663855D02*
X50889762Y-52863855D01*
X50889762Y-52863855D02*
X50813571Y-52978140D01*
X50813571Y-52978140D02*
X50737381Y-53054331D01*
X50737381Y-53054331D02*
X50661190Y-53092426D01*
D10*
X50246666Y-56154819D02*
X50246666Y-56869104D01*
X50246666Y-56869104D02*
X50199047Y-57011961D01*
X50199047Y-57011961D02*
X50103809Y-57107200D01*
X50103809Y-57107200D02*
X49960952Y-57154819D01*
X49960952Y-57154819D02*
X49865714Y-57154819D01*
X51246666Y-57154819D02*
X50675238Y-57154819D01*
X50960952Y-57154819D02*
X50960952Y-56154819D01*
X50960952Y-56154819D02*
X50865714Y-56297676D01*
X50865714Y-56297676D02*
X50770476Y-56392914D01*
X50770476Y-56392914D02*
X50675238Y-56440533D01*
D11*
X19216667Y-5063855D02*
X18950000Y-4682902D01*
X18759524Y-5063855D02*
X18759524Y-4263855D01*
X18759524Y-4263855D02*
X19064286Y-4263855D01*
X19064286Y-4263855D02*
X19140476Y-4301950D01*
X19140476Y-4301950D02*
X19178571Y-4340045D01*
X19178571Y-4340045D02*
X19216667Y-4416236D01*
X19216667Y-4416236D02*
X19216667Y-4530521D01*
X19216667Y-4530521D02*
X19178571Y-4606712D01*
X19178571Y-4606712D02*
X19140476Y-4644807D01*
X19140476Y-4644807D02*
X19064286Y-4682902D01*
X19064286Y-4682902D02*
X18759524Y-4682902D01*
X19521428Y-4340045D02*
X19559524Y-4301950D01*
X19559524Y-4301950D02*
X19635714Y-4263855D01*
X19635714Y-4263855D02*
X19826190Y-4263855D01*
X19826190Y-4263855D02*
X19902381Y-4301950D01*
X19902381Y-4301950D02*
X19940476Y-4340045D01*
X19940476Y-4340045D02*
X19978571Y-4416236D01*
X19978571Y-4416236D02*
X19978571Y-4492426D01*
X19978571Y-4492426D02*
X19940476Y-4606712D01*
X19940476Y-4606712D02*
X19483333Y-5063855D01*
X19483333Y-5063855D02*
X19978571Y-5063855D01*
D12*
X19266666Y-6577149D02*
X19100000Y-6339054D01*
X18980952Y-6577149D02*
X18980952Y-6077149D01*
X18980952Y-6077149D02*
X19171428Y-6077149D01*
X19171428Y-6077149D02*
X19219047Y-6100959D01*
X19219047Y-6100959D02*
X19242857Y-6124768D01*
X19242857Y-6124768D02*
X19266666Y-6172387D01*
X19266666Y-6172387D02*
X19266666Y-6243816D01*
X19266666Y-6243816D02*
X19242857Y-6291435D01*
X19242857Y-6291435D02*
X19219047Y-6315244D01*
X19219047Y-6315244D02*
X19171428Y-6339054D01*
X19171428Y-6339054D02*
X18980952Y-6339054D01*
X19457143Y-6124768D02*
X19480952Y-6100959D01*
X19480952Y-6100959D02*
X19528571Y-6077149D01*
X19528571Y-6077149D02*
X19647619Y-6077149D01*
X19647619Y-6077149D02*
X19695238Y-6100959D01*
X19695238Y-6100959D02*
X19719047Y-6124768D01*
X19719047Y-6124768D02*
X19742857Y-6172387D01*
X19742857Y-6172387D02*
X19742857Y-6220006D01*
X19742857Y-6220006D02*
X19719047Y-6291435D01*
X19719047Y-6291435D02*
X19433333Y-6577149D01*
X19433333Y-6577149D02*
X19742857Y-6577149D01*
D11*
X20246667Y-44587664D02*
X20208571Y-44625760D01*
X20208571Y-44625760D02*
X20094286Y-44663855D01*
X20094286Y-44663855D02*
X20018095Y-44663855D01*
X20018095Y-44663855D02*
X19903809Y-44625760D01*
X19903809Y-44625760D02*
X19827619Y-44549569D01*
X19827619Y-44549569D02*
X19789524Y-44473379D01*
X19789524Y-44473379D02*
X19751428Y-44320998D01*
X19751428Y-44320998D02*
X19751428Y-44206712D01*
X19751428Y-44206712D02*
X19789524Y-44054331D01*
X19789524Y-44054331D02*
X19827619Y-43978140D01*
X19827619Y-43978140D02*
X19903809Y-43901950D01*
X19903809Y-43901950D02*
X20018095Y-43863855D01*
X20018095Y-43863855D02*
X20094286Y-43863855D01*
X20094286Y-43863855D02*
X20208571Y-43901950D01*
X20208571Y-43901950D02*
X20246667Y-43940045D01*
X21008571Y-44663855D02*
X20551428Y-44663855D01*
X20780000Y-44663855D02*
X20780000Y-43863855D01*
X20780000Y-43863855D02*
X20703809Y-43978140D01*
X20703809Y-43978140D02*
X20627619Y-44054331D01*
X20627619Y-44054331D02*
X20551428Y-44092426D01*
D12*
X20296666Y-46159530D02*
X20272857Y-46183340D01*
X20272857Y-46183340D02*
X20201428Y-46207149D01*
X20201428Y-46207149D02*
X20153809Y-46207149D01*
X20153809Y-46207149D02*
X20082381Y-46183340D01*
X20082381Y-46183340D02*
X20034762Y-46135720D01*
X20034762Y-46135720D02*
X20010952Y-46088101D01*
X20010952Y-46088101D02*
X19987143Y-45992863D01*
X19987143Y-45992863D02*
X19987143Y-45921435D01*
X19987143Y-45921435D02*
X20010952Y-45826197D01*
X20010952Y-45826197D02*
X20034762Y-45778578D01*
X20034762Y-45778578D02*
X20082381Y-45730959D01*
X20082381Y-45730959D02*
X20153809Y-45707149D01*
X20153809Y-45707149D02*
X20201428Y-45707149D01*
X20201428Y-45707149D02*
X20272857Y-45730959D01*
X20272857Y-45730959D02*
X20296666Y-45754768D01*
X20772857Y-46207149D02*
X20487143Y-46207149D01*
X20630000Y-46207149D02*
X20630000Y-45707149D01*
X20630000Y-45707149D02*
X20582381Y-45778578D01*
X20582381Y-45778578D02*
X20534762Y-45826197D01*
X20534762Y-45826197D02*
X20487143Y-45850006D01*
D11*
X36309524Y-39013855D02*
X36309524Y-38213855D01*
X36309524Y-38213855D02*
X36500000Y-38213855D01*
X36500000Y-38213855D02*
X36614286Y-38251950D01*
X36614286Y-38251950D02*
X36690476Y-38328140D01*
X36690476Y-38328140D02*
X36728571Y-38404331D01*
X36728571Y-38404331D02*
X36766667Y-38556712D01*
X36766667Y-38556712D02*
X36766667Y-38670998D01*
X36766667Y-38670998D02*
X36728571Y-38823379D01*
X36728571Y-38823379D02*
X36690476Y-38899569D01*
X36690476Y-38899569D02*
X36614286Y-38975760D01*
X36614286Y-38975760D02*
X36500000Y-39013855D01*
X36500000Y-39013855D02*
X36309524Y-39013855D01*
X37528571Y-39013855D02*
X37071428Y-39013855D01*
X37300000Y-39013855D02*
X37300000Y-38213855D01*
X37300000Y-38213855D02*
X37223809Y-38328140D01*
X37223809Y-38328140D02*
X37147619Y-38404331D01*
X37147619Y-38404331D02*
X37071428Y-38442426D01*
D10*
X36161905Y-41704819D02*
X36161905Y-40704819D01*
X36161905Y-40704819D02*
X36400000Y-40704819D01*
X36400000Y-40704819D02*
X36542857Y-40752438D01*
X36542857Y-40752438D02*
X36638095Y-40847676D01*
X36638095Y-40847676D02*
X36685714Y-40942914D01*
X36685714Y-40942914D02*
X36733333Y-41133390D01*
X36733333Y-41133390D02*
X36733333Y-41276247D01*
X36733333Y-41276247D02*
X36685714Y-41466723D01*
X36685714Y-41466723D02*
X36638095Y-41561961D01*
X36638095Y-41561961D02*
X36542857Y-41657200D01*
X36542857Y-41657200D02*
X36400000Y-41704819D01*
X36400000Y-41704819D02*
X36161905Y-41704819D01*
X37685714Y-41704819D02*
X37114286Y-41704819D01*
X37400000Y-41704819D02*
X37400000Y-40704819D01*
X37400000Y-40704819D02*
X37304762Y-40847676D01*
X37304762Y-40847676D02*
X37209524Y-40942914D01*
X37209524Y-40942914D02*
X37114286Y-40990533D01*
D11*
X19216667Y-2263855D02*
X18950000Y-1882902D01*
X18759524Y-2263855D02*
X18759524Y-1463855D01*
X18759524Y-1463855D02*
X19064286Y-1463855D01*
X19064286Y-1463855D02*
X19140476Y-1501950D01*
X19140476Y-1501950D02*
X19178571Y-1540045D01*
X19178571Y-1540045D02*
X19216667Y-1616236D01*
X19216667Y-1616236D02*
X19216667Y-1730521D01*
X19216667Y-1730521D02*
X19178571Y-1806712D01*
X19178571Y-1806712D02*
X19140476Y-1844807D01*
X19140476Y-1844807D02*
X19064286Y-1882902D01*
X19064286Y-1882902D02*
X18759524Y-1882902D01*
X19978571Y-2263855D02*
X19521428Y-2263855D01*
X19750000Y-2263855D02*
X19750000Y-1463855D01*
X19750000Y-1463855D02*
X19673809Y-1578140D01*
X19673809Y-1578140D02*
X19597619Y-1654331D01*
X19597619Y-1654331D02*
X19521428Y-1692426D01*
D12*
X19266666Y-3777149D02*
X19100000Y-3539054D01*
X18980952Y-3777149D02*
X18980952Y-3277149D01*
X18980952Y-3277149D02*
X19171428Y-3277149D01*
X19171428Y-3277149D02*
X19219047Y-3300959D01*
X19219047Y-3300959D02*
X19242857Y-3324768D01*
X19242857Y-3324768D02*
X19266666Y-3372387D01*
X19266666Y-3372387D02*
X19266666Y-3443816D01*
X19266666Y-3443816D02*
X19242857Y-3491435D01*
X19242857Y-3491435D02*
X19219047Y-3515244D01*
X19219047Y-3515244D02*
X19171428Y-3539054D01*
X19171428Y-3539054D02*
X18980952Y-3539054D01*
X19742857Y-3777149D02*
X19457143Y-3777149D01*
X19600000Y-3777149D02*
X19600000Y-3277149D01*
X19600000Y-3277149D02*
X19552381Y-3348578D01*
X19552381Y-3348578D02*
X19504762Y-3396197D01*
X19504762Y-3396197D02*
X19457143Y-3420006D01*
D11*
X26746667Y-44587664D02*
X26708571Y-44625760D01*
X26708571Y-44625760D02*
X26594286Y-44663855D01*
X26594286Y-44663855D02*
X26518095Y-44663855D01*
X26518095Y-44663855D02*
X26403809Y-44625760D01*
X26403809Y-44625760D02*
X26327619Y-44549569D01*
X26327619Y-44549569D02*
X26289524Y-44473379D01*
X26289524Y-44473379D02*
X26251428Y-44320998D01*
X26251428Y-44320998D02*
X26251428Y-44206712D01*
X26251428Y-44206712D02*
X26289524Y-44054331D01*
X26289524Y-44054331D02*
X26327619Y-43978140D01*
X26327619Y-43978140D02*
X26403809Y-43901950D01*
X26403809Y-43901950D02*
X26518095Y-43863855D01*
X26518095Y-43863855D02*
X26594286Y-43863855D01*
X26594286Y-43863855D02*
X26708571Y-43901950D01*
X26708571Y-43901950D02*
X26746667Y-43940045D01*
X27051428Y-43940045D02*
X27089524Y-43901950D01*
X27089524Y-43901950D02*
X27165714Y-43863855D01*
X27165714Y-43863855D02*
X27356190Y-43863855D01*
X27356190Y-43863855D02*
X27432381Y-43901950D01*
X27432381Y-43901950D02*
X27470476Y-43940045D01*
X27470476Y-43940045D02*
X27508571Y-44016236D01*
X27508571Y-44016236D02*
X27508571Y-44092426D01*
X27508571Y-44092426D02*
X27470476Y-44206712D01*
X27470476Y-44206712D02*
X27013333Y-44663855D01*
X27013333Y-44663855D02*
X27508571Y-44663855D01*
D12*
X26796666Y-46159530D02*
X26772857Y-46183340D01*
X26772857Y-46183340D02*
X26701428Y-46207149D01*
X26701428Y-46207149D02*
X26653809Y-46207149D01*
X26653809Y-46207149D02*
X26582381Y-46183340D01*
X26582381Y-46183340D02*
X26534762Y-46135720D01*
X26534762Y-46135720D02*
X26510952Y-46088101D01*
X26510952Y-46088101D02*
X26487143Y-45992863D01*
X26487143Y-45992863D02*
X26487143Y-45921435D01*
X26487143Y-45921435D02*
X26510952Y-45826197D01*
X26510952Y-45826197D02*
X26534762Y-45778578D01*
X26534762Y-45778578D02*
X26582381Y-45730959D01*
X26582381Y-45730959D02*
X26653809Y-45707149D01*
X26653809Y-45707149D02*
X26701428Y-45707149D01*
X26701428Y-45707149D02*
X26772857Y-45730959D01*
X26772857Y-45730959D02*
X26796666Y-45754768D01*
X26987143Y-45754768D02*
X27010952Y-45730959D01*
X27010952Y-45730959D02*
X27058571Y-45707149D01*
X27058571Y-45707149D02*
X27177619Y-45707149D01*
X27177619Y-45707149D02*
X27225238Y-45730959D01*
X27225238Y-45730959D02*
X27249047Y-45754768D01*
X27249047Y-45754768D02*
X27272857Y-45802387D01*
X27272857Y-45802387D02*
X27272857Y-45850006D01*
X27272857Y-45850006D02*
X27249047Y-45921435D01*
X27249047Y-45921435D02*
X26963333Y-46207149D01*
X26963333Y-46207149D02*
X27272857Y-46207149D01*
%TO.C,U2*%
D13*
X18250000Y-49750000D02*
X19250000Y-48750000D01*
X18250000Y-57250000D02*
X18250000Y-49750000D01*
X19250000Y-48750000D02*
X29750000Y-48750000D01*
X29750000Y-48750000D02*
X29750000Y-57250000D01*
X29750000Y-57250000D02*
X18250000Y-57250000D01*
%TO.C,C3*%
X34825720Y-51003738D02*
X35625720Y-51003738D01*
X35225720Y-50603738D02*
X35225720Y-51403738D01*
X42252479Y-52751238D02*
G75*
G02*
X34252479Y-52751238I-4000000J0D01*
G01*
X34252479Y-52751238D02*
G75*
G02*
X42252479Y-52751238I4000000J0D01*
G01*
%TO.C,J2*%
X6730000Y-9190000D02*
X57530000Y-9190000D01*
X6730000Y-13000000D02*
X6730000Y-9190000D01*
X8000000Y-14270000D02*
X6730000Y-13000000D01*
X57530000Y-9190000D02*
X57530000Y-14270000D01*
X57530000Y-14270000D02*
X8000000Y-14270000D01*
%TO.C,U1*%
X2430000Y-36610000D02*
X2430000Y-17110000D01*
X2930000Y-16610000D02*
X52930000Y-16610000D01*
X3430000Y-37610000D02*
X2430000Y-36610000D01*
X13855000Y-29485000D02*
X15005000Y-29485000D01*
X13855000Y-31735000D02*
X15005000Y-31735000D01*
X52930000Y-37610000D02*
X3430000Y-37610000D01*
X53430000Y-17110000D02*
X53430000Y-37110000D01*
X6830000Y-32310000D02*
X7630000Y-32310000D01*
X7630000Y-33310000D01*
X6830000Y-33310000D01*
X6830000Y-32310000D01*
X6830000Y-32010000D02*
X7630000Y-32010000D01*
X7630000Y-33610000D01*
X6830000Y-33610000D01*
X6830000Y-32010000D01*
X12305000Y-29010000D02*
X16555000Y-29010000D01*
X16555000Y-32210000D01*
X12305000Y-32210000D01*
X12305000Y-29010000D01*
X2430000Y-17110000D02*
G75*
G02*
X2930000Y-16610000I500000J0D01*
G01*
X13855000Y-31735000D02*
G75*
G02*
X13855000Y-29485000I0J1125000D01*
G01*
X15005000Y-29485000D02*
G75*
G02*
X15005000Y-31735000I0J-1125000D01*
G01*
X52930000Y-16610000D02*
G75*
G02*
X53430000Y-17110000I0J-500000D01*
G01*
X53430000Y-37110000D02*
G75*
G02*
X52930000Y-37610000I-500001J1D01*
G01*
X6730000Y-23320000D02*
X1730000Y-23320000D01*
X1730000Y-23110000D01*
X1130000Y-23110000D01*
X1130000Y-31110000D01*
X1730000Y-31110000D01*
X1730000Y-30900000D01*
X6730000Y-30900000D01*
X6730000Y-23320000D01*
%TO.C,J1*%
X45500000Y-47700000D02*
X55660000Y-47700000D01*
X45500000Y-49700000D02*
X55660000Y-49700000D01*
X45500000Y-55900000D02*
X55660000Y-55900000D01*
X45500000Y-58400000D02*
X45500000Y-47700000D01*
X45500000Y-58400000D02*
X55660000Y-58400000D01*
X46000000Y-58900000D02*
X45500000Y-58400000D01*
X49313000Y-52083000D02*
X46523000Y-54873000D01*
X49557000Y-52327000D02*
X46767000Y-55117000D01*
X54393000Y-52083000D02*
X51603000Y-54873000D01*
X54637000Y-52327000D02*
X51847000Y-55117000D01*
X55660000Y-47700000D02*
X55660000Y-58900000D01*
X55660000Y-58900000D02*
X46000000Y-58900000D01*
X50040000Y-53600000D02*
G75*
G02*
X46040000Y-53600000I-2000000J0D01*
G01*
X46040000Y-53600000D02*
G75*
G02*
X50040000Y-53600000I2000000J0D01*
G01*
X55120000Y-53600000D02*
G75*
G02*
X51120000Y-53600000I-2000000J0D01*
G01*
X51120000Y-53600000D02*
G75*
G02*
X55120000Y-53600000I2000000J0D01*
G01*
%TO.C,R2*%
X18350000Y-5725000D02*
X20350000Y-5725000D01*
X20350000Y-6975000D01*
X18350000Y-6975000D01*
X18350000Y-5725000D01*
%TO.C,C1*%
X19380000Y-45355000D02*
X21380000Y-45355000D01*
X21380000Y-46605000D01*
X19380000Y-46605000D01*
X19380000Y-45355000D01*
%TO.C,D1*%
X33350000Y-45850000D02*
X33350000Y-39650000D01*
X36250560Y-41950920D02*
X36250560Y-43551120D01*
X36250560Y-42751020D02*
X35348860Y-42751020D01*
X36250560Y-42751020D02*
X37401180Y-41950920D01*
X36250560Y-42751020D02*
X37401180Y-43500320D01*
X37401180Y-42751020D02*
X38399400Y-42751020D01*
X37401180Y-43500320D02*
X37401180Y-41950920D01*
X40450000Y-39650000D02*
X33350000Y-39650000D01*
X40450000Y-39650000D02*
X40450000Y-45850000D01*
X40450000Y-45850000D02*
X33350000Y-45850000D01*
%TO.C,R1*%
X18350000Y-2925000D02*
X20350000Y-2925000D01*
X20350000Y-4175000D01*
X18350000Y-4175000D01*
X18350000Y-2925000D01*
%TO.C,C2*%
X25880000Y-45355000D02*
X27880000Y-45355000D01*
X27880000Y-46605000D01*
X25880000Y-46605000D01*
X25880000Y-45355000D01*
%TD*%
M02*
