%TF.GenerationSoftware,KiCad,Pcbnew,10.0.6*%
%TF.CreationDate,2026-09-03T19:15:08+02:00*%
%TF.ProjectId,Sockelplatine,536f636b-656c-4706-9c61-74696e652e6b,rev?*%
%TF.SameCoordinates,Original*%
%TF.FileFunction,AssemblyDrawing,Bot*%
%FSLAX46Y46*%
G04 Gerber Fmt 4.6, Leading zero omitted, Abs format (unit mm)*
G04 Created by KiCad (PCBNEW 10.0.6) date 2026-09-03 19:15:08*
%MOMM*%
%LPD*%
G01*
G04 APERTURE LIST*
%ADD10C,0.120000*%
%ADD11C,0.150000*%
%ADD12C,0.100000*%
G04 APERTURE END LIST*
D10*
X56236666Y-39183855D02*
X56236666Y-39755283D01*
X56236666Y-39755283D02*
X56274761Y-39869569D01*
X56274761Y-39869569D02*
X56350952Y-39945760D01*
X56350952Y-39945760D02*
X56465237Y-39983855D01*
X56465237Y-39983855D02*
X56541428Y-39983855D01*
X55512856Y-39450521D02*
X55512856Y-39983855D01*
X55703332Y-39145760D02*
X55893809Y-39717188D01*
X55893809Y-39717188D02*
X55398570Y-39717188D01*
D11*
X55424819Y-42936666D02*
X56139104Y-42936666D01*
X56139104Y-42936666D02*
X56281961Y-42889047D01*
X56281961Y-42889047D02*
X56377200Y-42793809D01*
X56377200Y-42793809D02*
X56424819Y-42650952D01*
X56424819Y-42650952D02*
X56424819Y-42555714D01*
X55758152Y-43841428D02*
X56424819Y-43841428D01*
X55377200Y-43603333D02*
X56091485Y-43365238D01*
X56091485Y-43365238D02*
X56091485Y-43984285D01*
D10*
X12766666Y66144D02*
X12766666Y-505283D01*
X12766666Y-505283D02*
X12804761Y-619569D01*
X12804761Y-619569D02*
X12880952Y-695760D01*
X12880952Y-695760D02*
X12995237Y-733855D01*
X12995237Y-733855D02*
X13071428Y-733855D01*
X12461904Y66144D02*
X11966666Y66144D01*
X11966666Y66144D02*
X12233332Y-238617D01*
X12233332Y-238617D02*
X12119047Y-238617D01*
X12119047Y-238617D02*
X12042856Y-276712D01*
X12042856Y-276712D02*
X12004761Y-314807D01*
X12004761Y-314807D02*
X11966666Y-390998D01*
X11966666Y-390998D02*
X11966666Y-581474D01*
X11966666Y-581474D02*
X12004761Y-657664D01*
X12004761Y-657664D02*
X12042856Y-695760D01*
X12042856Y-695760D02*
X12119047Y-733855D01*
X12119047Y-733855D02*
X12347618Y-733855D01*
X12347618Y-733855D02*
X12423809Y-695760D01*
X12423809Y-695760D02*
X12461904Y-657664D01*
D11*
X11954819Y-3686666D02*
X12669104Y-3686666D01*
X12669104Y-3686666D02*
X12811961Y-3639047D01*
X12811961Y-3639047D02*
X12907200Y-3543809D01*
X12907200Y-3543809D02*
X12954819Y-3400952D01*
X12954819Y-3400952D02*
X12954819Y-3305714D01*
X11954819Y-4067619D02*
X11954819Y-4686666D01*
X11954819Y-4686666D02*
X12335771Y-4353333D01*
X12335771Y-4353333D02*
X12335771Y-4496190D01*
X12335771Y-4496190D02*
X12383390Y-4591428D01*
X12383390Y-4591428D02*
X12431009Y-4639047D01*
X12431009Y-4639047D02*
X12526247Y-4686666D01*
X12526247Y-4686666D02*
X12764342Y-4686666D01*
X12764342Y-4686666D02*
X12859580Y-4639047D01*
X12859580Y-4639047D02*
X12907200Y-4591428D01*
X12907200Y-4591428D02*
X12954819Y-4496190D01*
X12954819Y-4496190D02*
X12954819Y-4210476D01*
X12954819Y-4210476D02*
X12907200Y-4115238D01*
X12907200Y-4115238D02*
X12859580Y-4067619D01*
%TO.C,J4*%
D12*
X52370000Y-41680000D02*
X52370000Y-42320000D01*
X52370000Y-42320000D02*
X53430000Y-42320000D01*
X52370000Y-44220000D02*
X52370000Y-44860000D01*
X52370000Y-44860000D02*
X53430000Y-44860000D01*
X53430000Y-40730000D02*
X53430000Y-45810000D01*
X53430000Y-41680000D02*
X52370000Y-41680000D01*
X53430000Y-44220000D02*
X52370000Y-44220000D01*
X53430000Y-45810000D02*
X58510000Y-45810000D01*
X57560000Y-40730000D02*
X53430000Y-40730000D01*
X58510000Y-41680000D02*
X57560000Y-40730000D01*
X58510000Y-41680000D02*
X59570000Y-41680000D01*
X58510000Y-44220000D02*
X59570000Y-44220000D01*
X58510000Y-45810000D02*
X58510000Y-41680000D01*
X59570000Y-41680000D02*
X59570000Y-42320000D01*
X59570000Y-42320000D02*
X58510000Y-42320000D01*
X59570000Y-44220000D02*
X59570000Y-44860000D01*
X59570000Y-44860000D02*
X58510000Y-44860000D01*
%TO.C,J3*%
X9960000Y-4970000D02*
X9960000Y-5610000D01*
X9960000Y-5610000D02*
X11230000Y-5610000D01*
X11230000Y-1480000D02*
X11230000Y-6560000D01*
X11230000Y-4970000D02*
X9960000Y-4970000D01*
X11230000Y-6560000D02*
X13770000Y-6560000D01*
X12820000Y-1480000D02*
X11230000Y-1480000D01*
X13770000Y-2430000D02*
X12820000Y-1480000D01*
X13770000Y-2430000D02*
X15040000Y-2430000D01*
X13770000Y-6560000D02*
X13770000Y-2430000D01*
X15040000Y-2430000D02*
X15040000Y-3070000D01*
X15040000Y-3070000D02*
X13770000Y-3070000D01*
%TD*%
M02*
