%TF.GenerationSoftware,KiCad,Pcbnew,10.0.6*%
%TF.CreationDate,2026-09-03T19:15:08+02:00*%
%TF.ProjectId,Sockelplatine,536f636b-656c-4706-9c61-74696e652e6b,rev?*%
%TF.SameCoordinates,Original*%
%TF.FileFunction,Other,User*%
%FSLAX46Y46*%
G04 Gerber Fmt 4.6, Leading zero omitted, Abs format (unit mm)*
G04 Created by KiCad (PCBNEW 10.0.6) date 2026-09-03 19:15:08*
%MOMM*%
%LPD*%
G01*
G04 APERTURE LIST*
%ADD10C,0.050000*%
G04 APERTURE END LIST*
%TO.C,U2*%
D10*
X18000000Y-48500000D02*
X30000000Y-48500000D01*
X30000000Y-57500000D01*
X18000000Y-57500000D01*
X18000000Y-48500000D01*
%TO.C,C3*%
X42502479Y-52751238D02*
G75*
G02*
X34002479Y-52751238I-4250000J0D01*
G01*
X34002479Y-52751238D02*
G75*
G02*
X42502479Y-52751238I4250000J0D01*
G01*
%TO.C,J2*%
X6220000Y-8680000D02*
X58030000Y-8680000D01*
X58030000Y-14770000D01*
X6220000Y-14770000D01*
X6220000Y-8680000D01*
%TO.C,U1*%
X630000Y-31610000D02*
X630000Y-22610000D01*
X2180000Y-22610000D01*
X2180000Y-15570000D01*
X54480000Y-15570000D01*
X54480000Y-38650000D01*
X2180000Y-38650000D01*
X2180000Y-31610000D01*
X630000Y-31610000D01*
%TO.C,J1*%
X45000000Y-47200000D02*
X56170000Y-47200000D01*
X56170000Y-59400000D01*
X45000000Y-59400000D01*
X45000000Y-47200000D01*
%TO.C,R2*%
X17500000Y-5400000D02*
X21200000Y-5400000D01*
X21200000Y-7300000D01*
X17500000Y-7300000D01*
X17500000Y-5400000D01*
%TO.C,C1*%
X18500000Y-45000000D02*
X22260000Y-45000000D01*
X22260000Y-46960000D01*
X18500000Y-46960000D01*
X18500000Y-45000000D01*
%TO.C,D1*%
X30000000Y-39400000D02*
X43800000Y-39400000D01*
X30000000Y-46100000D02*
X30000000Y-39400000D01*
X43800000Y-39400000D02*
X43800000Y-46100000D01*
X43800000Y-46100000D02*
X30000000Y-46100000D01*
%TO.C,R1*%
X17500000Y-2600000D02*
X21200000Y-2600000D01*
X21200000Y-4500000D01*
X17500000Y-4500000D01*
X17500000Y-2600000D01*
%TO.C,C2*%
X25000000Y-45000000D02*
X28760000Y-45000000D01*
X28760000Y-46960000D01*
X25000000Y-46960000D01*
X25000000Y-45000000D01*
%TD*%
M02*
