M48
; DRILL file KiCad 10.0.6 date 2026-09-03T19:15:09
; FORMAT={-:-/ absolute / metric / decimal}
; #@! TF.CreationDate,2026-09-03T19:15:09+02:00
; #@! TF.GenerationSoftware,Kicad,Pcbnew,10.0.6
; #@! TF.FileFunction,MixedPlating,1,2
FMAT,2
METRIC
; #@! TA.AperFunction,Plated,PTH,ViaDrill
T1C0.300
; #@! TA.AperFunction,Plated,PTH,ComponentDrill
T2C0.800
; #@! TA.AperFunction,Plated,PTH,ComponentDrill
T3C1.000
; #@! TA.AperFunction,Plated,PTH,ComponentDrill
T4C1.200
; #@! TA.AperFunction,Plated,PTH,ComponentDrill
T5C1.300
; #@! TA.AperFunction,NonPlated,NPTH,ComponentDrill
T6C3.200
%
G90
G05
T1
X5.75Y-7.5
X5.75Y-22.5
X5.75Y-30.0
X5.75Y-37.5
X5.75Y-45.0
X5.75Y-52.5
X13.25Y-22.5
X13.25Y-30.0
X13.25Y-37.5
X13.25Y-45.0
X13.25Y-52.5
X14.477Y-4.428
X20.75Y-22.5
X20.75Y-30.0
X20.75Y-37.5
X28.25Y-7.5
X28.25Y-22.5
X28.25Y-30.0
X28.25Y-37.5
X35.75Y-7.5
X35.75Y-22.5
X35.75Y-30.0
X35.75Y-37.5
X36.002Y-6.171
X43.25Y-7.5
X43.25Y-22.5
X43.25Y-30.0
X43.25Y-37.5
X43.25Y-52.5
X50.75Y-7.5
X50.75Y-37.5
X54.89Y-35.371
X58.25Y-7.5
X58.25Y-22.5
X58.25Y-30.0
X58.25Y-37.5
X58.25Y-52.5
T2
X36.502Y-52.751
X40.002Y-52.751
T3
X3.8Y-18.22
X3.8Y-36.0
X6.34Y-18.22
X6.34Y-36.0
X8.0Y-10.46
X8.0Y-13.0
X8.88Y-18.22
X8.88Y-36.0
X10.54Y-10.46
X10.54Y-13.0
X11.42Y-18.22
X11.42Y-36.0
X13.08Y-10.46
X13.08Y-13.0
X13.96Y-18.22
X13.96Y-36.0
X15.62Y-10.46
X15.62Y-13.0
X16.5Y-18.22
X16.5Y-36.0
X18.16Y-10.46
X18.16Y-13.0
X19.04Y-18.22
X19.04Y-36.0
X20.7Y-10.46
X20.7Y-13.0
X21.58Y-18.22
X21.58Y-36.0
X23.24Y-10.46
X23.24Y-13.0
X24.12Y-18.22
X24.12Y-36.0
X25.78Y-10.46
X25.78Y-13.0
X26.66Y-18.22
X26.66Y-36.0
X28.32Y-10.46
X28.32Y-13.0
X29.2Y-18.22
X29.2Y-36.0
X30.86Y-10.46
X30.86Y-13.0
X31.74Y-18.22
X31.74Y-36.0
X33.4Y-10.46
X33.4Y-13.0
X34.28Y-18.22
X34.28Y-36.0
X35.94Y-10.46
X35.94Y-13.0
X36.82Y-18.22
X36.82Y-36.0
X38.48Y-10.46
X38.48Y-13.0
X39.36Y-18.22
X39.36Y-36.0
X41.02Y-10.46
X41.02Y-13.0
X41.9Y-18.22
X41.9Y-36.0
X43.56Y-10.46
X43.56Y-13.0
X44.44Y-18.22
X44.44Y-36.0
X46.1Y-10.46
X46.1Y-13.0
X46.98Y-18.22
X46.98Y-36.0
X48.64Y-10.46
X48.64Y-13.0
X49.52Y-18.22
X49.52Y-36.0
X51.18Y-10.46
X51.18Y-13.0
X52.06Y-18.22
X52.06Y-36.0
X53.72Y-10.46
X53.72Y-13.0
X56.26Y-10.46
X56.26Y-13.0
T4
X21.46Y-50.75
X24.0Y-50.75
X26.54Y-50.75
T5
X48.04Y-53.6
X53.12Y-53.6
T6
X4.0Y-4.0
X4.0Y-56.0
X60.0Y-4.0
X60.0Y-56.0
M30
