%TF.GenerationSoftware,KiCad,Pcbnew,10.0.6*%
%TF.CreationDate,2026-09-09T18:25:20+02:00*%
%TF.ProjectId,Dimmer4,44696d6d-6572-4342-9e6b-696361645f70,rev?*%
%TF.SameCoordinates,Original*%
%TF.FileFunction,Soldermask,Bot*%
%TF.FilePolarity,Negative*%
%FSLAX46Y46*%
G04 Gerber Fmt 4.6, Leading zero omitted, Abs format (unit mm)*
G04 Created by KiCad (PCBNEW 10.0.6) date 2026-09-09 18:25:20*
%MOMM*%
%LPD*%
G01*
G04 APERTURE LIST*
G04 APERTURE END LIST*
G36*
X8366662Y-61710276D02*
G01*
X8410459Y-61739541D01*
X8439724Y-61783338D01*
X8450000Y-61835000D01*
X8450000Y-64165000D01*
X8439724Y-64216662D01*
X8410459Y-64260459D01*
X8366662Y-64289724D01*
X8315000Y-64300000D01*
X7685000Y-64300000D01*
X7633338Y-64289724D01*
X7589541Y-64260459D01*
X7560276Y-64216662D01*
X7550000Y-64165000D01*
X7550000Y-61835000D01*
X7560276Y-61783338D01*
X7589541Y-61739541D01*
X7633338Y-61710276D01*
X7685000Y-61700000D01*
X8315000Y-61700000D01*
X8366662Y-61710276D01*
G37*
G36*
X10906662Y-61710276D02*
G01*
X10950459Y-61739541D01*
X10979724Y-61783338D01*
X10990000Y-61835000D01*
X10990000Y-64165000D01*
X10979724Y-64216662D01*
X10950459Y-64260459D01*
X10906662Y-64289724D01*
X10855000Y-64300000D01*
X10225000Y-64300000D01*
X10173338Y-64289724D01*
X10129541Y-64260459D01*
X10100276Y-64216662D01*
X10090000Y-64165000D01*
X10090000Y-61835000D01*
X10100276Y-61783338D01*
X10129541Y-61739541D01*
X10173338Y-61710276D01*
X10225000Y-61700000D01*
X10855000Y-61700000D01*
X10906662Y-61710276D01*
G37*
G36*
X13446662Y-61710276D02*
G01*
X13490459Y-61739541D01*
X13519724Y-61783338D01*
X13530000Y-61835000D01*
X13530000Y-64165000D01*
X13519724Y-64216662D01*
X13490459Y-64260459D01*
X13446662Y-64289724D01*
X13395000Y-64300000D01*
X12765000Y-64300000D01*
X12713338Y-64289724D01*
X12669541Y-64260459D01*
X12640276Y-64216662D01*
X12630000Y-64165000D01*
X12630000Y-61835000D01*
X12640276Y-61783338D01*
X12669541Y-61739541D01*
X12713338Y-61710276D01*
X12765000Y-61700000D01*
X13395000Y-61700000D01*
X13446662Y-61710276D01*
G37*
G36*
X15986662Y-61710276D02*
G01*
X16030459Y-61739541D01*
X16059724Y-61783338D01*
X16070000Y-61835000D01*
X16070000Y-64165000D01*
X16059724Y-64216662D01*
X16030459Y-64260459D01*
X15986662Y-64289724D01*
X15935000Y-64300000D01*
X15305000Y-64300000D01*
X15253338Y-64289724D01*
X15209541Y-64260459D01*
X15180276Y-64216662D01*
X15170000Y-64165000D01*
X15170000Y-61835000D01*
X15180276Y-61783338D01*
X15209541Y-61739541D01*
X15253338Y-61710276D01*
X15305000Y-61700000D01*
X15935000Y-61700000D01*
X15986662Y-61710276D01*
G37*
G36*
X18526662Y-61710276D02*
G01*
X18570459Y-61739541D01*
X18599724Y-61783338D01*
X18610000Y-61835000D01*
X18610000Y-64165000D01*
X18599724Y-64216662D01*
X18570459Y-64260459D01*
X18526662Y-64289724D01*
X18475000Y-64300000D01*
X17845000Y-64300000D01*
X17793338Y-64289724D01*
X17749541Y-64260459D01*
X17720276Y-64216662D01*
X17710000Y-64165000D01*
X17710000Y-61835000D01*
X17720276Y-61783338D01*
X17749541Y-61739541D01*
X17793338Y-61710276D01*
X17845000Y-61700000D01*
X18475000Y-61700000D01*
X18526662Y-61710276D01*
G37*
G36*
X21066662Y-61710276D02*
G01*
X21110459Y-61739541D01*
X21139724Y-61783338D01*
X21150000Y-61835000D01*
X21150000Y-64165000D01*
X21139724Y-64216662D01*
X21110459Y-64260459D01*
X21066662Y-64289724D01*
X21015000Y-64300000D01*
X20385000Y-64300000D01*
X20333338Y-64289724D01*
X20289541Y-64260459D01*
X20260276Y-64216662D01*
X20250000Y-64165000D01*
X20250000Y-61835000D01*
X20260276Y-61783338D01*
X20289541Y-61739541D01*
X20333338Y-61710276D01*
X20385000Y-61700000D01*
X21015000Y-61700000D01*
X21066662Y-61710276D01*
G37*
G36*
X23606662Y-61710276D02*
G01*
X23650459Y-61739541D01*
X23679724Y-61783338D01*
X23690000Y-61835000D01*
X23690000Y-64165000D01*
X23679724Y-64216662D01*
X23650459Y-64260459D01*
X23606662Y-64289724D01*
X23555000Y-64300000D01*
X22925000Y-64300000D01*
X22873338Y-64289724D01*
X22829541Y-64260459D01*
X22800276Y-64216662D01*
X22790000Y-64165000D01*
X22790000Y-61835000D01*
X22800276Y-61783338D01*
X22829541Y-61739541D01*
X22873338Y-61710276D01*
X22925000Y-61700000D01*
X23555000Y-61700000D01*
X23606662Y-61710276D01*
G37*
G36*
X26146662Y-61710276D02*
G01*
X26190459Y-61739541D01*
X26219724Y-61783338D01*
X26230000Y-61835000D01*
X26230000Y-64165000D01*
X26219724Y-64216662D01*
X26190459Y-64260459D01*
X26146662Y-64289724D01*
X26095000Y-64300000D01*
X25465000Y-64300000D01*
X25413338Y-64289724D01*
X25369541Y-64260459D01*
X25340276Y-64216662D01*
X25330000Y-64165000D01*
X25330000Y-61835000D01*
X25340276Y-61783338D01*
X25369541Y-61739541D01*
X25413338Y-61710276D01*
X25465000Y-61700000D01*
X26095000Y-61700000D01*
X26146662Y-61710276D01*
G37*
G36*
X28686662Y-61710276D02*
G01*
X28730459Y-61739541D01*
X28759724Y-61783338D01*
X28770000Y-61835000D01*
X28770000Y-64165000D01*
X28759724Y-64216662D01*
X28730459Y-64260459D01*
X28686662Y-64289724D01*
X28635000Y-64300000D01*
X28005000Y-64300000D01*
X27953338Y-64289724D01*
X27909541Y-64260459D01*
X27880276Y-64216662D01*
X27870000Y-64165000D01*
X27870000Y-61835000D01*
X27880276Y-61783338D01*
X27909541Y-61739541D01*
X27953338Y-61710276D01*
X28005000Y-61700000D01*
X28635000Y-61700000D01*
X28686662Y-61710276D01*
G37*
G36*
X31226662Y-61710276D02*
G01*
X31270459Y-61739541D01*
X31299724Y-61783338D01*
X31310000Y-61835000D01*
X31310000Y-64165000D01*
X31299724Y-64216662D01*
X31270459Y-64260459D01*
X31226662Y-64289724D01*
X31175000Y-64300000D01*
X30545000Y-64300000D01*
X30493338Y-64289724D01*
X30449541Y-64260459D01*
X30420276Y-64216662D01*
X30410000Y-64165000D01*
X30410000Y-61835000D01*
X30420276Y-61783338D01*
X30449541Y-61739541D01*
X30493338Y-61710276D01*
X30545000Y-61700000D01*
X31175000Y-61700000D01*
X31226662Y-61710276D01*
G37*
G36*
X33766662Y-61710276D02*
G01*
X33810459Y-61739541D01*
X33839724Y-61783338D01*
X33850000Y-61835000D01*
X33850000Y-64165000D01*
X33839724Y-64216662D01*
X33810459Y-64260459D01*
X33766662Y-64289724D01*
X33715000Y-64300000D01*
X33085000Y-64300000D01*
X33033338Y-64289724D01*
X32989541Y-64260459D01*
X32960276Y-64216662D01*
X32950000Y-64165000D01*
X32950000Y-61835000D01*
X32960276Y-61783338D01*
X32989541Y-61739541D01*
X33033338Y-61710276D01*
X33085000Y-61700000D01*
X33715000Y-61700000D01*
X33766662Y-61710276D01*
G37*
G36*
X36306662Y-61710276D02*
G01*
X36350459Y-61739541D01*
X36379724Y-61783338D01*
X36390000Y-61835000D01*
X36390000Y-64165000D01*
X36379724Y-64216662D01*
X36350459Y-64260459D01*
X36306662Y-64289724D01*
X36255000Y-64300000D01*
X35625000Y-64300000D01*
X35573338Y-64289724D01*
X35529541Y-64260459D01*
X35500276Y-64216662D01*
X35490000Y-64165000D01*
X35490000Y-61835000D01*
X35500276Y-61783338D01*
X35529541Y-61739541D01*
X35573338Y-61710276D01*
X35625000Y-61700000D01*
X36255000Y-61700000D01*
X36306662Y-61710276D01*
G37*
G36*
X38846662Y-61710276D02*
G01*
X38890459Y-61739541D01*
X38919724Y-61783338D01*
X38930000Y-61835000D01*
X38930000Y-64165000D01*
X38919724Y-64216662D01*
X38890459Y-64260459D01*
X38846662Y-64289724D01*
X38795000Y-64300000D01*
X38165000Y-64300000D01*
X38113338Y-64289724D01*
X38069541Y-64260459D01*
X38040276Y-64216662D01*
X38030000Y-64165000D01*
X38030000Y-61835000D01*
X38040276Y-61783338D01*
X38069541Y-61739541D01*
X38113338Y-61710276D01*
X38165000Y-61700000D01*
X38795000Y-61700000D01*
X38846662Y-61710276D01*
G37*
G36*
X41386662Y-61710276D02*
G01*
X41430459Y-61739541D01*
X41459724Y-61783338D01*
X41470000Y-61835000D01*
X41470000Y-64165000D01*
X41459724Y-64216662D01*
X41430459Y-64260459D01*
X41386662Y-64289724D01*
X41335000Y-64300000D01*
X40705000Y-64300000D01*
X40653338Y-64289724D01*
X40609541Y-64260459D01*
X40580276Y-64216662D01*
X40570000Y-64165000D01*
X40570000Y-61835000D01*
X40580276Y-61783338D01*
X40609541Y-61739541D01*
X40653338Y-61710276D01*
X40705000Y-61700000D01*
X41335000Y-61700000D01*
X41386662Y-61710276D01*
G37*
G36*
X43926662Y-61710276D02*
G01*
X43970459Y-61739541D01*
X43999724Y-61783338D01*
X44010000Y-61835000D01*
X44010000Y-64165000D01*
X43999724Y-64216662D01*
X43970459Y-64260459D01*
X43926662Y-64289724D01*
X43875000Y-64300000D01*
X43245000Y-64300000D01*
X43193338Y-64289724D01*
X43149541Y-64260459D01*
X43120276Y-64216662D01*
X43110000Y-64165000D01*
X43110000Y-61835000D01*
X43120276Y-61783338D01*
X43149541Y-61739541D01*
X43193338Y-61710276D01*
X43245000Y-61700000D01*
X43875000Y-61700000D01*
X43926662Y-61710276D01*
G37*
G36*
X46466662Y-61710276D02*
G01*
X46510459Y-61739541D01*
X46539724Y-61783338D01*
X46550000Y-61835000D01*
X46550000Y-64165000D01*
X46539724Y-64216662D01*
X46510459Y-64260459D01*
X46466662Y-64289724D01*
X46415000Y-64300000D01*
X45785000Y-64300000D01*
X45733338Y-64289724D01*
X45689541Y-64260459D01*
X45660276Y-64216662D01*
X45650000Y-64165000D01*
X45650000Y-61835000D01*
X45660276Y-61783338D01*
X45689541Y-61739541D01*
X45733338Y-61710276D01*
X45785000Y-61700000D01*
X46415000Y-61700000D01*
X46466662Y-61710276D01*
G37*
G36*
X49006662Y-61710276D02*
G01*
X49050459Y-61739541D01*
X49079724Y-61783338D01*
X49090000Y-61835000D01*
X49090000Y-64165000D01*
X49079724Y-64216662D01*
X49050459Y-64260459D01*
X49006662Y-64289724D01*
X48955000Y-64300000D01*
X48325000Y-64300000D01*
X48273338Y-64289724D01*
X48229541Y-64260459D01*
X48200276Y-64216662D01*
X48190000Y-64165000D01*
X48190000Y-61835000D01*
X48200276Y-61783338D01*
X48229541Y-61739541D01*
X48273338Y-61710276D01*
X48325000Y-61700000D01*
X48955000Y-61700000D01*
X49006662Y-61710276D01*
G37*
G36*
X51546662Y-61710276D02*
G01*
X51590459Y-61739541D01*
X51619724Y-61783338D01*
X51630000Y-61835000D01*
X51630000Y-64165000D01*
X51619724Y-64216662D01*
X51590459Y-64260459D01*
X51546662Y-64289724D01*
X51495000Y-64300000D01*
X50865000Y-64300000D01*
X50813338Y-64289724D01*
X50769541Y-64260459D01*
X50740276Y-64216662D01*
X50730000Y-64165000D01*
X50730000Y-61835000D01*
X50740276Y-61783338D01*
X50769541Y-61739541D01*
X50813338Y-61710276D01*
X50865000Y-61700000D01*
X51495000Y-61700000D01*
X51546662Y-61710276D01*
G37*
G36*
X54086662Y-61710276D02*
G01*
X54130459Y-61739541D01*
X54159724Y-61783338D01*
X54170000Y-61835000D01*
X54170000Y-64165000D01*
X54159724Y-64216662D01*
X54130459Y-64260459D01*
X54086662Y-64289724D01*
X54035000Y-64300000D01*
X53405000Y-64300000D01*
X53353338Y-64289724D01*
X53309541Y-64260459D01*
X53280276Y-64216662D01*
X53270000Y-64165000D01*
X53270000Y-61835000D01*
X53280276Y-61783338D01*
X53309541Y-61739541D01*
X53353338Y-61710276D01*
X53405000Y-61700000D01*
X54035000Y-61700000D01*
X54086662Y-61710276D01*
G37*
G36*
X56626662Y-61710276D02*
G01*
X56670459Y-61739541D01*
X56699724Y-61783338D01*
X56710000Y-61835000D01*
X56710000Y-64165000D01*
X56699724Y-64216662D01*
X56670459Y-64260459D01*
X56626662Y-64289724D01*
X56575000Y-64300000D01*
X55945000Y-64300000D01*
X55893338Y-64289724D01*
X55849541Y-64260459D01*
X55820276Y-64216662D01*
X55810000Y-64165000D01*
X55810000Y-61835000D01*
X55820276Y-61783338D01*
X55849541Y-61739541D01*
X55893338Y-61710276D01*
X55945000Y-61700000D01*
X56575000Y-61700000D01*
X56626662Y-61710276D01*
G37*
G36*
X59166662Y-61710276D02*
G01*
X59210459Y-61739541D01*
X59239724Y-61783338D01*
X59250000Y-61835000D01*
X59250000Y-64165000D01*
X59239724Y-64216662D01*
X59210459Y-64260459D01*
X59166662Y-64289724D01*
X59115000Y-64300000D01*
X58485000Y-64300000D01*
X58433338Y-64289724D01*
X58389541Y-64260459D01*
X58360276Y-64216662D01*
X58350000Y-64165000D01*
X58350000Y-61835000D01*
X58360276Y-61783338D01*
X58389541Y-61739541D01*
X58433338Y-61710276D01*
X58485000Y-61700000D01*
X59115000Y-61700000D01*
X59166662Y-61710276D01*
G37*
G36*
X61706662Y-61710276D02*
G01*
X61750459Y-61739541D01*
X61779724Y-61783338D01*
X61790000Y-61835000D01*
X61790000Y-64165000D01*
X61779724Y-64216662D01*
X61750459Y-64260459D01*
X61706662Y-64289724D01*
X61655000Y-64300000D01*
X61025000Y-64300000D01*
X60973338Y-64289724D01*
X60929541Y-64260459D01*
X60900276Y-64216662D01*
X60890000Y-64165000D01*
X60890000Y-61835000D01*
X60900276Y-61783338D01*
X60929541Y-61739541D01*
X60973338Y-61710276D01*
X61025000Y-61700000D01*
X61655000Y-61700000D01*
X61706662Y-61710276D01*
G37*
G36*
X4373513Y-59444208D02*
G01*
X4612293Y-59521793D01*
X4835998Y-59635776D01*
X5039117Y-59783350D01*
X5216650Y-59960883D01*
X5364224Y-60164002D01*
X5478207Y-60387707D01*
X5555792Y-60626487D01*
X5595068Y-60874465D01*
X5595068Y-61125535D01*
X5555792Y-61373513D01*
X5478207Y-61612293D01*
X5364224Y-61835998D01*
X5216650Y-62039117D01*
X5039117Y-62216650D01*
X4835998Y-62364224D01*
X4612293Y-62478207D01*
X4373513Y-62555792D01*
X4125535Y-62595068D01*
X3874465Y-62595068D01*
X3626487Y-62555792D01*
X3387707Y-62478207D01*
X3164002Y-62364224D01*
X2960883Y-62216650D01*
X2783350Y-62039117D01*
X2635776Y-61835998D01*
X2521793Y-61612293D01*
X2444208Y-61373513D01*
X2404932Y-61125535D01*
X2404932Y-60874465D01*
X2444208Y-60626487D01*
X2521793Y-60387707D01*
X2635776Y-60164002D01*
X2783350Y-59960883D01*
X2960883Y-59783350D01*
X3164002Y-59635776D01*
X3387707Y-59521793D01*
X3626487Y-59444208D01*
X3874465Y-59404932D01*
X4125535Y-59404932D01*
X4373513Y-59444208D01*
G37*
G36*
X71373513Y-59444208D02*
G01*
X71612293Y-59521793D01*
X71835998Y-59635776D01*
X72039117Y-59783350D01*
X72216650Y-59960883D01*
X72364224Y-60164002D01*
X72478207Y-60387707D01*
X72555792Y-60626487D01*
X72595068Y-60874465D01*
X72595068Y-61125535D01*
X72555792Y-61373513D01*
X72478207Y-61612293D01*
X72364224Y-61835998D01*
X72216650Y-62039117D01*
X72039117Y-62216650D01*
X71835998Y-62364224D01*
X71612293Y-62478207D01*
X71373513Y-62555792D01*
X71125535Y-62595068D01*
X70874465Y-62595068D01*
X70626487Y-62555792D01*
X70387707Y-62478207D01*
X70164002Y-62364224D01*
X69960883Y-62216650D01*
X69783350Y-62039117D01*
X69635776Y-61835998D01*
X69521793Y-61612293D01*
X69444208Y-61373513D01*
X69404932Y-61125535D01*
X69404932Y-60874465D01*
X69444208Y-60626487D01*
X69521793Y-60387707D01*
X69635776Y-60164002D01*
X69783350Y-59960883D01*
X69960883Y-59783350D01*
X70164002Y-59635776D01*
X70387707Y-59521793D01*
X70626487Y-59444208D01*
X70874465Y-59404932D01*
X71125535Y-59404932D01*
X71373513Y-59444208D01*
G37*
G36*
X59204046Y-53400805D02*
G01*
X59255407Y-53406764D01*
X59272953Y-53414511D01*
X59295670Y-53419030D01*
X59319987Y-53435278D01*
X59340793Y-53444465D01*
X59355004Y-53458676D01*
X59376776Y-53473224D01*
X59391323Y-53494995D01*
X59405534Y-53509206D01*
X59414719Y-53530010D01*
X59430970Y-53554330D01*
X59435488Y-53577047D01*
X59443235Y-53594592D01*
X59449196Y-53645966D01*
X59449999Y-53650002D01*
X59449999Y-53652883D01*
X59450000Y-53652892D01*
X59450000Y-54679234D01*
X59450000Y-55549999D01*
X59449194Y-55554048D01*
X59443235Y-55605407D01*
X59435489Y-55622949D01*
X59430970Y-55645670D01*
X59414718Y-55669991D01*
X59405534Y-55690793D01*
X59391325Y-55705001D01*
X59376776Y-55726776D01*
X59355001Y-55741325D01*
X59340793Y-55755534D01*
X59319991Y-55764718D01*
X59295670Y-55780970D01*
X59272950Y-55785488D01*
X59255407Y-55793235D01*
X59204034Y-55799196D01*
X59199998Y-55799999D01*
X59197115Y-55799999D01*
X59197107Y-55800000D01*
X57302893Y-55800000D01*
X57302892Y-55799999D01*
X57300001Y-55800000D01*
X57295951Y-55799194D01*
X57244592Y-55793235D01*
X57227048Y-55785488D01*
X57204330Y-55780970D01*
X57180010Y-55764719D01*
X57159206Y-55755534D01*
X57144995Y-55741323D01*
X57123224Y-55726776D01*
X57108676Y-55705004D01*
X57094465Y-55690793D01*
X57085278Y-55669987D01*
X57069030Y-55645670D01*
X57064511Y-55622954D01*
X57056764Y-55605407D01*
X57050803Y-55554033D01*
X57050001Y-55549998D01*
X57050000Y-55547115D01*
X57050000Y-55547107D01*
X57050000Y-53652892D01*
X57050000Y-53652891D01*
X57050000Y-53650001D01*
X57050804Y-53645954D01*
X57056764Y-53594592D01*
X57064511Y-53577044D01*
X57069030Y-53554330D01*
X57085277Y-53530014D01*
X57094465Y-53509206D01*
X57108678Y-53494992D01*
X57123224Y-53473224D01*
X57144992Y-53458678D01*
X57159206Y-53444465D01*
X57180014Y-53435277D01*
X57204330Y-53419030D01*
X57227043Y-53414512D01*
X57244592Y-53406764D01*
X57295967Y-53400803D01*
X57300002Y-53400001D01*
X57302884Y-53400000D01*
X57302893Y-53400000D01*
X59197107Y-53400000D01*
X59199999Y-53400000D01*
X59204046Y-53400805D01*
G37*
G36*
X62030134Y-53433156D02*
G01*
X62209220Y-53491345D01*
X62376998Y-53576832D01*
X62529338Y-53687513D01*
X62662487Y-53820662D01*
X62773168Y-53973002D01*
X62858655Y-54140780D01*
X62916844Y-54319866D01*
X62946301Y-54505849D01*
X62946301Y-54694151D01*
X62916844Y-54880134D01*
X62858655Y-55059220D01*
X62773168Y-55226998D01*
X62662487Y-55379338D01*
X62529338Y-55512487D01*
X62376998Y-55623168D01*
X62209220Y-55708655D01*
X62030134Y-55766844D01*
X61844151Y-55796301D01*
X61655849Y-55796301D01*
X61469866Y-55766844D01*
X61290780Y-55708655D01*
X61123002Y-55623168D01*
X60970662Y-55512487D01*
X60837513Y-55379338D01*
X60726832Y-55226998D01*
X60641345Y-55059220D01*
X60583156Y-54880134D01*
X60553699Y-54694151D01*
X60553699Y-54505849D01*
X60583156Y-54319866D01*
X60641345Y-54140780D01*
X60726832Y-53973002D01*
X60837513Y-53820662D01*
X60970662Y-53687513D01*
X61123002Y-53576832D01*
X61290780Y-53491345D01*
X61469866Y-53433156D01*
X61655849Y-53403699D01*
X61844151Y-53403699D01*
X62030134Y-53433156D01*
G37*
G36*
X10804046Y-52700805D02*
G01*
X10855407Y-52706764D01*
X10872953Y-52714511D01*
X10895670Y-52719030D01*
X10919987Y-52735278D01*
X10940793Y-52744465D01*
X10955004Y-52758676D01*
X10976776Y-52773224D01*
X10991323Y-52794995D01*
X11005534Y-52809206D01*
X11014719Y-52830010D01*
X11030970Y-52854330D01*
X11035488Y-52877047D01*
X11043235Y-52894592D01*
X11049196Y-52945966D01*
X11049999Y-52950002D01*
X11049999Y-52952883D01*
X11050000Y-52952892D01*
X11050000Y-53973002D01*
X11050000Y-54849999D01*
X11049194Y-54854048D01*
X11043235Y-54905407D01*
X11035489Y-54922949D01*
X11030970Y-54945670D01*
X11014718Y-54969991D01*
X11005534Y-54990793D01*
X10991325Y-55005001D01*
X10976776Y-55026776D01*
X10955001Y-55041325D01*
X10940793Y-55055534D01*
X10919991Y-55064718D01*
X10895670Y-55080970D01*
X10872950Y-55085488D01*
X10855407Y-55093235D01*
X10804034Y-55099196D01*
X10799998Y-55099999D01*
X10797115Y-55099999D01*
X10797107Y-55100000D01*
X8902893Y-55100000D01*
X8902892Y-55099999D01*
X8900001Y-55100000D01*
X8895951Y-55099194D01*
X8844592Y-55093235D01*
X8827048Y-55085488D01*
X8804330Y-55080970D01*
X8780010Y-55064719D01*
X8759206Y-55055534D01*
X8744995Y-55041323D01*
X8723224Y-55026776D01*
X8708676Y-55005004D01*
X8694465Y-54990793D01*
X8685278Y-54969987D01*
X8669030Y-54945670D01*
X8664511Y-54922954D01*
X8656764Y-54905407D01*
X8650803Y-54854033D01*
X8650001Y-54849998D01*
X8650000Y-54847115D01*
X8650000Y-54847107D01*
X8650000Y-52952892D01*
X8650000Y-52952891D01*
X8650000Y-52950001D01*
X8650804Y-52945954D01*
X8656764Y-52894592D01*
X8664511Y-52877044D01*
X8669030Y-52854330D01*
X8685277Y-52830014D01*
X8694465Y-52809206D01*
X8708678Y-52794992D01*
X8723224Y-52773224D01*
X8744992Y-52758678D01*
X8759206Y-52744465D01*
X8780014Y-52735277D01*
X8804330Y-52719030D01*
X8827043Y-52714512D01*
X8844592Y-52706764D01*
X8895967Y-52700803D01*
X8900002Y-52700001D01*
X8902884Y-52700000D01*
X8902893Y-52700000D01*
X10797107Y-52700000D01*
X10799999Y-52700000D01*
X10804046Y-52700805D01*
G37*
G36*
X19404046Y-52700805D02*
G01*
X19455407Y-52706764D01*
X19472953Y-52714511D01*
X19495670Y-52719030D01*
X19519987Y-52735278D01*
X19540793Y-52744465D01*
X19555004Y-52758676D01*
X19576776Y-52773224D01*
X19591323Y-52794995D01*
X19605534Y-52809206D01*
X19614719Y-52830010D01*
X19630970Y-52854330D01*
X19635488Y-52877047D01*
X19643235Y-52894592D01*
X19649196Y-52945966D01*
X19649999Y-52950002D01*
X19649999Y-52952883D01*
X19650000Y-52952892D01*
X19650000Y-53973002D01*
X19650000Y-54849999D01*
X19649194Y-54854048D01*
X19643235Y-54905407D01*
X19635489Y-54922949D01*
X19630970Y-54945670D01*
X19614718Y-54969991D01*
X19605534Y-54990793D01*
X19591325Y-55005001D01*
X19576776Y-55026776D01*
X19555001Y-55041325D01*
X19540793Y-55055534D01*
X19519991Y-55064718D01*
X19495670Y-55080970D01*
X19472950Y-55085488D01*
X19455407Y-55093235D01*
X19404034Y-55099196D01*
X19399998Y-55099999D01*
X19397115Y-55099999D01*
X19397107Y-55100000D01*
X17502893Y-55100000D01*
X17502892Y-55099999D01*
X17500001Y-55100000D01*
X17495951Y-55099194D01*
X17444592Y-55093235D01*
X17427048Y-55085488D01*
X17404330Y-55080970D01*
X17380010Y-55064719D01*
X17359206Y-55055534D01*
X17344995Y-55041323D01*
X17323224Y-55026776D01*
X17308676Y-55005004D01*
X17294465Y-54990793D01*
X17285278Y-54969987D01*
X17269030Y-54945670D01*
X17264511Y-54922954D01*
X17256764Y-54905407D01*
X17250803Y-54854033D01*
X17250001Y-54849998D01*
X17250000Y-54847115D01*
X17250000Y-54847107D01*
X17250000Y-52952892D01*
X17250000Y-52952891D01*
X17250000Y-52950001D01*
X17250804Y-52945954D01*
X17256764Y-52894592D01*
X17264511Y-52877044D01*
X17269030Y-52854330D01*
X17285277Y-52830014D01*
X17294465Y-52809206D01*
X17308678Y-52794992D01*
X17323224Y-52773224D01*
X17344992Y-52758678D01*
X17359206Y-52744465D01*
X17380014Y-52735277D01*
X17404330Y-52719030D01*
X17427043Y-52714512D01*
X17444592Y-52706764D01*
X17495967Y-52700803D01*
X17500002Y-52700001D01*
X17502884Y-52700000D01*
X17502893Y-52700000D01*
X19397107Y-52700000D01*
X19399999Y-52700000D01*
X19404046Y-52700805D01*
G37*
G36*
X13630134Y-52733156D02*
G01*
X13809220Y-52791345D01*
X13976998Y-52876832D01*
X14129338Y-52987513D01*
X14262487Y-53120662D01*
X14373168Y-53273002D01*
X14458655Y-53440780D01*
X14516844Y-53619866D01*
X14546301Y-53805849D01*
X14546301Y-53994151D01*
X14516844Y-54180134D01*
X14458655Y-54359220D01*
X14373168Y-54526998D01*
X14262487Y-54679338D01*
X14129338Y-54812487D01*
X13976998Y-54923168D01*
X13809220Y-55008655D01*
X13630134Y-55066844D01*
X13444151Y-55096301D01*
X13255849Y-55096301D01*
X13069866Y-55066844D01*
X12890780Y-55008655D01*
X12723002Y-54923168D01*
X12570662Y-54812487D01*
X12437513Y-54679338D01*
X12326832Y-54526998D01*
X12241345Y-54359220D01*
X12183156Y-54180134D01*
X12153699Y-53994151D01*
X12153699Y-53805849D01*
X12183156Y-53619866D01*
X12241345Y-53440780D01*
X12326832Y-53273002D01*
X12437513Y-53120662D01*
X12570662Y-52987513D01*
X12723002Y-52876832D01*
X12890780Y-52791345D01*
X13069866Y-52733156D01*
X13255849Y-52703699D01*
X13444151Y-52703699D01*
X13630134Y-52733156D01*
G37*
G36*
X22230134Y-52733156D02*
G01*
X22409220Y-52791345D01*
X22576998Y-52876832D01*
X22729338Y-52987513D01*
X22862487Y-53120662D01*
X22973168Y-53273002D01*
X23058655Y-53440780D01*
X23116844Y-53619866D01*
X23146301Y-53805849D01*
X23146301Y-53994151D01*
X23116844Y-54180134D01*
X23058655Y-54359220D01*
X22973168Y-54526998D01*
X22862487Y-54679338D01*
X22729338Y-54812487D01*
X22576998Y-54923168D01*
X22409220Y-55008655D01*
X22230134Y-55066844D01*
X22044151Y-55096301D01*
X21855849Y-55096301D01*
X21669866Y-55066844D01*
X21490780Y-55008655D01*
X21323002Y-54923168D01*
X21170662Y-54812487D01*
X21037513Y-54679338D01*
X20926832Y-54526998D01*
X20841345Y-54359220D01*
X20783156Y-54180134D01*
X20753699Y-53994151D01*
X20753699Y-53805849D01*
X20783156Y-53619866D01*
X20841345Y-53440780D01*
X20926832Y-53273002D01*
X21037513Y-53120662D01*
X21170662Y-52987513D01*
X21323002Y-52876832D01*
X21490780Y-52791345D01*
X21669866Y-52733156D01*
X21855849Y-52703699D01*
X22044151Y-52703699D01*
X22230134Y-52733156D01*
G37*
G36*
X49240000Y-51380000D02*
G01*
X47540000Y-51380000D01*
X47540000Y-49680000D01*
X49240000Y-49680000D01*
X49240000Y-51380000D01*
G37*
G36*
X30856742Y-49716601D02*
G01*
X31010687Y-49780367D01*
X31149234Y-49872941D01*
X31267059Y-49990766D01*
X31359633Y-50129313D01*
X31423399Y-50283258D01*
X31455907Y-50446685D01*
X31455907Y-50613315D01*
X31423399Y-50776742D01*
X31359633Y-50930687D01*
X31267059Y-51069234D01*
X31149234Y-51187059D01*
X31010687Y-51279633D01*
X30856742Y-51343399D01*
X30693315Y-51375907D01*
X30526685Y-51375907D01*
X30363258Y-51343399D01*
X30209313Y-51279633D01*
X30070766Y-51187059D01*
X29952941Y-51069234D01*
X29860367Y-50930687D01*
X29796601Y-50776742D01*
X29764093Y-50613315D01*
X29764093Y-50446685D01*
X29796601Y-50283258D01*
X29860367Y-50129313D01*
X29952941Y-49990766D01*
X30070766Y-49872941D01*
X30209313Y-49780367D01*
X30363258Y-49716601D01*
X30526685Y-49684093D01*
X30693315Y-49684093D01*
X30856742Y-49716601D01*
G37*
G36*
X30856742Y-47176601D02*
G01*
X31010687Y-47240367D01*
X31149234Y-47332941D01*
X31267059Y-47450766D01*
X31359633Y-47589313D01*
X31423399Y-47743258D01*
X31455907Y-47906685D01*
X31455907Y-48073315D01*
X31423399Y-48236742D01*
X31359633Y-48390687D01*
X31267059Y-48529234D01*
X31149234Y-48647059D01*
X31010687Y-48739633D01*
X30856742Y-48803399D01*
X30693315Y-48835907D01*
X30526685Y-48835907D01*
X30363258Y-48803399D01*
X30209313Y-48739633D01*
X30070766Y-48647059D01*
X29952941Y-48529234D01*
X29860367Y-48390687D01*
X29796601Y-48236742D01*
X29764093Y-48073315D01*
X29764093Y-47906685D01*
X29796601Y-47743258D01*
X29860367Y-47589313D01*
X29952941Y-47450766D01*
X30070766Y-47332941D01*
X30209313Y-47240367D01*
X30363258Y-47176601D01*
X30526685Y-47144093D01*
X30693315Y-47144093D01*
X30856742Y-47176601D01*
G37*
G36*
X48636742Y-47176601D02*
G01*
X48790687Y-47240367D01*
X48929234Y-47332941D01*
X49047059Y-47450766D01*
X49139633Y-47589313D01*
X49203399Y-47743258D01*
X49235907Y-47906685D01*
X49235907Y-48073315D01*
X49203399Y-48236742D01*
X49139633Y-48390687D01*
X49047059Y-48529234D01*
X48929234Y-48647059D01*
X48790687Y-48739633D01*
X48636742Y-48803399D01*
X48473315Y-48835907D01*
X48306685Y-48835907D01*
X48143258Y-48803399D01*
X47989313Y-48739633D01*
X47850766Y-48647059D01*
X47732941Y-48529234D01*
X47640367Y-48390687D01*
X47576601Y-48236742D01*
X47544093Y-48073315D01*
X47544093Y-47906685D01*
X47576601Y-47743258D01*
X47640367Y-47589313D01*
X47732941Y-47450766D01*
X47850766Y-47332941D01*
X47989313Y-47240367D01*
X48143258Y-47176601D01*
X48306685Y-47144093D01*
X48473315Y-47144093D01*
X48636742Y-47176601D01*
G37*
G36*
X62820000Y-48540000D02*
G01*
X59670000Y-48540000D01*
X59670000Y-47540000D01*
X62820000Y-47540000D01*
X62820000Y-48540000D01*
G37*
G36*
X67870000Y-48540000D02*
G01*
X64720000Y-48540000D01*
X64720000Y-47540000D01*
X67870000Y-47540000D01*
X67870000Y-48540000D01*
G37*
G36*
X30856742Y-44636601D02*
G01*
X31010687Y-44700367D01*
X31149234Y-44792941D01*
X31267059Y-44910766D01*
X31359633Y-45049313D01*
X31423399Y-45203258D01*
X31455907Y-45366685D01*
X31455907Y-45533315D01*
X31423399Y-45696742D01*
X31359633Y-45850687D01*
X31267059Y-45989234D01*
X31149234Y-46107059D01*
X31010687Y-46199633D01*
X30856742Y-46263399D01*
X30693315Y-46295907D01*
X30526685Y-46295907D01*
X30363258Y-46263399D01*
X30209313Y-46199633D01*
X30070766Y-46107059D01*
X29952941Y-45989234D01*
X29860367Y-45850687D01*
X29796601Y-45696742D01*
X29764093Y-45533315D01*
X29764093Y-45366685D01*
X29796601Y-45203258D01*
X29860367Y-45049313D01*
X29952941Y-44910766D01*
X30070766Y-44792941D01*
X30209313Y-44700367D01*
X30363258Y-44636601D01*
X30526685Y-44604093D01*
X30693315Y-44604093D01*
X30856742Y-44636601D01*
G37*
G36*
X48636742Y-44636601D02*
G01*
X48790687Y-44700367D01*
X48929234Y-44792941D01*
X49047059Y-44910766D01*
X49139633Y-45049313D01*
X49203399Y-45203258D01*
X49235907Y-45366685D01*
X49235907Y-45533315D01*
X49203399Y-45696742D01*
X49139633Y-45850687D01*
X49047059Y-45989234D01*
X48929234Y-46107059D01*
X48790687Y-46199633D01*
X48636742Y-46263399D01*
X48473315Y-46295907D01*
X48306685Y-46295907D01*
X48143258Y-46263399D01*
X47989313Y-46199633D01*
X47850766Y-46107059D01*
X47732941Y-45989234D01*
X47640367Y-45850687D01*
X47576601Y-45696742D01*
X47544093Y-45533315D01*
X47544093Y-45366685D01*
X47576601Y-45203258D01*
X47640367Y-45049313D01*
X47732941Y-44910766D01*
X47850766Y-44792941D01*
X47989313Y-44700367D01*
X48143258Y-44636601D01*
X48306685Y-44604093D01*
X48473315Y-44604093D01*
X48636742Y-44636601D01*
G37*
G36*
X62820000Y-46000000D02*
G01*
X59670000Y-46000000D01*
X59670000Y-45000000D01*
X62820000Y-45000000D01*
X62820000Y-46000000D01*
G37*
G36*
X67870000Y-46000000D02*
G01*
X64720000Y-46000000D01*
X64720000Y-45000000D01*
X67870000Y-45000000D01*
X67870000Y-46000000D01*
G37*
G36*
X30856742Y-42096601D02*
G01*
X31010687Y-42160367D01*
X31149234Y-42252941D01*
X31267059Y-42370766D01*
X31359633Y-42509313D01*
X31423399Y-42663258D01*
X31455907Y-42826685D01*
X31455907Y-42993315D01*
X31423399Y-43156742D01*
X31359633Y-43310687D01*
X31267059Y-43449234D01*
X31149234Y-43567059D01*
X31010687Y-43659633D01*
X30856742Y-43723399D01*
X30693315Y-43755907D01*
X30526685Y-43755907D01*
X30363258Y-43723399D01*
X30209313Y-43659633D01*
X30070766Y-43567059D01*
X29952941Y-43449234D01*
X29860367Y-43310687D01*
X29796601Y-43156742D01*
X29764093Y-42993315D01*
X29764093Y-42826685D01*
X29796601Y-42663258D01*
X29860367Y-42509313D01*
X29952941Y-42370766D01*
X30070766Y-42252941D01*
X30209313Y-42160367D01*
X30363258Y-42096601D01*
X30526685Y-42064093D01*
X30693315Y-42064093D01*
X30856742Y-42096601D01*
G37*
G36*
X48636742Y-42096601D02*
G01*
X48790687Y-42160367D01*
X48929234Y-42252941D01*
X49047059Y-42370766D01*
X49139633Y-42509313D01*
X49203399Y-42663258D01*
X49235907Y-42826685D01*
X49235907Y-42993315D01*
X49203399Y-43156742D01*
X49139633Y-43310687D01*
X49047059Y-43449234D01*
X48929234Y-43567059D01*
X48790687Y-43659633D01*
X48636742Y-43723399D01*
X48473315Y-43755907D01*
X48306685Y-43755907D01*
X48143258Y-43723399D01*
X47989313Y-43659633D01*
X47850766Y-43567059D01*
X47732941Y-43449234D01*
X47640367Y-43310687D01*
X47576601Y-43156742D01*
X47544093Y-42993315D01*
X47544093Y-42826685D01*
X47576601Y-42663258D01*
X47640367Y-42509313D01*
X47732941Y-42370766D01*
X47850766Y-42252941D01*
X47989313Y-42160367D01*
X48143258Y-42096601D01*
X48306685Y-42064093D01*
X48473315Y-42064093D01*
X48636742Y-42096601D01*
G37*
G36*
X30856742Y-39556601D02*
G01*
X31010687Y-39620367D01*
X31149234Y-39712941D01*
X31267059Y-39830766D01*
X31359633Y-39969313D01*
X31423399Y-40123258D01*
X31455907Y-40286685D01*
X31455907Y-40453315D01*
X31423399Y-40616742D01*
X31359633Y-40770687D01*
X31267059Y-40909234D01*
X31149234Y-41027059D01*
X31010687Y-41119633D01*
X30856742Y-41183399D01*
X30693315Y-41215907D01*
X30526685Y-41215907D01*
X30363258Y-41183399D01*
X30209313Y-41119633D01*
X30070766Y-41027059D01*
X29952941Y-40909234D01*
X29860367Y-40770687D01*
X29796601Y-40616742D01*
X29764093Y-40453315D01*
X29764093Y-40286685D01*
X29796601Y-40123258D01*
X29860367Y-39969313D01*
X29952941Y-39830766D01*
X30070766Y-39712941D01*
X30209313Y-39620367D01*
X30363258Y-39556601D01*
X30526685Y-39524093D01*
X30693315Y-39524093D01*
X30856742Y-39556601D01*
G37*
G36*
X48636742Y-39556601D02*
G01*
X48790687Y-39620367D01*
X48929234Y-39712941D01*
X49047059Y-39830766D01*
X49139633Y-39969313D01*
X49203399Y-40123258D01*
X49235907Y-40286685D01*
X49235907Y-40453315D01*
X49203399Y-40616742D01*
X49139633Y-40770687D01*
X49047059Y-40909234D01*
X48929234Y-41027059D01*
X48790687Y-41119633D01*
X48636742Y-41183399D01*
X48473315Y-41215907D01*
X48306685Y-41215907D01*
X48143258Y-41183399D01*
X47989313Y-41119633D01*
X47850766Y-41027059D01*
X47732941Y-40909234D01*
X47640367Y-40770687D01*
X47576601Y-40616742D01*
X47544093Y-40453315D01*
X47544093Y-40286685D01*
X47576601Y-40123258D01*
X47640367Y-39969313D01*
X47732941Y-39830766D01*
X47850766Y-39712941D01*
X47989313Y-39620367D01*
X48143258Y-39556601D01*
X48306685Y-39524093D01*
X48473315Y-39524093D01*
X48636742Y-39556601D01*
G37*
G36*
X30856742Y-37016601D02*
G01*
X31010687Y-37080367D01*
X31149234Y-37172941D01*
X31267059Y-37290766D01*
X31359633Y-37429313D01*
X31423399Y-37583258D01*
X31455907Y-37746685D01*
X31455907Y-37913315D01*
X31423399Y-38076742D01*
X31359633Y-38230687D01*
X31267059Y-38369234D01*
X31149234Y-38487059D01*
X31010687Y-38579633D01*
X30856742Y-38643399D01*
X30693315Y-38675907D01*
X30526685Y-38675907D01*
X30363258Y-38643399D01*
X30209313Y-38579633D01*
X30070766Y-38487059D01*
X29952941Y-38369234D01*
X29860367Y-38230687D01*
X29796601Y-38076742D01*
X29764093Y-37913315D01*
X29764093Y-37746685D01*
X29796601Y-37583258D01*
X29860367Y-37429313D01*
X29952941Y-37290766D01*
X30070766Y-37172941D01*
X30209313Y-37080367D01*
X30363258Y-37016601D01*
X30526685Y-36984093D01*
X30693315Y-36984093D01*
X30856742Y-37016601D01*
G37*
G36*
X48636742Y-37016601D02*
G01*
X48790687Y-37080367D01*
X48929234Y-37172941D01*
X49047059Y-37290766D01*
X49139633Y-37429313D01*
X49203399Y-37583258D01*
X49235907Y-37746685D01*
X49235907Y-37913315D01*
X49203399Y-38076742D01*
X49139633Y-38230687D01*
X49047059Y-38369234D01*
X48929234Y-38487059D01*
X48790687Y-38579633D01*
X48636742Y-38643399D01*
X48473315Y-38675907D01*
X48306685Y-38675907D01*
X48143258Y-38643399D01*
X47989313Y-38579633D01*
X47850766Y-38487059D01*
X47732941Y-38369234D01*
X47640367Y-38230687D01*
X47576601Y-38076742D01*
X47544093Y-37913315D01*
X47544093Y-37746685D01*
X47576601Y-37583258D01*
X47640367Y-37429313D01*
X47732941Y-37290766D01*
X47850766Y-37172941D01*
X47989313Y-37080367D01*
X48143258Y-37016601D01*
X48306685Y-36984093D01*
X48473315Y-36984093D01*
X48636742Y-37016601D01*
G37*
G36*
X30856742Y-34476601D02*
G01*
X31010687Y-34540367D01*
X31149234Y-34632941D01*
X31267059Y-34750766D01*
X31359633Y-34889313D01*
X31423399Y-35043258D01*
X31455907Y-35206685D01*
X31455907Y-35373315D01*
X31423399Y-35536742D01*
X31359633Y-35690687D01*
X31267059Y-35829234D01*
X31149234Y-35947059D01*
X31010687Y-36039633D01*
X30856742Y-36103399D01*
X30693315Y-36135907D01*
X30526685Y-36135907D01*
X30363258Y-36103399D01*
X30209313Y-36039633D01*
X30070766Y-35947059D01*
X29952941Y-35829234D01*
X29860367Y-35690687D01*
X29796601Y-35536742D01*
X29764093Y-35373315D01*
X29764093Y-35206685D01*
X29796601Y-35043258D01*
X29860367Y-34889313D01*
X29952941Y-34750766D01*
X30070766Y-34632941D01*
X30209313Y-34540367D01*
X30363258Y-34476601D01*
X30526685Y-34444093D01*
X30693315Y-34444093D01*
X30856742Y-34476601D01*
G37*
G36*
X48636742Y-34476601D02*
G01*
X48790687Y-34540367D01*
X48929234Y-34632941D01*
X49047059Y-34750766D01*
X49139633Y-34889313D01*
X49203399Y-35043258D01*
X49235907Y-35206685D01*
X49235907Y-35373315D01*
X49203399Y-35536742D01*
X49139633Y-35690687D01*
X49047059Y-35829234D01*
X48929234Y-35947059D01*
X48790687Y-36039633D01*
X48636742Y-36103399D01*
X48473315Y-36135907D01*
X48306685Y-36135907D01*
X48143258Y-36103399D01*
X47989313Y-36039633D01*
X47850766Y-35947059D01*
X47732941Y-35829234D01*
X47640367Y-35690687D01*
X47576601Y-35536742D01*
X47544093Y-35373315D01*
X47544093Y-35206685D01*
X47576601Y-35043258D01*
X47640367Y-34889313D01*
X47732941Y-34750766D01*
X47850766Y-34632941D01*
X47989313Y-34540367D01*
X48143258Y-34476601D01*
X48306685Y-34444093D01*
X48473315Y-34444093D01*
X48636742Y-34476601D01*
G37*
G36*
X30856742Y-31936601D02*
G01*
X31010687Y-32000367D01*
X31149234Y-32092941D01*
X31267059Y-32210766D01*
X31359633Y-32349313D01*
X31423399Y-32503258D01*
X31455907Y-32666685D01*
X31455907Y-32833315D01*
X31423399Y-32996742D01*
X31359633Y-33150687D01*
X31267059Y-33289234D01*
X31149234Y-33407059D01*
X31010687Y-33499633D01*
X30856742Y-33563399D01*
X30693315Y-33595907D01*
X30526685Y-33595907D01*
X30363258Y-33563399D01*
X30209313Y-33499633D01*
X30070766Y-33407059D01*
X29952941Y-33289234D01*
X29860367Y-33150687D01*
X29796601Y-32996742D01*
X29764093Y-32833315D01*
X29764093Y-32666685D01*
X29796601Y-32503258D01*
X29860367Y-32349313D01*
X29952941Y-32210766D01*
X30070766Y-32092941D01*
X30209313Y-32000367D01*
X30363258Y-31936601D01*
X30526685Y-31904093D01*
X30693315Y-31904093D01*
X30856742Y-31936601D01*
G37*
G36*
X48636742Y-31936601D02*
G01*
X48790687Y-32000367D01*
X48929234Y-32092941D01*
X49047059Y-32210766D01*
X49139633Y-32349313D01*
X49203399Y-32503258D01*
X49235907Y-32666685D01*
X49235907Y-32833315D01*
X49203399Y-32996742D01*
X49139633Y-33150687D01*
X49047059Y-33289234D01*
X48929234Y-33407059D01*
X48790687Y-33499633D01*
X48636742Y-33563399D01*
X48473315Y-33595907D01*
X48306685Y-33595907D01*
X48143258Y-33563399D01*
X47989313Y-33499633D01*
X47850766Y-33407059D01*
X47732941Y-33289234D01*
X47640367Y-33150687D01*
X47576601Y-32996742D01*
X47544093Y-32833315D01*
X47544093Y-32666685D01*
X47576601Y-32503258D01*
X47640367Y-32349313D01*
X47732941Y-32210766D01*
X47850766Y-32092941D01*
X47989313Y-32000367D01*
X48143258Y-31936601D01*
X48306685Y-31904093D01*
X48473315Y-31904093D01*
X48636742Y-31936601D01*
G37*
G36*
X30856742Y-29396601D02*
G01*
X31010687Y-29460367D01*
X31149234Y-29552941D01*
X31267059Y-29670766D01*
X31359633Y-29809313D01*
X31423399Y-29963258D01*
X31455907Y-30126685D01*
X31455907Y-30293315D01*
X31423399Y-30456742D01*
X31359633Y-30610687D01*
X31267059Y-30749234D01*
X31149234Y-30867059D01*
X31010687Y-30959633D01*
X30856742Y-31023399D01*
X30693315Y-31055907D01*
X30526685Y-31055907D01*
X30363258Y-31023399D01*
X30209313Y-30959633D01*
X30070766Y-30867059D01*
X29952941Y-30749234D01*
X29860367Y-30610687D01*
X29796601Y-30456742D01*
X29764093Y-30293315D01*
X29764093Y-30126685D01*
X29796601Y-29963258D01*
X29860367Y-29809313D01*
X29952941Y-29670766D01*
X30070766Y-29552941D01*
X30209313Y-29460367D01*
X30363258Y-29396601D01*
X30526685Y-29364093D01*
X30693315Y-29364093D01*
X30856742Y-29396601D01*
G37*
G36*
X48636742Y-29396601D02*
G01*
X48790687Y-29460367D01*
X48929234Y-29552941D01*
X49047059Y-29670766D01*
X49139633Y-29809313D01*
X49203399Y-29963258D01*
X49235907Y-30126685D01*
X49235907Y-30293315D01*
X49203399Y-30456742D01*
X49139633Y-30610687D01*
X49047059Y-30749234D01*
X48929234Y-30867059D01*
X48790687Y-30959633D01*
X48636742Y-31023399D01*
X48473315Y-31055907D01*
X48306685Y-31055907D01*
X48143258Y-31023399D01*
X47989313Y-30959633D01*
X47850766Y-30867059D01*
X47732941Y-30749234D01*
X47640367Y-30610687D01*
X47576601Y-30456742D01*
X47544093Y-30293315D01*
X47544093Y-30126685D01*
X47576601Y-29963258D01*
X47640367Y-29809313D01*
X47732941Y-29670766D01*
X47850766Y-29552941D01*
X47989313Y-29460367D01*
X48143258Y-29396601D01*
X48306685Y-29364093D01*
X48473315Y-29364093D01*
X48636742Y-29396601D01*
G37*
G36*
X30856742Y-26856601D02*
G01*
X31010687Y-26920367D01*
X31149234Y-27012941D01*
X31267059Y-27130766D01*
X31359633Y-27269313D01*
X31423399Y-27423258D01*
X31455907Y-27586685D01*
X31455907Y-27753315D01*
X31423399Y-27916742D01*
X31359633Y-28070687D01*
X31267059Y-28209234D01*
X31149234Y-28327059D01*
X31010687Y-28419633D01*
X30856742Y-28483399D01*
X30693315Y-28515907D01*
X30526685Y-28515907D01*
X30363258Y-28483399D01*
X30209313Y-28419633D01*
X30070766Y-28327059D01*
X29952941Y-28209234D01*
X29860367Y-28070687D01*
X29796601Y-27916742D01*
X29764093Y-27753315D01*
X29764093Y-27586685D01*
X29796601Y-27423258D01*
X29860367Y-27269313D01*
X29952941Y-27130766D01*
X30070766Y-27012941D01*
X30209313Y-26920367D01*
X30363258Y-26856601D01*
X30526685Y-26824093D01*
X30693315Y-26824093D01*
X30856742Y-26856601D01*
G37*
G36*
X48636742Y-26856601D02*
G01*
X48790687Y-26920367D01*
X48929234Y-27012941D01*
X49047059Y-27130766D01*
X49139633Y-27269313D01*
X49203399Y-27423258D01*
X49235907Y-27586685D01*
X49235907Y-27753315D01*
X49203399Y-27916742D01*
X49139633Y-28070687D01*
X49047059Y-28209234D01*
X48929234Y-28327059D01*
X48790687Y-28419633D01*
X48636742Y-28483399D01*
X48473315Y-28515907D01*
X48306685Y-28515907D01*
X48143258Y-28483399D01*
X47989313Y-28419633D01*
X47850766Y-28327059D01*
X47732941Y-28209234D01*
X47640367Y-28070687D01*
X47576601Y-27916742D01*
X47544093Y-27753315D01*
X47544093Y-27586685D01*
X47576601Y-27423258D01*
X47640367Y-27269313D01*
X47732941Y-27130766D01*
X47850766Y-27012941D01*
X47989313Y-26920367D01*
X48143258Y-26856601D01*
X48306685Y-26824093D01*
X48473315Y-26824093D01*
X48636742Y-26856601D01*
G37*
G36*
X54596526Y-25952043D02*
G01*
X54647887Y-25958002D01*
X54665433Y-25965749D01*
X54688150Y-25970268D01*
X54712470Y-25986518D01*
X54733272Y-25995703D01*
X54747479Y-26009910D01*
X54769256Y-26024461D01*
X54783806Y-26046237D01*
X54798013Y-26060444D01*
X54807197Y-26081244D01*
X54823449Y-26105567D01*
X54827968Y-26128286D01*
X54835714Y-26145829D01*
X54841671Y-26197178D01*
X54842479Y-26201238D01*
X54842479Y-27301238D01*
X54841671Y-27305297D01*
X54835714Y-27356646D01*
X54827968Y-27374188D01*
X54823449Y-27396909D01*
X54807195Y-27421233D01*
X54798013Y-27442031D01*
X54783808Y-27456235D01*
X54769256Y-27478015D01*
X54747476Y-27492567D01*
X54733272Y-27506772D01*
X54712474Y-27515954D01*
X54688150Y-27532208D01*
X54665429Y-27536727D01*
X54647887Y-27544473D01*
X54596540Y-27550430D01*
X54592479Y-27551238D01*
X53492479Y-27551238D01*
X53488420Y-27550430D01*
X53437070Y-27544473D01*
X53419527Y-27536727D01*
X53396808Y-27532208D01*
X53372485Y-27515956D01*
X53351685Y-27506772D01*
X53337478Y-27492565D01*
X53315702Y-27478015D01*
X53301151Y-27456238D01*
X53286944Y-27442031D01*
X53277759Y-27421229D01*
X53261509Y-27396909D01*
X53256990Y-27374192D01*
X53249243Y-27356646D01*
X53243284Y-27305287D01*
X53242479Y-27301238D01*
X53242479Y-26201238D01*
X53243283Y-26197191D01*
X53249243Y-26145829D01*
X53256990Y-26128281D01*
X53261509Y-26105567D01*
X53277757Y-26081248D01*
X53286944Y-26060444D01*
X53301153Y-26046234D01*
X53315702Y-26024461D01*
X53337475Y-26009912D01*
X53351685Y-25995703D01*
X53372489Y-25986516D01*
X53396808Y-25970268D01*
X53419522Y-25965749D01*
X53437070Y-25958002D01*
X53488431Y-25952043D01*
X53492479Y-25951238D01*
X54592479Y-25951238D01*
X54596526Y-25952043D01*
G37*
G36*
X57774707Y-25985686D02*
G01*
X57919596Y-26045701D01*
X58049994Y-26132830D01*
X58160887Y-26243723D01*
X58248016Y-26374121D01*
X58308031Y-26519010D01*
X58338627Y-26672824D01*
X58338627Y-26829652D01*
X58308031Y-26983466D01*
X58248016Y-27128355D01*
X58160887Y-27258753D01*
X58049994Y-27369646D01*
X57919596Y-27456775D01*
X57774707Y-27516790D01*
X57620893Y-27547386D01*
X57464065Y-27547386D01*
X57310251Y-27516790D01*
X57165362Y-27456775D01*
X57034964Y-27369646D01*
X56924071Y-27258753D01*
X56836942Y-27128355D01*
X56776927Y-26983466D01*
X56746331Y-26829652D01*
X56746331Y-26672824D01*
X56776927Y-26519010D01*
X56836942Y-26374121D01*
X56924071Y-26243723D01*
X57034964Y-26132830D01*
X57165362Y-26045701D01*
X57310251Y-25985686D01*
X57464065Y-25955090D01*
X57620893Y-25955090D01*
X57774707Y-25985686D01*
G37*
G36*
X64950000Y-26000000D02*
G01*
X63250000Y-26000000D01*
X63250000Y-23500000D01*
X64950000Y-23500000D01*
X64950000Y-26000000D01*
G37*
G36*
X66886742Y-23536601D02*
G01*
X67040687Y-23600367D01*
X67179234Y-23692941D01*
X67297059Y-23810766D01*
X67389633Y-23949313D01*
X67453399Y-24103258D01*
X67485907Y-24266685D01*
X67490000Y-24350000D01*
X67490000Y-25150000D01*
X67485907Y-25233315D01*
X67453399Y-25396742D01*
X67389633Y-25550687D01*
X67297059Y-25689234D01*
X67179234Y-25807059D01*
X67040687Y-25899633D01*
X66886742Y-25963399D01*
X66723315Y-25995907D01*
X66556685Y-25995907D01*
X66393258Y-25963399D01*
X66239313Y-25899633D01*
X66100766Y-25807059D01*
X65982941Y-25689234D01*
X65890367Y-25550687D01*
X65826601Y-25396742D01*
X65794093Y-25233315D01*
X65790000Y-25150000D01*
X65790000Y-24350000D01*
X65794093Y-24266685D01*
X65826601Y-24103258D01*
X65890367Y-23949313D01*
X65982941Y-23810766D01*
X66100766Y-23692941D01*
X66239313Y-23600367D01*
X66393258Y-23536601D01*
X66556685Y-23504093D01*
X66723315Y-23504093D01*
X66886742Y-23536601D01*
G37*
G36*
X69426742Y-23536601D02*
G01*
X69580687Y-23600367D01*
X69719234Y-23692941D01*
X69837059Y-23810766D01*
X69929633Y-23949313D01*
X69993399Y-24103258D01*
X70025907Y-24266685D01*
X70030000Y-24350000D01*
X70030000Y-25150000D01*
X70025907Y-25233315D01*
X69993399Y-25396742D01*
X69929633Y-25550687D01*
X69837059Y-25689234D01*
X69719234Y-25807059D01*
X69580687Y-25899633D01*
X69426742Y-25963399D01*
X69263315Y-25995907D01*
X69096685Y-25995907D01*
X68933258Y-25963399D01*
X68779313Y-25899633D01*
X68640766Y-25807059D01*
X68522941Y-25689234D01*
X68430367Y-25550687D01*
X68366601Y-25396742D01*
X68334093Y-25233315D01*
X68330000Y-25150000D01*
X68330000Y-24350000D01*
X68334093Y-24266685D01*
X68366601Y-24103258D01*
X68430367Y-23949313D01*
X68522941Y-23810766D01*
X68640766Y-23692941D01*
X68779313Y-23600367D01*
X68933258Y-23536601D01*
X69096685Y-23504093D01*
X69263315Y-23504093D01*
X69426742Y-23536601D01*
G37*
G36*
X30856742Y-24316601D02*
G01*
X31010687Y-24380367D01*
X31149234Y-24472941D01*
X31267059Y-24590766D01*
X31359633Y-24729313D01*
X31423399Y-24883258D01*
X31455907Y-25046685D01*
X31455907Y-25213315D01*
X31423399Y-25376742D01*
X31359633Y-25530687D01*
X31267059Y-25669234D01*
X31149234Y-25787059D01*
X31010687Y-25879633D01*
X30856742Y-25943399D01*
X30693315Y-25975907D01*
X30526685Y-25975907D01*
X30363258Y-25943399D01*
X30209313Y-25879633D01*
X30070766Y-25787059D01*
X29952941Y-25669234D01*
X29860367Y-25530687D01*
X29796601Y-25376742D01*
X29764093Y-25213315D01*
X29764093Y-25046685D01*
X29796601Y-24883258D01*
X29860367Y-24729313D01*
X29952941Y-24590766D01*
X30070766Y-24472941D01*
X30209313Y-24380367D01*
X30363258Y-24316601D01*
X30526685Y-24284093D01*
X30693315Y-24284093D01*
X30856742Y-24316601D01*
G37*
G36*
X48636742Y-24316601D02*
G01*
X48790687Y-24380367D01*
X48929234Y-24472941D01*
X49047059Y-24590766D01*
X49139633Y-24729313D01*
X49203399Y-24883258D01*
X49235907Y-25046685D01*
X49235907Y-25213315D01*
X49203399Y-25376742D01*
X49139633Y-25530687D01*
X49047059Y-25669234D01*
X48929234Y-25787059D01*
X48790687Y-25879633D01*
X48636742Y-25943399D01*
X48473315Y-25975907D01*
X48306685Y-25975907D01*
X48143258Y-25943399D01*
X47989313Y-25879633D01*
X47850766Y-25787059D01*
X47732941Y-25669234D01*
X47640367Y-25530687D01*
X47576601Y-25376742D01*
X47544093Y-25213315D01*
X47544093Y-25046685D01*
X47576601Y-24883258D01*
X47640367Y-24729313D01*
X47732941Y-24590766D01*
X47850766Y-24472941D01*
X47989313Y-24380367D01*
X48143258Y-24316601D01*
X48306685Y-24284093D01*
X48473315Y-24284093D01*
X48636742Y-24316601D01*
G37*
G36*
X36804046Y-22400805D02*
G01*
X36855407Y-22406764D01*
X36872953Y-22414511D01*
X36895670Y-22419030D01*
X36919987Y-22435278D01*
X36940793Y-22444465D01*
X36955004Y-22458676D01*
X36976776Y-22473224D01*
X36991323Y-22494995D01*
X37005534Y-22509206D01*
X37014719Y-22530010D01*
X37030970Y-22554330D01*
X37035488Y-22577047D01*
X37043235Y-22594592D01*
X37049196Y-22645966D01*
X37049999Y-22650002D01*
X37049999Y-22652883D01*
X37050000Y-22652892D01*
X37050000Y-23600367D01*
X37050000Y-24549999D01*
X37049194Y-24554048D01*
X37043235Y-24605407D01*
X37035489Y-24622949D01*
X37030970Y-24645670D01*
X37014718Y-24669991D01*
X37005534Y-24690793D01*
X36991325Y-24705001D01*
X36976776Y-24726776D01*
X36955001Y-24741325D01*
X36940793Y-24755534D01*
X36919991Y-24764718D01*
X36895670Y-24780970D01*
X36872950Y-24785488D01*
X36855407Y-24793235D01*
X36804034Y-24799196D01*
X36799998Y-24799999D01*
X36797115Y-24799999D01*
X36797107Y-24800000D01*
X34902893Y-24800000D01*
X34902892Y-24799999D01*
X34900001Y-24800000D01*
X34895951Y-24799194D01*
X34844592Y-24793235D01*
X34827048Y-24785488D01*
X34804330Y-24780970D01*
X34780010Y-24764719D01*
X34759206Y-24755534D01*
X34744995Y-24741323D01*
X34723224Y-24726776D01*
X34708676Y-24705004D01*
X34694465Y-24690793D01*
X34685278Y-24669987D01*
X34669030Y-24645670D01*
X34664511Y-24622954D01*
X34656764Y-24605407D01*
X34650803Y-24554033D01*
X34650001Y-24549998D01*
X34650000Y-24547115D01*
X34650000Y-24547107D01*
X34650000Y-22652892D01*
X34650000Y-22652891D01*
X34650000Y-22650001D01*
X34650804Y-22645954D01*
X34656764Y-22594592D01*
X34664511Y-22577044D01*
X34669030Y-22554330D01*
X34685277Y-22530014D01*
X34694465Y-22509206D01*
X34708678Y-22494992D01*
X34723224Y-22473224D01*
X34744992Y-22458678D01*
X34759206Y-22444465D01*
X34780014Y-22435277D01*
X34804330Y-22419030D01*
X34827043Y-22414512D01*
X34844592Y-22406764D01*
X34895967Y-22400803D01*
X34900002Y-22400001D01*
X34902884Y-22400000D01*
X34902893Y-22400000D01*
X36797107Y-22400000D01*
X36799999Y-22400000D01*
X36804046Y-22400805D01*
G37*
G36*
X39630134Y-22433156D02*
G01*
X39809220Y-22491345D01*
X39976998Y-22576832D01*
X40129338Y-22687513D01*
X40262487Y-22820662D01*
X40373168Y-22973002D01*
X40458655Y-23140780D01*
X40516844Y-23319866D01*
X40546301Y-23505849D01*
X40546301Y-23694151D01*
X40516844Y-23880134D01*
X40458655Y-24059220D01*
X40373168Y-24226998D01*
X40262487Y-24379338D01*
X40129338Y-24512487D01*
X39976998Y-24623168D01*
X39809220Y-24708655D01*
X39630134Y-24766844D01*
X39444151Y-24796301D01*
X39255849Y-24796301D01*
X39069866Y-24766844D01*
X38890780Y-24708655D01*
X38723002Y-24623168D01*
X38570662Y-24512487D01*
X38437513Y-24379338D01*
X38326832Y-24226998D01*
X38241345Y-24059220D01*
X38183156Y-23880134D01*
X38153699Y-23694151D01*
X38153699Y-23505849D01*
X38183156Y-23319866D01*
X38241345Y-23140780D01*
X38326832Y-22973002D01*
X38437513Y-22820662D01*
X38570662Y-22687513D01*
X38723002Y-22576832D01*
X38890780Y-22491345D01*
X39069866Y-22433156D01*
X39255849Y-22403699D01*
X39444151Y-22403699D01*
X39630134Y-22433156D01*
G37*
G36*
X30856742Y-21776601D02*
G01*
X31010687Y-21840367D01*
X31149234Y-21932941D01*
X31267059Y-22050766D01*
X31359633Y-22189313D01*
X31423399Y-22343258D01*
X31455907Y-22506685D01*
X31455907Y-22673315D01*
X31423399Y-22836742D01*
X31359633Y-22990687D01*
X31267059Y-23129234D01*
X31149234Y-23247059D01*
X31010687Y-23339633D01*
X30856742Y-23403399D01*
X30693315Y-23435907D01*
X30526685Y-23435907D01*
X30363258Y-23403399D01*
X30209313Y-23339633D01*
X30070766Y-23247059D01*
X29952941Y-23129234D01*
X29860367Y-22990687D01*
X29796601Y-22836742D01*
X29764093Y-22673315D01*
X29764093Y-22506685D01*
X29796601Y-22343258D01*
X29860367Y-22189313D01*
X29952941Y-22050766D01*
X30070766Y-21932941D01*
X30209313Y-21840367D01*
X30363258Y-21776601D01*
X30526685Y-21744093D01*
X30693315Y-21744093D01*
X30856742Y-21776601D01*
G37*
G36*
X48636742Y-21776601D02*
G01*
X48790687Y-21840367D01*
X48929234Y-21932941D01*
X49047059Y-22050766D01*
X49139633Y-22189313D01*
X49203399Y-22343258D01*
X49235907Y-22506685D01*
X49235907Y-22673315D01*
X49203399Y-22836742D01*
X49139633Y-22990687D01*
X49047059Y-23129234D01*
X48929234Y-23247059D01*
X48790687Y-23339633D01*
X48636742Y-23403399D01*
X48473315Y-23435907D01*
X48306685Y-23435907D01*
X48143258Y-23403399D01*
X47989313Y-23339633D01*
X47850766Y-23247059D01*
X47732941Y-23129234D01*
X47640367Y-22990687D01*
X47576601Y-22836742D01*
X47544093Y-22673315D01*
X47544093Y-22506685D01*
X47576601Y-22343258D01*
X47640367Y-22189313D01*
X47732941Y-22050766D01*
X47850766Y-21932941D01*
X47989313Y-21840367D01*
X48143258Y-21776601D01*
X48306685Y-21744093D01*
X48473315Y-21744093D01*
X48636742Y-21776601D01*
G37*
G36*
X30856742Y-19236601D02*
G01*
X31010687Y-19300367D01*
X31149234Y-19392941D01*
X31267059Y-19510766D01*
X31359633Y-19649313D01*
X31423399Y-19803258D01*
X31455907Y-19966685D01*
X31455907Y-20133315D01*
X31423399Y-20296742D01*
X31359633Y-20450687D01*
X31267059Y-20589234D01*
X31149234Y-20707059D01*
X31010687Y-20799633D01*
X30856742Y-20863399D01*
X30693315Y-20895907D01*
X30526685Y-20895907D01*
X30363258Y-20863399D01*
X30209313Y-20799633D01*
X30070766Y-20707059D01*
X29952941Y-20589234D01*
X29860367Y-20450687D01*
X29796601Y-20296742D01*
X29764093Y-20133315D01*
X29764093Y-19966685D01*
X29796601Y-19803258D01*
X29860367Y-19649313D01*
X29952941Y-19510766D01*
X30070766Y-19392941D01*
X30209313Y-19300367D01*
X30363258Y-19236601D01*
X30526685Y-19204093D01*
X30693315Y-19204093D01*
X30856742Y-19236601D01*
G37*
G36*
X48636742Y-19236601D02*
G01*
X48790687Y-19300367D01*
X48929234Y-19392941D01*
X49047059Y-19510766D01*
X49139633Y-19649313D01*
X49203399Y-19803258D01*
X49235907Y-19966685D01*
X49235907Y-20133315D01*
X49203399Y-20296742D01*
X49139633Y-20450687D01*
X49047059Y-20589234D01*
X48929234Y-20707059D01*
X48790687Y-20799633D01*
X48636742Y-20863399D01*
X48473315Y-20895907D01*
X48306685Y-20895907D01*
X48143258Y-20863399D01*
X47989313Y-20799633D01*
X47850766Y-20707059D01*
X47732941Y-20589234D01*
X47640367Y-20450687D01*
X47576601Y-20296742D01*
X47544093Y-20133315D01*
X47544093Y-19966685D01*
X47576601Y-19803258D01*
X47640367Y-19649313D01*
X47732941Y-19510766D01*
X47850766Y-19392941D01*
X47989313Y-19300367D01*
X48143258Y-19236601D01*
X48306685Y-19204093D01*
X48473315Y-19204093D01*
X48636742Y-19236601D01*
G37*
G36*
X30856742Y-16696601D02*
G01*
X31010687Y-16760367D01*
X31149234Y-16852941D01*
X31267059Y-16970766D01*
X31359633Y-17109313D01*
X31423399Y-17263258D01*
X31455907Y-17426685D01*
X31455907Y-17593315D01*
X31423399Y-17756742D01*
X31359633Y-17910687D01*
X31267059Y-18049234D01*
X31149234Y-18167059D01*
X31010687Y-18259633D01*
X30856742Y-18323399D01*
X30693315Y-18355907D01*
X30526685Y-18355907D01*
X30363258Y-18323399D01*
X30209313Y-18259633D01*
X30070766Y-18167059D01*
X29952941Y-18049234D01*
X29860367Y-17910687D01*
X29796601Y-17756742D01*
X29764093Y-17593315D01*
X29764093Y-17426685D01*
X29796601Y-17263258D01*
X29860367Y-17109313D01*
X29952941Y-16970766D01*
X30070766Y-16852941D01*
X30209313Y-16760367D01*
X30363258Y-16696601D01*
X30526685Y-16664093D01*
X30693315Y-16664093D01*
X30856742Y-16696601D01*
G37*
G36*
X48636742Y-16696601D02*
G01*
X48790687Y-16760367D01*
X48929234Y-16852941D01*
X49047059Y-16970766D01*
X49139633Y-17109313D01*
X49203399Y-17263258D01*
X49235907Y-17426685D01*
X49235907Y-17593315D01*
X49203399Y-17756742D01*
X49139633Y-17910687D01*
X49047059Y-18049234D01*
X48929234Y-18167059D01*
X48790687Y-18259633D01*
X48636742Y-18323399D01*
X48473315Y-18355907D01*
X48306685Y-18355907D01*
X48143258Y-18323399D01*
X47989313Y-18259633D01*
X47850766Y-18167059D01*
X47732941Y-18049234D01*
X47640367Y-17910687D01*
X47576601Y-17756742D01*
X47544093Y-17593315D01*
X47544093Y-17426685D01*
X47576601Y-17263258D01*
X47640367Y-17109313D01*
X47732941Y-16970766D01*
X47850766Y-16852941D01*
X47989313Y-16760367D01*
X48143258Y-16696601D01*
X48306685Y-16664093D01*
X48473315Y-16664093D01*
X48636742Y-16696601D01*
G37*
G36*
X30856742Y-14156601D02*
G01*
X31010687Y-14220367D01*
X31149234Y-14312941D01*
X31267059Y-14430766D01*
X31359633Y-14569313D01*
X31423399Y-14723258D01*
X31455907Y-14886685D01*
X31455907Y-15053315D01*
X31423399Y-15216742D01*
X31359633Y-15370687D01*
X31267059Y-15509234D01*
X31149234Y-15627059D01*
X31010687Y-15719633D01*
X30856742Y-15783399D01*
X30693315Y-15815907D01*
X30526685Y-15815907D01*
X30363258Y-15783399D01*
X30209313Y-15719633D01*
X30070766Y-15627059D01*
X29952941Y-15509234D01*
X29860367Y-15370687D01*
X29796601Y-15216742D01*
X29764093Y-15053315D01*
X29764093Y-14886685D01*
X29796601Y-14723258D01*
X29860367Y-14569313D01*
X29952941Y-14430766D01*
X30070766Y-14312941D01*
X30209313Y-14220367D01*
X30363258Y-14156601D01*
X30526685Y-14124093D01*
X30693315Y-14124093D01*
X30856742Y-14156601D01*
G37*
G36*
X48636742Y-14156601D02*
G01*
X48790687Y-14220367D01*
X48929234Y-14312941D01*
X49047059Y-14430766D01*
X49139633Y-14569313D01*
X49203399Y-14723258D01*
X49235907Y-14886685D01*
X49235907Y-15053315D01*
X49203399Y-15216742D01*
X49139633Y-15370687D01*
X49047059Y-15509234D01*
X48929234Y-15627059D01*
X48790687Y-15719633D01*
X48636742Y-15783399D01*
X48473315Y-15815907D01*
X48306685Y-15815907D01*
X48143258Y-15783399D01*
X47989313Y-15719633D01*
X47850766Y-15627059D01*
X47732941Y-15509234D01*
X47640367Y-15370687D01*
X47576601Y-15216742D01*
X47544093Y-15053315D01*
X47544093Y-14886685D01*
X47576601Y-14723258D01*
X47640367Y-14569313D01*
X47732941Y-14430766D01*
X47850766Y-14312941D01*
X47989313Y-14220367D01*
X48143258Y-14156601D01*
X48306685Y-14124093D01*
X48473315Y-14124093D01*
X48636742Y-14156601D01*
G37*
G36*
X30856742Y-11616601D02*
G01*
X31010687Y-11680367D01*
X31149234Y-11772941D01*
X31267059Y-11890766D01*
X31359633Y-12029313D01*
X31423399Y-12183258D01*
X31455907Y-12346685D01*
X31455907Y-12513315D01*
X31423399Y-12676742D01*
X31359633Y-12830687D01*
X31267059Y-12969234D01*
X31149234Y-13087059D01*
X31010687Y-13179633D01*
X30856742Y-13243399D01*
X30693315Y-13275907D01*
X30526685Y-13275907D01*
X30363258Y-13243399D01*
X30209313Y-13179633D01*
X30070766Y-13087059D01*
X29952941Y-12969234D01*
X29860367Y-12830687D01*
X29796601Y-12676742D01*
X29764093Y-12513315D01*
X29764093Y-12346685D01*
X29796601Y-12183258D01*
X29860367Y-12029313D01*
X29952941Y-11890766D01*
X30070766Y-11772941D01*
X30209313Y-11680367D01*
X30363258Y-11616601D01*
X30526685Y-11584093D01*
X30693315Y-11584093D01*
X30856742Y-11616601D01*
G37*
G36*
X48636742Y-11616601D02*
G01*
X48790687Y-11680367D01*
X48929234Y-11772941D01*
X49047059Y-11890766D01*
X49139633Y-12029313D01*
X49203399Y-12183258D01*
X49235907Y-12346685D01*
X49235907Y-12513315D01*
X49203399Y-12676742D01*
X49139633Y-12830687D01*
X49047059Y-12969234D01*
X48929234Y-13087059D01*
X48790687Y-13179633D01*
X48636742Y-13243399D01*
X48473315Y-13275907D01*
X48306685Y-13275907D01*
X48143258Y-13243399D01*
X47989313Y-13179633D01*
X47850766Y-13087059D01*
X47732941Y-12969234D01*
X47640367Y-12830687D01*
X47576601Y-12676742D01*
X47544093Y-12513315D01*
X47544093Y-12346685D01*
X47576601Y-12183258D01*
X47640367Y-12029313D01*
X47732941Y-11890766D01*
X47850766Y-11772941D01*
X47989313Y-11680367D01*
X48143258Y-11616601D01*
X48306685Y-11584093D01*
X48473315Y-11584093D01*
X48636742Y-11616601D01*
G37*
G36*
X30856742Y-9076601D02*
G01*
X31010687Y-9140367D01*
X31149234Y-9232941D01*
X31267059Y-9350766D01*
X31359633Y-9489313D01*
X31423399Y-9643258D01*
X31455907Y-9806685D01*
X31455907Y-9973315D01*
X31423399Y-10136742D01*
X31359633Y-10290687D01*
X31267059Y-10429234D01*
X31149234Y-10547059D01*
X31010687Y-10639633D01*
X30856742Y-10703399D01*
X30693315Y-10735907D01*
X30526685Y-10735907D01*
X30363258Y-10703399D01*
X30209313Y-10639633D01*
X30070766Y-10547059D01*
X29952941Y-10429234D01*
X29860367Y-10290687D01*
X29796601Y-10136742D01*
X29764093Y-9973315D01*
X29764093Y-9806685D01*
X29796601Y-9643258D01*
X29860367Y-9489313D01*
X29952941Y-9350766D01*
X30070766Y-9232941D01*
X30209313Y-9140367D01*
X30363258Y-9076601D01*
X30526685Y-9044093D01*
X30693315Y-9044093D01*
X30856742Y-9076601D01*
G37*
G36*
X48636742Y-9076601D02*
G01*
X48790687Y-9140367D01*
X48929234Y-9232941D01*
X49047059Y-9350766D01*
X49139633Y-9489313D01*
X49203399Y-9643258D01*
X49235907Y-9806685D01*
X49235907Y-9973315D01*
X49203399Y-10136742D01*
X49139633Y-10290687D01*
X49047059Y-10429234D01*
X48929234Y-10547059D01*
X48790687Y-10639633D01*
X48636742Y-10703399D01*
X48473315Y-10735907D01*
X48306685Y-10735907D01*
X48143258Y-10703399D01*
X47989313Y-10639633D01*
X47850766Y-10547059D01*
X47732941Y-10429234D01*
X47640367Y-10290687D01*
X47576601Y-10136742D01*
X47544093Y-9973315D01*
X47544093Y-9806685D01*
X47576601Y-9643258D01*
X47640367Y-9489313D01*
X47732941Y-9350766D01*
X47850766Y-9232941D01*
X47989313Y-9140367D01*
X48143258Y-9076601D01*
X48306685Y-9044093D01*
X48473315Y-9044093D01*
X48636742Y-9076601D01*
G37*
G36*
X30856742Y-6536601D02*
G01*
X31010687Y-6600367D01*
X31149234Y-6692941D01*
X31267059Y-6810766D01*
X31359633Y-6949313D01*
X31423399Y-7103258D01*
X31455907Y-7266685D01*
X31455907Y-7433315D01*
X31423399Y-7596742D01*
X31359633Y-7750687D01*
X31267059Y-7889234D01*
X31149234Y-8007059D01*
X31010687Y-8099633D01*
X30856742Y-8163399D01*
X30693315Y-8195907D01*
X30526685Y-8195907D01*
X30363258Y-8163399D01*
X30209313Y-8099633D01*
X30070766Y-8007059D01*
X29952941Y-7889234D01*
X29860367Y-7750687D01*
X29796601Y-7596742D01*
X29764093Y-7433315D01*
X29764093Y-7266685D01*
X29796601Y-7103258D01*
X29860367Y-6949313D01*
X29952941Y-6810766D01*
X30070766Y-6692941D01*
X30209313Y-6600367D01*
X30363258Y-6536601D01*
X30526685Y-6504093D01*
X30693315Y-6504093D01*
X30856742Y-6536601D01*
G37*
G36*
X48636742Y-6536601D02*
G01*
X48790687Y-6600367D01*
X48929234Y-6692941D01*
X49047059Y-6810766D01*
X49139633Y-6949313D01*
X49203399Y-7103258D01*
X49235907Y-7266685D01*
X49235907Y-7433315D01*
X49203399Y-7596742D01*
X49139633Y-7750687D01*
X49047059Y-7889234D01*
X48929234Y-8007059D01*
X48790687Y-8099633D01*
X48636742Y-8163399D01*
X48473315Y-8195907D01*
X48306685Y-8195907D01*
X48143258Y-8163399D01*
X47989313Y-8099633D01*
X47850766Y-8007059D01*
X47732941Y-7889234D01*
X47640367Y-7750687D01*
X47576601Y-7596742D01*
X47544093Y-7433315D01*
X47544093Y-7266685D01*
X47576601Y-7103258D01*
X47640367Y-6949313D01*
X47732941Y-6810766D01*
X47850766Y-6692941D01*
X47989313Y-6600367D01*
X48143258Y-6536601D01*
X48306685Y-6504093D01*
X48473315Y-6504093D01*
X48636742Y-6536601D01*
G37*
G36*
X54744046Y-5400805D02*
G01*
X54795407Y-5406764D01*
X54812953Y-5414511D01*
X54835670Y-5419030D01*
X54859987Y-5435278D01*
X54880793Y-5444465D01*
X54895004Y-5458676D01*
X54916776Y-5473224D01*
X54931323Y-5494995D01*
X54945534Y-5509206D01*
X54954719Y-5530010D01*
X54970970Y-5554330D01*
X54975488Y-5577047D01*
X54983235Y-5594592D01*
X54989196Y-5645966D01*
X54989999Y-5650002D01*
X54989999Y-5652883D01*
X54990000Y-5652892D01*
X54990000Y-6600367D01*
X54990000Y-7549999D01*
X54989194Y-7554048D01*
X54983235Y-7605407D01*
X54975489Y-7622949D01*
X54970970Y-7645670D01*
X54954718Y-7669991D01*
X54945534Y-7690793D01*
X54931325Y-7705001D01*
X54916776Y-7726776D01*
X54895001Y-7741325D01*
X54880793Y-7755534D01*
X54859991Y-7764718D01*
X54835670Y-7780970D01*
X54812950Y-7785488D01*
X54795407Y-7793235D01*
X54744034Y-7799196D01*
X54739998Y-7799999D01*
X54737115Y-7799999D01*
X54737107Y-7800000D01*
X52842893Y-7800000D01*
X52842892Y-7799999D01*
X52840001Y-7800000D01*
X52835951Y-7799194D01*
X52784592Y-7793235D01*
X52767048Y-7785488D01*
X52744330Y-7780970D01*
X52720010Y-7764719D01*
X52699206Y-7755534D01*
X52684995Y-7741323D01*
X52663224Y-7726776D01*
X52648676Y-7705004D01*
X52634465Y-7690793D01*
X52625278Y-7669987D01*
X52609030Y-7645670D01*
X52604511Y-7622954D01*
X52596764Y-7605407D01*
X52590803Y-7554033D01*
X52590001Y-7549998D01*
X52590000Y-7547115D01*
X52590000Y-7547107D01*
X52590000Y-5652892D01*
X52590000Y-5652891D01*
X52590000Y-5650001D01*
X52590804Y-5645954D01*
X52596764Y-5594592D01*
X52604511Y-5577044D01*
X52609030Y-5554330D01*
X52625277Y-5530014D01*
X52634465Y-5509206D01*
X52648678Y-5494992D01*
X52663224Y-5473224D01*
X52684992Y-5458678D01*
X52699206Y-5444465D01*
X52720014Y-5435277D01*
X52744330Y-5419030D01*
X52767043Y-5414512D01*
X52784592Y-5406764D01*
X52835967Y-5400803D01*
X52840002Y-5400001D01*
X52842884Y-5400000D01*
X52842893Y-5400000D01*
X54737107Y-5400000D01*
X54739999Y-5400000D01*
X54744046Y-5400805D01*
G37*
G36*
X57570134Y-5433156D02*
G01*
X57749220Y-5491345D01*
X57916998Y-5576832D01*
X58069338Y-5687513D01*
X58202487Y-5820662D01*
X58313168Y-5973002D01*
X58398655Y-6140780D01*
X58456844Y-6319866D01*
X58486301Y-6505849D01*
X58486301Y-6694151D01*
X58456844Y-6880134D01*
X58398655Y-7059220D01*
X58313168Y-7226998D01*
X58202487Y-7379338D01*
X58069338Y-7512487D01*
X57916998Y-7623168D01*
X57749220Y-7708655D01*
X57570134Y-7766844D01*
X57384151Y-7796301D01*
X57195849Y-7796301D01*
X57009866Y-7766844D01*
X56830780Y-7708655D01*
X56663002Y-7623168D01*
X56510662Y-7512487D01*
X56377513Y-7379338D01*
X56266832Y-7226998D01*
X56181345Y-7059220D01*
X56123156Y-6880134D01*
X56093699Y-6694151D01*
X56093699Y-6505849D01*
X56123156Y-6319866D01*
X56181345Y-6140780D01*
X56266832Y-5973002D01*
X56377513Y-5820662D01*
X56510662Y-5687513D01*
X56663002Y-5576832D01*
X56830780Y-5491345D01*
X57009866Y-5433156D01*
X57195849Y-5403699D01*
X57384151Y-5403699D01*
X57570134Y-5433156D01*
G37*
G36*
X20190000Y-5790000D02*
G01*
X17680000Y-5790000D01*
X17680000Y-4790000D01*
X20190000Y-4790000D01*
X20190000Y-5790000D01*
G37*
G36*
X30856742Y-3996601D02*
G01*
X31010687Y-4060367D01*
X31149234Y-4152941D01*
X31267059Y-4270766D01*
X31359633Y-4409313D01*
X31423399Y-4563258D01*
X31455907Y-4726685D01*
X31455907Y-4893315D01*
X31423399Y-5056742D01*
X31359633Y-5210687D01*
X31267059Y-5349234D01*
X31149234Y-5467059D01*
X31010687Y-5559633D01*
X30856742Y-5623399D01*
X30693315Y-5655907D01*
X30526685Y-5655907D01*
X30363258Y-5623399D01*
X30209313Y-5559633D01*
X30070766Y-5467059D01*
X29952941Y-5349234D01*
X29860367Y-5210687D01*
X29796601Y-5056742D01*
X29764093Y-4893315D01*
X29764093Y-4726685D01*
X29796601Y-4563258D01*
X29860367Y-4409313D01*
X29952941Y-4270766D01*
X30070766Y-4152941D01*
X30209313Y-4060367D01*
X30363258Y-3996601D01*
X30526685Y-3964093D01*
X30693315Y-3964093D01*
X30856742Y-3996601D01*
G37*
G36*
X48636742Y-3996601D02*
G01*
X48790687Y-4060367D01*
X48929234Y-4152941D01*
X49047059Y-4270766D01*
X49139633Y-4409313D01*
X49203399Y-4563258D01*
X49235907Y-4726685D01*
X49235907Y-4893315D01*
X49203399Y-5056742D01*
X49139633Y-5210687D01*
X49047059Y-5349234D01*
X48929234Y-5467059D01*
X48790687Y-5559633D01*
X48636742Y-5623399D01*
X48473315Y-5655907D01*
X48306685Y-5655907D01*
X48143258Y-5623399D01*
X47989313Y-5559633D01*
X47850766Y-5467059D01*
X47732941Y-5349234D01*
X47640367Y-5210687D01*
X47576601Y-5056742D01*
X47544093Y-4893315D01*
X47544093Y-4726685D01*
X47576601Y-4563258D01*
X47640367Y-4409313D01*
X47732941Y-4270766D01*
X47850766Y-4152941D01*
X47989313Y-4060367D01*
X48143258Y-3996601D01*
X48306685Y-3964093D01*
X48473315Y-3964093D01*
X48636742Y-3996601D01*
G37*
G36*
X4373513Y-2444208D02*
G01*
X4612293Y-2521793D01*
X4835998Y-2635776D01*
X5039117Y-2783350D01*
X5216650Y-2960883D01*
X5364224Y-3164002D01*
X5478207Y-3387707D01*
X5555792Y-3626487D01*
X5595068Y-3874465D01*
X5595068Y-4125535D01*
X5555792Y-4373513D01*
X5478207Y-4612293D01*
X5364224Y-4835998D01*
X5216650Y-5039117D01*
X5039117Y-5216650D01*
X4835998Y-5364224D01*
X4612293Y-5478207D01*
X4373513Y-5555792D01*
X4125535Y-5595068D01*
X3874465Y-5595068D01*
X3626487Y-5555792D01*
X3387707Y-5478207D01*
X3164002Y-5364224D01*
X2960883Y-5216650D01*
X2783350Y-5039117D01*
X2635776Y-4835998D01*
X2521793Y-4612293D01*
X2444208Y-4373513D01*
X2404932Y-4125535D01*
X2404932Y-3874465D01*
X2444208Y-3626487D01*
X2521793Y-3387707D01*
X2635776Y-3164002D01*
X2783350Y-2960883D01*
X2960883Y-2783350D01*
X3164002Y-2635776D01*
X3387707Y-2521793D01*
X3626487Y-2444208D01*
X3874465Y-2404932D01*
X4125535Y-2404932D01*
X4373513Y-2444208D01*
G37*
G36*
X71373513Y-2444208D02*
G01*
X71612293Y-2521793D01*
X71835998Y-2635776D01*
X72039117Y-2783350D01*
X72216650Y-2960883D01*
X72364224Y-3164002D01*
X72478207Y-3387707D01*
X72555792Y-3626487D01*
X72595068Y-3874465D01*
X72595068Y-4125535D01*
X72555792Y-4373513D01*
X72478207Y-4612293D01*
X72364224Y-4835998D01*
X72216650Y-5039117D01*
X72039117Y-5216650D01*
X71835998Y-5364224D01*
X71612293Y-5478207D01*
X71373513Y-5555792D01*
X71125535Y-5595068D01*
X70874465Y-5595068D01*
X70626487Y-5555792D01*
X70387707Y-5478207D01*
X70164002Y-5364224D01*
X69960883Y-5216650D01*
X69783350Y-5039117D01*
X69635776Y-4835998D01*
X69521793Y-4612293D01*
X69444208Y-4373513D01*
X69404932Y-4125535D01*
X69404932Y-3874465D01*
X69444208Y-3626487D01*
X69521793Y-3387707D01*
X69635776Y-3164002D01*
X69783350Y-2960883D01*
X69960883Y-2783350D01*
X70164002Y-2635776D01*
X70387707Y-2521793D01*
X70626487Y-2444208D01*
X70874465Y-2404932D01*
X71125535Y-2404932D01*
X71373513Y-2444208D01*
G37*
G36*
X23500000Y-3250000D02*
G01*
X20990000Y-3250000D01*
X20990000Y-2250000D01*
X23500000Y-2250000D01*
X23500000Y-3250000D01*
G37*
G36*
X31460000Y-3120000D02*
G01*
X29760000Y-3120000D01*
X29760000Y-1420000D01*
X31460000Y-1420000D01*
X31460000Y-3120000D01*
G37*
G36*
X48636742Y-1456601D02*
G01*
X48790687Y-1520367D01*
X48929234Y-1612941D01*
X49047059Y-1730766D01*
X49139633Y-1869313D01*
X49203399Y-2023258D01*
X49235907Y-2186685D01*
X49235907Y-2353315D01*
X49203399Y-2516742D01*
X49139633Y-2670687D01*
X49047059Y-2809234D01*
X48929234Y-2927059D01*
X48790687Y-3019633D01*
X48636742Y-3083399D01*
X48473315Y-3115907D01*
X48306685Y-3115907D01*
X48143258Y-3083399D01*
X47989313Y-3019633D01*
X47850766Y-2927059D01*
X47732941Y-2809234D01*
X47640367Y-2670687D01*
X47576601Y-2516742D01*
X47544093Y-2353315D01*
X47544093Y-2186685D01*
X47576601Y-2023258D01*
X47640367Y-1869313D01*
X47732941Y-1730766D01*
X47850766Y-1612941D01*
X47989313Y-1520367D01*
X48143258Y-1456601D01*
X48306685Y-1424093D01*
X48473315Y-1424093D01*
X48636742Y-1456601D01*
G37*
M02*
