%TF.GenerationSoftware,KiCad,Pcbnew,10.0.6*%
%TF.CreationDate,2026-09-04T10:42:00+02:00*%
%TF.ProjectId,Dimmer4,44696d6d-6572-4342-9e6b-696361645f70,rev?*%
%TF.SameCoordinates,Original*%
%TF.FileFunction,Copper,L2,Bot*%
%TF.FilePolarity,Positive*%
%FSLAX46Y46*%
G04 Gerber Fmt 4.6, Leading zero omitted, Abs format (unit mm)*
G04 Created by KiCad (PCBNEW 10.0.6) date 2026-09-04 10:42:00*
%MOMM*%
%LPD*%
G01*
G04 APERTURE LIST*
G04 Aperture macros list*
%AMRoundRect*
0 Rectangle with rounded corners*
0 $1 Rounding radius*
0 $2 $3 $4 $5 $6 $7 $8 $9 X,Y pos of 4 corners*
0 Add a 4 corners polygon primitive as box body*
4,1,4,$2,$3,$4,$5,$6,$7,$8,$9,$2,$3,0*
0 Add four circle primitives for the rounded corners*
1,1,$1+$1,$2,$3*
1,1,$1+$1,$4,$5*
1,1,$1+$1,$6,$7*
1,1,$1+$1,$8,$9*
0 Add four rect primitives between the rounded corners*
20,1,$1+$1,$2,$3,$4,$5,0*
20,1,$1+$1,$4,$5,$6,$7,0*
20,1,$1+$1,$6,$7,$8,$9,0*
20,1,$1+$1,$8,$9,$2,$3,0*%
G04 Aperture macros list end*
%TA.AperFunction,ComponentPad*%
%ADD10R,1.700000X1.700000*%
%TD*%
%TA.AperFunction,ComponentPad*%
%ADD11C,1.700000*%
%TD*%
%TA.AperFunction,ComponentPad*%
%ADD12RoundRect,0.250001X-0.949999X-0.949999X0.949999X-0.949999X0.949999X0.949999X-0.949999X0.949999X0*%
%TD*%
%TA.AperFunction,ComponentPad*%
%ADD13C,2.400000*%
%TD*%
%TA.AperFunction,ComponentPad*%
%ADD14RoundRect,0.250000X-0.550000X-0.550000X0.550000X-0.550000X0.550000X0.550000X-0.550000X0.550000X0*%
%TD*%
%TA.AperFunction,ComponentPad*%
%ADD15C,1.600000*%
%TD*%
%TA.AperFunction,SMDPad,CuDef*%
%ADD16R,3.150000X1.000000*%
%TD*%
%TA.AperFunction,SMDPad,CuDef*%
%ADD17R,2.510000X1.000000*%
%TD*%
%TA.AperFunction,ViaPad*%
%ADD18C,0.600000*%
%TD*%
%TA.AperFunction,Conductor*%
%ADD19C,0.250000*%
%TD*%
%TA.AperFunction,Conductor*%
%ADD20C,1.000000*%
%TD*%
G04 APERTURE END LIST*
D10*
%TO.P,J100,1*%
%TO.N,/FLASH_TX*%
X8000000Y-13000000D03*
D11*
%TO.P,J100,2*%
%TO.N,/FLASH_RX*%
X8000000Y-10460000D03*
%TO.P,J100,3*%
%TO.N,GND*%
X10540000Y-13000000D03*
%TO.P,J100,4*%
%TO.N,unconnected-(J100-Pin_4-Pad4)*%
X10540000Y-10460000D03*
%TO.P,J100,5*%
%TO.N,/FLASH_MODE*%
X13080000Y-13000000D03*
%TO.P,J100,6*%
%TO.N,/I2C_SDA*%
X13080000Y-10460000D03*
%TO.P,J100,7*%
%TO.N,/I2C_SCL*%
X15620000Y-13000000D03*
%TO.P,J100,8*%
%TO.N,GND*%
X15620000Y-10460000D03*
%TO.P,J100,9*%
%TO.N,/NOTAUS*%
X18160000Y-13000000D03*
%TO.P,J100,10*%
%TO.N,/SEL_CLK*%
X18160000Y-10460000D03*
%TO.P,J100,11*%
%TO.N,unconnected-(J100-Pin_11-Pad11)*%
X20700000Y-13000000D03*
%TO.P,J100,12*%
%TO.N,unconnected-(J100-Pin_12-Pad12)*%
X20700000Y-10460000D03*
%TO.P,J100,13*%
%TO.N,GND*%
X23240000Y-13000000D03*
%TO.P,J100,14*%
%TO.N,unconnected-(J100-Pin_14-Pad14)*%
X23240000Y-10460000D03*
%TO.P,J100,15*%
%TO.N,unconnected-(J100-Pin_15-Pad15)*%
X25780000Y-13000000D03*
%TO.P,J100,16*%
%TO.N,unconnected-(J100-Pin_16-Pad16)*%
X25780000Y-10460000D03*
%TO.P,J100,17*%
%TO.N,unconnected-(J100-Pin_17-Pad17)*%
X28320000Y-13000000D03*
%TO.P,J100,18*%
%TO.N,GND*%
X28320000Y-10460000D03*
%TO.P,J100,19*%
%TO.N,unconnected-(J100-Pin_19-Pad19)*%
X30860000Y-13000000D03*
%TO.P,J100,20*%
%TO.N,unconnected-(J100-Pin_20-Pad20)*%
X30860000Y-10460000D03*
%TO.P,J100,21*%
%TO.N,unconnected-(J100-Pin_21-Pad21)*%
X33400000Y-13000000D03*
%TO.P,J100,22*%
%TO.N,unconnected-(J100-Pin_22-Pad22)*%
X33400000Y-10460000D03*
%TO.P,J100,23*%
%TO.N,GND*%
X35940000Y-13000000D03*
%TO.P,J100,24*%
%TO.N,unconnected-(J100-Pin_24-Pad24)*%
X35940000Y-10460000D03*
%TO.P,J100,25*%
%TO.N,unconnected-(J100-Pin_25-Pad25)*%
X38480000Y-13000000D03*
%TO.P,J100,26*%
%TO.N,unconnected-(J100-Pin_26-Pad26)*%
X38480000Y-10460000D03*
%TO.P,J100,27*%
%TO.N,unconnected-(J100-Pin_27-Pad27)*%
X41020000Y-13000000D03*
%TO.P,J100,28*%
%TO.N,GND*%
X41020000Y-10460000D03*
%TO.P,J100,29*%
%TO.N,unconnected-(J100-Pin_29-Pad29)*%
X43560000Y-13000000D03*
%TO.P,J100,30*%
%TO.N,unconnected-(J100-Pin_30-Pad30)*%
X43560000Y-10460000D03*
%TO.P,J100,31*%
%TO.N,unconnected-(J100-Pin_31-Pad31)*%
X46100000Y-13000000D03*
%TO.P,J100,32*%
%TO.N,unconnected-(J100-Pin_32-Pad32)*%
X46100000Y-10460000D03*
%TO.P,J100,33*%
%TO.N,GND*%
X48640000Y-13000000D03*
%TO.P,J100,34*%
%TO.N,unconnected-(J100-Pin_34-Pad34)*%
X48640000Y-10460000D03*
%TO.P,J100,35*%
%TO.N,unconnected-(J100-Pin_35-Pad35)*%
X51180000Y-13000000D03*
%TO.P,J100,36*%
%TO.N,3V3*%
X51180000Y-10460000D03*
%TO.P,J100,37*%
%TO.N,unconnected-(J100-Pin_37-Pad37)*%
X53720000Y-13000000D03*
%TO.P,J100,38*%
%TO.N,GND*%
X53720000Y-10460000D03*
%TO.P,J100,39*%
%TO.N,unconnected-(J100-Pin_39-Pad39)*%
X56260000Y-13000000D03*
%TO.P,J100,40*%
%TO.N,unconnected-(J100-Pin_40-Pad40)*%
X56260000Y-10460000D03*
%TD*%
D12*
%TO.P,J8,1*%
%TO.N,/+24V*%
X36050000Y-53600000D03*
D13*
%TO.P,J8,2*%
%TO.N,/LED4*%
X39550000Y-53600000D03*
%TD*%
D12*
%TO.P,J6,1*%
%TO.N,/+24V*%
X18850000Y-53600000D03*
D13*
%TO.P,J6,2*%
%TO.N,/LED2*%
X22350000Y-53600000D03*
%TD*%
D12*
%TO.P,J7,1*%
%TO.N,/+24V*%
X27450000Y-53600000D03*
D13*
%TO.P,J7,2*%
%TO.N,/LED3*%
X30950000Y-53600000D03*
%TD*%
D12*
%TO.P,J5,1*%
%TO.N,/+24V*%
X10250000Y-53600000D03*
D13*
%TO.P,J5,2*%
%TO.N,/LED1*%
X13750000Y-53600000D03*
%TD*%
D14*
%TO.P,C12,1*%
%TO.N,/+24V*%
X51502479Y-33751238D03*
D15*
%TO.P,C12,2*%
%TO.N,GND*%
X55002479Y-33751238D03*
%TD*%
D16*
%TO.P,J104,1*%
%TO.N,/PWR24V*%
X58495000Y-42000000D03*
%TO.P,J104,2*%
%TO.N,GND*%
X53445000Y-42000000D03*
%TO.P,J104,3*%
%TO.N,/PWR24V*%
X58495000Y-44540000D03*
%TO.P,J104,4*%
%TO.N,GND*%
X53445000Y-44540000D03*
%TD*%
D17*
%TO.P,J102,1*%
%TO.N,/SEL_OUT*%
X14155000Y-2750000D03*
%TO.P,J102,2*%
%TO.N,GND*%
X10845000Y-5290000D03*
%TD*%
D18*
%TO.N,/SEL_OUT*%
X15880000Y-23650000D03*
X20350000Y-27600000D03*
X9339800Y-22578900D03*
%TO.N,GND*%
X20750000Y-45000000D03*
X17255754Y-22450500D03*
X28250000Y-7500000D03*
X43250000Y-45000000D03*
X43250000Y-52500000D03*
X58250000Y-7500000D03*
X58250000Y-22500000D03*
X5750000Y-45000000D03*
X28250000Y-45000000D03*
X58250000Y-37500000D03*
X13250000Y-22500000D03*
X13250000Y-45000000D03*
X50750000Y-7500000D03*
X28994300Y-23702700D03*
X35750000Y-45000000D03*
X13900000Y-19675000D03*
X5750000Y-52500000D03*
X20750000Y-7500000D03*
X43250000Y-7500000D03*
X5750000Y-7500000D03*
X50750000Y-52500000D03*
X58250000Y-30000000D03*
X58250000Y-52500000D03*
X35750000Y-7500000D03*
%TO.N,/FLASH_MODE*%
X11086000Y-22388700D03*
%TO.N,3V3*%
X18680000Y-24100000D03*
X23900000Y-24950000D03*
%TO.N,/ID0*%
X17500000Y-20975000D03*
X5850000Y-29600000D03*
%TO.N,/PWM3_G*%
X27621300Y-35733000D03*
X30541100Y-21204200D03*
%TO.N,/ID1*%
X18100000Y-21625000D03*
X10150000Y-29650000D03*
%TO.N,/NCLR*%
X5121000Y-18532800D03*
X5339200Y-23784200D03*
%TO.N,/SEL_IN*%
X7302300Y-4199300D03*
X4277300Y-24266200D03*
%TO.N,/+24V*%
X38704700Y-32559600D03*
X18752600Y-32750600D03*
%TO.N,/LED2*%
X30410700Y-33777800D03*
%TO.N,/PWM4_G*%
X39360400Y-36087400D03*
X39295700Y-21397900D03*
%TO.N,/PWR24V*%
X56082900Y-44333100D03*
%TO.N,/LED1*%
X22550000Y-32150000D03*
%TO.N,/PWM1_G*%
X13199000Y-35000400D03*
X27378700Y-21373900D03*
%TO.N,/FLASH_RX*%
X15756000Y-15347400D03*
%TO.N,/PWM3*%
X25856700Y-17991900D03*
X19221300Y-13882700D03*
X24704700Y-14463300D03*
X17614900Y-16893800D03*
%TO.N,/PWM4*%
X19165700Y-15244000D03*
X18226200Y-17938800D03*
%TO.N,/PWM2*%
X28078500Y-16728100D03*
X25569900Y-22219300D03*
%TO.N,/PWM1*%
X23644000Y-21043000D03*
X23376300Y-17711300D03*
%TO.N,/BOOT0*%
X24705900Y-21398300D03*
X24704300Y-29999600D03*
%TO.N,/PWM2_G*%
X32321300Y-20862700D03*
X32969200Y-15556800D03*
X23209800Y-35849200D03*
%TD*%
%TO.N,/SEL_OUT*%
D19*
X16804500Y-18246100D02*
X13672600Y-18246100D01*
X18980000Y-27600000D02*
X15880000Y-24500000D01*
X15880000Y-23650000D02*
X17008400Y-23650000D01*
X16804500Y-6226200D02*
X14155000Y-3576700D01*
X20350000Y-27600000D02*
X18980000Y-27600000D01*
X18764500Y-20206100D02*
X16804500Y-18246100D01*
X13672600Y-18246100D02*
X9339800Y-22578900D01*
X17008400Y-23650000D02*
X18764500Y-21893900D01*
X15880000Y-24500000D02*
X15880000Y-23650000D01*
X18764500Y-21893900D02*
X18764500Y-20206100D01*
X14155000Y-2750000D02*
X14155000Y-3576700D01*
X16804500Y-18246100D02*
X16804500Y-6226200D01*
%TO.N,/FLASH_MODE*%
X8660800Y-17419200D02*
X13080000Y-13000000D01*
X8660800Y-22820100D02*
X8660800Y-17419200D01*
X10224100Y-23250600D02*
X9091300Y-23250600D01*
X9091300Y-23250600D02*
X8660800Y-22820100D01*
X11086000Y-22388700D02*
X10224100Y-23250600D01*
%TO.N,3V3*%
X23900000Y-24650000D02*
X23900000Y-24950000D01*
X18680000Y-24100000D02*
X23350000Y-24100000D01*
X23350000Y-24100000D02*
X23900000Y-24650000D01*
%TO.N,/ID0*%
X13500000Y-20975000D02*
X5850000Y-28625000D01*
X5850000Y-28625000D02*
X5850000Y-29600000D01*
X17500000Y-20975000D02*
X13500000Y-20975000D01*
%TO.N,/PWM3_G*%
X30541100Y-21204200D02*
X27621400Y-24123900D01*
X27621400Y-35733000D02*
X27621300Y-35733000D01*
X27621400Y-24123900D02*
X27621400Y-35733000D01*
%TO.N,/ID1*%
X10150000Y-26775000D02*
X10150000Y-29650000D01*
X15300000Y-21625000D02*
X10150000Y-26775000D01*
X18100000Y-21625000D02*
X15300000Y-21625000D01*
%TO.N,/NCLR*%
X5339200Y-23784200D02*
X5339200Y-18751000D01*
X5339200Y-18751000D02*
X5121000Y-18532800D01*
%TO.N,/SEL_IN*%
X4277300Y-7224300D02*
X4277300Y-24266200D01*
X7302300Y-4199300D02*
X4277300Y-7224300D01*
%TO.N,/+24V*%
D20*
X36050000Y-53600000D02*
X36050000Y-49203700D01*
X42253700Y-36108600D02*
X38704700Y-32559600D01*
X49145100Y-36108600D02*
X51502500Y-33751200D01*
X42253700Y-43000000D02*
X42253700Y-36108600D01*
X18752600Y-45097400D02*
X10250000Y-53600000D01*
X18752600Y-32750600D02*
X18752600Y-45097400D01*
X42253700Y-36108600D02*
X49145100Y-36108600D01*
X36050000Y-49203700D02*
X42253700Y-43000000D01*
%TO.N,/LED2*%
X30410700Y-45539300D02*
X30410700Y-33777800D01*
X22350000Y-53600000D02*
X30410700Y-45539300D01*
%TO.N,/PWM4_G*%
D19*
X37816900Y-34543900D02*
X37816900Y-22876700D01*
X39360400Y-36087400D02*
X37816900Y-34543900D01*
X37816900Y-22876700D02*
X39295700Y-21397900D01*
%TO.N,/PWR24V*%
D20*
X58495000Y-42000000D02*
X60771700Y-42000000D01*
X60771700Y-44540000D02*
X60771700Y-42000000D01*
X56218300Y-44540000D02*
X56218300Y-44468500D01*
X58495000Y-44540000D02*
X56218300Y-44540000D01*
X58495000Y-44540000D02*
X60771700Y-44540000D01*
X56218300Y-44468500D02*
X56082900Y-44333100D01*
%TO.N,/LED1*%
X22208100Y-45141900D02*
X13750000Y-53600000D01*
X22208100Y-32491900D02*
X22208100Y-45141900D01*
X22550000Y-32150000D02*
X22208100Y-32491900D01*
%TO.N,/PWM1_G*%
D19*
X24541500Y-31100700D02*
X26195100Y-29447100D01*
X26195100Y-22557500D02*
X27378700Y-21373900D01*
X13199000Y-35000400D02*
X17098700Y-31100700D01*
X26195100Y-29447100D02*
X26195100Y-22557500D01*
X17098700Y-31100700D02*
X24541500Y-31100700D01*
%TO.N,/FLASH_RX*%
X9270000Y-11730000D02*
X13562400Y-11730000D01*
X14257900Y-12425500D02*
X14257900Y-13849300D01*
X13562400Y-11730000D02*
X14257900Y-12425500D01*
X14257900Y-13849300D02*
X15756000Y-15347400D01*
X8000000Y-10460000D02*
X9270000Y-11730000D01*
%TO.N,/PWM3*%
X17614900Y-16893800D02*
X17614900Y-15489100D01*
X17614900Y-15489100D02*
X19221300Y-13882700D01*
X24704700Y-16839900D02*
X25856700Y-17991900D01*
X24704700Y-14463300D02*
X24704700Y-16839900D01*
%TO.N,/PWM4*%
X19165700Y-16999300D02*
X19165700Y-15244000D01*
X18226200Y-17938800D02*
X19165700Y-16999300D01*
%TO.N,/PWM2*%
X25569900Y-19236700D02*
X25569900Y-22219300D01*
X28078500Y-16728100D02*
X25569900Y-19236700D01*
%TO.N,/PWM1*%
X23644000Y-21043000D02*
X23643900Y-21043000D01*
X23643900Y-21043000D02*
X23643900Y-17978900D01*
X23643900Y-17978900D02*
X23376300Y-17711300D01*
%TO.N,/BOOT0*%
X24704400Y-29999600D02*
X24704300Y-29999600D01*
X24704400Y-21399800D02*
X24704400Y-29999600D01*
X24705900Y-21398300D02*
X24704400Y-21399800D01*
%TO.N,/PWM2_G*%
X26726700Y-32332300D02*
X26726700Y-24071000D01*
X32321300Y-20555200D02*
X32321300Y-16204700D01*
X23209800Y-35849200D02*
X26726700Y-32332300D01*
X26726700Y-24071000D02*
X30242500Y-20555200D01*
X32321300Y-16204700D02*
X32969200Y-15556800D01*
X30242500Y-20555200D02*
X32321300Y-20555200D01*
X32321300Y-20862700D02*
X32321300Y-20555200D01*
%TD*%
%TA.AperFunction,Conductor*%
%TO.N,GND*%
G36*
X16686856Y-18590507D02*
G01*
X16698669Y-18600596D01*
X18410004Y-20311930D01*
X18437781Y-20366447D01*
X18439000Y-20381934D01*
X18439000Y-21071320D01*
X18420093Y-21129511D01*
X18370593Y-21165475D01*
X18309407Y-21165475D01*
X18299242Y-21160949D01*
X18299184Y-21161092D01*
X18293191Y-21158609D01*
X18217428Y-21138309D01*
X18165892Y-21124500D01*
X18099500Y-21124500D01*
X18041309Y-21105593D01*
X18005345Y-21056093D01*
X18000500Y-21025500D01*
X18000500Y-20909109D01*
X18000500Y-20909108D01*
X17966392Y-20781814D01*
X17966390Y-20781811D01*
X17966390Y-20781809D01*
X17900503Y-20667690D01*
X17900501Y-20667688D01*
X17900500Y-20667686D01*
X17807314Y-20574500D01*
X17807311Y-20574498D01*
X17807309Y-20574496D01*
X17693189Y-20508609D01*
X17693191Y-20508609D01*
X17643799Y-20495375D01*
X17565892Y-20474500D01*
X17434108Y-20474500D01*
X17356200Y-20495375D01*
X17306809Y-20508609D01*
X17192690Y-20574496D01*
X17192684Y-20574500D01*
X17146681Y-20620504D01*
X17092164Y-20648281D01*
X17076678Y-20649500D01*
X13548932Y-20649500D01*
X13548916Y-20649499D01*
X13542853Y-20649499D01*
X13457147Y-20649499D01*
X13457144Y-20649499D01*
X13374361Y-20671681D01*
X13350834Y-20685265D01*
X13337250Y-20693108D01*
X13313721Y-20706692D01*
X13300137Y-20714535D01*
X13239534Y-20775137D01*
X13239535Y-20775138D01*
X13239533Y-20775140D01*
X11730016Y-22284656D01*
X11675499Y-22312433D01*
X11615067Y-22302862D01*
X11571802Y-22259597D01*
X11564386Y-22240279D01*
X11552392Y-22195514D01*
X11552390Y-22195511D01*
X11552390Y-22195509D01*
X11486503Y-22081390D01*
X11486501Y-22081388D01*
X11486500Y-22081386D01*
X11393314Y-21988200D01*
X11393311Y-21988198D01*
X11393309Y-21988196D01*
X11279189Y-21922309D01*
X11279191Y-21922309D01*
X11229799Y-21909075D01*
X11151892Y-21888200D01*
X11020108Y-21888200D01*
X10942200Y-21909075D01*
X10892809Y-21922309D01*
X10778690Y-21988196D01*
X10685496Y-22081390D01*
X10619609Y-22195509D01*
X10619608Y-22195514D01*
X10590845Y-22302862D01*
X10585500Y-22322809D01*
X10585500Y-22387865D01*
X10566593Y-22446056D01*
X10556504Y-22457869D01*
X10118269Y-22896104D01*
X10063752Y-22923881D01*
X10048265Y-22925100D01*
X9889323Y-22925100D01*
X9831132Y-22906193D01*
X9795168Y-22856693D01*
X9795168Y-22795507D01*
X9803585Y-22776602D01*
X9804301Y-22775361D01*
X9806192Y-22772086D01*
X9840300Y-22644792D01*
X9840300Y-22579734D01*
X9859207Y-22521543D01*
X9869296Y-22509730D01*
X13778430Y-18600596D01*
X13832947Y-18572819D01*
X13848434Y-18571600D01*
X16628665Y-18571600D01*
X16686856Y-18590507D01*
G37*
%TD.AperFunction*%
%TA.AperFunction,Conductor*%
G36*
X61002992Y-500681D02*
G01*
X61295310Y-518362D01*
X61307165Y-519802D01*
X61592281Y-572051D01*
X61603883Y-574911D01*
X61880623Y-661147D01*
X61891786Y-665380D01*
X62156117Y-784346D01*
X62156119Y-784347D01*
X62166702Y-789902D01*
X62414758Y-939856D01*
X62424583Y-946638D01*
X62652755Y-1125399D01*
X62661704Y-1133326D01*
X62866673Y-1338295D01*
X62874599Y-1347243D01*
X62995481Y-1501538D01*
X63053356Y-1575409D01*
X63060147Y-1585248D01*
X63210096Y-1833295D01*
X63215652Y-1843880D01*
X63334616Y-2108206D01*
X63338855Y-2119384D01*
X63425087Y-2396113D01*
X63427948Y-2407721D01*
X63480196Y-2692827D01*
X63481637Y-2704694D01*
X63499319Y-2997006D01*
X63499500Y-3002984D01*
X63499500Y-56997015D01*
X63499319Y-57002993D01*
X63481637Y-57295304D01*
X63480196Y-57307171D01*
X63427948Y-57592277D01*
X63425087Y-57603885D01*
X63338855Y-57880615D01*
X63334616Y-57891793D01*
X63215652Y-58156118D01*
X63210096Y-58166703D01*
X63060142Y-58414758D01*
X63053356Y-58424590D01*
X62874599Y-58652755D01*
X62866672Y-58661704D01*
X62661704Y-58866672D01*
X62652755Y-58874599D01*
X62424590Y-59053356D01*
X62414758Y-59060142D01*
X62177212Y-59203744D01*
X62166703Y-59210097D01*
X62156118Y-59215652D01*
X61891793Y-59334616D01*
X61880615Y-59338855D01*
X61603885Y-59425087D01*
X61592277Y-59427948D01*
X61307171Y-59480196D01*
X61295304Y-59481637D01*
X61023993Y-59498048D01*
X61002991Y-59499319D01*
X60997015Y-59499500D01*
X3002985Y-59499500D01*
X2997008Y-59499319D01*
X2973822Y-59497916D01*
X2704694Y-59481637D01*
X2692827Y-59480196D01*
X2407721Y-59427948D01*
X2396113Y-59425087D01*
X2119384Y-59338855D01*
X2108206Y-59334616D01*
X1843880Y-59215652D01*
X1833295Y-59210096D01*
X1672942Y-59113160D01*
X1585245Y-59060145D01*
X1575413Y-59053358D01*
X1347243Y-58874599D01*
X1338295Y-58866673D01*
X1133326Y-58661704D01*
X1125399Y-58652755D01*
X946638Y-58424583D01*
X939856Y-58414758D01*
X789902Y-58166703D01*
X784347Y-58156119D01*
X665383Y-57891793D01*
X661147Y-57880623D01*
X574911Y-57603883D01*
X572051Y-57592278D01*
X572051Y-57592277D01*
X519802Y-57307165D01*
X518362Y-57295304D01*
X513972Y-57222731D01*
X500681Y-57002992D01*
X500500Y-56997015D01*
X500500Y-55878710D01*
X2149500Y-55878710D01*
X2149500Y-56121289D01*
X2181161Y-56361781D01*
X2181161Y-56361786D01*
X2243944Y-56596092D01*
X2243948Y-56596105D01*
X2336772Y-56820204D01*
X2336774Y-56820208D01*
X2336776Y-56820212D01*
X2440577Y-57000000D01*
X2458066Y-57030292D01*
X2605729Y-57222731D01*
X2605731Y-57222733D01*
X2605735Y-57222738D01*
X2777262Y-57394265D01*
X2777266Y-57394268D01*
X2777268Y-57394270D01*
X2933630Y-57514250D01*
X2969711Y-57541936D01*
X3179788Y-57663224D01*
X3403900Y-57756054D01*
X3638211Y-57818838D01*
X3878712Y-57850500D01*
X3878713Y-57850500D01*
X4121287Y-57850500D01*
X4121288Y-57850500D01*
X4361789Y-57818838D01*
X4596100Y-57756054D01*
X4820212Y-57663224D01*
X5030289Y-57541936D01*
X5222738Y-57394265D01*
X5394265Y-57222738D01*
X5541936Y-57030289D01*
X5663224Y-56820212D01*
X5756054Y-56596100D01*
X5818838Y-56361789D01*
X5850500Y-56121288D01*
X5850500Y-55878712D01*
X5850500Y-55878710D01*
X58149500Y-55878710D01*
X58149500Y-56121289D01*
X58181161Y-56361781D01*
X58181161Y-56361786D01*
X58243944Y-56596092D01*
X58243948Y-56596105D01*
X58336772Y-56820204D01*
X58336774Y-56820208D01*
X58336776Y-56820212D01*
X58440577Y-57000000D01*
X58458066Y-57030292D01*
X58605729Y-57222731D01*
X58605731Y-57222733D01*
X58605735Y-57222738D01*
X58777262Y-57394265D01*
X58777266Y-57394268D01*
X58777268Y-57394270D01*
X58933630Y-57514250D01*
X58969711Y-57541936D01*
X59179788Y-57663224D01*
X59403900Y-57756054D01*
X59638211Y-57818838D01*
X59878712Y-57850500D01*
X59878713Y-57850500D01*
X60121287Y-57850500D01*
X60121288Y-57850500D01*
X60361789Y-57818838D01*
X60596100Y-57756054D01*
X60820212Y-57663224D01*
X61030289Y-57541936D01*
X61222738Y-57394265D01*
X61394265Y-57222738D01*
X61541936Y-57030289D01*
X61663224Y-56820212D01*
X61756054Y-56596100D01*
X61818838Y-56361789D01*
X61850500Y-56121288D01*
X61850500Y-55878712D01*
X61818838Y-55638211D01*
X61756054Y-55403900D01*
X61663224Y-55179788D01*
X61541936Y-54969711D01*
X61467075Y-54872150D01*
X61394270Y-54777268D01*
X61394268Y-54777266D01*
X61394265Y-54777262D01*
X61222738Y-54605735D01*
X61222733Y-54605731D01*
X61222731Y-54605729D01*
X61030292Y-54458066D01*
X61030289Y-54458064D01*
X60820212Y-54336776D01*
X60820208Y-54336774D01*
X60820204Y-54336772D01*
X60596105Y-54243948D01*
X60596104Y-54243947D01*
X60596100Y-54243946D01*
X60361789Y-54181162D01*
X60361786Y-54181161D01*
X60361784Y-54181161D01*
X60121289Y-54149500D01*
X60121288Y-54149500D01*
X59878712Y-54149500D01*
X59878710Y-54149500D01*
X59638218Y-54181161D01*
X59638213Y-54181161D01*
X59403907Y-54243944D01*
X59403894Y-54243948D01*
X59179795Y-54336772D01*
X58969707Y-54458066D01*
X58777268Y-54605729D01*
X58605729Y-54777268D01*
X58458066Y-54969707D01*
X58336772Y-55179795D01*
X58243948Y-55403894D01*
X58243944Y-55403907D01*
X58181161Y-55638213D01*
X58181161Y-55638218D01*
X58149500Y-55878710D01*
X5850500Y-55878710D01*
X5818838Y-55638211D01*
X5756054Y-55403900D01*
X5663224Y-55179788D01*
X5541936Y-54969711D01*
X5467075Y-54872150D01*
X5394270Y-54777268D01*
X5394268Y-54777266D01*
X5394265Y-54777262D01*
X5222738Y-54605735D01*
X5222733Y-54605731D01*
X5222731Y-54605729D01*
X5030292Y-54458066D01*
X5030289Y-54458064D01*
X4820212Y-54336776D01*
X4820208Y-54336774D01*
X4820204Y-54336772D01*
X4596105Y-54243948D01*
X4596104Y-54243947D01*
X4596100Y-54243946D01*
X4361789Y-54181162D01*
X4361786Y-54181161D01*
X4361784Y-54181161D01*
X4121289Y-54149500D01*
X4121288Y-54149500D01*
X3878712Y-54149500D01*
X3878710Y-54149500D01*
X3638218Y-54181161D01*
X3638213Y-54181161D01*
X3403907Y-54243944D01*
X3403894Y-54243948D01*
X3179795Y-54336772D01*
X2969707Y-54458066D01*
X2777268Y-54605729D01*
X2605729Y-54777268D01*
X2458066Y-54969707D01*
X2336772Y-55179795D01*
X2243948Y-55403894D01*
X2243944Y-55403907D01*
X2181161Y-55638213D01*
X2181161Y-55638218D01*
X2149500Y-55878710D01*
X500500Y-55878710D01*
X500500Y-52595726D01*
X8849500Y-52595726D01*
X8849500Y-54604265D01*
X8852353Y-54634694D01*
X8852353Y-54634696D01*
X8852354Y-54634698D01*
X8892243Y-54748697D01*
X8897208Y-54762885D01*
X8977845Y-54872144D01*
X8977847Y-54872146D01*
X8977850Y-54872150D01*
X8977853Y-54872152D01*
X8977855Y-54872154D01*
X9087114Y-54952791D01*
X9087116Y-54952791D01*
X9087118Y-54952793D01*
X9215302Y-54997646D01*
X9245735Y-55000500D01*
X11254264Y-55000499D01*
X11254265Y-55000499D01*
X11260350Y-54999928D01*
X11284698Y-54997646D01*
X11412882Y-54952793D01*
X11522150Y-54872150D01*
X11602793Y-54762882D01*
X11647646Y-54634698D01*
X11650500Y-54604265D01*
X11650499Y-53489774D01*
X12349500Y-53489774D01*
X12349500Y-53710225D01*
X12383984Y-53927948D01*
X12452102Y-54137599D01*
X12452104Y-54137602D01*
X12452105Y-54137606D01*
X12552185Y-54334022D01*
X12681758Y-54512365D01*
X12837635Y-54668242D01*
X13015978Y-54797815D01*
X13212394Y-54897895D01*
X13422049Y-54966015D01*
X13509140Y-54979809D01*
X13639775Y-55000500D01*
X13639778Y-55000500D01*
X13860225Y-55000500D01*
X13969086Y-54983257D01*
X14077951Y-54966015D01*
X14287606Y-54897895D01*
X14484022Y-54797815D01*
X14662365Y-54668242D01*
X14818242Y-54512365D01*
X14947815Y-54334022D01*
X15047895Y-54137606D01*
X15116015Y-53927951D01*
X15150500Y-53710222D01*
X15150500Y-53489778D01*
X15150500Y-53489774D01*
X15117424Y-53280945D01*
X15126995Y-53220513D01*
X15145198Y-53195457D01*
X15744929Y-52595726D01*
X17449500Y-52595726D01*
X17449500Y-54604265D01*
X17452353Y-54634694D01*
X17452353Y-54634696D01*
X17452354Y-54634698D01*
X17492243Y-54748697D01*
X17497208Y-54762885D01*
X17577845Y-54872144D01*
X17577847Y-54872146D01*
X17577850Y-54872150D01*
X17577853Y-54872152D01*
X17577855Y-54872154D01*
X17687114Y-54952791D01*
X17687116Y-54952791D01*
X17687118Y-54952793D01*
X17815302Y-54997646D01*
X17845735Y-55000500D01*
X19854264Y-55000499D01*
X19854265Y-55000499D01*
X19860350Y-54999928D01*
X19884698Y-54997646D01*
X20012882Y-54952793D01*
X20122150Y-54872150D01*
X20202793Y-54762882D01*
X20247646Y-54634698D01*
X20250500Y-54604265D01*
X20250499Y-53489774D01*
X20949500Y-53489774D01*
X20949500Y-53710225D01*
X20983984Y-53927948D01*
X21052102Y-54137599D01*
X21052104Y-54137602D01*
X21052105Y-54137606D01*
X21152185Y-54334022D01*
X21281758Y-54512365D01*
X21437635Y-54668242D01*
X21615978Y-54797815D01*
X21812394Y-54897895D01*
X22022049Y-54966015D01*
X22109140Y-54979809D01*
X22239775Y-55000500D01*
X22239778Y-55000500D01*
X22460225Y-55000500D01*
X22569086Y-54983257D01*
X22677951Y-54966015D01*
X22887606Y-54897895D01*
X23084022Y-54797815D01*
X23262365Y-54668242D01*
X23418242Y-54512365D01*
X23547815Y-54334022D01*
X23647895Y-54137606D01*
X23716015Y-53927951D01*
X23750500Y-53710222D01*
X23750500Y-53489778D01*
X23750500Y-53489774D01*
X23717424Y-53280945D01*
X23726995Y-53220513D01*
X23745198Y-53195457D01*
X24344929Y-52595726D01*
X26049500Y-52595726D01*
X26049500Y-54604265D01*
X26052353Y-54634694D01*
X26052353Y-54634696D01*
X26052354Y-54634698D01*
X26092243Y-54748697D01*
X26097208Y-54762885D01*
X26177845Y-54872144D01*
X26177847Y-54872146D01*
X26177850Y-54872150D01*
X26177853Y-54872152D01*
X26177855Y-54872154D01*
X26287114Y-54952791D01*
X26287116Y-54952791D01*
X26287118Y-54952793D01*
X26415302Y-54997646D01*
X26445735Y-55000500D01*
X28454264Y-55000499D01*
X28454265Y-55000499D01*
X28460350Y-54999928D01*
X28484698Y-54997646D01*
X28612882Y-54952793D01*
X28722150Y-54872150D01*
X28802793Y-54762882D01*
X28847646Y-54634698D01*
X28850500Y-54604265D01*
X28850499Y-53489774D01*
X29549500Y-53489774D01*
X29549500Y-53710225D01*
X29583984Y-53927948D01*
X29652102Y-54137599D01*
X29652104Y-54137602D01*
X29652105Y-54137606D01*
X29752185Y-54334022D01*
X29881758Y-54512365D01*
X30037635Y-54668242D01*
X30215978Y-54797815D01*
X30412394Y-54897895D01*
X30622049Y-54966015D01*
X30709140Y-54979809D01*
X30839775Y-55000500D01*
X30839778Y-55000500D01*
X31060225Y-55000500D01*
X31169086Y-54983257D01*
X31277951Y-54966015D01*
X31487606Y-54897895D01*
X31684022Y-54797815D01*
X31862365Y-54668242D01*
X32018242Y-54512365D01*
X32147815Y-54334022D01*
X32247895Y-54137606D01*
X32316015Y-53927951D01*
X32350500Y-53710222D01*
X32350500Y-53489778D01*
X32350500Y-53489774D01*
X32316015Y-53272051D01*
X32316015Y-53272049D01*
X32247895Y-53062394D01*
X32147815Y-52865978D01*
X32018242Y-52687635D01*
X31926333Y-52595726D01*
X34649500Y-52595726D01*
X34649500Y-54604265D01*
X34652353Y-54634694D01*
X34652353Y-54634696D01*
X34652354Y-54634698D01*
X34692243Y-54748697D01*
X34697208Y-54762885D01*
X34777845Y-54872144D01*
X34777847Y-54872146D01*
X34777850Y-54872150D01*
X34777853Y-54872152D01*
X34777855Y-54872154D01*
X34887114Y-54952791D01*
X34887116Y-54952791D01*
X34887118Y-54952793D01*
X35015302Y-54997646D01*
X35045735Y-55000500D01*
X37054264Y-55000499D01*
X37054265Y-55000499D01*
X37060350Y-54999928D01*
X37084698Y-54997646D01*
X37212882Y-54952793D01*
X37322150Y-54872150D01*
X37402793Y-54762882D01*
X37447646Y-54634698D01*
X37450500Y-54604265D01*
X37450499Y-53489774D01*
X38149500Y-53489774D01*
X38149500Y-53710225D01*
X38183984Y-53927948D01*
X38252102Y-54137599D01*
X38252104Y-54137602D01*
X38252105Y-54137606D01*
X38352185Y-54334022D01*
X38481758Y-54512365D01*
X38637635Y-54668242D01*
X38815978Y-54797815D01*
X39012394Y-54897895D01*
X39222049Y-54966015D01*
X39309140Y-54979809D01*
X39439775Y-55000500D01*
X39439778Y-55000500D01*
X39660225Y-55000500D01*
X39769086Y-54983257D01*
X39877951Y-54966015D01*
X40087606Y-54897895D01*
X40284022Y-54797815D01*
X40462365Y-54668242D01*
X40618242Y-54512365D01*
X40747815Y-54334022D01*
X40847895Y-54137606D01*
X40916015Y-53927951D01*
X40950500Y-53710222D01*
X40950500Y-53489778D01*
X40950500Y-53489774D01*
X40916015Y-53272051D01*
X40916015Y-53272049D01*
X40847895Y-53062394D01*
X40747815Y-52865978D01*
X40618242Y-52687635D01*
X40462365Y-52531758D01*
X40284022Y-52402185D01*
X40284021Y-52402184D01*
X40284019Y-52402183D01*
X40194825Y-52356736D01*
X40087606Y-52302105D01*
X40087602Y-52302104D01*
X40087599Y-52302102D01*
X39877948Y-52233984D01*
X39660225Y-52199500D01*
X39660222Y-52199500D01*
X39439778Y-52199500D01*
X39439775Y-52199500D01*
X39222051Y-52233984D01*
X39012400Y-52302102D01*
X38815980Y-52402183D01*
X38726806Y-52466971D01*
X38637635Y-52531758D01*
X38481758Y-52687635D01*
X38416971Y-52776806D01*
X38352183Y-52865980D01*
X38252102Y-53062400D01*
X38183984Y-53272051D01*
X38149500Y-53489774D01*
X37450499Y-53489774D01*
X37450499Y-52595736D01*
X37447646Y-52565302D01*
X37402793Y-52437118D01*
X37402791Y-52437116D01*
X37402791Y-52437114D01*
X37322154Y-52327855D01*
X37322152Y-52327853D01*
X37322150Y-52327850D01*
X37322146Y-52327847D01*
X37322144Y-52327845D01*
X37212885Y-52247208D01*
X37175092Y-52233984D01*
X37084698Y-52202354D01*
X37084696Y-52202353D01*
X37084694Y-52202353D01*
X37054273Y-52199500D01*
X37054265Y-52199500D01*
X36849500Y-52199500D01*
X36791309Y-52180593D01*
X36755345Y-52131093D01*
X36750500Y-52100500D01*
X36750500Y-49534864D01*
X36769407Y-49476673D01*
X36779490Y-49464866D01*
X41980254Y-44264103D01*
X55382400Y-44264103D01*
X55382400Y-44402096D01*
X55409320Y-44537427D01*
X55409320Y-44537429D01*
X55462123Y-44664908D01*
X55462124Y-44664910D01*
X55462125Y-44664911D01*
X55538786Y-44779643D01*
X55559965Y-44800822D01*
X55581423Y-44832938D01*
X55597523Y-44871808D01*
X55597523Y-44871809D01*
X55635723Y-44928979D01*
X55674186Y-44986542D01*
X55674189Y-44986545D01*
X55771758Y-45084114D01*
X55886482Y-45160771D01*
X55886493Y-45160777D01*
X55933583Y-45180282D01*
X56013972Y-45213580D01*
X56149307Y-45240500D01*
X56149308Y-45240500D01*
X60840692Y-45240500D01*
X60840693Y-45240500D01*
X60976028Y-45213580D01*
X61103511Y-45160775D01*
X61218242Y-45084114D01*
X61315814Y-44986542D01*
X61392475Y-44871811D01*
X61445280Y-44744328D01*
X61472200Y-44608993D01*
X61472200Y-41931007D01*
X61445280Y-41795672D01*
X61392475Y-41668189D01*
X61392474Y-41668187D01*
X61392471Y-41668182D01*
X61315814Y-41553458D01*
X61218241Y-41455885D01*
X61103517Y-41379228D01*
X61103506Y-41379222D01*
X60976028Y-41326420D01*
X60840695Y-41299500D01*
X60840693Y-41299500D01*
X60089748Y-41299500D01*
X56900252Y-41299500D01*
X56900251Y-41299500D01*
X56900241Y-41299501D01*
X56841772Y-41311132D01*
X56841766Y-41311134D01*
X56775451Y-41355445D01*
X56775445Y-41355451D01*
X56731134Y-41421766D01*
X56731132Y-41421772D01*
X56719501Y-41480241D01*
X56719500Y-41480253D01*
X56719500Y-42519746D01*
X56719501Y-42519758D01*
X56731132Y-42578227D01*
X56731133Y-42578231D01*
X56775448Y-42644552D01*
X56841769Y-42688867D01*
X56886231Y-42697711D01*
X56900241Y-42700498D01*
X56900246Y-42700498D01*
X56900252Y-42700500D01*
X58426007Y-42700500D01*
X59972200Y-42700500D01*
X60030391Y-42719407D01*
X60066355Y-42768907D01*
X60071200Y-42799500D01*
X60071200Y-43740500D01*
X60052293Y-43798691D01*
X60002793Y-43834655D01*
X59972200Y-43839500D01*
X56620964Y-43839500D01*
X56562773Y-43820593D01*
X56550966Y-43810509D01*
X56529443Y-43788986D01*
X56414711Y-43712325D01*
X56414710Y-43712324D01*
X56414708Y-43712323D01*
X56287228Y-43659520D01*
X56151896Y-43632600D01*
X56151894Y-43632600D01*
X56013906Y-43632600D01*
X56013903Y-43632600D01*
X55878572Y-43659520D01*
X55878570Y-43659520D01*
X55751091Y-43712323D01*
X55636360Y-43788983D01*
X55538783Y-43886560D01*
X55462123Y-44001291D01*
X55409320Y-44128770D01*
X55409320Y-44128772D01*
X55382400Y-44264103D01*
X41980254Y-44264103D01*
X42797814Y-43446543D01*
X42874475Y-43331811D01*
X42927280Y-43204328D01*
X42954200Y-43068994D01*
X42954200Y-42931006D01*
X42954200Y-36908100D01*
X42973107Y-36849909D01*
X43022607Y-36813945D01*
X43053200Y-36809100D01*
X49214093Y-36809100D01*
X49214094Y-36809100D01*
X49349428Y-36782180D01*
X49476911Y-36729375D01*
X49591643Y-36652714D01*
X51463623Y-34780734D01*
X51518140Y-34752957D01*
X51533627Y-34751738D01*
X52106752Y-34751738D01*
X52106752Y-34751737D01*
X52137178Y-34748884D01*
X52265361Y-34704031D01*
X52374629Y-34623388D01*
X52455272Y-34514120D01*
X52500125Y-34385937D01*
X52502978Y-34355511D01*
X52502979Y-34355511D01*
X52502979Y-33146965D01*
X52502978Y-33146963D01*
X52500125Y-33116543D01*
X52500125Y-33116539D01*
X52455272Y-32988356D01*
X52374629Y-32879088D01*
X52374625Y-32879085D01*
X52374623Y-32879083D01*
X52265362Y-32798445D01*
X52137182Y-32753593D01*
X52137173Y-32753591D01*
X52106753Y-32750738D01*
X52106745Y-32750738D01*
X50898213Y-32750738D01*
X50898204Y-32750738D01*
X50867784Y-32753591D01*
X50867775Y-32753593D01*
X50739595Y-32798445D01*
X50630334Y-32879083D01*
X50630324Y-32879093D01*
X50549686Y-32988354D01*
X50504834Y-33116534D01*
X50504832Y-33116543D01*
X50501979Y-33146963D01*
X50501979Y-33720056D01*
X50483072Y-33778247D01*
X50472983Y-33790060D01*
X48883939Y-35379104D01*
X48829422Y-35406881D01*
X48813935Y-35408100D01*
X42584865Y-35408100D01*
X42526674Y-35389193D01*
X42514861Y-35379104D01*
X40844561Y-33708804D01*
X39151243Y-32015486D01*
X39137854Y-32006540D01*
X39036508Y-31938823D01*
X38909028Y-31886020D01*
X38773696Y-31859100D01*
X38773694Y-31859100D01*
X38635706Y-31859100D01*
X38635703Y-31859100D01*
X38500372Y-31886020D01*
X38500370Y-31886020D01*
X38372891Y-31938823D01*
X38296401Y-31989932D01*
X38237513Y-32006540D01*
X38180109Y-31985362D01*
X38146117Y-31934488D01*
X38142400Y-31907616D01*
X38142400Y-23052535D01*
X38161307Y-22994344D01*
X38171396Y-22982531D01*
X39226531Y-21927396D01*
X39281048Y-21899619D01*
X39296535Y-21898400D01*
X39361590Y-21898400D01*
X39361592Y-21898400D01*
X39488886Y-21864292D01*
X39488888Y-21864290D01*
X39488890Y-21864290D01*
X39603009Y-21798403D01*
X39603009Y-21798402D01*
X39603014Y-21798400D01*
X39696200Y-21705214D01*
X39696497Y-21704700D01*
X39762090Y-21591090D01*
X39762090Y-21591088D01*
X39762092Y-21591086D01*
X39796200Y-21463792D01*
X39796200Y-21332008D01*
X39762092Y-21204714D01*
X39762090Y-21204711D01*
X39762090Y-21204709D01*
X39696203Y-21090590D01*
X39696201Y-21090588D01*
X39696200Y-21090586D01*
X39603014Y-20997400D01*
X39603011Y-20997398D01*
X39603009Y-20997396D01*
X39488889Y-20931509D01*
X39488891Y-20931509D01*
X39439499Y-20918275D01*
X39361592Y-20897400D01*
X39229808Y-20897400D01*
X39151900Y-20918275D01*
X39102509Y-20931509D01*
X38988390Y-20997396D01*
X38895196Y-21090590D01*
X38829309Y-21204709D01*
X38815516Y-21256186D01*
X38795982Y-21329092D01*
X38795200Y-21332009D01*
X38795200Y-21397065D01*
X38776293Y-21455256D01*
X38766204Y-21467069D01*
X37556431Y-22676842D01*
X37513584Y-22751055D01*
X37513582Y-22751059D01*
X37513582Y-22751061D01*
X37493821Y-22824813D01*
X37491400Y-22833847D01*
X37491400Y-34501047D01*
X37491400Y-34586753D01*
X37494922Y-34599896D01*
X37513583Y-34669543D01*
X37556431Y-34743757D01*
X37556433Y-34743759D01*
X37556435Y-34743762D01*
X38213574Y-35400900D01*
X38830904Y-36018230D01*
X38858681Y-36072747D01*
X38859900Y-36088234D01*
X38859900Y-36153292D01*
X38885732Y-36249700D01*
X38894009Y-36280590D01*
X38959896Y-36394709D01*
X38959898Y-36394711D01*
X38959900Y-36394714D01*
X39053086Y-36487900D01*
X39053088Y-36487901D01*
X39053090Y-36487903D01*
X39167210Y-36553790D01*
X39167208Y-36553790D01*
X39167212Y-36553791D01*
X39167214Y-36553792D01*
X39294508Y-36587900D01*
X39294510Y-36587900D01*
X39426290Y-36587900D01*
X39426292Y-36587900D01*
X39553586Y-36553792D01*
X39553588Y-36553790D01*
X39553590Y-36553790D01*
X39667709Y-36487903D01*
X39667709Y-36487902D01*
X39667714Y-36487900D01*
X39760900Y-36394714D01*
X39806581Y-36315592D01*
X39826790Y-36280590D01*
X39826790Y-36280588D01*
X39826792Y-36280586D01*
X39860900Y-36153292D01*
X39860900Y-36021508D01*
X39826792Y-35894214D01*
X39826790Y-35894211D01*
X39826790Y-35894209D01*
X39760903Y-35780090D01*
X39760901Y-35780088D01*
X39760900Y-35780086D01*
X39667714Y-35686900D01*
X39667711Y-35686898D01*
X39667709Y-35686896D01*
X39553589Y-35621009D01*
X39553591Y-35621009D01*
X39504199Y-35607775D01*
X39426292Y-35586900D01*
X39426290Y-35586900D01*
X39361234Y-35586900D01*
X39303043Y-35567993D01*
X39291230Y-35557904D01*
X38171396Y-34438069D01*
X38143619Y-34383552D01*
X38142400Y-34368065D01*
X38142400Y-33226964D01*
X38161307Y-33168773D01*
X38210807Y-33132809D01*
X38271993Y-33132809D01*
X38311401Y-33156958D01*
X41524205Y-36369762D01*
X41551981Y-36424277D01*
X41553200Y-36439764D01*
X41553200Y-42668835D01*
X41534293Y-42727026D01*
X41524204Y-42738839D01*
X35505883Y-48757160D01*
X35429223Y-48871891D01*
X35376420Y-48999370D01*
X35376420Y-48999372D01*
X35349500Y-49134704D01*
X35349500Y-52100500D01*
X35330593Y-52158691D01*
X35281093Y-52194655D01*
X35250500Y-52199500D01*
X35045734Y-52199500D01*
X35015305Y-52202353D01*
X34887114Y-52247208D01*
X34777855Y-52327845D01*
X34777845Y-52327855D01*
X34697208Y-52437114D01*
X34652353Y-52565305D01*
X34649500Y-52595726D01*
X31926333Y-52595726D01*
X31862365Y-52531758D01*
X31684022Y-52402185D01*
X31684021Y-52402184D01*
X31684019Y-52402183D01*
X31594825Y-52356736D01*
X31487606Y-52302105D01*
X31487602Y-52302104D01*
X31487599Y-52302102D01*
X31277948Y-52233984D01*
X31060225Y-52199500D01*
X31060222Y-52199500D01*
X30839778Y-52199500D01*
X30839775Y-52199500D01*
X30622051Y-52233984D01*
X30412400Y-52302102D01*
X30215980Y-52402183D01*
X30126806Y-52466971D01*
X30037635Y-52531758D01*
X29881758Y-52687635D01*
X29816971Y-52776806D01*
X29752183Y-52865980D01*
X29652102Y-53062400D01*
X29583984Y-53272051D01*
X29549500Y-53489774D01*
X28850499Y-53489774D01*
X28850499Y-52595736D01*
X28847646Y-52565302D01*
X28802793Y-52437118D01*
X28802791Y-52437116D01*
X28802791Y-52437114D01*
X28722154Y-52327855D01*
X28722152Y-52327853D01*
X28722150Y-52327850D01*
X28722146Y-52327847D01*
X28722144Y-52327845D01*
X28612885Y-52247208D01*
X28575092Y-52233984D01*
X28484698Y-52202354D01*
X28484696Y-52202353D01*
X28484694Y-52202353D01*
X28454272Y-52199500D01*
X26445734Y-52199500D01*
X26415305Y-52202353D01*
X26287114Y-52247208D01*
X26177855Y-52327845D01*
X26177845Y-52327855D01*
X26097208Y-52437114D01*
X26052353Y-52565305D01*
X26049500Y-52595726D01*
X24344929Y-52595726D01*
X30954814Y-45985843D01*
X31031475Y-45871111D01*
X31084280Y-45743629D01*
X31095740Y-45686014D01*
X31111200Y-45608293D01*
X31111200Y-33708807D01*
X31084280Y-33573472D01*
X31031475Y-33445989D01*
X31031474Y-33445987D01*
X31031471Y-33445982D01*
X30954814Y-33331258D01*
X30857241Y-33233685D01*
X30742517Y-33157028D01*
X30742506Y-33157022D01*
X30615028Y-33104220D01*
X30479695Y-33077300D01*
X30479693Y-33077300D01*
X30341707Y-33077300D01*
X30341704Y-33077300D01*
X30206372Y-33104220D01*
X30206370Y-33104220D01*
X30078893Y-33157022D01*
X30078882Y-33157028D01*
X29964158Y-33233685D01*
X29866585Y-33331258D01*
X29789928Y-33445982D01*
X29789922Y-33445993D01*
X29737120Y-33573470D01*
X29737120Y-33573472D01*
X29710200Y-33708804D01*
X29710200Y-45208134D01*
X29691293Y-45266325D01*
X29681204Y-45278138D01*
X22754543Y-52204798D01*
X22700026Y-52232575D01*
X22669052Y-52232575D01*
X22460225Y-52199500D01*
X22460222Y-52199500D01*
X22239778Y-52199500D01*
X22239775Y-52199500D01*
X22022051Y-52233984D01*
X21812400Y-52302102D01*
X21615980Y-52402183D01*
X21526806Y-52466971D01*
X21437635Y-52531758D01*
X21281758Y-52687635D01*
X21216971Y-52776806D01*
X21152183Y-52865980D01*
X21052102Y-53062400D01*
X20983984Y-53272051D01*
X20949500Y-53489774D01*
X20250499Y-53489774D01*
X20250499Y-52595736D01*
X20247646Y-52565302D01*
X20202793Y-52437118D01*
X20202791Y-52437116D01*
X20202791Y-52437114D01*
X20122154Y-52327855D01*
X20122152Y-52327853D01*
X20122150Y-52327850D01*
X20122146Y-52327847D01*
X20122144Y-52327845D01*
X20012885Y-52247208D01*
X19975092Y-52233984D01*
X19884698Y-52202354D01*
X19884696Y-52202353D01*
X19884694Y-52202353D01*
X19854272Y-52199500D01*
X17845734Y-52199500D01*
X17815305Y-52202353D01*
X17687114Y-52247208D01*
X17577855Y-52327845D01*
X17577845Y-52327855D01*
X17497208Y-52437114D01*
X17452353Y-52565305D01*
X17449500Y-52595726D01*
X15744929Y-52595726D01*
X22752214Y-45588443D01*
X22828875Y-45473711D01*
X22881680Y-45346228D01*
X22908600Y-45210894D01*
X22908600Y-45072906D01*
X22908600Y-36415668D01*
X22927507Y-36357477D01*
X22977007Y-36321513D01*
X23033218Y-36320041D01*
X23143908Y-36349700D01*
X23143910Y-36349700D01*
X23275690Y-36349700D01*
X23275692Y-36349700D01*
X23402986Y-36315592D01*
X23402988Y-36315590D01*
X23402990Y-36315590D01*
X23517109Y-36249703D01*
X23517109Y-36249702D01*
X23517114Y-36249700D01*
X23610300Y-36156514D01*
X23612160Y-36153292D01*
X23676190Y-36042390D01*
X23676190Y-36042388D01*
X23676192Y-36042386D01*
X23710300Y-35915092D01*
X23710300Y-35850033D01*
X23729207Y-35791842D01*
X23739290Y-35780035D01*
X26926559Y-32592766D01*
X26926562Y-32592765D01*
X26987165Y-32532162D01*
X27022777Y-32470480D01*
X27030018Y-32457939D01*
X27052201Y-32375153D01*
X27052201Y-32289447D01*
X27052201Y-32283385D01*
X27052200Y-32283367D01*
X27052200Y-24246835D01*
X27071107Y-24188644D01*
X27081196Y-24176831D01*
X27126896Y-24131131D01*
X27181413Y-24103354D01*
X27241845Y-24112925D01*
X27285110Y-24156190D01*
X27295900Y-24201135D01*
X27295900Y-35309578D01*
X27276993Y-35367769D01*
X27266904Y-35379581D01*
X27220800Y-35425684D01*
X27220796Y-35425690D01*
X27154909Y-35539809D01*
X27142291Y-35586900D01*
X27120800Y-35667108D01*
X27120800Y-35798892D01*
X27134503Y-35850033D01*
X27154909Y-35926190D01*
X27220796Y-36040309D01*
X27220798Y-36040311D01*
X27220800Y-36040314D01*
X27313986Y-36133500D01*
X27313988Y-36133501D01*
X27313990Y-36133503D01*
X27428110Y-36199390D01*
X27428108Y-36199390D01*
X27428112Y-36199391D01*
X27428114Y-36199392D01*
X27555408Y-36233500D01*
X27555410Y-36233500D01*
X27687190Y-36233500D01*
X27687192Y-36233500D01*
X27814486Y-36199392D01*
X27814488Y-36199390D01*
X27814490Y-36199390D01*
X27928609Y-36133503D01*
X27928609Y-36133502D01*
X27928614Y-36133500D01*
X28021800Y-36040314D01*
X28087692Y-35926186D01*
X28121800Y-35798892D01*
X28121800Y-35667108D01*
X28087692Y-35539814D01*
X28087690Y-35539811D01*
X28087690Y-35539809D01*
X28021803Y-35425690D01*
X28021799Y-35425684D01*
X27975896Y-35379781D01*
X27948119Y-35325264D01*
X27946900Y-35309778D01*
X27946900Y-24299735D01*
X27965807Y-24241544D01*
X27975896Y-24229731D01*
X30471931Y-21733696D01*
X30526448Y-21705919D01*
X30541935Y-21704700D01*
X30606990Y-21704700D01*
X30606992Y-21704700D01*
X30734286Y-21670592D01*
X30734288Y-21670590D01*
X30734290Y-21670590D01*
X30848409Y-21604703D01*
X30848409Y-21604702D01*
X30848414Y-21604700D01*
X30941600Y-21511514D01*
X30965855Y-21469504D01*
X31007490Y-21397390D01*
X31007490Y-21397388D01*
X31007492Y-21397386D01*
X31041600Y-21270092D01*
X31041600Y-21138308D01*
X31007492Y-21011014D01*
X31007491Y-21011013D01*
X31005967Y-21005323D01*
X31009170Y-20944221D01*
X31047675Y-20896671D01*
X31101594Y-20880700D01*
X31732002Y-20880700D01*
X31790193Y-20899607D01*
X31826157Y-20949107D01*
X31827625Y-20954063D01*
X31846766Y-21025500D01*
X31854909Y-21055890D01*
X31920796Y-21170009D01*
X31920798Y-21170011D01*
X31920800Y-21170014D01*
X32013986Y-21263200D01*
X32013988Y-21263201D01*
X32013990Y-21263203D01*
X32128110Y-21329090D01*
X32128108Y-21329090D01*
X32128112Y-21329091D01*
X32128114Y-21329092D01*
X32255408Y-21363200D01*
X32255410Y-21363200D01*
X32387190Y-21363200D01*
X32387192Y-21363200D01*
X32514486Y-21329092D01*
X32514488Y-21329090D01*
X32514490Y-21329090D01*
X32628609Y-21263203D01*
X32628609Y-21263202D01*
X32628614Y-21263200D01*
X32721800Y-21170014D01*
X32740106Y-21138308D01*
X32787690Y-21055890D01*
X32787690Y-21055888D01*
X32787692Y-21055886D01*
X32821800Y-20928592D01*
X32821800Y-20796808D01*
X32787692Y-20669514D01*
X32787690Y-20669511D01*
X32787690Y-20669509D01*
X32721803Y-20555390D01*
X32721799Y-20555384D01*
X32675796Y-20509381D01*
X32648019Y-20454864D01*
X32646800Y-20439378D01*
X32646800Y-16380535D01*
X32665707Y-16322344D01*
X32675796Y-16310531D01*
X32900031Y-16086296D01*
X32954548Y-16058519D01*
X32970035Y-16057300D01*
X33035090Y-16057300D01*
X33035092Y-16057300D01*
X33162386Y-16023192D01*
X33162388Y-16023190D01*
X33162390Y-16023190D01*
X33276509Y-15957303D01*
X33276509Y-15957302D01*
X33276514Y-15957300D01*
X33369700Y-15864114D01*
X33379061Y-15847900D01*
X33435590Y-15749990D01*
X33435590Y-15749988D01*
X33435592Y-15749986D01*
X33469700Y-15622692D01*
X33469700Y-15490908D01*
X33435592Y-15363614D01*
X33435590Y-15363611D01*
X33435590Y-15363609D01*
X33369703Y-15249490D01*
X33369701Y-15249488D01*
X33369700Y-15249486D01*
X33276514Y-15156300D01*
X33276511Y-15156298D01*
X33276509Y-15156296D01*
X33162389Y-15090409D01*
X33162391Y-15090409D01*
X33112999Y-15077175D01*
X33035092Y-15056300D01*
X32903308Y-15056300D01*
X32825400Y-15077175D01*
X32776009Y-15090409D01*
X32661890Y-15156296D01*
X32568696Y-15249490D01*
X32502809Y-15363609D01*
X32468700Y-15490909D01*
X32468700Y-15555965D01*
X32449793Y-15614156D01*
X32439704Y-15625968D01*
X32060835Y-16004837D01*
X32060831Y-16004842D01*
X32017982Y-16079060D01*
X32017981Y-16079060D01*
X32017982Y-16079061D01*
X31995800Y-16161847D01*
X31995800Y-20130700D01*
X31976893Y-20188891D01*
X31927393Y-20224855D01*
X31896800Y-20229700D01*
X30285353Y-20229700D01*
X30199647Y-20229700D01*
X30148978Y-20243276D01*
X30116856Y-20251883D01*
X30042642Y-20294731D01*
X26689604Y-23647769D01*
X26635087Y-23675546D01*
X26574655Y-23665975D01*
X26531390Y-23622710D01*
X26520600Y-23577765D01*
X26520600Y-22733335D01*
X26539507Y-22675144D01*
X26549596Y-22663331D01*
X27309531Y-21903396D01*
X27364048Y-21875619D01*
X27379535Y-21874400D01*
X27444590Y-21874400D01*
X27444592Y-21874400D01*
X27571886Y-21840292D01*
X27571888Y-21840290D01*
X27571890Y-21840290D01*
X27686009Y-21774403D01*
X27686009Y-21774402D01*
X27686014Y-21774400D01*
X27779200Y-21681214D01*
X27823374Y-21604703D01*
X27845090Y-21567090D01*
X27845090Y-21567088D01*
X27845092Y-21567086D01*
X27879200Y-21439792D01*
X27879200Y-21308008D01*
X27845092Y-21180714D01*
X27845090Y-21180711D01*
X27845090Y-21180709D01*
X27779203Y-21066590D01*
X27779201Y-21066588D01*
X27779200Y-21066586D01*
X27686014Y-20973400D01*
X27686011Y-20973398D01*
X27686009Y-20973396D01*
X27571889Y-20907509D01*
X27571891Y-20907509D01*
X27522499Y-20894275D01*
X27444592Y-20873400D01*
X27312808Y-20873400D01*
X27234900Y-20894275D01*
X27185509Y-20907509D01*
X27071390Y-20973396D01*
X26978196Y-21066590D01*
X26912309Y-21180709D01*
X26905877Y-21204714D01*
X26888360Y-21270092D01*
X26878200Y-21308009D01*
X26878200Y-21373065D01*
X26859293Y-21431256D01*
X26849204Y-21443069D01*
X26206118Y-22086154D01*
X26151601Y-22113931D01*
X26091169Y-22104360D01*
X26047904Y-22061095D01*
X26040488Y-22041776D01*
X26036292Y-22026114D01*
X26036290Y-22026110D01*
X25970403Y-21911990D01*
X25970399Y-21911984D01*
X25924396Y-21865981D01*
X25896619Y-21811464D01*
X25895400Y-21795978D01*
X25895400Y-19412535D01*
X25914307Y-19354344D01*
X25924396Y-19342531D01*
X28009331Y-17257596D01*
X28063848Y-17229819D01*
X28079335Y-17228600D01*
X28144390Y-17228600D01*
X28144392Y-17228600D01*
X28271686Y-17194492D01*
X28271688Y-17194490D01*
X28271690Y-17194490D01*
X28385809Y-17128603D01*
X28385809Y-17128602D01*
X28385814Y-17128600D01*
X28479000Y-17035414D01*
X28519340Y-16965543D01*
X28544890Y-16921290D01*
X28544890Y-16921288D01*
X28544892Y-16921286D01*
X28579000Y-16793992D01*
X28579000Y-16662208D01*
X28544892Y-16534914D01*
X28544890Y-16534911D01*
X28544890Y-16534909D01*
X28479003Y-16420790D01*
X28479001Y-16420788D01*
X28479000Y-16420786D01*
X28385814Y-16327600D01*
X28385811Y-16327598D01*
X28385809Y-16327596D01*
X28271689Y-16261709D01*
X28271691Y-16261709D01*
X28222299Y-16248475D01*
X28144392Y-16227600D01*
X28012608Y-16227600D01*
X27934700Y-16248475D01*
X27885309Y-16261709D01*
X27771190Y-16327596D01*
X27677996Y-16420790D01*
X27612109Y-16534909D01*
X27578000Y-16662209D01*
X27578000Y-16727265D01*
X27559093Y-16785456D01*
X27549004Y-16797269D01*
X26491777Y-17854495D01*
X26437260Y-17882272D01*
X26376828Y-17872701D01*
X26333563Y-17829436D01*
X26326146Y-17810113D01*
X26323092Y-17798714D01*
X26311732Y-17779038D01*
X26257203Y-17684590D01*
X26257201Y-17684588D01*
X26257200Y-17684586D01*
X26164014Y-17591400D01*
X26164011Y-17591398D01*
X26164009Y-17591396D01*
X26049889Y-17525509D01*
X26049891Y-17525509D01*
X26000499Y-17512275D01*
X25922592Y-17491400D01*
X25922590Y-17491400D01*
X25857535Y-17491400D01*
X25799344Y-17472493D01*
X25787531Y-17462404D01*
X25059196Y-16734069D01*
X25031419Y-16679552D01*
X25030200Y-16664065D01*
X25030200Y-14886621D01*
X25049107Y-14828430D01*
X25059190Y-14816623D01*
X25105200Y-14770614D01*
X25105203Y-14770609D01*
X25171090Y-14656490D01*
X25171090Y-14656488D01*
X25171092Y-14656486D01*
X25205200Y-14529192D01*
X25205200Y-14397408D01*
X25171092Y-14270114D01*
X25171090Y-14270111D01*
X25171090Y-14270109D01*
X25105203Y-14155990D01*
X25105201Y-14155988D01*
X25105200Y-14155986D01*
X25012014Y-14062800D01*
X25012011Y-14062798D01*
X25012009Y-14062796D01*
X24897889Y-13996909D01*
X24897891Y-13996909D01*
X24848499Y-13983675D01*
X24770592Y-13962800D01*
X24638808Y-13962800D01*
X24560900Y-13983675D01*
X24511509Y-13996909D01*
X24397390Y-14062796D01*
X24304196Y-14155990D01*
X24238309Y-14270109D01*
X24234801Y-14283203D01*
X24204200Y-14397408D01*
X24204200Y-14529192D01*
X24234279Y-14641451D01*
X24238309Y-14656490D01*
X24304196Y-14770609D01*
X24304198Y-14770611D01*
X24304200Y-14770614D01*
X24350205Y-14816619D01*
X24377981Y-14871134D01*
X24379200Y-14886621D01*
X24379200Y-16797047D01*
X24379200Y-16882753D01*
X24389525Y-16921286D01*
X24401383Y-16965543D01*
X24444231Y-17039757D01*
X24444233Y-17039759D01*
X24444235Y-17039762D01*
X25327205Y-17922732D01*
X25354981Y-17977247D01*
X25356200Y-17992734D01*
X25356200Y-18057792D01*
X25380672Y-18149124D01*
X25390309Y-18185090D01*
X25456196Y-18299209D01*
X25456198Y-18299211D01*
X25456200Y-18299214D01*
X25549386Y-18392400D01*
X25549388Y-18392401D01*
X25549390Y-18392403D01*
X25663510Y-18458290D01*
X25663511Y-18458290D01*
X25663514Y-18458292D01*
X25674913Y-18461346D01*
X25726228Y-18494670D01*
X25748155Y-18551791D01*
X25732320Y-18610892D01*
X25719295Y-18626976D01*
X25309435Y-19036837D01*
X25309431Y-19036842D01*
X25266582Y-19111060D01*
X25266581Y-19111060D01*
X25266582Y-19111061D01*
X25244400Y-19193847D01*
X25244400Y-20989979D01*
X25225493Y-21048170D01*
X25175993Y-21084134D01*
X25114807Y-21084134D01*
X25075398Y-21059984D01*
X25013214Y-20997800D01*
X25013211Y-20997798D01*
X25013209Y-20997796D01*
X24899089Y-20931909D01*
X24899091Y-20931909D01*
X24849699Y-20918675D01*
X24771792Y-20897800D01*
X24640008Y-20897800D01*
X24562100Y-20918675D01*
X24512709Y-20931909D01*
X24398590Y-20997796D01*
X24398589Y-20997797D01*
X24398586Y-20997799D01*
X24398586Y-20997800D01*
X24313501Y-21082884D01*
X24258987Y-21110660D01*
X24198555Y-21101089D01*
X24155290Y-21057824D01*
X24144500Y-21012879D01*
X24144500Y-20977109D01*
X24132389Y-20931909D01*
X24110392Y-20849814D01*
X24110390Y-20849811D01*
X24110390Y-20849809D01*
X24044503Y-20735690D01*
X24044499Y-20735684D01*
X23998396Y-20689581D01*
X23970619Y-20635064D01*
X23969400Y-20619578D01*
X23969400Y-18029740D01*
X23969401Y-18029727D01*
X23969401Y-17936047D01*
X23969400Y-17936045D01*
X23965261Y-17920600D01*
X23951604Y-17869629D01*
X23947219Y-17853265D01*
X23947218Y-17853262D01*
X23937793Y-17836937D01*
X23937793Y-17836936D01*
X23922306Y-17810113D01*
X23904365Y-17779038D01*
X23904362Y-17779035D01*
X23904361Y-17779033D01*
X23900414Y-17773888D01*
X23901870Y-17772770D01*
X23878016Y-17725937D01*
X23876800Y-17710465D01*
X23876800Y-17645409D01*
X23876800Y-17645408D01*
X23842692Y-17518114D01*
X23842690Y-17518111D01*
X23842690Y-17518109D01*
X23776803Y-17403990D01*
X23776801Y-17403988D01*
X23776800Y-17403986D01*
X23683614Y-17310800D01*
X23683611Y-17310798D01*
X23683609Y-17310796D01*
X23569489Y-17244909D01*
X23569491Y-17244909D01*
X23520099Y-17231675D01*
X23442192Y-17210800D01*
X23310408Y-17210800D01*
X23232500Y-17231675D01*
X23183109Y-17244909D01*
X23068990Y-17310796D01*
X22975796Y-17403990D01*
X22909909Y-17518109D01*
X22890839Y-17589278D01*
X22875800Y-17645408D01*
X22875800Y-17777192D01*
X22891809Y-17836939D01*
X22909909Y-17904490D01*
X22975796Y-18018609D01*
X22975798Y-18018611D01*
X22975800Y-18018614D01*
X23068986Y-18111800D01*
X23068988Y-18111801D01*
X23068990Y-18111803D01*
X23183110Y-18177690D01*
X23183111Y-18177690D01*
X23183114Y-18177692D01*
X23245024Y-18194280D01*
X23296337Y-18227602D01*
X23318264Y-18284723D01*
X23318400Y-18289906D01*
X23318400Y-20619778D01*
X23299493Y-20677969D01*
X23289404Y-20689781D01*
X23243500Y-20735684D01*
X23243496Y-20735690D01*
X23177609Y-20849809D01*
X23177608Y-20849814D01*
X23143500Y-20977108D01*
X23143500Y-21108892D01*
X23169174Y-21204709D01*
X23177609Y-21236190D01*
X23243496Y-21350309D01*
X23243498Y-21350311D01*
X23243500Y-21350314D01*
X23336686Y-21443500D01*
X23336688Y-21443501D01*
X23336690Y-21443503D01*
X23450810Y-21509390D01*
X23450808Y-21509390D01*
X23450812Y-21509391D01*
X23450814Y-21509392D01*
X23578108Y-21543500D01*
X23578110Y-21543500D01*
X23709890Y-21543500D01*
X23709892Y-21543500D01*
X23837186Y-21509392D01*
X23837188Y-21509390D01*
X23837190Y-21509390D01*
X23951309Y-21443503D01*
X23951309Y-21443502D01*
X23951314Y-21443500D01*
X24036398Y-21358415D01*
X24090913Y-21330640D01*
X24151345Y-21340211D01*
X24194610Y-21383476D01*
X24205400Y-21428421D01*
X24205400Y-21464192D01*
X24218080Y-21511514D01*
X24239509Y-21591490D01*
X24305396Y-21705609D01*
X24305398Y-21705611D01*
X24305400Y-21705614D01*
X24349905Y-21750119D01*
X24377681Y-21804634D01*
X24378900Y-21820121D01*
X24378900Y-24459006D01*
X24359993Y-24517197D01*
X24310493Y-24553161D01*
X24249307Y-24553161D01*
X24199807Y-24517197D01*
X24194164Y-24508506D01*
X24160465Y-24450138D01*
X24099862Y-24389534D01*
X24099862Y-24389535D01*
X23549862Y-23839535D01*
X23549859Y-23839533D01*
X23549858Y-23839532D01*
X23549857Y-23839531D01*
X23475642Y-23796683D01*
X23475644Y-23796683D01*
X23443521Y-23788076D01*
X23392853Y-23774500D01*
X23392851Y-23774500D01*
X19103322Y-23774500D01*
X19045131Y-23755593D01*
X19033319Y-23745504D01*
X18987315Y-23699500D01*
X18987309Y-23699496D01*
X18873189Y-23633609D01*
X18873191Y-23633609D01*
X18823799Y-23620375D01*
X18745892Y-23599500D01*
X18614108Y-23599500D01*
X18536200Y-23620375D01*
X18486809Y-23633609D01*
X18372690Y-23699496D01*
X18279496Y-23792690D01*
X18213609Y-23906809D01*
X18212629Y-23910468D01*
X18179500Y-24034108D01*
X18179500Y-24165892D01*
X18202195Y-24250590D01*
X18213609Y-24293190D01*
X18279496Y-24407309D01*
X18279498Y-24407311D01*
X18279500Y-24407314D01*
X18372686Y-24500500D01*
X18372688Y-24500501D01*
X18372690Y-24500503D01*
X18486810Y-24566390D01*
X18486808Y-24566390D01*
X18486812Y-24566391D01*
X18486814Y-24566392D01*
X18614108Y-24600500D01*
X18614110Y-24600500D01*
X18745890Y-24600500D01*
X18745892Y-24600500D01*
X18873186Y-24566392D01*
X18873188Y-24566390D01*
X18873190Y-24566390D01*
X18987309Y-24500503D01*
X18987310Y-24500502D01*
X18987314Y-24500500D01*
X18987315Y-24500499D01*
X19033319Y-24454496D01*
X19087836Y-24426719D01*
X19103322Y-24425500D01*
X23174165Y-24425500D01*
X23232356Y-24444407D01*
X23244169Y-24454496D01*
X23421209Y-24631536D01*
X23448986Y-24686053D01*
X23439415Y-24746485D01*
X23436947Y-24751029D01*
X23433608Y-24756814D01*
X23399500Y-24884108D01*
X23399500Y-25015892D01*
X23421100Y-25096505D01*
X23433609Y-25143190D01*
X23499496Y-25257309D01*
X23499498Y-25257311D01*
X23499500Y-25257314D01*
X23592686Y-25350500D01*
X23592688Y-25350501D01*
X23592690Y-25350503D01*
X23706810Y-25416390D01*
X23706808Y-25416390D01*
X23706812Y-25416391D01*
X23706814Y-25416392D01*
X23834108Y-25450500D01*
X23834110Y-25450500D01*
X23965890Y-25450500D01*
X23965892Y-25450500D01*
X24093186Y-25416392D01*
X24093188Y-25416390D01*
X24093190Y-25416390D01*
X24207309Y-25350503D01*
X24207309Y-25350502D01*
X24207314Y-25350500D01*
X24209898Y-25347915D01*
X24212228Y-25346728D01*
X24212460Y-25346551D01*
X24212492Y-25346593D01*
X24264413Y-25320140D01*
X24324845Y-25329711D01*
X24368110Y-25372976D01*
X24378900Y-25417921D01*
X24378900Y-29576178D01*
X24359993Y-29634369D01*
X24349904Y-29646181D01*
X24303800Y-29692284D01*
X24303796Y-29692290D01*
X24237909Y-29806409D01*
X24220782Y-29870329D01*
X24203800Y-29933708D01*
X24203800Y-30065492D01*
X24226578Y-30150500D01*
X24237909Y-30192790D01*
X24303796Y-30306909D01*
X24303798Y-30306911D01*
X24303800Y-30306914D01*
X24396986Y-30400100D01*
X24396988Y-30400101D01*
X24396990Y-30400103D01*
X24511110Y-30465990D01*
X24511111Y-30465990D01*
X24511114Y-30465992D01*
X24511116Y-30465992D01*
X24517106Y-30468474D01*
X24516131Y-30470827D01*
X24558291Y-30498207D01*
X24580218Y-30555329D01*
X24564382Y-30614429D01*
X24551358Y-30630513D01*
X24435669Y-30746203D01*
X24381152Y-30773981D01*
X24365665Y-30775200D01*
X17147632Y-30775200D01*
X17147616Y-30775199D01*
X17141553Y-30775199D01*
X17055847Y-30775199D01*
X17055844Y-30775199D01*
X16973062Y-30797381D01*
X16973058Y-30797383D01*
X16898838Y-30840234D01*
X16838234Y-30900837D01*
X16838235Y-30900838D01*
X13268169Y-34470904D01*
X13213652Y-34498681D01*
X13198165Y-34499900D01*
X13133108Y-34499900D01*
X13055200Y-34520775D01*
X13005809Y-34534009D01*
X12891690Y-34599896D01*
X12798496Y-34693090D01*
X12732609Y-34807209D01*
X12732608Y-34807214D01*
X12698500Y-34934508D01*
X12698500Y-35066292D01*
X12728579Y-35178551D01*
X12732609Y-35193590D01*
X12798496Y-35307709D01*
X12798498Y-35307711D01*
X12798500Y-35307714D01*
X12891686Y-35400900D01*
X12891688Y-35400901D01*
X12891690Y-35400903D01*
X13005810Y-35466790D01*
X13005808Y-35466790D01*
X13005812Y-35466791D01*
X13005814Y-35466792D01*
X13133108Y-35500900D01*
X13133110Y-35500900D01*
X13264890Y-35500900D01*
X13264892Y-35500900D01*
X13392186Y-35466792D01*
X13392188Y-35466790D01*
X13392190Y-35466790D01*
X13506309Y-35400903D01*
X13506309Y-35400902D01*
X13506314Y-35400900D01*
X13599500Y-35307714D01*
X13665392Y-35193586D01*
X13699500Y-35066292D01*
X13699500Y-35001234D01*
X13718407Y-34943043D01*
X13728496Y-34931230D01*
X17204530Y-31455196D01*
X17259047Y-31427419D01*
X17274534Y-31426200D01*
X22046016Y-31426200D01*
X22104207Y-31445107D01*
X22140171Y-31494607D01*
X22140171Y-31555793D01*
X22106582Y-31602022D01*
X22107219Y-31602798D01*
X22104248Y-31605236D01*
X22104207Y-31605293D01*
X22104021Y-31605422D01*
X22103465Y-31605878D01*
X21663983Y-32045360D01*
X21587323Y-32160091D01*
X21534520Y-32287570D01*
X21534520Y-32287572D01*
X21521054Y-32355271D01*
X21507600Y-32422906D01*
X21507600Y-44810734D01*
X21488693Y-44868925D01*
X21478604Y-44880738D01*
X14154543Y-52204798D01*
X14100026Y-52232575D01*
X14069052Y-52232575D01*
X13860225Y-52199500D01*
X13860222Y-52199500D01*
X13639778Y-52199500D01*
X13639775Y-52199500D01*
X13422051Y-52233984D01*
X13212400Y-52302102D01*
X13015980Y-52402183D01*
X12926806Y-52466971D01*
X12837635Y-52531758D01*
X12681758Y-52687635D01*
X12616971Y-52776806D01*
X12552183Y-52865980D01*
X12452102Y-53062400D01*
X12383984Y-53272051D01*
X12349500Y-53489774D01*
X11650499Y-53489774D01*
X11650499Y-53231163D01*
X11669406Y-53172973D01*
X11679489Y-53161166D01*
X19296714Y-45543943D01*
X19373375Y-45429211D01*
X19426180Y-45301729D01*
X19440673Y-45228867D01*
X19453100Y-45166393D01*
X19453100Y-32681607D01*
X19426180Y-32546272D01*
X19408578Y-32503777D01*
X19373377Y-32418793D01*
X19373371Y-32418782D01*
X19296714Y-32304058D01*
X19199141Y-32206485D01*
X19084417Y-32129828D01*
X19084406Y-32129822D01*
X18956928Y-32077020D01*
X18821595Y-32050100D01*
X18821593Y-32050100D01*
X18683607Y-32050100D01*
X18683604Y-32050100D01*
X18548272Y-32077020D01*
X18548270Y-32077020D01*
X18420793Y-32129822D01*
X18420782Y-32129828D01*
X18306058Y-32206485D01*
X18208485Y-32304058D01*
X18131828Y-32418782D01*
X18131822Y-32418793D01*
X18079020Y-32546270D01*
X18079020Y-32546272D01*
X18052100Y-32681604D01*
X18052100Y-44766234D01*
X18033193Y-44824425D01*
X18023104Y-44836238D01*
X10688837Y-52170504D01*
X10634320Y-52198281D01*
X10618833Y-52199500D01*
X9245734Y-52199500D01*
X9215305Y-52202353D01*
X9087114Y-52247208D01*
X8977855Y-52327845D01*
X8977845Y-52327855D01*
X8897208Y-52437114D01*
X8852353Y-52565305D01*
X8849500Y-52595726D01*
X500500Y-52595726D01*
X500500Y-29534108D01*
X5349500Y-29534108D01*
X5349500Y-29665892D01*
X5379579Y-29778151D01*
X5383609Y-29793190D01*
X5449496Y-29907309D01*
X5449498Y-29907311D01*
X5449500Y-29907314D01*
X5542686Y-30000500D01*
X5542688Y-30000501D01*
X5542690Y-30000503D01*
X5656810Y-30066390D01*
X5656808Y-30066390D01*
X5656812Y-30066391D01*
X5656814Y-30066392D01*
X5784108Y-30100500D01*
X5784110Y-30100500D01*
X5915890Y-30100500D01*
X5915892Y-30100500D01*
X6043186Y-30066392D01*
X6043188Y-30066390D01*
X6043190Y-30066390D01*
X6157309Y-30000503D01*
X6157309Y-30000502D01*
X6157314Y-30000500D01*
X6250500Y-29907314D01*
X6250503Y-29907309D01*
X6316390Y-29793190D01*
X6316390Y-29793188D01*
X6316392Y-29793186D01*
X6350500Y-29665892D01*
X6350500Y-29534108D01*
X6316392Y-29406814D01*
X6316390Y-29406811D01*
X6316390Y-29406809D01*
X6250503Y-29292690D01*
X6250499Y-29292684D01*
X6204496Y-29246681D01*
X6176719Y-29192164D01*
X6175500Y-29176678D01*
X6175500Y-28800834D01*
X6194407Y-28742643D01*
X6204496Y-28730830D01*
X13605830Y-21329496D01*
X13660347Y-21301719D01*
X13675834Y-21300500D01*
X14925166Y-21300500D01*
X14983357Y-21319407D01*
X15019321Y-21368907D01*
X15019321Y-21430093D01*
X14995171Y-21469501D01*
X12432359Y-24032314D01*
X9889532Y-26575141D01*
X9889531Y-26575142D01*
X9846682Y-26649360D01*
X9846681Y-26649360D01*
X9846682Y-26649361D01*
X9824500Y-26732147D01*
X9824500Y-29226678D01*
X9805593Y-29284869D01*
X9795504Y-29296681D01*
X9749500Y-29342684D01*
X9749496Y-29342690D01*
X9683609Y-29456809D01*
X9683608Y-29456814D01*
X9649500Y-29584108D01*
X9649500Y-29715892D01*
X9670211Y-29793186D01*
X9683609Y-29843190D01*
X9749496Y-29957309D01*
X9749498Y-29957311D01*
X9749500Y-29957314D01*
X9842686Y-30050500D01*
X9842688Y-30050501D01*
X9842690Y-30050503D01*
X9956810Y-30116390D01*
X9956808Y-30116390D01*
X9956812Y-30116391D01*
X9956814Y-30116392D01*
X10084108Y-30150500D01*
X10084110Y-30150500D01*
X10215890Y-30150500D01*
X10215892Y-30150500D01*
X10343186Y-30116392D01*
X10343188Y-30116390D01*
X10343190Y-30116390D01*
X10457309Y-30050503D01*
X10457309Y-30050502D01*
X10457314Y-30050500D01*
X10550500Y-29957314D01*
X10560304Y-29940333D01*
X10616390Y-29843190D01*
X10616390Y-29843188D01*
X10616392Y-29843186D01*
X10650500Y-29715892D01*
X10650500Y-29584108D01*
X10616392Y-29456814D01*
X10616390Y-29456811D01*
X10616390Y-29456809D01*
X10550503Y-29342690D01*
X10550499Y-29342684D01*
X10504496Y-29296681D01*
X10476719Y-29242164D01*
X10475500Y-29226678D01*
X10475500Y-26950835D01*
X10494407Y-26892644D01*
X10504496Y-26880831D01*
X15405831Y-21979496D01*
X15460348Y-21951719D01*
X15475835Y-21950500D01*
X17676678Y-21950500D01*
X17734869Y-21969407D01*
X17746681Y-21979496D01*
X17792684Y-22025499D01*
X17792690Y-22025503D01*
X17906810Y-22091390D01*
X17906811Y-22091390D01*
X17906814Y-22091392D01*
X17906816Y-22091392D01*
X17911249Y-22093229D01*
X17957777Y-22132963D01*
X17972064Y-22192457D01*
X17948653Y-22248986D01*
X17943373Y-22254699D01*
X16902569Y-23295504D01*
X16848052Y-23323281D01*
X16832565Y-23324500D01*
X16303322Y-23324500D01*
X16245131Y-23305593D01*
X16233319Y-23295504D01*
X16187315Y-23249500D01*
X16187309Y-23249496D01*
X16073189Y-23183609D01*
X16073191Y-23183609D01*
X16023799Y-23170375D01*
X15945892Y-23149500D01*
X15814108Y-23149500D01*
X15736200Y-23170375D01*
X15686809Y-23183609D01*
X15572690Y-23249496D01*
X15479496Y-23342690D01*
X15413609Y-23456809D01*
X15399072Y-23511065D01*
X15379500Y-23584108D01*
X15379500Y-23715892D01*
X15401148Y-23796683D01*
X15413609Y-23843190D01*
X15479496Y-23957309D01*
X15479498Y-23957311D01*
X15479500Y-23957314D01*
X15525505Y-24003319D01*
X15553281Y-24057834D01*
X15554500Y-24073321D01*
X15554500Y-24457147D01*
X15554500Y-24542853D01*
X15569946Y-24600500D01*
X15576683Y-24625643D01*
X15619531Y-24699857D01*
X15619533Y-24699859D01*
X15619535Y-24699862D01*
X18780138Y-27860465D01*
X18780140Y-27860466D01*
X18780142Y-27860468D01*
X18854357Y-27903316D01*
X18854355Y-27903316D01*
X18854359Y-27903317D01*
X18854361Y-27903318D01*
X18937147Y-27925500D01*
X19926678Y-27925500D01*
X19984869Y-27944407D01*
X19996681Y-27954496D01*
X20042684Y-28000499D01*
X20042690Y-28000503D01*
X20156810Y-28066390D01*
X20156808Y-28066390D01*
X20156812Y-28066391D01*
X20156814Y-28066392D01*
X20284108Y-28100500D01*
X20284110Y-28100500D01*
X20415890Y-28100500D01*
X20415892Y-28100500D01*
X20543186Y-28066392D01*
X20543188Y-28066390D01*
X20543190Y-28066390D01*
X20657309Y-28000503D01*
X20657309Y-28000502D01*
X20657314Y-28000500D01*
X20750500Y-27907314D01*
X20777547Y-27860468D01*
X20816390Y-27793190D01*
X20816390Y-27793188D01*
X20816392Y-27793186D01*
X20850500Y-27665892D01*
X20850500Y-27534108D01*
X20816392Y-27406814D01*
X20816390Y-27406811D01*
X20816390Y-27406809D01*
X20750503Y-27292690D01*
X20750501Y-27292688D01*
X20750500Y-27292686D01*
X20657314Y-27199500D01*
X20657311Y-27199498D01*
X20657309Y-27199496D01*
X20543189Y-27133609D01*
X20543191Y-27133609D01*
X20493799Y-27120375D01*
X20415892Y-27099500D01*
X20284108Y-27099500D01*
X20206200Y-27120375D01*
X20156809Y-27133609D01*
X20042690Y-27199496D01*
X20042684Y-27199500D01*
X19996681Y-27245504D01*
X19942164Y-27273281D01*
X19926678Y-27274500D01*
X19155835Y-27274500D01*
X19097644Y-27255593D01*
X19085831Y-27245504D01*
X16234496Y-24394169D01*
X16206719Y-24339652D01*
X16205500Y-24324165D01*
X16205500Y-24074500D01*
X16224407Y-24016309D01*
X16273907Y-23980345D01*
X16304500Y-23975500D01*
X17051251Y-23975500D01*
X17051253Y-23975500D01*
X17134039Y-23953318D01*
X17134041Y-23953316D01*
X17134043Y-23953316D01*
X17208257Y-23910468D01*
X17208257Y-23910467D01*
X17208262Y-23910465D01*
X19024965Y-22093762D01*
X19033834Y-22078400D01*
X19067818Y-22019538D01*
X19090000Y-21936753D01*
X19090000Y-20256940D01*
X19090001Y-20256927D01*
X19090001Y-20163247D01*
X19090000Y-20163245D01*
X19067819Y-20080465D01*
X19067818Y-20080464D01*
X19067818Y-20080462D01*
X19024965Y-20006238D01*
X18964362Y-19945635D01*
X18964359Y-19945633D01*
X18111710Y-19092984D01*
X17158996Y-18140269D01*
X17131219Y-18085752D01*
X17130000Y-18070265D01*
X17130000Y-17355721D01*
X17148907Y-17297530D01*
X17198407Y-17261566D01*
X17259593Y-17261566D01*
X17299001Y-17285715D01*
X17307586Y-17294300D01*
X17307588Y-17294301D01*
X17307590Y-17294303D01*
X17421710Y-17360190D01*
X17421708Y-17360190D01*
X17421712Y-17360191D01*
X17421714Y-17360192D01*
X17549008Y-17394300D01*
X17549010Y-17394300D01*
X17680790Y-17394300D01*
X17680792Y-17394300D01*
X17808086Y-17360192D01*
X17808088Y-17360190D01*
X17808090Y-17360190D01*
X17922209Y-17294303D01*
X17922209Y-17294302D01*
X17922214Y-17294300D01*
X18015400Y-17201114D01*
X18019223Y-17194492D01*
X18081290Y-17086990D01*
X18081290Y-17086988D01*
X18081292Y-17086986D01*
X18115400Y-16959692D01*
X18115400Y-16827908D01*
X18081292Y-16700614D01*
X18081290Y-16700611D01*
X18081290Y-16700609D01*
X18015403Y-16586490D01*
X18015399Y-16586484D01*
X17969396Y-16540481D01*
X17941619Y-16485964D01*
X17940400Y-16470478D01*
X17940400Y-15664934D01*
X17959307Y-15606743D01*
X17969396Y-15594930D01*
X18231579Y-15332747D01*
X18506059Y-15058266D01*
X18560574Y-15030491D01*
X18621006Y-15040062D01*
X18664271Y-15083327D01*
X18673842Y-15143759D01*
X18671688Y-15153894D01*
X18665200Y-15178108D01*
X18665200Y-15309892D01*
X18679595Y-15363614D01*
X18699309Y-15437190D01*
X18765196Y-15551309D01*
X18765198Y-15551311D01*
X18765200Y-15551314D01*
X18811205Y-15597319D01*
X18838981Y-15651834D01*
X18840200Y-15667321D01*
X18840200Y-16823465D01*
X18821293Y-16881656D01*
X18811204Y-16893469D01*
X18295369Y-17409304D01*
X18240852Y-17437081D01*
X18225365Y-17438300D01*
X18160308Y-17438300D01*
X18082400Y-17459175D01*
X18033009Y-17472409D01*
X17918890Y-17538296D01*
X17825696Y-17631490D01*
X17759809Y-17745609D01*
X17752232Y-17773888D01*
X17725700Y-17872908D01*
X17725700Y-18004692D01*
X17739928Y-18057792D01*
X17759809Y-18131990D01*
X17825696Y-18246109D01*
X17825698Y-18246111D01*
X17825700Y-18246114D01*
X17918886Y-18339300D01*
X17918888Y-18339301D01*
X17918890Y-18339303D01*
X18033010Y-18405190D01*
X18033008Y-18405190D01*
X18033012Y-18405191D01*
X18033014Y-18405192D01*
X18160308Y-18439300D01*
X18160310Y-18439300D01*
X18292090Y-18439300D01*
X18292092Y-18439300D01*
X18419386Y-18405192D01*
X18419388Y-18405190D01*
X18419390Y-18405190D01*
X18533509Y-18339303D01*
X18533509Y-18339302D01*
X18533514Y-18339300D01*
X18626700Y-18246114D01*
X18646511Y-18211800D01*
X18692590Y-18131990D01*
X18692590Y-18131988D01*
X18692592Y-18131986D01*
X18726700Y-18004692D01*
X18726700Y-17939633D01*
X18745607Y-17881442D01*
X18755690Y-17869635D01*
X19365559Y-17259766D01*
X19365562Y-17259765D01*
X19426165Y-17199162D01*
X19469018Y-17124938D01*
X19475350Y-17101307D01*
X19491201Y-17042153D01*
X19491201Y-16956447D01*
X19491201Y-16950385D01*
X19491200Y-16950367D01*
X19491200Y-15667321D01*
X19510107Y-15609130D01*
X19520190Y-15597323D01*
X19566200Y-15551314D01*
X19632092Y-15437186D01*
X19666200Y-15309892D01*
X19666200Y-15178108D01*
X19632092Y-15050814D01*
X19632090Y-15050811D01*
X19632090Y-15050809D01*
X19566203Y-14936690D01*
X19566201Y-14936688D01*
X19566200Y-14936686D01*
X19473014Y-14843500D01*
X19473011Y-14843498D01*
X19473009Y-14843496D01*
X19358889Y-14777609D01*
X19358891Y-14777609D01*
X19309499Y-14764375D01*
X19231592Y-14743500D01*
X19099808Y-14743500D01*
X19075594Y-14749988D01*
X19014493Y-14746785D01*
X18966943Y-14708279D01*
X18951108Y-14649179D01*
X18973035Y-14592057D01*
X18979969Y-14584357D01*
X19152131Y-14412196D01*
X19206647Y-14384419D01*
X19222134Y-14383200D01*
X19287190Y-14383200D01*
X19287192Y-14383200D01*
X19414486Y-14349092D01*
X19414488Y-14349090D01*
X19414490Y-14349090D01*
X19528609Y-14283203D01*
X19528609Y-14283202D01*
X19528614Y-14283200D01*
X19621800Y-14190014D01*
X19650078Y-14141036D01*
X19687690Y-14075890D01*
X19687690Y-14075888D01*
X19687692Y-14075886D01*
X19721800Y-13948592D01*
X19721800Y-13816808D01*
X19702563Y-13745014D01*
X19705764Y-13683914D01*
X19744269Y-13636364D01*
X19803370Y-13620528D01*
X19860491Y-13642454D01*
X19880502Y-13664387D01*
X19884018Y-13669649D01*
X19884020Y-13669651D01*
X19884023Y-13669655D01*
X20030345Y-13815977D01*
X20202402Y-13930941D01*
X20393580Y-14010130D01*
X20596535Y-14050500D01*
X20596536Y-14050500D01*
X20803464Y-14050500D01*
X20803465Y-14050500D01*
X21006420Y-14010130D01*
X21197598Y-13930941D01*
X21369655Y-13815977D01*
X21515977Y-13669655D01*
X21630941Y-13497598D01*
X21710130Y-13306420D01*
X21750500Y-13103465D01*
X21750500Y-12896535D01*
X21750499Y-12896532D01*
X24729500Y-12896532D01*
X24729500Y-13103467D01*
X24769869Y-13306418D01*
X24849058Y-13497597D01*
X24945848Y-13642454D01*
X24964023Y-13669655D01*
X25110345Y-13815977D01*
X25282402Y-13930941D01*
X25473580Y-14010130D01*
X25676535Y-14050500D01*
X25676536Y-14050500D01*
X25883464Y-14050500D01*
X25883465Y-14050500D01*
X26086420Y-14010130D01*
X26277598Y-13930941D01*
X26449655Y-13815977D01*
X26595977Y-13669655D01*
X26710941Y-13497598D01*
X26790130Y-13306420D01*
X26830500Y-13103465D01*
X26830500Y-12896535D01*
X26830499Y-12896532D01*
X27269500Y-12896532D01*
X27269500Y-13103467D01*
X27309869Y-13306418D01*
X27389058Y-13497597D01*
X27485848Y-13642454D01*
X27504023Y-13669655D01*
X27650345Y-13815977D01*
X27822402Y-13930941D01*
X28013580Y-14010130D01*
X28216535Y-14050500D01*
X28216536Y-14050500D01*
X28423464Y-14050500D01*
X28423465Y-14050500D01*
X28626420Y-14010130D01*
X28817598Y-13930941D01*
X28989655Y-13815977D01*
X29135977Y-13669655D01*
X29250941Y-13497598D01*
X29330130Y-13306420D01*
X29370500Y-13103465D01*
X29370500Y-12896535D01*
X29370499Y-12896532D01*
X29809500Y-12896532D01*
X29809500Y-13103467D01*
X29849869Y-13306418D01*
X29929058Y-13497597D01*
X30025848Y-13642454D01*
X30044023Y-13669655D01*
X30190345Y-13815977D01*
X30362402Y-13930941D01*
X30553580Y-14010130D01*
X30756535Y-14050500D01*
X30756536Y-14050500D01*
X30963464Y-14050500D01*
X30963465Y-14050500D01*
X31166420Y-14010130D01*
X31357598Y-13930941D01*
X31529655Y-13815977D01*
X31675977Y-13669655D01*
X31790941Y-13497598D01*
X31870130Y-13306420D01*
X31910500Y-13103465D01*
X31910500Y-12896535D01*
X31910499Y-12896532D01*
X32349500Y-12896532D01*
X32349500Y-13103467D01*
X32389869Y-13306418D01*
X32469058Y-13497597D01*
X32565848Y-13642454D01*
X32584023Y-13669655D01*
X32730345Y-13815977D01*
X32902402Y-13930941D01*
X33093580Y-14010130D01*
X33296535Y-14050500D01*
X33296536Y-14050500D01*
X33503464Y-14050500D01*
X33503465Y-14050500D01*
X33706420Y-14010130D01*
X33897598Y-13930941D01*
X34069655Y-13815977D01*
X34215977Y-13669655D01*
X34330941Y-13497598D01*
X34410130Y-13306420D01*
X34450500Y-13103465D01*
X34450500Y-12896535D01*
X34450499Y-12896532D01*
X37429500Y-12896532D01*
X37429500Y-13103467D01*
X37469869Y-13306418D01*
X37549058Y-13497597D01*
X37645848Y-13642454D01*
X37664023Y-13669655D01*
X37810345Y-13815977D01*
X37982402Y-13930941D01*
X38173580Y-14010130D01*
X38376535Y-14050500D01*
X38376536Y-14050500D01*
X38583464Y-14050500D01*
X38583465Y-14050500D01*
X38786420Y-14010130D01*
X38977598Y-13930941D01*
X39149655Y-13815977D01*
X39295977Y-13669655D01*
X39410941Y-13497598D01*
X39490130Y-13306420D01*
X39530500Y-13103465D01*
X39530500Y-12896535D01*
X39530499Y-12896532D01*
X39969500Y-12896532D01*
X39969500Y-13103467D01*
X40009869Y-13306418D01*
X40089058Y-13497597D01*
X40185848Y-13642454D01*
X40204023Y-13669655D01*
X40350345Y-13815977D01*
X40522402Y-13930941D01*
X40713580Y-14010130D01*
X40916535Y-14050500D01*
X40916536Y-14050500D01*
X41123464Y-14050500D01*
X41123465Y-14050500D01*
X41326420Y-14010130D01*
X41517598Y-13930941D01*
X41689655Y-13815977D01*
X41835977Y-13669655D01*
X41950941Y-13497598D01*
X42030130Y-13306420D01*
X42070500Y-13103465D01*
X42070500Y-12896535D01*
X42070499Y-12896532D01*
X42509500Y-12896532D01*
X42509500Y-13103467D01*
X42549869Y-13306418D01*
X42629058Y-13497597D01*
X42725848Y-13642454D01*
X42744023Y-13669655D01*
X42890345Y-13815977D01*
X43062402Y-13930941D01*
X43253580Y-14010130D01*
X43456535Y-14050500D01*
X43456536Y-14050500D01*
X43663464Y-14050500D01*
X43663465Y-14050500D01*
X43866420Y-14010130D01*
X44057598Y-13930941D01*
X44229655Y-13815977D01*
X44375977Y-13669655D01*
X44490941Y-13497598D01*
X44570130Y-13306420D01*
X44610500Y-13103465D01*
X44610500Y-12896535D01*
X44610499Y-12896532D01*
X45049500Y-12896532D01*
X45049500Y-13103467D01*
X45089869Y-13306418D01*
X45169058Y-13497597D01*
X45265848Y-13642454D01*
X45284023Y-13669655D01*
X45430345Y-13815977D01*
X45602402Y-13930941D01*
X45793580Y-14010130D01*
X45996535Y-14050500D01*
X45996536Y-14050500D01*
X46203464Y-14050500D01*
X46203465Y-14050500D01*
X46406420Y-14010130D01*
X46597598Y-13930941D01*
X46769655Y-13815977D01*
X46915977Y-13669655D01*
X47030941Y-13497598D01*
X47110130Y-13306420D01*
X47150500Y-13103465D01*
X47150500Y-12896535D01*
X47150499Y-12896532D01*
X50129500Y-12896532D01*
X50129500Y-13103467D01*
X50169869Y-13306418D01*
X50249058Y-13497597D01*
X50345848Y-13642454D01*
X50364023Y-13669655D01*
X50510345Y-13815977D01*
X50682402Y-13930941D01*
X50873580Y-14010130D01*
X51076535Y-14050500D01*
X51076536Y-14050500D01*
X51283464Y-14050500D01*
X51283465Y-14050500D01*
X51486420Y-14010130D01*
X51677598Y-13930941D01*
X51849655Y-13815977D01*
X51995977Y-13669655D01*
X52110941Y-13497598D01*
X52190130Y-13306420D01*
X52230500Y-13103465D01*
X52230500Y-12896535D01*
X52230499Y-12896532D01*
X52669500Y-12896532D01*
X52669500Y-13103467D01*
X52709869Y-13306418D01*
X52789058Y-13497597D01*
X52885848Y-13642454D01*
X52904023Y-13669655D01*
X53050345Y-13815977D01*
X53222402Y-13930941D01*
X53413580Y-14010130D01*
X53616535Y-14050500D01*
X53616536Y-14050500D01*
X53823464Y-14050500D01*
X53823465Y-14050500D01*
X54026420Y-14010130D01*
X54217598Y-13930941D01*
X54389655Y-13815977D01*
X54535977Y-13669655D01*
X54650941Y-13497598D01*
X54730130Y-13306420D01*
X54770500Y-13103465D01*
X54770500Y-12896535D01*
X54770499Y-12896532D01*
X55209500Y-12896532D01*
X55209500Y-13103467D01*
X55249869Y-13306418D01*
X55329058Y-13497597D01*
X55425848Y-13642454D01*
X55444023Y-13669655D01*
X55590345Y-13815977D01*
X55762402Y-13930941D01*
X55953580Y-14010130D01*
X56156535Y-14050500D01*
X56156536Y-14050500D01*
X56363464Y-14050500D01*
X56363465Y-14050500D01*
X56566420Y-14010130D01*
X56757598Y-13930941D01*
X56929655Y-13815977D01*
X57075977Y-13669655D01*
X57190941Y-13497598D01*
X57270130Y-13306420D01*
X57310500Y-13103465D01*
X57310500Y-12896535D01*
X57270130Y-12693580D01*
X57190941Y-12502402D01*
X57075977Y-12330345D01*
X56929655Y-12184023D01*
X56929651Y-12184020D01*
X56757597Y-12069058D01*
X56566418Y-11989869D01*
X56363467Y-11949500D01*
X56363465Y-11949500D01*
X56156535Y-11949500D01*
X56156532Y-11949500D01*
X55953581Y-11989869D01*
X55762402Y-12069058D01*
X55590348Y-12184020D01*
X55444020Y-12330348D01*
X55329058Y-12502402D01*
X55249869Y-12693581D01*
X55209500Y-12896532D01*
X54770499Y-12896532D01*
X54730130Y-12693580D01*
X54650941Y-12502402D01*
X54535977Y-12330345D01*
X54389655Y-12184023D01*
X54389651Y-12184020D01*
X54217597Y-12069058D01*
X54026418Y-11989869D01*
X53823467Y-11949500D01*
X53823465Y-11949500D01*
X53616535Y-11949500D01*
X53616532Y-11949500D01*
X53413581Y-11989869D01*
X53222402Y-12069058D01*
X53050348Y-12184020D01*
X52904020Y-12330348D01*
X52789058Y-12502402D01*
X52709869Y-12693581D01*
X52669500Y-12896532D01*
X52230499Y-12896532D01*
X52190130Y-12693580D01*
X52110941Y-12502402D01*
X51995977Y-12330345D01*
X51849655Y-12184023D01*
X51849651Y-12184020D01*
X51677597Y-12069058D01*
X51486418Y-11989869D01*
X51283467Y-11949500D01*
X51283465Y-11949500D01*
X51076535Y-11949500D01*
X51076532Y-11949500D01*
X50873581Y-11989869D01*
X50682402Y-12069058D01*
X50510348Y-12184020D01*
X50364020Y-12330348D01*
X50249058Y-12502402D01*
X50169869Y-12693581D01*
X50129500Y-12896532D01*
X47150499Y-12896532D01*
X47110130Y-12693580D01*
X47030941Y-12502402D01*
X46915977Y-12330345D01*
X46769655Y-12184023D01*
X46769651Y-12184020D01*
X46597597Y-12069058D01*
X46406418Y-11989869D01*
X46203467Y-11949500D01*
X46203465Y-11949500D01*
X45996535Y-11949500D01*
X45996532Y-11949500D01*
X45793581Y-11989869D01*
X45602402Y-12069058D01*
X45430348Y-12184020D01*
X45284020Y-12330348D01*
X45169058Y-12502402D01*
X45089869Y-12693581D01*
X45049500Y-12896532D01*
X44610499Y-12896532D01*
X44570130Y-12693580D01*
X44490941Y-12502402D01*
X44375977Y-12330345D01*
X44229655Y-12184023D01*
X44229651Y-12184020D01*
X44057597Y-12069058D01*
X43866418Y-11989869D01*
X43663467Y-11949500D01*
X43663465Y-11949500D01*
X43456535Y-11949500D01*
X43456532Y-11949500D01*
X43253581Y-11989869D01*
X43062402Y-12069058D01*
X42890348Y-12184020D01*
X42744020Y-12330348D01*
X42629058Y-12502402D01*
X42549869Y-12693581D01*
X42509500Y-12896532D01*
X42070499Y-12896532D01*
X42030130Y-12693580D01*
X41950941Y-12502402D01*
X41835977Y-12330345D01*
X41689655Y-12184023D01*
X41689651Y-12184020D01*
X41517597Y-12069058D01*
X41326418Y-11989869D01*
X41123467Y-11949500D01*
X41123465Y-11949500D01*
X40916535Y-11949500D01*
X40916532Y-11949500D01*
X40713581Y-11989869D01*
X40522402Y-12069058D01*
X40350348Y-12184020D01*
X40204020Y-12330348D01*
X40089058Y-12502402D01*
X40009869Y-12693581D01*
X39969500Y-12896532D01*
X39530499Y-12896532D01*
X39490130Y-12693580D01*
X39410941Y-12502402D01*
X39295977Y-12330345D01*
X39149655Y-12184023D01*
X39149651Y-12184020D01*
X38977597Y-12069058D01*
X38786418Y-11989869D01*
X38583467Y-11949500D01*
X38583465Y-11949500D01*
X38376535Y-11949500D01*
X38376532Y-11949500D01*
X38173581Y-11989869D01*
X37982402Y-12069058D01*
X37810348Y-12184020D01*
X37664020Y-12330348D01*
X37549058Y-12502402D01*
X37469869Y-12693581D01*
X37429500Y-12896532D01*
X34450499Y-12896532D01*
X34410130Y-12693580D01*
X34330941Y-12502402D01*
X34215977Y-12330345D01*
X34069655Y-12184023D01*
X34069651Y-12184020D01*
X33897597Y-12069058D01*
X33706418Y-11989869D01*
X33503467Y-11949500D01*
X33503465Y-11949500D01*
X33296535Y-11949500D01*
X33296532Y-11949500D01*
X33093581Y-11989869D01*
X32902402Y-12069058D01*
X32730348Y-12184020D01*
X32584020Y-12330348D01*
X32469058Y-12502402D01*
X32389869Y-12693581D01*
X32349500Y-12896532D01*
X31910499Y-12896532D01*
X31870130Y-12693580D01*
X31790941Y-12502402D01*
X31675977Y-12330345D01*
X31529655Y-12184023D01*
X31529651Y-12184020D01*
X31357597Y-12069058D01*
X31166418Y-11989869D01*
X30963467Y-11949500D01*
X30963465Y-11949500D01*
X30756535Y-11949500D01*
X30756532Y-11949500D01*
X30553581Y-11989869D01*
X30362402Y-12069058D01*
X30190348Y-12184020D01*
X30044020Y-12330348D01*
X29929058Y-12502402D01*
X29849869Y-12693581D01*
X29809500Y-12896532D01*
X29370499Y-12896532D01*
X29330130Y-12693580D01*
X29250941Y-12502402D01*
X29135977Y-12330345D01*
X28989655Y-12184023D01*
X28989651Y-12184020D01*
X28817597Y-12069058D01*
X28626418Y-11989869D01*
X28423467Y-11949500D01*
X28423465Y-11949500D01*
X28216535Y-11949500D01*
X28216532Y-11949500D01*
X28013581Y-11989869D01*
X27822402Y-12069058D01*
X27650348Y-12184020D01*
X27504020Y-12330348D01*
X27389058Y-12502402D01*
X27309869Y-12693581D01*
X27269500Y-12896532D01*
X26830499Y-12896532D01*
X26790130Y-12693580D01*
X26710941Y-12502402D01*
X26595977Y-12330345D01*
X26449655Y-12184023D01*
X26449651Y-12184020D01*
X26277597Y-12069058D01*
X26086418Y-11989869D01*
X25883467Y-11949500D01*
X25883465Y-11949500D01*
X25676535Y-11949500D01*
X25676532Y-11949500D01*
X25473581Y-11989869D01*
X25282402Y-12069058D01*
X25110348Y-12184020D01*
X24964020Y-12330348D01*
X24849058Y-12502402D01*
X24769869Y-12693581D01*
X24729500Y-12896532D01*
X21750499Y-12896532D01*
X21710130Y-12693580D01*
X21630941Y-12502402D01*
X21515977Y-12330345D01*
X21369655Y-12184023D01*
X21369651Y-12184020D01*
X21197597Y-12069058D01*
X21006418Y-11989869D01*
X20803467Y-11949500D01*
X20803465Y-11949500D01*
X20596535Y-11949500D01*
X20596532Y-11949500D01*
X20393581Y-11989869D01*
X20202402Y-12069058D01*
X20030348Y-12184020D01*
X19884020Y-12330348D01*
X19769058Y-12502402D01*
X19689869Y-12693581D01*
X19649500Y-12896532D01*
X19649500Y-13103467D01*
X19689869Y-13306418D01*
X19737727Y-13421956D01*
X19742528Y-13482953D01*
X19710558Y-13535122D01*
X19654030Y-13558537D01*
X19594536Y-13544253D01*
X19576263Y-13529849D01*
X19528614Y-13482200D01*
X19528611Y-13482198D01*
X19528609Y-13482196D01*
X19414489Y-13416309D01*
X19414491Y-13416309D01*
X19365099Y-13403075D01*
X19287192Y-13382200D01*
X19275688Y-13382200D01*
X19217497Y-13363293D01*
X19181533Y-13313793D01*
X19178590Y-13263886D01*
X19210500Y-13103465D01*
X19210500Y-12896535D01*
X19170130Y-12693580D01*
X19090941Y-12502402D01*
X18975977Y-12330345D01*
X18829655Y-12184023D01*
X18829651Y-12184020D01*
X18657597Y-12069058D01*
X18466418Y-11989869D01*
X18263467Y-11949500D01*
X18263465Y-11949500D01*
X18056535Y-11949500D01*
X18056532Y-11949500D01*
X17853581Y-11989869D01*
X17662402Y-12069058D01*
X17490348Y-12184020D01*
X17344019Y-12330349D01*
X17311315Y-12379295D01*
X17263265Y-12417174D01*
X17202127Y-12419576D01*
X17151253Y-12385583D01*
X17130076Y-12328179D01*
X17130000Y-12324293D01*
X17130000Y-11135706D01*
X17148907Y-11077515D01*
X17198407Y-11041551D01*
X17259593Y-11041551D01*
X17309093Y-11077515D01*
X17311313Y-11080701D01*
X17344023Y-11129655D01*
X17490345Y-11275977D01*
X17662402Y-11390941D01*
X17853580Y-11470130D01*
X18056535Y-11510500D01*
X18056536Y-11510500D01*
X18263464Y-11510500D01*
X18263465Y-11510500D01*
X18466420Y-11470130D01*
X18657598Y-11390941D01*
X18829655Y-11275977D01*
X18975977Y-11129655D01*
X19090941Y-10957598D01*
X19170130Y-10766420D01*
X19210500Y-10563465D01*
X19210500Y-10356535D01*
X19210499Y-10356532D01*
X19649500Y-10356532D01*
X19649500Y-10563467D01*
X19689869Y-10766418D01*
X19769058Y-10957597D01*
X19769059Y-10957598D01*
X19884023Y-11129655D01*
X20030345Y-11275977D01*
X20202402Y-11390941D01*
X20393580Y-11470130D01*
X20596535Y-11510500D01*
X20596536Y-11510500D01*
X20803464Y-11510500D01*
X20803465Y-11510500D01*
X21006420Y-11470130D01*
X21197598Y-11390941D01*
X21369655Y-11275977D01*
X21515977Y-11129655D01*
X21630941Y-10957598D01*
X21710130Y-10766420D01*
X21750500Y-10563465D01*
X21750500Y-10356535D01*
X21750499Y-10356532D01*
X22189500Y-10356532D01*
X22189500Y-10563467D01*
X22229869Y-10766418D01*
X22309058Y-10957597D01*
X22309059Y-10957598D01*
X22424023Y-11129655D01*
X22570345Y-11275977D01*
X22742402Y-11390941D01*
X22933580Y-11470130D01*
X23136535Y-11510500D01*
X23136536Y-11510500D01*
X23343464Y-11510500D01*
X23343465Y-11510500D01*
X23546420Y-11470130D01*
X23737598Y-11390941D01*
X23909655Y-11275977D01*
X24055977Y-11129655D01*
X24170941Y-10957598D01*
X24250130Y-10766420D01*
X24290500Y-10563465D01*
X24290500Y-10356535D01*
X24290499Y-10356532D01*
X24729500Y-10356532D01*
X24729500Y-10563467D01*
X24769869Y-10766418D01*
X24849058Y-10957597D01*
X24849059Y-10957598D01*
X24964023Y-11129655D01*
X25110345Y-11275977D01*
X25282402Y-11390941D01*
X25473580Y-11470130D01*
X25676535Y-11510500D01*
X25676536Y-11510500D01*
X25883464Y-11510500D01*
X25883465Y-11510500D01*
X26086420Y-11470130D01*
X26277598Y-11390941D01*
X26449655Y-11275977D01*
X26595977Y-11129655D01*
X26710941Y-10957598D01*
X26790130Y-10766420D01*
X26830500Y-10563465D01*
X26830500Y-10356535D01*
X26830499Y-10356532D01*
X29809500Y-10356532D01*
X29809500Y-10563467D01*
X29849869Y-10766418D01*
X29929058Y-10957597D01*
X29929059Y-10957598D01*
X30044023Y-11129655D01*
X30190345Y-11275977D01*
X30362402Y-11390941D01*
X30553580Y-11470130D01*
X30756535Y-11510500D01*
X30756536Y-11510500D01*
X30963464Y-11510500D01*
X30963465Y-11510500D01*
X31166420Y-11470130D01*
X31357598Y-11390941D01*
X31529655Y-11275977D01*
X31675977Y-11129655D01*
X31790941Y-10957598D01*
X31870130Y-10766420D01*
X31910500Y-10563465D01*
X31910500Y-10356535D01*
X31910499Y-10356532D01*
X32349500Y-10356532D01*
X32349500Y-10563467D01*
X32389869Y-10766418D01*
X32469058Y-10957597D01*
X32469059Y-10957598D01*
X32584023Y-11129655D01*
X32730345Y-11275977D01*
X32902402Y-11390941D01*
X33093580Y-11470130D01*
X33296535Y-11510500D01*
X33296536Y-11510500D01*
X33503464Y-11510500D01*
X33503465Y-11510500D01*
X33706420Y-11470130D01*
X33897598Y-11390941D01*
X34069655Y-11275977D01*
X34215977Y-11129655D01*
X34330941Y-10957598D01*
X34410130Y-10766420D01*
X34450500Y-10563465D01*
X34450500Y-10356535D01*
X34450499Y-10356532D01*
X34889500Y-10356532D01*
X34889500Y-10563467D01*
X34929869Y-10766418D01*
X35009058Y-10957597D01*
X35009059Y-10957598D01*
X35124023Y-11129655D01*
X35270345Y-11275977D01*
X35442402Y-11390941D01*
X35633580Y-11470130D01*
X35836535Y-11510500D01*
X35836536Y-11510500D01*
X36043464Y-11510500D01*
X36043465Y-11510500D01*
X36246420Y-11470130D01*
X36437598Y-11390941D01*
X36609655Y-11275977D01*
X36755977Y-11129655D01*
X36870941Y-10957598D01*
X36950130Y-10766420D01*
X36990500Y-10563465D01*
X36990500Y-10356535D01*
X36990499Y-10356532D01*
X37429500Y-10356532D01*
X37429500Y-10563467D01*
X37469869Y-10766418D01*
X37549058Y-10957597D01*
X37549059Y-10957598D01*
X37664023Y-11129655D01*
X37810345Y-11275977D01*
X37982402Y-11390941D01*
X38173580Y-11470130D01*
X38376535Y-11510500D01*
X38376536Y-11510500D01*
X38583464Y-11510500D01*
X38583465Y-11510500D01*
X38786420Y-11470130D01*
X38977598Y-11390941D01*
X39149655Y-11275977D01*
X39295977Y-11129655D01*
X39410941Y-10957598D01*
X39490130Y-10766420D01*
X39530500Y-10563465D01*
X39530500Y-10356535D01*
X39530499Y-10356532D01*
X42509500Y-10356532D01*
X42509500Y-10563467D01*
X42549869Y-10766418D01*
X42629058Y-10957597D01*
X42629059Y-10957598D01*
X42744023Y-11129655D01*
X42890345Y-11275977D01*
X43062402Y-11390941D01*
X43253580Y-11470130D01*
X43456535Y-11510500D01*
X43456536Y-11510500D01*
X43663464Y-11510500D01*
X43663465Y-11510500D01*
X43866420Y-11470130D01*
X44057598Y-11390941D01*
X44229655Y-11275977D01*
X44375977Y-11129655D01*
X44490941Y-10957598D01*
X44570130Y-10766420D01*
X44610500Y-10563465D01*
X44610500Y-10356535D01*
X44610499Y-10356532D01*
X45049500Y-10356532D01*
X45049500Y-10563467D01*
X45089869Y-10766418D01*
X45169058Y-10957597D01*
X45169059Y-10957598D01*
X45284023Y-11129655D01*
X45430345Y-11275977D01*
X45602402Y-11390941D01*
X45793580Y-11470130D01*
X45996535Y-11510500D01*
X45996536Y-11510500D01*
X46203464Y-11510500D01*
X46203465Y-11510500D01*
X46406420Y-11470130D01*
X46597598Y-11390941D01*
X46769655Y-11275977D01*
X46915977Y-11129655D01*
X47030941Y-10957598D01*
X47110130Y-10766420D01*
X47150500Y-10563465D01*
X47150500Y-10356535D01*
X47150499Y-10356532D01*
X47589500Y-10356532D01*
X47589500Y-10563467D01*
X47629869Y-10766418D01*
X47709058Y-10957597D01*
X47709059Y-10957598D01*
X47824023Y-11129655D01*
X47970345Y-11275977D01*
X48142402Y-11390941D01*
X48333580Y-11470130D01*
X48536535Y-11510500D01*
X48536536Y-11510500D01*
X48743464Y-11510500D01*
X48743465Y-11510500D01*
X48946420Y-11470130D01*
X49137598Y-11390941D01*
X49309655Y-11275977D01*
X49455977Y-11129655D01*
X49570941Y-10957598D01*
X49650130Y-10766420D01*
X49690500Y-10563465D01*
X49690500Y-10356535D01*
X49690499Y-10356532D01*
X50129500Y-10356532D01*
X50129500Y-10563467D01*
X50169869Y-10766418D01*
X50249058Y-10957597D01*
X50249059Y-10957598D01*
X50364023Y-11129655D01*
X50510345Y-11275977D01*
X50682402Y-11390941D01*
X50873580Y-11470130D01*
X51076535Y-11510500D01*
X51076536Y-11510500D01*
X51283464Y-11510500D01*
X51283465Y-11510500D01*
X51486420Y-11470130D01*
X51677598Y-11390941D01*
X51849655Y-11275977D01*
X51995977Y-11129655D01*
X52110941Y-10957598D01*
X52190130Y-10766420D01*
X52230500Y-10563465D01*
X52230500Y-10356535D01*
X52230499Y-10356532D01*
X55209500Y-10356532D01*
X55209500Y-10563467D01*
X55249869Y-10766418D01*
X55329058Y-10957597D01*
X55329059Y-10957598D01*
X55444023Y-11129655D01*
X55590345Y-11275977D01*
X55762402Y-11390941D01*
X55953580Y-11470130D01*
X56156535Y-11510500D01*
X56156536Y-11510500D01*
X56363464Y-11510500D01*
X56363465Y-11510500D01*
X56566420Y-11470130D01*
X56757598Y-11390941D01*
X56929655Y-11275977D01*
X57075977Y-11129655D01*
X57190941Y-10957598D01*
X57270130Y-10766420D01*
X57310500Y-10563465D01*
X57310500Y-10356535D01*
X57270130Y-10153580D01*
X57190941Y-9962402D01*
X57075977Y-9790345D01*
X56929655Y-9644023D01*
X56757598Y-9529059D01*
X56757599Y-9529059D01*
X56757597Y-9529058D01*
X56566418Y-9449869D01*
X56363467Y-9409500D01*
X56363465Y-9409500D01*
X56156535Y-9409500D01*
X56156532Y-9409500D01*
X55953581Y-9449869D01*
X55762402Y-9529058D01*
X55590348Y-9644020D01*
X55444020Y-9790348D01*
X55329058Y-9962402D01*
X55249869Y-10153581D01*
X55209500Y-10356532D01*
X52230499Y-10356532D01*
X52190130Y-10153580D01*
X52110941Y-9962402D01*
X51995977Y-9790345D01*
X51849655Y-9644023D01*
X51677598Y-9529059D01*
X51677599Y-9529059D01*
X51677597Y-9529058D01*
X51486418Y-9449869D01*
X51283467Y-9409500D01*
X51283465Y-9409500D01*
X51076535Y-9409500D01*
X51076532Y-9409500D01*
X50873581Y-9449869D01*
X50682402Y-9529058D01*
X50510348Y-9644020D01*
X50364020Y-9790348D01*
X50249058Y-9962402D01*
X50169869Y-10153581D01*
X50129500Y-10356532D01*
X49690499Y-10356532D01*
X49650130Y-10153580D01*
X49570941Y-9962402D01*
X49455977Y-9790345D01*
X49309655Y-9644023D01*
X49137598Y-9529059D01*
X49137599Y-9529059D01*
X49137597Y-9529058D01*
X48946418Y-9449869D01*
X48743467Y-9409500D01*
X48743465Y-9409500D01*
X48536535Y-9409500D01*
X48536532Y-9409500D01*
X48333581Y-9449869D01*
X48142402Y-9529058D01*
X47970348Y-9644020D01*
X47824020Y-9790348D01*
X47709058Y-9962402D01*
X47629869Y-10153581D01*
X47589500Y-10356532D01*
X47150499Y-10356532D01*
X47110130Y-10153580D01*
X47030941Y-9962402D01*
X46915977Y-9790345D01*
X46769655Y-9644023D01*
X46597598Y-9529059D01*
X46597599Y-9529059D01*
X46597597Y-9529058D01*
X46406418Y-9449869D01*
X46203467Y-9409500D01*
X46203465Y-9409500D01*
X45996535Y-9409500D01*
X45996532Y-9409500D01*
X45793581Y-9449869D01*
X45602402Y-9529058D01*
X45430348Y-9644020D01*
X45284020Y-9790348D01*
X45169058Y-9962402D01*
X45089869Y-10153581D01*
X45049500Y-10356532D01*
X44610499Y-10356532D01*
X44570130Y-10153580D01*
X44490941Y-9962402D01*
X44375977Y-9790345D01*
X44229655Y-9644023D01*
X44057598Y-9529059D01*
X44057599Y-9529059D01*
X44057597Y-9529058D01*
X43866418Y-9449869D01*
X43663467Y-9409500D01*
X43663465Y-9409500D01*
X43456535Y-9409500D01*
X43456532Y-9409500D01*
X43253581Y-9449869D01*
X43062402Y-9529058D01*
X42890348Y-9644020D01*
X42744020Y-9790348D01*
X42629058Y-9962402D01*
X42549869Y-10153581D01*
X42509500Y-10356532D01*
X39530499Y-10356532D01*
X39490130Y-10153580D01*
X39410941Y-9962402D01*
X39295977Y-9790345D01*
X39149655Y-9644023D01*
X38977598Y-9529059D01*
X38977599Y-9529059D01*
X38977597Y-9529058D01*
X38786418Y-9449869D01*
X38583467Y-9409500D01*
X38583465Y-9409500D01*
X38376535Y-9409500D01*
X38376532Y-9409500D01*
X38173581Y-9449869D01*
X37982402Y-9529058D01*
X37810348Y-9644020D01*
X37664020Y-9790348D01*
X37549058Y-9962402D01*
X37469869Y-10153581D01*
X37429500Y-10356532D01*
X36990499Y-10356532D01*
X36950130Y-10153580D01*
X36870941Y-9962402D01*
X36755977Y-9790345D01*
X36609655Y-9644023D01*
X36437598Y-9529059D01*
X36437599Y-9529059D01*
X36437597Y-9529058D01*
X36246418Y-9449869D01*
X36043467Y-9409500D01*
X36043465Y-9409500D01*
X35836535Y-9409500D01*
X35836532Y-9409500D01*
X35633581Y-9449869D01*
X35442402Y-9529058D01*
X35270348Y-9644020D01*
X35124020Y-9790348D01*
X35009058Y-9962402D01*
X34929869Y-10153581D01*
X34889500Y-10356532D01*
X34450499Y-10356532D01*
X34410130Y-10153580D01*
X34330941Y-9962402D01*
X34215977Y-9790345D01*
X34069655Y-9644023D01*
X33897598Y-9529059D01*
X33897599Y-9529059D01*
X33897597Y-9529058D01*
X33706418Y-9449869D01*
X33503467Y-9409500D01*
X33503465Y-9409500D01*
X33296535Y-9409500D01*
X33296532Y-9409500D01*
X33093581Y-9449869D01*
X32902402Y-9529058D01*
X32730348Y-9644020D01*
X32584020Y-9790348D01*
X32469058Y-9962402D01*
X32389869Y-10153581D01*
X32349500Y-10356532D01*
X31910499Y-10356532D01*
X31870130Y-10153580D01*
X31790941Y-9962402D01*
X31675977Y-9790345D01*
X31529655Y-9644023D01*
X31357598Y-9529059D01*
X31357599Y-9529059D01*
X31357597Y-9529058D01*
X31166418Y-9449869D01*
X30963467Y-9409500D01*
X30963465Y-9409500D01*
X30756535Y-9409500D01*
X30756532Y-9409500D01*
X30553581Y-9449869D01*
X30362402Y-9529058D01*
X30190348Y-9644020D01*
X30044020Y-9790348D01*
X29929058Y-9962402D01*
X29849869Y-10153581D01*
X29809500Y-10356532D01*
X26830499Y-10356532D01*
X26790130Y-10153580D01*
X26710941Y-9962402D01*
X26595977Y-9790345D01*
X26449655Y-9644023D01*
X26277598Y-9529059D01*
X26277599Y-9529059D01*
X26277597Y-9529058D01*
X26086418Y-9449869D01*
X25883467Y-9409500D01*
X25883465Y-9409500D01*
X25676535Y-9409500D01*
X25676532Y-9409500D01*
X25473581Y-9449869D01*
X25282402Y-9529058D01*
X25110348Y-9644020D01*
X24964020Y-9790348D01*
X24849058Y-9962402D01*
X24769869Y-10153581D01*
X24729500Y-10356532D01*
X24290499Y-10356532D01*
X24250130Y-10153580D01*
X24170941Y-9962402D01*
X24055977Y-9790345D01*
X23909655Y-9644023D01*
X23737598Y-9529059D01*
X23737599Y-9529059D01*
X23737597Y-9529058D01*
X23546418Y-9449869D01*
X23343467Y-9409500D01*
X23343465Y-9409500D01*
X23136535Y-9409500D01*
X23136532Y-9409500D01*
X22933581Y-9449869D01*
X22742402Y-9529058D01*
X22570348Y-9644020D01*
X22424020Y-9790348D01*
X22309058Y-9962402D01*
X22229869Y-10153581D01*
X22189500Y-10356532D01*
X21750499Y-10356532D01*
X21710130Y-10153580D01*
X21630941Y-9962402D01*
X21515977Y-9790345D01*
X21369655Y-9644023D01*
X21197598Y-9529059D01*
X21197599Y-9529059D01*
X21197597Y-9529058D01*
X21006418Y-9449869D01*
X20803467Y-9409500D01*
X20803465Y-9409500D01*
X20596535Y-9409500D01*
X20596532Y-9409500D01*
X20393581Y-9449869D01*
X20202402Y-9529058D01*
X20030348Y-9644020D01*
X19884020Y-9790348D01*
X19769058Y-9962402D01*
X19689869Y-10153581D01*
X19649500Y-10356532D01*
X19210499Y-10356532D01*
X19170130Y-10153580D01*
X19090941Y-9962402D01*
X18975977Y-9790345D01*
X18829655Y-9644023D01*
X18657598Y-9529059D01*
X18657599Y-9529059D01*
X18657597Y-9529058D01*
X18466418Y-9449869D01*
X18263467Y-9409500D01*
X18263465Y-9409500D01*
X18056535Y-9409500D01*
X18056532Y-9409500D01*
X17853581Y-9449869D01*
X17662402Y-9529058D01*
X17490348Y-9644020D01*
X17344019Y-9790349D01*
X17311315Y-9839295D01*
X17263265Y-9877174D01*
X17202127Y-9879576D01*
X17151253Y-9845583D01*
X17130076Y-9788179D01*
X17130000Y-9784293D01*
X17130000Y-6183348D01*
X17130000Y-6183347D01*
X17107818Y-6100562D01*
X17107818Y-6100561D01*
X17107817Y-6100559D01*
X17086391Y-6063449D01*
X17086389Y-6063447D01*
X17064965Y-6026338D01*
X17004362Y-5965735D01*
X17004359Y-5965733D01*
X16068915Y-5030289D01*
X14984102Y-3945475D01*
X14917337Y-3878710D01*
X58149500Y-3878710D01*
X58149500Y-4121289D01*
X58181161Y-4361781D01*
X58181161Y-4361786D01*
X58243944Y-4596092D01*
X58243948Y-4596105D01*
X58336772Y-4820204D01*
X58336774Y-4820208D01*
X58336776Y-4820212D01*
X58458064Y-5030289D01*
X58458066Y-5030292D01*
X58605729Y-5222731D01*
X58605731Y-5222733D01*
X58605735Y-5222738D01*
X58777262Y-5394265D01*
X58777266Y-5394268D01*
X58777268Y-5394270D01*
X58969707Y-5541933D01*
X58969711Y-5541936D01*
X59179788Y-5663224D01*
X59403900Y-5756054D01*
X59638211Y-5818838D01*
X59878712Y-5850500D01*
X59878713Y-5850500D01*
X60121287Y-5850500D01*
X60121288Y-5850500D01*
X60361789Y-5818838D01*
X60596100Y-5756054D01*
X60820212Y-5663224D01*
X61030289Y-5541936D01*
X61222738Y-5394265D01*
X61394265Y-5222738D01*
X61541936Y-5030289D01*
X61663224Y-4820212D01*
X61756054Y-4596100D01*
X61818838Y-4361789D01*
X61850500Y-4121288D01*
X61850500Y-3878712D01*
X61818838Y-3638211D01*
X61756054Y-3403900D01*
X61663224Y-3179788D01*
X61541936Y-2969711D01*
X61394265Y-2777262D01*
X61222738Y-2605735D01*
X61222733Y-2605731D01*
X61222731Y-2605729D01*
X61030292Y-2458066D01*
X60943092Y-2407721D01*
X60820212Y-2336776D01*
X60820208Y-2336774D01*
X60820204Y-2336772D01*
X60596105Y-2243948D01*
X60596104Y-2243947D01*
X60596100Y-2243946D01*
X60361789Y-2181162D01*
X60361786Y-2181161D01*
X60361784Y-2181161D01*
X60121289Y-2149500D01*
X60121288Y-2149500D01*
X59878712Y-2149500D01*
X59878710Y-2149500D01*
X59638218Y-2181161D01*
X59638213Y-2181161D01*
X59403907Y-2243944D01*
X59403894Y-2243948D01*
X59179795Y-2336772D01*
X58969707Y-2458066D01*
X58777268Y-2605729D01*
X58605729Y-2777268D01*
X58458066Y-2969707D01*
X58336772Y-3179795D01*
X58243948Y-3403894D01*
X58243944Y-3403907D01*
X58181161Y-3638213D01*
X58181161Y-3638218D01*
X58149500Y-3878710D01*
X14917337Y-3878710D01*
X14658131Y-3619504D01*
X14630354Y-3564987D01*
X14639925Y-3504555D01*
X14683190Y-3461290D01*
X14728135Y-3450500D01*
X15429747Y-3450500D01*
X15429748Y-3450500D01*
X15488231Y-3438867D01*
X15554552Y-3394552D01*
X15598867Y-3328231D01*
X15610500Y-3269748D01*
X15610500Y-2230252D01*
X15598867Y-2171769D01*
X15554552Y-2105448D01*
X15554548Y-2105445D01*
X15488233Y-2061134D01*
X15488231Y-2061133D01*
X15488228Y-2061132D01*
X15488227Y-2061132D01*
X15429758Y-2049501D01*
X15429748Y-2049500D01*
X12880252Y-2049500D01*
X12880251Y-2049500D01*
X12880241Y-2049501D01*
X12821772Y-2061132D01*
X12821766Y-2061134D01*
X12755451Y-2105445D01*
X12755445Y-2105451D01*
X12711134Y-2171766D01*
X12711132Y-2171772D01*
X12699501Y-2230241D01*
X12699500Y-2230253D01*
X12699500Y-3269746D01*
X12699501Y-3269758D01*
X12711132Y-3328227D01*
X12711133Y-3328231D01*
X12755448Y-3394552D01*
X12821769Y-3438867D01*
X12866231Y-3447711D01*
X12880241Y-3450498D01*
X12880246Y-3450498D01*
X12880252Y-3450500D01*
X13730500Y-3450500D01*
X13788691Y-3469407D01*
X13824655Y-3518907D01*
X13829500Y-3549500D01*
X13829500Y-3619553D01*
X13849062Y-3692563D01*
X13851683Y-3702343D01*
X13894531Y-3776557D01*
X13894533Y-3776559D01*
X13894535Y-3776562D01*
X15340705Y-5222731D01*
X16450004Y-6332030D01*
X16477781Y-6386547D01*
X16479000Y-6402034D01*
X16479000Y-12134360D01*
X16460093Y-12192551D01*
X16410593Y-12228515D01*
X16349407Y-12228515D01*
X16309998Y-12204365D01*
X16289655Y-12184023D01*
X16117597Y-12069058D01*
X15926418Y-11989869D01*
X15723467Y-11949500D01*
X15723465Y-11949500D01*
X15516535Y-11949500D01*
X15516532Y-11949500D01*
X15313581Y-11989869D01*
X15122402Y-12069058D01*
X14950348Y-12184020D01*
X14804020Y-12330348D01*
X14757938Y-12399316D01*
X14709888Y-12437196D01*
X14648749Y-12439598D01*
X14597876Y-12405605D01*
X14579996Y-12369941D01*
X14561218Y-12299862D01*
X14548793Y-12278342D01*
X14518365Y-12225638D01*
X14457762Y-12165035D01*
X14457759Y-12165033D01*
X13762262Y-11469535D01*
X13762259Y-11469533D01*
X13737971Y-11455510D01*
X13697031Y-11410040D01*
X13690636Y-11349190D01*
X13721229Y-11296202D01*
X13732467Y-11287461D01*
X13749655Y-11275977D01*
X13895977Y-11129655D01*
X14010941Y-10957598D01*
X14090130Y-10766420D01*
X14130500Y-10563465D01*
X14130500Y-10356535D01*
X14090130Y-10153580D01*
X14010941Y-9962402D01*
X13895977Y-9790345D01*
X13749655Y-9644023D01*
X13577598Y-9529059D01*
X13577599Y-9529059D01*
X13577597Y-9529058D01*
X13386418Y-9449869D01*
X13183467Y-9409500D01*
X13183465Y-9409500D01*
X12976535Y-9409500D01*
X12976532Y-9409500D01*
X12773581Y-9449869D01*
X12582402Y-9529058D01*
X12410348Y-9644020D01*
X12264020Y-9790348D01*
X12149058Y-9962402D01*
X12069869Y-10153581D01*
X12029500Y-10356532D01*
X12029500Y-10563467D01*
X12069869Y-10766418D01*
X12149058Y-10957597D01*
X12149059Y-10957598D01*
X12264023Y-11129655D01*
X12369866Y-11235498D01*
X12397642Y-11290013D01*
X12388071Y-11350445D01*
X12344806Y-11393710D01*
X12299861Y-11404500D01*
X11320139Y-11404500D01*
X11261948Y-11385593D01*
X11225984Y-11336093D01*
X11225984Y-11274907D01*
X11250133Y-11235498D01*
X11355977Y-11129655D01*
X11470941Y-10957598D01*
X11550130Y-10766420D01*
X11590500Y-10563465D01*
X11590500Y-10356535D01*
X11550130Y-10153580D01*
X11470941Y-9962402D01*
X11355977Y-9790345D01*
X11209655Y-9644023D01*
X11037598Y-9529059D01*
X11037599Y-9529059D01*
X11037597Y-9529058D01*
X10846418Y-9449869D01*
X10643467Y-9409500D01*
X10643465Y-9409500D01*
X10436535Y-9409500D01*
X10436532Y-9409500D01*
X10233581Y-9449869D01*
X10042402Y-9529058D01*
X9870348Y-9644020D01*
X9724020Y-9790348D01*
X9609058Y-9962402D01*
X9529869Y-10153581D01*
X9489500Y-10356532D01*
X9489500Y-10563467D01*
X9529869Y-10766418D01*
X9609058Y-10957597D01*
X9609059Y-10957598D01*
X9724023Y-11129655D01*
X9829866Y-11235498D01*
X9857642Y-11290013D01*
X9848071Y-11350445D01*
X9804806Y-11393710D01*
X9759861Y-11404500D01*
X9445835Y-11404500D01*
X9387644Y-11385593D01*
X9375831Y-11375504D01*
X8985619Y-10985292D01*
X8957842Y-10930775D01*
X8964159Y-10877402D01*
X9010130Y-10766420D01*
X9050500Y-10563465D01*
X9050500Y-10356535D01*
X9010130Y-10153580D01*
X8930941Y-9962402D01*
X8815977Y-9790345D01*
X8669655Y-9644023D01*
X8497598Y-9529059D01*
X8497599Y-9529059D01*
X8497597Y-9529058D01*
X8306418Y-9449869D01*
X8103467Y-9409500D01*
X8103465Y-9409500D01*
X7896535Y-9409500D01*
X7896532Y-9409500D01*
X7693581Y-9449869D01*
X7502402Y-9529058D01*
X7330348Y-9644020D01*
X7184020Y-9790348D01*
X7069058Y-9962402D01*
X6989869Y-10153581D01*
X6949500Y-10356532D01*
X6949500Y-10563467D01*
X6989869Y-10766418D01*
X7069058Y-10957597D01*
X7069059Y-10957598D01*
X7184023Y-11129655D01*
X7330345Y-11275977D01*
X7502402Y-11390941D01*
X7693580Y-11470130D01*
X7896535Y-11510500D01*
X7896536Y-11510500D01*
X8103464Y-11510500D01*
X8103465Y-11510500D01*
X8306420Y-11470130D01*
X8417405Y-11424157D01*
X8478398Y-11419357D01*
X8525289Y-11445616D01*
X8860171Y-11780498D01*
X8887947Y-11835013D01*
X8878376Y-11895445D01*
X8835111Y-11938710D01*
X8790166Y-11949500D01*
X7130252Y-11949500D01*
X7130251Y-11949500D01*
X7130241Y-11949501D01*
X7071772Y-11961132D01*
X7071766Y-11961134D01*
X7005451Y-12005445D01*
X7005445Y-12005451D01*
X6961134Y-12071766D01*
X6961132Y-12071772D01*
X6949501Y-12130241D01*
X6949500Y-12130253D01*
X6949500Y-13869746D01*
X6949501Y-13869758D01*
X6961132Y-13928227D01*
X6961134Y-13928233D01*
X6992345Y-13974943D01*
X7005448Y-13994552D01*
X7071769Y-14038867D01*
X7116231Y-14047711D01*
X7130241Y-14050498D01*
X7130246Y-14050498D01*
X7130252Y-14050500D01*
X7130253Y-14050500D01*
X8869747Y-14050500D01*
X8869748Y-14050500D01*
X8928231Y-14038867D01*
X8994552Y-13994552D01*
X9038867Y-13928231D01*
X9050500Y-13869748D01*
X9050500Y-12137186D01*
X9069407Y-12078995D01*
X9118907Y-12043031D01*
X9175121Y-12041560D01*
X9227147Y-12055500D01*
X9312853Y-12055500D01*
X12299861Y-12055500D01*
X12358052Y-12074407D01*
X12394016Y-12123907D01*
X12394016Y-12185093D01*
X12369866Y-12224501D01*
X12316028Y-12278340D01*
X12264020Y-12330348D01*
X12149058Y-12502402D01*
X12069869Y-12693581D01*
X12029500Y-12896532D01*
X12029500Y-13103467D01*
X12069870Y-13306419D01*
X12069870Y-13306421D01*
X12115840Y-13417403D01*
X12120640Y-13478400D01*
X12094380Y-13525292D01*
X8400332Y-17219341D01*
X8400331Y-17219342D01*
X8357482Y-17293560D01*
X8357481Y-17293560D01*
X8357482Y-17293561D01*
X8357482Y-17293562D01*
X8335300Y-17376347D01*
X8335300Y-22777247D01*
X8335300Y-22862953D01*
X8341533Y-22886214D01*
X8357483Y-22945743D01*
X8400331Y-23019957D01*
X8400333Y-23019959D01*
X8400335Y-23019962D01*
X8891438Y-23511065D01*
X8891440Y-23511066D01*
X8891442Y-23511068D01*
X8965657Y-23553916D01*
X8965655Y-23553916D01*
X8965659Y-23553917D01*
X8965661Y-23553918D01*
X9048447Y-23576100D01*
X9048449Y-23576100D01*
X10199566Y-23576100D01*
X10257757Y-23595007D01*
X10293721Y-23644507D01*
X10293721Y-23705693D01*
X10269570Y-23745104D01*
X5589532Y-28425141D01*
X5589531Y-28425142D01*
X5546682Y-28499360D01*
X5546681Y-28499360D01*
X5546682Y-28499361D01*
X5524500Y-28582147D01*
X5524500Y-29176678D01*
X5505593Y-29234869D01*
X5495504Y-29246681D01*
X5449500Y-29292684D01*
X5449496Y-29292690D01*
X5383609Y-29406809D01*
X5383608Y-29406814D01*
X5349500Y-29534108D01*
X500500Y-29534108D01*
X500500Y-24200308D01*
X3776800Y-24200308D01*
X3776800Y-24332092D01*
X3801828Y-24425500D01*
X3810909Y-24459390D01*
X3876796Y-24573509D01*
X3876798Y-24573511D01*
X3876800Y-24573514D01*
X3969986Y-24666700D01*
X3969988Y-24666701D01*
X3969990Y-24666703D01*
X4084110Y-24732590D01*
X4084108Y-24732590D01*
X4084112Y-24732591D01*
X4084114Y-24732592D01*
X4211408Y-24766700D01*
X4211410Y-24766700D01*
X4343190Y-24766700D01*
X4343192Y-24766700D01*
X4470486Y-24732592D01*
X4470488Y-24732590D01*
X4470490Y-24732590D01*
X4584609Y-24666703D01*
X4584609Y-24666702D01*
X4584614Y-24666700D01*
X4677800Y-24573514D01*
X4695502Y-24542853D01*
X4743690Y-24459390D01*
X4743690Y-24459388D01*
X4743692Y-24459386D01*
X4777800Y-24332092D01*
X4777800Y-24200308D01*
X4774711Y-24188780D01*
X4777913Y-24127681D01*
X4816418Y-24080131D01*
X4875519Y-24064295D01*
X4932640Y-24086221D01*
X4940331Y-24093145D01*
X5031886Y-24184700D01*
X5031888Y-24184701D01*
X5031890Y-24184703D01*
X5146010Y-24250590D01*
X5146008Y-24250590D01*
X5146012Y-24250591D01*
X5146014Y-24250592D01*
X5273308Y-24284700D01*
X5273310Y-24284700D01*
X5405090Y-24284700D01*
X5405092Y-24284700D01*
X5532386Y-24250592D01*
X5532388Y-24250590D01*
X5532390Y-24250590D01*
X5646509Y-24184703D01*
X5646509Y-24184702D01*
X5646514Y-24184700D01*
X5739700Y-24091514D01*
X5772843Y-24034109D01*
X5805590Y-23977390D01*
X5805590Y-23977388D01*
X5805592Y-23977386D01*
X5839700Y-23850092D01*
X5839700Y-23718308D01*
X5805592Y-23591014D01*
X5805590Y-23591011D01*
X5805590Y-23591009D01*
X5739703Y-23476890D01*
X5739699Y-23476884D01*
X5693696Y-23430881D01*
X5665919Y-23376364D01*
X5664700Y-23360878D01*
X5664700Y-18708148D01*
X5664700Y-18708147D01*
X5642518Y-18625362D01*
X5634761Y-18611927D01*
X5621500Y-18562430D01*
X5621500Y-18466909D01*
X5621500Y-18466908D01*
X5587392Y-18339614D01*
X5587390Y-18339611D01*
X5587390Y-18339609D01*
X5521503Y-18225490D01*
X5521501Y-18225488D01*
X5521500Y-18225486D01*
X5428314Y-18132300D01*
X5428311Y-18132298D01*
X5428309Y-18132296D01*
X5314189Y-18066409D01*
X5314191Y-18066409D01*
X5238917Y-18046240D01*
X5186892Y-18032300D01*
X5055108Y-18032300D01*
X5003083Y-18046240D01*
X4927809Y-18066409D01*
X4813690Y-18132296D01*
X4813689Y-18132297D01*
X4813686Y-18132299D01*
X4813686Y-18132300D01*
X4771801Y-18174184D01*
X4717287Y-18201960D01*
X4656855Y-18192389D01*
X4613590Y-18149124D01*
X4602800Y-18104179D01*
X4602800Y-7400135D01*
X4621707Y-7341944D01*
X4631796Y-7330131D01*
X7233131Y-4728796D01*
X7287648Y-4701019D01*
X7303135Y-4699800D01*
X7368190Y-4699800D01*
X7368192Y-4699800D01*
X7495486Y-4665692D01*
X7495488Y-4665690D01*
X7495490Y-4665690D01*
X7609609Y-4599803D01*
X7609609Y-4599802D01*
X7609614Y-4599800D01*
X7702800Y-4506614D01*
X7768692Y-4392486D01*
X7802800Y-4265192D01*
X7802800Y-4133408D01*
X7768692Y-4006114D01*
X7768690Y-4006111D01*
X7768690Y-4006109D01*
X7702803Y-3891990D01*
X7702801Y-3891988D01*
X7702800Y-3891986D01*
X7609614Y-3798800D01*
X7609611Y-3798798D01*
X7609609Y-3798796D01*
X7495489Y-3732909D01*
X7495491Y-3732909D01*
X7446099Y-3719675D01*
X7368192Y-3698800D01*
X7236408Y-3698800D01*
X7158500Y-3719675D01*
X7109109Y-3732909D01*
X6994990Y-3798796D01*
X6901796Y-3891990D01*
X6835909Y-4006109D01*
X6801800Y-4133409D01*
X6801800Y-4198465D01*
X6782893Y-4256656D01*
X6772804Y-4268469D01*
X4016831Y-7024442D01*
X3973982Y-7098660D01*
X3973981Y-7098660D01*
X3973982Y-7098661D01*
X3951800Y-7181447D01*
X3951800Y-23842878D01*
X3932893Y-23901069D01*
X3922804Y-23912881D01*
X3876800Y-23958884D01*
X3876796Y-23958890D01*
X3810909Y-24073009D01*
X3807369Y-24086221D01*
X3776800Y-24200308D01*
X500500Y-24200308D01*
X500500Y-3878710D01*
X2149500Y-3878710D01*
X2149500Y-4121289D01*
X2181161Y-4361781D01*
X2181161Y-4361786D01*
X2243944Y-4596092D01*
X2243948Y-4596105D01*
X2336772Y-4820204D01*
X2336774Y-4820208D01*
X2336776Y-4820212D01*
X2458064Y-5030289D01*
X2458066Y-5030292D01*
X2605729Y-5222731D01*
X2605731Y-5222733D01*
X2605735Y-5222738D01*
X2777262Y-5394265D01*
X2777266Y-5394268D01*
X2777268Y-5394270D01*
X2969707Y-5541933D01*
X2969711Y-5541936D01*
X3179788Y-5663224D01*
X3403900Y-5756054D01*
X3638211Y-5818838D01*
X3878712Y-5850500D01*
X3878713Y-5850500D01*
X4121287Y-5850500D01*
X4121288Y-5850500D01*
X4361789Y-5818838D01*
X4596100Y-5756054D01*
X4820212Y-5663224D01*
X5030289Y-5541936D01*
X5222738Y-5394265D01*
X5394265Y-5222738D01*
X5541936Y-5030289D01*
X5663224Y-4820212D01*
X5756054Y-4596100D01*
X5818838Y-4361789D01*
X5850500Y-4121288D01*
X5850500Y-3878712D01*
X5818838Y-3638211D01*
X5756054Y-3403900D01*
X5663224Y-3179788D01*
X5541936Y-2969711D01*
X5394265Y-2777262D01*
X5222738Y-2605735D01*
X5222733Y-2605731D01*
X5222731Y-2605729D01*
X5030292Y-2458066D01*
X4943092Y-2407721D01*
X4820212Y-2336776D01*
X4820208Y-2336774D01*
X4820204Y-2336772D01*
X4596105Y-2243948D01*
X4596104Y-2243947D01*
X4596100Y-2243946D01*
X4361789Y-2181162D01*
X4361786Y-2181161D01*
X4361784Y-2181161D01*
X4121289Y-2149500D01*
X4121288Y-2149500D01*
X3878712Y-2149500D01*
X3878710Y-2149500D01*
X3638218Y-2181161D01*
X3638213Y-2181161D01*
X3403907Y-2243944D01*
X3403894Y-2243948D01*
X3179795Y-2336772D01*
X2969707Y-2458066D01*
X2777268Y-2605729D01*
X2605729Y-2777268D01*
X2458066Y-2969707D01*
X2336772Y-3179795D01*
X2243948Y-3403894D01*
X2243944Y-3403907D01*
X2181161Y-3638213D01*
X2181161Y-3638218D01*
X2149500Y-3878710D01*
X500500Y-3878710D01*
X500500Y-3002984D01*
X500681Y-2997007D01*
X510902Y-2828032D01*
X518362Y-2704687D01*
X519801Y-2692836D01*
X572052Y-2407714D01*
X574906Y-2396131D01*
X661152Y-2119355D01*
X665374Y-2108224D01*
X784349Y-1843873D01*
X789898Y-1833302D01*
X939860Y-1585233D01*
X946631Y-1575423D01*
X1125406Y-1347234D01*
X1133318Y-1338302D01*
X1338302Y-1133318D01*
X1347234Y-1125406D01*
X1575423Y-946631D01*
X1585233Y-939860D01*
X1833302Y-789898D01*
X1843873Y-784349D01*
X2108224Y-665374D01*
X2119355Y-661152D01*
X2396131Y-574906D01*
X2407714Y-572052D01*
X2692836Y-519801D01*
X2704687Y-518362D01*
X2997008Y-500681D01*
X3002985Y-500500D01*
X3065892Y-500500D01*
X60934108Y-500500D01*
X60997015Y-500500D01*
X61002992Y-500681D01*
G37*
%TD.AperFunction*%
%TD*%
M02*
