%TF.GenerationSoftware,KiCad,Pcbnew,10.0.6*%
%TF.CreationDate,2026-09-09T18:25:20+02:00*%
%TF.ProjectId,Dimmer4,44696d6d-6572-4342-9e6b-696361645f70,rev?*%
%TF.SameCoordinates,Original*%
%TF.FileFunction,Other,User*%
%FSLAX46Y46*%
G04 Gerber Fmt 4.6, Leading zero omitted, Abs format (unit mm)*
G04 Created by KiCad (PCBNEW 10.0.6) date 2026-09-09 18:25:20*
%MOMM*%
%LPD*%
G01*
G04 APERTURE LIST*
%ADD10C,0.050000*%
G04 APERTURE END LIST*
%TO.C,C91*%
D10*
X51540000Y-32100000D02*
X55300000Y-32100000D01*
X55300000Y-34060000D01*
X51540000Y-34060000D01*
X51540000Y-32100000D01*
%TO.C,Q2*%
X500000Y-42700000D02*
X11600000Y-42700000D01*
X11600000Y-49700000D01*
X500000Y-49700000D01*
X500000Y-42700000D01*
%TO.C,D4*%
X51000000Y-35000000D02*
X60800000Y-35000000D01*
X51000000Y-41700000D02*
X51000000Y-35000000D01*
X60800000Y-35000000D02*
X60800000Y-41700000D01*
X60800000Y-41700000D02*
X51000000Y-41700000D01*
%TO.C,U90*%
X60640000Y-22500000D02*
X72640000Y-22500000D01*
X72640000Y-31500000D01*
X60640000Y-31500000D01*
X60640000Y-22500000D01*
%TO.C,C101*%
X4000000Y-24200000D02*
X7760000Y-24200000D01*
X7760000Y-26160000D01*
X4000000Y-26160000D01*
X4000000Y-24200000D01*
%TO.C,J105*%
X46620000Y-500000D02*
X50160000Y-500000D01*
X46620000Y-52300000D02*
X46620000Y-500000D01*
X50160000Y-500000D02*
X50160000Y-52300000D01*
X50160000Y-52300000D02*
X46620000Y-52300000D01*
%TO.C,RG4*%
X60140000Y-500000D02*
X63840000Y-500000D01*
X63840000Y-2400000D01*
X60140000Y-2400000D01*
X60140000Y-500000D01*
%TO.C,Q1*%
X34000000Y-8300000D02*
X41000000Y-8300000D01*
X41000000Y-19400000D01*
X34000000Y-19400000D01*
X34000000Y-8300000D01*
%TO.C,U100*%
X14000000Y-16620000D02*
X15400000Y-16620000D01*
X14000000Y-23380000D02*
X14000000Y-16620000D01*
X15400000Y-16500000D02*
X20300000Y-16500000D01*
X15400000Y-16620000D02*
X15400000Y-16500000D01*
X15400000Y-23380000D02*
X14000000Y-23380000D01*
X15400000Y-23500000D02*
X15400000Y-23380000D01*
X20300000Y-16500000D02*
X20300000Y-16620000D01*
X20300000Y-16620000D02*
X21700000Y-16620000D01*
X20300000Y-23380000D02*
X20300000Y-23500000D01*
X20300000Y-23500000D02*
X15400000Y-23500000D01*
X21700000Y-16620000D02*
X21700000Y-23380000D01*
X21700000Y-23380000D02*
X20300000Y-23380000D01*
%TO.C,J8*%
X56000000Y-51000000D02*
X64000000Y-51000000D01*
X64000000Y-59600000D01*
X56000000Y-59600000D01*
X56000000Y-51000000D01*
%TO.C,J100*%
X28840000Y-500000D02*
X32380000Y-500000D01*
X28840000Y-52300000D02*
X28840000Y-500000D01*
X32380000Y-500000D02*
X32380000Y-52300000D01*
X32380000Y-52300000D02*
X28840000Y-52300000D01*
%TO.C,RP3*%
X38900000Y-34800000D02*
X42600000Y-34800000D01*
X42600000Y-36700000D01*
X38900000Y-36700000D01*
X38900000Y-34800000D01*
%TO.C,R104*%
X4000000Y-32900000D02*
X7700000Y-32900000D01*
X7700000Y-34800000D01*
X4000000Y-34800000D01*
X4000000Y-32900000D01*
%TO.C,RG2*%
X34600000Y-32299999D02*
X38300000Y-32299999D01*
X38300000Y-34199999D01*
X34600000Y-34199999D01*
X34600000Y-32299999D01*
%TO.C,RG3*%
X34600000Y-34800000D02*
X38300000Y-34800000D01*
X38300000Y-36700000D01*
X34600000Y-36700000D01*
X34600000Y-34800000D01*
%TO.C,U103*%
X19600000Y-24670000D02*
X20320000Y-24670000D01*
X19600000Y-26530000D02*
X19600000Y-24670000D01*
X20320000Y-24500000D02*
X21780000Y-24500000D01*
X20320000Y-24670000D02*
X20320000Y-24500000D01*
X20320000Y-26530000D02*
X19600000Y-26530000D01*
X20320000Y-26700000D02*
X20320000Y-26530000D01*
X21780000Y-24500000D02*
X21780000Y-24670000D01*
X21780000Y-24670000D02*
X22500000Y-24670000D01*
X21780000Y-25230000D02*
X21780000Y-25970000D01*
X21780000Y-25970000D02*
X22500000Y-25970000D01*
X21780000Y-26530000D02*
X21780000Y-26700000D01*
X21780000Y-26700000D02*
X20320000Y-26700000D01*
X22500000Y-24670000D02*
X22500000Y-25230000D01*
X22500000Y-25230000D02*
X21780000Y-25230000D01*
X22500000Y-25970000D02*
X22500000Y-26530000D01*
X22500000Y-26530000D02*
X21780000Y-26530000D01*
%TO.C,C102*%
X550000Y-8000000D02*
X2510000Y-8000000D01*
X2510000Y-11760000D01*
X550000Y-11760000D01*
X550000Y-8000000D01*
%TO.C,D3*%
X12200000Y-35400000D02*
X22000000Y-35400000D01*
X12200000Y-42100000D02*
X12200000Y-35400000D01*
X22000000Y-35400000D02*
X22000000Y-42100000D01*
X22000000Y-42100000D02*
X12200000Y-42100000D01*
%TO.C,R100*%
X4000000Y-30000000D02*
X7700000Y-30000000D01*
X7700000Y-31900000D01*
X4000000Y-31900000D01*
X4000000Y-30000000D01*
%TO.C,J103*%
X59220000Y-43720000D02*
X68270000Y-43720000D01*
X59220000Y-49820000D02*
X59220000Y-43720000D01*
X68270000Y-43720000D02*
X68270000Y-49820000D01*
X68270000Y-49820000D02*
X59220000Y-49820000D01*
%TO.C,Q90*%
X60140000Y-7600000D02*
X71240000Y-7600000D01*
X71240000Y-14600000D01*
X60140000Y-14600000D01*
X60140000Y-7600000D01*
%TO.C,R102*%
X8400000Y-24200000D02*
X12100000Y-24200000D01*
X12100000Y-26100000D01*
X8400000Y-26100000D01*
X8400000Y-24200000D01*
%TO.C,R90*%
X51540000Y-500000D02*
X55240000Y-500000D01*
X55240000Y-2400000D01*
X51540000Y-2400000D01*
X51540000Y-500000D01*
%TO.C,J101*%
X17490000Y-870000D02*
X23690000Y-870000D01*
X17490000Y-7170000D02*
X17490000Y-870000D01*
X23690000Y-870000D02*
X23690000Y-7170000D01*
X23690000Y-7170000D02*
X17490000Y-7170000D01*
%TO.C,RG1*%
X33600000Y-29200000D02*
X37300000Y-29200000D01*
X37300000Y-31100000D01*
X33600000Y-31100000D01*
X33600000Y-29200000D01*
%TO.C,R105*%
X8300000Y-32900000D02*
X12000000Y-32900000D01*
X12000000Y-34800000D01*
X8300000Y-34800000D01*
X8300000Y-32900000D01*
%TO.C,C103*%
X550000Y-12360000D02*
X2510000Y-12360000D01*
X2510000Y-16120000D01*
X550000Y-16120000D01*
X550000Y-12360000D01*
%TO.C,C104*%
X550000Y-16719999D02*
X2510000Y-16719999D01*
X2510000Y-20479999D01*
X550000Y-20479999D01*
X550000Y-16719999D01*
%TO.C,RP2*%
X38900000Y-32299999D02*
X42600000Y-32299999D01*
X42600000Y-34199999D01*
X38900000Y-34199999D01*
X38900000Y-32299999D01*
%TO.C,D2*%
X500000Y-35400000D02*
X10300000Y-35400000D01*
X500000Y-42100000D02*
X500000Y-35400000D01*
X10300000Y-35400000D02*
X10300000Y-42100000D01*
X10300000Y-42100000D02*
X500000Y-42100000D01*
%TO.C,Q4*%
X62000000Y-35000000D02*
X73100000Y-35000000D01*
X73100000Y-42000000D01*
X62000000Y-42000000D01*
X62000000Y-35000000D01*
%TO.C,RP4*%
X60140000Y-3000000D02*
X63840000Y-3000000D01*
X63840000Y-4900000D01*
X60140000Y-4900000D01*
X60140000Y-3000000D01*
%TO.C,C100*%
X4000000Y-27100000D02*
X7760000Y-27100000D01*
X7760000Y-29060000D01*
X4000000Y-29060000D01*
X4000000Y-27100000D01*
%TO.C,RP1*%
X37900000Y-29200000D02*
X41600000Y-29200000D01*
X41600000Y-31100000D01*
X37900000Y-31100000D01*
X37900000Y-29200000D01*
%TO.C,D91*%
X62000000Y-15200000D02*
X71800000Y-15200000D01*
X62000000Y-21900000D02*
X62000000Y-15200000D01*
X71800000Y-15200000D02*
X71800000Y-21900000D01*
X71800000Y-21900000D02*
X62000000Y-21900000D01*
%TO.C,J6*%
X7600000Y-50300000D02*
X15600000Y-50300000D01*
X15600000Y-58900000D01*
X7600000Y-58900000D01*
X7600000Y-50300000D01*
%TO.C,D90*%
X51540000Y-15200000D02*
X61340000Y-15200000D01*
X51540000Y-21900000D02*
X51540000Y-15200000D01*
X61340000Y-15200000D02*
X61340000Y-21900000D01*
X61340000Y-21900000D02*
X51540000Y-21900000D01*
%TO.C,D1*%
X34600000Y-1000000D02*
X44400000Y-1000000D01*
X34600000Y-7700000D02*
X34600000Y-1000000D01*
X44400000Y-1000000D02*
X44400000Y-7700000D01*
X44400000Y-7700000D02*
X34600000Y-7700000D01*
%TO.C,U102*%
X14000000Y-24570000D02*
X14880000Y-24570000D01*
X14000000Y-26930000D02*
X14000000Y-24570000D01*
X14880000Y-24500000D02*
X17680000Y-24500000D01*
X14880000Y-24570000D02*
X14880000Y-24500000D01*
X14880000Y-26930000D02*
X14000000Y-26930000D01*
X14880000Y-27000000D02*
X14880000Y-26930000D01*
X17680000Y-24500000D02*
X17680000Y-24570000D01*
X17680000Y-24570000D02*
X18560000Y-24570000D01*
X17680000Y-26930000D02*
X17680000Y-27000000D01*
X17680000Y-27000000D02*
X14880000Y-27000000D01*
X18560000Y-24570000D02*
X18560000Y-26930000D01*
X18560000Y-26930000D02*
X17680000Y-26930000D01*
%TO.C,J90*%
X51540000Y-3000000D02*
X59540000Y-3000000D01*
X59540000Y-11600000D01*
X51540000Y-11600000D01*
X51540000Y-3000000D01*
%TO.C,J7*%
X16200000Y-50300000D02*
X24200000Y-50300000D01*
X24200000Y-58900000D01*
X16200000Y-58900000D01*
X16200000Y-50300000D01*
%TO.C,J5*%
X33600000Y-20000000D02*
X41600000Y-20000000D01*
X41600000Y-28600000D01*
X33600000Y-28600000D01*
X33600000Y-20000000D01*
%TO.C,Q3*%
X12200000Y-42700000D02*
X23300000Y-42700000D01*
X23300000Y-49700000D01*
X12200000Y-49700000D01*
X12200000Y-42700000D01*
%TO.C,C90*%
X60042479Y-26751238D02*
G75*
G02*
X51542479Y-26751238I-4250000J0D01*
G01*
X51542479Y-26751238D02*
G75*
G02*
X60042479Y-26751238I4250000J0D01*
G01*
%TO.C,U101*%
X4000000Y-21170000D02*
X4720000Y-21170000D01*
X4000000Y-23030000D02*
X4000000Y-21170000D01*
X4720000Y-21000000D02*
X6180000Y-21000000D01*
X4720000Y-21170000D02*
X4720000Y-21000000D01*
X4720000Y-23030000D02*
X4000000Y-23030000D01*
X4720000Y-23200000D02*
X4720000Y-23030000D01*
X6180000Y-21000000D02*
X6180000Y-21170000D01*
X6180000Y-21170000D02*
X6900000Y-21170000D01*
X6180000Y-23030000D02*
X6180000Y-23200000D01*
X6180000Y-23200000D02*
X4720000Y-23200000D01*
X6900000Y-21170000D02*
X6900000Y-23030000D01*
X6900000Y-23030000D02*
X6180000Y-23030000D01*
%TO.C,R101*%
X8300000Y-30000000D02*
X12000000Y-30000000D01*
X12000000Y-31900000D01*
X8300000Y-31900000D01*
X8300000Y-30000000D01*
%TO.C,R91*%
X55840000Y-500000D02*
X59540000Y-500000D01*
X59540000Y-2400000D01*
X55840000Y-2400000D01*
X55840000Y-500000D01*
%TD*%
M02*
