%TF.GenerationSoftware,KiCad,Pcbnew,10.0.6*%
%TF.CreationDate,2026-09-04T10:42:00+02:00*%
%TF.ProjectId,Dimmer4,44696d6d-6572-4342-9e6b-696361645f70,rev?*%
%TF.SameCoordinates,Original*%
%TF.FileFunction,Other,User*%
%FSLAX46Y46*%
G04 Gerber Fmt 4.6, Leading zero omitted, Abs format (unit mm)*
G04 Created by KiCad (PCBNEW 10.0.6) date 2026-09-04 10:42:00*
%MOMM*%
%LPD*%
G01*
G04 APERTURE LIST*
%ADD10C,0.050000*%
G04 APERTURE END LIST*
%TO.C,U102*%
D10*
X15000000Y-24570000D02*
X15880000Y-24570000D01*
X15000000Y-26930000D02*
X15000000Y-24570000D01*
X15880000Y-24500000D02*
X18680000Y-24500000D01*
X15880000Y-24570000D02*
X15880000Y-24500000D01*
X15880000Y-26930000D02*
X15000000Y-26930000D01*
X15880000Y-27000000D02*
X15880000Y-26930000D01*
X18680000Y-24500000D02*
X18680000Y-24570000D01*
X18680000Y-24570000D02*
X19560000Y-24570000D01*
X18680000Y-26930000D02*
X18680000Y-27000000D01*
X18680000Y-27000000D02*
X15880000Y-27000000D01*
X19560000Y-24570000D02*
X19560000Y-26930000D01*
X19560000Y-26930000D02*
X18680000Y-26930000D01*
%TO.C,R104*%
X5000000Y-32900000D02*
X8700000Y-32900000D01*
X8700000Y-34800000D01*
X5000000Y-34800000D01*
X5000000Y-32900000D01*
%TO.C,R12*%
X48700000Y-15500000D02*
X52400000Y-15500000D01*
X52400000Y-17400000D01*
X48700000Y-17400000D01*
X48700000Y-15500000D01*
%TO.C,RP3*%
X33400000Y-18600000D02*
X37100000Y-18600000D01*
X37100000Y-20500000D01*
X33400000Y-20500000D01*
X33400000Y-18600000D01*
%TO.C,R105*%
X9300000Y-32900000D02*
X13000000Y-32900000D01*
X13000000Y-34800000D01*
X9300000Y-34800000D01*
X9300000Y-32900000D01*
%TO.C,C101*%
X5000000Y-24200000D02*
X8760000Y-24200000D01*
X8760000Y-26160000D01*
X5000000Y-26160000D01*
X5000000Y-24200000D01*
%TO.C,U101*%
X5000000Y-21170000D02*
X5720000Y-21170000D01*
X5000000Y-23030000D02*
X5000000Y-21170000D01*
X5720000Y-21000000D02*
X7180000Y-21000000D01*
X5720000Y-21170000D02*
X5720000Y-21000000D01*
X5720000Y-23030000D02*
X5000000Y-23030000D01*
X5720000Y-23200000D02*
X5720000Y-23030000D01*
X7180000Y-21000000D02*
X7180000Y-21170000D01*
X7180000Y-21170000D02*
X7900000Y-21170000D01*
X7180000Y-23030000D02*
X7180000Y-23200000D01*
X7180000Y-23200000D02*
X5720000Y-23200000D01*
X7900000Y-21170000D02*
X7900000Y-23030000D01*
X7900000Y-23030000D02*
X7180000Y-23030000D01*
%TO.C,D2*%
X24150000Y-29200000D02*
X33950000Y-29200000D01*
X24150000Y-35900000D02*
X24150000Y-29200000D01*
X33950000Y-29200000D02*
X33950000Y-35900000D01*
X33950000Y-35900000D02*
X24150000Y-35900000D01*
%TO.C,J101*%
X9400000Y-870000D02*
X15600000Y-870000D01*
X9400000Y-7170000D02*
X9400000Y-870000D01*
X15600000Y-870000D02*
X15600000Y-7170000D01*
X15600000Y-7170000D02*
X9400000Y-7170000D01*
%TO.C,D3*%
X34600000Y-29200000D02*
X44400000Y-29200000D01*
X34600000Y-35900000D02*
X34600000Y-29200000D01*
X44400000Y-29200000D02*
X44400000Y-35900000D01*
X44400000Y-35900000D02*
X34600000Y-35900000D01*
%TO.C,Q4*%
X37100000Y-36500000D02*
X48200000Y-36500000D01*
X48200000Y-43500000D01*
X37100000Y-43500000D01*
X37100000Y-36500000D01*
%TO.C,Q10*%
X45000000Y-21500000D02*
X56100000Y-21500000D01*
X56100000Y-28500000D01*
X45000000Y-28500000D01*
X45000000Y-21500000D01*
%TO.C,D1*%
X13700000Y-29200000D02*
X23500000Y-29200000D01*
X13700000Y-35900000D02*
X13700000Y-29200000D01*
X23500000Y-29200000D02*
X23500000Y-35900000D01*
X23500000Y-35900000D02*
X13700000Y-35900000D01*
%TO.C,Q1*%
X1700000Y-36500000D02*
X12800000Y-36500000D01*
X12800000Y-43500000D01*
X1700000Y-43500000D01*
X1700000Y-36500000D01*
%TO.C,J100*%
X6220000Y-8680000D02*
X58030000Y-8680000D01*
X58030000Y-14770000D01*
X6220000Y-14770000D01*
X6220000Y-8680000D01*
%TO.C,R11*%
X44000000Y-15500000D02*
X47700000Y-15500000D01*
X47700000Y-17400000D01*
X44000000Y-17400000D01*
X44000000Y-15500000D01*
%TO.C,J103*%
X51420000Y-40220000D02*
X60470000Y-40220000D01*
X51420000Y-46320000D02*
X51420000Y-40220000D01*
X60470000Y-40220000D02*
X60470000Y-46320000D01*
X60470000Y-46320000D02*
X51420000Y-46320000D01*
%TO.C,U100*%
X15000000Y-16620000D02*
X16400000Y-16620000D01*
X15000000Y-23380000D02*
X15000000Y-16620000D01*
X16400000Y-16500000D02*
X21300000Y-16500000D01*
X16400000Y-16620000D02*
X16400000Y-16500000D01*
X16400000Y-23380000D02*
X15000000Y-23380000D01*
X16400000Y-23500000D02*
X16400000Y-23380000D01*
X21300000Y-16500000D02*
X21300000Y-16620000D01*
X21300000Y-16620000D02*
X22700000Y-16620000D01*
X21300000Y-23380000D02*
X21300000Y-23500000D01*
X21300000Y-23500000D02*
X16400000Y-23500000D01*
X22700000Y-16620000D02*
X22700000Y-23380000D01*
X22700000Y-23380000D02*
X21300000Y-23380000D01*
%TO.C,Q2*%
X13500000Y-36500000D02*
X24600000Y-36500000D01*
X24600000Y-43500000D01*
X13500000Y-43500000D01*
X13500000Y-36500000D01*
%TO.C,RP1*%
X24000000Y-18600000D02*
X27700000Y-18600000D01*
X27700000Y-20500000D01*
X24000000Y-20500000D01*
X24000000Y-18600000D01*
%TO.C,RG2*%
X28700000Y-15500000D02*
X32400000Y-15500000D01*
X32400000Y-17400000D01*
X28700000Y-17400000D01*
X28700000Y-15500000D01*
%TO.C,J8*%
X33800000Y-50000000D02*
X41800000Y-50000000D01*
X41800000Y-58600000D01*
X33800000Y-58600000D01*
X33800000Y-50000000D01*
%TO.C,U103*%
X20600000Y-24670000D02*
X21320000Y-24670000D01*
X20600000Y-26530000D02*
X20600000Y-24670000D01*
X21320000Y-24500000D02*
X22780000Y-24500000D01*
X21320000Y-24670000D02*
X21320000Y-24500000D01*
X21320000Y-26530000D02*
X20600000Y-26530000D01*
X21320000Y-26700000D02*
X21320000Y-26530000D01*
X22780000Y-24500000D02*
X22780000Y-24670000D01*
X22780000Y-24670000D02*
X23500000Y-24670000D01*
X22780000Y-25230000D02*
X22780000Y-25970000D01*
X22780000Y-25970000D02*
X23500000Y-25970000D01*
X22780000Y-26530000D02*
X22780000Y-26700000D01*
X22780000Y-26700000D02*
X21320000Y-26700000D01*
X23500000Y-24670000D02*
X23500000Y-25230000D01*
X23500000Y-25230000D02*
X22780000Y-25230000D01*
X23500000Y-25970000D02*
X23500000Y-26530000D01*
X23500000Y-26530000D02*
X22780000Y-26530000D01*
%TO.C,C100*%
X5000000Y-27100000D02*
X8760000Y-27100000D01*
X8760000Y-29060000D01*
X5000000Y-29060000D01*
X5000000Y-27100000D01*
%TO.C,RG4*%
X38100000Y-15500000D02*
X41800000Y-15500000D01*
X41800000Y-17400000D01*
X38100000Y-17400000D01*
X38100000Y-15500000D01*
%TO.C,Q3*%
X25300000Y-36500000D02*
X36400000Y-36500000D01*
X36400000Y-43500000D01*
X25300000Y-43500000D01*
X25300000Y-36500000D01*
%TO.C,RP4*%
X38100000Y-18600000D02*
X41800000Y-18600000D01*
X41800000Y-20500000D01*
X38100000Y-20500000D01*
X38100000Y-18600000D01*
%TO.C,R102*%
X9400000Y-24200000D02*
X13100000Y-24200000D01*
X13100000Y-26100000D01*
X9400000Y-26100000D01*
X9400000Y-24200000D01*
%TO.C,RP2*%
X28700000Y-18600000D02*
X32400000Y-18600000D01*
X32400000Y-20500000D01*
X28700000Y-20500000D01*
X28700000Y-18600000D01*
%TO.C,J6*%
X16600000Y-50000000D02*
X24600000Y-50000000D01*
X24600000Y-58600000D01*
X16600000Y-58600000D01*
X16600000Y-50000000D01*
%TO.C,J7*%
X25200000Y-50000000D02*
X33200000Y-50000000D01*
X33200000Y-58600000D01*
X25200000Y-58600000D01*
X25200000Y-50000000D01*
%TO.C,D4*%
X34600000Y-21700000D02*
X44400000Y-21700000D01*
X34600000Y-28400000D02*
X34600000Y-21700000D01*
X44400000Y-21700000D02*
X44400000Y-28400000D01*
X44400000Y-28400000D02*
X34600000Y-28400000D01*
%TO.C,J5*%
X8000000Y-50000000D02*
X16000000Y-50000000D01*
X16000000Y-58600000D01*
X8000000Y-58600000D01*
X8000000Y-50000000D01*
%TO.C,R101*%
X9300000Y-30000000D02*
X13000000Y-30000000D01*
X13000000Y-31900000D01*
X9300000Y-31900000D01*
X9300000Y-30000000D01*
%TO.C,R100*%
X5000000Y-30000000D02*
X8700000Y-30000000D01*
X8700000Y-31900000D01*
X5000000Y-31900000D01*
X5000000Y-30000000D01*
%TO.C,D10*%
X24200000Y-21800000D02*
X34000000Y-21800000D01*
X24200000Y-28500000D02*
X24200000Y-21800000D01*
X34000000Y-21800000D02*
X34000000Y-28500000D01*
X34000000Y-28500000D02*
X24200000Y-28500000D01*
%TO.C,RG3*%
X33400000Y-15500000D02*
X37100000Y-15500000D01*
X37100000Y-17400000D01*
X33400000Y-17400000D01*
X33400000Y-15500000D01*
%TO.C,RG1*%
X24000000Y-15500000D02*
X27700000Y-15500000D01*
X27700000Y-17400000D01*
X24000000Y-17400000D01*
X24000000Y-15500000D01*
%TO.C,C12*%
X57502479Y-33751238D02*
G75*
G02*
X49002479Y-33751238I-4250000J0D01*
G01*
X49002479Y-33751238D02*
G75*
G02*
X57502479Y-33751238I4250000J0D01*
G01*
%TD*%
M02*
