%TF.GenerationSoftware,KiCad,Pcbnew,10.0.6*%
%TF.CreationDate,2026-09-09T18:25:20+02:00*%
%TF.ProjectId,Dimmer4,44696d6d-6572-4342-9e6b-696361645f70,rev?*%
%TF.SameCoordinates,Original*%
%TF.FileFunction,Copper,L1,Top*%
%TF.FilePolarity,Positive*%
%FSLAX46Y46*%
G04 Gerber Fmt 4.6, Leading zero omitted, Abs format (unit mm)*
G04 Created by KiCad (PCBNEW 10.0.6) date 2026-09-09 18:25:20*
%MOMM*%
%LPD*%
G01*
G04 APERTURE LIST*
G04 Aperture macros list*
%AMRoundRect*
0 Rectangle with rounded corners*
0 $1 Rounding radius*
0 $2 $3 $4 $5 $6 $7 $8 $9 X,Y pos of 4 corners*
0 Add a 4 corners polygon primitive as box body*
4,1,4,$2,$3,$4,$5,$6,$7,$8,$9,$2,$3,0*
0 Add four circle primitives for the rounded corners*
1,1,$1+$1,$2,$3*
1,1,$1+$1,$4,$5*
1,1,$1+$1,$6,$7*
1,1,$1+$1,$8,$9*
0 Add four rect primitives between the rounded corners*
20,1,$1+$1,$2,$3,$4,$5,0*
20,1,$1+$1,$4,$5,$6,$7,0*
20,1,$1+$1,$6,$7,$8,$9,0*
20,1,$1+$1,$8,$9,$2,$3,0*%
G04 Aperture macros list end*
%TA.AperFunction,SMDPad,CuDef*%
%ADD10RoundRect,0.250000X-0.337500X-0.475000X0.337500X-0.475000X0.337500X0.475000X-0.337500X0.475000X0*%
%TD*%
%TA.AperFunction,SMDPad,CuDef*%
%ADD11RoundRect,0.250000X-0.850000X-0.350000X0.850000X-0.350000X0.850000X0.350000X-0.850000X0.350000X0*%
%TD*%
%TA.AperFunction,SMDPad,CuDef*%
%ADD12RoundRect,0.249997X-2.950003X-2.650003X2.950003X-2.650003X2.950003X2.650003X-2.950003X2.650003X0*%
%TD*%
%TA.AperFunction,SMDPad,CuDef*%
%ADD13RoundRect,0.250000X1.000000X-1.400000X1.000000X1.400000X-1.000000X1.400000X-1.000000X-1.400000X0*%
%TD*%
%TA.AperFunction,ComponentPad*%
%ADD14R,1.700000X2.500000*%
%TD*%
%TA.AperFunction,ComponentPad*%
%ADD15O,1.700000X2.500000*%
%TD*%
%TA.AperFunction,ComponentPad*%
%ADD16R,1.700000X1.700000*%
%TD*%
%TA.AperFunction,ComponentPad*%
%ADD17C,1.700000*%
%TD*%
%TA.AperFunction,SMDPad,CuDef*%
%ADD18RoundRect,0.250000X-0.350000X-0.450000X0.350000X-0.450000X0.350000X0.450000X-0.350000X0.450000X0*%
%TD*%
%TA.AperFunction,SMDPad,CuDef*%
%ADD19RoundRect,0.250000X0.350000X-0.850000X0.350000X0.850000X-0.350000X0.850000X-0.350000X-0.850000X0*%
%TD*%
%TA.AperFunction,SMDPad,CuDef*%
%ADD20RoundRect,0.249997X2.650003X-2.950003X2.650003X2.950003X-2.650003X2.950003X-2.650003X-2.950003X0*%
%TD*%
%TA.AperFunction,SMDPad,CuDef*%
%ADD21RoundRect,0.100000X-0.637500X-0.100000X0.637500X-0.100000X0.637500X0.100000X-0.637500X0.100000X0*%
%TD*%
%TA.AperFunction,ComponentPad*%
%ADD22RoundRect,0.250001X-0.949999X-0.949999X0.949999X-0.949999X0.949999X0.949999X-0.949999X0.949999X0*%
%TD*%
%TA.AperFunction,ComponentPad*%
%ADD23C,2.400000*%
%TD*%
%TA.AperFunction,SMDPad,CuDef*%
%ADD24RoundRect,0.087500X-0.425000X-0.087500X0.425000X-0.087500X0.425000X0.087500X-0.425000X0.087500X0*%
%TD*%
%TA.AperFunction,SMDPad,CuDef*%
%ADD25RoundRect,0.250000X0.475000X-0.337500X0.475000X0.337500X-0.475000X0.337500X-0.475000X-0.337500X0*%
%TD*%
%TA.AperFunction,SMDPad,CuDef*%
%ADD26R,3.000000X1.000000*%
%TD*%
%TA.AperFunction,SMDPad,CuDef*%
%ADD27R,1.900000X1.000000*%
%TD*%
%TA.AperFunction,SMDPad,CuDef*%
%ADD28RoundRect,0.087500X-0.537500X-0.087500X0.537500X-0.087500X0.537500X0.087500X-0.537500X0.087500X0*%
%TD*%
%TA.AperFunction,ComponentPad*%
%ADD29RoundRect,0.250000X-0.550000X-0.550000X0.550000X-0.550000X0.550000X0.550000X-0.550000X0.550000X0*%
%TD*%
%TA.AperFunction,ComponentPad*%
%ADD30C,1.600000*%
%TD*%
%TA.AperFunction,ViaPad*%
%ADD31C,0.600000*%
%TD*%
%TA.AperFunction,Conductor*%
%ADD32C,0.250000*%
%TD*%
%TA.AperFunction,Conductor*%
%ADD33C,1.000000*%
%TD*%
%TA.AperFunction,Conductor*%
%ADD34C,0.200000*%
%TD*%
G04 APERTURE END LIST*
D10*
%TO.P,C91,1*%
%TO.N,/+5V_LOKAL*%
X52382500Y-33080000D03*
%TO.P,C91,2*%
%TO.N,GND*%
X54457500Y-33080000D03*
%TD*%
D11*
%TO.P,Q2,1*%
%TO.N,/PWM2_G*%
X1850000Y-43920000D03*
%TO.P,Q2,2*%
%TO.N,/LED2*%
X1850000Y-46200000D03*
D12*
X8150000Y-46200000D03*
D11*
%TO.P,Q2,3*%
%TO.N,GND*%
X1850000Y-48480000D03*
%TD*%
D13*
%TO.P,D4,1*%
%TO.N,/+24V*%
X52500000Y-38350000D03*
%TO.P,D4,2*%
%TO.N,/LED4*%
X59300000Y-38350000D03*
%TD*%
D14*
%TO.P,U90,1*%
%TO.N,/+24V*%
X64100000Y-24750000D03*
D15*
%TO.P,U90,2*%
%TO.N,GND*%
X66640000Y-24750000D03*
%TO.P,U90,3*%
%TO.N,/+5V_LOKAL*%
X69180000Y-24750000D03*
%TD*%
D10*
%TO.P,C101,1*%
%TO.N,/NCLR*%
X4842500Y-25180000D03*
%TO.P,C101,2*%
%TO.N,GND*%
X6917500Y-25180000D03*
%TD*%
D16*
%TO.P,J105,1*%
%TO.N,/GP16*%
X48390000Y-50530000D03*
D17*
%TO.P,J105,2*%
%TO.N,/GP17*%
X48390000Y-47990000D03*
%TO.P,J105,3*%
%TO.N,GND*%
X48390000Y-45450000D03*
%TO.P,J105,4*%
%TO.N,/GP18*%
X48390000Y-42910000D03*
%TO.P,J105,5*%
%TO.N,/GP19*%
X48390000Y-40370000D03*
%TO.P,J105,6*%
%TO.N,/GP20*%
X48390000Y-37830000D03*
%TO.P,J105,7*%
%TO.N,/GP21*%
X48390000Y-35290000D03*
%TO.P,J105,8*%
%TO.N,GND*%
X48390000Y-32750000D03*
%TO.P,J105,9*%
%TO.N,/GP22*%
X48390000Y-30210000D03*
%TO.P,J105,10*%
%TO.N,unconnected-(J105-Pin_10-Pad10)*%
X48390000Y-27670000D03*
%TO.P,J105,11*%
%TO.N,/GP26*%
X48390000Y-25130000D03*
%TO.P,J105,12*%
%TO.N,/GP27*%
X48390000Y-22590000D03*
%TO.P,J105,13*%
%TO.N,GND*%
X48390000Y-20050000D03*
%TO.P,J105,14*%
%TO.N,/GP28*%
X48390000Y-17510000D03*
%TO.P,J105,15*%
%TO.N,unconnected-(J105-Pin_15-Pad15)*%
X48390000Y-14970000D03*
%TO.P,J105,16*%
%TO.N,3V3*%
X48390000Y-12430000D03*
%TO.P,J105,17*%
%TO.N,unconnected-(J105-Pin_17-Pad17)*%
X48390000Y-9890000D03*
%TO.P,J105,18*%
%TO.N,GND*%
X48390000Y-7350000D03*
%TO.P,J105,19*%
%TO.N,/VSYS*%
X48390000Y-4810000D03*
%TO.P,J105,20*%
%TO.N,unconnected-(J105-Pin_20-Pad20)*%
X48390000Y-2270000D03*
%TD*%
D18*
%TO.P,RG4,1*%
%TO.N,/PWM4*%
X60990000Y-1450000D03*
%TO.P,RG4,2*%
%TO.N,/PWM4_G*%
X62990000Y-1450000D03*
%TD*%
D19*
%TO.P,Q1,1*%
%TO.N,/PWM1_G*%
X35220000Y-18050000D03*
%TO.P,Q1,2*%
%TO.N,/LED1*%
X37500000Y-18050000D03*
D20*
X37500000Y-11750000D03*
D19*
%TO.P,Q1,3*%
%TO.N,GND*%
X39780000Y-18050000D03*
%TD*%
D21*
%TO.P,U100,1*%
%TO.N,/I2C_SDA*%
X14987500Y-17075000D03*
%TO.P,U100,2*%
%TO.N,unconnected-(U100-PC14-Pad2)*%
X14987500Y-17725000D03*
%TO.P,U100,3*%
%TO.N,unconnected-(U100-PC15-Pad3)*%
X14987500Y-18375000D03*
%TO.P,U100,4*%
%TO.N,3V3*%
X14987500Y-19025000D03*
%TO.P,U100,5*%
%TO.N,GND*%
X14987500Y-19675000D03*
%TO.P,U100,6*%
%TO.N,/NRST*%
X14987500Y-20325000D03*
%TO.P,U100,7*%
%TO.N,/ID0*%
X14987500Y-20975000D03*
%TO.P,U100,8*%
%TO.N,/ID1*%
X14987500Y-21625000D03*
%TO.P,U100,9*%
%TO.N,unconnected-(U100-PA2-Pad9)*%
X14987500Y-22275000D03*
%TO.P,U100,10*%
%TO.N,unconnected-(U100-PA3-Pad10)*%
X14987500Y-22925000D03*
%TO.P,U100,11*%
%TO.N,unconnected-(U100-PA4-Pad11)*%
X20712500Y-22925000D03*
%TO.P,U100,12*%
%TO.N,/PWM3*%
X20712500Y-22275000D03*
%TO.P,U100,13*%
%TO.N,/PWM4*%
X20712500Y-21625000D03*
%TO.P,U100,14*%
%TO.N,/PWM2*%
X20712500Y-20975000D03*
%TO.P,U100,15*%
%TO.N,/PWM1*%
X20712500Y-20325000D03*
%TO.P,U100,16*%
%TO.N,/FLASH_RX*%
X20712500Y-19675000D03*
%TO.P,U100,17*%
%TO.N,/FLASH_TX*%
X20712500Y-19025000D03*
%TO.P,U100,18*%
%TO.N,unconnected-(U100-PA13-Pad18)*%
X20712500Y-18375000D03*
%TO.P,U100,19*%
%TO.N,/BOOT0*%
X20712500Y-17725000D03*
%TO.P,U100,20*%
%TO.N,/I2C_SCL*%
X20712500Y-17075000D03*
%TD*%
D22*
%TO.P,J8,1*%
%TO.N,/+24V*%
X58250000Y-54600000D03*
D23*
%TO.P,J8,2*%
%TO.N,/LED4*%
X61750000Y-54600000D03*
%TD*%
D16*
%TO.P,J100,1*%
%TO.N,/FLASH_TX*%
X30610000Y-2270000D03*
D17*
%TO.P,J100,2*%
%TO.N,/FLASH_RX*%
X30610000Y-4810000D03*
%TO.P,J100,3*%
%TO.N,GND*%
X30610000Y-7350000D03*
%TO.P,J100,4*%
%TO.N,unconnected-(J100-Pin_4-Pad4)*%
X30610000Y-9890000D03*
%TO.P,J100,5*%
%TO.N,/FLASH_MODE*%
X30610000Y-12430000D03*
%TO.P,J100,6*%
%TO.N,/I2C_SDA*%
X30610000Y-14970000D03*
%TO.P,J100,7*%
%TO.N,/I2C_SCL*%
X30610000Y-17510000D03*
%TO.P,J100,8*%
%TO.N,GND*%
X30610000Y-20050000D03*
%TO.P,J100,9*%
%TO.N,/NOTAUS*%
X30610000Y-22590000D03*
%TO.P,J100,10*%
%TO.N,/SEL_CLK*%
X30610000Y-25130000D03*
%TO.P,J100,11*%
%TO.N,/GP8*%
X30610000Y-27670000D03*
%TO.P,J100,12*%
%TO.N,/GP9*%
X30610000Y-30210000D03*
%TO.P,J100,13*%
%TO.N,GND*%
X30610000Y-32750000D03*
%TO.P,J100,14*%
%TO.N,/GP10*%
X30610000Y-35290000D03*
%TO.P,J100,15*%
%TO.N,/GP11*%
X30610000Y-37830000D03*
%TO.P,J100,16*%
%TO.N,/GP12*%
X30610000Y-40370000D03*
%TO.P,J100,17*%
%TO.N,/GP13*%
X30610000Y-42910000D03*
%TO.P,J100,18*%
%TO.N,GND*%
X30610000Y-45450000D03*
%TO.P,J100,19*%
%TO.N,/GP14*%
X30610000Y-47990000D03*
%TO.P,J100,20*%
%TO.N,/GP15*%
X30610000Y-50530000D03*
%TD*%
D18*
%TO.P,RP3,1*%
%TO.N,/PWM3_G*%
X39750000Y-35750000D03*
%TO.P,RP3,2*%
%TO.N,GND*%
X41750000Y-35750000D03*
%TD*%
%TO.P,R104,1*%
%TO.N,3V3*%
X4850000Y-33850000D03*
%TO.P,R104,2*%
%TO.N,/ID0*%
X6850000Y-33850000D03*
%TD*%
%TO.P,RG2,1*%
%TO.N,/PWM2*%
X35450000Y-33249999D03*
%TO.P,RG2,2*%
%TO.N,/PWM2_G*%
X37450000Y-33249999D03*
%TD*%
%TO.P,RG3,1*%
%TO.N,/PWM3*%
X35450000Y-35750000D03*
%TO.P,RG3,2*%
%TO.N,/PWM3_G*%
X37450000Y-35750000D03*
%TD*%
D24*
%TO.P,U103,1*%
%TO.N,/FLASH_MODE*%
X20212500Y-24950000D03*
%TO.P,U103,2*%
%TO.N,/SEL_OUT*%
X20212500Y-25600000D03*
%TO.P,U103,3*%
%TO.N,GND*%
X20212500Y-26250000D03*
%TO.P,U103,4*%
%TO.N,/BOOT0*%
X21887500Y-26250000D03*
%TO.P,U103,5*%
%TO.N,3V3*%
X21887500Y-24950000D03*
%TD*%
D25*
%TO.P,C102,1*%
%TO.N,3V3*%
X1530000Y-10917500D03*
%TO.P,C102,2*%
%TO.N,GND*%
X1530000Y-8842500D03*
%TD*%
D13*
%TO.P,D3,1*%
%TO.N,/+24V*%
X13700000Y-38750000D03*
%TO.P,D3,2*%
%TO.N,/LED3*%
X20500000Y-38750000D03*
%TD*%
D18*
%TO.P,R100,1*%
%TO.N,/ID0*%
X4850000Y-30950000D03*
%TO.P,R100,2*%
%TO.N,GND*%
X6850000Y-30950000D03*
%TD*%
D26*
%TO.P,J103,1*%
%TO.N,/+24V*%
X66240000Y-45500000D03*
%TO.P,J103,2*%
%TO.N,GND*%
X61200000Y-45500000D03*
%TO.P,J103,3*%
%TO.N,/+24V*%
X66240000Y-48040000D03*
%TO.P,J103,4*%
%TO.N,GND*%
X61200000Y-48040000D03*
%TD*%
D11*
%TO.P,Q90,1*%
%TO.N,/Q90_GATE*%
X61490000Y-8820000D03*
%TO.P,Q90,2*%
%TO.N,/PWR_IN*%
X61490000Y-11100000D03*
D12*
X67790000Y-11100000D03*
D11*
%TO.P,Q90,3*%
%TO.N,/+24V*%
X61490000Y-13380000D03*
%TD*%
D18*
%TO.P,R102,1*%
%TO.N,3V3*%
X9250000Y-25150000D03*
%TO.P,R102,2*%
%TO.N,/NCLR*%
X11250000Y-25150000D03*
%TD*%
%TO.P,R90,1*%
%TO.N,/Q90_GATE*%
X52390000Y-1450000D03*
%TO.P,R90,2*%
%TO.N,/+24V*%
X54390000Y-1450000D03*
%TD*%
D27*
%TO.P,J101,1*%
%TO.N,/SEL_IN*%
X18940000Y-2750000D03*
%TO.P,J101,2*%
%TO.N,GND*%
X22240000Y-5290000D03*
%TD*%
D18*
%TO.P,RG1,1*%
%TO.N,/PWM1*%
X34450000Y-30150000D03*
%TO.P,RG1,2*%
%TO.N,/PWM1_G*%
X36450000Y-30150000D03*
%TD*%
%TO.P,R105,1*%
%TO.N,3V3*%
X9150000Y-33850000D03*
%TO.P,R105,2*%
%TO.N,/ID1*%
X11150000Y-33850000D03*
%TD*%
D25*
%TO.P,C103,1*%
%TO.N,3V3*%
X1530000Y-15277500D03*
%TO.P,C103,2*%
%TO.N,GND*%
X1530000Y-13202500D03*
%TD*%
%TO.P,C104,1*%
%TO.N,3V3*%
X1530000Y-19637499D03*
%TO.P,C104,2*%
%TO.N,GND*%
X1530000Y-17562499D03*
%TD*%
D18*
%TO.P,RP2,1*%
%TO.N,/PWM2_G*%
X39750000Y-33249999D03*
%TO.P,RP2,2*%
%TO.N,GND*%
X41750000Y-33249999D03*
%TD*%
D13*
%TO.P,D2,1*%
%TO.N,/+24V*%
X2000000Y-38750000D03*
%TO.P,D2,2*%
%TO.N,/LED2*%
X8800000Y-38750000D03*
%TD*%
D11*
%TO.P,Q4,1*%
%TO.N,/PWM4_G*%
X63350000Y-36220000D03*
%TO.P,Q4,2*%
%TO.N,/LED4*%
X63350000Y-38500000D03*
D12*
X69650000Y-38500000D03*
D11*
%TO.P,Q4,3*%
%TO.N,GND*%
X63350000Y-40780000D03*
%TD*%
D18*
%TO.P,RP4,1*%
%TO.N,/PWM4_G*%
X60990000Y-3950000D03*
%TO.P,RP4,2*%
%TO.N,GND*%
X62990000Y-3950000D03*
%TD*%
D10*
%TO.P,C100,1*%
%TO.N,3V3*%
X4842500Y-28080000D03*
%TO.P,C100,2*%
%TO.N,GND*%
X6917500Y-28080000D03*
%TD*%
D18*
%TO.P,RP1,1*%
%TO.N,/PWM1_G*%
X38750000Y-30150000D03*
%TO.P,RP1,2*%
%TO.N,GND*%
X40750000Y-30150000D03*
%TD*%
D13*
%TO.P,D91,1*%
%TO.N,/VSYS*%
X63500000Y-18550000D03*
%TO.P,D91,2*%
%TO.N,/+5V_LOKAL*%
X70300000Y-18550000D03*
%TD*%
D22*
%TO.P,J6,1*%
%TO.N,/+24V*%
X9850000Y-53900000D03*
D23*
%TO.P,J6,2*%
%TO.N,/LED2*%
X13350000Y-53900000D03*
%TD*%
D13*
%TO.P,D90,1*%
%TO.N,/+24V*%
X53040000Y-18550000D03*
%TO.P,D90,2*%
%TO.N,GND*%
X59840000Y-18550000D03*
%TD*%
%TO.P,D1,1*%
%TO.N,/+24V*%
X36100000Y-4350000D03*
%TO.P,D1,2*%
%TO.N,/LED1*%
X42900000Y-4350000D03*
%TD*%
D28*
%TO.P,U102,1*%
%TO.N,/SEL_OUT*%
X14880000Y-25000000D03*
%TO.P,U102,2*%
X14880000Y-25500000D03*
%TO.P,U102,3*%
%TO.N,/NRST*%
X14880000Y-26000000D03*
%TO.P,U102,4*%
%TO.N,GND*%
X14880000Y-26500000D03*
%TO.P,U102,5*%
%TO.N,/FLASH_MODE*%
X17680000Y-26500000D03*
%TO.P,U102,6*%
%TO.N,/NQ*%
X17680000Y-26000000D03*
%TO.P,U102,7*%
X17680000Y-25500000D03*
%TO.P,U102,8*%
%TO.N,3V3*%
X17680000Y-25000000D03*
%TD*%
D22*
%TO.P,J90,1*%
%TO.N,/PWR_IN*%
X53790000Y-6600000D03*
D23*
%TO.P,J90,2*%
%TO.N,GND*%
X57290000Y-6600000D03*
%TD*%
D22*
%TO.P,J7,1*%
%TO.N,/+24V*%
X18450000Y-53900000D03*
D23*
%TO.P,J7,2*%
%TO.N,/LED3*%
X21950000Y-53900000D03*
%TD*%
D22*
%TO.P,J5,1*%
%TO.N,/+24V*%
X35850000Y-23600000D03*
D23*
%TO.P,J5,2*%
%TO.N,/LED1*%
X39350000Y-23600000D03*
%TD*%
D11*
%TO.P,Q3,1*%
%TO.N,/PWM3_G*%
X13550000Y-43920000D03*
%TO.P,Q3,2*%
%TO.N,/LED3*%
X13550000Y-46200000D03*
D12*
X19850000Y-46200000D03*
D11*
%TO.P,Q3,3*%
%TO.N,GND*%
X13550000Y-48480000D03*
%TD*%
D29*
%TO.P,C90,1*%
%TO.N,/+24V*%
X54042479Y-26751238D03*
D30*
%TO.P,C90,2*%
%TO.N,GND*%
X57542479Y-26751238D03*
%TD*%
D24*
%TO.P,U101,1*%
%TO.N,/SEL_CLK*%
X4612500Y-21450000D03*
%TO.P,U101,2*%
%TO.N,GND*%
X4612500Y-22100000D03*
%TO.P,U101,3*%
%TO.N,/SEL_IN*%
X4612500Y-22750000D03*
%TO.P,U101,4*%
%TO.N,/SEL_OUT*%
X6287500Y-22750000D03*
%TO.P,U101,5*%
%TO.N,3V3*%
X6287500Y-22100000D03*
%TO.P,U101,6*%
%TO.N,/NCLR*%
X6287500Y-21450000D03*
%TD*%
D18*
%TO.P,R101,1*%
%TO.N,/ID1*%
X9150000Y-30950000D03*
%TO.P,R101,2*%
%TO.N,GND*%
X11150000Y-30950000D03*
%TD*%
%TO.P,R91,1*%
%TO.N,/Q90_GATE*%
X56690000Y-1450000D03*
%TO.P,R91,2*%
%TO.N,GND*%
X58690000Y-1450000D03*
%TD*%
D31*
%TO.N,GND*%
X45000000Y-6250000D03*
X15000000Y-28750000D03*
X45000000Y-58750000D03*
X52500000Y-58750000D03*
X30000000Y-58750000D03*
X1000500Y-12219029D03*
X7500000Y-21250000D03*
X45000000Y-36250000D03*
X7500000Y-6250000D03*
X22500000Y-13750000D03*
X67500000Y-51250000D03*
X45000000Y-13750000D03*
X22500000Y-28750000D03*
X15000000Y-13750000D03*
X22500000Y-36250000D03*
X37500000Y-58750000D03*
X15000000Y-6250000D03*
X7500000Y-13750000D03*
X45000000Y-21250000D03*
X52500000Y-13750000D03*
X1000500Y-16579029D03*
X52500000Y-51250000D03*
X67500000Y-58750000D03*
X67500000Y-6250000D03*
X22500000Y-21250000D03*
X52500000Y-43750000D03*
X12900000Y-19675000D03*
X8124854Y-24425500D03*
X45000000Y-28750000D03*
%TO.N,/+24V*%
X4517900Y-39908500D03*
X54579900Y-3138000D03*
X36055000Y-52622600D03*
X13440200Y-42196600D03*
%TO.N,/NCLR*%
X10425800Y-22079800D03*
X9019300Y-21086600D03*
X6238600Y-23829500D03*
%TO.N,/GP16*%
X44732200Y-57279400D03*
X38947400Y-60386000D03*
%TO.N,/GP28*%
X65347000Y-27305500D03*
%TO.N,3V3*%
X22900000Y-24950000D03*
X17680000Y-24100000D03*
%TO.N,/PWM4*%
X58583700Y-3361200D03*
X50651600Y-1636100D03*
X18693700Y-21839500D03*
X27377800Y-1636100D03*
%TO.N,/PWM4_G*%
X62086600Y-6972500D03*
X62070200Y-33981100D03*
%TO.N,/PWM1_G*%
X35754400Y-16198900D03*
X36055000Y-28053700D03*
%TO.N,/ID0*%
X4850000Y-29600000D03*
X16500000Y-20975000D03*
%TO.N,/ID1*%
X17100000Y-21625000D03*
X9150000Y-29650000D03*
%TO.N,/PWM3*%
X24717700Y-24744300D03*
X23788000Y-33248100D03*
%TO.N,/PWM2*%
X33082600Y-33147100D03*
X28798600Y-16218100D03*
%TO.N,/FLASH_TX*%
X22185400Y-18736500D03*
%TO.N,/BOOT0*%
X24485400Y-19162600D03*
X23212500Y-25931300D03*
%TO.N,/FLASH_MODE*%
X22013800Y-23168000D03*
%TO.N,/SEL_CLK*%
X28548100Y-14734500D03*
%TO.N,/GP15*%
X36055000Y-60386000D03*
X32445700Y-60386000D03*
%TO.N,/SEL_OUT*%
X14880000Y-23650000D03*
X19350000Y-27600000D03*
X7753800Y-22965000D03*
%TO.N,/Q90_GATE*%
X57324100Y-3236500D03*
X55855600Y-5496700D03*
%TO.N,/SEL_IN*%
X4913700Y-23885000D03*
X12915800Y-4344100D03*
%TD*%
%TO.N,/+5V_LOKAL*%
D32*
X52382500Y-33080000D02*
X53519000Y-31943500D01*
X53519000Y-31943500D02*
X61595300Y-31943500D01*
X69180000Y-24750000D02*
X69180000Y-19670000D01*
X69180000Y-19670000D02*
X70300000Y-18550000D01*
X68003300Y-25535500D02*
X68003300Y-24750000D01*
X69180000Y-24750000D02*
X68003300Y-24750000D01*
X61595300Y-31943500D02*
X68003300Y-25535500D01*
%TO.N,GND*%
X14987500Y-19675000D02*
X12900000Y-19675000D01*
%TO.N,/PWM2_G*%
X18166800Y-31540700D02*
X35740700Y-31540700D01*
X39750000Y-33250000D02*
X37450000Y-33250000D01*
X35740700Y-31540700D02*
X37450000Y-33250000D01*
X6961700Y-38808300D02*
X6961700Y-37341600D01*
X14535000Y-35172500D02*
X18166800Y-31540700D01*
X6961700Y-37341600D02*
X9130800Y-35172500D01*
X9130800Y-35172500D02*
X14535000Y-35172500D01*
X1850000Y-43920000D02*
X6961700Y-38808300D01*
%TO.N,/LED2*%
D33*
X13350000Y-53900000D02*
X11426800Y-55823200D01*
X8462300Y-55823200D02*
X5815200Y-53176100D01*
X8150000Y-46200000D02*
X5261100Y-49088900D01*
X8800000Y-45550000D02*
X8150000Y-46200000D01*
X5261100Y-49088900D02*
X2372100Y-46200000D01*
X11426800Y-55823200D02*
X8462300Y-55823200D01*
X5815200Y-49643100D02*
X5261100Y-49088900D01*
X2372100Y-46200000D02*
X1850000Y-46200000D01*
X5815200Y-53176100D02*
X5815200Y-49643100D01*
X8800000Y-38750000D02*
X8800000Y-45550000D01*
%TO.N,/+24V*%
X33873400Y-21623400D02*
X33873400Y-6576600D01*
X66240000Y-45500000D02*
X68441700Y-45500000D01*
X64038300Y-48811700D02*
X58250000Y-54600000D01*
X55493100Y-24750000D02*
X64100000Y-24750000D01*
X54390000Y-1450000D02*
X54579900Y-1639900D01*
X35850000Y-23600000D02*
X33873400Y-21623400D01*
X54579900Y-1639900D02*
X54579900Y-3138000D01*
X13440200Y-42196600D02*
X13700000Y-41936800D01*
X54042500Y-26751200D02*
X55493100Y-25300600D01*
X66240000Y-48040000D02*
X68441700Y-48040000D01*
X16530500Y-51980500D02*
X11769500Y-51980500D01*
X58448300Y-44298300D02*
X52500000Y-38350000D01*
X53040000Y-18550000D02*
X58210000Y-13380000D01*
X18450000Y-53900000D02*
X20384800Y-55834800D01*
X58210000Y-13380000D02*
X61490000Y-13380000D01*
X64038300Y-45274600D02*
X63062000Y-44298300D01*
X56272600Y-52622600D02*
X58250000Y-54600000D01*
X66240000Y-45500000D02*
X64038300Y-45500000D01*
X32842800Y-55834800D02*
X36055000Y-52622600D01*
X66240000Y-48040000D02*
X64038300Y-48040000D01*
X11769500Y-51980500D02*
X9850000Y-53900000D01*
X68441700Y-48040000D02*
X68441700Y-45500000D01*
X18450000Y-53900000D02*
X16530500Y-51980500D01*
X20384800Y-55834800D02*
X32842800Y-55834800D01*
X3359400Y-38750000D02*
X4517900Y-39908500D01*
X55493100Y-24750000D02*
X55493100Y-21003100D01*
X64038300Y-45500000D02*
X64038300Y-45274600D01*
X36055000Y-52622600D02*
X56272600Y-52622600D01*
X2000000Y-38750000D02*
X3359400Y-38750000D01*
X63062000Y-44298300D02*
X58448300Y-44298300D01*
X55493100Y-25300600D02*
X55493100Y-24750000D01*
X33873400Y-6576600D02*
X36100000Y-4350000D01*
X55493100Y-21003100D02*
X53040000Y-18550000D01*
X64038300Y-48040000D02*
X64038300Y-48811700D01*
X13700000Y-41936800D02*
X13700000Y-38750000D01*
%TO.N,/LED4*%
X63200000Y-38350000D02*
X63350000Y-38500000D01*
X61750000Y-54600000D02*
X65580300Y-54600000D01*
X65580300Y-54600000D02*
X69650000Y-50530300D01*
X69650000Y-38500000D02*
X63350000Y-38500000D01*
X69650000Y-50530300D02*
X69650000Y-38500000D01*
X59300000Y-38350000D02*
X63200000Y-38350000D01*
%TO.N,/NCLR*%
D32*
X7145500Y-20592000D02*
X8524700Y-20592000D01*
X11250000Y-25150000D02*
X10425800Y-24325800D01*
X6238600Y-23829500D02*
X4888100Y-25180000D01*
X10425800Y-24325800D02*
X10425800Y-22079800D01*
X6287500Y-21450000D02*
X7145500Y-20592000D01*
X4888100Y-25180000D02*
X4842500Y-25180000D01*
X8524700Y-20592000D02*
X9019300Y-21086600D01*
%TO.N,/GP16*%
X38947400Y-60386000D02*
X41625600Y-60386000D01*
X41625600Y-60386000D02*
X44732200Y-57279400D01*
%TO.N,/GP28*%
X65347000Y-27305500D02*
X64724200Y-27928300D01*
X49754900Y-18874800D02*
X49754800Y-18874800D01*
X49754900Y-24383300D02*
X49754900Y-18874800D01*
X64724200Y-27928300D02*
X53299900Y-27928300D01*
X49754800Y-18874800D02*
X48390000Y-17510000D01*
X53299900Y-27928300D02*
X49754900Y-24383300D01*
%TO.N,3V3*%
X9250000Y-22100000D02*
X6287500Y-22100000D01*
X8101100Y-34898900D02*
X5898900Y-34898900D01*
X9150000Y-33850000D02*
X8101100Y-34898900D01*
X4897800Y-26980000D02*
X5942000Y-26980000D01*
X9250000Y-25150000D02*
X9250000Y-22100000D01*
X2644200Y-16391700D02*
X1530000Y-15277500D01*
X1530000Y-23612200D02*
X4897800Y-26980000D01*
X3921500Y-32921500D02*
X3921500Y-29001000D01*
X5942000Y-26980000D02*
X4842500Y-28080000D01*
X17746100Y-21024100D02*
X15747000Y-19025000D01*
X1530000Y-19637500D02*
X2644200Y-18523300D01*
X2600400Y-14207100D02*
X2600400Y-11987900D01*
X5898900Y-34898900D02*
X4850000Y-33850000D01*
X9250000Y-25150000D02*
X9250000Y-28050000D01*
X12325000Y-19025000D02*
X9250000Y-22100000D01*
X17680000Y-25000000D02*
X17680000Y-24100000D01*
X1530000Y-15277500D02*
X2600400Y-14207100D01*
X15747000Y-19025000D02*
X14987500Y-19025000D01*
X9250000Y-28050000D02*
X8180000Y-26980000D01*
X3921500Y-29001000D02*
X4842500Y-28080000D01*
X1530000Y-19637500D02*
X1530000Y-23612200D01*
X4850000Y-33850000D02*
X3921500Y-32921500D01*
X2600400Y-11987900D02*
X1530000Y-10917500D01*
X17680000Y-24100000D02*
X17746100Y-24033900D01*
X14987500Y-19025000D02*
X12325000Y-19025000D01*
X22900000Y-24950000D02*
X21887500Y-24950000D01*
X2644200Y-18523300D02*
X2644200Y-16391700D01*
X17746100Y-24033900D02*
X17746100Y-21024100D01*
X8180000Y-26980000D02*
X5942000Y-26980000D01*
%TO.N,/VSYS*%
X55910700Y-12330700D02*
X48390000Y-4810000D01*
X62525800Y-12330700D02*
X55910700Y-12330700D01*
X63500000Y-18550000D02*
X63500000Y-13304900D01*
X63500000Y-13304900D02*
X62525800Y-12330700D01*
%TO.N,/PWM4*%
X27946700Y-1067200D02*
X27377800Y-1636100D01*
X18693700Y-21839500D02*
X18908200Y-21625000D01*
X59078800Y-3361200D02*
X58583700Y-3361200D01*
X60990000Y-1450000D02*
X59078800Y-3361200D01*
X18908200Y-21625000D02*
X20712500Y-21625000D01*
X50082700Y-1067200D02*
X27946700Y-1067200D01*
X50651600Y-1636100D02*
X50082700Y-1067200D01*
%TO.N,/PWM4_G*%
X60990000Y-5875900D02*
X62086600Y-6972500D01*
X62070200Y-33981100D02*
X63350000Y-35260900D01*
X60990000Y-3950000D02*
X60990000Y-3450000D01*
X60990000Y-3950000D02*
X60990000Y-5875900D01*
X60990000Y-3450000D02*
X62990000Y-1450000D01*
X63350000Y-35260900D02*
X63350000Y-36220000D01*
%TO.N,/PWM1_G*%
X38750000Y-30150000D02*
X36450000Y-30150000D01*
X35754400Y-17515600D02*
X35754400Y-16198900D01*
X35220000Y-18050000D02*
X35754400Y-17515600D01*
X36450000Y-28448700D02*
X36450000Y-30150000D01*
X36055000Y-28053700D02*
X36450000Y-28448700D01*
%TO.N,/LED1*%
D33*
X37500000Y-11750000D02*
X42900000Y-6350000D01*
X37500000Y-11750000D02*
X37500000Y-18050000D01*
X37500000Y-21750000D02*
X37500000Y-18050000D01*
X42900000Y-6350000D02*
X42900000Y-4350000D01*
X39350000Y-23600000D02*
X37500000Y-21750000D01*
%TO.N,/I2C_SDA*%
D32*
X16701300Y-15361200D02*
X28807700Y-15361200D01*
X29198800Y-14970100D02*
X29198800Y-14970000D01*
X29198800Y-14970000D02*
X30610000Y-14970000D01*
X28807700Y-15361200D02*
X29198800Y-14970100D01*
X14987500Y-17075000D02*
X16701300Y-15361200D01*
%TO.N,/NRST*%
D34*
X14880000Y-26000000D02*
X13500000Y-26000000D01*
D32*
X13500000Y-20325000D02*
X14987500Y-20325000D01*
X13500000Y-26000000D02*
X13500000Y-20325000D01*
%TO.N,/ID0*%
X4850000Y-29600000D02*
X4850000Y-30950000D01*
X4850000Y-31850000D02*
X6850000Y-33850000D01*
X4850000Y-30950000D02*
X4850000Y-31850000D01*
X14987500Y-20975000D02*
X16500000Y-20975000D01*
%TO.N,/ID1*%
X9150000Y-30950000D02*
X9150000Y-31850000D01*
X9150000Y-31850000D02*
X11150000Y-33850000D01*
X14987500Y-21625000D02*
X17100000Y-21625000D01*
X9150000Y-29650000D02*
X9150000Y-30950000D01*
%TO.N,/PWM3*%
X21932000Y-22275000D02*
X20712500Y-22275000D01*
X23788000Y-33248100D02*
X24559900Y-34020000D01*
X22514700Y-22541300D02*
X22198300Y-22541300D01*
X22198300Y-22541300D02*
X21932000Y-22275000D01*
X24717700Y-24744300D02*
X22514700Y-22541300D01*
X33720000Y-34020000D02*
X35450000Y-35750000D01*
X24559900Y-34020000D02*
X33720000Y-34020000D01*
%TO.N,/PWM2*%
X33082600Y-33147100D02*
X35347100Y-33147100D01*
X35347100Y-33147100D02*
X35450000Y-33250000D01*
X20220300Y-16218100D02*
X28798600Y-16218100D01*
X20712500Y-20975000D02*
X19982700Y-20975000D01*
X19982700Y-20975000D02*
X19606900Y-20599200D01*
X19606900Y-20599200D02*
X19606900Y-16831500D01*
X19606900Y-16831500D02*
X20220300Y-16218100D01*
%TO.N,/PWM1*%
X23222000Y-22089600D02*
X22386100Y-22089600D01*
X21825200Y-21528700D02*
X21825200Y-20661900D01*
X34450000Y-30150000D02*
X33240000Y-28940000D01*
X22386100Y-22089600D02*
X21825200Y-21528700D01*
X21488300Y-20325000D02*
X20712500Y-20325000D01*
X21825200Y-20661900D02*
X21488300Y-20325000D01*
X30072400Y-28940000D02*
X23222000Y-22089600D01*
X33240000Y-28940000D02*
X30072400Y-28940000D01*
%TO.N,/FLASH_RX*%
X23860200Y-19799400D02*
X23735800Y-19675000D01*
X31037300Y-18780000D02*
X25880800Y-18780000D01*
X23735800Y-19675000D02*
X20712500Y-19675000D01*
X31801000Y-6001000D02*
X31801000Y-18016300D01*
X31801000Y-18016300D02*
X31037300Y-18780000D01*
X25880800Y-18780000D02*
X24861400Y-19799400D01*
X24861400Y-19799400D02*
X23860200Y-19799400D01*
X30610000Y-4810000D02*
X31801000Y-6001000D01*
%TO.N,/FLASH_TX*%
X20712500Y-19025000D02*
X21896900Y-19025000D01*
X21896900Y-19025000D02*
X22185400Y-18736500D01*
%TO.N,/BOOT0*%
X24485400Y-19162600D02*
X23047800Y-17725000D01*
X23047800Y-17725000D02*
X20712500Y-17725000D01*
X22893800Y-26250000D02*
X23212500Y-25931300D01*
X21887500Y-26250000D02*
X22893800Y-26250000D01*
%TO.N,/I2C_SCL*%
X30175000Y-17075000D02*
X20712500Y-17075000D01*
X30610000Y-17510000D02*
X30175000Y-17075000D01*
%TO.N,/FLASH_MODE*%
X18680000Y-24350000D02*
X20212000Y-24350000D01*
X20212000Y-24350000D02*
X20212500Y-24950000D01*
X17680000Y-27200000D02*
X18680000Y-27200000D01*
X20212000Y-24350000D02*
X20831800Y-24350000D01*
X17680000Y-26500000D02*
X17680000Y-27200000D01*
X20831800Y-24350000D02*
X22013800Y-23168000D01*
X18680000Y-27200000D02*
X18680000Y-24350000D01*
%TO.N,/SEL_CLK*%
X11328000Y-14734500D02*
X28548100Y-14734500D01*
X4612500Y-21450000D02*
X11328000Y-14734500D01*
%TO.N,/GP15*%
X36055000Y-60386000D02*
X32445700Y-60386000D01*
%TO.N,/PWM3_G*%
X34335700Y-36466700D02*
X34700800Y-36831800D01*
X34700800Y-36831800D02*
X36368200Y-36831800D01*
X37450000Y-35750000D02*
X39750000Y-35750000D01*
X14948800Y-35622700D02*
X24082400Y-35622700D01*
X13550000Y-43920000D02*
X12077100Y-42447100D01*
X24926400Y-36466700D02*
X34335700Y-36466700D01*
X14947300Y-35624200D02*
X14948800Y-35622700D01*
X12077100Y-42447100D02*
X12077100Y-37143400D01*
X13596300Y-35624200D02*
X14947300Y-35624200D01*
X36368200Y-36831800D02*
X37450000Y-35750000D01*
X24082400Y-35622700D02*
X24926400Y-36466700D01*
X12077100Y-37143400D02*
X13596300Y-35624200D01*
%TO.N,/SEL_OUT*%
X14880000Y-23650000D02*
X14880000Y-25000000D01*
X7753800Y-22965000D02*
X6502500Y-22965000D01*
X19350000Y-25600000D02*
X19350000Y-27600000D01*
X6502500Y-22965000D02*
X6287500Y-22750000D01*
X20212500Y-25600000D02*
X19350000Y-25600000D01*
X14880000Y-25000000D02*
X14880000Y-25500000D01*
%TO.N,/LED3*%
D33*
X20500000Y-45550000D02*
X19850000Y-46200000D01*
X20500000Y-38750000D02*
X20500000Y-45550000D01*
X21950000Y-53900000D02*
X21950000Y-48300000D01*
X19850000Y-46200000D02*
X13550000Y-46200000D01*
X21950000Y-48300000D02*
X19850000Y-46200000D01*
%TO.N,/Q90_GATE*%
D32*
X57338100Y-8820000D02*
X55736900Y-7218800D01*
X55769500Y-5496700D02*
X55855600Y-5496700D01*
X61490000Y-8820000D02*
X57338100Y-8820000D01*
X52390000Y-1450000D02*
X52390000Y-2117200D01*
X55736900Y-7218800D02*
X55736900Y-5529300D01*
X55736900Y-5529300D02*
X55769500Y-5496700D01*
X57324100Y-2084100D02*
X56690000Y-1450000D01*
X52390000Y-2117200D02*
X55769500Y-5496700D01*
X57324100Y-3236500D02*
X57324100Y-2084100D01*
%TO.N,/PWR_IN*%
D33*
X67790000Y-11100000D02*
X61490000Y-11100000D01*
X53790000Y-6600000D02*
X58290000Y-11100000D01*
X58290000Y-11100000D02*
X61490000Y-11100000D01*
%TO.N,/SEL_IN*%
D32*
X14509900Y-2750000D02*
X18940000Y-2750000D01*
X12915800Y-4344100D02*
X14509900Y-2750000D01*
X4612500Y-23583800D02*
X4913700Y-23885000D01*
X4612500Y-22750000D02*
X4612500Y-23583800D01*
%TO.N,/NQ*%
X17680000Y-26000000D02*
X17680000Y-25500000D01*
%TD*%
%TA.AperFunction,Conductor*%
%TO.N,GND*%
G36*
X51715484Y-519407D02*
G01*
X51751448Y-568907D01*
X51751448Y-630093D01*
X51721764Y-671271D01*
X51723097Y-672604D01*
X51717845Y-677855D01*
X51637207Y-787116D01*
X51592355Y-915296D01*
X51592353Y-915305D01*
X51589500Y-945725D01*
X51589500Y-1954274D01*
X51592353Y-1984694D01*
X51592355Y-1984703D01*
X51637207Y-2112883D01*
X51717845Y-2222144D01*
X51717847Y-2222146D01*
X51717850Y-2222150D01*
X51717853Y-2222152D01*
X51717855Y-2222154D01*
X51827116Y-2302792D01*
X51827117Y-2302792D01*
X51827118Y-2302793D01*
X51955301Y-2347646D01*
X51985725Y-2350499D01*
X51985727Y-2350500D01*
X51985734Y-2350500D01*
X52121965Y-2350500D01*
X52180156Y-2369407D01*
X52191969Y-2379496D01*
X54842969Y-5030496D01*
X54870746Y-5085013D01*
X54861175Y-5145445D01*
X54817910Y-5188710D01*
X54772965Y-5199500D01*
X52785734Y-5199500D01*
X52755305Y-5202353D01*
X52627114Y-5247208D01*
X52517855Y-5327845D01*
X52517845Y-5327855D01*
X52437208Y-5437114D01*
X52392353Y-5565305D01*
X52389500Y-5595726D01*
X52389500Y-7604265D01*
X52392353Y-7634694D01*
X52437208Y-7762885D01*
X52517845Y-7872144D01*
X52517847Y-7872146D01*
X52517850Y-7872150D01*
X52517853Y-7872152D01*
X52517855Y-7872154D01*
X52627114Y-7952791D01*
X52627116Y-7952791D01*
X52627118Y-7952793D01*
X52755302Y-7997646D01*
X52785735Y-8000500D01*
X54158834Y-8000499D01*
X54217025Y-8019406D01*
X54228838Y-8029495D01*
X57843457Y-11644114D01*
X57958189Y-11720775D01*
X58085672Y-11773580D01*
X58221006Y-11800500D01*
X58221007Y-11800500D01*
X60323686Y-11800500D01*
X60381877Y-11819407D01*
X60382427Y-11819810D01*
X60391551Y-11826543D01*
X60427144Y-11876308D01*
X60426689Y-11937492D01*
X60390359Y-11986723D01*
X60332765Y-12005200D01*
X56086535Y-12005200D01*
X56028344Y-11986293D01*
X56016531Y-11976204D01*
X49375619Y-5335292D01*
X49347842Y-5280775D01*
X49354159Y-5227402D01*
X49365716Y-5199501D01*
X49400130Y-5116420D01*
X49440500Y-4913465D01*
X49440500Y-4706535D01*
X49400130Y-4503580D01*
X49320941Y-4312402D01*
X49205977Y-4140345D01*
X49059655Y-3994023D01*
X49042091Y-3982287D01*
X48887597Y-3879058D01*
X48696418Y-3799869D01*
X48493467Y-3759500D01*
X48493465Y-3759500D01*
X48286535Y-3759500D01*
X48286532Y-3759500D01*
X48083581Y-3799869D01*
X47892402Y-3879058D01*
X47720348Y-3994020D01*
X47574020Y-4140348D01*
X47459058Y-4312402D01*
X47379869Y-4503581D01*
X47339500Y-4706532D01*
X47339500Y-4913467D01*
X47379869Y-5116418D01*
X47459058Y-5307597D01*
X47541385Y-5430809D01*
X47574023Y-5479655D01*
X47720345Y-5625977D01*
X47892402Y-5740941D01*
X48083580Y-5820130D01*
X48286535Y-5860500D01*
X48286536Y-5860500D01*
X48493464Y-5860500D01*
X48493465Y-5860500D01*
X48696420Y-5820130D01*
X48807402Y-5774158D01*
X48868399Y-5769358D01*
X48915292Y-5795619D01*
X55710838Y-12591165D01*
X55710840Y-12591166D01*
X55710841Y-12591167D01*
X55710842Y-12591168D01*
X55785057Y-12634016D01*
X55785055Y-12634016D01*
X55785059Y-12634017D01*
X55785061Y-12634018D01*
X55867847Y-12656200D01*
X57706016Y-12656200D01*
X57764207Y-12675107D01*
X57800171Y-12724607D01*
X57800171Y-12785793D01*
X57766582Y-12832022D01*
X57767219Y-12832798D01*
X57764248Y-12835236D01*
X57764207Y-12835293D01*
X57764021Y-12835422D01*
X57763465Y-12835878D01*
X53928839Y-16670504D01*
X53874322Y-16698281D01*
X53858835Y-16699500D01*
X51985725Y-16699500D01*
X51955305Y-16702353D01*
X51955296Y-16702355D01*
X51827116Y-16747207D01*
X51717855Y-16827845D01*
X51717845Y-16827855D01*
X51637207Y-16937116D01*
X51592355Y-17065296D01*
X51592353Y-17065305D01*
X51589500Y-17095725D01*
X51589500Y-20004274D01*
X51592353Y-20034694D01*
X51592355Y-20034703D01*
X51637207Y-20162883D01*
X51717845Y-20272144D01*
X51717847Y-20272146D01*
X51717850Y-20272150D01*
X51717853Y-20272152D01*
X51717855Y-20272154D01*
X51827116Y-20352792D01*
X51827117Y-20352792D01*
X51827118Y-20352793D01*
X51955301Y-20397646D01*
X51985725Y-20400499D01*
X51985727Y-20400500D01*
X51985734Y-20400500D01*
X53858835Y-20400500D01*
X53917026Y-20419407D01*
X53928839Y-20429496D01*
X54763604Y-21264261D01*
X54791381Y-21318778D01*
X54792600Y-21334265D01*
X54792600Y-24969435D01*
X54773693Y-25027626D01*
X54763604Y-25039439D01*
X54081301Y-25721742D01*
X54026784Y-25749519D01*
X54011297Y-25750738D01*
X53438204Y-25750738D01*
X53407784Y-25753591D01*
X53407775Y-25753593D01*
X53279595Y-25798445D01*
X53170334Y-25879083D01*
X53170324Y-25879093D01*
X53089686Y-25988354D01*
X53044834Y-26116534D01*
X53044832Y-26116543D01*
X53041979Y-26146963D01*
X53041979Y-26971044D01*
X53023072Y-27029235D01*
X52973572Y-27065199D01*
X52912386Y-27065199D01*
X52872975Y-27041048D01*
X50109396Y-24277469D01*
X50081619Y-24222952D01*
X50080400Y-24207465D01*
X50080400Y-18831948D01*
X50078576Y-18825140D01*
X50058218Y-18749162D01*
X50015365Y-18674938D01*
X49954762Y-18614335D01*
X49954759Y-18614333D01*
X49950556Y-18610130D01*
X49949744Y-18609418D01*
X49664905Y-18324579D01*
X49375617Y-18035290D01*
X49347841Y-17980775D01*
X49354157Y-17927405D01*
X49400130Y-17816420D01*
X49440500Y-17613465D01*
X49440500Y-17406535D01*
X49400130Y-17203580D01*
X49320941Y-17012402D01*
X49205977Y-16840345D01*
X49059655Y-16694023D01*
X49059651Y-16694020D01*
X48887597Y-16579058D01*
X48696418Y-16499869D01*
X48493467Y-16459500D01*
X48493465Y-16459500D01*
X48286535Y-16459500D01*
X48286532Y-16459500D01*
X48083581Y-16499869D01*
X47892402Y-16579058D01*
X47720348Y-16694020D01*
X47574020Y-16840348D01*
X47459058Y-17012402D01*
X47379869Y-17203581D01*
X47339500Y-17406532D01*
X47339500Y-17613467D01*
X47379869Y-17816418D01*
X47459058Y-18007597D01*
X47557336Y-18154681D01*
X47574023Y-18179655D01*
X47720345Y-18325977D01*
X47892402Y-18440941D01*
X48083580Y-18520130D01*
X48286535Y-18560500D01*
X48286536Y-18560500D01*
X48493464Y-18560500D01*
X48493465Y-18560500D01*
X48696420Y-18520130D01*
X48807405Y-18474157D01*
X48868398Y-18469357D01*
X48915289Y-18495616D01*
X49162782Y-18743108D01*
X49400404Y-18980730D01*
X49428181Y-19035247D01*
X49429400Y-19050734D01*
X49429400Y-21928361D01*
X49410493Y-21986552D01*
X49360993Y-22022516D01*
X49299807Y-22022516D01*
X49250307Y-21986552D01*
X49248085Y-21983363D01*
X49205980Y-21920349D01*
X49205979Y-21920348D01*
X49205977Y-21920345D01*
X49059655Y-21774023D01*
X49053431Y-21769864D01*
X48887597Y-21659058D01*
X48696418Y-21579869D01*
X48493467Y-21539500D01*
X48493465Y-21539500D01*
X48286535Y-21539500D01*
X48286532Y-21539500D01*
X48083581Y-21579869D01*
X47892402Y-21659058D01*
X47720348Y-21774020D01*
X47574020Y-21920348D01*
X47459058Y-22092402D01*
X47379869Y-22283581D01*
X47339500Y-22486532D01*
X47339500Y-22693467D01*
X47379869Y-22896418D01*
X47459058Y-23087597D01*
X47566069Y-23247751D01*
X47574023Y-23259655D01*
X47720345Y-23405977D01*
X47892402Y-23520941D01*
X48083580Y-23600130D01*
X48286535Y-23640500D01*
X48286536Y-23640500D01*
X48493464Y-23640500D01*
X48493465Y-23640500D01*
X48696420Y-23600130D01*
X48887598Y-23520941D01*
X49059655Y-23405977D01*
X49205977Y-23259655D01*
X49248084Y-23196637D01*
X49296134Y-23158757D01*
X49357272Y-23156355D01*
X49408146Y-23190347D01*
X49429324Y-23247751D01*
X49429400Y-23251638D01*
X49429400Y-24340447D01*
X49429400Y-24426153D01*
X49438562Y-24460345D01*
X49439078Y-24462272D01*
X49435875Y-24523373D01*
X49397370Y-24570923D01*
X49338269Y-24586758D01*
X49281148Y-24564831D01*
X49261135Y-24542895D01*
X49205979Y-24460348D01*
X49205977Y-24460345D01*
X49059655Y-24314023D01*
X49049366Y-24307148D01*
X48887597Y-24199058D01*
X48696418Y-24119869D01*
X48493467Y-24079500D01*
X48493465Y-24079500D01*
X48286535Y-24079500D01*
X48286532Y-24079500D01*
X48083581Y-24119869D01*
X47892402Y-24199058D01*
X47720348Y-24314020D01*
X47574020Y-24460348D01*
X47459058Y-24632402D01*
X47379869Y-24823581D01*
X47339500Y-25026532D01*
X47339500Y-25233467D01*
X47379869Y-25436418D01*
X47459058Y-25627597D01*
X47574020Y-25799651D01*
X47574023Y-25799655D01*
X47720345Y-25945977D01*
X47892402Y-26060941D01*
X48083580Y-26140130D01*
X48286535Y-26180500D01*
X48286536Y-26180500D01*
X48493464Y-26180500D01*
X48493465Y-26180500D01*
X48696420Y-26140130D01*
X48887598Y-26060941D01*
X49059655Y-25945977D01*
X49205977Y-25799655D01*
X49320941Y-25627598D01*
X49400130Y-25436420D01*
X49440500Y-25233465D01*
X49440500Y-25026535D01*
X49400130Y-24823580D01*
X49353907Y-24711990D01*
X49349107Y-24650995D01*
X49381076Y-24598826D01*
X49437604Y-24575411D01*
X49497099Y-24589695D01*
X49515371Y-24604098D01*
X53100038Y-28188765D01*
X53100040Y-28188766D01*
X53100042Y-28188768D01*
X53174257Y-28231616D01*
X53174255Y-28231616D01*
X53174259Y-28231617D01*
X53174261Y-28231618D01*
X53257047Y-28253800D01*
X53257049Y-28253800D01*
X64585664Y-28253800D01*
X64643855Y-28272707D01*
X64679819Y-28322207D01*
X64679819Y-28383393D01*
X64655668Y-28422804D01*
X61489469Y-31589004D01*
X61434952Y-31616781D01*
X61419465Y-31618000D01*
X53567932Y-31618000D01*
X53567916Y-31617999D01*
X53561853Y-31617999D01*
X53476147Y-31617999D01*
X53476144Y-31617999D01*
X53393361Y-31640181D01*
X53369834Y-31653765D01*
X53356250Y-31661608D01*
X53332721Y-31675192D01*
X53319137Y-31683035D01*
X53258534Y-31743637D01*
X53258535Y-31743638D01*
X53258533Y-31743640D01*
X53258532Y-31743640D01*
X52874287Y-32127884D01*
X52819771Y-32155661D01*
X52795042Y-32156448D01*
X52774267Y-32154500D01*
X52774266Y-32154500D01*
X51990734Y-32154500D01*
X51990725Y-32154500D01*
X51960305Y-32157353D01*
X51960296Y-32157355D01*
X51832116Y-32202207D01*
X51722855Y-32282845D01*
X51722845Y-32282855D01*
X51642207Y-32392116D01*
X51597355Y-32520296D01*
X51597353Y-32520305D01*
X51594500Y-32550725D01*
X51594500Y-33609274D01*
X51597353Y-33639694D01*
X51597355Y-33639703D01*
X51642207Y-33767883D01*
X51722845Y-33877144D01*
X51722847Y-33877146D01*
X51722850Y-33877150D01*
X51722853Y-33877152D01*
X51722855Y-33877154D01*
X51832116Y-33957792D01*
X51832117Y-33957792D01*
X51832118Y-33957793D01*
X51960301Y-34002646D01*
X51990725Y-34005499D01*
X51990727Y-34005500D01*
X51990734Y-34005500D01*
X52774273Y-34005500D01*
X52774273Y-34005499D01*
X52804699Y-34002646D01*
X52932882Y-33957793D01*
X52990583Y-33915208D01*
X61569700Y-33915208D01*
X61569700Y-34046992D01*
X61596669Y-34147643D01*
X61603809Y-34174290D01*
X61669696Y-34288409D01*
X61669698Y-34288411D01*
X61669700Y-34288414D01*
X61762886Y-34381600D01*
X61762888Y-34381601D01*
X61762890Y-34381603D01*
X61877010Y-34447490D01*
X61877008Y-34447490D01*
X61877012Y-34447491D01*
X61877014Y-34447492D01*
X62004308Y-34481600D01*
X62069365Y-34481600D01*
X62127556Y-34500507D01*
X62139369Y-34510596D01*
X62548277Y-34919504D01*
X62879270Y-35250496D01*
X62907047Y-35305013D01*
X62897476Y-35365445D01*
X62854211Y-35408710D01*
X62809266Y-35419500D01*
X62445725Y-35419500D01*
X62415305Y-35422353D01*
X62415296Y-35422355D01*
X62287116Y-35467207D01*
X62177855Y-35547845D01*
X62177845Y-35547855D01*
X62097207Y-35657116D01*
X62052355Y-35785296D01*
X62052353Y-35785305D01*
X62049500Y-35815725D01*
X62049500Y-36624274D01*
X62052353Y-36654694D01*
X62052355Y-36654703D01*
X62097207Y-36782883D01*
X62177845Y-36892144D01*
X62177847Y-36892146D01*
X62177850Y-36892150D01*
X62177853Y-36892152D01*
X62177855Y-36892154D01*
X62287116Y-36972792D01*
X62287117Y-36972792D01*
X62287118Y-36972793D01*
X62415301Y-37017646D01*
X62445725Y-37020499D01*
X62445727Y-37020500D01*
X62445734Y-37020500D01*
X64254273Y-37020500D01*
X64254273Y-37020499D01*
X64284699Y-37017646D01*
X64412882Y-36972793D01*
X64522150Y-36892150D01*
X64602793Y-36782882D01*
X64647646Y-36654699D01*
X64650499Y-36624273D01*
X64650500Y-36624273D01*
X64650500Y-35815727D01*
X64650499Y-35815725D01*
X64647646Y-35785301D01*
X64602793Y-35657118D01*
X64588029Y-35637114D01*
X64522154Y-35547855D01*
X64522152Y-35547853D01*
X64522150Y-35547850D01*
X64522146Y-35547847D01*
X64522144Y-35547845D01*
X64412883Y-35467207D01*
X64284703Y-35422355D01*
X64284694Y-35422353D01*
X64254274Y-35419500D01*
X64254266Y-35419500D01*
X63774500Y-35419500D01*
X63716309Y-35400593D01*
X63680345Y-35351093D01*
X63675500Y-35320500D01*
X63675500Y-35311740D01*
X63675501Y-35311727D01*
X63675501Y-35218047D01*
X63675500Y-35218045D01*
X63674763Y-35215296D01*
X63653318Y-35135262D01*
X63625522Y-35087118D01*
X63610465Y-35061038D01*
X63549862Y-35000435D01*
X63549859Y-35000433D01*
X63093830Y-34544404D01*
X62599696Y-34050269D01*
X62571919Y-33995752D01*
X62570700Y-33980265D01*
X62570700Y-33915209D01*
X62570700Y-33915208D01*
X62536592Y-33787914D01*
X62536590Y-33787911D01*
X62536590Y-33787909D01*
X62470703Y-33673790D01*
X62470701Y-33673788D01*
X62470700Y-33673786D01*
X62377514Y-33580600D01*
X62377511Y-33580598D01*
X62377509Y-33580596D01*
X62263389Y-33514709D01*
X62263391Y-33514709D01*
X62213999Y-33501475D01*
X62136092Y-33480600D01*
X62004308Y-33480600D01*
X61926400Y-33501475D01*
X61877009Y-33514709D01*
X61762890Y-33580596D01*
X61669696Y-33673790D01*
X61603809Y-33787909D01*
X61603808Y-33787914D01*
X61569700Y-33915208D01*
X52990583Y-33915208D01*
X53042150Y-33877150D01*
X53050710Y-33865550D01*
X53062239Y-33849931D01*
X53122792Y-33767883D01*
X53122791Y-33767883D01*
X53122793Y-33767882D01*
X53167646Y-33639699D01*
X53170499Y-33609273D01*
X53170500Y-33609273D01*
X53170500Y-32793334D01*
X53189407Y-32735143D01*
X53199496Y-32723330D01*
X53624830Y-32297996D01*
X53679347Y-32270219D01*
X53694834Y-32269000D01*
X61638151Y-32269000D01*
X61638153Y-32269000D01*
X61720939Y-32246818D01*
X61720941Y-32246816D01*
X61720943Y-32246816D01*
X61795157Y-32203968D01*
X61795157Y-32203967D01*
X61795162Y-32203965D01*
X68195011Y-25804113D01*
X68195015Y-25804111D01*
X68203160Y-25795965D01*
X68203162Y-25795965D01*
X68204801Y-25794325D01*
X68259314Y-25766547D01*
X68319747Y-25776115D01*
X68357118Y-25809321D01*
X68364023Y-25819655D01*
X68364026Y-25819658D01*
X68364030Y-25819663D01*
X68446805Y-25902437D01*
X68510345Y-25965977D01*
X68682402Y-26080941D01*
X68873580Y-26160130D01*
X69076535Y-26200500D01*
X69076536Y-26200500D01*
X69283464Y-26200500D01*
X69283465Y-26200500D01*
X69486420Y-26160130D01*
X69677598Y-26080941D01*
X69849655Y-25965977D01*
X69995977Y-25819655D01*
X70110941Y-25647598D01*
X70190130Y-25456420D01*
X70230500Y-25253465D01*
X70230500Y-24246535D01*
X70190130Y-24043580D01*
X70110941Y-23852402D01*
X69995977Y-23680345D01*
X69849655Y-23534023D01*
X69831940Y-23522186D01*
X69677597Y-23419058D01*
X69566614Y-23373087D01*
X69520088Y-23333350D01*
X69505500Y-23281623D01*
X69505500Y-20499500D01*
X69524407Y-20441309D01*
X69573907Y-20405345D01*
X69604500Y-20400500D01*
X71354273Y-20400500D01*
X71354273Y-20400499D01*
X71384699Y-20397646D01*
X71512882Y-20352793D01*
X71622150Y-20272150D01*
X71702793Y-20162882D01*
X71747646Y-20034699D01*
X71750499Y-20004273D01*
X71750500Y-20004273D01*
X71750500Y-17095727D01*
X71750499Y-17095725D01*
X71747646Y-17065305D01*
X71747646Y-17065301D01*
X71702793Y-16937118D01*
X71697640Y-16930136D01*
X71622154Y-16827855D01*
X71622152Y-16827853D01*
X71622150Y-16827850D01*
X71622146Y-16827847D01*
X71622144Y-16827845D01*
X71512883Y-16747207D01*
X71384703Y-16702355D01*
X71384694Y-16702353D01*
X71354274Y-16699500D01*
X71354266Y-16699500D01*
X69245734Y-16699500D01*
X69245725Y-16699500D01*
X69215305Y-16702353D01*
X69215296Y-16702355D01*
X69087116Y-16747207D01*
X68977855Y-16827845D01*
X68977845Y-16827855D01*
X68897207Y-16937116D01*
X68852355Y-17065296D01*
X68852353Y-17065305D01*
X68849500Y-17095725D01*
X68849500Y-20004274D01*
X68852805Y-20039514D01*
X68854500Y-20055209D01*
X68854500Y-23281623D01*
X68835593Y-23339814D01*
X68793386Y-23373087D01*
X68682402Y-23419058D01*
X68510348Y-23534020D01*
X68364020Y-23680348D01*
X68249058Y-23852402D01*
X68169869Y-24043581D01*
X68129500Y-24246532D01*
X68129500Y-24325500D01*
X68110593Y-24383691D01*
X68061093Y-24419655D01*
X68030500Y-24424500D01*
X67960447Y-24424500D01*
X67877662Y-24446682D01*
X67803438Y-24489535D01*
X67742835Y-24550138D01*
X67699982Y-24624362D01*
X67682848Y-24688310D01*
X67677800Y-24707148D01*
X67677800Y-25359665D01*
X67658893Y-25417856D01*
X67648804Y-25429669D01*
X65960539Y-27117933D01*
X65906022Y-27145710D01*
X65845590Y-27136139D01*
X65804799Y-27097429D01*
X65747503Y-26998190D01*
X65747501Y-26998188D01*
X65747500Y-26998186D01*
X65654314Y-26905000D01*
X65654311Y-26904998D01*
X65654309Y-26904996D01*
X65540189Y-26839109D01*
X65540191Y-26839109D01*
X65489392Y-26825498D01*
X65412892Y-26805000D01*
X65281108Y-26805000D01*
X65204608Y-26825498D01*
X65153809Y-26839109D01*
X65039690Y-26904996D01*
X64946496Y-26998190D01*
X64880609Y-27112309D01*
X64869510Y-27153734D01*
X64854420Y-27210052D01*
X64846500Y-27239609D01*
X64846500Y-27304665D01*
X64827593Y-27362856D01*
X64817504Y-27374669D01*
X64618369Y-27573804D01*
X64563852Y-27601581D01*
X64548365Y-27602800D01*
X55103769Y-27602800D01*
X55045578Y-27583893D01*
X55009614Y-27534393D01*
X55009614Y-27473207D01*
X55010325Y-27471103D01*
X55040123Y-27385943D01*
X55040123Y-27385942D01*
X55040125Y-27385937D01*
X55042978Y-27355511D01*
X55042979Y-27355511D01*
X55042979Y-26782385D01*
X55061886Y-26724194D01*
X55071969Y-26712387D01*
X56037214Y-25747143D01*
X56113875Y-25632411D01*
X56163911Y-25511614D01*
X56203648Y-25465089D01*
X56255375Y-25450500D01*
X62950500Y-25450500D01*
X63008691Y-25469407D01*
X63044655Y-25518907D01*
X63049500Y-25549500D01*
X63049500Y-26019746D01*
X63049501Y-26019758D01*
X63061132Y-26078227D01*
X63061134Y-26078233D01*
X63092809Y-26125637D01*
X63105448Y-26144552D01*
X63171769Y-26188867D01*
X63216231Y-26197711D01*
X63230241Y-26200498D01*
X63230246Y-26200498D01*
X63230252Y-26200500D01*
X63230253Y-26200500D01*
X64969747Y-26200500D01*
X64969748Y-26200500D01*
X65028231Y-26188867D01*
X65094552Y-26144552D01*
X65138867Y-26078231D01*
X65150500Y-26019748D01*
X65150500Y-23480252D01*
X65138867Y-23421769D01*
X65094552Y-23355448D01*
X65078027Y-23344406D01*
X65028233Y-23311134D01*
X65028231Y-23311133D01*
X65028228Y-23311132D01*
X65028227Y-23311132D01*
X64969758Y-23299501D01*
X64969748Y-23299500D01*
X63230252Y-23299500D01*
X63230251Y-23299500D01*
X63230241Y-23299501D01*
X63171772Y-23311132D01*
X63171766Y-23311134D01*
X63105451Y-23355445D01*
X63105445Y-23355451D01*
X63061134Y-23421766D01*
X63061132Y-23421772D01*
X63049501Y-23480241D01*
X63049500Y-23480253D01*
X63049500Y-23950500D01*
X63030593Y-24008691D01*
X62981093Y-24044655D01*
X62950500Y-24049500D01*
X56292600Y-24049500D01*
X56234409Y-24030593D01*
X56198445Y-23981093D01*
X56193600Y-23950500D01*
X56193600Y-20934108D01*
X56193599Y-20934104D01*
X56190539Y-20918719D01*
X56166680Y-20798772D01*
X56131039Y-20712727D01*
X56113876Y-20671291D01*
X56111467Y-20667686D01*
X56064748Y-20597765D01*
X56037214Y-20556557D01*
X54519496Y-19038839D01*
X54491719Y-18984322D01*
X54490500Y-18968835D01*
X54490500Y-18131165D01*
X54509407Y-18072974D01*
X54519496Y-18061161D01*
X58471161Y-14109496D01*
X58525678Y-14081719D01*
X58541165Y-14080500D01*
X60323686Y-14080500D01*
X60381877Y-14099407D01*
X60382474Y-14099845D01*
X60427116Y-14132792D01*
X60427117Y-14132792D01*
X60427118Y-14132793D01*
X60555301Y-14177646D01*
X60585725Y-14180499D01*
X60585727Y-14180500D01*
X60585734Y-14180500D01*
X62394273Y-14180500D01*
X62394273Y-14180499D01*
X62424699Y-14177646D01*
X62552882Y-14132793D01*
X62662150Y-14052150D01*
X62742793Y-13942882D01*
X62787646Y-13814699D01*
X62790499Y-13784273D01*
X62790500Y-13784273D01*
X62790500Y-13294735D01*
X62809407Y-13236544D01*
X62858907Y-13200580D01*
X62920093Y-13200580D01*
X62959504Y-13224731D01*
X63145504Y-13410731D01*
X63173281Y-13465248D01*
X63174500Y-13480735D01*
X63174500Y-16600500D01*
X63155593Y-16658691D01*
X63106093Y-16694655D01*
X63075500Y-16699500D01*
X62445725Y-16699500D01*
X62415305Y-16702353D01*
X62415296Y-16702355D01*
X62287116Y-16747207D01*
X62177855Y-16827845D01*
X62177845Y-16827855D01*
X62097207Y-16937116D01*
X62052355Y-17065296D01*
X62052353Y-17065305D01*
X62049500Y-17095725D01*
X62049500Y-20004274D01*
X62052353Y-20034694D01*
X62052355Y-20034703D01*
X62097207Y-20162883D01*
X62177845Y-20272144D01*
X62177847Y-20272146D01*
X62177850Y-20272150D01*
X62177853Y-20272152D01*
X62177855Y-20272154D01*
X62287116Y-20352792D01*
X62287117Y-20352792D01*
X62287118Y-20352793D01*
X62415301Y-20397646D01*
X62445725Y-20400499D01*
X62445727Y-20400500D01*
X62445734Y-20400500D01*
X64554273Y-20400500D01*
X64554273Y-20400499D01*
X64584699Y-20397646D01*
X64712882Y-20352793D01*
X64822150Y-20272150D01*
X64902793Y-20162882D01*
X64947646Y-20034699D01*
X64950499Y-20004273D01*
X64950500Y-20004273D01*
X64950500Y-17095727D01*
X64950499Y-17095725D01*
X64947646Y-17065305D01*
X64947646Y-17065301D01*
X64902793Y-16937118D01*
X64897640Y-16930136D01*
X64822154Y-16827855D01*
X64822152Y-16827853D01*
X64822150Y-16827850D01*
X64822146Y-16827847D01*
X64822144Y-16827845D01*
X64712883Y-16747207D01*
X64584703Y-16702355D01*
X64584694Y-16702353D01*
X64554274Y-16699500D01*
X64554266Y-16699500D01*
X63924500Y-16699500D01*
X63866309Y-16680593D01*
X63830345Y-16631093D01*
X63825500Y-16600500D01*
X63825500Y-13262048D01*
X63825500Y-13262047D01*
X63803318Y-13179262D01*
X63803318Y-13179261D01*
X63803318Y-13179260D01*
X63760468Y-13105042D01*
X63760466Y-13105040D01*
X63760465Y-13105038D01*
X62725662Y-12070235D01*
X62725659Y-12070233D01*
X62725657Y-12070231D01*
X62651444Y-12027384D01*
X62651441Y-12027383D01*
X62651439Y-12027382D01*
X62604151Y-12014711D01*
X62552838Y-11981387D01*
X62530912Y-11924266D01*
X62546748Y-11865165D01*
X62570987Y-11839430D01*
X62597528Y-11819843D01*
X62655576Y-11800503D01*
X62656314Y-11800500D01*
X64290500Y-11800500D01*
X64348691Y-11819407D01*
X64384655Y-11868907D01*
X64389500Y-11899500D01*
X64389500Y-13804273D01*
X64392353Y-13834705D01*
X64392354Y-13834706D01*
X64437206Y-13962885D01*
X64517844Y-14072146D01*
X64517853Y-14072155D01*
X64627114Y-14152793D01*
X64627115Y-14152793D01*
X64627116Y-14152794D01*
X64755293Y-14197645D01*
X64755294Y-14197646D01*
X64755295Y-14197646D01*
X64755298Y-14197647D01*
X64785724Y-14200500D01*
X64785727Y-14200500D01*
X70794273Y-14200500D01*
X70794276Y-14200500D01*
X70824702Y-14197647D01*
X70952884Y-14152794D01*
X71062151Y-14072151D01*
X71076913Y-14052150D01*
X71142793Y-13962885D01*
X71142792Y-13962885D01*
X71142794Y-13962884D01*
X71187647Y-13834702D01*
X71190500Y-13804276D01*
X71190500Y-8395724D01*
X71187647Y-8365298D01*
X71142794Y-8237116D01*
X71142793Y-8237114D01*
X71062155Y-8127853D01*
X71062146Y-8127844D01*
X70952885Y-8047206D01*
X70824706Y-8002354D01*
X70824705Y-8002353D01*
X70809489Y-8000926D01*
X70794276Y-7999500D01*
X64785724Y-7999500D01*
X64772684Y-8000722D01*
X64755294Y-8002353D01*
X64755293Y-8002354D01*
X64627114Y-8047206D01*
X64517853Y-8127844D01*
X64517844Y-8127853D01*
X64437206Y-8237114D01*
X64392354Y-8365293D01*
X64392353Y-8365294D01*
X64389500Y-8395726D01*
X64389500Y-10300500D01*
X64370593Y-10358691D01*
X64321093Y-10394655D01*
X64290500Y-10399500D01*
X62656314Y-10399500D01*
X62598123Y-10380593D01*
X62597526Y-10380155D01*
X62552883Y-10347207D01*
X62424703Y-10302355D01*
X62424694Y-10302353D01*
X62394274Y-10299500D01*
X62394266Y-10299500D01*
X60585734Y-10299500D01*
X60585725Y-10299500D01*
X60555305Y-10302353D01*
X60555296Y-10302355D01*
X60427116Y-10347207D01*
X60382474Y-10380155D01*
X60324426Y-10399497D01*
X60323686Y-10399500D01*
X58621165Y-10399500D01*
X58562974Y-10380593D01*
X58551161Y-10370504D01*
X57495161Y-9314504D01*
X57467384Y-9259987D01*
X57476955Y-9199555D01*
X57520220Y-9156290D01*
X57565165Y-9145500D01*
X60091963Y-9145500D01*
X60150154Y-9164407D01*
X60186118Y-9213907D01*
X60190530Y-9235255D01*
X60192353Y-9254694D01*
X60192355Y-9254703D01*
X60237207Y-9382883D01*
X60317845Y-9492144D01*
X60317847Y-9492146D01*
X60317850Y-9492150D01*
X60317853Y-9492152D01*
X60317855Y-9492154D01*
X60427116Y-9572792D01*
X60427117Y-9572792D01*
X60427118Y-9572793D01*
X60555301Y-9617646D01*
X60585725Y-9620499D01*
X60585727Y-9620500D01*
X60585734Y-9620500D01*
X62394273Y-9620500D01*
X62394273Y-9620499D01*
X62424699Y-9617646D01*
X62552882Y-9572793D01*
X62662150Y-9492150D01*
X62742793Y-9382882D01*
X62787646Y-9254699D01*
X62790499Y-9224273D01*
X62790500Y-9224273D01*
X62790500Y-8415727D01*
X62790499Y-8415725D01*
X62788762Y-8397206D01*
X62787646Y-8385301D01*
X62742793Y-8257118D01*
X62728029Y-8237114D01*
X62662154Y-8147855D01*
X62662152Y-8147853D01*
X62662150Y-8147850D01*
X62662146Y-8147847D01*
X62662144Y-8147845D01*
X62552883Y-8067207D01*
X62424703Y-8022355D01*
X62424694Y-8022353D01*
X62394274Y-8019500D01*
X62394266Y-8019500D01*
X60585734Y-8019500D01*
X60585725Y-8019500D01*
X60555305Y-8022353D01*
X60555296Y-8022355D01*
X60427116Y-8067207D01*
X60317855Y-8147845D01*
X60317845Y-8147855D01*
X60237207Y-8257116D01*
X60192355Y-8385296D01*
X60192353Y-8385305D01*
X60190530Y-8404745D01*
X60166272Y-8460915D01*
X60113630Y-8492100D01*
X60091963Y-8494500D01*
X57513934Y-8494500D01*
X57455743Y-8475593D01*
X57443930Y-8465504D01*
X56091396Y-7112969D01*
X56063619Y-7058452D01*
X56062400Y-7042965D01*
X56062400Y-6012388D01*
X56081307Y-5954197D01*
X56111897Y-5926653D01*
X56162914Y-5897200D01*
X56256100Y-5804014D01*
X56256103Y-5804009D01*
X56321990Y-5689890D01*
X56321990Y-5689888D01*
X56321992Y-5689886D01*
X56356100Y-5562592D01*
X56356100Y-5430808D01*
X56321992Y-5303514D01*
X56321990Y-5303511D01*
X56321990Y-5303509D01*
X56256103Y-5189390D01*
X56256101Y-5189388D01*
X56256100Y-5189386D01*
X56162914Y-5096200D01*
X56162911Y-5096198D01*
X56162909Y-5096196D01*
X56048789Y-5030309D01*
X56048791Y-5030309D01*
X55969113Y-5008960D01*
X55921492Y-4996200D01*
X55789708Y-4996200D01*
X55789707Y-4996200D01*
X55784755Y-4996852D01*
X55724594Y-4985702D01*
X55701829Y-4968703D01*
X54715413Y-3982287D01*
X54687636Y-3927770D01*
X54697207Y-3867338D01*
X54740472Y-3824073D01*
X54766100Y-3815185D01*
X54784228Y-3811580D01*
X54911711Y-3758775D01*
X55026442Y-3682114D01*
X55124014Y-3584542D01*
X55200675Y-3469811D01*
X55253480Y-3342328D01*
X55280400Y-3206993D01*
X55280400Y-1570907D01*
X55257150Y-1454023D01*
X55253480Y-1435571D01*
X55200675Y-1308089D01*
X55200674Y-1308087D01*
X55198814Y-1303597D01*
X55200207Y-1303019D01*
X55190500Y-1264255D01*
X55190500Y-945727D01*
X55190499Y-945725D01*
X55187646Y-915305D01*
X55187646Y-915301D01*
X55142793Y-787118D01*
X55140747Y-784346D01*
X55062154Y-677855D01*
X55062152Y-677853D01*
X55062150Y-677850D01*
X55062146Y-677847D01*
X55056903Y-672604D01*
X55058261Y-671245D01*
X55028325Y-629384D01*
X55028785Y-568200D01*
X55065120Y-518972D01*
X55122707Y-500500D01*
X55957293Y-500500D01*
X56015484Y-519407D01*
X56051448Y-568907D01*
X56051448Y-630093D01*
X56021764Y-671271D01*
X56023097Y-672604D01*
X56017845Y-677855D01*
X55937207Y-787116D01*
X55892355Y-915296D01*
X55892353Y-915305D01*
X55889500Y-945725D01*
X55889500Y-1954274D01*
X55892353Y-1984694D01*
X55892355Y-1984703D01*
X55937207Y-2112883D01*
X56017845Y-2222144D01*
X56017847Y-2222146D01*
X56017850Y-2222150D01*
X56017853Y-2222152D01*
X56017855Y-2222154D01*
X56127116Y-2302792D01*
X56127117Y-2302792D01*
X56127118Y-2302793D01*
X56255301Y-2347646D01*
X56285725Y-2350499D01*
X56285727Y-2350500D01*
X56285734Y-2350500D01*
X56899600Y-2350500D01*
X56957791Y-2369407D01*
X56993755Y-2418907D01*
X56998600Y-2449500D01*
X56998600Y-2813178D01*
X56979693Y-2871369D01*
X56969604Y-2883181D01*
X56923600Y-2929184D01*
X56923596Y-2929190D01*
X56857709Y-3043309D01*
X56841314Y-3104496D01*
X56823600Y-3170608D01*
X56823600Y-3302392D01*
X56850797Y-3403894D01*
X56857709Y-3429690D01*
X56923596Y-3543809D01*
X56923598Y-3543811D01*
X56923600Y-3543814D01*
X57016786Y-3637000D01*
X57016788Y-3637001D01*
X57016790Y-3637003D01*
X57130910Y-3702890D01*
X57130908Y-3702890D01*
X57130912Y-3702891D01*
X57130914Y-3702892D01*
X57258208Y-3737000D01*
X57258210Y-3737000D01*
X57389990Y-3737000D01*
X57389992Y-3737000D01*
X57517286Y-3702892D01*
X57517288Y-3702890D01*
X57517290Y-3702890D01*
X57631409Y-3637003D01*
X57631409Y-3637002D01*
X57631414Y-3637000D01*
X57724600Y-3543814D01*
X57724603Y-3543809D01*
X57790490Y-3429690D01*
X57790490Y-3429688D01*
X57790492Y-3429686D01*
X57824600Y-3302392D01*
X57824600Y-3170608D01*
X57790492Y-3043314D01*
X57790490Y-3043311D01*
X57790490Y-3043309D01*
X57724603Y-2929190D01*
X57724599Y-2929184D01*
X57678596Y-2883181D01*
X57650819Y-2828664D01*
X57649600Y-2813178D01*
X57649600Y-2041248D01*
X57649600Y-2041247D01*
X57630968Y-1971711D01*
X57627418Y-1958461D01*
X57618727Y-1943409D01*
X57603675Y-1917338D01*
X57603675Y-1917337D01*
X57584566Y-1884240D01*
X57584565Y-1884238D01*
X57523962Y-1823635D01*
X57523959Y-1823633D01*
X57520500Y-1820174D01*
X57520470Y-1820143D01*
X57519462Y-1819134D01*
X57491711Y-1764604D01*
X57490500Y-1749165D01*
X57490500Y-945727D01*
X57490499Y-945725D01*
X57487646Y-915305D01*
X57487646Y-915301D01*
X57442793Y-787118D01*
X57440747Y-784346D01*
X57362154Y-677855D01*
X57362152Y-677853D01*
X57362150Y-677850D01*
X57362146Y-677847D01*
X57356903Y-672604D01*
X57358261Y-671245D01*
X57328325Y-629384D01*
X57328785Y-568200D01*
X57365120Y-518972D01*
X57422707Y-500500D01*
X60257293Y-500500D01*
X60315484Y-519407D01*
X60351448Y-568907D01*
X60351448Y-630093D01*
X60321764Y-671271D01*
X60323097Y-672604D01*
X60317845Y-677855D01*
X60237207Y-787116D01*
X60192355Y-915296D01*
X60192353Y-915305D01*
X60189500Y-945725D01*
X60189500Y-1749164D01*
X60170593Y-1807355D01*
X60160504Y-1819168D01*
X59024807Y-2954864D01*
X58970290Y-2982641D01*
X58909858Y-2973070D01*
X58894535Y-2963402D01*
X58891009Y-2960696D01*
X58776889Y-2894809D01*
X58776891Y-2894809D01*
X58727499Y-2881575D01*
X58649592Y-2860700D01*
X58517808Y-2860700D01*
X58439900Y-2881575D01*
X58390509Y-2894809D01*
X58276390Y-2960696D01*
X58183196Y-3053890D01*
X58117309Y-3168009D01*
X58109211Y-3198231D01*
X58083200Y-3295308D01*
X58083200Y-3427092D01*
X58094648Y-3469817D01*
X58117309Y-3554390D01*
X58183196Y-3668509D01*
X58183198Y-3668511D01*
X58183200Y-3668514D01*
X58276386Y-3761700D01*
X58276388Y-3761701D01*
X58276390Y-3761703D01*
X58390510Y-3827590D01*
X58390508Y-3827590D01*
X58390512Y-3827591D01*
X58390514Y-3827592D01*
X58517808Y-3861700D01*
X58517810Y-3861700D01*
X58649590Y-3861700D01*
X58649592Y-3861700D01*
X58776886Y-3827592D01*
X58776888Y-3827590D01*
X58776890Y-3827590D01*
X58891009Y-3761703D01*
X58891010Y-3761702D01*
X58891014Y-3761700D01*
X58893943Y-3758771D01*
X58937019Y-3715696D01*
X58991536Y-3687919D01*
X59007022Y-3686700D01*
X59121651Y-3686700D01*
X59121653Y-3686700D01*
X59204439Y-3664518D01*
X59204441Y-3664516D01*
X59204443Y-3664516D01*
X59278657Y-3621668D01*
X59278657Y-3621667D01*
X59278662Y-3621665D01*
X60520830Y-2379495D01*
X60575347Y-2351719D01*
X60590834Y-2350500D01*
X61390165Y-2350500D01*
X61448356Y-2369407D01*
X61484320Y-2418907D01*
X61484320Y-2480093D01*
X61460169Y-2519504D01*
X60959169Y-3020504D01*
X60904652Y-3048281D01*
X60889165Y-3049500D01*
X60585725Y-3049500D01*
X60555305Y-3052353D01*
X60555296Y-3052355D01*
X60427116Y-3097207D01*
X60317855Y-3177845D01*
X60317845Y-3177855D01*
X60237207Y-3287116D01*
X60192355Y-3415296D01*
X60192353Y-3415305D01*
X60189500Y-3445725D01*
X60189500Y-4454274D01*
X60192353Y-4484694D01*
X60192355Y-4484703D01*
X60237207Y-4612883D01*
X60317845Y-4722144D01*
X60317847Y-4722146D01*
X60317850Y-4722150D01*
X60317853Y-4722152D01*
X60317855Y-4722154D01*
X60427116Y-4802792D01*
X60427117Y-4802792D01*
X60427118Y-4802793D01*
X60555301Y-4847646D01*
X60563221Y-4848388D01*
X60574745Y-4849470D01*
X60630915Y-4873728D01*
X60662100Y-4926370D01*
X60664500Y-4948037D01*
X60664500Y-5833047D01*
X60664500Y-5918753D01*
X60684062Y-5991763D01*
X60686683Y-6001543D01*
X60729531Y-6075757D01*
X60729533Y-6075759D01*
X60729535Y-6075762D01*
X61159882Y-6506108D01*
X61557104Y-6903330D01*
X61584881Y-6957847D01*
X61586100Y-6973334D01*
X61586100Y-7038392D01*
X61598827Y-7085890D01*
X61620209Y-7165690D01*
X61686096Y-7279809D01*
X61686098Y-7279811D01*
X61686100Y-7279814D01*
X61779286Y-7373000D01*
X61779288Y-7373001D01*
X61779290Y-7373003D01*
X61893410Y-7438890D01*
X61893408Y-7438890D01*
X61893412Y-7438891D01*
X61893414Y-7438892D01*
X62020708Y-7473000D01*
X62020710Y-7473000D01*
X62152490Y-7473000D01*
X62152492Y-7473000D01*
X62279786Y-7438892D01*
X62279788Y-7438890D01*
X62279790Y-7438890D01*
X62393909Y-7373003D01*
X62393909Y-7373002D01*
X62393914Y-7373000D01*
X62487100Y-7279814D01*
X62552992Y-7165686D01*
X62587100Y-7038392D01*
X62587100Y-6906608D01*
X62552992Y-6779314D01*
X62552990Y-6779311D01*
X62552990Y-6779309D01*
X62487103Y-6665190D01*
X62487101Y-6665188D01*
X62487100Y-6665186D01*
X62393914Y-6572000D01*
X62393911Y-6571998D01*
X62393909Y-6571996D01*
X62279789Y-6506109D01*
X62279791Y-6506109D01*
X62230399Y-6492875D01*
X62152492Y-6472000D01*
X62152490Y-6472000D01*
X62087434Y-6472000D01*
X62029243Y-6453093D01*
X62017430Y-6443004D01*
X61344496Y-5770069D01*
X61316719Y-5715552D01*
X61315500Y-5700065D01*
X61315500Y-4948037D01*
X61334407Y-4889846D01*
X61383907Y-4853882D01*
X61405255Y-4849470D01*
X61415712Y-4848488D01*
X61424699Y-4847646D01*
X61552882Y-4802793D01*
X61662150Y-4722150D01*
X61742793Y-4612882D01*
X61787646Y-4484699D01*
X61790499Y-4454273D01*
X61790500Y-4454273D01*
X61790500Y-3878710D01*
X69149500Y-3878710D01*
X69149500Y-4121289D01*
X69181161Y-4361781D01*
X69181161Y-4361786D01*
X69243944Y-4596092D01*
X69243948Y-4596105D01*
X69336772Y-4820204D01*
X69336774Y-4820208D01*
X69336776Y-4820212D01*
X69432322Y-4985702D01*
X69458066Y-5030292D01*
X69605729Y-5222731D01*
X69605731Y-5222733D01*
X69605735Y-5222738D01*
X69777262Y-5394265D01*
X69777266Y-5394268D01*
X69777268Y-5394270D01*
X69969707Y-5541933D01*
X69969711Y-5541936D01*
X70179788Y-5663224D01*
X70403900Y-5756054D01*
X70638211Y-5818838D01*
X70878712Y-5850500D01*
X70878713Y-5850500D01*
X71121287Y-5850500D01*
X71121288Y-5850500D01*
X71361789Y-5818838D01*
X71596100Y-5756054D01*
X71820212Y-5663224D01*
X72030289Y-5541936D01*
X72222738Y-5394265D01*
X72394265Y-5222738D01*
X72541936Y-5030289D01*
X72663224Y-4820212D01*
X72756054Y-4596100D01*
X72818838Y-4361789D01*
X72850500Y-4121288D01*
X72850500Y-3878712D01*
X72818838Y-3638211D01*
X72756054Y-3403900D01*
X72676798Y-3212559D01*
X72663227Y-3179795D01*
X72663226Y-3179794D01*
X72663224Y-3179788D01*
X72541936Y-2969711D01*
X72484461Y-2894808D01*
X72394270Y-2777268D01*
X72394268Y-2777266D01*
X72394265Y-2777262D01*
X72222738Y-2605735D01*
X72222733Y-2605731D01*
X72222731Y-2605729D01*
X72030292Y-2458066D01*
X72030289Y-2458064D01*
X71820212Y-2336776D01*
X71820208Y-2336774D01*
X71820204Y-2336772D01*
X71596105Y-2243948D01*
X71596104Y-2243947D01*
X71596100Y-2243946D01*
X71361789Y-2181162D01*
X71361786Y-2181161D01*
X71361784Y-2181161D01*
X71121289Y-2149500D01*
X71121288Y-2149500D01*
X70878712Y-2149500D01*
X70878710Y-2149500D01*
X70638218Y-2181161D01*
X70638213Y-2181161D01*
X70403907Y-2243944D01*
X70403894Y-2243948D01*
X70179795Y-2336772D01*
X69969707Y-2458066D01*
X69777268Y-2605729D01*
X69605729Y-2777268D01*
X69458066Y-2969707D01*
X69409463Y-3053890D01*
X69342076Y-3170609D01*
X69336772Y-3179795D01*
X69243948Y-3403894D01*
X69243944Y-3403907D01*
X69181161Y-3638213D01*
X69181161Y-3638218D01*
X69149500Y-3878710D01*
X61790500Y-3878710D01*
X61790500Y-3445727D01*
X61790499Y-3445725D01*
X61788995Y-3429686D01*
X61787646Y-3415301D01*
X61742793Y-3287118D01*
X61742791Y-3287115D01*
X61742790Y-3287113D01*
X61738356Y-3281105D01*
X61719016Y-3223057D01*
X61737489Y-3164727D01*
X61748003Y-3152322D01*
X62520830Y-2379496D01*
X62575347Y-2351719D01*
X62590834Y-2350500D01*
X63394273Y-2350500D01*
X63394273Y-2350499D01*
X63424699Y-2347646D01*
X63552882Y-2302793D01*
X63662150Y-2222150D01*
X63742793Y-2112882D01*
X63787646Y-1984699D01*
X63790499Y-1954273D01*
X63790500Y-1954273D01*
X63790500Y-945727D01*
X63790499Y-945725D01*
X63787646Y-915305D01*
X63787646Y-915301D01*
X63742793Y-787118D01*
X63740747Y-784346D01*
X63662154Y-677855D01*
X63662152Y-677853D01*
X63662150Y-677850D01*
X63662146Y-677847D01*
X63656903Y-672604D01*
X63658261Y-671245D01*
X63628325Y-629384D01*
X63628785Y-568200D01*
X63665120Y-518972D01*
X63722707Y-500500D01*
X71934108Y-500500D01*
X71997015Y-500500D01*
X72002992Y-500681D01*
X72295310Y-518362D01*
X72307165Y-519802D01*
X72592281Y-572051D01*
X72603883Y-574911D01*
X72880623Y-661147D01*
X72891786Y-665380D01*
X73110648Y-763882D01*
X73156119Y-784347D01*
X73166702Y-789902D01*
X73414758Y-939856D01*
X73424583Y-946638D01*
X73652755Y-1125399D01*
X73661704Y-1133326D01*
X73866673Y-1338295D01*
X73874599Y-1347243D01*
X74049829Y-1570908D01*
X74053356Y-1575409D01*
X74060145Y-1585245D01*
X74091393Y-1636935D01*
X74210096Y-1833295D01*
X74215652Y-1843880D01*
X74334616Y-2108206D01*
X74338855Y-2119384D01*
X74425087Y-2396113D01*
X74427948Y-2407721D01*
X74480196Y-2692827D01*
X74481637Y-2704694D01*
X74493193Y-2895727D01*
X74497410Y-2965456D01*
X74499319Y-2997006D01*
X74499500Y-3002984D01*
X74499500Y-61997015D01*
X74499319Y-62002993D01*
X74481637Y-62295304D01*
X74480196Y-62307171D01*
X74427948Y-62592277D01*
X74425087Y-62603885D01*
X74338855Y-62880615D01*
X74334616Y-62891793D01*
X74215652Y-63156118D01*
X74210096Y-63166703D01*
X74060142Y-63414758D01*
X74053356Y-63424590D01*
X73874599Y-63652755D01*
X73866672Y-63661704D01*
X73661704Y-63866672D01*
X73652755Y-63874599D01*
X73424590Y-64053356D01*
X73414758Y-64060142D01*
X73177212Y-64203744D01*
X73166703Y-64210097D01*
X73156118Y-64215652D01*
X72891793Y-64334616D01*
X72880615Y-64338855D01*
X72603885Y-64425087D01*
X72592277Y-64427948D01*
X72307171Y-64480196D01*
X72295304Y-64481637D01*
X72023993Y-64498048D01*
X72002991Y-64499319D01*
X71997015Y-64499500D01*
X3002985Y-64499500D01*
X2997008Y-64499319D01*
X2973822Y-64497916D01*
X2704694Y-64481637D01*
X2692827Y-64480196D01*
X2407721Y-64427948D01*
X2396113Y-64425087D01*
X2119384Y-64338855D01*
X2108206Y-64334616D01*
X1843880Y-64215652D01*
X1833295Y-64210096D01*
X1672942Y-64113160D01*
X1585245Y-64060145D01*
X1575413Y-64053358D01*
X1347243Y-63874599D01*
X1338295Y-63866673D01*
X1133326Y-63661704D01*
X1125399Y-63652755D01*
X946638Y-63424583D01*
X939856Y-63414758D01*
X789902Y-63166703D01*
X784347Y-63156119D01*
X665383Y-62891793D01*
X661147Y-62880623D01*
X574911Y-62603883D01*
X572051Y-62592278D01*
X572051Y-62592277D01*
X519802Y-62307165D01*
X518362Y-62295304D01*
X513972Y-62222731D01*
X500681Y-62002992D01*
X500500Y-61997015D01*
X500500Y-60878710D01*
X2149500Y-60878710D01*
X2149500Y-61121289D01*
X2181161Y-61361781D01*
X2181161Y-61361786D01*
X2243944Y-61596092D01*
X2243948Y-61596105D01*
X2336772Y-61820204D01*
X2336774Y-61820208D01*
X2336776Y-61820212D01*
X2440577Y-62000000D01*
X2458066Y-62030292D01*
X2605729Y-62222731D01*
X2605731Y-62222733D01*
X2605735Y-62222738D01*
X2777262Y-62394265D01*
X2777266Y-62394268D01*
X2777268Y-62394270D01*
X2933630Y-62514250D01*
X2969711Y-62541936D01*
X3179788Y-62663224D01*
X3403900Y-62756054D01*
X3638211Y-62818838D01*
X3878712Y-62850500D01*
X3878713Y-62850500D01*
X4121287Y-62850500D01*
X4121288Y-62850500D01*
X4361789Y-62818838D01*
X4596100Y-62756054D01*
X4820212Y-62663224D01*
X5030289Y-62541936D01*
X5222738Y-62394265D01*
X5394265Y-62222738D01*
X5541936Y-62030289D01*
X5663224Y-61820212D01*
X5756054Y-61596100D01*
X5818838Y-61361789D01*
X5850500Y-61121288D01*
X5850500Y-60878712D01*
X5818838Y-60638211D01*
X5756054Y-60403900D01*
X5721346Y-60320108D01*
X31945200Y-60320108D01*
X31945200Y-60451892D01*
X31975279Y-60564151D01*
X31979309Y-60579190D01*
X32045196Y-60693309D01*
X32045198Y-60693311D01*
X32045200Y-60693314D01*
X32138386Y-60786500D01*
X32138388Y-60786501D01*
X32138390Y-60786503D01*
X32252510Y-60852390D01*
X32252508Y-60852390D01*
X32252512Y-60852391D01*
X32252514Y-60852392D01*
X32379808Y-60886500D01*
X32379810Y-60886500D01*
X32511590Y-60886500D01*
X32511592Y-60886500D01*
X32638886Y-60852392D01*
X32638888Y-60852390D01*
X32638890Y-60852390D01*
X32753009Y-60786503D01*
X32753010Y-60786502D01*
X32753014Y-60786500D01*
X32753015Y-60786499D01*
X32799019Y-60740496D01*
X32853536Y-60712719D01*
X32869022Y-60711500D01*
X35631678Y-60711500D01*
X35689869Y-60730407D01*
X35701681Y-60740496D01*
X35747684Y-60786499D01*
X35747690Y-60786503D01*
X35861810Y-60852390D01*
X35861808Y-60852390D01*
X35861812Y-60852391D01*
X35861814Y-60852392D01*
X35989108Y-60886500D01*
X35989110Y-60886500D01*
X36120890Y-60886500D01*
X36120892Y-60886500D01*
X36248186Y-60852392D01*
X36248188Y-60852390D01*
X36248190Y-60852390D01*
X36362309Y-60786503D01*
X36362309Y-60786502D01*
X36362314Y-60786500D01*
X36455500Y-60693314D01*
X36482547Y-60646467D01*
X36521390Y-60579190D01*
X36521390Y-60579188D01*
X36521392Y-60579186D01*
X36555500Y-60451892D01*
X36555500Y-60320108D01*
X38446900Y-60320108D01*
X38446900Y-60451892D01*
X38476979Y-60564151D01*
X38481009Y-60579190D01*
X38546896Y-60693309D01*
X38546898Y-60693311D01*
X38546900Y-60693314D01*
X38640086Y-60786500D01*
X38640088Y-60786501D01*
X38640090Y-60786503D01*
X38754210Y-60852390D01*
X38754208Y-60852390D01*
X38754212Y-60852391D01*
X38754214Y-60852392D01*
X38881508Y-60886500D01*
X38881510Y-60886500D01*
X39013290Y-60886500D01*
X39013292Y-60886500D01*
X39042365Y-60878710D01*
X69149500Y-60878710D01*
X69149500Y-61121289D01*
X69181161Y-61361781D01*
X69181161Y-61361786D01*
X69243944Y-61596092D01*
X69243948Y-61596105D01*
X69336772Y-61820204D01*
X69336774Y-61820208D01*
X69336776Y-61820212D01*
X69440577Y-62000000D01*
X69458066Y-62030292D01*
X69605729Y-62222731D01*
X69605731Y-62222733D01*
X69605735Y-62222738D01*
X69777262Y-62394265D01*
X69777266Y-62394268D01*
X69777268Y-62394270D01*
X69933630Y-62514250D01*
X69969711Y-62541936D01*
X70179788Y-62663224D01*
X70403900Y-62756054D01*
X70638211Y-62818838D01*
X70878712Y-62850500D01*
X70878713Y-62850500D01*
X71121287Y-62850500D01*
X71121288Y-62850500D01*
X71361789Y-62818838D01*
X71596100Y-62756054D01*
X71820212Y-62663224D01*
X72030289Y-62541936D01*
X72222738Y-62394265D01*
X72394265Y-62222738D01*
X72541936Y-62030289D01*
X72663224Y-61820212D01*
X72756054Y-61596100D01*
X72818838Y-61361789D01*
X72850500Y-61121288D01*
X72850500Y-60878712D01*
X72818838Y-60638211D01*
X72756054Y-60403900D01*
X72668620Y-60192814D01*
X72663227Y-60179795D01*
X72663226Y-60179794D01*
X72663224Y-60179788D01*
X72541936Y-59969711D01*
X72541933Y-59969707D01*
X72394270Y-59777268D01*
X72394268Y-59777266D01*
X72394265Y-59777262D01*
X72222738Y-59605735D01*
X72222733Y-59605731D01*
X72222731Y-59605729D01*
X72030292Y-59458066D01*
X72030289Y-59458064D01*
X71820212Y-59336776D01*
X71820208Y-59336774D01*
X71820204Y-59336772D01*
X71596105Y-59243948D01*
X71596104Y-59243947D01*
X71596100Y-59243946D01*
X71361789Y-59181162D01*
X71361786Y-59181161D01*
X71361784Y-59181161D01*
X71121289Y-59149500D01*
X71121288Y-59149500D01*
X70878712Y-59149500D01*
X70878710Y-59149500D01*
X70638218Y-59181161D01*
X70638213Y-59181161D01*
X70403907Y-59243944D01*
X70403894Y-59243948D01*
X70179795Y-59336772D01*
X69969707Y-59458066D01*
X69777268Y-59605729D01*
X69605729Y-59777268D01*
X69458066Y-59969707D01*
X69336772Y-60179795D01*
X69243948Y-60403894D01*
X69243944Y-60403907D01*
X69181161Y-60638213D01*
X69181161Y-60638218D01*
X69149500Y-60878710D01*
X39042365Y-60878710D01*
X39140586Y-60852392D01*
X39140588Y-60852390D01*
X39140590Y-60852390D01*
X39240083Y-60794947D01*
X39240082Y-60794947D01*
X39254714Y-60786500D01*
X39302535Y-60738678D01*
X39304454Y-60736950D01*
X39330166Y-60725492D01*
X39355236Y-60712719D01*
X39359601Y-60712375D01*
X39360341Y-60712046D01*
X39361273Y-60712243D01*
X39370722Y-60711500D01*
X41668451Y-60711500D01*
X41668453Y-60711500D01*
X41751239Y-60689318D01*
X41751241Y-60689316D01*
X41751243Y-60689316D01*
X41825457Y-60646468D01*
X41825457Y-60646467D01*
X41825462Y-60646465D01*
X44663031Y-57808896D01*
X44717548Y-57781119D01*
X44733035Y-57779900D01*
X44798090Y-57779900D01*
X44798092Y-57779900D01*
X44925386Y-57745792D01*
X44925388Y-57745790D01*
X44925390Y-57745790D01*
X45039509Y-57679903D01*
X45039509Y-57679902D01*
X45039514Y-57679900D01*
X45132700Y-57586714D01*
X45198592Y-57472586D01*
X45232700Y-57345292D01*
X45232700Y-57213508D01*
X45198592Y-57086214D01*
X45198590Y-57086211D01*
X45198590Y-57086209D01*
X45132703Y-56972090D01*
X45132701Y-56972088D01*
X45132700Y-56972086D01*
X45039514Y-56878900D01*
X45039511Y-56878898D01*
X45039509Y-56878896D01*
X44925389Y-56813009D01*
X44925391Y-56813009D01*
X44875999Y-56799775D01*
X44798092Y-56778900D01*
X44666308Y-56778900D01*
X44588400Y-56799775D01*
X44539009Y-56813009D01*
X44424890Y-56878896D01*
X44331696Y-56972090D01*
X44265809Y-57086209D01*
X44231700Y-57213509D01*
X44231700Y-57278565D01*
X44212793Y-57336756D01*
X44202704Y-57348569D01*
X41519769Y-60031504D01*
X41465252Y-60059281D01*
X41449765Y-60060500D01*
X39370722Y-60060500D01*
X39312531Y-60041593D01*
X39300719Y-60031504D01*
X39254715Y-59985500D01*
X39254709Y-59985496D01*
X39140589Y-59919609D01*
X39140591Y-59919609D01*
X39091199Y-59906375D01*
X39013292Y-59885500D01*
X38881508Y-59885500D01*
X38803600Y-59906375D01*
X38754209Y-59919609D01*
X38640090Y-59985496D01*
X38546896Y-60078690D01*
X38481009Y-60192809D01*
X38481008Y-60192814D01*
X38446900Y-60320108D01*
X36555500Y-60320108D01*
X36521392Y-60192814D01*
X36521390Y-60192811D01*
X36521390Y-60192809D01*
X36455503Y-60078690D01*
X36455501Y-60078688D01*
X36455500Y-60078686D01*
X36362314Y-59985500D01*
X36362311Y-59985498D01*
X36362309Y-59985496D01*
X36248189Y-59919609D01*
X36248191Y-59919609D01*
X36198799Y-59906375D01*
X36120892Y-59885500D01*
X35989108Y-59885500D01*
X35911200Y-59906375D01*
X35861809Y-59919609D01*
X35747690Y-59985496D01*
X35747684Y-59985500D01*
X35701681Y-60031504D01*
X35647164Y-60059281D01*
X35631678Y-60060500D01*
X32869022Y-60060500D01*
X32810831Y-60041593D01*
X32799019Y-60031504D01*
X32753015Y-59985500D01*
X32753009Y-59985496D01*
X32638889Y-59919609D01*
X32638891Y-59919609D01*
X32589499Y-59906375D01*
X32511592Y-59885500D01*
X32379808Y-59885500D01*
X32301900Y-59906375D01*
X32252509Y-59919609D01*
X32138390Y-59985496D01*
X32045196Y-60078690D01*
X31979309Y-60192809D01*
X31979308Y-60192814D01*
X31945200Y-60320108D01*
X5721346Y-60320108D01*
X5668620Y-60192814D01*
X5663227Y-60179795D01*
X5663226Y-60179794D01*
X5663224Y-60179788D01*
X5541936Y-59969711D01*
X5541933Y-59969707D01*
X5394270Y-59777268D01*
X5394268Y-59777266D01*
X5394265Y-59777262D01*
X5222738Y-59605735D01*
X5222733Y-59605731D01*
X5222731Y-59605729D01*
X5030292Y-59458066D01*
X5030289Y-59458064D01*
X4820212Y-59336776D01*
X4820208Y-59336774D01*
X4820204Y-59336772D01*
X4596105Y-59243948D01*
X4596104Y-59243947D01*
X4596100Y-59243946D01*
X4361789Y-59181162D01*
X4361786Y-59181161D01*
X4361784Y-59181161D01*
X4121289Y-59149500D01*
X4121288Y-59149500D01*
X3878712Y-59149500D01*
X3878710Y-59149500D01*
X3638218Y-59181161D01*
X3638213Y-59181161D01*
X3403907Y-59243944D01*
X3403894Y-59243948D01*
X3179795Y-59336772D01*
X2969707Y-59458066D01*
X2777268Y-59605729D01*
X2605729Y-59777268D01*
X2458066Y-59969707D01*
X2336772Y-60179795D01*
X2243948Y-60403894D01*
X2243944Y-60403907D01*
X2181161Y-60638213D01*
X2181161Y-60638218D01*
X2149500Y-60878710D01*
X500500Y-60878710D01*
X500500Y-46932706D01*
X519407Y-46874515D01*
X568907Y-46838551D01*
X630093Y-46838551D01*
X671270Y-46868236D01*
X672604Y-46866903D01*
X677847Y-46872146D01*
X677850Y-46872150D01*
X677853Y-46872152D01*
X677855Y-46872154D01*
X787116Y-46952792D01*
X787117Y-46952792D01*
X787118Y-46952793D01*
X915301Y-46997646D01*
X945725Y-47000499D01*
X945727Y-47000500D01*
X945734Y-47000500D01*
X2140948Y-47000500D01*
X2199139Y-47019407D01*
X2210950Y-47029495D01*
X4755648Y-49574105D01*
X4755649Y-49574107D01*
X4755650Y-49574107D01*
X4767073Y-49585530D01*
X4767071Y-49585531D01*
X4767078Y-49585535D01*
X5085710Y-49904224D01*
X5113483Y-49958742D01*
X5114700Y-49974220D01*
X5114700Y-53107106D01*
X5114700Y-53245094D01*
X5133977Y-53342007D01*
X5141620Y-53380427D01*
X5141620Y-53380429D01*
X5194423Y-53507908D01*
X5194424Y-53507910D01*
X5194425Y-53507911D01*
X5271086Y-53622643D01*
X8015757Y-56367314D01*
X8130489Y-56443975D01*
X8257972Y-56496780D01*
X8393306Y-56523700D01*
X8393307Y-56523700D01*
X11495793Y-56523700D01*
X11495794Y-56523700D01*
X11631128Y-56496780D01*
X11758611Y-56443975D01*
X11873343Y-56367314D01*
X12945456Y-55295199D01*
X12999971Y-55267424D01*
X13030945Y-55267424D01*
X13239775Y-55300500D01*
X13239778Y-55300500D01*
X13460225Y-55300500D01*
X13569086Y-55283257D01*
X13677951Y-55266015D01*
X13887606Y-55197895D01*
X14084022Y-55097815D01*
X14262365Y-54968242D01*
X14418242Y-54812365D01*
X14547815Y-54634022D01*
X14647895Y-54437606D01*
X14716015Y-54227951D01*
X14750500Y-54010222D01*
X14750500Y-53789778D01*
X14750500Y-53789774D01*
X14716015Y-53572051D01*
X14716015Y-53572049D01*
X14647895Y-53362394D01*
X14547815Y-53165978D01*
X14418242Y-52987635D01*
X14280608Y-52850001D01*
X14252833Y-52795487D01*
X14262404Y-52735055D01*
X14305669Y-52691790D01*
X14350614Y-52681000D01*
X16199335Y-52681000D01*
X16257526Y-52699907D01*
X16269339Y-52709996D01*
X17020504Y-53461161D01*
X17048281Y-53515678D01*
X17049500Y-53531165D01*
X17049500Y-54904265D01*
X17052353Y-54934694D01*
X17052353Y-54934696D01*
X17052354Y-54934698D01*
X17076851Y-55004707D01*
X17097208Y-55062885D01*
X17177845Y-55172144D01*
X17177847Y-55172146D01*
X17177850Y-55172150D01*
X17177853Y-55172152D01*
X17177855Y-55172154D01*
X17287114Y-55252791D01*
X17287116Y-55252791D01*
X17287118Y-55252793D01*
X17415302Y-55297646D01*
X17445735Y-55300500D01*
X18818834Y-55300499D01*
X18877025Y-55319406D01*
X18888838Y-55329495D01*
X19840686Y-56281342D01*
X19938258Y-56378914D01*
X20052982Y-56455571D01*
X20052986Y-56455573D01*
X20052989Y-56455575D01*
X20127666Y-56486507D01*
X20180471Y-56508380D01*
X20207387Y-56513733D01*
X20207390Y-56513735D01*
X20207391Y-56513734D01*
X20315807Y-56535300D01*
X20315808Y-56535300D01*
X32911793Y-56535300D01*
X32911794Y-56535300D01*
X33047128Y-56508380D01*
X33174611Y-56455575D01*
X33289343Y-56378914D01*
X36316161Y-53352096D01*
X36370678Y-53324319D01*
X36386165Y-53323100D01*
X55941435Y-53323100D01*
X55999626Y-53342007D01*
X56011439Y-53352096D01*
X56820504Y-54161161D01*
X56848281Y-54215678D01*
X56849500Y-54231165D01*
X56849500Y-55604265D01*
X56852353Y-55634694D01*
X56852353Y-55634696D01*
X56852354Y-55634698D01*
X56892243Y-55748697D01*
X56897208Y-55762885D01*
X56977845Y-55872144D01*
X56977847Y-55872146D01*
X56977850Y-55872150D01*
X56977853Y-55872152D01*
X56977855Y-55872154D01*
X57087114Y-55952791D01*
X57087116Y-55952791D01*
X57087118Y-55952793D01*
X57215302Y-55997646D01*
X57245735Y-56000500D01*
X59254264Y-56000499D01*
X59254265Y-56000499D01*
X59260350Y-55999928D01*
X59284698Y-55997646D01*
X59412882Y-55952793D01*
X59522150Y-55872150D01*
X59602793Y-55762882D01*
X59647646Y-55634698D01*
X59650500Y-55604265D01*
X59650499Y-54231163D01*
X59669406Y-54172973D01*
X59679489Y-54161166D01*
X64582413Y-49258243D01*
X64649465Y-49157894D01*
X64659075Y-49143511D01*
X64692472Y-49062884D01*
X64711880Y-49016029D01*
X64721131Y-48969520D01*
X64738800Y-48880693D01*
X64738800Y-48839500D01*
X64757707Y-48781309D01*
X64807207Y-48745345D01*
X64837800Y-48740500D01*
X68510692Y-48740500D01*
X68510693Y-48740500D01*
X68646028Y-48713580D01*
X68773511Y-48660775D01*
X68795498Y-48646083D01*
X68854385Y-48629475D01*
X68911789Y-48650652D01*
X68945783Y-48701525D01*
X68949500Y-48728399D01*
X68949500Y-50199135D01*
X68930593Y-50257326D01*
X68920504Y-50269139D01*
X65319139Y-53870504D01*
X65264622Y-53898281D01*
X65249135Y-53899500D01*
X63022613Y-53899500D01*
X62964422Y-53880593D01*
X62942522Y-53858693D01*
X62818242Y-53687635D01*
X62662365Y-53531758D01*
X62484022Y-53402185D01*
X62484021Y-53402184D01*
X62484019Y-53402183D01*
X62365917Y-53342007D01*
X62287606Y-53302105D01*
X62287602Y-53302104D01*
X62287599Y-53302102D01*
X62077948Y-53233984D01*
X61860225Y-53199500D01*
X61860222Y-53199500D01*
X61639778Y-53199500D01*
X61639775Y-53199500D01*
X61422051Y-53233984D01*
X61212400Y-53302102D01*
X61015980Y-53402183D01*
X60934804Y-53461161D01*
X60837635Y-53531758D01*
X60681758Y-53687635D01*
X60616971Y-53776806D01*
X60552183Y-53865980D01*
X60452102Y-54062400D01*
X60383984Y-54272051D01*
X60349500Y-54489774D01*
X60349500Y-54710225D01*
X60383984Y-54927948D01*
X60452102Y-55137599D01*
X60452104Y-55137602D01*
X60452105Y-55137606D01*
X60482824Y-55197895D01*
X60544737Y-55319406D01*
X60552185Y-55334022D01*
X60681758Y-55512365D01*
X60837635Y-55668242D01*
X61015978Y-55797815D01*
X61212394Y-55897895D01*
X61422049Y-55966015D01*
X61509140Y-55979809D01*
X61639775Y-56000500D01*
X61639778Y-56000500D01*
X61860225Y-56000500D01*
X61969086Y-55983257D01*
X62077951Y-55966015D01*
X62287606Y-55897895D01*
X62484022Y-55797815D01*
X62662365Y-55668242D01*
X62818242Y-55512365D01*
X62942521Y-55341307D01*
X62992020Y-55305345D01*
X63022613Y-55300500D01*
X65649293Y-55300500D01*
X65649294Y-55300500D01*
X65784628Y-55273580D01*
X65912111Y-55220775D01*
X66026843Y-55144114D01*
X70194114Y-50976843D01*
X70270775Y-50862111D01*
X70323580Y-50734628D01*
X70350500Y-50599294D01*
X70350500Y-50461306D01*
X70350500Y-41699500D01*
X70369407Y-41641309D01*
X70418907Y-41605345D01*
X70449500Y-41600500D01*
X72654273Y-41600500D01*
X72654276Y-41600500D01*
X72684702Y-41597647D01*
X72812884Y-41552794D01*
X72922151Y-41472151D01*
X73002794Y-41362884D01*
X73047647Y-41234702D01*
X73050500Y-41204276D01*
X73050500Y-35795724D01*
X73047647Y-35765298D01*
X73002794Y-35637116D01*
X72995766Y-35627593D01*
X72922155Y-35527853D01*
X72922146Y-35527844D01*
X72812885Y-35447206D01*
X72684706Y-35402354D01*
X72684705Y-35402353D01*
X72665932Y-35400593D01*
X72654276Y-35399500D01*
X66645724Y-35399500D01*
X66634068Y-35400593D01*
X66615294Y-35402353D01*
X66615293Y-35402354D01*
X66487114Y-35447206D01*
X66377853Y-35527844D01*
X66377844Y-35527853D01*
X66297206Y-35637114D01*
X66252354Y-35765293D01*
X66252353Y-35765294D01*
X66249500Y-35795726D01*
X66249500Y-37700500D01*
X66230593Y-37758691D01*
X66181093Y-37794655D01*
X66150500Y-37799500D01*
X64516314Y-37799500D01*
X64458123Y-37780593D01*
X64457526Y-37780155D01*
X64412883Y-37747207D01*
X64284703Y-37702355D01*
X64284694Y-37702353D01*
X64254274Y-37699500D01*
X64254266Y-37699500D01*
X63479740Y-37699500D01*
X63441855Y-37691964D01*
X63404328Y-37676420D01*
X63268996Y-37649500D01*
X63268994Y-37649500D01*
X63268993Y-37649500D01*
X60849500Y-37649500D01*
X60791309Y-37630593D01*
X60755345Y-37581093D01*
X60750500Y-37550500D01*
X60750500Y-36895727D01*
X60750499Y-36895725D01*
X60747646Y-36865305D01*
X60747646Y-36865301D01*
X60702793Y-36737118D01*
X60695447Y-36727165D01*
X60622154Y-36627855D01*
X60622152Y-36627853D01*
X60622150Y-36627850D01*
X60622146Y-36627847D01*
X60622144Y-36627845D01*
X60512883Y-36547207D01*
X60384703Y-36502355D01*
X60384694Y-36502353D01*
X60354274Y-36499500D01*
X60354266Y-36499500D01*
X58245734Y-36499500D01*
X58245725Y-36499500D01*
X58215305Y-36502353D01*
X58215296Y-36502355D01*
X58087116Y-36547207D01*
X57977855Y-36627845D01*
X57977845Y-36627855D01*
X57897207Y-36737116D01*
X57852355Y-36865296D01*
X57852353Y-36865305D01*
X57849500Y-36895725D01*
X57849500Y-39804274D01*
X57852353Y-39834694D01*
X57852355Y-39834703D01*
X57897207Y-39962883D01*
X57977845Y-40072144D01*
X57977847Y-40072146D01*
X57977850Y-40072150D01*
X57977853Y-40072152D01*
X57977855Y-40072154D01*
X58087116Y-40152792D01*
X58087117Y-40152792D01*
X58087118Y-40152793D01*
X58215301Y-40197646D01*
X58245725Y-40200499D01*
X58245727Y-40200500D01*
X58245734Y-40200500D01*
X60354273Y-40200500D01*
X60354273Y-40200499D01*
X60384699Y-40197646D01*
X60512882Y-40152793D01*
X60622150Y-40072150D01*
X60702793Y-39962882D01*
X60747646Y-39834699D01*
X60750499Y-39804273D01*
X60750500Y-39804273D01*
X60750500Y-39149500D01*
X60769407Y-39091309D01*
X60818907Y-39055345D01*
X60849500Y-39050500D01*
X62038091Y-39050500D01*
X62096282Y-39069407D01*
X62117746Y-39090712D01*
X62177846Y-39172145D01*
X62177850Y-39172150D01*
X62177853Y-39172152D01*
X62177855Y-39172154D01*
X62287116Y-39252792D01*
X62287117Y-39252792D01*
X62287118Y-39252793D01*
X62415301Y-39297646D01*
X62445725Y-39300499D01*
X62445727Y-39300500D01*
X62445734Y-39300500D01*
X64254273Y-39300500D01*
X64254273Y-39300499D01*
X64284699Y-39297646D01*
X64412882Y-39252793D01*
X64427494Y-39242008D01*
X64457526Y-39219845D01*
X64515574Y-39200503D01*
X64516314Y-39200500D01*
X66150500Y-39200500D01*
X66208691Y-39219407D01*
X66244655Y-39268907D01*
X66249500Y-39299500D01*
X66249500Y-41204273D01*
X66252353Y-41234705D01*
X66252354Y-41234706D01*
X66297206Y-41362885D01*
X66377844Y-41472146D01*
X66377853Y-41472155D01*
X66487114Y-41552793D01*
X66487115Y-41552793D01*
X66487116Y-41552794D01*
X66615293Y-41597645D01*
X66615294Y-41597646D01*
X66615295Y-41597646D01*
X66615298Y-41597647D01*
X66645724Y-41600500D01*
X68850500Y-41600500D01*
X68908691Y-41619407D01*
X68944655Y-41668907D01*
X68949500Y-41699500D01*
X68949500Y-44811600D01*
X68930593Y-44869791D01*
X68881093Y-44905755D01*
X68819907Y-44905755D01*
X68795499Y-44893916D01*
X68773516Y-44879227D01*
X68773506Y-44879222D01*
X68646028Y-44826420D01*
X68510695Y-44799500D01*
X68510693Y-44799500D01*
X67759748Y-44799500D01*
X66308993Y-44799500D01*
X64594865Y-44799500D01*
X64536674Y-44780593D01*
X64524861Y-44770504D01*
X64078623Y-44324266D01*
X63508543Y-43754186D01*
X63393811Y-43677525D01*
X63393810Y-43677524D01*
X63393808Y-43677523D01*
X63266328Y-43624720D01*
X63130996Y-43597800D01*
X63130994Y-43597800D01*
X63130993Y-43597800D01*
X58779465Y-43597800D01*
X58721274Y-43578893D01*
X58709461Y-43568804D01*
X53979496Y-38838839D01*
X53951719Y-38784322D01*
X53950500Y-38768835D01*
X53950500Y-36895727D01*
X53950499Y-36895725D01*
X53947646Y-36865305D01*
X53947646Y-36865301D01*
X53902793Y-36737118D01*
X53895447Y-36727165D01*
X53822154Y-36627855D01*
X53822152Y-36627853D01*
X53822150Y-36627850D01*
X53822146Y-36627847D01*
X53822144Y-36627845D01*
X53712883Y-36547207D01*
X53584703Y-36502355D01*
X53584694Y-36502353D01*
X53554274Y-36499500D01*
X53554266Y-36499500D01*
X51445734Y-36499500D01*
X51445725Y-36499500D01*
X51415305Y-36502353D01*
X51415296Y-36502355D01*
X51287116Y-36547207D01*
X51177855Y-36627845D01*
X51177845Y-36627855D01*
X51097207Y-36737116D01*
X51052355Y-36865296D01*
X51052353Y-36865305D01*
X51049500Y-36895725D01*
X51049500Y-39804274D01*
X51052353Y-39834694D01*
X51052355Y-39834703D01*
X51097207Y-39962883D01*
X51177845Y-40072144D01*
X51177847Y-40072146D01*
X51177850Y-40072150D01*
X51177853Y-40072152D01*
X51177855Y-40072154D01*
X51287116Y-40152792D01*
X51287117Y-40152792D01*
X51287118Y-40152793D01*
X51415301Y-40197646D01*
X51445725Y-40200499D01*
X51445727Y-40200500D01*
X51445734Y-40200500D01*
X53318835Y-40200500D01*
X53377026Y-40219407D01*
X53388839Y-40229496D01*
X58001757Y-44842414D01*
X58052651Y-44876420D01*
X58116489Y-44919075D01*
X58243972Y-44971880D01*
X58379307Y-44998800D01*
X62730835Y-44998800D01*
X62789026Y-45017707D01*
X62800839Y-45027796D01*
X63315513Y-45542470D01*
X63342607Y-45593160D01*
X63364720Y-45704327D01*
X63364720Y-45704329D01*
X63417522Y-45831806D01*
X63417528Y-45831817D01*
X63494185Y-45946541D01*
X63591758Y-46044114D01*
X63706482Y-46120771D01*
X63706493Y-46120777D01*
X63753583Y-46140282D01*
X63833972Y-46173580D01*
X63969307Y-46200500D01*
X64107293Y-46200500D01*
X64720252Y-46200500D01*
X66171007Y-46200500D01*
X67642200Y-46200500D01*
X67700391Y-46219407D01*
X67736355Y-46268907D01*
X67741200Y-46299500D01*
X67741200Y-47240500D01*
X67722293Y-47298691D01*
X67672793Y-47334655D01*
X67642200Y-47339500D01*
X63969304Y-47339500D01*
X63833972Y-47366420D01*
X63833970Y-47366420D01*
X63706493Y-47419222D01*
X63706482Y-47419228D01*
X63591758Y-47495885D01*
X63494185Y-47593458D01*
X63417528Y-47708182D01*
X63417522Y-47708193D01*
X63364720Y-47835670D01*
X63364720Y-47835672D01*
X63337800Y-47971004D01*
X63337800Y-48480534D01*
X63318893Y-48538725D01*
X63308804Y-48550538D01*
X58688838Y-53170504D01*
X58634321Y-53198281D01*
X58618834Y-53199500D01*
X57881165Y-53199500D01*
X57822974Y-53180593D01*
X57811161Y-53170504D01*
X57268043Y-52627386D01*
X56719143Y-52078486D01*
X56719131Y-52078478D01*
X56604408Y-52001823D01*
X56476928Y-51949020D01*
X56341596Y-51922100D01*
X56341594Y-51922100D01*
X56341593Y-51922100D01*
X50099000Y-51922100D01*
X50040809Y-51903193D01*
X50004845Y-51853693D01*
X50000000Y-51823100D01*
X50000000Y-42900001D01*
X50000000Y-42900000D01*
X49999999Y-42900000D01*
X49539434Y-42900000D01*
X49481243Y-42881093D01*
X49445279Y-42831593D01*
X49440910Y-42810700D01*
X49440500Y-42806542D01*
X49440500Y-42806535D01*
X49400130Y-42603580D01*
X49320941Y-42412402D01*
X49205977Y-42240345D01*
X49059655Y-42094023D01*
X49059651Y-42094020D01*
X48887597Y-41979058D01*
X48696418Y-41899869D01*
X48493467Y-41859500D01*
X48493465Y-41859500D01*
X48286535Y-41859500D01*
X48286532Y-41859500D01*
X48083581Y-41899869D01*
X47892402Y-41979058D01*
X47720348Y-42094020D01*
X47574020Y-42240348D01*
X47459058Y-42412402D01*
X47379869Y-42603581D01*
X47339500Y-42806532D01*
X47339090Y-42810700D01*
X47314572Y-42866758D01*
X47261786Y-42897699D01*
X47240566Y-42900000D01*
X31759434Y-42900000D01*
X31701243Y-42881093D01*
X31665279Y-42831593D01*
X31660910Y-42810700D01*
X31660500Y-42806542D01*
X31660500Y-42806535D01*
X31620130Y-42603580D01*
X31540941Y-42412402D01*
X31425977Y-42240345D01*
X31279655Y-42094023D01*
X31279651Y-42094020D01*
X31107597Y-41979058D01*
X30916418Y-41899869D01*
X30713467Y-41859500D01*
X30713465Y-41859500D01*
X30506535Y-41859500D01*
X30506532Y-41859500D01*
X30303581Y-41899869D01*
X30112402Y-41979058D01*
X29940348Y-42094020D01*
X29794020Y-42240348D01*
X29679058Y-42412402D01*
X29599869Y-42603581D01*
X29559500Y-42806532D01*
X29559090Y-42810700D01*
X29534572Y-42866758D01*
X29481786Y-42897699D01*
X29460566Y-42900000D01*
X29000000Y-42900000D01*
X29000000Y-51900000D01*
X29000001Y-51900000D01*
X35549256Y-51900000D01*
X35607447Y-51918907D01*
X35643411Y-51968407D01*
X35643411Y-52029593D01*
X35612063Y-52075526D01*
X35608465Y-52078478D01*
X32581639Y-55105304D01*
X32527122Y-55133081D01*
X32511635Y-55134300D01*
X22935314Y-55134300D01*
X22877123Y-55115393D01*
X22841159Y-55065893D01*
X22841159Y-55004707D01*
X22865308Y-54965298D01*
X23018242Y-54812365D01*
X23147815Y-54634022D01*
X23247895Y-54437606D01*
X23316015Y-54227951D01*
X23350500Y-54010222D01*
X23350500Y-53789778D01*
X23350500Y-53789774D01*
X23316015Y-53572051D01*
X23316015Y-53572049D01*
X23247895Y-53362394D01*
X23147815Y-53165978D01*
X23018242Y-52987635D01*
X22862365Y-52831758D01*
X22833234Y-52810593D01*
X22691309Y-52707478D01*
X22655345Y-52657978D01*
X22650500Y-52627386D01*
X22650500Y-49399500D01*
X22669407Y-49341309D01*
X22718907Y-49305345D01*
X22749500Y-49300500D01*
X22854273Y-49300500D01*
X22854276Y-49300500D01*
X22884702Y-49297647D01*
X23012884Y-49252794D01*
X23122151Y-49172151D01*
X23143289Y-49143511D01*
X23202793Y-49062885D01*
X23202794Y-49062884D01*
X23219189Y-49016029D01*
X23247647Y-48934702D01*
X23250500Y-48904276D01*
X23250500Y-43495724D01*
X23247647Y-43465298D01*
X23202794Y-43337116D01*
X23170658Y-43293573D01*
X23122155Y-43227853D01*
X23122146Y-43227844D01*
X23012885Y-43147206D01*
X22884706Y-43102354D01*
X22884705Y-43102353D01*
X22865932Y-43100593D01*
X22854276Y-43099500D01*
X22854273Y-43099500D01*
X21299500Y-43099500D01*
X21241309Y-43080593D01*
X21205345Y-43031093D01*
X21200500Y-43000500D01*
X21200500Y-40699500D01*
X21219407Y-40641309D01*
X21268907Y-40605345D01*
X21299500Y-40600500D01*
X21554273Y-40600500D01*
X21554273Y-40600499D01*
X21584699Y-40597646D01*
X21712882Y-40552793D01*
X21822150Y-40472150D01*
X21902793Y-40362882D01*
X21936507Y-40266532D01*
X29559500Y-40266532D01*
X29559500Y-40473467D01*
X29599869Y-40676418D01*
X29679058Y-40867597D01*
X29679059Y-40867598D01*
X29794023Y-41039655D01*
X29940345Y-41185977D01*
X30112402Y-41300941D01*
X30303580Y-41380130D01*
X30506535Y-41420500D01*
X30506536Y-41420500D01*
X30713464Y-41420500D01*
X30713465Y-41420500D01*
X30916420Y-41380130D01*
X31107598Y-41300941D01*
X31279655Y-41185977D01*
X31425977Y-41039655D01*
X31540941Y-40867598D01*
X31620130Y-40676420D01*
X31660500Y-40473465D01*
X31660500Y-40266535D01*
X31660499Y-40266532D01*
X47339500Y-40266532D01*
X47339500Y-40473467D01*
X47379869Y-40676418D01*
X47459058Y-40867597D01*
X47459059Y-40867598D01*
X47574023Y-41039655D01*
X47720345Y-41185977D01*
X47892402Y-41300941D01*
X48083580Y-41380130D01*
X48286535Y-41420500D01*
X48286536Y-41420500D01*
X48493464Y-41420500D01*
X48493465Y-41420500D01*
X48696420Y-41380130D01*
X48887598Y-41300941D01*
X49059655Y-41185977D01*
X49205977Y-41039655D01*
X49320941Y-40867598D01*
X49400130Y-40676420D01*
X49440500Y-40473465D01*
X49440500Y-40266535D01*
X49400130Y-40063580D01*
X49320941Y-39872402D01*
X49205977Y-39700345D01*
X49059655Y-39554023D01*
X48887598Y-39439059D01*
X48887599Y-39439059D01*
X48887597Y-39439058D01*
X48696418Y-39359869D01*
X48493467Y-39319500D01*
X48493465Y-39319500D01*
X48286535Y-39319500D01*
X48286532Y-39319500D01*
X48083581Y-39359869D01*
X47892402Y-39439058D01*
X47720348Y-39554020D01*
X47574020Y-39700348D01*
X47459058Y-39872402D01*
X47379869Y-40063581D01*
X47339500Y-40266532D01*
X31660499Y-40266532D01*
X31620130Y-40063580D01*
X31540941Y-39872402D01*
X31425977Y-39700345D01*
X31279655Y-39554023D01*
X31107598Y-39439059D01*
X31107599Y-39439059D01*
X31107597Y-39439058D01*
X30916418Y-39359869D01*
X30713467Y-39319500D01*
X30713465Y-39319500D01*
X30506535Y-39319500D01*
X30506532Y-39319500D01*
X30303581Y-39359869D01*
X30112402Y-39439058D01*
X29940348Y-39554020D01*
X29794020Y-39700348D01*
X29679058Y-39872402D01*
X29599869Y-40063581D01*
X29559500Y-40266532D01*
X21936507Y-40266532D01*
X21947646Y-40234699D01*
X21950499Y-40204273D01*
X21950500Y-40204273D01*
X21950500Y-37295727D01*
X21950499Y-37295725D01*
X21947646Y-37265305D01*
X21947646Y-37265301D01*
X21902793Y-37137118D01*
X21901316Y-37135117D01*
X21822154Y-37027855D01*
X21822152Y-37027853D01*
X21822150Y-37027850D01*
X21822146Y-37027847D01*
X21822144Y-37027845D01*
X21712883Y-36947207D01*
X21584703Y-36902355D01*
X21584694Y-36902353D01*
X21554274Y-36899500D01*
X21554266Y-36899500D01*
X19445734Y-36899500D01*
X19445725Y-36899500D01*
X19415305Y-36902353D01*
X19415296Y-36902355D01*
X19287116Y-36947207D01*
X19177855Y-37027845D01*
X19177845Y-37027855D01*
X19097207Y-37137116D01*
X19052355Y-37265296D01*
X19052353Y-37265305D01*
X19049500Y-37295725D01*
X19049500Y-40204274D01*
X19052353Y-40234694D01*
X19052355Y-40234703D01*
X19097207Y-40362883D01*
X19177845Y-40472144D01*
X19177847Y-40472146D01*
X19177850Y-40472150D01*
X19177853Y-40472152D01*
X19177855Y-40472154D01*
X19287116Y-40552792D01*
X19287117Y-40552792D01*
X19287118Y-40552793D01*
X19415301Y-40597646D01*
X19445725Y-40600499D01*
X19445727Y-40600500D01*
X19445734Y-40600500D01*
X19700500Y-40600500D01*
X19758691Y-40619407D01*
X19794655Y-40668907D01*
X19799500Y-40699500D01*
X19799500Y-43000500D01*
X19780593Y-43058691D01*
X19731093Y-43094655D01*
X19700500Y-43099500D01*
X16845724Y-43099500D01*
X16834068Y-43100593D01*
X16815294Y-43102353D01*
X16815293Y-43102354D01*
X16687114Y-43147206D01*
X16577853Y-43227844D01*
X16577844Y-43227853D01*
X16497206Y-43337114D01*
X16452354Y-43465293D01*
X16452353Y-43465294D01*
X16449500Y-43495726D01*
X16449500Y-45400500D01*
X16430593Y-45458691D01*
X16381093Y-45494655D01*
X16350500Y-45499500D01*
X14716314Y-45499500D01*
X14658123Y-45480593D01*
X14657526Y-45480155D01*
X14612883Y-45447207D01*
X14484703Y-45402355D01*
X14484694Y-45402353D01*
X14454274Y-45399500D01*
X14454266Y-45399500D01*
X12645734Y-45399500D01*
X12645725Y-45399500D01*
X12615305Y-45402353D01*
X12615296Y-45402355D01*
X12487116Y-45447207D01*
X12377855Y-45527845D01*
X12377845Y-45527855D01*
X12297207Y-45637116D01*
X12252355Y-45765296D01*
X12252353Y-45765305D01*
X12249500Y-45795725D01*
X12249500Y-46604274D01*
X12252353Y-46634694D01*
X12252355Y-46634703D01*
X12297207Y-46762883D01*
X12377845Y-46872144D01*
X12377847Y-46872146D01*
X12377850Y-46872150D01*
X12377853Y-46872152D01*
X12377855Y-46872154D01*
X12487116Y-46952792D01*
X12487117Y-46952792D01*
X12487118Y-46952793D01*
X12615301Y-46997646D01*
X12645725Y-47000499D01*
X12645727Y-47000500D01*
X12645734Y-47000500D01*
X14454273Y-47000500D01*
X14454273Y-47000499D01*
X14484699Y-46997646D01*
X14612882Y-46952793D01*
X14640099Y-46932706D01*
X14657526Y-46919845D01*
X14715574Y-46900503D01*
X14716314Y-46900500D01*
X16350500Y-46900500D01*
X16408691Y-46919407D01*
X16444655Y-46968907D01*
X16449500Y-46999500D01*
X16449500Y-48904273D01*
X16452353Y-48934705D01*
X16452354Y-48934706D01*
X16497206Y-49062884D01*
X16497206Y-49062885D01*
X16577844Y-49172146D01*
X16577853Y-49172155D01*
X16687114Y-49252793D01*
X16687115Y-49252793D01*
X16687116Y-49252794D01*
X16815293Y-49297645D01*
X16815294Y-49297646D01*
X16815295Y-49297646D01*
X16815298Y-49297647D01*
X16845724Y-49300500D01*
X21150500Y-49300500D01*
X21208691Y-49319407D01*
X21244655Y-49368907D01*
X21249500Y-49399500D01*
X21249500Y-52627386D01*
X21230593Y-52685577D01*
X21208691Y-52707478D01*
X21037638Y-52831755D01*
X21037635Y-52831758D01*
X20881758Y-52987635D01*
X20816971Y-53076806D01*
X20752183Y-53165980D01*
X20652102Y-53362400D01*
X20583984Y-53572051D01*
X20549500Y-53789774D01*
X20549500Y-54010225D01*
X20583984Y-54227948D01*
X20652102Y-54437599D01*
X20652104Y-54437602D01*
X20652105Y-54437606D01*
X20706736Y-54544825D01*
X20725033Y-54580735D01*
X20752185Y-54634022D01*
X20881758Y-54812365D01*
X21034691Y-54965298D01*
X21062467Y-55019813D01*
X21052896Y-55080245D01*
X21009631Y-55123510D01*
X20964686Y-55134300D01*
X20715964Y-55134300D01*
X20657773Y-55115393D01*
X20645960Y-55105304D01*
X19879495Y-54338839D01*
X19851718Y-54284322D01*
X19850499Y-54268835D01*
X19850499Y-52895734D01*
X19847646Y-52865305D01*
X19847646Y-52865302D01*
X19802793Y-52737118D01*
X19802791Y-52737116D01*
X19802791Y-52737114D01*
X19722154Y-52627855D01*
X19722152Y-52627853D01*
X19722150Y-52627850D01*
X19722146Y-52627847D01*
X19722144Y-52627845D01*
X19612885Y-52547208D01*
X19598697Y-52542243D01*
X19484698Y-52502354D01*
X19484696Y-52502353D01*
X19484694Y-52502353D01*
X19454273Y-52499500D01*
X19454265Y-52499500D01*
X18081165Y-52499500D01*
X18022974Y-52480593D01*
X18011161Y-52470504D01*
X17509064Y-51968407D01*
X16977043Y-51436386D01*
X16862311Y-51359725D01*
X16862310Y-51359724D01*
X16862308Y-51359723D01*
X16734828Y-51306920D01*
X16599496Y-51280000D01*
X16599494Y-51280000D01*
X16599493Y-51280000D01*
X11838494Y-51280000D01*
X11700506Y-51280000D01*
X11700503Y-51280000D01*
X11565172Y-51306920D01*
X11565170Y-51306920D01*
X11437691Y-51359723D01*
X11322960Y-51436383D01*
X10288838Y-52470504D01*
X10234321Y-52498281D01*
X10218834Y-52499500D01*
X8845734Y-52499500D01*
X8815305Y-52502353D01*
X8687114Y-52547208D01*
X8577855Y-52627845D01*
X8577845Y-52627855D01*
X8497208Y-52737114D01*
X8452353Y-52865305D01*
X8449500Y-52895726D01*
X8449500Y-54580735D01*
X8430593Y-54638926D01*
X8381093Y-54674890D01*
X8319907Y-54674890D01*
X8280496Y-54650739D01*
X6544696Y-52914939D01*
X6516919Y-52860422D01*
X6515700Y-52844935D01*
X6515700Y-49631665D01*
X6515700Y-49631660D01*
X6515705Y-49574169D01*
X6515703Y-49574162D01*
X6515700Y-49574122D01*
X6515700Y-49574107D01*
X6500978Y-49500098D01*
X6488798Y-49438832D01*
X6488794Y-49438822D01*
X6488782Y-49438783D01*
X6488780Y-49438772D01*
X6488745Y-49438687D01*
X6488206Y-49437385D01*
X6488150Y-49436679D01*
X6487340Y-49433982D01*
X6487816Y-49433838D01*
X6487767Y-49433637D01*
X6487745Y-49433523D01*
X6487899Y-49433493D01*
X6483406Y-49376388D01*
X6515375Y-49324219D01*
X6571903Y-49300805D01*
X6579670Y-49300500D01*
X11154273Y-49300500D01*
X11154276Y-49300500D01*
X11184702Y-49297647D01*
X11312884Y-49252794D01*
X11422151Y-49172151D01*
X11443289Y-49143511D01*
X11502793Y-49062885D01*
X11502794Y-49062884D01*
X11519189Y-49016029D01*
X11547647Y-48934702D01*
X11550500Y-48904276D01*
X11550500Y-43495724D01*
X11547647Y-43465298D01*
X11502794Y-43337116D01*
X11470658Y-43293573D01*
X11422155Y-43227853D01*
X11422146Y-43227844D01*
X11312885Y-43147206D01*
X11184706Y-43102354D01*
X11184705Y-43102353D01*
X11165932Y-43100593D01*
X11154276Y-43099500D01*
X11154273Y-43099500D01*
X9599500Y-43099500D01*
X9541309Y-43080593D01*
X9505345Y-43031093D01*
X9500500Y-43000500D01*
X9500500Y-40699500D01*
X9519407Y-40641309D01*
X9568907Y-40605345D01*
X9599500Y-40600500D01*
X9854273Y-40600500D01*
X9854273Y-40600499D01*
X9884699Y-40597646D01*
X10012882Y-40552793D01*
X10122150Y-40472150D01*
X10202793Y-40362882D01*
X10247646Y-40234699D01*
X10250499Y-40204273D01*
X10250500Y-40204273D01*
X10250500Y-37295727D01*
X10250499Y-37295725D01*
X10247646Y-37265305D01*
X10247646Y-37265301D01*
X10202793Y-37137118D01*
X10201316Y-37135117D01*
X10122154Y-37027855D01*
X10122152Y-37027853D01*
X10122150Y-37027850D01*
X10122146Y-37027847D01*
X10122144Y-37027845D01*
X10012883Y-36947207D01*
X9884703Y-36902355D01*
X9884694Y-36902353D01*
X9854274Y-36899500D01*
X9854266Y-36899500D01*
X8103135Y-36899500D01*
X8044944Y-36880593D01*
X8008980Y-36831093D01*
X8008980Y-36769907D01*
X8033131Y-36730496D01*
X9236630Y-35526996D01*
X9291147Y-35499219D01*
X9306634Y-35498000D01*
X13023165Y-35498000D01*
X13081356Y-35516907D01*
X13117320Y-35566407D01*
X13117320Y-35627593D01*
X13093169Y-35667004D01*
X11816634Y-36943539D01*
X11799745Y-36972792D01*
X11773782Y-37017761D01*
X11773782Y-37017762D01*
X11773779Y-37017767D01*
X11768284Y-37038280D01*
X11768284Y-37038282D01*
X11751600Y-37100547D01*
X11751600Y-42404247D01*
X11751600Y-42489953D01*
X11761905Y-42528411D01*
X11773783Y-42572743D01*
X11816631Y-42646957D01*
X11816632Y-42646958D01*
X11816633Y-42646959D01*
X11816635Y-42646962D01*
X12082123Y-42912450D01*
X12334453Y-43164780D01*
X12362230Y-43219297D01*
X12352659Y-43279729D01*
X12344105Y-43293571D01*
X12297207Y-43357116D01*
X12252355Y-43485296D01*
X12252353Y-43485305D01*
X12249500Y-43515725D01*
X12249500Y-44324274D01*
X12252353Y-44354694D01*
X12252355Y-44354703D01*
X12297207Y-44482883D01*
X12377845Y-44592144D01*
X12377847Y-44592146D01*
X12377850Y-44592150D01*
X12377853Y-44592152D01*
X12377855Y-44592154D01*
X12487116Y-44672792D01*
X12487117Y-44672792D01*
X12487118Y-44672793D01*
X12615301Y-44717646D01*
X12645725Y-44720499D01*
X12645727Y-44720500D01*
X12645734Y-44720500D01*
X14454273Y-44720500D01*
X14454273Y-44720499D01*
X14484699Y-44717646D01*
X14612882Y-44672793D01*
X14722150Y-44592150D01*
X14802793Y-44482882D01*
X14847646Y-44354699D01*
X14850499Y-44324273D01*
X14850500Y-44324273D01*
X14850500Y-43515727D01*
X14850499Y-43515725D01*
X14847646Y-43485301D01*
X14802793Y-43357118D01*
X14788029Y-43337114D01*
X14722154Y-43247855D01*
X14722152Y-43247853D01*
X14722150Y-43247850D01*
X14722146Y-43247847D01*
X14722144Y-43247845D01*
X14612883Y-43167207D01*
X14484703Y-43122355D01*
X14484694Y-43122353D01*
X14454274Y-43119500D01*
X14454266Y-43119500D01*
X13250835Y-43119500D01*
X13192644Y-43100593D01*
X13180831Y-43090504D01*
X13117726Y-43027399D01*
X13089949Y-42972882D01*
X13099520Y-42912450D01*
X13142785Y-42869185D01*
X13203217Y-42859614D01*
X13225612Y-42865930D01*
X13235872Y-42870180D01*
X13371206Y-42897100D01*
X13371207Y-42897100D01*
X13509193Y-42897100D01*
X13509194Y-42897100D01*
X13644528Y-42870180D01*
X13772011Y-42817375D01*
X13886743Y-42740714D01*
X14244114Y-42383343D01*
X14320775Y-42268611D01*
X14373580Y-42141128D01*
X14400500Y-42005794D01*
X14400500Y-41867806D01*
X14400500Y-40699500D01*
X14419407Y-40641309D01*
X14468907Y-40605345D01*
X14499500Y-40600500D01*
X14754273Y-40600500D01*
X14754273Y-40600499D01*
X14784699Y-40597646D01*
X14912882Y-40552793D01*
X15022150Y-40472150D01*
X15102793Y-40362882D01*
X15147646Y-40234699D01*
X15150499Y-40204273D01*
X15150500Y-40204273D01*
X15150500Y-37295727D01*
X15150499Y-37295725D01*
X15147646Y-37265305D01*
X15147646Y-37265301D01*
X15102793Y-37137118D01*
X15101316Y-37135117D01*
X15022154Y-37027855D01*
X15022152Y-37027853D01*
X15022150Y-37027850D01*
X15022146Y-37027847D01*
X15022144Y-37027845D01*
X14912883Y-36947207D01*
X14784703Y-36902355D01*
X14784694Y-36902353D01*
X14754274Y-36899500D01*
X14754266Y-36899500D01*
X13020335Y-36899500D01*
X12962144Y-36880593D01*
X12926180Y-36831093D01*
X12926180Y-36769907D01*
X12950331Y-36730496D01*
X13702131Y-35978696D01*
X13756648Y-35950919D01*
X13772135Y-35949700D01*
X14990152Y-35949700D01*
X14990153Y-35949700D01*
X14990153Y-35949699D01*
X14995112Y-35949047D01*
X15008035Y-35948200D01*
X23906565Y-35948200D01*
X23964756Y-35967107D01*
X23976569Y-35977196D01*
X24726538Y-36727165D01*
X24726540Y-36727166D01*
X24726541Y-36727167D01*
X24726542Y-36727168D01*
X24800757Y-36770016D01*
X24800755Y-36770016D01*
X24800759Y-36770017D01*
X24800761Y-36770018D01*
X24883547Y-36792200D01*
X24969253Y-36792200D01*
X29945967Y-36792200D01*
X30004158Y-36811107D01*
X30040122Y-36860607D01*
X30040122Y-36921793D01*
X30004158Y-36971293D01*
X30000968Y-36973516D01*
X29940348Y-37014020D01*
X29794020Y-37160348D01*
X29679058Y-37332402D01*
X29599869Y-37523581D01*
X29559500Y-37726532D01*
X29559500Y-37933467D01*
X29599869Y-38136418D01*
X29679058Y-38327597D01*
X29679059Y-38327598D01*
X29794023Y-38499655D01*
X29940345Y-38645977D01*
X30112402Y-38760941D01*
X30303580Y-38840130D01*
X30506535Y-38880500D01*
X30506536Y-38880500D01*
X30713464Y-38880500D01*
X30713465Y-38880500D01*
X30916420Y-38840130D01*
X31107598Y-38760941D01*
X31279655Y-38645977D01*
X31425977Y-38499655D01*
X31540941Y-38327598D01*
X31620130Y-38136420D01*
X31660500Y-37933465D01*
X31660500Y-37726535D01*
X31660499Y-37726532D01*
X47339500Y-37726532D01*
X47339500Y-37933467D01*
X47379869Y-38136418D01*
X47459058Y-38327597D01*
X47459059Y-38327598D01*
X47574023Y-38499655D01*
X47720345Y-38645977D01*
X47892402Y-38760941D01*
X48083580Y-38840130D01*
X48286535Y-38880500D01*
X48286536Y-38880500D01*
X48493464Y-38880500D01*
X48493465Y-38880500D01*
X48696420Y-38840130D01*
X48887598Y-38760941D01*
X49059655Y-38645977D01*
X49205977Y-38499655D01*
X49320941Y-38327598D01*
X49400130Y-38136420D01*
X49440500Y-37933465D01*
X49440500Y-37726535D01*
X49400130Y-37523580D01*
X49320941Y-37332402D01*
X49205977Y-37160345D01*
X49059655Y-37014023D01*
X48997950Y-36972793D01*
X48887597Y-36899058D01*
X48696418Y-36819869D01*
X48493467Y-36779500D01*
X48493465Y-36779500D01*
X48286535Y-36779500D01*
X48286532Y-36779500D01*
X48083581Y-36819869D01*
X47892402Y-36899058D01*
X47720348Y-37014020D01*
X47574020Y-37160348D01*
X47459058Y-37332402D01*
X47379869Y-37523581D01*
X47339500Y-37726532D01*
X31660499Y-37726532D01*
X31620130Y-37523580D01*
X31540941Y-37332402D01*
X31425977Y-37160345D01*
X31279655Y-37014023D01*
X31219032Y-36973516D01*
X31181152Y-36925466D01*
X31178750Y-36864328D01*
X31212743Y-36813454D01*
X31270146Y-36792276D01*
X31274033Y-36792200D01*
X34159865Y-36792200D01*
X34218056Y-36811107D01*
X34229869Y-36821196D01*
X34440335Y-37031662D01*
X34440334Y-37031662D01*
X34500935Y-37092262D01*
X34500938Y-37092265D01*
X34575162Y-37135118D01*
X34657947Y-37157300D01*
X34657949Y-37157300D01*
X36411051Y-37157300D01*
X36411053Y-37157300D01*
X36493839Y-37135118D01*
X36493841Y-37135116D01*
X36493843Y-37135116D01*
X36568057Y-37092268D01*
X36568057Y-37092267D01*
X36568062Y-37092265D01*
X36980829Y-36679496D01*
X37035346Y-36651719D01*
X37050833Y-36650500D01*
X37854273Y-36650500D01*
X37854273Y-36650499D01*
X37884699Y-36647646D01*
X38012882Y-36602793D01*
X38122150Y-36522150D01*
X38202793Y-36412882D01*
X38247646Y-36284699D01*
X38250499Y-36254273D01*
X38250500Y-36254273D01*
X38250500Y-36174500D01*
X38269407Y-36116309D01*
X38318907Y-36080345D01*
X38349500Y-36075500D01*
X38850500Y-36075500D01*
X38908691Y-36094407D01*
X38944655Y-36143907D01*
X38949500Y-36174500D01*
X38949500Y-36254274D01*
X38952353Y-36284694D01*
X38952355Y-36284703D01*
X38997207Y-36412883D01*
X39077845Y-36522144D01*
X39077847Y-36522146D01*
X39077850Y-36522150D01*
X39077853Y-36522152D01*
X39077855Y-36522154D01*
X39187116Y-36602792D01*
X39187117Y-36602792D01*
X39187118Y-36602793D01*
X39315301Y-36647646D01*
X39345725Y-36650499D01*
X39345727Y-36650500D01*
X39345734Y-36650500D01*
X40154273Y-36650500D01*
X40154273Y-36650499D01*
X40184699Y-36647646D01*
X40312882Y-36602793D01*
X40422150Y-36522150D01*
X40502793Y-36412882D01*
X40547646Y-36284699D01*
X40550499Y-36254273D01*
X40550500Y-36254273D01*
X40550500Y-35245727D01*
X40550499Y-35245725D01*
X40548499Y-35224400D01*
X40547646Y-35215301D01*
X40543068Y-35202219D01*
X40537579Y-35186532D01*
X47339500Y-35186532D01*
X47339500Y-35393467D01*
X47379869Y-35596418D01*
X47459058Y-35787597D01*
X47566369Y-35948200D01*
X47574023Y-35959655D01*
X47720345Y-36105977D01*
X47892402Y-36220941D01*
X48083580Y-36300130D01*
X48286535Y-36340500D01*
X48286536Y-36340500D01*
X48493464Y-36340500D01*
X48493465Y-36340500D01*
X48696420Y-36300130D01*
X48887598Y-36220941D01*
X49059655Y-36105977D01*
X49205977Y-35959655D01*
X49320941Y-35787598D01*
X49400130Y-35596420D01*
X49440500Y-35393465D01*
X49440500Y-35186535D01*
X49400130Y-34983580D01*
X49320941Y-34792402D01*
X49205977Y-34620345D01*
X49059655Y-34474023D01*
X49059651Y-34474020D01*
X48887597Y-34359058D01*
X48696418Y-34279869D01*
X48493467Y-34239500D01*
X48493465Y-34239500D01*
X48286535Y-34239500D01*
X48286532Y-34239500D01*
X48083581Y-34279869D01*
X47892402Y-34359058D01*
X47720348Y-34474020D01*
X47574020Y-34620348D01*
X47459058Y-34792402D01*
X47379869Y-34983581D01*
X47339500Y-35186532D01*
X40537579Y-35186532D01*
X40502792Y-35087116D01*
X40422154Y-34977855D01*
X40422152Y-34977853D01*
X40422150Y-34977850D01*
X40422146Y-34977847D01*
X40422144Y-34977845D01*
X40312883Y-34897207D01*
X40184703Y-34852355D01*
X40184694Y-34852353D01*
X40154274Y-34849500D01*
X40154266Y-34849500D01*
X39345734Y-34849500D01*
X39345725Y-34849500D01*
X39315305Y-34852353D01*
X39315296Y-34852355D01*
X39187116Y-34897207D01*
X39077855Y-34977845D01*
X39077845Y-34977855D01*
X38997207Y-35087116D01*
X38952355Y-35215296D01*
X38952353Y-35215305D01*
X38949500Y-35245725D01*
X38949500Y-35325500D01*
X38930593Y-35383691D01*
X38881093Y-35419655D01*
X38850500Y-35424500D01*
X38349500Y-35424500D01*
X38291309Y-35405593D01*
X38255345Y-35356093D01*
X38250500Y-35325500D01*
X38250500Y-35245727D01*
X38250499Y-35245725D01*
X38248499Y-35224400D01*
X38247646Y-35215301D01*
X38202793Y-35087118D01*
X38183545Y-35061038D01*
X38122154Y-34977855D01*
X38122152Y-34977853D01*
X38122150Y-34977850D01*
X38122146Y-34977847D01*
X38122144Y-34977845D01*
X38012883Y-34897207D01*
X37884703Y-34852355D01*
X37884694Y-34852353D01*
X37854274Y-34849500D01*
X37854266Y-34849500D01*
X37045734Y-34849500D01*
X37045725Y-34849500D01*
X37015305Y-34852353D01*
X37015296Y-34852355D01*
X36887116Y-34897207D01*
X36777855Y-34977845D01*
X36777845Y-34977855D01*
X36697207Y-35087116D01*
X36652355Y-35215296D01*
X36652353Y-35215305D01*
X36649500Y-35245725D01*
X36649500Y-36049165D01*
X36630593Y-36107356D01*
X36620504Y-36119169D01*
X36419504Y-36320169D01*
X36364987Y-36347946D01*
X36304555Y-36338375D01*
X36261290Y-36295110D01*
X36250500Y-36250165D01*
X36250500Y-35245727D01*
X36250499Y-35245725D01*
X36248499Y-35224400D01*
X36247646Y-35215301D01*
X36202793Y-35087118D01*
X36183545Y-35061038D01*
X36122154Y-34977855D01*
X36122152Y-34977853D01*
X36122150Y-34977850D01*
X36122146Y-34977847D01*
X36122144Y-34977845D01*
X36012883Y-34897207D01*
X35884703Y-34852355D01*
X35884694Y-34852353D01*
X35854274Y-34849500D01*
X35854266Y-34849500D01*
X35050835Y-34849500D01*
X34992644Y-34830593D01*
X34980831Y-34820504D01*
X34483644Y-34323317D01*
X33919862Y-33759535D01*
X33919859Y-33759533D01*
X33919858Y-33759532D01*
X33919857Y-33759531D01*
X33845642Y-33716683D01*
X33845644Y-33716683D01*
X33813521Y-33708076D01*
X33762853Y-33694500D01*
X33762851Y-33694500D01*
X33482021Y-33694500D01*
X33423830Y-33675593D01*
X33387866Y-33626093D01*
X33387866Y-33564907D01*
X33412019Y-33525495D01*
X33435920Y-33501595D01*
X33490437Y-33473819D01*
X33505922Y-33472600D01*
X34550500Y-33472600D01*
X34608691Y-33491507D01*
X34644655Y-33541007D01*
X34649500Y-33571600D01*
X34649500Y-33754273D01*
X34652353Y-33784693D01*
X34652355Y-33784702D01*
X34697207Y-33912882D01*
X34777845Y-34022143D01*
X34777847Y-34022145D01*
X34777850Y-34022149D01*
X34777853Y-34022151D01*
X34777855Y-34022153D01*
X34887116Y-34102791D01*
X34887117Y-34102791D01*
X34887118Y-34102792D01*
X35015301Y-34147645D01*
X35045725Y-34150498D01*
X35045727Y-34150499D01*
X35045734Y-34150499D01*
X35854273Y-34150499D01*
X35854273Y-34150498D01*
X35884699Y-34147645D01*
X36012882Y-34102792D01*
X36122150Y-34022149D01*
X36202793Y-33912881D01*
X36247646Y-33784698D01*
X36250499Y-33754272D01*
X36250500Y-33754272D01*
X36250500Y-32749835D01*
X36269407Y-32691644D01*
X36318907Y-32655680D01*
X36380093Y-32655680D01*
X36419504Y-32679831D01*
X36620504Y-32880831D01*
X36648281Y-32935348D01*
X36649500Y-32950835D01*
X36649500Y-33754273D01*
X36652353Y-33784693D01*
X36652355Y-33784702D01*
X36697207Y-33912882D01*
X36777845Y-34022143D01*
X36777847Y-34022145D01*
X36777850Y-34022149D01*
X36777853Y-34022151D01*
X36777855Y-34022153D01*
X36887116Y-34102791D01*
X36887117Y-34102791D01*
X36887118Y-34102792D01*
X37015301Y-34147645D01*
X37045725Y-34150498D01*
X37045727Y-34150499D01*
X37045734Y-34150499D01*
X37854273Y-34150499D01*
X37854273Y-34150498D01*
X37884699Y-34147645D01*
X38012882Y-34102792D01*
X38122150Y-34022149D01*
X38202793Y-33912881D01*
X38247646Y-33784698D01*
X38250499Y-33754272D01*
X38250500Y-33754272D01*
X38250500Y-33674500D01*
X38269407Y-33616309D01*
X38318907Y-33580345D01*
X38349500Y-33575500D01*
X38850500Y-33575500D01*
X38908691Y-33594407D01*
X38944655Y-33643907D01*
X38949500Y-33674500D01*
X38949500Y-33754273D01*
X38952353Y-33784693D01*
X38952355Y-33784702D01*
X38997207Y-33912882D01*
X39077845Y-34022143D01*
X39077847Y-34022145D01*
X39077850Y-34022149D01*
X39077853Y-34022151D01*
X39077855Y-34022153D01*
X39187116Y-34102791D01*
X39187117Y-34102791D01*
X39187118Y-34102792D01*
X39315301Y-34147645D01*
X39345725Y-34150498D01*
X39345727Y-34150499D01*
X39345734Y-34150499D01*
X40154273Y-34150499D01*
X40154273Y-34150498D01*
X40184699Y-34147645D01*
X40312882Y-34102792D01*
X40422150Y-34022149D01*
X40502793Y-33912881D01*
X40547646Y-33784698D01*
X40550499Y-33754272D01*
X40550500Y-33754272D01*
X40550500Y-32745726D01*
X40550499Y-32745724D01*
X40547646Y-32715300D01*
X40502793Y-32587117D01*
X40475941Y-32550734D01*
X40422154Y-32477854D01*
X40422152Y-32477852D01*
X40422150Y-32477849D01*
X40422146Y-32477846D01*
X40422144Y-32477844D01*
X40312883Y-32397206D01*
X40184703Y-32352354D01*
X40184694Y-32352352D01*
X40154274Y-32349499D01*
X40154266Y-32349499D01*
X39345734Y-32349499D01*
X39345725Y-32349499D01*
X39315305Y-32352352D01*
X39315296Y-32352354D01*
X39187116Y-32397206D01*
X39077855Y-32477844D01*
X39077845Y-32477854D01*
X38997207Y-32587115D01*
X38952355Y-32715295D01*
X38952353Y-32715304D01*
X38949500Y-32745724D01*
X38949500Y-32825500D01*
X38930593Y-32883691D01*
X38881093Y-32919655D01*
X38850500Y-32924500D01*
X38349500Y-32924500D01*
X38291309Y-32905593D01*
X38255345Y-32856093D01*
X38250500Y-32825500D01*
X38250500Y-32745726D01*
X38250499Y-32745724D01*
X38247646Y-32715300D01*
X38202793Y-32587117D01*
X38175941Y-32550734D01*
X38122154Y-32477854D01*
X38122152Y-32477852D01*
X38122150Y-32477849D01*
X38122146Y-32477846D01*
X38122144Y-32477844D01*
X38012883Y-32397206D01*
X37884703Y-32352354D01*
X37884694Y-32352352D01*
X37854274Y-32349499D01*
X37854266Y-32349499D01*
X37050834Y-32349499D01*
X36992643Y-32330592D01*
X36980830Y-32320503D01*
X36463119Y-31802792D01*
X35940562Y-31280235D01*
X35940559Y-31280233D01*
X35940558Y-31280232D01*
X35940557Y-31280231D01*
X35866342Y-31237383D01*
X35866344Y-31237383D01*
X35834221Y-31228776D01*
X35783553Y-31215200D01*
X35783551Y-31215200D01*
X34988529Y-31215200D01*
X34930338Y-31196293D01*
X34894374Y-31146793D01*
X34894374Y-31085607D01*
X34930338Y-31036107D01*
X34955828Y-31022756D01*
X35012882Y-31002793D01*
X35122150Y-30922150D01*
X35202793Y-30812882D01*
X35247646Y-30684699D01*
X35250499Y-30654273D01*
X35250500Y-30654273D01*
X35250500Y-29645727D01*
X35250499Y-29645725D01*
X35247646Y-29615305D01*
X35247646Y-29615301D01*
X35202793Y-29487118D01*
X35163962Y-29434504D01*
X35122154Y-29377855D01*
X35122152Y-29377853D01*
X35122150Y-29377850D01*
X35122146Y-29377847D01*
X35122144Y-29377845D01*
X35012883Y-29297207D01*
X34884703Y-29252355D01*
X34884694Y-29252353D01*
X34854274Y-29249500D01*
X34854266Y-29249500D01*
X34050835Y-29249500D01*
X33992644Y-29230593D01*
X33980831Y-29220504D01*
X33718119Y-28957792D01*
X33439862Y-28679535D01*
X33439859Y-28679533D01*
X33439858Y-28679532D01*
X33439857Y-28679531D01*
X33365642Y-28636683D01*
X33365644Y-28636683D01*
X33313109Y-28622607D01*
X33282853Y-28614500D01*
X33282851Y-28614500D01*
X31390139Y-28614500D01*
X31331948Y-28595593D01*
X31295984Y-28546093D01*
X31295984Y-28484907D01*
X31320133Y-28445498D01*
X31425977Y-28339655D01*
X31540941Y-28167598D01*
X31615413Y-27987808D01*
X35554500Y-27987808D01*
X35554500Y-28119592D01*
X35584516Y-28231616D01*
X35588609Y-28246890D01*
X35654496Y-28361009D01*
X35654498Y-28361011D01*
X35654500Y-28361014D01*
X35747686Y-28454200D01*
X35747688Y-28454201D01*
X35747690Y-28454203D01*
X35861810Y-28520090D01*
X35861808Y-28520090D01*
X35861812Y-28520091D01*
X35861814Y-28520092D01*
X35989108Y-28554200D01*
X36025500Y-28554200D01*
X36083691Y-28573107D01*
X36119655Y-28622607D01*
X36124500Y-28653200D01*
X36124500Y-29151962D01*
X36105593Y-29210153D01*
X36056093Y-29246117D01*
X36034748Y-29250529D01*
X36015304Y-29252353D01*
X36015296Y-29252355D01*
X35887116Y-29297207D01*
X35777855Y-29377845D01*
X35777845Y-29377855D01*
X35697207Y-29487116D01*
X35652355Y-29615296D01*
X35652353Y-29615305D01*
X35649500Y-29645725D01*
X35649500Y-30654274D01*
X35652353Y-30684694D01*
X35652355Y-30684703D01*
X35697207Y-30812883D01*
X35777845Y-30922144D01*
X35777847Y-30922146D01*
X35777850Y-30922150D01*
X35777853Y-30922152D01*
X35777855Y-30922154D01*
X35887116Y-31002792D01*
X35887117Y-31002792D01*
X35887118Y-31002793D01*
X36015301Y-31047646D01*
X36045725Y-31050499D01*
X36045727Y-31050500D01*
X36045734Y-31050500D01*
X36854273Y-31050500D01*
X36854273Y-31050499D01*
X36884699Y-31047646D01*
X37012882Y-31002793D01*
X37122150Y-30922150D01*
X37202793Y-30812882D01*
X37247646Y-30684699D01*
X37250499Y-30654273D01*
X37250500Y-30654273D01*
X37250500Y-30574500D01*
X37269407Y-30516309D01*
X37318907Y-30480345D01*
X37349500Y-30475500D01*
X37850500Y-30475500D01*
X37908691Y-30494407D01*
X37944655Y-30543907D01*
X37949500Y-30574500D01*
X37949500Y-30654274D01*
X37952353Y-30684694D01*
X37952355Y-30684703D01*
X37997207Y-30812883D01*
X38077845Y-30922144D01*
X38077847Y-30922146D01*
X38077850Y-30922150D01*
X38077853Y-30922152D01*
X38077855Y-30922154D01*
X38187116Y-31002792D01*
X38187117Y-31002792D01*
X38187118Y-31002793D01*
X38315301Y-31047646D01*
X38345725Y-31050499D01*
X38345727Y-31050500D01*
X38345734Y-31050500D01*
X39154273Y-31050500D01*
X39154273Y-31050499D01*
X39184699Y-31047646D01*
X39312882Y-31002793D01*
X39422150Y-30922150D01*
X39502793Y-30812882D01*
X39547646Y-30684699D01*
X39550499Y-30654273D01*
X39550500Y-30654273D01*
X39550500Y-30106532D01*
X47339500Y-30106532D01*
X47339500Y-30313467D01*
X47379869Y-30516418D01*
X47459058Y-30707597D01*
X47574020Y-30879651D01*
X47574023Y-30879655D01*
X47720345Y-31025977D01*
X47892402Y-31140941D01*
X48083580Y-31220130D01*
X48286535Y-31260500D01*
X48286536Y-31260500D01*
X48493464Y-31260500D01*
X48493465Y-31260500D01*
X48696420Y-31220130D01*
X48887598Y-31140941D01*
X49059655Y-31025977D01*
X49205977Y-30879655D01*
X49320941Y-30707598D01*
X49400130Y-30516420D01*
X49440500Y-30313465D01*
X49440500Y-30106535D01*
X49400130Y-29903580D01*
X49320941Y-29712402D01*
X49205977Y-29540345D01*
X49059655Y-29394023D01*
X49059582Y-29393974D01*
X48887597Y-29279058D01*
X48696418Y-29199869D01*
X48493467Y-29159500D01*
X48493465Y-29159500D01*
X48286535Y-29159500D01*
X48286532Y-29159500D01*
X48083581Y-29199869D01*
X47892402Y-29279058D01*
X47720348Y-29394020D01*
X47574020Y-29540348D01*
X47459058Y-29712402D01*
X47379869Y-29903581D01*
X47339500Y-30106532D01*
X39550500Y-30106532D01*
X39550500Y-29645727D01*
X39550499Y-29645725D01*
X39547646Y-29615305D01*
X39547646Y-29615301D01*
X39502793Y-29487118D01*
X39463962Y-29434504D01*
X39422154Y-29377855D01*
X39422152Y-29377853D01*
X39422150Y-29377850D01*
X39422146Y-29377847D01*
X39422144Y-29377845D01*
X39312883Y-29297207D01*
X39184703Y-29252355D01*
X39184694Y-29252353D01*
X39154274Y-29249500D01*
X39154266Y-29249500D01*
X38345734Y-29249500D01*
X38345725Y-29249500D01*
X38315305Y-29252353D01*
X38315296Y-29252355D01*
X38187116Y-29297207D01*
X38077855Y-29377845D01*
X38077845Y-29377855D01*
X37997207Y-29487116D01*
X37952355Y-29615296D01*
X37952353Y-29615305D01*
X37949500Y-29645725D01*
X37949500Y-29725500D01*
X37930593Y-29783691D01*
X37881093Y-29819655D01*
X37850500Y-29824500D01*
X37349500Y-29824500D01*
X37291309Y-29805593D01*
X37255345Y-29756093D01*
X37250500Y-29725500D01*
X37250500Y-29645727D01*
X37250499Y-29645725D01*
X37247646Y-29615305D01*
X37247646Y-29615301D01*
X37202793Y-29487118D01*
X37163962Y-29434504D01*
X37122154Y-29377855D01*
X37122152Y-29377853D01*
X37122150Y-29377850D01*
X37122146Y-29377847D01*
X37122144Y-29377845D01*
X37012883Y-29297207D01*
X36884703Y-29252355D01*
X36884695Y-29252353D01*
X36865252Y-29250529D01*
X36809082Y-29226268D01*
X36777899Y-29173625D01*
X36775500Y-29151962D01*
X36775500Y-28405848D01*
X36775500Y-28405847D01*
X36753318Y-28323062D01*
X36710465Y-28248838D01*
X36693243Y-28231616D01*
X36649862Y-28188234D01*
X36649862Y-28188235D01*
X36584496Y-28122869D01*
X36556719Y-28068352D01*
X36555500Y-28052865D01*
X36555500Y-27987809D01*
X36555500Y-27987808D01*
X36521392Y-27860514D01*
X36521390Y-27860511D01*
X36521390Y-27860509D01*
X36455503Y-27746390D01*
X36455501Y-27746388D01*
X36455500Y-27746386D01*
X36362314Y-27653200D01*
X36362311Y-27653198D01*
X36352283Y-27647408D01*
X36352282Y-27647408D01*
X36248187Y-27587308D01*
X36197788Y-27573804D01*
X36170648Y-27566532D01*
X47339500Y-27566532D01*
X47339500Y-27773467D01*
X47379869Y-27976418D01*
X47459058Y-28167597D01*
X47562935Y-28323061D01*
X47574023Y-28339655D01*
X47720345Y-28485977D01*
X47892402Y-28600941D01*
X48083580Y-28680130D01*
X48286535Y-28720500D01*
X48286536Y-28720500D01*
X48493464Y-28720500D01*
X48493465Y-28720500D01*
X48696420Y-28680130D01*
X48887598Y-28600941D01*
X49059655Y-28485977D01*
X49205977Y-28339655D01*
X49320941Y-28167598D01*
X49400130Y-27976420D01*
X49440500Y-27773465D01*
X49440500Y-27566535D01*
X49400130Y-27363580D01*
X49320941Y-27172402D01*
X49205977Y-27000345D01*
X49059655Y-26854023D01*
X49045264Y-26844407D01*
X48887597Y-26739058D01*
X48696418Y-26659869D01*
X48493467Y-26619500D01*
X48493465Y-26619500D01*
X48286535Y-26619500D01*
X48286532Y-26619500D01*
X48083581Y-26659869D01*
X47892402Y-26739058D01*
X47720348Y-26854020D01*
X47574020Y-27000348D01*
X47459058Y-27172402D01*
X47379869Y-27363581D01*
X47339500Y-27566532D01*
X36170648Y-27566532D01*
X36120892Y-27553200D01*
X35989108Y-27553200D01*
X35912212Y-27573804D01*
X35861809Y-27587309D01*
X35747690Y-27653196D01*
X35654496Y-27746390D01*
X35588609Y-27860509D01*
X35588608Y-27860514D01*
X35554500Y-27987808D01*
X31615413Y-27987808D01*
X31620130Y-27976420D01*
X31660500Y-27773465D01*
X31660500Y-27566535D01*
X31620130Y-27363580D01*
X31540941Y-27172402D01*
X31425977Y-27000345D01*
X31279655Y-26854023D01*
X31265264Y-26844407D01*
X31107597Y-26739058D01*
X30916418Y-26659869D01*
X30713467Y-26619500D01*
X30713465Y-26619500D01*
X30506535Y-26619500D01*
X30506532Y-26619500D01*
X30303581Y-26659869D01*
X30112402Y-26739058D01*
X29940348Y-26854020D01*
X29794020Y-27000348D01*
X29679058Y-27172402D01*
X29599869Y-27363581D01*
X29559500Y-27566532D01*
X29559500Y-27727766D01*
X29540593Y-27785957D01*
X29491093Y-27821921D01*
X29429907Y-27821921D01*
X29390496Y-27797770D01*
X26619258Y-25026532D01*
X29559500Y-25026532D01*
X29559500Y-25233467D01*
X29599869Y-25436418D01*
X29679058Y-25627597D01*
X29794020Y-25799651D01*
X29794023Y-25799655D01*
X29940345Y-25945977D01*
X30112402Y-26060941D01*
X30303580Y-26140130D01*
X30506535Y-26180500D01*
X30506536Y-26180500D01*
X30713464Y-26180500D01*
X30713465Y-26180500D01*
X30916420Y-26140130D01*
X31107598Y-26060941D01*
X31279655Y-25945977D01*
X31425977Y-25799655D01*
X31540941Y-25627598D01*
X31620130Y-25436420D01*
X31660500Y-25233465D01*
X31660500Y-25026535D01*
X31620130Y-24823580D01*
X31540941Y-24632402D01*
X31425977Y-24460345D01*
X31279655Y-24314023D01*
X31269366Y-24307148D01*
X31107597Y-24199058D01*
X30916418Y-24119869D01*
X30713467Y-24079500D01*
X30713465Y-24079500D01*
X30506535Y-24079500D01*
X30506532Y-24079500D01*
X30303581Y-24119869D01*
X30112402Y-24199058D01*
X29940348Y-24314020D01*
X29794020Y-24460348D01*
X29679058Y-24632402D01*
X29599869Y-24823581D01*
X29559500Y-25026532D01*
X26619258Y-25026532D01*
X26530212Y-24937486D01*
X24079259Y-22486532D01*
X29559500Y-22486532D01*
X29559500Y-22693467D01*
X29599869Y-22896418D01*
X29679058Y-23087597D01*
X29786069Y-23247751D01*
X29794023Y-23259655D01*
X29940345Y-23405977D01*
X30112402Y-23520941D01*
X30303580Y-23600130D01*
X30506535Y-23640500D01*
X30506536Y-23640500D01*
X30713464Y-23640500D01*
X30713465Y-23640500D01*
X30916420Y-23600130D01*
X31107598Y-23520941D01*
X31279655Y-23405977D01*
X31425977Y-23259655D01*
X31540941Y-23087598D01*
X31620130Y-22896420D01*
X31660500Y-22693465D01*
X31660500Y-22486535D01*
X31620130Y-22283580D01*
X31540941Y-22092402D01*
X31425977Y-21920345D01*
X31279655Y-21774023D01*
X31273431Y-21769864D01*
X31107597Y-21659058D01*
X30916418Y-21579869D01*
X30713467Y-21539500D01*
X30713465Y-21539500D01*
X30506535Y-21539500D01*
X30506532Y-21539500D01*
X30303581Y-21579869D01*
X30112402Y-21659058D01*
X29940348Y-21774020D01*
X29794020Y-21920348D01*
X29679058Y-22092402D01*
X29599869Y-22283581D01*
X29559500Y-22486532D01*
X24079259Y-22486532D01*
X23421862Y-21829135D01*
X23421859Y-21829133D01*
X23421857Y-21829131D01*
X23347642Y-21786283D01*
X23347644Y-21786283D01*
X23303667Y-21774500D01*
X23264853Y-21764100D01*
X23264851Y-21764100D01*
X22561935Y-21764100D01*
X22503744Y-21745193D01*
X22491931Y-21735104D01*
X22179696Y-21422869D01*
X22151919Y-21368352D01*
X22150700Y-21352865D01*
X22150700Y-20712740D01*
X22150701Y-20712727D01*
X22150701Y-20619047D01*
X22150700Y-20619045D01*
X22128518Y-20536262D01*
X22104690Y-20494991D01*
X22088130Y-20466308D01*
X22085667Y-20462041D01*
X22085666Y-20462040D01*
X22085665Y-20462038D01*
X22025062Y-20401435D01*
X22025059Y-20401433D01*
X22021604Y-20397977D01*
X22021598Y-20397972D01*
X21793130Y-20169503D01*
X21765353Y-20114987D01*
X21774924Y-20054555D01*
X21818189Y-20011290D01*
X21863134Y-20000500D01*
X23559965Y-20000500D01*
X23618156Y-20019407D01*
X23629968Y-20029495D01*
X23660338Y-20059865D01*
X23660340Y-20059866D01*
X23660341Y-20059867D01*
X23660342Y-20059868D01*
X23734557Y-20102716D01*
X23734555Y-20102716D01*
X23734559Y-20102717D01*
X23734561Y-20102718D01*
X23817347Y-20124900D01*
X23817349Y-20124900D01*
X24904251Y-20124900D01*
X24904253Y-20124900D01*
X24987039Y-20102718D01*
X24987041Y-20102716D01*
X24987043Y-20102716D01*
X25061257Y-20059868D01*
X25061257Y-20059867D01*
X25061262Y-20059865D01*
X25986631Y-19134496D01*
X26041148Y-19106719D01*
X26056635Y-19105500D01*
X31080151Y-19105500D01*
X31080153Y-19105500D01*
X31162939Y-19083318D01*
X31162941Y-19083316D01*
X31162943Y-19083316D01*
X31237157Y-19040468D01*
X31237157Y-19040467D01*
X31237162Y-19040465D01*
X32061465Y-18216162D01*
X32067904Y-18205009D01*
X32104316Y-18141943D01*
X32104316Y-18141941D01*
X32104318Y-18141939D01*
X32126500Y-18059153D01*
X32126500Y-17973447D01*
X32126500Y-6507607D01*
X33172900Y-6507607D01*
X33172900Y-6512038D01*
X33172900Y-21692396D01*
X33188832Y-21772490D01*
X33199376Y-21825498D01*
X33199820Y-21827727D01*
X33199820Y-21827729D01*
X33252623Y-21955208D01*
X33324389Y-22062615D01*
X33329286Y-22069943D01*
X33878831Y-22619488D01*
X34420504Y-23161161D01*
X34448281Y-23215678D01*
X34449500Y-23231165D01*
X34449500Y-24604265D01*
X34452353Y-24634694D01*
X34452353Y-24634696D01*
X34452354Y-24634698D01*
X34473247Y-24694407D01*
X34497208Y-24762885D01*
X34577845Y-24872144D01*
X34577847Y-24872146D01*
X34577850Y-24872150D01*
X34577853Y-24872152D01*
X34577855Y-24872154D01*
X34687114Y-24952791D01*
X34687116Y-24952791D01*
X34687118Y-24952793D01*
X34815302Y-24997646D01*
X34845735Y-25000500D01*
X36854264Y-25000499D01*
X36854265Y-25000499D01*
X36860350Y-24999928D01*
X36884698Y-24997646D01*
X37012882Y-24952793D01*
X37122150Y-24872150D01*
X37202793Y-24762882D01*
X37247646Y-24634698D01*
X37250500Y-24604265D01*
X37250499Y-22730163D01*
X37269406Y-22671973D01*
X37318906Y-22636009D01*
X37380092Y-22636009D01*
X37419503Y-22660160D01*
X37954798Y-23195455D01*
X37982575Y-23249972D01*
X37982575Y-23280946D01*
X37949500Y-23489774D01*
X37949500Y-23710225D01*
X37983984Y-23927948D01*
X38052102Y-24137599D01*
X38052104Y-24137602D01*
X38052105Y-24137606D01*
X38096310Y-24224362D01*
X38150804Y-24331313D01*
X38152185Y-24334022D01*
X38281758Y-24512365D01*
X38437635Y-24668242D01*
X38615978Y-24797815D01*
X38812394Y-24897895D01*
X39022049Y-24966015D01*
X39109140Y-24979809D01*
X39239775Y-25000500D01*
X39239778Y-25000500D01*
X39460225Y-25000500D01*
X39569086Y-24983257D01*
X39677951Y-24966015D01*
X39887606Y-24897895D01*
X40084022Y-24797815D01*
X40262365Y-24668242D01*
X40418242Y-24512365D01*
X40547815Y-24334022D01*
X40647895Y-24137606D01*
X40716015Y-23927951D01*
X40738869Y-23783657D01*
X40750500Y-23710225D01*
X40750500Y-23489774D01*
X40724481Y-23325499D01*
X40716015Y-23272049D01*
X40650322Y-23069864D01*
X40647897Y-23062400D01*
X40647896Y-23062399D01*
X40647895Y-23062394D01*
X40547815Y-22865978D01*
X40418242Y-22687635D01*
X40262365Y-22531758D01*
X40084022Y-22402185D01*
X40084021Y-22402184D01*
X40084019Y-22402183D01*
X39961978Y-22340000D01*
X39887606Y-22302105D01*
X39887602Y-22302104D01*
X39887599Y-22302102D01*
X39677948Y-22233984D01*
X39460225Y-22199500D01*
X39460222Y-22199500D01*
X39239778Y-22199500D01*
X39239775Y-22199500D01*
X39030946Y-22232575D01*
X38970514Y-22223004D01*
X38945455Y-22204798D01*
X38229496Y-21488839D01*
X38201719Y-21434322D01*
X38200500Y-21418835D01*
X38200500Y-19216312D01*
X38219407Y-19158121D01*
X38219711Y-19157706D01*
X38252793Y-19112882D01*
X38297646Y-18984699D01*
X38300499Y-18954273D01*
X38300500Y-18954273D01*
X38300500Y-17145727D01*
X38300499Y-17145725D01*
X38297646Y-17115305D01*
X38297646Y-17115301D01*
X38252793Y-16987118D01*
X38252792Y-16987116D01*
X38219845Y-16942474D01*
X38200503Y-16884426D01*
X38200500Y-16883686D01*
X38200500Y-15249500D01*
X38219407Y-15191309D01*
X38268907Y-15155345D01*
X38299500Y-15150500D01*
X40204273Y-15150500D01*
X40204276Y-15150500D01*
X40234702Y-15147647D01*
X40362884Y-15102794D01*
X40420868Y-15060000D01*
X40472146Y-15022155D01*
X40472147Y-15022153D01*
X40472151Y-15022151D01*
X40552794Y-14912884D01*
X40569013Y-14866532D01*
X47339500Y-14866532D01*
X47339500Y-15073467D01*
X47379869Y-15276418D01*
X47459058Y-15467597D01*
X47574020Y-15639651D01*
X47574023Y-15639655D01*
X47720345Y-15785977D01*
X47892402Y-15900941D01*
X48083580Y-15980130D01*
X48286535Y-16020500D01*
X48286536Y-16020500D01*
X48493464Y-16020500D01*
X48493465Y-16020500D01*
X48696420Y-15980130D01*
X48887598Y-15900941D01*
X49059655Y-15785977D01*
X49205977Y-15639655D01*
X49320941Y-15467598D01*
X49400130Y-15276420D01*
X49440500Y-15073465D01*
X49440500Y-14866535D01*
X49400130Y-14663580D01*
X49320941Y-14472402D01*
X49205977Y-14300345D01*
X49059655Y-14154023D01*
X49057816Y-14152794D01*
X48887597Y-14039058D01*
X48696418Y-13959869D01*
X48493467Y-13919500D01*
X48493465Y-13919500D01*
X48286535Y-13919500D01*
X48286532Y-13919500D01*
X48083581Y-13959869D01*
X47892402Y-14039058D01*
X47720348Y-14154020D01*
X47574020Y-14300348D01*
X47459058Y-14472402D01*
X47379869Y-14663581D01*
X47339500Y-14866532D01*
X40569013Y-14866532D01*
X40597647Y-14784702D01*
X40600500Y-14754276D01*
X40600500Y-12326532D01*
X47339500Y-12326532D01*
X47339500Y-12533467D01*
X47379869Y-12736418D01*
X47459058Y-12927597D01*
X47459059Y-12927598D01*
X47574023Y-13099655D01*
X47720345Y-13245977D01*
X47892402Y-13360941D01*
X48083580Y-13440130D01*
X48286535Y-13480500D01*
X48286536Y-13480500D01*
X48493464Y-13480500D01*
X48493465Y-13480500D01*
X48696420Y-13440130D01*
X48887598Y-13360941D01*
X49059655Y-13245977D01*
X49205977Y-13099655D01*
X49320941Y-12927598D01*
X49400130Y-12736420D01*
X49440500Y-12533465D01*
X49440500Y-12326535D01*
X49400130Y-12123580D01*
X49320941Y-11932402D01*
X49205977Y-11760345D01*
X49059655Y-11614023D01*
X49059651Y-11614020D01*
X48887597Y-11499058D01*
X48696418Y-11419869D01*
X48493467Y-11379500D01*
X48493465Y-11379500D01*
X48286535Y-11379500D01*
X48286532Y-11379500D01*
X48083581Y-11419869D01*
X47892402Y-11499058D01*
X47720348Y-11614020D01*
X47574020Y-11760348D01*
X47459058Y-11932402D01*
X47379869Y-12123581D01*
X47339500Y-12326532D01*
X40600500Y-12326532D01*
X40600500Y-9786532D01*
X47339500Y-9786532D01*
X47339500Y-9993467D01*
X47379869Y-10196418D01*
X47459058Y-10387597D01*
X47524500Y-10485538D01*
X47574023Y-10559655D01*
X47720345Y-10705977D01*
X47892402Y-10820941D01*
X48083580Y-10900130D01*
X48286535Y-10940500D01*
X48286536Y-10940500D01*
X48493464Y-10940500D01*
X48493465Y-10940500D01*
X48696420Y-10900130D01*
X48887598Y-10820941D01*
X49059655Y-10705977D01*
X49205977Y-10559655D01*
X49320941Y-10387598D01*
X49400130Y-10196420D01*
X49440500Y-9993465D01*
X49440500Y-9786535D01*
X49400130Y-9583580D01*
X49320941Y-9392402D01*
X49205977Y-9220345D01*
X49059655Y-9074023D01*
X48887598Y-8959059D01*
X48887599Y-8959059D01*
X48887597Y-8959058D01*
X48696418Y-8879869D01*
X48493467Y-8839500D01*
X48493465Y-8839500D01*
X48286535Y-8839500D01*
X48286532Y-8839500D01*
X48083581Y-8879869D01*
X47892402Y-8959058D01*
X47720348Y-9074020D01*
X47574020Y-9220348D01*
X47459058Y-9392402D01*
X47379869Y-9583581D01*
X47339500Y-9786532D01*
X40600500Y-9786532D01*
X40600500Y-9681164D01*
X40619407Y-9622973D01*
X40629490Y-9611166D01*
X43444114Y-6796543D01*
X43520775Y-6681811D01*
X43573580Y-6554329D01*
X43582874Y-6507606D01*
X43600500Y-6418993D01*
X43600500Y-6299500D01*
X43619407Y-6241309D01*
X43668907Y-6205345D01*
X43699500Y-6200500D01*
X43954273Y-6200500D01*
X43954273Y-6200499D01*
X43984699Y-6197646D01*
X44112882Y-6152793D01*
X44222150Y-6072150D01*
X44302793Y-5962882D01*
X44347646Y-5834699D01*
X44350499Y-5804273D01*
X44350500Y-5804273D01*
X44350500Y-2895727D01*
X44350499Y-2895725D01*
X44347646Y-2865305D01*
X44347646Y-2865301D01*
X44302793Y-2737118D01*
X44278863Y-2704694D01*
X44222154Y-2627855D01*
X44222152Y-2627853D01*
X44222150Y-2627850D01*
X44222146Y-2627847D01*
X44222144Y-2627845D01*
X44112883Y-2547207D01*
X43984703Y-2502355D01*
X43984694Y-2502353D01*
X43954274Y-2499500D01*
X43954266Y-2499500D01*
X41845734Y-2499500D01*
X41845725Y-2499500D01*
X41815305Y-2502353D01*
X41815296Y-2502355D01*
X41687116Y-2547207D01*
X41577855Y-2627845D01*
X41577845Y-2627855D01*
X41497207Y-2737116D01*
X41452355Y-2865296D01*
X41452353Y-2865305D01*
X41449500Y-2895725D01*
X41449500Y-5804274D01*
X41452353Y-5834694D01*
X41452355Y-5834703D01*
X41497207Y-5962883D01*
X41577845Y-6072144D01*
X41577847Y-6072146D01*
X41577850Y-6072150D01*
X41577853Y-6072152D01*
X41577855Y-6072154D01*
X41687116Y-6152792D01*
X41687117Y-6152792D01*
X41687118Y-6152793D01*
X41815301Y-6197646D01*
X41830902Y-6199109D01*
X41887071Y-6223365D01*
X41918257Y-6276006D01*
X41912546Y-6336924D01*
X41891662Y-6367680D01*
X39938839Y-8320504D01*
X39884322Y-8348281D01*
X39868835Y-8349500D01*
X34795724Y-8349500D01*
X34777468Y-8351211D01*
X34765296Y-8352353D01*
X34705597Y-8373243D01*
X34644427Y-8374615D01*
X34594133Y-8339771D01*
X34573925Y-8282019D01*
X34573900Y-8279798D01*
X34573900Y-6907765D01*
X34592807Y-6849574D01*
X34602896Y-6837761D01*
X35211161Y-6229496D01*
X35265678Y-6201719D01*
X35281165Y-6200500D01*
X37154273Y-6200500D01*
X37154273Y-6200499D01*
X37184699Y-6197646D01*
X37312882Y-6152793D01*
X37422150Y-6072150D01*
X37502793Y-5962882D01*
X37547646Y-5834699D01*
X37550499Y-5804273D01*
X37550500Y-5804273D01*
X37550500Y-2895727D01*
X37550499Y-2895725D01*
X37547646Y-2865305D01*
X37547646Y-2865301D01*
X37502793Y-2737118D01*
X37478863Y-2704694D01*
X37422154Y-2627855D01*
X37422152Y-2627853D01*
X37422150Y-2627850D01*
X37422146Y-2627847D01*
X37422144Y-2627845D01*
X37312883Y-2547207D01*
X37184703Y-2502355D01*
X37184694Y-2502353D01*
X37154274Y-2499500D01*
X37154266Y-2499500D01*
X35045734Y-2499500D01*
X35045725Y-2499500D01*
X35015305Y-2502353D01*
X35015296Y-2502355D01*
X34887116Y-2547207D01*
X34777855Y-2627845D01*
X34777845Y-2627855D01*
X34697207Y-2737116D01*
X34652355Y-2865296D01*
X34652353Y-2865305D01*
X34649500Y-2895725D01*
X34649500Y-4768835D01*
X34630593Y-4827026D01*
X34620504Y-4838839D01*
X33329283Y-6130060D01*
X33252623Y-6244791D01*
X33199822Y-6372265D01*
X33199819Y-6372275D01*
X33190604Y-6418601D01*
X33190584Y-6418703D01*
X33190527Y-6418993D01*
X33172900Y-6507607D01*
X32126500Y-6507607D01*
X32126500Y-5958147D01*
X32104318Y-5875362D01*
X32061465Y-5801138D01*
X32034486Y-5774159D01*
X32000862Y-5740534D01*
X32000862Y-5740535D01*
X31595619Y-5335292D01*
X31567842Y-5280775D01*
X31574159Y-5227402D01*
X31585716Y-5199501D01*
X31620130Y-5116420D01*
X31660500Y-4913465D01*
X31660500Y-4706535D01*
X31620130Y-4503580D01*
X31540941Y-4312402D01*
X31425977Y-4140345D01*
X31279655Y-3994023D01*
X31262091Y-3982287D01*
X31107597Y-3879058D01*
X30916418Y-3799869D01*
X30713467Y-3759500D01*
X30713465Y-3759500D01*
X30506535Y-3759500D01*
X30506532Y-3759500D01*
X30303581Y-3799869D01*
X30112402Y-3879058D01*
X29940348Y-3994020D01*
X29794020Y-4140348D01*
X29679058Y-4312402D01*
X29599869Y-4503581D01*
X29559500Y-4706532D01*
X29559500Y-4913467D01*
X29599869Y-5116418D01*
X29679058Y-5307597D01*
X29761385Y-5430809D01*
X29794023Y-5479655D01*
X29940345Y-5625977D01*
X30112402Y-5740941D01*
X30303580Y-5820130D01*
X30506535Y-5860500D01*
X30506536Y-5860500D01*
X30713464Y-5860500D01*
X30713465Y-5860500D01*
X30916420Y-5820130D01*
X31027402Y-5774158D01*
X31088399Y-5769358D01*
X31135292Y-5795619D01*
X31446504Y-6106831D01*
X31474281Y-6161348D01*
X31475500Y-6176835D01*
X31475500Y-9030860D01*
X31456593Y-9089051D01*
X31407093Y-9125015D01*
X31345907Y-9125015D01*
X31306498Y-9100865D01*
X31279655Y-9074022D01*
X31107597Y-8959058D01*
X30916418Y-8879869D01*
X30713467Y-8839500D01*
X30713465Y-8839500D01*
X30506535Y-8839500D01*
X30506532Y-8839500D01*
X30303581Y-8879869D01*
X30112402Y-8959058D01*
X29940348Y-9074020D01*
X29794020Y-9220348D01*
X29679058Y-9392402D01*
X29599869Y-9583581D01*
X29559500Y-9786532D01*
X29559500Y-9993467D01*
X29599869Y-10196418D01*
X29679058Y-10387597D01*
X29744500Y-10485538D01*
X29794023Y-10559655D01*
X29940345Y-10705977D01*
X30112402Y-10820941D01*
X30303580Y-10900130D01*
X30506535Y-10940500D01*
X30506536Y-10940500D01*
X30713464Y-10940500D01*
X30713465Y-10940500D01*
X30916420Y-10900130D01*
X31107598Y-10820941D01*
X31279655Y-10705977D01*
X31306498Y-10679133D01*
X31361013Y-10651358D01*
X31421445Y-10660929D01*
X31464710Y-10704194D01*
X31475500Y-10749139D01*
X31475500Y-11570860D01*
X31456593Y-11629051D01*
X31407093Y-11665015D01*
X31345907Y-11665015D01*
X31306498Y-11640865D01*
X31279655Y-11614022D01*
X31107597Y-11499058D01*
X30916418Y-11419869D01*
X30713467Y-11379500D01*
X30713465Y-11379500D01*
X30506535Y-11379500D01*
X30506532Y-11379500D01*
X30303581Y-11419869D01*
X30112402Y-11499058D01*
X29940348Y-11614020D01*
X29794020Y-11760348D01*
X29679058Y-11932402D01*
X29599869Y-12123581D01*
X29559500Y-12326532D01*
X29559500Y-12533467D01*
X29599869Y-12736418D01*
X29679058Y-12927597D01*
X29679059Y-12927598D01*
X29794023Y-13099655D01*
X29940345Y-13245977D01*
X30112402Y-13360941D01*
X30303580Y-13440130D01*
X30506535Y-13480500D01*
X30506536Y-13480500D01*
X30713464Y-13480500D01*
X30713465Y-13480500D01*
X30916420Y-13440130D01*
X31107598Y-13360941D01*
X31279655Y-13245977D01*
X31306498Y-13219133D01*
X31361013Y-13191358D01*
X31421445Y-13200929D01*
X31464710Y-13244194D01*
X31475500Y-13289139D01*
X31475500Y-14110860D01*
X31456593Y-14169051D01*
X31407093Y-14205015D01*
X31345907Y-14205015D01*
X31306498Y-14180865D01*
X31279655Y-14154022D01*
X31107597Y-14039058D01*
X30916418Y-13959869D01*
X30713467Y-13919500D01*
X30713465Y-13919500D01*
X30506535Y-13919500D01*
X30506532Y-13919500D01*
X30303581Y-13959869D01*
X30112402Y-14039058D01*
X29940348Y-14154020D01*
X29794020Y-14300348D01*
X29679058Y-14472402D01*
X29633087Y-14583386D01*
X29593350Y-14629912D01*
X29541623Y-14644500D01*
X29241653Y-14644500D01*
X29155947Y-14644500D01*
X29145389Y-14647329D01*
X29084287Y-14644126D01*
X29036738Y-14605620D01*
X29024141Y-14577328D01*
X29014492Y-14541314D01*
X29012121Y-14537207D01*
X28948603Y-14427190D01*
X28948601Y-14427188D01*
X28948600Y-14427186D01*
X28855414Y-14334000D01*
X28855411Y-14333998D01*
X28855409Y-14333996D01*
X28741289Y-14268109D01*
X28741291Y-14268109D01*
X28673530Y-14249953D01*
X28613992Y-14234000D01*
X28482208Y-14234000D01*
X28422670Y-14249953D01*
X28354909Y-14268109D01*
X28240790Y-14333996D01*
X28240784Y-14334000D01*
X28194781Y-14380004D01*
X28140264Y-14407781D01*
X28124778Y-14409000D01*
X11370853Y-14409000D01*
X11285147Y-14409000D01*
X11234478Y-14422576D01*
X11202356Y-14431183D01*
X11128142Y-14474031D01*
X11128141Y-14474032D01*
X4556667Y-21045504D01*
X4502150Y-21073281D01*
X4486663Y-21074500D01*
X4144499Y-21074500D01*
X4144496Y-21074501D01*
X4120418Y-21077293D01*
X4021922Y-21120784D01*
X4021921Y-21120785D01*
X3945785Y-21196921D01*
X3903700Y-21292235D01*
X3902292Y-21295423D01*
X3899500Y-21319488D01*
X3899500Y-21580500D01*
X3899501Y-21580503D01*
X3902293Y-21604581D01*
X3935285Y-21679300D01*
X3945785Y-21703079D01*
X4021921Y-21779215D01*
X4120420Y-21822707D01*
X4144495Y-21825500D01*
X5080504Y-21825499D01*
X5104580Y-21822707D01*
X5203079Y-21779215D01*
X5279215Y-21703079D01*
X5322707Y-21604580D01*
X5325500Y-21580505D01*
X5325499Y-21319496D01*
X5322707Y-21295420D01*
X5322705Y-21295416D01*
X5322705Y-21295414D01*
X5320909Y-21291346D01*
X5314702Y-21230476D01*
X5341468Y-21181357D01*
X11433831Y-15088996D01*
X11488348Y-15061219D01*
X11503835Y-15060000D01*
X16303166Y-15060000D01*
X16361357Y-15078907D01*
X16397321Y-15128407D01*
X16397321Y-15189593D01*
X16373169Y-15229004D01*
X14956666Y-16645504D01*
X14902150Y-16673281D01*
X14886663Y-16674500D01*
X14305139Y-16674500D01*
X14305136Y-16674501D01*
X14280009Y-16677414D01*
X14177235Y-16722794D01*
X14097794Y-16802235D01*
X14052414Y-16905011D01*
X14049500Y-16930130D01*
X14049500Y-17219859D01*
X14049501Y-17219864D01*
X14052414Y-17244990D01*
X14101500Y-17356157D01*
X14099126Y-17357205D01*
X14112537Y-17402757D01*
X14099477Y-17442949D01*
X14101500Y-17443843D01*
X14097794Y-17452234D01*
X14097794Y-17452235D01*
X14060618Y-17536430D01*
X14052414Y-17555011D01*
X14049500Y-17580130D01*
X14049500Y-17869859D01*
X14049501Y-17869864D01*
X14052414Y-17894990D01*
X14066725Y-17927401D01*
X14090292Y-17980775D01*
X14101500Y-18006157D01*
X14099126Y-18007205D01*
X14112537Y-18052757D01*
X14099477Y-18092949D01*
X14101500Y-18093843D01*
X14097794Y-18102234D01*
X14097794Y-18102235D01*
X14074637Y-18154681D01*
X14052414Y-18205011D01*
X14049500Y-18230130D01*
X14049500Y-18519859D01*
X14049501Y-18519864D01*
X14052414Y-18544990D01*
X14052415Y-18544992D01*
X14059268Y-18560513D01*
X14065475Y-18621383D01*
X14034719Y-18674276D01*
X13978746Y-18698989D01*
X13968703Y-18699500D01*
X12373932Y-18699500D01*
X12373916Y-18699499D01*
X12367853Y-18699499D01*
X12282147Y-18699499D01*
X12282144Y-18699499D01*
X12199361Y-18721681D01*
X12175834Y-18735265D01*
X12162250Y-18743108D01*
X12138721Y-18756692D01*
X12125137Y-18764535D01*
X12064534Y-18825137D01*
X12064535Y-18825138D01*
X9688804Y-21200869D01*
X9634287Y-21228646D01*
X9573855Y-21219075D01*
X9530590Y-21175810D01*
X9519800Y-21130865D01*
X9519800Y-21020709D01*
X9518922Y-21017431D01*
X9485692Y-20893414D01*
X9485690Y-20893411D01*
X9485690Y-20893409D01*
X9419803Y-20779290D01*
X9419801Y-20779288D01*
X9419800Y-20779286D01*
X9326614Y-20686100D01*
X9326611Y-20686098D01*
X9326609Y-20686096D01*
X9212489Y-20620209D01*
X9212491Y-20620209D01*
X9163099Y-20606975D01*
X9085192Y-20586100D01*
X9085190Y-20586100D01*
X9020135Y-20586100D01*
X8961944Y-20567193D01*
X8950132Y-20557104D01*
X8724562Y-20331535D01*
X8724557Y-20331531D01*
X8650342Y-20288683D01*
X8650344Y-20288683D01*
X8618221Y-20280076D01*
X8567553Y-20266500D01*
X7188353Y-20266500D01*
X7102647Y-20266500D01*
X7051978Y-20280076D01*
X7019856Y-20288683D01*
X6945642Y-20331531D01*
X6945637Y-20331535D01*
X6231666Y-21045504D01*
X6177150Y-21073281D01*
X6161663Y-21074500D01*
X5819499Y-21074500D01*
X5819496Y-21074501D01*
X5795418Y-21077293D01*
X5696922Y-21120784D01*
X5696921Y-21120785D01*
X5620785Y-21196921D01*
X5578700Y-21292235D01*
X5577292Y-21295423D01*
X5574500Y-21319488D01*
X5574500Y-21580500D01*
X5574501Y-21580503D01*
X5577293Y-21604581D01*
X5620784Y-21703078D01*
X5620787Y-21703081D01*
X5622706Y-21705001D01*
X5624459Y-21708442D01*
X5625970Y-21710648D01*
X5625682Y-21710844D01*
X5650480Y-21759519D01*
X5640905Y-21819950D01*
X5622706Y-21844999D01*
X5620786Y-21846919D01*
X5620785Y-21846920D01*
X5620785Y-21846921D01*
X5584826Y-21928361D01*
X5577292Y-21945423D01*
X5574500Y-21969488D01*
X5574500Y-22230500D01*
X5574501Y-22230503D01*
X5577293Y-22254581D01*
X5620784Y-22353078D01*
X5620787Y-22353081D01*
X5622706Y-22355001D01*
X5624459Y-22358442D01*
X5625970Y-22360648D01*
X5625682Y-22360844D01*
X5650480Y-22409519D01*
X5640905Y-22469950D01*
X5622706Y-22494999D01*
X5620786Y-22496919D01*
X5620785Y-22496920D01*
X5620785Y-22496921D01*
X5577698Y-22594504D01*
X5577292Y-22595423D01*
X5574500Y-22619488D01*
X5574500Y-22880500D01*
X5574501Y-22880503D01*
X5577293Y-22904581D01*
X5620784Y-23003077D01*
X5620785Y-23003079D01*
X5696921Y-23079215D01*
X5795420Y-23122707D01*
X5819495Y-23125500D01*
X6161664Y-23125499D01*
X6219855Y-23144406D01*
X6231668Y-23154495D01*
X6237169Y-23159996D01*
X6264946Y-23214513D01*
X6255375Y-23274945D01*
X6212110Y-23318210D01*
X6178883Y-23326186D01*
X6179142Y-23328153D01*
X6172710Y-23328999D01*
X6045409Y-23363109D01*
X5931290Y-23428996D01*
X5838096Y-23522190D01*
X5772209Y-23636309D01*
X5738100Y-23763609D01*
X5738100Y-23828665D01*
X5719193Y-23886856D01*
X5709104Y-23898669D01*
X5583204Y-24024569D01*
X5528687Y-24052346D01*
X5468255Y-24042775D01*
X5424990Y-23999510D01*
X5414200Y-23954565D01*
X5414200Y-23819109D01*
X5414200Y-23819108D01*
X5380092Y-23691814D01*
X5380090Y-23691811D01*
X5380090Y-23691809D01*
X5314203Y-23577690D01*
X5314201Y-23577688D01*
X5314200Y-23577686D01*
X5221014Y-23484500D01*
X5221011Y-23484498D01*
X5221009Y-23484496D01*
X5106889Y-23418609D01*
X5106891Y-23418609D01*
X5042888Y-23401460D01*
X5011376Y-23393016D01*
X4960063Y-23359693D01*
X4938136Y-23302571D01*
X4938000Y-23297390D01*
X4938000Y-23224499D01*
X4956907Y-23166308D01*
X5006407Y-23130344D01*
X5037000Y-23125499D01*
X5080501Y-23125499D01*
X5080504Y-23125499D01*
X5104580Y-23122707D01*
X5203079Y-23079215D01*
X5279215Y-23003079D01*
X5322707Y-22904580D01*
X5325500Y-22880505D01*
X5325499Y-22619496D01*
X5322707Y-22595420D01*
X5279215Y-22496921D01*
X5203079Y-22420785D01*
X5104580Y-22377293D01*
X5104577Y-22377292D01*
X5104576Y-22377292D01*
X5080508Y-22374500D01*
X4144499Y-22374500D01*
X4144496Y-22374501D01*
X4120418Y-22377293D01*
X4021922Y-22420784D01*
X4021921Y-22420785D01*
X3945785Y-22496921D01*
X3902698Y-22594504D01*
X3902292Y-22595423D01*
X3899500Y-22619488D01*
X3899500Y-22880500D01*
X3899501Y-22880503D01*
X3902293Y-22904581D01*
X3945784Y-23003077D01*
X3945785Y-23003079D01*
X4021921Y-23079215D01*
X4120420Y-23122707D01*
X4144495Y-23125500D01*
X4188000Y-23125499D01*
X4246189Y-23144405D01*
X4282154Y-23193904D01*
X4287000Y-23224499D01*
X4287000Y-23540947D01*
X4287000Y-23626653D01*
X4305272Y-23694845D01*
X4309183Y-23709443D01*
X4352031Y-23783657D01*
X4352033Y-23783659D01*
X4352035Y-23783662D01*
X4384205Y-23815832D01*
X4411981Y-23870347D01*
X4413200Y-23885834D01*
X4413200Y-23950892D01*
X4438867Y-24046682D01*
X4447309Y-24078190D01*
X4469081Y-24115899D01*
X4481803Y-24175747D01*
X4456917Y-24231643D01*
X4416043Y-24258843D01*
X4292116Y-24302207D01*
X4182855Y-24382845D01*
X4182845Y-24382855D01*
X4102207Y-24492116D01*
X4057355Y-24620296D01*
X4057353Y-24620305D01*
X4054500Y-24650725D01*
X4054500Y-25437365D01*
X4035593Y-25495556D01*
X3986093Y-25531520D01*
X3924907Y-25531520D01*
X3885496Y-25507369D01*
X1884496Y-23506369D01*
X1856719Y-23451852D01*
X1855500Y-23436365D01*
X1855500Y-20524499D01*
X1874407Y-20466308D01*
X1923907Y-20430344D01*
X1954500Y-20425499D01*
X2059273Y-20425499D01*
X2059273Y-20425498D01*
X2089699Y-20422645D01*
X2217882Y-20377792D01*
X2327150Y-20297149D01*
X2407793Y-20187881D01*
X2452646Y-20059698D01*
X2455499Y-20029272D01*
X2455500Y-20029272D01*
X2455500Y-19245726D01*
X2453552Y-19224959D01*
X2466942Y-19165256D01*
X2482111Y-19145713D01*
X2844059Y-18783766D01*
X2844062Y-18783765D01*
X2904665Y-18723162D01*
X2932103Y-18675638D01*
X2947518Y-18648939D01*
X2969701Y-18566153D01*
X2969701Y-18480447D01*
X2969701Y-18474385D01*
X2969700Y-18474367D01*
X2969700Y-16442540D01*
X2969701Y-16442527D01*
X2969701Y-16348849D01*
X2969701Y-16348847D01*
X2947518Y-16266061D01*
X2945937Y-16263322D01*
X2926093Y-16228951D01*
X2926089Y-16228947D01*
X2904665Y-16191838D01*
X2844062Y-16131235D01*
X2844059Y-16131233D01*
X2840604Y-16127777D01*
X2840598Y-16127772D01*
X2482115Y-15769288D01*
X2454338Y-15714772D01*
X2453552Y-15690039D01*
X2455500Y-15669272D01*
X2455500Y-14885727D01*
X2455499Y-14885725D01*
X2453552Y-14864958D01*
X2466942Y-14805256D01*
X2482112Y-14785713D01*
X2860865Y-14406962D01*
X2860868Y-14406957D01*
X2903716Y-14332743D01*
X2903716Y-14332741D01*
X2903718Y-14332739D01*
X2925900Y-14249953D01*
X2925900Y-14164247D01*
X2925900Y-11945047D01*
X2903718Y-11862262D01*
X2903718Y-11862261D01*
X2903718Y-11862260D01*
X2860868Y-11788042D01*
X2860864Y-11788037D01*
X2482115Y-11409287D01*
X2454338Y-11354771D01*
X2453552Y-11330038D01*
X2455500Y-11309272D01*
X2455500Y-10525727D01*
X2455499Y-10525725D01*
X2452646Y-10495305D01*
X2452646Y-10495301D01*
X2407793Y-10367118D01*
X2393098Y-10347207D01*
X2327154Y-10257855D01*
X2327151Y-10257852D01*
X2327150Y-10257850D01*
X2327146Y-10257847D01*
X2327144Y-10257845D01*
X2217883Y-10177207D01*
X2089703Y-10132355D01*
X2089694Y-10132353D01*
X2059274Y-10129500D01*
X2059266Y-10129500D01*
X1000734Y-10129500D01*
X1000725Y-10129500D01*
X970305Y-10132353D01*
X970296Y-10132355D01*
X842116Y-10177207D01*
X732855Y-10257845D01*
X732848Y-10257852D01*
X679155Y-10330604D01*
X629387Y-10366196D01*
X568204Y-10365738D01*
X518974Y-10329405D01*
X500500Y-10271815D01*
X500500Y-3878710D01*
X2149500Y-3878710D01*
X2149500Y-4121289D01*
X2181161Y-4361781D01*
X2181161Y-4361786D01*
X2243944Y-4596092D01*
X2243948Y-4596105D01*
X2336772Y-4820204D01*
X2336774Y-4820208D01*
X2336776Y-4820212D01*
X2432322Y-4985702D01*
X2458066Y-5030292D01*
X2605729Y-5222731D01*
X2605731Y-5222733D01*
X2605735Y-5222738D01*
X2777262Y-5394265D01*
X2777266Y-5394268D01*
X2777268Y-5394270D01*
X2969707Y-5541933D01*
X2969711Y-5541936D01*
X3179788Y-5663224D01*
X3403900Y-5756054D01*
X3638211Y-5818838D01*
X3878712Y-5850500D01*
X3878713Y-5850500D01*
X4121287Y-5850500D01*
X4121288Y-5850500D01*
X4361789Y-5818838D01*
X4596100Y-5756054D01*
X4820212Y-5663224D01*
X5030289Y-5541936D01*
X5222738Y-5394265D01*
X5394265Y-5222738D01*
X5541936Y-5030289D01*
X5663224Y-4820212D01*
X5756054Y-4596100D01*
X5818838Y-4361789D01*
X5829841Y-4278208D01*
X12415300Y-4278208D01*
X12415300Y-4409992D01*
X12435319Y-4484703D01*
X12449409Y-4537290D01*
X12515296Y-4651409D01*
X12515298Y-4651411D01*
X12515300Y-4651414D01*
X12608486Y-4744600D01*
X12608488Y-4744601D01*
X12608490Y-4744603D01*
X12722610Y-4810490D01*
X12722608Y-4810490D01*
X12722612Y-4810491D01*
X12722614Y-4810492D01*
X12849908Y-4844600D01*
X12849910Y-4844600D01*
X12981690Y-4844600D01*
X12981692Y-4844600D01*
X13108986Y-4810492D01*
X13108988Y-4810490D01*
X13108990Y-4810490D01*
X13223109Y-4744603D01*
X13223109Y-4744602D01*
X13223114Y-4744600D01*
X13316300Y-4651414D01*
X13382192Y-4537286D01*
X13416300Y-4409992D01*
X13416300Y-4344934D01*
X13435207Y-4286743D01*
X13445296Y-4274930D01*
X14615730Y-3104496D01*
X14670247Y-3076719D01*
X14685734Y-3075500D01*
X17690500Y-3075500D01*
X17748691Y-3094407D01*
X17784655Y-3143907D01*
X17789500Y-3174500D01*
X17789500Y-3269746D01*
X17789501Y-3269758D01*
X17801132Y-3328227D01*
X17801134Y-3328233D01*
X17810552Y-3342328D01*
X17845448Y-3394552D01*
X17911769Y-3438867D01*
X17946257Y-3445727D01*
X17970241Y-3450498D01*
X17970246Y-3450498D01*
X17970252Y-3450500D01*
X17970253Y-3450500D01*
X19909747Y-3450500D01*
X19909748Y-3450500D01*
X19968231Y-3438867D01*
X20034552Y-3394552D01*
X20078867Y-3328231D01*
X20090500Y-3269748D01*
X20090500Y-2230252D01*
X20078867Y-2171769D01*
X20034552Y-2105448D01*
X20034548Y-2105445D01*
X19968233Y-2061134D01*
X19968231Y-2061133D01*
X19968228Y-2061132D01*
X19968227Y-2061132D01*
X19909758Y-2049501D01*
X19909748Y-2049500D01*
X17970252Y-2049500D01*
X17970251Y-2049500D01*
X17970241Y-2049501D01*
X17911772Y-2061132D01*
X17911766Y-2061134D01*
X17845451Y-2105445D01*
X17845445Y-2105451D01*
X17801134Y-2171766D01*
X17801132Y-2171772D01*
X17789501Y-2230241D01*
X17789500Y-2230253D01*
X17789500Y-2325500D01*
X17770593Y-2383691D01*
X17721093Y-2419655D01*
X17690500Y-2424500D01*
X14552753Y-2424500D01*
X14467047Y-2424500D01*
X14394036Y-2444062D01*
X14384257Y-2446683D01*
X14347150Y-2468108D01*
X14326392Y-2480093D01*
X14310037Y-2489535D01*
X14249434Y-2550137D01*
X14249435Y-2550138D01*
X12984969Y-3814604D01*
X12930452Y-3842381D01*
X12914965Y-3843600D01*
X12849908Y-3843600D01*
X12772000Y-3864475D01*
X12722609Y-3877709D01*
X12608490Y-3943596D01*
X12515296Y-4036790D01*
X12449409Y-4150909D01*
X12449408Y-4150914D01*
X12415300Y-4278208D01*
X5829841Y-4278208D01*
X5850500Y-4121288D01*
X5850500Y-3878712D01*
X5818838Y-3638211D01*
X5756054Y-3403900D01*
X5676798Y-3212559D01*
X5663227Y-3179795D01*
X5663226Y-3179794D01*
X5663224Y-3179788D01*
X5541936Y-2969711D01*
X5484461Y-2894808D01*
X5394270Y-2777268D01*
X5394268Y-2777266D01*
X5394265Y-2777262D01*
X5222738Y-2605735D01*
X5222733Y-2605731D01*
X5222731Y-2605729D01*
X5030292Y-2458066D01*
X5030289Y-2458064D01*
X4820212Y-2336776D01*
X4820208Y-2336774D01*
X4820204Y-2336772D01*
X4596105Y-2243948D01*
X4596104Y-2243947D01*
X4596100Y-2243946D01*
X4361789Y-2181162D01*
X4361786Y-2181161D01*
X4361784Y-2181161D01*
X4121289Y-2149500D01*
X4121288Y-2149500D01*
X3878712Y-2149500D01*
X3878710Y-2149500D01*
X3638218Y-2181161D01*
X3638213Y-2181161D01*
X3403907Y-2243944D01*
X3403894Y-2243948D01*
X3179795Y-2336772D01*
X2969707Y-2458066D01*
X2777268Y-2605729D01*
X2605729Y-2777268D01*
X2458066Y-2969707D01*
X2409463Y-3053890D01*
X2342076Y-3170609D01*
X2336772Y-3179795D01*
X2243948Y-3403894D01*
X2243944Y-3403907D01*
X2181161Y-3638213D01*
X2181161Y-3638218D01*
X2149500Y-3878710D01*
X500500Y-3878710D01*
X500500Y-3002984D01*
X500681Y-2997007D01*
X502332Y-2969707D01*
X518362Y-2704687D01*
X519801Y-2692836D01*
X572052Y-2407714D01*
X574906Y-2396131D01*
X661152Y-2119355D01*
X665374Y-2108224D01*
X784349Y-1843873D01*
X789898Y-1833302D01*
X939860Y-1585233D01*
X946631Y-1575423D01*
X950717Y-1570208D01*
X26877300Y-1570208D01*
X26877300Y-1701992D01*
X26889940Y-1749164D01*
X26911409Y-1829290D01*
X26977296Y-1943409D01*
X26977298Y-1943411D01*
X26977300Y-1943414D01*
X27070486Y-2036600D01*
X27070488Y-2036601D01*
X27070490Y-2036603D01*
X27184610Y-2102490D01*
X27184608Y-2102490D01*
X27184612Y-2102491D01*
X27184614Y-2102492D01*
X27311908Y-2136600D01*
X27311910Y-2136600D01*
X27443690Y-2136600D01*
X27443692Y-2136600D01*
X27570986Y-2102492D01*
X27570988Y-2102490D01*
X27570990Y-2102490D01*
X27685109Y-2036603D01*
X27685109Y-2036602D01*
X27685114Y-2036600D01*
X27778300Y-1943414D01*
X27812464Y-1884240D01*
X27844190Y-1829290D01*
X27844190Y-1829288D01*
X27844192Y-1829286D01*
X27878300Y-1701992D01*
X27878300Y-1636935D01*
X27897207Y-1578744D01*
X27907296Y-1566931D01*
X28052531Y-1421696D01*
X28107048Y-1393919D01*
X28122535Y-1392700D01*
X29460500Y-1392700D01*
X29518691Y-1411607D01*
X29554655Y-1461107D01*
X29559500Y-1491700D01*
X29559500Y-3139746D01*
X29559501Y-3139758D01*
X29571132Y-3198227D01*
X29571134Y-3198233D01*
X29587721Y-3223057D01*
X29615448Y-3264552D01*
X29681769Y-3308867D01*
X29726231Y-3317711D01*
X29740241Y-3320498D01*
X29740246Y-3320498D01*
X29740252Y-3320500D01*
X29740253Y-3320500D01*
X31479747Y-3320500D01*
X31479748Y-3320500D01*
X31538231Y-3308867D01*
X31604552Y-3264552D01*
X31648867Y-3198231D01*
X31660500Y-3139748D01*
X31660500Y-1491700D01*
X31679407Y-1433509D01*
X31728907Y-1397545D01*
X31759500Y-1392700D01*
X47542661Y-1392700D01*
X47600852Y-1411607D01*
X47636816Y-1461107D01*
X47636816Y-1522293D01*
X47612666Y-1561701D01*
X47589120Y-1585248D01*
X47574020Y-1600348D01*
X47459058Y-1772402D01*
X47379869Y-1963581D01*
X47339500Y-2166532D01*
X47339500Y-2373467D01*
X47379869Y-2576418D01*
X47459058Y-2767597D01*
X47574020Y-2939651D01*
X47574023Y-2939655D01*
X47720345Y-3085977D01*
X47892402Y-3200941D01*
X48083580Y-3280130D01*
X48286535Y-3320500D01*
X48286536Y-3320500D01*
X48493464Y-3320500D01*
X48493465Y-3320500D01*
X48696420Y-3280130D01*
X48887598Y-3200941D01*
X49059655Y-3085977D01*
X49205977Y-2939655D01*
X49320941Y-2767598D01*
X49400130Y-2576420D01*
X49440500Y-2373465D01*
X49440500Y-2166535D01*
X49400130Y-1963580D01*
X49320941Y-1772402D01*
X49205977Y-1600345D01*
X49167333Y-1561701D01*
X49139558Y-1507187D01*
X49149129Y-1446755D01*
X49192394Y-1403490D01*
X49237339Y-1392700D01*
X49906865Y-1392700D01*
X49965056Y-1411607D01*
X49976869Y-1421696D01*
X50122104Y-1566931D01*
X50149881Y-1621448D01*
X50151100Y-1636935D01*
X50151100Y-1701992D01*
X50163740Y-1749164D01*
X50185209Y-1829290D01*
X50251096Y-1943409D01*
X50251098Y-1943411D01*
X50251100Y-1943414D01*
X50344286Y-2036600D01*
X50344288Y-2036601D01*
X50344290Y-2036603D01*
X50458410Y-2102490D01*
X50458408Y-2102490D01*
X50458412Y-2102491D01*
X50458414Y-2102492D01*
X50585708Y-2136600D01*
X50585710Y-2136600D01*
X50717490Y-2136600D01*
X50717492Y-2136600D01*
X50844786Y-2102492D01*
X50844788Y-2102490D01*
X50844790Y-2102490D01*
X50958909Y-2036603D01*
X50958909Y-2036602D01*
X50958914Y-2036600D01*
X51052100Y-1943414D01*
X51086264Y-1884240D01*
X51117990Y-1829290D01*
X51117990Y-1829288D01*
X51117992Y-1829286D01*
X51152100Y-1701992D01*
X51152100Y-1570208D01*
X51117992Y-1442914D01*
X51117990Y-1442911D01*
X51117990Y-1442909D01*
X51052103Y-1328790D01*
X51052101Y-1328788D01*
X51052100Y-1328786D01*
X50958914Y-1235600D01*
X50958911Y-1235598D01*
X50958909Y-1235596D01*
X50844789Y-1169709D01*
X50844791Y-1169709D01*
X50795399Y-1156475D01*
X50717492Y-1135600D01*
X50717490Y-1135600D01*
X50652435Y-1135600D01*
X50594244Y-1116693D01*
X50582432Y-1106604D01*
X50282562Y-806735D01*
X50282557Y-806731D01*
X50208342Y-763883D01*
X50208344Y-763883D01*
X50176221Y-755276D01*
X50125553Y-741700D01*
X27989553Y-741700D01*
X27903847Y-741700D01*
X27853178Y-755276D01*
X27821056Y-763883D01*
X27746842Y-806731D01*
X27746837Y-806735D01*
X27446968Y-1106604D01*
X27392452Y-1134381D01*
X27376965Y-1135600D01*
X27311908Y-1135600D01*
X27234000Y-1156475D01*
X27184609Y-1169709D01*
X27070490Y-1235596D01*
X26977296Y-1328790D01*
X26911409Y-1442909D01*
X26908431Y-1454023D01*
X26877300Y-1570208D01*
X950717Y-1570208D01*
X1125406Y-1347234D01*
X1133318Y-1338302D01*
X1338302Y-1133318D01*
X1347234Y-1125406D01*
X1575423Y-946631D01*
X1585233Y-939860D01*
X1833302Y-789898D01*
X1843873Y-784349D01*
X2108224Y-665374D01*
X2119355Y-661152D01*
X2396131Y-574906D01*
X2407714Y-572052D01*
X2692836Y-519801D01*
X2704687Y-518362D01*
X2997008Y-500681D01*
X3002985Y-500500D01*
X3065892Y-500500D01*
X51657293Y-500500D01*
X51715484Y-519407D01*
G37*
%TD.AperFunction*%
%TA.AperFunction,Conductor*%
G36*
X35623056Y-31885107D02*
G01*
X35634869Y-31895196D01*
X35920168Y-32180495D01*
X35947945Y-32235012D01*
X35938374Y-32295444D01*
X35895109Y-32338709D01*
X35850164Y-32349499D01*
X35045725Y-32349499D01*
X35015305Y-32352352D01*
X35015296Y-32352354D01*
X34887116Y-32397206D01*
X34777855Y-32477844D01*
X34777845Y-32477854D01*
X34697207Y-32587115D01*
X34652355Y-32715295D01*
X34652353Y-32715304D01*
X34650802Y-32731844D01*
X34626544Y-32788015D01*
X34573902Y-32819200D01*
X34552235Y-32821600D01*
X33505922Y-32821600D01*
X33447731Y-32802693D01*
X33435919Y-32792604D01*
X33389915Y-32746600D01*
X33389909Y-32746596D01*
X33275789Y-32680709D01*
X33275791Y-32680709D01*
X33226399Y-32667475D01*
X33148492Y-32646600D01*
X33016708Y-32646600D01*
X32938800Y-32667475D01*
X32889409Y-32680709D01*
X32775290Y-32746596D01*
X32682096Y-32839790D01*
X32616209Y-32953909D01*
X32616208Y-32953914D01*
X32582100Y-33081208D01*
X32582100Y-33212992D01*
X32593538Y-33255679D01*
X32616209Y-33340290D01*
X32682096Y-33454409D01*
X32682098Y-33454411D01*
X32682100Y-33454414D01*
X32753184Y-33525498D01*
X32780960Y-33580013D01*
X32771389Y-33640445D01*
X32728124Y-33683710D01*
X32683179Y-33694500D01*
X24735735Y-33694500D01*
X24677544Y-33675593D01*
X24665731Y-33665504D01*
X24317496Y-33317269D01*
X24289719Y-33262752D01*
X24288500Y-33247265D01*
X24288500Y-33182209D01*
X24288500Y-33182208D01*
X24254392Y-33054914D01*
X24254390Y-33054911D01*
X24254390Y-33054909D01*
X24188503Y-32940790D01*
X24188501Y-32940788D01*
X24188500Y-32940786D01*
X24095314Y-32847600D01*
X24095311Y-32847598D01*
X24095309Y-32847596D01*
X23981189Y-32781709D01*
X23981191Y-32781709D01*
X23904469Y-32761152D01*
X23853892Y-32747600D01*
X23722108Y-32747600D01*
X23671531Y-32761152D01*
X23594809Y-32781709D01*
X23480690Y-32847596D01*
X23387496Y-32940790D01*
X23321609Y-33054909D01*
X23314562Y-33081209D01*
X23287500Y-33182208D01*
X23287500Y-33313992D01*
X23297104Y-33349834D01*
X23321609Y-33441290D01*
X23387496Y-33555409D01*
X23387498Y-33555411D01*
X23387500Y-33555414D01*
X23480686Y-33648600D01*
X23480688Y-33648601D01*
X23480690Y-33648603D01*
X23594810Y-33714490D01*
X23594808Y-33714490D01*
X23594812Y-33714491D01*
X23594814Y-33714492D01*
X23722108Y-33748600D01*
X23787165Y-33748600D01*
X23845356Y-33767507D01*
X23857169Y-33777596D01*
X24299435Y-34219862D01*
X24299434Y-34219862D01*
X24359442Y-34279869D01*
X24360038Y-34280465D01*
X24434262Y-34323318D01*
X24517047Y-34345500D01*
X29829861Y-34345500D01*
X29888052Y-34364407D01*
X29924016Y-34413907D01*
X29924016Y-34475093D01*
X29899866Y-34514501D01*
X29842187Y-34572181D01*
X29794020Y-34620348D01*
X29679058Y-34792402D01*
X29599869Y-34983581D01*
X29559500Y-35186532D01*
X29559500Y-35393467D01*
X29599869Y-35596418D01*
X29679058Y-35787597D01*
X29786369Y-35948200D01*
X29794023Y-35959655D01*
X29806566Y-35972198D01*
X29834342Y-36026713D01*
X29824771Y-36087145D01*
X29781506Y-36130410D01*
X29736561Y-36141200D01*
X25102235Y-36141200D01*
X25044044Y-36122293D01*
X25032231Y-36112204D01*
X24685320Y-35765293D01*
X24282262Y-35362235D01*
X24282259Y-35362233D01*
X24282258Y-35362232D01*
X24282257Y-35362231D01*
X24208042Y-35319383D01*
X24208044Y-35319383D01*
X24175921Y-35310776D01*
X24125253Y-35297200D01*
X15109635Y-35297200D01*
X15051444Y-35278293D01*
X15015480Y-35228793D01*
X15015480Y-35167607D01*
X15039631Y-35128196D01*
X18272630Y-31895196D01*
X18327147Y-31867419D01*
X18342634Y-31866200D01*
X35564865Y-31866200D01*
X35623056Y-31885107D01*
G37*
%TD.AperFunction*%
%TA.AperFunction,Conductor*%
G36*
X14167713Y-19369407D02*
G01*
X14175262Y-19375854D01*
X14177233Y-19377204D01*
X14177235Y-19377206D01*
X14280009Y-19422585D01*
X14305135Y-19425500D01*
X15646164Y-19425499D01*
X15704355Y-19444406D01*
X15716168Y-19454495D01*
X16567169Y-20305496D01*
X16594946Y-20360013D01*
X16585375Y-20420445D01*
X16542110Y-20463710D01*
X16497165Y-20474500D01*
X16434108Y-20474500D01*
X16361683Y-20493906D01*
X16306809Y-20508609D01*
X16192690Y-20574496D01*
X16192684Y-20574500D01*
X16146681Y-20620504D01*
X16092164Y-20648281D01*
X16076678Y-20649500D01*
X16006296Y-20649500D01*
X15948105Y-20630593D01*
X15912141Y-20581093D01*
X15912141Y-20519907D01*
X15915725Y-20510526D01*
X15922585Y-20494991D01*
X15925500Y-20469865D01*
X15925499Y-20180136D01*
X15922585Y-20155009D01*
X15877206Y-20052235D01*
X15797765Y-19972794D01*
X15694991Y-19927415D01*
X15694990Y-19927414D01*
X15694988Y-19927414D01*
X15669868Y-19924500D01*
X14305139Y-19924500D01*
X14305136Y-19924501D01*
X14280009Y-19927414D01*
X14177233Y-19972795D01*
X14169666Y-19977979D01*
X14168421Y-19976161D01*
X14125009Y-19998281D01*
X14109522Y-19999500D01*
X13542853Y-19999500D01*
X13457147Y-19999500D01*
X13374362Y-20021682D01*
X13300138Y-20064535D01*
X13239535Y-20125138D01*
X13196682Y-20199362D01*
X13174500Y-20282147D01*
X13174500Y-26042853D01*
X13196682Y-26125638D01*
X13239535Y-26199862D01*
X13300138Y-26260465D01*
X13374362Y-26303318D01*
X13457147Y-26325500D01*
X13457149Y-26325500D01*
X13542851Y-26325500D01*
X13542853Y-26325500D01*
X13623569Y-26303872D01*
X13649187Y-26300500D01*
X14202927Y-26300500D01*
X14240810Y-26308035D01*
X14249635Y-26311689D01*
X14249637Y-26311691D01*
X14285313Y-26318787D01*
X14319047Y-26325498D01*
X14319052Y-26325498D01*
X14319058Y-26325500D01*
X14319059Y-26325500D01*
X15440941Y-26325500D01*
X15440942Y-26325500D01*
X15510363Y-26311691D01*
X15589089Y-26259089D01*
X15641691Y-26180363D01*
X15655500Y-26110942D01*
X15655500Y-25889058D01*
X15641691Y-25819637D01*
X15637178Y-25812883D01*
X15631913Y-25805003D01*
X15615303Y-25746115D01*
X15631913Y-25694997D01*
X15638791Y-25684703D01*
X15641691Y-25680363D01*
X15655500Y-25610942D01*
X15655500Y-25389058D01*
X15641691Y-25319637D01*
X15631913Y-25305003D01*
X15615303Y-25246115D01*
X15631913Y-25194997D01*
X15633570Y-25192516D01*
X15641691Y-25180363D01*
X15655500Y-25110942D01*
X15655500Y-24889058D01*
X15641691Y-24819637D01*
X15615761Y-24780829D01*
X15589090Y-24740912D01*
X15589087Y-24740909D01*
X15510365Y-24688310D01*
X15510363Y-24688309D01*
X15510360Y-24688308D01*
X15510359Y-24688308D01*
X15440952Y-24674501D01*
X15440942Y-24674500D01*
X15440941Y-24674500D01*
X15304500Y-24674500D01*
X15246309Y-24655593D01*
X15210345Y-24606093D01*
X15205500Y-24575500D01*
X15205500Y-24073321D01*
X15224407Y-24015130D01*
X15234490Y-24003323D01*
X15280500Y-23957314D01*
X15346392Y-23843186D01*
X15380500Y-23715892D01*
X15380500Y-23584108D01*
X15346392Y-23456814D01*
X15346391Y-23456812D01*
X15344712Y-23450546D01*
X15347716Y-23449740D01*
X15343881Y-23401460D01*
X15375811Y-23349267D01*
X15432321Y-23325810D01*
X15440163Y-23325499D01*
X15669861Y-23325499D01*
X15669864Y-23325499D01*
X15694991Y-23322585D01*
X15797765Y-23277206D01*
X15877206Y-23197765D01*
X15922585Y-23094991D01*
X15925500Y-23069865D01*
X15925499Y-22780136D01*
X15922585Y-22755009D01*
X15877206Y-22652235D01*
X15877205Y-22652234D01*
X15873500Y-22643843D01*
X15875875Y-22642794D01*
X15862462Y-22597261D01*
X15875526Y-22557051D01*
X15873500Y-22556157D01*
X15877204Y-22547766D01*
X15877206Y-22547765D01*
X15922585Y-22444991D01*
X15925500Y-22419865D01*
X15925499Y-22130136D01*
X15922585Y-22105009D01*
X15917656Y-22093845D01*
X15915732Y-22089487D01*
X15909525Y-22028617D01*
X15940281Y-21975724D01*
X15996254Y-21951011D01*
X16006297Y-21950500D01*
X16676678Y-21950500D01*
X16734869Y-21969407D01*
X16746681Y-21979496D01*
X16792684Y-22025499D01*
X16792690Y-22025503D01*
X16906810Y-22091390D01*
X16906808Y-22091390D01*
X16906812Y-22091391D01*
X16906814Y-22091392D01*
X17034108Y-22125500D01*
X17034110Y-22125500D01*
X17165890Y-22125500D01*
X17165892Y-22125500D01*
X17293186Y-22091392D01*
X17293189Y-22091389D01*
X17295977Y-22090643D01*
X17357078Y-22093845D01*
X17404628Y-22132351D01*
X17420600Y-22186270D01*
X17420600Y-23614678D01*
X17401693Y-23672869D01*
X17377289Y-23694845D01*
X17377831Y-23695551D01*
X17372687Y-23699497D01*
X17279500Y-23792685D01*
X17279496Y-23792690D01*
X17213609Y-23906809D01*
X17213608Y-23906814D01*
X17179500Y-24034108D01*
X17179500Y-24165892D01*
X17202849Y-24253033D01*
X17213609Y-24293190D01*
X17279496Y-24407309D01*
X17279498Y-24407311D01*
X17279500Y-24407314D01*
X17325505Y-24453319D01*
X17353281Y-24507834D01*
X17354500Y-24523321D01*
X17354500Y-24575500D01*
X17335593Y-24633691D01*
X17286093Y-24669655D01*
X17255500Y-24674500D01*
X17119058Y-24674500D01*
X17119057Y-24674500D01*
X17119047Y-24674501D01*
X17049640Y-24688308D01*
X17049634Y-24688310D01*
X16970912Y-24740909D01*
X16970909Y-24740912D01*
X16918310Y-24819634D01*
X16918308Y-24819640D01*
X16904501Y-24889047D01*
X16904500Y-24889059D01*
X16904500Y-25110940D01*
X16904501Y-25110952D01*
X16918308Y-25180359D01*
X16918311Y-25180368D01*
X16928088Y-25195000D01*
X16944696Y-25253888D01*
X16928088Y-25305000D01*
X16918311Y-25319631D01*
X16918308Y-25319640D01*
X16904501Y-25389047D01*
X16904500Y-25389059D01*
X16904500Y-25610940D01*
X16904501Y-25610952D01*
X16918308Y-25680359D01*
X16918311Y-25680368D01*
X16928088Y-25695000D01*
X16944696Y-25753888D01*
X16928088Y-25805000D01*
X16918311Y-25819631D01*
X16918308Y-25819640D01*
X16904501Y-25889047D01*
X16904500Y-25889059D01*
X16904500Y-26110940D01*
X16904501Y-26110952D01*
X16918308Y-26180359D01*
X16918311Y-26180368D01*
X16928088Y-26195000D01*
X16944696Y-26253888D01*
X16928088Y-26305000D01*
X16918311Y-26319631D01*
X16918308Y-26319640D01*
X16904501Y-26389047D01*
X16904500Y-26389059D01*
X16904500Y-26610940D01*
X16904501Y-26610952D01*
X16918308Y-26680359D01*
X16918310Y-26680365D01*
X16970909Y-26759087D01*
X16970912Y-26759090D01*
X17039623Y-26805000D01*
X17049637Y-26811691D01*
X17102413Y-26822189D01*
X17119047Y-26825498D01*
X17119052Y-26825498D01*
X17119058Y-26825500D01*
X17255500Y-26825500D01*
X17313691Y-26844407D01*
X17349655Y-26893907D01*
X17354500Y-26924500D01*
X17354500Y-27242853D01*
X17376682Y-27325638D01*
X17419535Y-27399862D01*
X17480138Y-27460465D01*
X17554362Y-27503318D01*
X17637147Y-27525500D01*
X17637149Y-27525500D01*
X18722852Y-27525500D01*
X18722853Y-27525500D01*
X18724875Y-27524958D01*
X18726372Y-27525036D01*
X18729285Y-27524653D01*
X18729356Y-27525192D01*
X18785977Y-27528159D01*
X18833527Y-27566663D01*
X18849500Y-27620584D01*
X18849500Y-27665892D01*
X18871068Y-27746386D01*
X18883609Y-27793190D01*
X18949496Y-27907309D01*
X18949498Y-27907311D01*
X18949500Y-27907314D01*
X19042686Y-28000500D01*
X19042688Y-28000501D01*
X19042690Y-28000503D01*
X19156810Y-28066390D01*
X19156808Y-28066390D01*
X19156812Y-28066391D01*
X19156814Y-28066392D01*
X19284108Y-28100500D01*
X19284110Y-28100500D01*
X19415890Y-28100500D01*
X19415892Y-28100500D01*
X19543186Y-28066392D01*
X19543188Y-28066390D01*
X19543190Y-28066390D01*
X19657309Y-28000503D01*
X19657309Y-28000502D01*
X19657314Y-28000500D01*
X19750500Y-27907314D01*
X19799802Y-27821921D01*
X19816390Y-27793190D01*
X19816390Y-27793188D01*
X19816392Y-27793186D01*
X19850500Y-27665892D01*
X19850500Y-27534108D01*
X19816392Y-27406814D01*
X19816390Y-27406811D01*
X19816390Y-27406809D01*
X19750503Y-27292690D01*
X19750499Y-27292684D01*
X19704496Y-27246681D01*
X19676719Y-27192164D01*
X19675500Y-27176678D01*
X19675500Y-26074499D01*
X19694407Y-26016308D01*
X19743907Y-25980344D01*
X19774493Y-25975499D01*
X20680504Y-25975499D01*
X20704580Y-25972707D01*
X20803079Y-25929215D01*
X20879215Y-25853079D01*
X20922707Y-25754580D01*
X20925500Y-25730505D01*
X20925499Y-25469496D01*
X20922707Y-25445420D01*
X20879215Y-25346921D01*
X20877295Y-25345001D01*
X20875541Y-25341558D01*
X20874030Y-25339352D01*
X20874317Y-25339155D01*
X20849520Y-25290487D01*
X20859091Y-25230055D01*
X20877294Y-25204999D01*
X20879215Y-25203079D01*
X20922707Y-25104580D01*
X20925500Y-25080505D01*
X20925499Y-24819496D01*
X20925498Y-24819488D01*
X21174500Y-24819488D01*
X21174500Y-25080500D01*
X21174501Y-25080503D01*
X21177293Y-25104581D01*
X21210757Y-25180368D01*
X21220785Y-25203079D01*
X21296921Y-25279215D01*
X21395420Y-25322707D01*
X21419495Y-25325500D01*
X22355504Y-25325499D01*
X22379580Y-25322707D01*
X22446094Y-25293337D01*
X22506961Y-25287129D01*
X22556082Y-25313896D01*
X22592686Y-25350500D01*
X22592688Y-25350501D01*
X22592690Y-25350503D01*
X22706810Y-25416390D01*
X22706808Y-25416390D01*
X22706812Y-25416391D01*
X22706814Y-25416392D01*
X22787865Y-25438109D01*
X22839179Y-25471433D01*
X22861106Y-25528555D01*
X22845270Y-25587655D01*
X22832247Y-25603738D01*
X22812001Y-25623984D01*
X22811996Y-25623990D01*
X22746109Y-25738109D01*
X22741960Y-25753593D01*
X22724260Y-25819655D01*
X22715828Y-25851123D01*
X22682504Y-25902437D01*
X22625382Y-25924364D01*
X22620201Y-25924500D01*
X22507376Y-25924500D01*
X22467390Y-25916065D01*
X22379580Y-25877293D01*
X22379577Y-25877292D01*
X22379576Y-25877292D01*
X22355508Y-25874500D01*
X21419499Y-25874500D01*
X21419496Y-25874501D01*
X21395418Y-25877293D01*
X21296922Y-25920784D01*
X21296921Y-25920785D01*
X21220785Y-25996921D01*
X21198388Y-26047646D01*
X21177292Y-26095423D01*
X21174500Y-26119488D01*
X21174500Y-26380500D01*
X21174500Y-26380502D01*
X21174501Y-26380504D01*
X21177293Y-26404580D01*
X21220785Y-26503079D01*
X21296921Y-26579215D01*
X21395420Y-26622707D01*
X21419495Y-26625500D01*
X22355504Y-26625499D01*
X22379580Y-26622707D01*
X22467387Y-26583935D01*
X22507376Y-26575500D01*
X22936651Y-26575500D01*
X22936653Y-26575500D01*
X23019439Y-26553318D01*
X23019441Y-26553316D01*
X23019443Y-26553316D01*
X23093657Y-26510468D01*
X23093658Y-26510467D01*
X23093662Y-26510465D01*
X23101050Y-26503077D01*
X23143332Y-26460796D01*
X23197849Y-26433019D01*
X23213335Y-26431800D01*
X23278390Y-26431800D01*
X23278392Y-26431800D01*
X23405686Y-26397692D01*
X23405688Y-26397690D01*
X23405690Y-26397690D01*
X23519809Y-26331803D01*
X23519809Y-26331802D01*
X23519814Y-26331800D01*
X23613000Y-26238614D01*
X23635006Y-26200499D01*
X23678890Y-26124490D01*
X23678890Y-26124488D01*
X23678892Y-26124486D01*
X23713000Y-25997192D01*
X23713000Y-25865408D01*
X23678892Y-25738114D01*
X23678890Y-25738111D01*
X23678890Y-25738109D01*
X23613003Y-25623990D01*
X23613001Y-25623988D01*
X23613000Y-25623986D01*
X23519814Y-25530800D01*
X23519811Y-25530798D01*
X23519809Y-25530796D01*
X23405689Y-25464909D01*
X23405685Y-25464907D01*
X23324633Y-25443189D01*
X23273319Y-25409865D01*
X23251393Y-25352744D01*
X23267229Y-25293643D01*
X23280250Y-25277563D01*
X23300500Y-25257314D01*
X23302722Y-25253465D01*
X23366390Y-25143190D01*
X23366390Y-25143188D01*
X23366392Y-25143186D01*
X23400500Y-25015892D01*
X23400500Y-24884108D01*
X23366392Y-24756814D01*
X23366390Y-24756811D01*
X23366390Y-24756809D01*
X23300503Y-24642690D01*
X23300501Y-24642688D01*
X23300500Y-24642686D01*
X23207314Y-24549500D01*
X23207311Y-24549498D01*
X23207309Y-24549496D01*
X23093189Y-24483609D01*
X23093191Y-24483609D01*
X23043799Y-24470375D01*
X22965892Y-24449500D01*
X22834108Y-24449500D01*
X22756200Y-24470375D01*
X22706809Y-24483609D01*
X22592690Y-24549496D01*
X22592684Y-24549501D01*
X22556084Y-24586101D01*
X22501567Y-24613878D01*
X22446094Y-24606662D01*
X22379580Y-24577293D01*
X22379577Y-24577292D01*
X22379576Y-24577292D01*
X22355508Y-24574500D01*
X21419499Y-24574500D01*
X21419496Y-24574501D01*
X21395418Y-24577293D01*
X21304862Y-24617278D01*
X21304860Y-24617279D01*
X21296921Y-24620785D01*
X21220785Y-24696921D01*
X21177294Y-24795419D01*
X21177292Y-24795423D01*
X21174500Y-24819488D01*
X20925498Y-24819488D01*
X20922707Y-24795420D01*
X20915658Y-24779457D01*
X20909448Y-24718590D01*
X20940202Y-24665695D01*
X20956722Y-24653731D01*
X20957435Y-24653318D01*
X20957439Y-24653318D01*
X21031662Y-24610465D01*
X21813462Y-23828665D01*
X21944632Y-23697496D01*
X21999148Y-23669719D01*
X22014635Y-23668500D01*
X22079690Y-23668500D01*
X22079692Y-23668500D01*
X22206986Y-23634392D01*
X22206988Y-23634390D01*
X22206990Y-23634390D01*
X22321109Y-23568503D01*
X22321109Y-23568502D01*
X22321114Y-23568500D01*
X22414300Y-23475314D01*
X22436787Y-23436365D01*
X22480190Y-23361190D01*
X22480190Y-23361188D01*
X22480192Y-23361186D01*
X22514300Y-23233892D01*
X22514300Y-23233889D01*
X22515147Y-23227458D01*
X22518315Y-23227875D01*
X22533207Y-23182044D01*
X22582707Y-23146080D01*
X22643893Y-23146080D01*
X22683304Y-23170231D01*
X24188204Y-24675131D01*
X24215981Y-24729648D01*
X24217200Y-24745135D01*
X24217200Y-24810192D01*
X24233803Y-24872154D01*
X24251309Y-24937490D01*
X24317196Y-25051609D01*
X24317198Y-25051611D01*
X24317200Y-25051614D01*
X24410386Y-25144800D01*
X24410388Y-25144801D01*
X24410390Y-25144803D01*
X24524510Y-25210690D01*
X24524508Y-25210690D01*
X24524512Y-25210691D01*
X24524514Y-25210692D01*
X24651808Y-25244800D01*
X24651810Y-25244800D01*
X24783590Y-25244800D01*
X24783592Y-25244800D01*
X24910886Y-25210692D01*
X24910888Y-25210690D01*
X24910890Y-25210690D01*
X25025009Y-25144803D01*
X25025009Y-25144802D01*
X25025014Y-25144800D01*
X25118200Y-25051614D01*
X25132679Y-25026536D01*
X25184090Y-24937490D01*
X25184090Y-24937488D01*
X25184092Y-24937486D01*
X25218200Y-24810192D01*
X25218200Y-24785134D01*
X25237107Y-24726943D01*
X25286607Y-24690979D01*
X25347793Y-24690979D01*
X25387201Y-24715128D01*
X29811933Y-29139859D01*
X29811935Y-29139862D01*
X29872538Y-29200465D01*
X29918140Y-29226793D01*
X29926917Y-29231860D01*
X29967858Y-29277330D01*
X29974252Y-29338181D01*
X29943659Y-29391168D01*
X29940394Y-29393974D01*
X29794020Y-29540348D01*
X29679058Y-29712402D01*
X29599869Y-29903581D01*
X29559500Y-30106532D01*
X29559500Y-30313467D01*
X29599869Y-30516418D01*
X29679058Y-30707597D01*
X29794020Y-30879651D01*
X29794023Y-30879655D01*
X29940345Y-31025977D01*
X29940348Y-31025979D01*
X29940350Y-31025981D01*
X29952178Y-31033884D01*
X29990058Y-31081933D01*
X29992461Y-31143071D01*
X29958469Y-31193945D01*
X29901066Y-31215124D01*
X29897178Y-31215200D01*
X18209653Y-31215200D01*
X18123947Y-31215200D01*
X18041161Y-31237382D01*
X18041160Y-31237382D01*
X18041158Y-31237383D01*
X18013561Y-31253317D01*
X17966936Y-31280235D01*
X17906334Y-31340837D01*
X17906335Y-31340838D01*
X14429169Y-34818004D01*
X14374652Y-34845781D01*
X14359165Y-34847000D01*
X11818346Y-34847000D01*
X11760155Y-34828093D01*
X11724191Y-34778593D01*
X11724191Y-34717407D01*
X11759558Y-34668345D01*
X11776769Y-34655642D01*
X11822150Y-34622150D01*
X11902793Y-34512882D01*
X11947646Y-34384699D01*
X11950499Y-34354273D01*
X11950500Y-34354273D01*
X11950500Y-33345727D01*
X11950499Y-33345725D01*
X11949989Y-33340286D01*
X11947646Y-33315301D01*
X11902793Y-33187118D01*
X11899169Y-33182208D01*
X11822154Y-33077855D01*
X11822152Y-33077853D01*
X11822150Y-33077850D01*
X11822146Y-33077847D01*
X11822144Y-33077845D01*
X11712883Y-32997207D01*
X11584703Y-32952355D01*
X11584694Y-32952353D01*
X11554274Y-32949500D01*
X11554266Y-32949500D01*
X10750835Y-32949500D01*
X10692644Y-32930593D01*
X10680831Y-32920504D01*
X9708060Y-31947733D01*
X9680283Y-31893216D01*
X9689854Y-31832784D01*
X9719276Y-31798074D01*
X9753001Y-31773184D01*
X9822150Y-31722150D01*
X9902793Y-31612882D01*
X9947646Y-31484699D01*
X9950499Y-31454273D01*
X9950500Y-31454273D01*
X9950500Y-30445727D01*
X9950499Y-30445725D01*
X9947646Y-30415305D01*
X9947646Y-30415301D01*
X9902793Y-30287118D01*
X9822150Y-30177850D01*
X9822146Y-30177847D01*
X9822144Y-30177845D01*
X9712883Y-30097207D01*
X9623381Y-30065889D01*
X9574701Y-30028824D01*
X9557104Y-29970224D01*
X9570342Y-29922945D01*
X9616392Y-29843186D01*
X9650500Y-29715892D01*
X9650500Y-29584108D01*
X9616392Y-29456814D01*
X9616390Y-29456811D01*
X9616390Y-29456809D01*
X9550503Y-29342690D01*
X9550501Y-29342688D01*
X9550500Y-29342686D01*
X9457314Y-29249500D01*
X9457311Y-29249498D01*
X9457309Y-29249496D01*
X9343189Y-29183609D01*
X9343191Y-29183609D01*
X9293799Y-29170375D01*
X9215892Y-29149500D01*
X9084108Y-29149500D01*
X9006200Y-29170375D01*
X8956809Y-29183609D01*
X8842690Y-29249496D01*
X8749496Y-29342690D01*
X8683609Y-29456809D01*
X8675488Y-29487118D01*
X8649500Y-29584108D01*
X8649500Y-29715892D01*
X8660272Y-29756093D01*
X8683608Y-29843187D01*
X8729657Y-29922945D01*
X8742378Y-29982793D01*
X8717491Y-30038689D01*
X8676618Y-30065889D01*
X8587116Y-30097207D01*
X8477855Y-30177845D01*
X8477845Y-30177855D01*
X8397207Y-30287116D01*
X8352355Y-30415296D01*
X8352353Y-30415305D01*
X8349500Y-30445725D01*
X8349500Y-31454274D01*
X8352353Y-31484694D01*
X8352355Y-31484703D01*
X8397207Y-31612883D01*
X8477845Y-31722144D01*
X8477847Y-31722146D01*
X8477850Y-31722150D01*
X8477853Y-31722152D01*
X8477855Y-31722154D01*
X8587116Y-31802792D01*
X8587117Y-31802792D01*
X8587118Y-31802793D01*
X8715301Y-31847646D01*
X8745734Y-31850500D01*
X8745742Y-31850500D01*
X8746328Y-31850555D01*
X8802499Y-31874813D01*
X8832712Y-31923500D01*
X8846683Y-31975643D01*
X8889531Y-32049857D01*
X8889532Y-32049858D01*
X8889533Y-32049859D01*
X8889535Y-32049862D01*
X9317517Y-32477844D01*
X9620169Y-32780496D01*
X9647946Y-32835013D01*
X9638375Y-32895445D01*
X9595110Y-32938710D01*
X9550165Y-32949500D01*
X8745725Y-32949500D01*
X8715305Y-32952353D01*
X8715296Y-32952355D01*
X8587116Y-32997207D01*
X8477855Y-33077845D01*
X8477845Y-33077855D01*
X8397207Y-33187116D01*
X8352355Y-33315296D01*
X8352353Y-33315305D01*
X8349500Y-33345725D01*
X8349500Y-34149165D01*
X8330593Y-34207356D01*
X8320504Y-34219169D01*
X7995269Y-34544404D01*
X7940752Y-34572181D01*
X7925265Y-34573400D01*
X7721144Y-34573400D01*
X7662953Y-34554493D01*
X7626989Y-34504993D01*
X7626989Y-34443807D01*
X7627700Y-34441702D01*
X7635234Y-34420170D01*
X7647646Y-34384699D01*
X7650499Y-34354273D01*
X7650500Y-34354273D01*
X7650500Y-33345727D01*
X7650499Y-33345725D01*
X7649989Y-33340286D01*
X7647646Y-33315301D01*
X7602793Y-33187118D01*
X7599169Y-33182208D01*
X7522154Y-33077855D01*
X7522152Y-33077853D01*
X7522150Y-33077850D01*
X7522146Y-33077847D01*
X7522144Y-33077845D01*
X7412883Y-32997207D01*
X7284703Y-32952355D01*
X7284694Y-32952353D01*
X7254274Y-32949500D01*
X7254266Y-32949500D01*
X6450835Y-32949500D01*
X6392644Y-32930593D01*
X6380831Y-32920504D01*
X5408060Y-31947733D01*
X5380283Y-31893216D01*
X5389854Y-31832784D01*
X5419276Y-31798074D01*
X5453001Y-31773184D01*
X5522150Y-31722150D01*
X5602793Y-31612882D01*
X5647646Y-31484699D01*
X5650499Y-31454273D01*
X5650500Y-31454273D01*
X5650500Y-30445727D01*
X5650499Y-30445725D01*
X5647646Y-30415305D01*
X5647646Y-30415301D01*
X5602793Y-30287118D01*
X5522150Y-30177850D01*
X5522146Y-30177847D01*
X5522144Y-30177845D01*
X5412883Y-30097207D01*
X5299124Y-30057401D01*
X5250444Y-30020336D01*
X5232847Y-29961735D01*
X5249474Y-29914215D01*
X5247256Y-29912934D01*
X5316390Y-29793190D01*
X5316390Y-29793188D01*
X5316392Y-29793186D01*
X5350500Y-29665892D01*
X5350500Y-29534108D01*
X5316392Y-29406814D01*
X5316390Y-29406811D01*
X5316390Y-29406809D01*
X5250503Y-29292690D01*
X5250501Y-29292688D01*
X5250500Y-29292686D01*
X5157314Y-29199500D01*
X5157311Y-29199498D01*
X5141269Y-29190236D01*
X5100329Y-29144766D01*
X5093934Y-29083916D01*
X5124527Y-29030928D01*
X5180423Y-29006042D01*
X5190770Y-29005500D01*
X5234273Y-29005500D01*
X5234273Y-29005499D01*
X5264699Y-29002646D01*
X5392882Y-28957793D01*
X5502150Y-28877150D01*
X5582793Y-28767882D01*
X5627646Y-28639699D01*
X5630499Y-28609273D01*
X5630500Y-28609273D01*
X5630500Y-27793065D01*
X5649407Y-27734874D01*
X5659475Y-27723083D01*
X6047871Y-27334511D01*
X6102381Y-27306722D01*
X6117890Y-27305500D01*
X8004165Y-27305500D01*
X8062356Y-27324407D01*
X8074169Y-27334496D01*
X8532739Y-27793065D01*
X8989533Y-28249859D01*
X8989535Y-28249862D01*
X9050138Y-28310465D01*
X9071957Y-28323062D01*
X9124362Y-28353318D01*
X9207145Y-28375500D01*
X9207147Y-28375501D01*
X9207148Y-28375501D01*
X9292854Y-28375501D01*
X9292854Y-28375500D01*
X9375639Y-28353318D01*
X9449862Y-28310465D01*
X9510465Y-28249862D01*
X9553318Y-28175639D01*
X9575501Y-28092853D01*
X9575501Y-28007148D01*
X9575501Y-28001086D01*
X9575500Y-28001068D01*
X9575500Y-26148037D01*
X9594407Y-26089846D01*
X9643907Y-26053882D01*
X9665255Y-26049470D01*
X9675712Y-26048488D01*
X9684699Y-26047646D01*
X9812882Y-26002793D01*
X9922150Y-25922150D01*
X10002793Y-25812882D01*
X10047646Y-25684699D01*
X10050499Y-25654273D01*
X10050500Y-25654273D01*
X10050500Y-24649833D01*
X10069407Y-24591642D01*
X10118907Y-24555678D01*
X10180093Y-24555678D01*
X10219499Y-24579826D01*
X10420505Y-24780831D01*
X10448281Y-24835346D01*
X10449500Y-24850833D01*
X10449500Y-25654274D01*
X10452353Y-25684694D01*
X10452355Y-25684703D01*
X10497207Y-25812883D01*
X10577845Y-25922144D01*
X10577847Y-25922146D01*
X10577850Y-25922150D01*
X10577853Y-25922152D01*
X10577855Y-25922154D01*
X10687116Y-26002792D01*
X10687117Y-26002792D01*
X10687118Y-26002793D01*
X10815301Y-26047646D01*
X10845725Y-26050499D01*
X10845727Y-26050500D01*
X10845734Y-26050500D01*
X11654273Y-26050500D01*
X11654273Y-26050499D01*
X11684699Y-26047646D01*
X11812882Y-26002793D01*
X11922150Y-25922150D01*
X12002793Y-25812882D01*
X12047646Y-25684699D01*
X12050499Y-25654273D01*
X12050500Y-25654273D01*
X12050500Y-24645727D01*
X12050499Y-24645725D01*
X12047646Y-24615301D01*
X12002793Y-24487118D01*
X12000203Y-24483609D01*
X11922154Y-24377855D01*
X11922152Y-24377853D01*
X11922150Y-24377850D01*
X11922146Y-24377847D01*
X11922144Y-24377845D01*
X11812883Y-24297207D01*
X11684703Y-24252355D01*
X11684694Y-24252353D01*
X11654274Y-24249500D01*
X11654266Y-24249500D01*
X10850834Y-24249500D01*
X10792643Y-24230593D01*
X10780833Y-24220507D01*
X10780295Y-24219968D01*
X10752519Y-24165453D01*
X10751300Y-24149966D01*
X10751300Y-22503121D01*
X10770207Y-22444930D01*
X10780290Y-22433123D01*
X10826300Y-22387114D01*
X10842854Y-22358442D01*
X10892190Y-22272990D01*
X10892190Y-22272988D01*
X10892192Y-22272986D01*
X10926300Y-22145692D01*
X10926300Y-22013908D01*
X10892192Y-21886614D01*
X10892190Y-21886611D01*
X10892190Y-21886609D01*
X10826303Y-21772490D01*
X10826301Y-21772488D01*
X10826300Y-21772486D01*
X10733114Y-21679300D01*
X10733111Y-21679298D01*
X10733109Y-21679296D01*
X10618989Y-21613409D01*
X10618991Y-21613409D01*
X10554148Y-21596035D01*
X10491692Y-21579300D01*
X10470033Y-21579300D01*
X10411842Y-21560393D01*
X10375878Y-21510893D01*
X10375878Y-21449707D01*
X10400029Y-21410296D01*
X11310826Y-20499500D01*
X12430830Y-19379496D01*
X12485347Y-19351719D01*
X12500834Y-19350500D01*
X14109522Y-19350500D01*
X14167713Y-19369407D01*
G37*
%TD.AperFunction*%
%TA.AperFunction,Conductor*%
G36*
X8883691Y-22444407D02*
G01*
X8919655Y-22493907D01*
X8924500Y-22524500D01*
X8924500Y-24151962D01*
X8905593Y-24210153D01*
X8856093Y-24246117D01*
X8834748Y-24250529D01*
X8815304Y-24252353D01*
X8815296Y-24252355D01*
X8687116Y-24297207D01*
X8577855Y-24377845D01*
X8577845Y-24377855D01*
X8497207Y-24487116D01*
X8452355Y-24615296D01*
X8452353Y-24615305D01*
X8449500Y-24645725D01*
X8449500Y-25654274D01*
X8452353Y-25684694D01*
X8452355Y-25684703D01*
X8497207Y-25812883D01*
X8577845Y-25922144D01*
X8577847Y-25922146D01*
X8577850Y-25922150D01*
X8577853Y-25922152D01*
X8577855Y-25922154D01*
X8687116Y-26002792D01*
X8687117Y-26002792D01*
X8687118Y-26002793D01*
X8815301Y-26047646D01*
X8823221Y-26048388D01*
X8834745Y-26049470D01*
X8890915Y-26073728D01*
X8922100Y-26126370D01*
X8924500Y-26148037D01*
X8924500Y-27025165D01*
X8905593Y-27083356D01*
X8856093Y-27119320D01*
X8794907Y-27119320D01*
X8755497Y-27095169D01*
X8379862Y-26719535D01*
X8379857Y-26719531D01*
X8305642Y-26676683D01*
X8305644Y-26676683D01*
X8273521Y-26668076D01*
X8222853Y-26654500D01*
X8222851Y-26654500D01*
X5991394Y-26654500D01*
X5991213Y-26654488D01*
X5941950Y-26654499D01*
X5941926Y-26654500D01*
X5073635Y-26654500D01*
X5015444Y-26635593D01*
X5003631Y-26625504D01*
X4652631Y-26274504D01*
X4624854Y-26219987D01*
X4634425Y-26159555D01*
X4677690Y-26116290D01*
X4722635Y-26105500D01*
X5234273Y-26105500D01*
X5234273Y-26105499D01*
X5264699Y-26102646D01*
X5392882Y-26057793D01*
X5502150Y-25977150D01*
X5582793Y-25867882D01*
X5627646Y-25739699D01*
X5630499Y-25709273D01*
X5630500Y-25709273D01*
X5630500Y-24938935D01*
X5649407Y-24880744D01*
X5659496Y-24868931D01*
X6169431Y-24358996D01*
X6223948Y-24331219D01*
X6239435Y-24330000D01*
X6304490Y-24330000D01*
X6304492Y-24330000D01*
X6431786Y-24295892D01*
X6431788Y-24295890D01*
X6431790Y-24295890D01*
X6545909Y-24230003D01*
X6545909Y-24230002D01*
X6545914Y-24230000D01*
X6639100Y-24136814D01*
X6666397Y-24089535D01*
X6704990Y-24022690D01*
X6704990Y-24022688D01*
X6704992Y-24022686D01*
X6739100Y-23895392D01*
X6739100Y-23763608D01*
X6704992Y-23636314D01*
X6704990Y-23636311D01*
X6704990Y-23636309D01*
X6639103Y-23522190D01*
X6639101Y-23522188D01*
X6639100Y-23522186D01*
X6576415Y-23459501D01*
X6548640Y-23404987D01*
X6558211Y-23344555D01*
X6601476Y-23301290D01*
X6646421Y-23290500D01*
X7330478Y-23290500D01*
X7388669Y-23309407D01*
X7400481Y-23319496D01*
X7446484Y-23365499D01*
X7446490Y-23365503D01*
X7560610Y-23431390D01*
X7560608Y-23431390D01*
X7560612Y-23431391D01*
X7560614Y-23431392D01*
X7687908Y-23465500D01*
X7687910Y-23465500D01*
X7819690Y-23465500D01*
X7819692Y-23465500D01*
X7946986Y-23431392D01*
X7946988Y-23431390D01*
X7946990Y-23431390D01*
X8061109Y-23365503D01*
X8061109Y-23365502D01*
X8061114Y-23365500D01*
X8154300Y-23272314D01*
X8167199Y-23249972D01*
X8220190Y-23158190D01*
X8220190Y-23158188D01*
X8220192Y-23158186D01*
X8254300Y-23030892D01*
X8254300Y-22899108D01*
X8220192Y-22771814D01*
X8220190Y-22771811D01*
X8220190Y-22771809D01*
X8154303Y-22657690D01*
X8154301Y-22657688D01*
X8154300Y-22657686D01*
X8091115Y-22594501D01*
X8063340Y-22539987D01*
X8072911Y-22479555D01*
X8116176Y-22436290D01*
X8161121Y-22425500D01*
X8825500Y-22425500D01*
X8883691Y-22444407D01*
G37*
%TD.AperFunction*%
%TA.AperFunction,Conductor*%
G36*
X8407056Y-20936407D02*
G01*
X8418869Y-20946496D01*
X8489804Y-21017431D01*
X8517581Y-21071948D01*
X8518800Y-21087435D01*
X8518800Y-21152492D01*
X8548748Y-21264261D01*
X8552909Y-21279790D01*
X8618796Y-21393909D01*
X8618798Y-21393911D01*
X8618800Y-21393914D01*
X8711986Y-21487100D01*
X8711988Y-21487101D01*
X8711990Y-21487103D01*
X8826110Y-21552990D01*
X8826108Y-21552990D01*
X8826112Y-21552991D01*
X8826114Y-21552992D01*
X8926439Y-21579873D01*
X8977752Y-21613197D01*
X8999679Y-21670319D01*
X8983843Y-21729419D01*
X8936294Y-21767924D01*
X8900815Y-21774500D01*
X7074613Y-21774500D01*
X7016422Y-21755593D01*
X6980458Y-21706093D01*
X6980458Y-21644907D01*
X6984049Y-21635511D01*
X6997707Y-21604580D01*
X7000500Y-21580505D01*
X7000499Y-21319496D01*
X6997707Y-21295420D01*
X6995910Y-21291352D01*
X6989699Y-21230484D01*
X7016468Y-21181357D01*
X7251331Y-20946496D01*
X7305847Y-20918719D01*
X7321334Y-20917500D01*
X8348865Y-20917500D01*
X8407056Y-20936407D01*
G37*
%TD.AperFunction*%
%TA.AperFunction,Conductor*%
G36*
X679155Y-15864396D02*
G01*
X732846Y-15937145D01*
X732850Y-15937150D01*
X732853Y-15937152D01*
X732855Y-15937154D01*
X842116Y-16017792D01*
X842117Y-16017792D01*
X842118Y-16017793D01*
X970301Y-16062646D01*
X1000725Y-16065499D01*
X1000727Y-16065500D01*
X1000734Y-16065500D01*
X1816666Y-16065500D01*
X1874857Y-16084407D01*
X1886670Y-16094496D01*
X2289704Y-16497530D01*
X2317481Y-16552047D01*
X2318700Y-16567534D01*
X2318700Y-18347466D01*
X2299793Y-18405657D01*
X2289704Y-18417469D01*
X1886672Y-18820502D01*
X1832155Y-18848280D01*
X1816668Y-18849499D01*
X1000725Y-18849499D01*
X970305Y-18852352D01*
X970296Y-18852354D01*
X842116Y-18897206D01*
X732855Y-18977844D01*
X732848Y-18977851D01*
X679155Y-19050603D01*
X629387Y-19086195D01*
X568204Y-19085737D01*
X518974Y-19049404D01*
X500500Y-18991814D01*
X500500Y-15923184D01*
X519407Y-15864993D01*
X568907Y-15829029D01*
X630093Y-15829029D01*
X679155Y-15864396D01*
G37*
%TD.AperFunction*%
%TA.AperFunction,Conductor*%
G36*
X679155Y-11504396D02*
G01*
X732846Y-11577145D01*
X732850Y-11577150D01*
X732853Y-11577152D01*
X732855Y-11577154D01*
X842116Y-11657792D01*
X842117Y-11657792D01*
X842118Y-11657793D01*
X970301Y-11702646D01*
X1000725Y-11705499D01*
X1000727Y-11705500D01*
X1000734Y-11705500D01*
X1816665Y-11705500D01*
X1874856Y-11724407D01*
X1886669Y-11734496D01*
X2245904Y-12093731D01*
X2273681Y-12148248D01*
X2274900Y-12163735D01*
X2274900Y-14031265D01*
X2255993Y-14089456D01*
X2245904Y-14101269D01*
X1886669Y-14460504D01*
X1832152Y-14488281D01*
X1816665Y-14489500D01*
X1000725Y-14489500D01*
X970305Y-14492353D01*
X970296Y-14492355D01*
X842116Y-14537207D01*
X732855Y-14617845D01*
X732848Y-14617852D01*
X679155Y-14690604D01*
X629387Y-14726196D01*
X568204Y-14725738D01*
X518974Y-14689405D01*
X500500Y-14631815D01*
X500500Y-11563184D01*
X519407Y-11504993D01*
X568907Y-11469029D01*
X630093Y-11469029D01*
X679155Y-11504396D01*
G37*
%TD.AperFunction*%
%TD*%
M02*
