M48
; DRILL file KiCad 10.0.6 date 2026-09-09T18:25:21
; FORMAT={-:-/ absolute / metric / decimal}
; #@! TF.CreationDate,2026-09-09T18:25:21+02:00
; #@! TF.GenerationSoftware,Kicad,Pcbnew,10.0.6
; #@! TF.FileFunction,MixedPlating,1,2
FMAT,2
METRIC
; #@! TA.AperFunction,Plated,PTH,ViaDrill
T1C0.300
; #@! TA.AperFunction,Plated,PTH,ComponentDrill
T2C0.800
; #@! TA.AperFunction,Plated,PTH,ComponentDrill
T3C1.000
; #@! TA.AperFunction,Plated,PTH,ComponentDrill
T4C1.200
; #@! TA.AperFunction,NonPlated,NPTH,ComponentDrill
T5C3.200
%
G90
G05
T1
X1.0Y-12.219
X1.0Y-16.579
X4.518Y-39.908
X4.85Y-29.6
X4.914Y-23.885
X6.239Y-23.829
X7.5Y-6.25
X7.5Y-13.75
X7.5Y-21.25
X7.754Y-22.965
X8.125Y-24.425
X9.019Y-21.087
X9.15Y-29.65
X10.426Y-22.08
X12.9Y-19.675
X12.916Y-4.344
X13.44Y-42.197
X14.88Y-23.65
X15.0Y-6.25
X15.0Y-13.75
X15.0Y-28.75
X16.5Y-20.975
X17.1Y-21.625
X17.68Y-24.1
X18.694Y-21.839
X19.35Y-27.6
X22.014Y-23.168
X22.185Y-18.736
X22.5Y-13.75
X22.5Y-21.25
X22.5Y-28.75
X22.5Y-36.25
X22.9Y-24.95
X23.212Y-25.931
X23.788Y-33.248
X24.485Y-19.163
X24.718Y-24.744
X27.378Y-1.636
X28.548Y-14.734
X28.799Y-16.218
X30.0Y-58.75
X32.446Y-60.386
X33.083Y-33.147
X35.754Y-16.199
X36.055Y-28.054
X36.055Y-52.623
X36.055Y-60.386
X37.5Y-58.75
X38.947Y-60.386
X44.732Y-57.279
X45.0Y-6.25
X45.0Y-13.75
X45.0Y-21.25
X45.0Y-28.75
X45.0Y-36.25
X45.0Y-58.75
X50.652Y-1.636
X52.5Y-13.75
X52.5Y-43.75
X52.5Y-51.25
X52.5Y-58.75
X54.58Y-3.138
X55.856Y-5.497
X57.324Y-3.236
X58.584Y-3.361
X62.07Y-33.981
X62.087Y-6.972
X65.347Y-27.305
X67.5Y-6.25
X67.5Y-51.25
X67.5Y-58.75
T2
X54.042Y-26.751
X57.542Y-26.751
T3
X30.61Y-2.27
X30.61Y-4.81
X30.61Y-7.35
X30.61Y-9.89
X30.61Y-12.43
X30.61Y-14.97
X30.61Y-17.51
X30.61Y-20.05
X30.61Y-22.59
X30.61Y-25.13
X30.61Y-27.67
X30.61Y-30.21
X30.61Y-32.75
X30.61Y-35.29
X30.61Y-37.83
X30.61Y-40.37
X30.61Y-42.91
X30.61Y-45.45
X30.61Y-47.99
X30.61Y-50.53
X48.39Y-2.27
X48.39Y-4.81
X48.39Y-7.35
X48.39Y-9.89
X48.39Y-12.43
X48.39Y-14.97
X48.39Y-17.51
X48.39Y-20.05
X48.39Y-22.59
X48.39Y-25.13
X48.39Y-27.67
X48.39Y-30.21
X48.39Y-32.75
X48.39Y-35.29
X48.39Y-37.83
X48.39Y-40.37
X48.39Y-42.91
X48.39Y-45.45
X48.39Y-47.99
X48.39Y-50.53
T4
X9.85Y-53.9
X13.35Y-53.9
X18.45Y-53.9
X21.95Y-53.9
X35.85Y-23.6
X39.35Y-23.6
X53.79Y-6.6
X57.29Y-6.6
X58.25Y-54.6
X61.75Y-54.6
X64.1Y-24.75
X66.64Y-24.75
X69.18Y-24.75
T5
X4.0Y-4.0
X4.0Y-61.0
X71.0Y-4.0
X71.0Y-61.0
M30
