%TF.GenerationSoftware,KiCad,Pcbnew,10.0.6*%
%TF.CreationDate,2026-09-09T18:25:20+02:00*%
%TF.ProjectId,Dimmer4,44696d6d-6572-4342-9e6b-696361645f70,rev?*%
%TF.SameCoordinates,Original*%
%TF.FileFunction,Copper,L2,Bot*%
%TF.FilePolarity,Positive*%
%FSLAX46Y46*%
G04 Gerber Fmt 4.6, Leading zero omitted, Abs format (unit mm)*
G04 Created by KiCad (PCBNEW 10.0.6) date 2026-09-09 18:25:20*
%MOMM*%
%LPD*%
G01*
G04 APERTURE LIST*
G04 Aperture macros list*
%AMRoundRect*
0 Rectangle with rounded corners*
0 $1 Rounding radius*
0 $2 $3 $4 $5 $6 $7 $8 $9 X,Y pos of 4 corners*
0 Add a 4 corners polygon primitive as box body*
4,1,4,$2,$3,$4,$5,$6,$7,$8,$9,$2,$3,0*
0 Add four circle primitives for the rounded corners*
1,1,$1+$1,$2,$3*
1,1,$1+$1,$4,$5*
1,1,$1+$1,$6,$7*
1,1,$1+$1,$8,$9*
0 Add four rect primitives between the rounded corners*
20,1,$1+$1,$2,$3,$4,$5,0*
20,1,$1+$1,$4,$5,$6,$7,0*
20,1,$1+$1,$6,$7,$8,$9,0*
20,1,$1+$1,$8,$9,$2,$3,0*%
G04 Aperture macros list end*
%TA.AperFunction,ComponentPad*%
%ADD10R,1.700000X2.500000*%
%TD*%
%TA.AperFunction,ComponentPad*%
%ADD11O,1.700000X2.500000*%
%TD*%
%TA.AperFunction,ComponentPad*%
%ADD12R,1.700000X1.700000*%
%TD*%
%TA.AperFunction,ComponentPad*%
%ADD13C,1.700000*%
%TD*%
%TA.AperFunction,ComponentPad*%
%ADD14RoundRect,0.250001X-0.949999X-0.949999X0.949999X-0.949999X0.949999X0.949999X-0.949999X0.949999X0*%
%TD*%
%TA.AperFunction,ComponentPad*%
%ADD15C,2.400000*%
%TD*%
%TA.AperFunction,ComponentPad*%
%ADD16RoundRect,0.250000X-0.550000X-0.550000X0.550000X-0.550000X0.550000X0.550000X-0.550000X0.550000X0*%
%TD*%
%TA.AperFunction,ComponentPad*%
%ADD17C,1.600000*%
%TD*%
%TA.AperFunction,SMDPad,CuDef*%
%ADD18R,2.510000X1.000000*%
%TD*%
%TA.AperFunction,SMDPad,CuDef*%
%ADD19R,3.150000X1.000000*%
%TD*%
%TA.AperFunction,SMDPad,CuDef*%
%ADD20RoundRect,0.135000X0.315000X1.165000X-0.315000X1.165000X-0.315000X-1.165000X0.315000X-1.165000X0*%
%TD*%
%TA.AperFunction,ViaPad*%
%ADD21C,0.600000*%
%TD*%
%TA.AperFunction,Conductor*%
%ADD22C,1.000000*%
%TD*%
%TA.AperFunction,Conductor*%
%ADD23C,0.250000*%
%TD*%
G04 APERTURE END LIST*
D10*
%TO.P,U90,1*%
%TO.N,/+24V*%
X64100000Y-24750000D03*
D11*
%TO.P,U90,2*%
%TO.N,GND*%
X66640000Y-24750000D03*
%TO.P,U90,3*%
%TO.N,/+5V_LOKAL*%
X69180000Y-24750000D03*
%TD*%
D12*
%TO.P,J105,1*%
%TO.N,/GP16*%
X48390000Y-50530000D03*
D13*
%TO.P,J105,2*%
%TO.N,/GP17*%
X48390000Y-47990000D03*
%TO.P,J105,3*%
%TO.N,GND*%
X48390000Y-45450000D03*
%TO.P,J105,4*%
%TO.N,/GP18*%
X48390000Y-42910000D03*
%TO.P,J105,5*%
%TO.N,/GP19*%
X48390000Y-40370000D03*
%TO.P,J105,6*%
%TO.N,/GP20*%
X48390000Y-37830000D03*
%TO.P,J105,7*%
%TO.N,/GP21*%
X48390000Y-35290000D03*
%TO.P,J105,8*%
%TO.N,GND*%
X48390000Y-32750000D03*
%TO.P,J105,9*%
%TO.N,/GP22*%
X48390000Y-30210000D03*
%TO.P,J105,10*%
%TO.N,unconnected-(J105-Pin_10-Pad10)*%
X48390000Y-27670000D03*
%TO.P,J105,11*%
%TO.N,/GP26*%
X48390000Y-25130000D03*
%TO.P,J105,12*%
%TO.N,/GP27*%
X48390000Y-22590000D03*
%TO.P,J105,13*%
%TO.N,GND*%
X48390000Y-20050000D03*
%TO.P,J105,14*%
%TO.N,/GP28*%
X48390000Y-17510000D03*
%TO.P,J105,15*%
%TO.N,unconnected-(J105-Pin_15-Pad15)*%
X48390000Y-14970000D03*
%TO.P,J105,16*%
%TO.N,3V3*%
X48390000Y-12430000D03*
%TO.P,J105,17*%
%TO.N,unconnected-(J105-Pin_17-Pad17)*%
X48390000Y-9890000D03*
%TO.P,J105,18*%
%TO.N,GND*%
X48390000Y-7350000D03*
%TO.P,J105,19*%
%TO.N,/VSYS*%
X48390000Y-4810000D03*
%TO.P,J105,20*%
%TO.N,unconnected-(J105-Pin_20-Pad20)*%
X48390000Y-2270000D03*
%TD*%
D14*
%TO.P,J8,1*%
%TO.N,/+24V*%
X58250000Y-54600000D03*
D15*
%TO.P,J8,2*%
%TO.N,/LED4*%
X61750000Y-54600000D03*
%TD*%
D12*
%TO.P,J100,1*%
%TO.N,/FLASH_TX*%
X30610000Y-2270000D03*
D13*
%TO.P,J100,2*%
%TO.N,/FLASH_RX*%
X30610000Y-4810000D03*
%TO.P,J100,3*%
%TO.N,GND*%
X30610000Y-7350000D03*
%TO.P,J100,4*%
%TO.N,unconnected-(J100-Pin_4-Pad4)*%
X30610000Y-9890000D03*
%TO.P,J100,5*%
%TO.N,/FLASH_MODE*%
X30610000Y-12430000D03*
%TO.P,J100,6*%
%TO.N,/I2C_SDA*%
X30610000Y-14970000D03*
%TO.P,J100,7*%
%TO.N,/I2C_SCL*%
X30610000Y-17510000D03*
%TO.P,J100,8*%
%TO.N,GND*%
X30610000Y-20050000D03*
%TO.P,J100,9*%
%TO.N,/NOTAUS*%
X30610000Y-22590000D03*
%TO.P,J100,10*%
%TO.N,/SEL_CLK*%
X30610000Y-25130000D03*
%TO.P,J100,11*%
%TO.N,/GP8*%
X30610000Y-27670000D03*
%TO.P,J100,12*%
%TO.N,/GP9*%
X30610000Y-30210000D03*
%TO.P,J100,13*%
%TO.N,GND*%
X30610000Y-32750000D03*
%TO.P,J100,14*%
%TO.N,/GP10*%
X30610000Y-35290000D03*
%TO.P,J100,15*%
%TO.N,/GP11*%
X30610000Y-37830000D03*
%TO.P,J100,16*%
%TO.N,/GP12*%
X30610000Y-40370000D03*
%TO.P,J100,17*%
%TO.N,/GP13*%
X30610000Y-42910000D03*
%TO.P,J100,18*%
%TO.N,GND*%
X30610000Y-45450000D03*
%TO.P,J100,19*%
%TO.N,/GP14*%
X30610000Y-47990000D03*
%TO.P,J100,20*%
%TO.N,/GP15*%
X30610000Y-50530000D03*
%TD*%
D14*
%TO.P,J6,1*%
%TO.N,/+24V*%
X9850000Y-53900000D03*
D15*
%TO.P,J6,2*%
%TO.N,/LED2*%
X13350000Y-53900000D03*
%TD*%
D14*
%TO.P,J90,1*%
%TO.N,/PWR_IN*%
X53790000Y-6600000D03*
D15*
%TO.P,J90,2*%
%TO.N,GND*%
X57290000Y-6600000D03*
%TD*%
D14*
%TO.P,J7,1*%
%TO.N,/+24V*%
X18450000Y-53900000D03*
D15*
%TO.P,J7,2*%
%TO.N,/LED3*%
X21950000Y-53900000D03*
%TD*%
D14*
%TO.P,J5,1*%
%TO.N,/+24V*%
X35850000Y-23600000D03*
D15*
%TO.P,J5,2*%
%TO.N,/LED1*%
X39350000Y-23600000D03*
%TD*%
D16*
%TO.P,C90,1*%
%TO.N,/+24V*%
X54042479Y-26751238D03*
D17*
%TO.P,C90,2*%
%TO.N,GND*%
X57542479Y-26751238D03*
%TD*%
D18*
%TO.P,J102,1*%
%TO.N,/SEL_OUT*%
X22245000Y-2750000D03*
%TO.P,J102,2*%
%TO.N,GND*%
X18935000Y-5290000D03*
%TD*%
D19*
%TO.P,J104,1*%
%TO.N,/+24V*%
X66295000Y-45500000D03*
%TO.P,J104,2*%
%TO.N,GND*%
X61245000Y-45500000D03*
%TO.P,J104,3*%
%TO.N,/+24V*%
X66295000Y-48040000D03*
%TO.P,J104,4*%
%TO.N,GND*%
X61245000Y-48040000D03*
%TD*%
D20*
%TO.P,J96,1*%
%TO.N,GND*%
X8000000Y-63000000D03*
%TO.P,J96,2*%
%TO.N,3V3*%
X10540000Y-63000000D03*
%TO.P,J96,3*%
X13080000Y-63000000D03*
%TO.P,J96,4*%
%TO.N,GND*%
X15620000Y-63000000D03*
%TD*%
%TO.P,J95,1*%
%TO.N,/GP8*%
X18160000Y-63000000D03*
%TO.P,J95,2*%
%TO.N,/GP9*%
X20700000Y-63000000D03*
%TO.P,J95,3*%
%TO.N,/GP10*%
X23240000Y-63000000D03*
%TO.P,J95,4*%
%TO.N,/GP11*%
X25780000Y-63000000D03*
%TO.P,J95,5*%
%TO.N,/GP12*%
X28320000Y-63000000D03*
%TO.P,J95,6*%
%TO.N,/GP13*%
X30860000Y-63000000D03*
%TO.P,J95,7*%
%TO.N,/GP14*%
X33400000Y-63000000D03*
%TO.P,J95,8*%
%TO.N,/GP15*%
X35940000Y-63000000D03*
%TO.P,J95,9*%
%TO.N,/GP16*%
X38480000Y-63000000D03*
%TO.P,J95,10*%
%TO.N,/GP17*%
X41020000Y-63000000D03*
%TO.P,J95,11*%
%TO.N,/GP18*%
X43560000Y-63000000D03*
%TO.P,J95,12*%
%TO.N,/GP19*%
X46100000Y-63000000D03*
%TO.P,J95,13*%
%TO.N,/GP20*%
X48640000Y-63000000D03*
%TO.P,J95,14*%
%TO.N,/GP21*%
X51180000Y-63000000D03*
%TO.P,J95,15*%
%TO.N,/GP22*%
X53720000Y-63000000D03*
%TO.P,J95,16*%
%TO.N,/GP26*%
X56260000Y-63000000D03*
%TO.P,J95,17*%
%TO.N,/GP27*%
X58800000Y-63000000D03*
%TO.P,J95,18*%
%TO.N,/GP28*%
X61340000Y-63000000D03*
%TD*%
D21*
%TO.N,GND*%
X45000000Y-6250000D03*
X15000000Y-28750000D03*
X45000000Y-58750000D03*
X52500000Y-58750000D03*
X30000000Y-58750000D03*
X1000500Y-12219029D03*
X7500000Y-21250000D03*
X45000000Y-36250000D03*
X7500000Y-6250000D03*
X22500000Y-13750000D03*
X67500000Y-51250000D03*
X45000000Y-13750000D03*
X22500000Y-28750000D03*
X15000000Y-13750000D03*
X22500000Y-36250000D03*
X37500000Y-58750000D03*
X15000000Y-6250000D03*
X7500000Y-13750000D03*
X45000000Y-21250000D03*
X52500000Y-13750000D03*
X1000500Y-16579029D03*
X52500000Y-51250000D03*
X67500000Y-58750000D03*
X67500000Y-6250000D03*
X22500000Y-21250000D03*
X52500000Y-43750000D03*
X12900000Y-19675000D03*
X8124854Y-24425500D03*
X45000000Y-28750000D03*
%TO.N,/+24V*%
X4517900Y-39908500D03*
X54579900Y-3138000D03*
X36055000Y-52622600D03*
X13440200Y-42196600D03*
%TO.N,/NCLR*%
X10425800Y-22079800D03*
X9019300Y-21086600D03*
X6238600Y-23829500D03*
%TO.N,/GP16*%
X44732200Y-57279400D03*
X38947400Y-60386000D03*
%TO.N,/GP28*%
X65347000Y-27305500D03*
%TO.N,3V3*%
X22900000Y-24950000D03*
X17680000Y-24100000D03*
%TO.N,/PWM4*%
X58583700Y-3361200D03*
X50651600Y-1636100D03*
X18693700Y-21839500D03*
X27377800Y-1636100D03*
%TO.N,/PWM4_G*%
X62086600Y-6972500D03*
X62070200Y-33981100D03*
%TO.N,/PWM1_G*%
X35754400Y-16198900D03*
X36055000Y-28053700D03*
%TO.N,/ID0*%
X4850000Y-29600000D03*
X16500000Y-20975000D03*
%TO.N,/ID1*%
X17100000Y-21625000D03*
X9150000Y-29650000D03*
%TO.N,/PWM3*%
X24717700Y-24744300D03*
X23788000Y-33248100D03*
%TO.N,/PWM2*%
X33082600Y-33147100D03*
X28798600Y-16218100D03*
%TO.N,/FLASH_TX*%
X22185400Y-18736500D03*
%TO.N,/BOOT0*%
X24485400Y-19162600D03*
X23212500Y-25931300D03*
%TO.N,/FLASH_MODE*%
X22013800Y-23168000D03*
%TO.N,/SEL_CLK*%
X28548100Y-14734500D03*
%TO.N,/GP15*%
X36055000Y-60386000D03*
X32445700Y-60386000D03*
%TO.N,/SEL_OUT*%
X14880000Y-23650000D03*
X19350000Y-27600000D03*
X7753800Y-22965000D03*
%TO.N,/Q90_GATE*%
X57324100Y-3236500D03*
X55855600Y-5496700D03*
%TO.N,/SEL_IN*%
X4913700Y-23885000D03*
X12915800Y-4344100D03*
%TD*%
%TO.N,/+24V*%
D22*
X64018300Y-48040000D02*
X64018300Y-48831700D01*
X64018300Y-48831700D02*
X58250000Y-54600000D01*
X66295000Y-48040000D02*
X68571700Y-48040000D01*
X68386000Y-45500000D02*
X68571700Y-45500000D01*
X68386000Y-45500000D02*
X64100000Y-41214000D01*
X9850000Y-45240600D02*
X9850000Y-53900000D01*
X54579900Y-3138000D02*
X53991200Y-3138000D01*
X35048800Y-51616400D02*
X36055000Y-52622600D01*
X4517900Y-39908500D02*
X9850000Y-45240600D01*
X51486100Y-5643100D02*
X51486100Y-24194800D01*
X68571700Y-48040000D02*
X68571700Y-45500000D01*
X13440200Y-42196600D02*
X12894000Y-42196600D01*
X64100000Y-41214000D02*
X64100000Y-24750000D01*
X66295000Y-45500000D02*
X68386000Y-45500000D01*
X35850000Y-23600000D02*
X35048800Y-24401200D01*
X66295000Y-48040000D02*
X64018300Y-48040000D01*
X12894000Y-42196600D02*
X9850000Y-45240600D01*
X53991200Y-3138000D02*
X51486100Y-5643100D01*
X51486100Y-24194800D02*
X54042500Y-26751200D01*
X35048800Y-24401200D02*
X35048800Y-51616400D01*
%TO.N,/NCLR*%
D23*
X10425800Y-22079800D02*
X10012500Y-22079800D01*
X7848800Y-23829500D02*
X9805500Y-21872800D01*
X10012500Y-22079800D02*
X9805500Y-21872800D01*
X6238600Y-23829500D02*
X7848800Y-23829500D01*
X9805500Y-21872800D02*
X9019300Y-21086600D01*
%TO.N,/GP16*%
X48390000Y-53621600D02*
X48390000Y-50530000D01*
X38480000Y-60853400D02*
X38947400Y-60386000D01*
X44732200Y-57279400D02*
X48390000Y-53621600D01*
X38480000Y-63000000D02*
X38480000Y-60853400D01*
%TO.N,/GP17*%
X41020000Y-55360000D02*
X48390000Y-47990000D01*
X41020000Y-63000000D02*
X41020000Y-55360000D01*
%TO.N,/GP18*%
X48390000Y-42910000D02*
X49615400Y-44135400D01*
X49615400Y-44135400D02*
X49615400Y-56944600D01*
X49615400Y-56944600D02*
X43560000Y-63000000D01*
%TO.N,/GP19*%
X50099800Y-59000200D02*
X46100000Y-63000000D01*
X50099800Y-42079800D02*
X50099800Y-59000200D01*
X48390000Y-40370000D02*
X50099800Y-42079800D01*
%TO.N,/GP20*%
X50576100Y-61063900D02*
X50576100Y-40016100D01*
X50576100Y-40016100D02*
X48390000Y-37830000D01*
X48640000Y-63000000D02*
X50576100Y-61063900D01*
%TO.N,/GP21*%
X51180000Y-63000000D02*
X51180000Y-38080000D01*
X51180000Y-38080000D02*
X48390000Y-35290000D01*
%TO.N,/GP22*%
X53720000Y-63000000D02*
X53720000Y-35540000D01*
X53720000Y-35540000D02*
X48390000Y-30210000D01*
%TO.N,/GP26*%
X47985000Y-28940000D02*
X48798900Y-28940000D01*
X47205200Y-26314800D02*
X47205200Y-28160200D01*
X48390000Y-25130000D02*
X47205200Y-26314800D01*
X47205200Y-28160200D02*
X47985000Y-28940000D01*
X48798900Y-28940000D02*
X56260000Y-36401100D01*
X56260000Y-36401100D02*
X56260000Y-63000000D01*
%TO.N,/GP27*%
X58800000Y-63000000D02*
X56717200Y-60917200D01*
X56717200Y-31367400D02*
X48390000Y-23040200D01*
X48390000Y-23040200D02*
X48390000Y-22590000D01*
X56717200Y-60917200D02*
X56717200Y-31367400D01*
%TO.N,/GP28*%
X61340000Y-63000000D02*
X69412400Y-54927600D01*
X69412400Y-31370900D02*
X65347000Y-27305500D01*
X69412400Y-54927600D02*
X69412400Y-31370900D01*
%TO.N,3V3*%
X23542300Y-19149700D02*
X23542300Y-22907700D01*
X28898700Y-13793300D02*
X28584200Y-14107800D01*
X14932000Y-32918000D02*
X22900000Y-24950000D01*
X23542300Y-22907700D02*
X22350000Y-24100000D01*
X13080000Y-63000000D02*
X14932000Y-61148000D01*
X13080000Y-63000000D02*
X10540000Y-63000000D01*
X14932000Y-61148000D02*
X14932000Y-32918000D01*
X17680000Y-24100000D02*
X22350000Y-24100000D01*
X48390000Y-12430000D02*
X39002500Y-12430000D01*
X22350000Y-24100000D02*
X22900000Y-24650000D01*
X22900000Y-24650000D02*
X22900000Y-24950000D01*
X37639200Y-13793300D02*
X28898700Y-13793300D01*
X28288600Y-14107800D02*
X27921400Y-14475000D01*
X27921400Y-14770600D02*
X23542300Y-19149700D01*
X39002500Y-12430000D02*
X37639200Y-13793300D01*
X28584200Y-14107800D02*
X28288600Y-14107800D01*
X27921400Y-14475000D02*
X27921400Y-14770600D01*
%TO.N,/PWM4*%
X56858600Y-1636100D02*
X50651600Y-1636100D01*
X58583700Y-3361200D02*
X56858600Y-1636100D01*
X18693700Y-21100000D02*
X18693700Y-21839500D01*
X27377800Y-12415900D02*
X18693700Y-21100000D01*
X27377800Y-1636100D02*
X27377800Y-12415900D01*
%TO.N,/PWM4_G*%
X62086600Y-6972500D02*
X62086600Y-33964700D01*
X62086600Y-33964700D02*
X62070200Y-33981100D01*
%TO.N,/PWM1_G*%
X37388000Y-17832500D02*
X37388000Y-26720700D01*
X37388000Y-26720700D02*
X36055000Y-28053700D01*
X35754400Y-16198900D02*
X37388000Y-17832500D01*
%TO.N,/ID0*%
X12500000Y-20975000D02*
X4850000Y-28625000D01*
X16500000Y-20975000D02*
X12500000Y-20975000D01*
X4850000Y-28625000D02*
X4850000Y-29600000D01*
%TO.N,/ID1*%
X9150000Y-26775000D02*
X9150000Y-29650000D01*
X17100000Y-21625000D02*
X14300000Y-21625000D01*
X14300000Y-21625000D02*
X9150000Y-26775000D01*
%TO.N,/PWM3*%
X24717700Y-24744300D02*
X24717700Y-32318400D01*
X24717700Y-32318400D02*
X23788000Y-33248100D01*
%TO.N,/PWM2*%
X31069100Y-21320000D02*
X33082600Y-23333500D01*
X28798600Y-16218100D02*
X29152100Y-16571600D01*
X33082600Y-23333500D02*
X33082600Y-33147100D01*
X29152100Y-16571600D02*
X29152100Y-20323700D01*
X29152100Y-20323700D02*
X30148400Y-21320000D01*
X30148400Y-21320000D02*
X31069100Y-21320000D01*
%TO.N,/FLASH_TX*%
X30610000Y-2270000D02*
X30610000Y-3446700D01*
X29433300Y-11488600D02*
X22185400Y-18736500D01*
X30610000Y-3446700D02*
X30242200Y-3446700D01*
X29433300Y-4255600D02*
X29433300Y-11488600D01*
X30242200Y-3446700D02*
X29433300Y-4255600D01*
%TO.N,/BOOT0*%
X24091000Y-25052800D02*
X23212500Y-25931300D01*
X24091000Y-19557000D02*
X24091000Y-25052800D01*
X24485400Y-19162600D02*
X24091000Y-19557000D01*
%TO.N,/FLASH_MODE*%
X29327600Y-12430000D02*
X27469700Y-14287900D01*
X27469700Y-14539400D02*
X21858200Y-20150900D01*
X21858200Y-20150900D02*
X21858200Y-23012400D01*
X21858200Y-23012400D02*
X22013800Y-23168000D01*
X27469700Y-14287900D02*
X27469700Y-14539400D01*
X30610000Y-12430000D02*
X29327600Y-12430000D01*
%TO.N,/SEL_CLK*%
X28171900Y-16477600D02*
X28548000Y-16853700D01*
X28548100Y-16853700D02*
X28548100Y-23068100D01*
X28171900Y-15958600D02*
X28171900Y-16477600D01*
X28548100Y-23068100D02*
X30610000Y-25130000D01*
X28548100Y-14734500D02*
X28548100Y-15582400D01*
X28548100Y-15582400D02*
X28171900Y-15958600D01*
X28548000Y-16853700D02*
X28548100Y-16853700D01*
%TO.N,/GP8*%
X16903400Y-61743400D02*
X16903400Y-40950000D01*
X23978600Y-33874800D02*
X24405200Y-33874800D01*
X18160000Y-63000000D02*
X16903400Y-61743400D01*
X16903400Y-40950000D02*
X23978600Y-33874800D01*
X24405200Y-33874800D02*
X30610000Y-27670000D01*
%TO.N,/GP9*%
X20387300Y-62687300D02*
X20387300Y-40432700D01*
X20700000Y-63000000D02*
X20387300Y-62687300D01*
X20387300Y-40432700D02*
X30610000Y-30210000D01*
%TO.N,/GP10*%
X23240000Y-63000000D02*
X23866700Y-62373300D01*
X23866700Y-42033300D02*
X30610000Y-35290000D01*
X23866700Y-62373300D02*
X23866700Y-42033300D01*
%TO.N,/GP11*%
X25780000Y-63000000D02*
X25780000Y-42660000D01*
X25780000Y-42660000D02*
X30610000Y-37830000D01*
%TO.N,/GP12*%
X28320000Y-42660000D02*
X30610000Y-40370000D01*
X28320000Y-63000000D02*
X28320000Y-42660000D01*
%TO.N,/GP13*%
X29330500Y-44189500D02*
X30610000Y-42910000D01*
X30860000Y-63000000D02*
X29330500Y-61470500D01*
X29330500Y-61470500D02*
X29330500Y-44189500D01*
%TO.N,/GP14*%
X33400000Y-63000000D02*
X33400000Y-50780000D01*
X33400000Y-50780000D02*
X30610000Y-47990000D01*
%TO.N,/GP15*%
X32445700Y-52365700D02*
X30610000Y-50530000D01*
X35940000Y-60501000D02*
X36055000Y-60386000D01*
X35940000Y-63000000D02*
X35940000Y-60501000D01*
X32445700Y-60386000D02*
X32445700Y-52365700D01*
%TO.N,/SEL_OUT*%
X7752900Y-22964100D02*
X7753800Y-22965000D01*
X21170000Y-16489999D02*
X17390000Y-20270000D01*
X16128100Y-19008100D02*
X8855600Y-19008100D01*
X6676900Y-22262300D02*
X7378600Y-22964000D01*
X21170000Y-4660000D02*
X21170000Y-16489999D01*
X7752900Y-22964000D02*
X7752900Y-22964100D01*
X6676900Y-21186800D02*
X6676900Y-22262300D01*
X17980000Y-27600000D02*
X14880000Y-24500000D01*
X16309999Y-23600000D02*
X14930000Y-23600000D01*
X7378600Y-22964000D02*
X7752900Y-22964000D01*
X8855600Y-19008100D02*
X6676900Y-21186800D01*
X22245000Y-2750000D02*
X22245000Y-3585000D01*
X17730000Y-20610000D02*
X17730000Y-22180000D01*
X19350000Y-27600000D02*
X17980000Y-27600000D01*
X14880000Y-24500000D02*
X14880000Y-23650000D01*
X17390000Y-20270000D02*
X17730000Y-20610000D01*
X14930000Y-23600000D02*
X14880000Y-23650000D01*
X17390000Y-20270000D02*
X16128100Y-19008100D01*
X22245000Y-3585000D02*
X21170000Y-4660000D01*
X17730000Y-22180000D02*
X16309999Y-23600000D01*
%TO.N,/Q90_GATE*%
X55855600Y-5496700D02*
X55855600Y-4705000D01*
X55855600Y-4705000D02*
X57324100Y-3236500D01*
%TO.N,/SEL_IN*%
X4913700Y-23885000D02*
X4913700Y-12346200D01*
X4913700Y-12346200D02*
X12915800Y-4344100D01*
%TD*%
%TA.AperFunction,Conductor*%
%TO.N,GND*%
G36*
X72002992Y-500681D02*
G01*
X72295310Y-518362D01*
X72307165Y-519802D01*
X72592281Y-572051D01*
X72603883Y-574911D01*
X72880623Y-661147D01*
X72891786Y-665380D01*
X73156117Y-784346D01*
X73156119Y-784347D01*
X73166702Y-789902D01*
X73414758Y-939856D01*
X73424583Y-946638D01*
X73652755Y-1125399D01*
X73661704Y-1133326D01*
X73866673Y-1338295D01*
X73874599Y-1347243D01*
X73995481Y-1501538D01*
X74053356Y-1575409D01*
X74060147Y-1585248D01*
X74210096Y-1833295D01*
X74215652Y-1843880D01*
X74334616Y-2108206D01*
X74338855Y-2119384D01*
X74425087Y-2396113D01*
X74427948Y-2407721D01*
X74480196Y-2692827D01*
X74481637Y-2704694D01*
X74499319Y-2997006D01*
X74499500Y-3002984D01*
X74499500Y-61997015D01*
X74499319Y-62002993D01*
X74481637Y-62295304D01*
X74480196Y-62307171D01*
X74427948Y-62592277D01*
X74425087Y-62603885D01*
X74338855Y-62880615D01*
X74334616Y-62891793D01*
X74215652Y-63156118D01*
X74210096Y-63166703D01*
X74060142Y-63414758D01*
X74053356Y-63424590D01*
X73874599Y-63652755D01*
X73866672Y-63661704D01*
X73661704Y-63866672D01*
X73652755Y-63874599D01*
X73424590Y-64053356D01*
X73414758Y-64060142D01*
X73177212Y-64203744D01*
X73166703Y-64210097D01*
X73156118Y-64215652D01*
X72891793Y-64334616D01*
X72880615Y-64338855D01*
X72603885Y-64425087D01*
X72592277Y-64427948D01*
X72307171Y-64480196D01*
X72295304Y-64481637D01*
X72023993Y-64498048D01*
X72002991Y-64499319D01*
X71997015Y-64499500D01*
X62024602Y-64499500D01*
X61966411Y-64480593D01*
X61930447Y-64431093D01*
X61930447Y-64369907D01*
X61934878Y-64358661D01*
X61984067Y-64253175D01*
X61984068Y-64253173D01*
X61990500Y-64204316D01*
X61990500Y-62850832D01*
X62009407Y-62792642D01*
X62019490Y-62780835D01*
X63921615Y-60878710D01*
X69149500Y-60878710D01*
X69149500Y-61121289D01*
X69181161Y-61361781D01*
X69181161Y-61361786D01*
X69243944Y-61596092D01*
X69243948Y-61596105D01*
X69336772Y-61820204D01*
X69336774Y-61820208D01*
X69336776Y-61820212D01*
X69440577Y-62000000D01*
X69458066Y-62030292D01*
X69605729Y-62222731D01*
X69605731Y-62222733D01*
X69605735Y-62222738D01*
X69777262Y-62394265D01*
X69777266Y-62394268D01*
X69777268Y-62394270D01*
X69933630Y-62514250D01*
X69969711Y-62541936D01*
X70179788Y-62663224D01*
X70403900Y-62756054D01*
X70638211Y-62818838D01*
X70878712Y-62850500D01*
X70878713Y-62850500D01*
X71121287Y-62850500D01*
X71121288Y-62850500D01*
X71361789Y-62818838D01*
X71596100Y-62756054D01*
X71820212Y-62663224D01*
X72030289Y-62541936D01*
X72222738Y-62394265D01*
X72394265Y-62222738D01*
X72541936Y-62030289D01*
X72663224Y-61820212D01*
X72756054Y-61596100D01*
X72818838Y-61361789D01*
X72850500Y-61121288D01*
X72850500Y-60878712D01*
X72818838Y-60638211D01*
X72756054Y-60403900D01*
X72668620Y-60192814D01*
X72663227Y-60179795D01*
X72663226Y-60179794D01*
X72663224Y-60179788D01*
X72541936Y-59969711D01*
X72536539Y-59962678D01*
X72394270Y-59777268D01*
X72394268Y-59777266D01*
X72394265Y-59777262D01*
X72222738Y-59605735D01*
X72222733Y-59605731D01*
X72222731Y-59605729D01*
X72030292Y-59458066D01*
X72017974Y-59450954D01*
X71820212Y-59336776D01*
X71820208Y-59336774D01*
X71820204Y-59336772D01*
X71596105Y-59243948D01*
X71596104Y-59243947D01*
X71596100Y-59243946D01*
X71361789Y-59181162D01*
X71361786Y-59181161D01*
X71361784Y-59181161D01*
X71121289Y-59149500D01*
X71121288Y-59149500D01*
X70878712Y-59149500D01*
X70878710Y-59149500D01*
X70638218Y-59181161D01*
X70638213Y-59181161D01*
X70403907Y-59243944D01*
X70403894Y-59243948D01*
X70179795Y-59336772D01*
X69969707Y-59458066D01*
X69777268Y-59605729D01*
X69605729Y-59777268D01*
X69458066Y-59969707D01*
X69336772Y-60179795D01*
X69243948Y-60403894D01*
X69243944Y-60403907D01*
X69181161Y-60638213D01*
X69181161Y-60638218D01*
X69149500Y-60878710D01*
X63921615Y-60878710D01*
X69612259Y-55188066D01*
X69612262Y-55188065D01*
X69672865Y-55127462D01*
X69715718Y-55053238D01*
X69729216Y-55002863D01*
X69737901Y-54970452D01*
X69737901Y-54884747D01*
X69737901Y-54878685D01*
X69737900Y-54878667D01*
X69737900Y-31328048D01*
X69737900Y-31328047D01*
X69715718Y-31245262D01*
X69715718Y-31245261D01*
X69701208Y-31220130D01*
X69694291Y-31208149D01*
X69694289Y-31208147D01*
X69672865Y-31171038D01*
X69612262Y-31110435D01*
X69612259Y-31110433D01*
X67743990Y-29242164D01*
X65876496Y-27374669D01*
X65848719Y-27320152D01*
X65847500Y-27304665D01*
X65847500Y-27239609D01*
X65829492Y-27172402D01*
X65813392Y-27112314D01*
X65813390Y-27112311D01*
X65813390Y-27112309D01*
X65747503Y-26998190D01*
X65747501Y-26998188D01*
X65747500Y-26998186D01*
X65654314Y-26905000D01*
X65654311Y-26904998D01*
X65654309Y-26904996D01*
X65540189Y-26839109D01*
X65540191Y-26839109D01*
X65490799Y-26825875D01*
X65412892Y-26805000D01*
X65281108Y-26805000D01*
X65203200Y-26825875D01*
X65153809Y-26839109D01*
X65039690Y-26904996D01*
X65039689Y-26904997D01*
X65039686Y-26904999D01*
X65039686Y-26905000D01*
X64969501Y-26975184D01*
X64914987Y-27002960D01*
X64854555Y-26993389D01*
X64811290Y-26950124D01*
X64800500Y-26905179D01*
X64800500Y-26299500D01*
X64819407Y-26241309D01*
X64868907Y-26205345D01*
X64899500Y-26200500D01*
X64969747Y-26200500D01*
X64969748Y-26200500D01*
X65028231Y-26188867D01*
X65094552Y-26144552D01*
X65138867Y-26078231D01*
X65150500Y-26019748D01*
X65150500Y-24246532D01*
X68129500Y-24246532D01*
X68129500Y-25253467D01*
X68169869Y-25456418D01*
X68249058Y-25647597D01*
X68364020Y-25819651D01*
X68364023Y-25819655D01*
X68510345Y-25965977D01*
X68682402Y-26080941D01*
X68873580Y-26160130D01*
X69076535Y-26200500D01*
X69076536Y-26200500D01*
X69283464Y-26200500D01*
X69283465Y-26200500D01*
X69486420Y-26160130D01*
X69677598Y-26080941D01*
X69849655Y-25965977D01*
X69995977Y-25819655D01*
X70110941Y-25647598D01*
X70190130Y-25456420D01*
X70230500Y-25253465D01*
X70230500Y-24246535D01*
X70190130Y-24043580D01*
X70110941Y-23852402D01*
X69995977Y-23680345D01*
X69849655Y-23534023D01*
X69831940Y-23522186D01*
X69677597Y-23419058D01*
X69486418Y-23339869D01*
X69283467Y-23299500D01*
X69283465Y-23299500D01*
X69076535Y-23299500D01*
X69076532Y-23299500D01*
X68873581Y-23339869D01*
X68682402Y-23419058D01*
X68510348Y-23534020D01*
X68364020Y-23680348D01*
X68249058Y-23852402D01*
X68169869Y-24043581D01*
X68129500Y-24246532D01*
X65150500Y-24246532D01*
X65150500Y-23480252D01*
X65138867Y-23421769D01*
X65094552Y-23355448D01*
X65075453Y-23342686D01*
X65028233Y-23311134D01*
X65028231Y-23311133D01*
X65028228Y-23311132D01*
X65028227Y-23311132D01*
X64969758Y-23299501D01*
X64969748Y-23299500D01*
X63230252Y-23299500D01*
X63230251Y-23299500D01*
X63230241Y-23299501D01*
X63171772Y-23311132D01*
X63171766Y-23311134D01*
X63105451Y-23355445D01*
X63105445Y-23355451D01*
X63061134Y-23421766D01*
X63061132Y-23421772D01*
X63049501Y-23480241D01*
X63049500Y-23480253D01*
X63049500Y-26019746D01*
X63049501Y-26019758D01*
X63061132Y-26078227D01*
X63061134Y-26078233D01*
X63102492Y-26140128D01*
X63105448Y-26144552D01*
X63171769Y-26188867D01*
X63216231Y-26197711D01*
X63230241Y-26200498D01*
X63230246Y-26200498D01*
X63230252Y-26200500D01*
X63300500Y-26200500D01*
X63358691Y-26219407D01*
X63394655Y-26268907D01*
X63399500Y-26299500D01*
X63399500Y-41282996D01*
X63426420Y-41418327D01*
X63426420Y-41418329D01*
X63479223Y-41545808D01*
X63550502Y-41652486D01*
X63555886Y-41660543D01*
X65222746Y-43327402D01*
X66525840Y-44630496D01*
X66553617Y-44685013D01*
X66544046Y-44745445D01*
X66500781Y-44788710D01*
X66455836Y-44799500D01*
X64700252Y-44799500D01*
X64700251Y-44799500D01*
X64700241Y-44799501D01*
X64641772Y-44811132D01*
X64641766Y-44811134D01*
X64575451Y-44855445D01*
X64575445Y-44855451D01*
X64531134Y-44921766D01*
X64531132Y-44921772D01*
X64519501Y-44980241D01*
X64519500Y-44980253D01*
X64519500Y-46019746D01*
X64519501Y-46019758D01*
X64531132Y-46078227D01*
X64531133Y-46078231D01*
X64575448Y-46144552D01*
X64641769Y-46188867D01*
X64686231Y-46197711D01*
X64700241Y-46200498D01*
X64700246Y-46200498D01*
X64700252Y-46200500D01*
X66226007Y-46200500D01*
X67772200Y-46200500D01*
X67830391Y-46219407D01*
X67866355Y-46268907D01*
X67871200Y-46299500D01*
X67871200Y-47240500D01*
X67852293Y-47298691D01*
X67802793Y-47334655D01*
X67772200Y-47339500D01*
X63949304Y-47339500D01*
X63813972Y-47366420D01*
X63813970Y-47366420D01*
X63686493Y-47419222D01*
X63686482Y-47419228D01*
X63571758Y-47495885D01*
X63474185Y-47593458D01*
X63397528Y-47708182D01*
X63397522Y-47708193D01*
X63344720Y-47835670D01*
X63344720Y-47835672D01*
X63317800Y-47971004D01*
X63317800Y-48500534D01*
X63298893Y-48558725D01*
X63288804Y-48570538D01*
X58688837Y-53170504D01*
X58634320Y-53198281D01*
X58618833Y-53199500D01*
X57245734Y-53199500D01*
X57215304Y-53202353D01*
X57174396Y-53216667D01*
X57113226Y-53218039D01*
X57062932Y-53183194D01*
X57042725Y-53125442D01*
X57042700Y-53123222D01*
X57042700Y-33915208D01*
X61569700Y-33915208D01*
X61569700Y-34046992D01*
X61593353Y-34135268D01*
X61603809Y-34174290D01*
X61669696Y-34288409D01*
X61669698Y-34288411D01*
X61669700Y-34288414D01*
X61762886Y-34381600D01*
X61762888Y-34381601D01*
X61762890Y-34381603D01*
X61877010Y-34447490D01*
X61877008Y-34447490D01*
X61877012Y-34447491D01*
X61877014Y-34447492D01*
X62004308Y-34481600D01*
X62004310Y-34481600D01*
X62136090Y-34481600D01*
X62136092Y-34481600D01*
X62263386Y-34447492D01*
X62263388Y-34447490D01*
X62263390Y-34447490D01*
X62377509Y-34381603D01*
X62377509Y-34381602D01*
X62377514Y-34381600D01*
X62470700Y-34288414D01*
X62475633Y-34279870D01*
X62536590Y-34174290D01*
X62536590Y-34174288D01*
X62536592Y-34174286D01*
X62570700Y-34046992D01*
X62570700Y-33915208D01*
X62536592Y-33787914D01*
X62536590Y-33787911D01*
X62536590Y-33787909D01*
X62470703Y-33673790D01*
X62470702Y-33673789D01*
X62470701Y-33673788D01*
X62470700Y-33673786D01*
X62441095Y-33644181D01*
X62413319Y-33589664D01*
X62412100Y-33574178D01*
X62412100Y-7395821D01*
X62431007Y-7337630D01*
X62441090Y-7325823D01*
X62487100Y-7279814D01*
X62552992Y-7165686D01*
X62587100Y-7038392D01*
X62587100Y-6906608D01*
X62552992Y-6779314D01*
X62552990Y-6779311D01*
X62552990Y-6779309D01*
X62487103Y-6665190D01*
X62487101Y-6665188D01*
X62487100Y-6665186D01*
X62393914Y-6572000D01*
X62393911Y-6571998D01*
X62393909Y-6571996D01*
X62279789Y-6506109D01*
X62279791Y-6506109D01*
X62230399Y-6492875D01*
X62152492Y-6472000D01*
X62020708Y-6472000D01*
X61942800Y-6492875D01*
X61893409Y-6506109D01*
X61779290Y-6571996D01*
X61686096Y-6665190D01*
X61620209Y-6779309D01*
X61620208Y-6779314D01*
X61586100Y-6906608D01*
X61586100Y-7038392D01*
X61616179Y-7150651D01*
X61620209Y-7165690D01*
X61686096Y-7279809D01*
X61686098Y-7279811D01*
X61686100Y-7279814D01*
X61732105Y-7325819D01*
X61759881Y-7380334D01*
X61761100Y-7395821D01*
X61761100Y-33541378D01*
X61742193Y-33599569D01*
X61732104Y-33611381D01*
X61669700Y-33673785D01*
X61669696Y-33673790D01*
X61603809Y-33787909D01*
X61603808Y-33787914D01*
X61569700Y-33915208D01*
X57042700Y-33915208D01*
X57042700Y-31324548D01*
X57042700Y-31324547D01*
X57020518Y-31241762D01*
X57020518Y-31241761D01*
X57020518Y-31241760D01*
X56977668Y-31167542D01*
X56977667Y-31167541D01*
X56977666Y-31167540D01*
X56977665Y-31167538D01*
X53730869Y-27920742D01*
X53703092Y-27866225D01*
X53712663Y-27805793D01*
X53755928Y-27762528D01*
X53800873Y-27751738D01*
X54646752Y-27751738D01*
X54646752Y-27751737D01*
X54677178Y-27748884D01*
X54805361Y-27704031D01*
X54914629Y-27623388D01*
X54995272Y-27514120D01*
X55040125Y-27385937D01*
X55042978Y-27355511D01*
X55042979Y-27355511D01*
X55042979Y-26146965D01*
X55042978Y-26146963D01*
X55042337Y-26140128D01*
X55040125Y-26116539D01*
X54995272Y-25988356D01*
X54978757Y-25965979D01*
X54914633Y-25879093D01*
X54914631Y-25879091D01*
X54914629Y-25879088D01*
X54914625Y-25879085D01*
X54914623Y-25879083D01*
X54805362Y-25798445D01*
X54677182Y-25753593D01*
X54677173Y-25753591D01*
X54646753Y-25750738D01*
X54646745Y-25750738D01*
X54073703Y-25750738D01*
X54015512Y-25731831D01*
X54003699Y-25721742D01*
X52215596Y-23933639D01*
X52187819Y-23879122D01*
X52186600Y-23863635D01*
X52186600Y-5974264D01*
X52205507Y-5916073D01*
X52215589Y-5904268D01*
X52220489Y-5899367D01*
X52275003Y-5871583D01*
X52335436Y-5881149D01*
X52378705Y-5924409D01*
X52389500Y-5969363D01*
X52389500Y-7604265D01*
X52392353Y-7634694D01*
X52437208Y-7762885D01*
X52517845Y-7872144D01*
X52517847Y-7872146D01*
X52517850Y-7872150D01*
X52517853Y-7872152D01*
X52517855Y-7872154D01*
X52627114Y-7952791D01*
X52627116Y-7952791D01*
X52627118Y-7952793D01*
X52755302Y-7997646D01*
X52785735Y-8000500D01*
X54794264Y-8000499D01*
X54794265Y-8000499D01*
X54800350Y-7999928D01*
X54824698Y-7997646D01*
X54952882Y-7952793D01*
X55062150Y-7872150D01*
X55142793Y-7762882D01*
X55187646Y-7634698D01*
X55190500Y-7604265D01*
X55190499Y-5700271D01*
X55209406Y-5642081D01*
X55258906Y-5606117D01*
X55320092Y-5606117D01*
X55369592Y-5642081D01*
X55385126Y-5674650D01*
X55389209Y-5689889D01*
X55455096Y-5804009D01*
X55455098Y-5804011D01*
X55455100Y-5804014D01*
X55548286Y-5897200D01*
X55548288Y-5897201D01*
X55548290Y-5897203D01*
X55662410Y-5963090D01*
X55662408Y-5963090D01*
X55662412Y-5963091D01*
X55662414Y-5963092D01*
X55789708Y-5997200D01*
X55789710Y-5997200D01*
X55921490Y-5997200D01*
X55921492Y-5997200D01*
X56048786Y-5963092D01*
X56048788Y-5963090D01*
X56048790Y-5963090D01*
X56162909Y-5897203D01*
X56162909Y-5897202D01*
X56162914Y-5897200D01*
X56256100Y-5804014D01*
X56283792Y-5756051D01*
X56321990Y-5689890D01*
X56321990Y-5689888D01*
X56321992Y-5689886D01*
X56356100Y-5562592D01*
X56356100Y-5430808D01*
X56321992Y-5303514D01*
X56321990Y-5303511D01*
X56321990Y-5303509D01*
X56256103Y-5189390D01*
X56256099Y-5189384D01*
X56210096Y-5143381D01*
X56182319Y-5088864D01*
X56181100Y-5073378D01*
X56181100Y-4880834D01*
X56200007Y-4822643D01*
X56210096Y-4810830D01*
X57142216Y-3878710D01*
X69149500Y-3878710D01*
X69149500Y-4121289D01*
X69181161Y-4361781D01*
X69181161Y-4361786D01*
X69194078Y-4409992D01*
X69233982Y-4558916D01*
X69243944Y-4596092D01*
X69243948Y-4596105D01*
X69336772Y-4820204D01*
X69336774Y-4820208D01*
X69336776Y-4820212D01*
X69390616Y-4913465D01*
X69458066Y-5030292D01*
X69605729Y-5222731D01*
X69605731Y-5222733D01*
X69605735Y-5222738D01*
X69777262Y-5394265D01*
X69777266Y-5394268D01*
X69777268Y-5394270D01*
X69907087Y-5493883D01*
X69969711Y-5541936D01*
X70179788Y-5663224D01*
X70403900Y-5756054D01*
X70638211Y-5818838D01*
X70878712Y-5850500D01*
X70878713Y-5850500D01*
X71121287Y-5850500D01*
X71121288Y-5850500D01*
X71361789Y-5818838D01*
X71596100Y-5756054D01*
X71820212Y-5663224D01*
X72030289Y-5541936D01*
X72222738Y-5394265D01*
X72394265Y-5222738D01*
X72541936Y-5030289D01*
X72663224Y-4820212D01*
X72756054Y-4596100D01*
X72818838Y-4361789D01*
X72850500Y-4121288D01*
X72850500Y-3878712D01*
X72818838Y-3638211D01*
X72756054Y-3403900D01*
X72674611Y-3207279D01*
X72663227Y-3179795D01*
X72663226Y-3179794D01*
X72663224Y-3179788D01*
X72541936Y-2969711D01*
X72458289Y-2860700D01*
X72394270Y-2777268D01*
X72394268Y-2777266D01*
X72394265Y-2777262D01*
X72222738Y-2605735D01*
X72222733Y-2605731D01*
X72222731Y-2605729D01*
X72030292Y-2458066D01*
X71943092Y-2407721D01*
X71820212Y-2336776D01*
X71820208Y-2336774D01*
X71820204Y-2336772D01*
X71596105Y-2243948D01*
X71596104Y-2243947D01*
X71596100Y-2243946D01*
X71361789Y-2181162D01*
X71361786Y-2181161D01*
X71361784Y-2181161D01*
X71121289Y-2149500D01*
X71121288Y-2149500D01*
X70878712Y-2149500D01*
X70878710Y-2149500D01*
X70638218Y-2181161D01*
X70638213Y-2181161D01*
X70403907Y-2243944D01*
X70403894Y-2243948D01*
X70179795Y-2336772D01*
X69969707Y-2458066D01*
X69777268Y-2605729D01*
X69605729Y-2777268D01*
X69458066Y-2969707D01*
X69409463Y-3053890D01*
X69342076Y-3170609D01*
X69336772Y-3179795D01*
X69243948Y-3403894D01*
X69243944Y-3403907D01*
X69181161Y-3638213D01*
X69181161Y-3638218D01*
X69149500Y-3878710D01*
X57142216Y-3878710D01*
X57254930Y-3765996D01*
X57309447Y-3738219D01*
X57324934Y-3737000D01*
X57389990Y-3737000D01*
X57389992Y-3737000D01*
X57517286Y-3702892D01*
X57517288Y-3702890D01*
X57517290Y-3702890D01*
X57631409Y-3637003D01*
X57631409Y-3637002D01*
X57631414Y-3637000D01*
X57724600Y-3543814D01*
X57724603Y-3543809D01*
X57790490Y-3429690D01*
X57790490Y-3429688D01*
X57790492Y-3429686D01*
X57824600Y-3302392D01*
X57824600Y-3301434D01*
X57824811Y-3300781D01*
X57825447Y-3295958D01*
X57826340Y-3296075D01*
X57843507Y-3243243D01*
X57893007Y-3207279D01*
X57954193Y-3207279D01*
X57993604Y-3231430D01*
X58054204Y-3292030D01*
X58081981Y-3346547D01*
X58083200Y-3362034D01*
X58083200Y-3427092D01*
X58099936Y-3489551D01*
X58117309Y-3554390D01*
X58183196Y-3668509D01*
X58183198Y-3668511D01*
X58183200Y-3668514D01*
X58276386Y-3761700D01*
X58276388Y-3761701D01*
X58276390Y-3761703D01*
X58390510Y-3827590D01*
X58390508Y-3827590D01*
X58390512Y-3827591D01*
X58390514Y-3827592D01*
X58517808Y-3861700D01*
X58517810Y-3861700D01*
X58649590Y-3861700D01*
X58649592Y-3861700D01*
X58776886Y-3827592D01*
X58776888Y-3827590D01*
X58776890Y-3827590D01*
X58842443Y-3789743D01*
X58842449Y-3789738D01*
X58891014Y-3761700D01*
X58984200Y-3668514D01*
X58986507Y-3664518D01*
X59050090Y-3554390D01*
X59050090Y-3554388D01*
X59050092Y-3554386D01*
X59084200Y-3427092D01*
X59084200Y-3295308D01*
X59050092Y-3168014D01*
X59050090Y-3168011D01*
X59050090Y-3168009D01*
X58984203Y-3053890D01*
X58984201Y-3053888D01*
X58984200Y-3053886D01*
X58891014Y-2960700D01*
X58891011Y-2960698D01*
X58891009Y-2960696D01*
X58776889Y-2894809D01*
X58776891Y-2894809D01*
X58727499Y-2881575D01*
X58649592Y-2860700D01*
X58649590Y-2860700D01*
X58584534Y-2860700D01*
X58526343Y-2841793D01*
X58514530Y-2831704D01*
X57802210Y-2119384D01*
X57058462Y-1375635D01*
X57058459Y-1375633D01*
X57058457Y-1375631D01*
X56984242Y-1332783D01*
X56984244Y-1332783D01*
X56952121Y-1324176D01*
X56901453Y-1310600D01*
X56901451Y-1310600D01*
X51074922Y-1310600D01*
X51016731Y-1291693D01*
X51004919Y-1281604D01*
X50958915Y-1235600D01*
X50958909Y-1235596D01*
X50844789Y-1169709D01*
X50844791Y-1169709D01*
X50795399Y-1156475D01*
X50717492Y-1135600D01*
X50585708Y-1135600D01*
X50507800Y-1156475D01*
X50458409Y-1169709D01*
X50344290Y-1235596D01*
X50251096Y-1328790D01*
X50185209Y-1442909D01*
X50185208Y-1442914D01*
X50151100Y-1570208D01*
X50151100Y-1701992D01*
X50169966Y-1772402D01*
X50185209Y-1829290D01*
X50251096Y-1943409D01*
X50251098Y-1943411D01*
X50251100Y-1943414D01*
X50344286Y-2036600D01*
X50344288Y-2036601D01*
X50344290Y-2036603D01*
X50458410Y-2102490D01*
X50458408Y-2102490D01*
X50458412Y-2102491D01*
X50458414Y-2102492D01*
X50585708Y-2136600D01*
X50585710Y-2136600D01*
X50717490Y-2136600D01*
X50717492Y-2136600D01*
X50844786Y-2102492D01*
X50844788Y-2102490D01*
X50844790Y-2102490D01*
X50958909Y-2036603D01*
X50958910Y-2036602D01*
X50958914Y-2036600D01*
X50977100Y-2018414D01*
X51004919Y-1990596D01*
X51059436Y-1962819D01*
X51074922Y-1961600D01*
X56682765Y-1961600D01*
X56740956Y-1980507D01*
X56752769Y-1990596D01*
X57329169Y-2566996D01*
X57356946Y-2621513D01*
X57347375Y-2681945D01*
X57304110Y-2725210D01*
X57264582Y-2734699D01*
X57264642Y-2735153D01*
X57260326Y-2735721D01*
X57259165Y-2736000D01*
X57258208Y-2736000D01*
X57180300Y-2756875D01*
X57130909Y-2770109D01*
X57016790Y-2835996D01*
X56923596Y-2929190D01*
X56857709Y-3043309D01*
X56846276Y-3085979D01*
X56824297Y-3168009D01*
X56823600Y-3170609D01*
X56823600Y-3235665D01*
X56804693Y-3293856D01*
X56794604Y-3305669D01*
X55595131Y-4505142D01*
X55552284Y-4579355D01*
X55552282Y-4579359D01*
X55552282Y-4579361D01*
X55532976Y-4651414D01*
X55530100Y-4662147D01*
X55530100Y-5073378D01*
X55511193Y-5131569D01*
X55501104Y-5143381D01*
X55455100Y-5189384D01*
X55455096Y-5189390D01*
X55389209Y-5303509D01*
X55355100Y-5430809D01*
X55355100Y-5461185D01*
X55336193Y-5519376D01*
X55286693Y-5555340D01*
X55225507Y-5555340D01*
X55176007Y-5519376D01*
X55162656Y-5493883D01*
X55151214Y-5461185D01*
X55142793Y-5437118D01*
X55138136Y-5430808D01*
X55062154Y-5327855D01*
X55062152Y-5327853D01*
X55062150Y-5327850D01*
X55062146Y-5327847D01*
X55062144Y-5327845D01*
X54952885Y-5247208D01*
X54938697Y-5242243D01*
X54824698Y-5202354D01*
X54824696Y-5202353D01*
X54824694Y-5202353D01*
X54794273Y-5199500D01*
X54794265Y-5199500D01*
X53159363Y-5199500D01*
X53101172Y-5180593D01*
X53065208Y-5131093D01*
X53065208Y-5069907D01*
X53089359Y-5030496D01*
X53614714Y-4505142D01*
X54252360Y-3867496D01*
X54306877Y-3839719D01*
X54322364Y-3838500D01*
X54648892Y-3838500D01*
X54648893Y-3838500D01*
X54784228Y-3811580D01*
X54911711Y-3758775D01*
X55026442Y-3682114D01*
X55124014Y-3584542D01*
X55200675Y-3469811D01*
X55253480Y-3342328D01*
X55280400Y-3206993D01*
X55280400Y-3069007D01*
X55253480Y-2933672D01*
X55213023Y-2836000D01*
X55200677Y-2806193D01*
X55200671Y-2806182D01*
X55124014Y-2691458D01*
X55026441Y-2593885D01*
X54911717Y-2517228D01*
X54911706Y-2517222D01*
X54784228Y-2464420D01*
X54648895Y-2437500D01*
X54648893Y-2437500D01*
X53922207Y-2437500D01*
X53922204Y-2437500D01*
X53818826Y-2458064D01*
X53786871Y-2464420D01*
X53786869Y-2464420D01*
X53735373Y-2485750D01*
X53735374Y-2485751D01*
X53659389Y-2517224D01*
X53610132Y-2550138D01*
X53544657Y-2593887D01*
X53544653Y-2593890D01*
X50941983Y-5196560D01*
X50865323Y-5311291D01*
X50812520Y-5438770D01*
X50812520Y-5438772D01*
X50789334Y-5555340D01*
X50788308Y-5560497D01*
X50788307Y-5560499D01*
X50785600Y-5574103D01*
X50785600Y-24263796D01*
X50812520Y-24399127D01*
X50812520Y-24399129D01*
X50865323Y-24526608D01*
X50938444Y-24636043D01*
X50941986Y-24641343D01*
X53012984Y-26712341D01*
X53040760Y-26766856D01*
X53041979Y-26782343D01*
X53041979Y-26992844D01*
X53023072Y-27051035D01*
X52973572Y-27086999D01*
X52912386Y-27086999D01*
X52872975Y-27062848D01*
X49207882Y-23397755D01*
X49180105Y-23343238D01*
X49189676Y-23282806D01*
X49203441Y-23263872D01*
X49202888Y-23263418D01*
X49205966Y-23259665D01*
X49205977Y-23259655D01*
X49320941Y-23087598D01*
X49400130Y-22896420D01*
X49440500Y-22693465D01*
X49440500Y-22486535D01*
X49400130Y-22283580D01*
X49320941Y-22092402D01*
X49205977Y-21920345D01*
X49059655Y-21774023D01*
X49059651Y-21774020D01*
X48887597Y-21659058D01*
X48696418Y-21579869D01*
X48493467Y-21539500D01*
X48493465Y-21539500D01*
X48286535Y-21539500D01*
X48286532Y-21539500D01*
X48083581Y-21579869D01*
X47892402Y-21659058D01*
X47720348Y-21774020D01*
X47574020Y-21920348D01*
X47459058Y-22092402D01*
X47379869Y-22283581D01*
X47339500Y-22486532D01*
X47339500Y-22693467D01*
X47379869Y-22896418D01*
X47459058Y-23087597D01*
X47571309Y-23255593D01*
X47574023Y-23259655D01*
X47720345Y-23405977D01*
X47892402Y-23520941D01*
X48083580Y-23600130D01*
X48286535Y-23640500D01*
X48286536Y-23640500D01*
X48488965Y-23640500D01*
X48547156Y-23659407D01*
X48558969Y-23669496D01*
X48878680Y-23989207D01*
X48906457Y-24043724D01*
X48896886Y-24104156D01*
X48853621Y-24147421D01*
X48793189Y-24156992D01*
X48770791Y-24150675D01*
X48696420Y-24119870D01*
X48493467Y-24079500D01*
X48493465Y-24079500D01*
X48286535Y-24079500D01*
X48286532Y-24079500D01*
X48083581Y-24119869D01*
X47892402Y-24199058D01*
X47720348Y-24314020D01*
X47574020Y-24460348D01*
X47459058Y-24632402D01*
X47379869Y-24823581D01*
X47339500Y-25026532D01*
X47339500Y-25233467D01*
X47379870Y-25436419D01*
X47379870Y-25436421D01*
X47425840Y-25547402D01*
X47430641Y-25608398D01*
X47404380Y-25655290D01*
X46944735Y-26114937D01*
X46927637Y-26144552D01*
X46901882Y-26189161D01*
X46901882Y-26189162D01*
X46901880Y-26189165D01*
X46898844Y-26200499D01*
X46898844Y-26200500D01*
X46879700Y-26271947D01*
X46879700Y-28117347D01*
X46879700Y-28203053D01*
X46891445Y-28246886D01*
X46901883Y-28285843D01*
X46944731Y-28360057D01*
X46944733Y-28360059D01*
X46944735Y-28360062D01*
X47724533Y-29139859D01*
X47724535Y-29139862D01*
X47785138Y-29200465D01*
X47785140Y-29200466D01*
X47789727Y-29205053D01*
X47787493Y-29207286D01*
X47814862Y-29247095D01*
X47813268Y-29308260D01*
X47776027Y-29356806D01*
X47774944Y-29357540D01*
X47720349Y-29394019D01*
X47574020Y-29540348D01*
X47459058Y-29712402D01*
X47379869Y-29903581D01*
X47339500Y-30106532D01*
X47339500Y-30313467D01*
X47379869Y-30516418D01*
X47459058Y-30707597D01*
X47477563Y-30735292D01*
X47574023Y-30879655D01*
X47720345Y-31025977D01*
X47892402Y-31140941D01*
X48083580Y-31220130D01*
X48286535Y-31260500D01*
X48286536Y-31260500D01*
X48493464Y-31260500D01*
X48493465Y-31260500D01*
X48696420Y-31220130D01*
X48807402Y-31174158D01*
X48868399Y-31169358D01*
X48915292Y-31195619D01*
X53365504Y-35645831D01*
X53393281Y-35700348D01*
X53394500Y-35715835D01*
X53394500Y-61409029D01*
X53375593Y-61467220D01*
X53326093Y-61503184D01*
X53323203Y-61504074D01*
X53316823Y-61505933D01*
X53209598Y-61555933D01*
X53125933Y-61639598D01*
X53075932Y-61746824D01*
X53075932Y-61746825D01*
X53075932Y-61746827D01*
X53069500Y-61795684D01*
X53069500Y-64204316D01*
X53073788Y-64236887D01*
X53075932Y-64253174D01*
X53075932Y-64253175D01*
X53125122Y-64358661D01*
X53132579Y-64419390D01*
X53102916Y-64472904D01*
X53047463Y-64498762D01*
X53035398Y-64499500D01*
X51864602Y-64499500D01*
X51806411Y-64480593D01*
X51770447Y-64431093D01*
X51770447Y-64369907D01*
X51774878Y-64358661D01*
X51824067Y-64253175D01*
X51824068Y-64253173D01*
X51830500Y-64204316D01*
X51830500Y-61795684D01*
X51824068Y-61746827D01*
X51820805Y-61739830D01*
X51774066Y-61639598D01*
X51774065Y-61639597D01*
X51774065Y-61639596D01*
X51690404Y-61555935D01*
X51690402Y-61555934D01*
X51690401Y-61555933D01*
X51583176Y-61505933D01*
X51576797Y-61504074D01*
X51526222Y-61469639D01*
X51505546Y-61412053D01*
X51505500Y-61409029D01*
X51505500Y-38037148D01*
X51505500Y-38037147D01*
X51483318Y-37954362D01*
X51483318Y-37954361D01*
X51454194Y-37903918D01*
X51440465Y-37880138D01*
X51379862Y-37819535D01*
X51379859Y-37819533D01*
X49375618Y-35815291D01*
X49347842Y-35760775D01*
X49354159Y-35707402D01*
X49379663Y-35645831D01*
X49400130Y-35596420D01*
X49440500Y-35393465D01*
X49440500Y-35186535D01*
X49400130Y-34983580D01*
X49320941Y-34792402D01*
X49205977Y-34620345D01*
X49059655Y-34474023D01*
X49059651Y-34474020D01*
X48887597Y-34359058D01*
X48696418Y-34279869D01*
X48493467Y-34239500D01*
X48493465Y-34239500D01*
X48286535Y-34239500D01*
X48286532Y-34239500D01*
X48083581Y-34279869D01*
X47892402Y-34359058D01*
X47720348Y-34474020D01*
X47574020Y-34620348D01*
X47459058Y-34792402D01*
X47379869Y-34983581D01*
X47339500Y-35186532D01*
X47339500Y-35393467D01*
X47379869Y-35596418D01*
X47459058Y-35787597D01*
X47477563Y-35815292D01*
X47574023Y-35959655D01*
X47720345Y-36105977D01*
X47892402Y-36220941D01*
X48083580Y-36300130D01*
X48286535Y-36340500D01*
X48286536Y-36340500D01*
X48493464Y-36340500D01*
X48493465Y-36340500D01*
X48696420Y-36300130D01*
X48807402Y-36254158D01*
X48868399Y-36249358D01*
X48915292Y-36275619D01*
X50825504Y-38185830D01*
X50853281Y-38240347D01*
X50854500Y-38255834D01*
X50854500Y-39595165D01*
X50835593Y-39653356D01*
X50786093Y-39689320D01*
X50724907Y-39689320D01*
X50685496Y-39665169D01*
X49375619Y-38355292D01*
X49347842Y-38300775D01*
X49354159Y-38247402D01*
X49357081Y-38240347D01*
X49400130Y-38136420D01*
X49440500Y-37933465D01*
X49440500Y-37726535D01*
X49400130Y-37523580D01*
X49320941Y-37332402D01*
X49205977Y-37160345D01*
X49059655Y-37014023D01*
X48887598Y-36899059D01*
X48887599Y-36899059D01*
X48887597Y-36899058D01*
X48696418Y-36819869D01*
X48493467Y-36779500D01*
X48493465Y-36779500D01*
X48286535Y-36779500D01*
X48286532Y-36779500D01*
X48083581Y-36819869D01*
X47892402Y-36899058D01*
X47720348Y-37014020D01*
X47574020Y-37160348D01*
X47459058Y-37332402D01*
X47379869Y-37523581D01*
X47339500Y-37726532D01*
X47339500Y-37933467D01*
X47379869Y-38136418D01*
X47459058Y-38327597D01*
X47459059Y-38327598D01*
X47574023Y-38499655D01*
X47720345Y-38645977D01*
X47892402Y-38760941D01*
X48083580Y-38840130D01*
X48286535Y-38880500D01*
X48286536Y-38880500D01*
X48493464Y-38880500D01*
X48493465Y-38880500D01*
X48696420Y-38840130D01*
X48807402Y-38794158D01*
X48868399Y-38789358D01*
X48915292Y-38815619D01*
X50221604Y-40121931D01*
X50249381Y-40176448D01*
X50250600Y-40191935D01*
X50250600Y-41531265D01*
X50231693Y-41589456D01*
X50182193Y-41625420D01*
X50121007Y-41625420D01*
X50081596Y-41601269D01*
X49375619Y-40895292D01*
X49347842Y-40840775D01*
X49354159Y-40787402D01*
X49369593Y-40750141D01*
X49400130Y-40676420D01*
X49440500Y-40473465D01*
X49440500Y-40266535D01*
X49400130Y-40063580D01*
X49320941Y-39872402D01*
X49205977Y-39700345D01*
X49059655Y-39554023D01*
X49059651Y-39554020D01*
X48887597Y-39439058D01*
X48696418Y-39359869D01*
X48493467Y-39319500D01*
X48493465Y-39319500D01*
X48286535Y-39319500D01*
X48286532Y-39319500D01*
X48083581Y-39359869D01*
X47892402Y-39439058D01*
X47720348Y-39554020D01*
X47574020Y-39700348D01*
X47459058Y-39872402D01*
X47379869Y-40063581D01*
X47339500Y-40266532D01*
X47339500Y-40473467D01*
X47379869Y-40676418D01*
X47459058Y-40867597D01*
X47574020Y-41039651D01*
X47574023Y-41039655D01*
X47720345Y-41185977D01*
X47892402Y-41300941D01*
X48083580Y-41380130D01*
X48286535Y-41420500D01*
X48286536Y-41420500D01*
X48493464Y-41420500D01*
X48493465Y-41420500D01*
X48696420Y-41380130D01*
X48807402Y-41334158D01*
X48868399Y-41329358D01*
X48915292Y-41355619D01*
X49745304Y-42185631D01*
X49773081Y-42240148D01*
X49774300Y-42255635D01*
X49774300Y-43594965D01*
X49755393Y-43653156D01*
X49705893Y-43689120D01*
X49644707Y-43689120D01*
X49605296Y-43664969D01*
X49375619Y-43435292D01*
X49347842Y-43380775D01*
X49354159Y-43327402D01*
X49400130Y-43216420D01*
X49440500Y-43013465D01*
X49440500Y-42806535D01*
X49400130Y-42603580D01*
X49320941Y-42412402D01*
X49205977Y-42240345D01*
X49059655Y-42094023D01*
X48907370Y-41992270D01*
X48887597Y-41979058D01*
X48696418Y-41899869D01*
X48493467Y-41859500D01*
X48493465Y-41859500D01*
X48286535Y-41859500D01*
X48286532Y-41859500D01*
X48083581Y-41899869D01*
X47892402Y-41979058D01*
X47720348Y-42094020D01*
X47574020Y-42240348D01*
X47459058Y-42412402D01*
X47391467Y-42575581D01*
X47379870Y-42603580D01*
X47377171Y-42617149D01*
X47339500Y-42806532D01*
X47339500Y-43013467D01*
X47379869Y-43216418D01*
X47459058Y-43407597D01*
X47459059Y-43407598D01*
X47574023Y-43579655D01*
X47720345Y-43725977D01*
X47892402Y-43840941D01*
X48083580Y-43920130D01*
X48286535Y-43960500D01*
X48286536Y-43960500D01*
X48493464Y-43960500D01*
X48493465Y-43960500D01*
X48696420Y-43920130D01*
X48807402Y-43874158D01*
X48868399Y-43869358D01*
X48915292Y-43895619D01*
X49260904Y-44241231D01*
X49288681Y-44295748D01*
X49289900Y-44311235D01*
X49289900Y-47165261D01*
X49270993Y-47223452D01*
X49221493Y-47259416D01*
X49160307Y-47259416D01*
X49120898Y-47235266D01*
X49059655Y-47174023D01*
X48887598Y-47059059D01*
X48887599Y-47059059D01*
X48887597Y-47059058D01*
X48696418Y-46979869D01*
X48493467Y-46939500D01*
X48493465Y-46939500D01*
X48286535Y-46939500D01*
X48286532Y-46939500D01*
X48083581Y-46979869D01*
X47892402Y-47059058D01*
X47720348Y-47174020D01*
X47574020Y-47320348D01*
X47459058Y-47492402D01*
X47379869Y-47683581D01*
X47339500Y-47886532D01*
X47339500Y-47886535D01*
X47339500Y-48093465D01*
X47379869Y-48296417D01*
X47379870Y-48296419D01*
X47379870Y-48296421D01*
X47425840Y-48407402D01*
X47430641Y-48468398D01*
X47404380Y-48515291D01*
X40759532Y-55160141D01*
X40759531Y-55160142D01*
X40716683Y-55234356D01*
X40705045Y-55277793D01*
X40695409Y-55313757D01*
X40694500Y-55317148D01*
X40694500Y-61409029D01*
X40675593Y-61467220D01*
X40626093Y-61503184D01*
X40623203Y-61504074D01*
X40616823Y-61505933D01*
X40509598Y-61555933D01*
X40425933Y-61639598D01*
X40375932Y-61746824D01*
X40375932Y-61746825D01*
X40375932Y-61746827D01*
X40369500Y-61795684D01*
X40369500Y-64204316D01*
X40373788Y-64236887D01*
X40375932Y-64253174D01*
X40375932Y-64253175D01*
X40425122Y-64358661D01*
X40432579Y-64419390D01*
X40402916Y-64472904D01*
X40347463Y-64498762D01*
X40335398Y-64499500D01*
X39164602Y-64499500D01*
X39106411Y-64480593D01*
X39070447Y-64431093D01*
X39070447Y-64369907D01*
X39074878Y-64358661D01*
X39124067Y-64253175D01*
X39124068Y-64253173D01*
X39130500Y-64204316D01*
X39130500Y-61795684D01*
X39124068Y-61746827D01*
X39120805Y-61739830D01*
X39074066Y-61639598D01*
X39074065Y-61639597D01*
X39074065Y-61639596D01*
X38990404Y-61555935D01*
X38990402Y-61555934D01*
X38990401Y-61555933D01*
X38883176Y-61505933D01*
X38876797Y-61504074D01*
X38826222Y-61469639D01*
X38805546Y-61412053D01*
X38805500Y-61409029D01*
X38805500Y-61029235D01*
X38824407Y-60971044D01*
X38834496Y-60959231D01*
X38878231Y-60915496D01*
X38932748Y-60887719D01*
X38948235Y-60886500D01*
X39013290Y-60886500D01*
X39013292Y-60886500D01*
X39140586Y-60852392D01*
X39140588Y-60852390D01*
X39140590Y-60852390D01*
X39254709Y-60786503D01*
X39254709Y-60786502D01*
X39254714Y-60786500D01*
X39347900Y-60693314D01*
X39368859Y-60657012D01*
X39413790Y-60579190D01*
X39413790Y-60579188D01*
X39413792Y-60579186D01*
X39447900Y-60451892D01*
X39447900Y-60320108D01*
X39413792Y-60192814D01*
X39413790Y-60192811D01*
X39413790Y-60192809D01*
X39347903Y-60078690D01*
X39347901Y-60078688D01*
X39347900Y-60078686D01*
X39254714Y-59985500D01*
X39254711Y-59985498D01*
X39254709Y-59985496D01*
X39140589Y-59919609D01*
X39140591Y-59919609D01*
X39091199Y-59906375D01*
X39013292Y-59885500D01*
X38881508Y-59885500D01*
X38803600Y-59906375D01*
X38754209Y-59919609D01*
X38640090Y-59985496D01*
X38546896Y-60078690D01*
X38481009Y-60192809D01*
X38446900Y-60320109D01*
X38446900Y-60385165D01*
X38427993Y-60443356D01*
X38417904Y-60455168D01*
X38219535Y-60653537D01*
X38219531Y-60653542D01*
X38176683Y-60727757D01*
X38176681Y-60727761D01*
X38168255Y-60759205D01*
X38168256Y-60759206D01*
X38154500Y-60810546D01*
X38154500Y-61409029D01*
X38135593Y-61467220D01*
X38086093Y-61503184D01*
X38083203Y-61504074D01*
X38076823Y-61505933D01*
X37969598Y-61555933D01*
X37885933Y-61639598D01*
X37835932Y-61746824D01*
X37835932Y-61746825D01*
X37835932Y-61746827D01*
X37829500Y-61795684D01*
X37829500Y-64204316D01*
X37833788Y-64236887D01*
X37835932Y-64253174D01*
X37835932Y-64253175D01*
X37885122Y-64358661D01*
X37892579Y-64419390D01*
X37862916Y-64472904D01*
X37807463Y-64498762D01*
X37795398Y-64499500D01*
X36624602Y-64499500D01*
X36566411Y-64480593D01*
X36530447Y-64431093D01*
X36530447Y-64369907D01*
X36534878Y-64358661D01*
X36584067Y-64253175D01*
X36584068Y-64253173D01*
X36590500Y-64204316D01*
X36590500Y-61795684D01*
X36584068Y-61746827D01*
X36580805Y-61739830D01*
X36534066Y-61639598D01*
X36534065Y-61639597D01*
X36534065Y-61639596D01*
X36450404Y-61555935D01*
X36450402Y-61555934D01*
X36450401Y-61555933D01*
X36343176Y-61505933D01*
X36336797Y-61504074D01*
X36286222Y-61469639D01*
X36265546Y-61412053D01*
X36265500Y-61409029D01*
X36265500Y-60899553D01*
X36284407Y-60841362D01*
X36315000Y-60813817D01*
X36335024Y-60802255D01*
X36362314Y-60786500D01*
X36455500Y-60693314D01*
X36476459Y-60657012D01*
X36521390Y-60579190D01*
X36521390Y-60579188D01*
X36521392Y-60579186D01*
X36555500Y-60451892D01*
X36555500Y-60320108D01*
X36521392Y-60192814D01*
X36521390Y-60192811D01*
X36521390Y-60192809D01*
X36455503Y-60078690D01*
X36455501Y-60078688D01*
X36455500Y-60078686D01*
X36362314Y-59985500D01*
X36362311Y-59985498D01*
X36362309Y-59985496D01*
X36248189Y-59919609D01*
X36248191Y-59919609D01*
X36198799Y-59906375D01*
X36120892Y-59885500D01*
X35989108Y-59885500D01*
X35911200Y-59906375D01*
X35861809Y-59919609D01*
X35747690Y-59985496D01*
X35654496Y-60078690D01*
X35588609Y-60192809D01*
X35569539Y-60263978D01*
X35554500Y-60320108D01*
X35554500Y-60451892D01*
X35555378Y-60455168D01*
X35588609Y-60579189D01*
X35601235Y-60601056D01*
X35614500Y-60650558D01*
X35614500Y-61409029D01*
X35595593Y-61467220D01*
X35546093Y-61503184D01*
X35543203Y-61504074D01*
X35536823Y-61505933D01*
X35429598Y-61555933D01*
X35345933Y-61639598D01*
X35295932Y-61746824D01*
X35295932Y-61746825D01*
X35295932Y-61746827D01*
X35289500Y-61795684D01*
X35289500Y-64204316D01*
X35293788Y-64236887D01*
X35295932Y-64253174D01*
X35295932Y-64253175D01*
X35345122Y-64358661D01*
X35352579Y-64419390D01*
X35322916Y-64472904D01*
X35267463Y-64498762D01*
X35255398Y-64499500D01*
X34084602Y-64499500D01*
X34026411Y-64480593D01*
X33990447Y-64431093D01*
X33990447Y-64369907D01*
X33994878Y-64358661D01*
X34044067Y-64253175D01*
X34044068Y-64253173D01*
X34050500Y-64204316D01*
X34050500Y-61795684D01*
X34044068Y-61746827D01*
X34040805Y-61739830D01*
X33994066Y-61639598D01*
X33994065Y-61639597D01*
X33994065Y-61639596D01*
X33910404Y-61555935D01*
X33910402Y-61555934D01*
X33910401Y-61555933D01*
X33803176Y-61505933D01*
X33796797Y-61504074D01*
X33746222Y-61469639D01*
X33725546Y-61412053D01*
X33725500Y-61409029D01*
X33725500Y-50737148D01*
X33725500Y-50737147D01*
X33703318Y-50654362D01*
X33703318Y-50654361D01*
X33674194Y-50603918D01*
X33660465Y-50580138D01*
X33599862Y-50519535D01*
X33599859Y-50519533D01*
X31595618Y-48515291D01*
X31567842Y-48460775D01*
X31574159Y-48407402D01*
X31620130Y-48296420D01*
X31660500Y-48093465D01*
X31660500Y-47886535D01*
X31620130Y-47683580D01*
X31540941Y-47492402D01*
X31425977Y-47320345D01*
X31279655Y-47174023D01*
X31107598Y-47059059D01*
X31107599Y-47059059D01*
X31107597Y-47059058D01*
X30916418Y-46979869D01*
X30713467Y-46939500D01*
X30713465Y-46939500D01*
X30506535Y-46939500D01*
X30506532Y-46939500D01*
X30303581Y-46979869D01*
X30112402Y-47059058D01*
X29940348Y-47174020D01*
X29940345Y-47174022D01*
X29940345Y-47174023D01*
X29825001Y-47289366D01*
X29770487Y-47317142D01*
X29710055Y-47307571D01*
X29666790Y-47264306D01*
X29656000Y-47219361D01*
X29656000Y-44365333D01*
X29674907Y-44307142D01*
X29684990Y-44295336D01*
X30084708Y-43895617D01*
X30139223Y-43867841D01*
X30192594Y-43874157D01*
X30303580Y-43920130D01*
X30506535Y-43960500D01*
X30506536Y-43960500D01*
X30713464Y-43960500D01*
X30713465Y-43960500D01*
X30916420Y-43920130D01*
X31107598Y-43840941D01*
X31279655Y-43725977D01*
X31425977Y-43579655D01*
X31540941Y-43407598D01*
X31620130Y-43216420D01*
X31660500Y-43013465D01*
X31660500Y-42806535D01*
X31620130Y-42603580D01*
X31540941Y-42412402D01*
X31425977Y-42240345D01*
X31279655Y-42094023D01*
X31127370Y-41992270D01*
X31107597Y-41979058D01*
X30916418Y-41899869D01*
X30713467Y-41859500D01*
X30713465Y-41859500D01*
X30506535Y-41859500D01*
X30506532Y-41859500D01*
X30303581Y-41899869D01*
X30112402Y-41979058D01*
X29940348Y-42094020D01*
X29794020Y-42240348D01*
X29679058Y-42412402D01*
X29611467Y-42575581D01*
X29599870Y-42603580D01*
X29597171Y-42617149D01*
X29559500Y-42806532D01*
X29559500Y-42806535D01*
X29559500Y-43013465D01*
X29599869Y-43216417D01*
X29599870Y-43216419D01*
X29599870Y-43216421D01*
X29645840Y-43327402D01*
X29650641Y-43388398D01*
X29624380Y-43435290D01*
X29070035Y-43989637D01*
X29070031Y-43989642D01*
X29027182Y-44063860D01*
X29027181Y-44063860D01*
X29027182Y-44063861D01*
X29005000Y-44146647D01*
X29005000Y-61491524D01*
X28986093Y-61549715D01*
X28936593Y-61585679D01*
X28875407Y-61585679D01*
X28835998Y-61561529D01*
X28830404Y-61555935D01*
X28830402Y-61555934D01*
X28830401Y-61555933D01*
X28723176Y-61505933D01*
X28716797Y-61504074D01*
X28666222Y-61469639D01*
X28645546Y-61412053D01*
X28645500Y-61409029D01*
X28645500Y-42835834D01*
X28664407Y-42777643D01*
X28674490Y-42765836D01*
X30084709Y-41355616D01*
X30139224Y-41327841D01*
X30192593Y-41334157D01*
X30303580Y-41380130D01*
X30506535Y-41420500D01*
X30506536Y-41420500D01*
X30713464Y-41420500D01*
X30713465Y-41420500D01*
X30916420Y-41380130D01*
X31107598Y-41300941D01*
X31279655Y-41185977D01*
X31425977Y-41039655D01*
X31540941Y-40867598D01*
X31620130Y-40676420D01*
X31660500Y-40473465D01*
X31660500Y-40266535D01*
X31620130Y-40063580D01*
X31540941Y-39872402D01*
X31425977Y-39700345D01*
X31279655Y-39554023D01*
X31279651Y-39554020D01*
X31107597Y-39439058D01*
X30916418Y-39359869D01*
X30713467Y-39319500D01*
X30713465Y-39319500D01*
X30506535Y-39319500D01*
X30506532Y-39319500D01*
X30303581Y-39359869D01*
X30112402Y-39439058D01*
X29940348Y-39554020D01*
X29794020Y-39700348D01*
X29679058Y-39872402D01*
X29599869Y-40063581D01*
X29559500Y-40266532D01*
X29559500Y-40266535D01*
X29559500Y-40473465D01*
X29599869Y-40676417D01*
X29599870Y-40676419D01*
X29599870Y-40676421D01*
X29645840Y-40787402D01*
X29650641Y-40848398D01*
X29624380Y-40895291D01*
X28059532Y-42460141D01*
X28059531Y-42460142D01*
X28016683Y-42534356D01*
X27998135Y-42603577D01*
X27998135Y-42603580D01*
X27994500Y-42617147D01*
X27994500Y-42617149D01*
X27994500Y-61409029D01*
X27975593Y-61467220D01*
X27926093Y-61503184D01*
X27923203Y-61504074D01*
X27916823Y-61505933D01*
X27809598Y-61555933D01*
X27725933Y-61639598D01*
X27675932Y-61746824D01*
X27675932Y-61746825D01*
X27675932Y-61746827D01*
X27669500Y-61795684D01*
X27669500Y-64204316D01*
X27673788Y-64236887D01*
X27675932Y-64253174D01*
X27675932Y-64253175D01*
X27725122Y-64358661D01*
X27732579Y-64419390D01*
X27702916Y-64472904D01*
X27647463Y-64498762D01*
X27635398Y-64499500D01*
X26464602Y-64499500D01*
X26406411Y-64480593D01*
X26370447Y-64431093D01*
X26370447Y-64369907D01*
X26374878Y-64358661D01*
X26424067Y-64253175D01*
X26424068Y-64253173D01*
X26430500Y-64204316D01*
X26430500Y-61795684D01*
X26424068Y-61746827D01*
X26420805Y-61739830D01*
X26374066Y-61639598D01*
X26374065Y-61639597D01*
X26374065Y-61639596D01*
X26290404Y-61555935D01*
X26290402Y-61555934D01*
X26290401Y-61555933D01*
X26183176Y-61505933D01*
X26176797Y-61504074D01*
X26126222Y-61469639D01*
X26105546Y-61412053D01*
X26105500Y-61409029D01*
X26105500Y-42835833D01*
X26124407Y-42777642D01*
X26134490Y-42765835D01*
X30084708Y-38815616D01*
X30139223Y-38787841D01*
X30192593Y-38794157D01*
X30303580Y-38840130D01*
X30506535Y-38880500D01*
X30506536Y-38880500D01*
X30713464Y-38880500D01*
X30713465Y-38880500D01*
X30916420Y-38840130D01*
X31107598Y-38760941D01*
X31279655Y-38645977D01*
X31425977Y-38499655D01*
X31540941Y-38327598D01*
X31620130Y-38136420D01*
X31660500Y-37933465D01*
X31660500Y-37726535D01*
X31620130Y-37523580D01*
X31540941Y-37332402D01*
X31425977Y-37160345D01*
X31279655Y-37014023D01*
X31107598Y-36899059D01*
X31107599Y-36899059D01*
X31107597Y-36899058D01*
X30916418Y-36819869D01*
X30713467Y-36779500D01*
X30713465Y-36779500D01*
X30506535Y-36779500D01*
X30506532Y-36779500D01*
X30303581Y-36819869D01*
X30112402Y-36899058D01*
X29940348Y-37014020D01*
X29794020Y-37160348D01*
X29679058Y-37332402D01*
X29599869Y-37523581D01*
X29559500Y-37726532D01*
X29559500Y-37933467D01*
X29580123Y-38037147D01*
X29599869Y-38136417D01*
X29599870Y-38136419D01*
X29599870Y-38136421D01*
X29645840Y-38247403D01*
X29650640Y-38308400D01*
X29624380Y-38355292D01*
X25519532Y-42460141D01*
X25519531Y-42460142D01*
X25476683Y-42534356D01*
X25458135Y-42603577D01*
X25458135Y-42603580D01*
X25454500Y-42617147D01*
X25454500Y-42617149D01*
X25454500Y-61409029D01*
X25435593Y-61467220D01*
X25386093Y-61503184D01*
X25383203Y-61504074D01*
X25376823Y-61505933D01*
X25269598Y-61555933D01*
X25185933Y-61639598D01*
X25135932Y-61746824D01*
X25135932Y-61746825D01*
X25135932Y-61746827D01*
X25129500Y-61795684D01*
X25129500Y-64204316D01*
X25133788Y-64236887D01*
X25135932Y-64253174D01*
X25135932Y-64253175D01*
X25185122Y-64358661D01*
X25192579Y-64419390D01*
X25162916Y-64472904D01*
X25107463Y-64498762D01*
X25095398Y-64499500D01*
X23924602Y-64499500D01*
X23866411Y-64480593D01*
X23830447Y-64431093D01*
X23830447Y-64369907D01*
X23834878Y-64358661D01*
X23884067Y-64253175D01*
X23884068Y-64253173D01*
X23890500Y-64204316D01*
X23890500Y-62850832D01*
X23909407Y-62792641D01*
X23919491Y-62780834D01*
X24066559Y-62633766D01*
X24066562Y-62633765D01*
X24127165Y-62573162D01*
X24170018Y-62498938D01*
X24192201Y-62416153D01*
X24192201Y-62330447D01*
X24192201Y-62324385D01*
X24192200Y-62324367D01*
X24192200Y-42209134D01*
X24211107Y-42150943D01*
X24221190Y-42139136D01*
X30084709Y-36275616D01*
X30139224Y-36247841D01*
X30192593Y-36254157D01*
X30303580Y-36300130D01*
X30506535Y-36340500D01*
X30506536Y-36340500D01*
X30713464Y-36340500D01*
X30713465Y-36340500D01*
X30916420Y-36300130D01*
X31107598Y-36220941D01*
X31279655Y-36105977D01*
X31425977Y-35959655D01*
X31540941Y-35787598D01*
X31620130Y-35596420D01*
X31660500Y-35393465D01*
X31660500Y-35186535D01*
X31620130Y-34983580D01*
X31540941Y-34792402D01*
X31425977Y-34620345D01*
X31279655Y-34474023D01*
X31279651Y-34474020D01*
X31107597Y-34359058D01*
X30916418Y-34279869D01*
X30713467Y-34239500D01*
X30713465Y-34239500D01*
X30506535Y-34239500D01*
X30506532Y-34239500D01*
X30303581Y-34279869D01*
X30112402Y-34359058D01*
X29940348Y-34474020D01*
X29794020Y-34620348D01*
X29679058Y-34792402D01*
X29599869Y-34983581D01*
X29559500Y-35186532D01*
X29559500Y-35393467D01*
X29580123Y-35497147D01*
X29599869Y-35596417D01*
X29599870Y-35596419D01*
X29599870Y-35596421D01*
X29645840Y-35707402D01*
X29650641Y-35768398D01*
X29624380Y-35815291D01*
X23606234Y-41833439D01*
X23563380Y-41907664D01*
X23563380Y-41907665D01*
X23550923Y-41954159D01*
X23541200Y-41990446D01*
X23541200Y-53735894D01*
X23522293Y-53794085D01*
X23472793Y-53830049D01*
X23411607Y-53830049D01*
X23362107Y-53794085D01*
X23344419Y-53751381D01*
X23316015Y-53572051D01*
X23316015Y-53572049D01*
X23247895Y-53362394D01*
X23147815Y-53165978D01*
X23018242Y-52987635D01*
X22862365Y-52831758D01*
X22684022Y-52702185D01*
X22684021Y-52702184D01*
X22684019Y-52702183D01*
X22594825Y-52656736D01*
X22487606Y-52602105D01*
X22487602Y-52602104D01*
X22487599Y-52602102D01*
X22277948Y-52533984D01*
X22060225Y-52499500D01*
X22060222Y-52499500D01*
X21839778Y-52499500D01*
X21839775Y-52499500D01*
X21622051Y-52533984D01*
X21412400Y-52602102D01*
X21215980Y-52702183D01*
X21126806Y-52766971D01*
X21037635Y-52831758D01*
X20881801Y-52987591D01*
X20827287Y-53015367D01*
X20766855Y-53005796D01*
X20723590Y-52962531D01*
X20712800Y-52917586D01*
X20712800Y-40608534D01*
X20731707Y-40550343D01*
X20741790Y-40538536D01*
X30084709Y-31195616D01*
X30139224Y-31167841D01*
X30192593Y-31174157D01*
X30303580Y-31220130D01*
X30506535Y-31260500D01*
X30506536Y-31260500D01*
X30713464Y-31260500D01*
X30713465Y-31260500D01*
X30916420Y-31220130D01*
X31107598Y-31140941D01*
X31279655Y-31025977D01*
X31425977Y-30879655D01*
X31540941Y-30707598D01*
X31620130Y-30516420D01*
X31660500Y-30313465D01*
X31660500Y-30106535D01*
X31620130Y-29903580D01*
X31540941Y-29712402D01*
X31425977Y-29540345D01*
X31279655Y-29394023D01*
X31279651Y-29394020D01*
X31107597Y-29279058D01*
X30916418Y-29199869D01*
X30713467Y-29159500D01*
X30713465Y-29159500D01*
X30506535Y-29159500D01*
X30506532Y-29159500D01*
X30303581Y-29199869D01*
X30112402Y-29279058D01*
X29940348Y-29394020D01*
X29794020Y-29540348D01*
X29679058Y-29712402D01*
X29599869Y-29903581D01*
X29559500Y-30106532D01*
X29559500Y-30106535D01*
X29559500Y-30313465D01*
X29599869Y-30516417D01*
X29599870Y-30516419D01*
X29599870Y-30516421D01*
X29645840Y-30627402D01*
X29650641Y-30688398D01*
X29624380Y-30735291D01*
X20126834Y-40232839D01*
X20083980Y-40307064D01*
X20083979Y-40307067D01*
X20071127Y-40355039D01*
X20071126Y-40355044D01*
X20061800Y-40389846D01*
X20061800Y-61712558D01*
X20057848Y-61740252D01*
X20055932Y-61746825D01*
X20055932Y-61746827D01*
X20049500Y-61795684D01*
X20049500Y-64204316D01*
X20053788Y-64236887D01*
X20055932Y-64253174D01*
X20055932Y-64253175D01*
X20105122Y-64358661D01*
X20112579Y-64419390D01*
X20082916Y-64472904D01*
X20027463Y-64498762D01*
X20015398Y-64499500D01*
X18844602Y-64499500D01*
X18786411Y-64480593D01*
X18750447Y-64431093D01*
X18750447Y-64369907D01*
X18754878Y-64358661D01*
X18804067Y-64253175D01*
X18804068Y-64253173D01*
X18810500Y-64204316D01*
X18810500Y-61795684D01*
X18804068Y-61746827D01*
X18800805Y-61739830D01*
X18754066Y-61639598D01*
X18754065Y-61639597D01*
X18754065Y-61639596D01*
X18670404Y-61555935D01*
X18670402Y-61555934D01*
X18670401Y-61555933D01*
X18563175Y-61505932D01*
X18530601Y-61501644D01*
X18514316Y-61499500D01*
X17805684Y-61499500D01*
X17789398Y-61501644D01*
X17756825Y-61505932D01*
X17756824Y-61505932D01*
X17649598Y-61555933D01*
X17565933Y-61639598D01*
X17528370Y-61720151D01*
X17486641Y-61764899D01*
X17426580Y-61776573D01*
X17371127Y-61750714D01*
X17368642Y-61748315D01*
X17257896Y-61637569D01*
X17230119Y-61583052D01*
X17228900Y-61567565D01*
X17228900Y-55371948D01*
X17247807Y-55313757D01*
X17297307Y-55277793D01*
X17358493Y-55277793D01*
X17360559Y-55278491D01*
X17415302Y-55297646D01*
X17445735Y-55300500D01*
X19454264Y-55300499D01*
X19454265Y-55300499D01*
X19460350Y-55299928D01*
X19484698Y-55297646D01*
X19612882Y-55252793D01*
X19722150Y-55172150D01*
X19802793Y-55062882D01*
X19847646Y-54934698D01*
X19850500Y-54904265D01*
X19850499Y-52895736D01*
X19847646Y-52865302D01*
X19802793Y-52737118D01*
X19802791Y-52737116D01*
X19802791Y-52737114D01*
X19722154Y-52627855D01*
X19722152Y-52627853D01*
X19722150Y-52627850D01*
X19722146Y-52627847D01*
X19722144Y-52627845D01*
X19612885Y-52547208D01*
X19539403Y-52521496D01*
X19484698Y-52502354D01*
X19484696Y-52502353D01*
X19484694Y-52502353D01*
X19454272Y-52499500D01*
X17445734Y-52499500D01*
X17415305Y-52502353D01*
X17360597Y-52521496D01*
X17299427Y-52522868D01*
X17249133Y-52488023D01*
X17228925Y-52430271D01*
X17228900Y-52428051D01*
X17228900Y-41125834D01*
X17247807Y-41067643D01*
X17257896Y-41055830D01*
X24084430Y-34229296D01*
X24138947Y-34201519D01*
X24154434Y-34200300D01*
X24448051Y-34200300D01*
X24448053Y-34200300D01*
X24530839Y-34178118D01*
X24530841Y-34178116D01*
X24530843Y-34178116D01*
X24605057Y-34135268D01*
X24605057Y-34135267D01*
X24605062Y-34135265D01*
X30084709Y-28655616D01*
X30139224Y-28627841D01*
X30192593Y-28634157D01*
X30303580Y-28680130D01*
X30506535Y-28720500D01*
X30506536Y-28720500D01*
X30713464Y-28720500D01*
X30713465Y-28720500D01*
X30916420Y-28680130D01*
X31107598Y-28600941D01*
X31279655Y-28485977D01*
X31425977Y-28339655D01*
X31540941Y-28167598D01*
X31620130Y-27976420D01*
X31660500Y-27773465D01*
X31660500Y-27566535D01*
X31620130Y-27363580D01*
X31540941Y-27172402D01*
X31425977Y-27000345D01*
X31279655Y-26854023D01*
X31268155Y-26846339D01*
X31107597Y-26739058D01*
X30916418Y-26659869D01*
X30713467Y-26619500D01*
X30713465Y-26619500D01*
X30506535Y-26619500D01*
X30506532Y-26619500D01*
X30303581Y-26659869D01*
X30112402Y-26739058D01*
X29940348Y-26854020D01*
X29794020Y-27000348D01*
X29679058Y-27172402D01*
X29599869Y-27363581D01*
X29559500Y-27566532D01*
X29559500Y-27773467D01*
X29599870Y-27976419D01*
X29599870Y-27976421D01*
X29645840Y-28087402D01*
X29650641Y-28148398D01*
X29624380Y-28195291D01*
X24457504Y-33362168D01*
X24402987Y-33389945D01*
X24342555Y-33380374D01*
X24299290Y-33337109D01*
X24288500Y-33292164D01*
X24288500Y-33248934D01*
X24307407Y-33190743D01*
X24317490Y-33178936D01*
X24978165Y-32518262D01*
X25021017Y-32444039D01*
X25021018Y-32444038D01*
X25043200Y-32361253D01*
X25043200Y-25167621D01*
X25062107Y-25109430D01*
X25072190Y-25097623D01*
X25118200Y-25051614D01*
X25132679Y-25026536D01*
X25184090Y-24937490D01*
X25184090Y-24937488D01*
X25184092Y-24937486D01*
X25218200Y-24810192D01*
X25218200Y-24678408D01*
X25184092Y-24551114D01*
X25184090Y-24551111D01*
X25184090Y-24551109D01*
X25118203Y-24436990D01*
X25118201Y-24436988D01*
X25118200Y-24436986D01*
X25025014Y-24343800D01*
X25025011Y-24343798D01*
X25025009Y-24343796D01*
X24910889Y-24277909D01*
X24910891Y-24277909D01*
X24858211Y-24263794D01*
X24783592Y-24243800D01*
X24651808Y-24243800D01*
X24541121Y-24273457D01*
X24480021Y-24270255D01*
X24432471Y-24231750D01*
X24416500Y-24177831D01*
X24416500Y-19762100D01*
X24435407Y-19703909D01*
X24484907Y-19667945D01*
X24515500Y-19663100D01*
X24551290Y-19663100D01*
X24551292Y-19663100D01*
X24678586Y-19628992D01*
X24678588Y-19628990D01*
X24678590Y-19628990D01*
X24792709Y-19563103D01*
X24792709Y-19563102D01*
X24792714Y-19563100D01*
X24885900Y-19469914D01*
X24885903Y-19469909D01*
X24951790Y-19355790D01*
X24951790Y-19355788D01*
X24951792Y-19355786D01*
X24985900Y-19228492D01*
X24985900Y-19096708D01*
X24951792Y-18969414D01*
X24951790Y-18969411D01*
X24951790Y-18969409D01*
X24885903Y-18855290D01*
X24885901Y-18855288D01*
X24885900Y-18855286D01*
X24792714Y-18762100D01*
X24792711Y-18762098D01*
X24792709Y-18762096D01*
X24678589Y-18696209D01*
X24678585Y-18696207D01*
X24668761Y-18693575D01*
X24617447Y-18660251D01*
X24595521Y-18603129D01*
X24611357Y-18544029D01*
X24624377Y-18527949D01*
X28053596Y-15098728D01*
X28108113Y-15070952D01*
X28168545Y-15080523D01*
X28211810Y-15123788D01*
X28222600Y-15168733D01*
X28222600Y-15406565D01*
X28203693Y-15464756D01*
X28193604Y-15476568D01*
X27911435Y-15758737D01*
X27868580Y-15832964D01*
X27868579Y-15832966D01*
X27865385Y-15844891D01*
X27865385Y-15844892D01*
X27865385Y-15844893D01*
X27846400Y-15915747D01*
X27846400Y-16434747D01*
X27846400Y-16520453D01*
X27862103Y-16579058D01*
X27868583Y-16603243D01*
X27911431Y-16677457D01*
X27911435Y-16677462D01*
X28193603Y-16959629D01*
X28221381Y-17014146D01*
X28222600Y-17029633D01*
X28222600Y-23025247D01*
X28222600Y-23110953D01*
X28236776Y-23163859D01*
X28244783Y-23193743D01*
X28287631Y-23267957D01*
X28287632Y-23267958D01*
X28287633Y-23267959D01*
X28287635Y-23267962D01*
X28970563Y-23950890D01*
X29624380Y-24604707D01*
X29652157Y-24659224D01*
X29645840Y-24712596D01*
X29599870Y-24823578D01*
X29599870Y-24823580D01*
X29559500Y-25026532D01*
X29559500Y-25233467D01*
X29599869Y-25436418D01*
X29679058Y-25627597D01*
X29794020Y-25799651D01*
X29794023Y-25799655D01*
X29940345Y-25945977D01*
X30112402Y-26060941D01*
X30303580Y-26140130D01*
X30506535Y-26180500D01*
X30506536Y-26180500D01*
X30713464Y-26180500D01*
X30713465Y-26180500D01*
X30916420Y-26140130D01*
X31107598Y-26060941D01*
X31279655Y-25945977D01*
X31425977Y-25799655D01*
X31540941Y-25627598D01*
X31620130Y-25436420D01*
X31660500Y-25233465D01*
X31660500Y-25026535D01*
X31620130Y-24823580D01*
X31540941Y-24632402D01*
X31425977Y-24460345D01*
X31279655Y-24314023D01*
X31279651Y-24314020D01*
X31107597Y-24199058D01*
X30916418Y-24119869D01*
X30713467Y-24079500D01*
X30713465Y-24079500D01*
X30506535Y-24079500D01*
X30506532Y-24079500D01*
X30303580Y-24119870D01*
X30303578Y-24119870D01*
X30192596Y-24165840D01*
X30131599Y-24170640D01*
X30084707Y-24144380D01*
X28902596Y-22962269D01*
X28874819Y-22907752D01*
X28873600Y-22892265D01*
X28873600Y-20744534D01*
X28892507Y-20686343D01*
X28942007Y-20650379D01*
X29003193Y-20650379D01*
X29042601Y-20674528D01*
X29948538Y-21580465D01*
X29948540Y-21580466D01*
X29948542Y-21580468D01*
X29961669Y-21588047D01*
X30002610Y-21633516D01*
X30009006Y-21694367D01*
X29978413Y-21747355D01*
X29967170Y-21756098D01*
X29940351Y-21774017D01*
X29794020Y-21920348D01*
X29679058Y-22092402D01*
X29599869Y-22283581D01*
X29559500Y-22486532D01*
X29559500Y-22693467D01*
X29599869Y-22896418D01*
X29679058Y-23087597D01*
X29791309Y-23255593D01*
X29794023Y-23259655D01*
X29940345Y-23405977D01*
X30112402Y-23520941D01*
X30303580Y-23600130D01*
X30506535Y-23640500D01*
X30506536Y-23640500D01*
X30713464Y-23640500D01*
X30713465Y-23640500D01*
X30916420Y-23600130D01*
X31107598Y-23520941D01*
X31279655Y-23405977D01*
X31425977Y-23259655D01*
X31540941Y-23087598D01*
X31620130Y-22896420D01*
X31660500Y-22693465D01*
X31660500Y-22610735D01*
X31679407Y-22552544D01*
X31728907Y-22516580D01*
X31790093Y-22516580D01*
X31829504Y-22540731D01*
X32728104Y-23439331D01*
X32755881Y-23493848D01*
X32757100Y-23509335D01*
X32757100Y-32723778D01*
X32738193Y-32781969D01*
X32728104Y-32793781D01*
X32682100Y-32839784D01*
X32682096Y-32839790D01*
X32616209Y-32953909D01*
X32616208Y-32953914D01*
X32582100Y-33081208D01*
X32582100Y-33212992D01*
X32591731Y-33248934D01*
X32616209Y-33340290D01*
X32682096Y-33454409D01*
X32682098Y-33454411D01*
X32682100Y-33454414D01*
X32775286Y-33547600D01*
X32775288Y-33547601D01*
X32775290Y-33547603D01*
X32889410Y-33613490D01*
X32889408Y-33613490D01*
X32889412Y-33613491D01*
X32889414Y-33613492D01*
X33016708Y-33647600D01*
X33016710Y-33647600D01*
X33148490Y-33647600D01*
X33148492Y-33647600D01*
X33275786Y-33613492D01*
X33275788Y-33613490D01*
X33275790Y-33613490D01*
X33389909Y-33547603D01*
X33389909Y-33547602D01*
X33389914Y-33547600D01*
X33483100Y-33454414D01*
X33490677Y-33441290D01*
X33548990Y-33340290D01*
X33548990Y-33340288D01*
X33548992Y-33340286D01*
X33583100Y-33212992D01*
X33583100Y-33081208D01*
X33548992Y-32953914D01*
X33548990Y-32953911D01*
X33548990Y-32953909D01*
X33483103Y-32839790D01*
X33483099Y-32839784D01*
X33437096Y-32793781D01*
X33409319Y-32739264D01*
X33408100Y-32723778D01*
X33408100Y-24332208D01*
X34348300Y-24332208D01*
X34348300Y-51685396D01*
X34375220Y-51820727D01*
X34375220Y-51820729D01*
X34428023Y-51948208D01*
X34428024Y-51948210D01*
X34428025Y-51948211D01*
X34504686Y-52062943D01*
X35608457Y-53166714D01*
X35723189Y-53243375D01*
X35850672Y-53296180D01*
X35986006Y-53323100D01*
X35986007Y-53323100D01*
X36123993Y-53323100D01*
X36123994Y-53323100D01*
X36259329Y-53296180D01*
X36386811Y-53243375D01*
X36501543Y-53166714D01*
X36599114Y-53069143D01*
X36675775Y-52954411D01*
X36728580Y-52826929D01*
X36755500Y-52691594D01*
X36755500Y-52553606D01*
X36728580Y-52418272D01*
X36675775Y-52290789D01*
X36599114Y-52176057D01*
X35778296Y-51355239D01*
X35750519Y-51300722D01*
X35749300Y-51285235D01*
X35749300Y-28618963D01*
X35768207Y-28560772D01*
X35817707Y-28524808D01*
X35873921Y-28523336D01*
X35989108Y-28554200D01*
X35989110Y-28554200D01*
X36120890Y-28554200D01*
X36120892Y-28554200D01*
X36248186Y-28520092D01*
X36248188Y-28520090D01*
X36248190Y-28520090D01*
X36362309Y-28454203D01*
X36362309Y-28454202D01*
X36362314Y-28454200D01*
X36455500Y-28361014D01*
X36498900Y-28285843D01*
X36521390Y-28246890D01*
X36521390Y-28246888D01*
X36521392Y-28246886D01*
X36555500Y-28119592D01*
X36555500Y-28054533D01*
X36574407Y-27996342D01*
X36584490Y-27984535D01*
X37587859Y-26981166D01*
X37587862Y-26981165D01*
X37648465Y-26920562D01*
X37669891Y-26883450D01*
X37691318Y-26846339D01*
X37713501Y-26763553D01*
X37713501Y-26677847D01*
X37713501Y-26671785D01*
X37713500Y-26671767D01*
X37713500Y-23489774D01*
X37949500Y-23489774D01*
X37949500Y-23710225D01*
X37983984Y-23927948D01*
X38052102Y-24137599D01*
X38052104Y-24137602D01*
X38052105Y-24137606D01*
X38082302Y-24196870D01*
X38151260Y-24332208D01*
X38152185Y-24334022D01*
X38281758Y-24512365D01*
X38437635Y-24668242D01*
X38615978Y-24797815D01*
X38812394Y-24897895D01*
X39022049Y-24966015D01*
X39109140Y-24979809D01*
X39239775Y-25000500D01*
X39239778Y-25000500D01*
X39460225Y-25000500D01*
X39569086Y-24983257D01*
X39677951Y-24966015D01*
X39887606Y-24897895D01*
X40084022Y-24797815D01*
X40262365Y-24668242D01*
X40418242Y-24512365D01*
X40547815Y-24334022D01*
X40647895Y-24137606D01*
X40716015Y-23927951D01*
X40737439Y-23792686D01*
X40750500Y-23710225D01*
X40750500Y-23489774D01*
X40726601Y-23338888D01*
X40716015Y-23272049D01*
X40647895Y-23062394D01*
X40547815Y-22865978D01*
X40418242Y-22687635D01*
X40262365Y-22531758D01*
X40084022Y-22402185D01*
X40084021Y-22402184D01*
X40084019Y-22402183D01*
X39961978Y-22340000D01*
X39887606Y-22302105D01*
X39887602Y-22302104D01*
X39887599Y-22302102D01*
X39677948Y-22233984D01*
X39460225Y-22199500D01*
X39460222Y-22199500D01*
X39239778Y-22199500D01*
X39239775Y-22199500D01*
X39022051Y-22233984D01*
X38812400Y-22302102D01*
X38615980Y-22402183D01*
X38533433Y-22462157D01*
X38437635Y-22531758D01*
X38281758Y-22687635D01*
X38223733Y-22767500D01*
X38152183Y-22865980D01*
X38052102Y-23062400D01*
X37983984Y-23272051D01*
X37949500Y-23489774D01*
X37713500Y-23489774D01*
X37713500Y-17789648D01*
X37713500Y-17789647D01*
X37691318Y-17706862D01*
X37691318Y-17706861D01*
X37691318Y-17706860D01*
X37648468Y-17632642D01*
X37648466Y-17632640D01*
X37648465Y-17632638D01*
X37422359Y-17406532D01*
X47339500Y-17406532D01*
X47339500Y-17613467D01*
X47379869Y-17816418D01*
X47459058Y-18007597D01*
X47574020Y-18179651D01*
X47574023Y-18179655D01*
X47720345Y-18325977D01*
X47892402Y-18440941D01*
X48083580Y-18520130D01*
X48286535Y-18560500D01*
X48286536Y-18560500D01*
X48493464Y-18560500D01*
X48493465Y-18560500D01*
X48696420Y-18520130D01*
X48887598Y-18440941D01*
X49059655Y-18325977D01*
X49205977Y-18179655D01*
X49320941Y-18007598D01*
X49400130Y-17816420D01*
X49440500Y-17613465D01*
X49440500Y-17406535D01*
X49400130Y-17203580D01*
X49320941Y-17012402D01*
X49205977Y-16840345D01*
X49059655Y-16694023D01*
X49059651Y-16694020D01*
X48887597Y-16579058D01*
X48696418Y-16499869D01*
X48493467Y-16459500D01*
X48493465Y-16459500D01*
X48286535Y-16459500D01*
X48286532Y-16459500D01*
X48083581Y-16499869D01*
X47892402Y-16579058D01*
X47720348Y-16694020D01*
X47574020Y-16840348D01*
X47459058Y-17012402D01*
X47379869Y-17203581D01*
X47339500Y-17406532D01*
X37422359Y-17406532D01*
X36283896Y-16268069D01*
X36256119Y-16213552D01*
X36254900Y-16198065D01*
X36254900Y-16133009D01*
X36254900Y-16133008D01*
X36220792Y-16005714D01*
X36220790Y-16005711D01*
X36220790Y-16005709D01*
X36154903Y-15891590D01*
X36154901Y-15891588D01*
X36154900Y-15891586D01*
X36061714Y-15798400D01*
X36061711Y-15798398D01*
X36061709Y-15798396D01*
X35947589Y-15732509D01*
X35947591Y-15732509D01*
X35891948Y-15717600D01*
X35820292Y-15698400D01*
X35688508Y-15698400D01*
X35616852Y-15717600D01*
X35561209Y-15732509D01*
X35447090Y-15798396D01*
X35353896Y-15891590D01*
X35288009Y-16005709D01*
X35288008Y-16005714D01*
X35253900Y-16133008D01*
X35253900Y-16264792D01*
X35267129Y-16314163D01*
X35288009Y-16392090D01*
X35353896Y-16506209D01*
X35353898Y-16506211D01*
X35353900Y-16506214D01*
X35447086Y-16599400D01*
X35447088Y-16599401D01*
X35447090Y-16599403D01*
X35561210Y-16665290D01*
X35561208Y-16665290D01*
X35561212Y-16665291D01*
X35561214Y-16665292D01*
X35688508Y-16699400D01*
X35753565Y-16699400D01*
X35811756Y-16718307D01*
X35823569Y-16728396D01*
X37033504Y-17938331D01*
X37061281Y-17992848D01*
X37062500Y-18008335D01*
X37062500Y-22125042D01*
X37043593Y-22183233D01*
X36994093Y-22219197D01*
X36932907Y-22219197D01*
X36930831Y-22218496D01*
X36884698Y-22202354D01*
X36884696Y-22202353D01*
X36884694Y-22202353D01*
X36854272Y-22199500D01*
X34845734Y-22199500D01*
X34815305Y-22202353D01*
X34687114Y-22247208D01*
X34577855Y-22327845D01*
X34577845Y-22327855D01*
X34497208Y-22437114D01*
X34452353Y-22565305D01*
X34449500Y-22595726D01*
X34449500Y-24007217D01*
X34432820Y-24062212D01*
X34428024Y-24069390D01*
X34375220Y-24196870D01*
X34375220Y-24196872D01*
X34354019Y-24303458D01*
X34348300Y-24332208D01*
X33408100Y-24332208D01*
X33408100Y-23290648D01*
X33408099Y-23290644D01*
X33407792Y-23289500D01*
X33404388Y-23276793D01*
X33385918Y-23207861D01*
X33385916Y-23207858D01*
X33385916Y-23207856D01*
X33343068Y-23133642D01*
X33343066Y-23133640D01*
X33343065Y-23133638D01*
X31268962Y-21059535D01*
X31268959Y-21059533D01*
X31268957Y-21059531D01*
X31194742Y-21016683D01*
X31194744Y-21016683D01*
X31162621Y-21008076D01*
X31111953Y-20994500D01*
X31111951Y-20994500D01*
X30324235Y-20994500D01*
X30266044Y-20975593D01*
X30254231Y-20965504D01*
X29506596Y-20217869D01*
X29478819Y-20163352D01*
X29477600Y-20147865D01*
X29477600Y-18018939D01*
X29496507Y-17960748D01*
X29546007Y-17924784D01*
X29607193Y-17924784D01*
X29656693Y-17960748D01*
X29668064Y-17981054D01*
X29679057Y-18007595D01*
X29679058Y-18007597D01*
X29679059Y-18007598D01*
X29794023Y-18179655D01*
X29940345Y-18325977D01*
X30112402Y-18440941D01*
X30303580Y-18520130D01*
X30506535Y-18560500D01*
X30506536Y-18560500D01*
X30713464Y-18560500D01*
X30713465Y-18560500D01*
X30916420Y-18520130D01*
X31107598Y-18440941D01*
X31279655Y-18325977D01*
X31425977Y-18179655D01*
X31540941Y-18007598D01*
X31620130Y-17816420D01*
X31660500Y-17613465D01*
X31660500Y-17406535D01*
X31620130Y-17203580D01*
X31540941Y-17012402D01*
X31425977Y-16840345D01*
X31279655Y-16694023D01*
X31279651Y-16694020D01*
X31107597Y-16579058D01*
X30916418Y-16499869D01*
X30713467Y-16459500D01*
X30713465Y-16459500D01*
X30506535Y-16459500D01*
X30506532Y-16459500D01*
X30303581Y-16499869D01*
X30112402Y-16579058D01*
X29940348Y-16694020D01*
X29794020Y-16840348D01*
X29679058Y-17012402D01*
X29668064Y-17038946D01*
X29628327Y-17085471D01*
X29568832Y-17099755D01*
X29512305Y-17076340D01*
X29480335Y-17024171D01*
X29477600Y-17001060D01*
X29477600Y-16528748D01*
X29477600Y-16528747D01*
X29455418Y-16445962D01*
X29412565Y-16371738D01*
X29395999Y-16355172D01*
X29351962Y-16311134D01*
X29351962Y-16311135D01*
X29328096Y-16287269D01*
X29300319Y-16232752D01*
X29299100Y-16217265D01*
X29299100Y-16152209D01*
X29299100Y-16152208D01*
X29264992Y-16024914D01*
X29264990Y-16024911D01*
X29264990Y-16024909D01*
X29199103Y-15910790D01*
X29199101Y-15910788D01*
X29199100Y-15910786D01*
X29105914Y-15817600D01*
X29105911Y-15817598D01*
X29105909Y-15817596D01*
X28991789Y-15751709D01*
X28991785Y-15751707D01*
X28945407Y-15739280D01*
X28894093Y-15705956D01*
X28872167Y-15648834D01*
X28872879Y-15630726D01*
X28873600Y-15625252D01*
X28873600Y-15157821D01*
X28892507Y-15099630D01*
X28902590Y-15087823D01*
X28948600Y-15041814D01*
X28948603Y-15041809D01*
X29014490Y-14927690D01*
X29014490Y-14927688D01*
X29014492Y-14927686D01*
X29048600Y-14800392D01*
X29048600Y-14668608D01*
X29014492Y-14541314D01*
X29014490Y-14541311D01*
X29014490Y-14541309D01*
X28948603Y-14427190D01*
X28948601Y-14427188D01*
X28948600Y-14427186D01*
X28906871Y-14385457D01*
X28879096Y-14330943D01*
X28888667Y-14270511D01*
X28906874Y-14245452D01*
X29004531Y-14147796D01*
X29059047Y-14120019D01*
X29074534Y-14118800D01*
X29736561Y-14118800D01*
X29794752Y-14137707D01*
X29830716Y-14187207D01*
X29830716Y-14248393D01*
X29806566Y-14287801D01*
X29794023Y-14300345D01*
X29794020Y-14300348D01*
X29679058Y-14472402D01*
X29599869Y-14663581D01*
X29559500Y-14866532D01*
X29559500Y-15073467D01*
X29599869Y-15276418D01*
X29679058Y-15467597D01*
X29727133Y-15539547D01*
X29794023Y-15639655D01*
X29940345Y-15785977D01*
X30112402Y-15900941D01*
X30303580Y-15980130D01*
X30506535Y-16020500D01*
X30506536Y-16020500D01*
X30713464Y-16020500D01*
X30713465Y-16020500D01*
X30916420Y-15980130D01*
X31107598Y-15900941D01*
X31279655Y-15785977D01*
X31425977Y-15639655D01*
X31540941Y-15467598D01*
X31620130Y-15276420D01*
X31660500Y-15073465D01*
X31660500Y-14866535D01*
X31660499Y-14866532D01*
X47339500Y-14866532D01*
X47339500Y-15073467D01*
X47379869Y-15276418D01*
X47459058Y-15467597D01*
X47507133Y-15539547D01*
X47574023Y-15639655D01*
X47720345Y-15785977D01*
X47892402Y-15900941D01*
X48083580Y-15980130D01*
X48286535Y-16020500D01*
X48286536Y-16020500D01*
X48493464Y-16020500D01*
X48493465Y-16020500D01*
X48696420Y-15980130D01*
X48887598Y-15900941D01*
X49059655Y-15785977D01*
X49205977Y-15639655D01*
X49320941Y-15467598D01*
X49400130Y-15276420D01*
X49440500Y-15073465D01*
X49440500Y-14866535D01*
X49400130Y-14663580D01*
X49320941Y-14472402D01*
X49205977Y-14300345D01*
X49059655Y-14154023D01*
X49050336Y-14147796D01*
X48887597Y-14039058D01*
X48696418Y-13959869D01*
X48493467Y-13919500D01*
X48493465Y-13919500D01*
X48286535Y-13919500D01*
X48286532Y-13919500D01*
X48083581Y-13959869D01*
X47892402Y-14039058D01*
X47720348Y-14154020D01*
X47574020Y-14300348D01*
X47459058Y-14472402D01*
X47379869Y-14663581D01*
X47339500Y-14866532D01*
X31660499Y-14866532D01*
X31620130Y-14663580D01*
X31540941Y-14472402D01*
X31425977Y-14300345D01*
X31413433Y-14287801D01*
X31385658Y-14233287D01*
X31395229Y-14172855D01*
X31438494Y-14129590D01*
X31483439Y-14118800D01*
X37682051Y-14118800D01*
X37682053Y-14118800D01*
X37764839Y-14096618D01*
X37764841Y-14096616D01*
X37764843Y-14096616D01*
X37839057Y-14053768D01*
X37839057Y-14053767D01*
X37839062Y-14053765D01*
X39108331Y-12784496D01*
X39162848Y-12756719D01*
X39178335Y-12755500D01*
X47321623Y-12755500D01*
X47379814Y-12774407D01*
X47413087Y-12816614D01*
X47459058Y-12927597D01*
X47459059Y-12927598D01*
X47574023Y-13099655D01*
X47720345Y-13245977D01*
X47892402Y-13360941D01*
X48083580Y-13440130D01*
X48286535Y-13480500D01*
X48286536Y-13480500D01*
X48493464Y-13480500D01*
X48493465Y-13480500D01*
X48696420Y-13440130D01*
X48887598Y-13360941D01*
X49059655Y-13245977D01*
X49205977Y-13099655D01*
X49320941Y-12927598D01*
X49400130Y-12736420D01*
X49440500Y-12533465D01*
X49440500Y-12326535D01*
X49400130Y-12123580D01*
X49320941Y-11932402D01*
X49205977Y-11760345D01*
X49059655Y-11614023D01*
X49059651Y-11614020D01*
X48887597Y-11499058D01*
X48696418Y-11419869D01*
X48493467Y-11379500D01*
X48493465Y-11379500D01*
X48286535Y-11379500D01*
X48286532Y-11379500D01*
X48083581Y-11419869D01*
X47892402Y-11499058D01*
X47720348Y-11614020D01*
X47574020Y-11760348D01*
X47459058Y-11932402D01*
X47413087Y-12043386D01*
X47373350Y-12089912D01*
X47321623Y-12104500D01*
X38959647Y-12104500D01*
X38876862Y-12126682D01*
X38876861Y-12126682D01*
X38876859Y-12126683D01*
X38848757Y-12142908D01*
X38842817Y-12146338D01*
X38802638Y-12169535D01*
X37533369Y-13438804D01*
X37478852Y-13466581D01*
X37463365Y-13467800D01*
X31274033Y-13467800D01*
X31215842Y-13448893D01*
X31179878Y-13399393D01*
X31179878Y-13338207D01*
X31215842Y-13288707D01*
X31219032Y-13286484D01*
X31237402Y-13274209D01*
X31279655Y-13245977D01*
X31425977Y-13099655D01*
X31540941Y-12927598D01*
X31620130Y-12736420D01*
X31660500Y-12533465D01*
X31660500Y-12326535D01*
X31620130Y-12123580D01*
X31540941Y-11932402D01*
X31425977Y-11760345D01*
X31279655Y-11614023D01*
X31279651Y-11614020D01*
X31107597Y-11499058D01*
X30916418Y-11419869D01*
X30713467Y-11379500D01*
X30713465Y-11379500D01*
X30506535Y-11379500D01*
X30506532Y-11379500D01*
X30303581Y-11419869D01*
X30112402Y-11499058D01*
X29940344Y-11614023D01*
X29923382Y-11630985D01*
X29868865Y-11658762D01*
X29808433Y-11649189D01*
X29765169Y-11605923D01*
X29755599Y-11545491D01*
X29757750Y-11535371D01*
X29758800Y-11531453D01*
X29758800Y-10763439D01*
X29777707Y-10705248D01*
X29827207Y-10669284D01*
X29888393Y-10669284D01*
X29927801Y-10693433D01*
X29940345Y-10705977D01*
X30112402Y-10820941D01*
X30303580Y-10900130D01*
X30506535Y-10940500D01*
X30506536Y-10940500D01*
X30713464Y-10940500D01*
X30713465Y-10940500D01*
X30916420Y-10900130D01*
X31107598Y-10820941D01*
X31279655Y-10705977D01*
X31425977Y-10559655D01*
X31540941Y-10387598D01*
X31620130Y-10196420D01*
X31660500Y-9993465D01*
X31660500Y-9786535D01*
X31660499Y-9786532D01*
X47339500Y-9786532D01*
X47339500Y-9993467D01*
X47379869Y-10196418D01*
X47459058Y-10387597D01*
X47574020Y-10559651D01*
X47574023Y-10559655D01*
X47720345Y-10705977D01*
X47892402Y-10820941D01*
X48083580Y-10900130D01*
X48286535Y-10940500D01*
X48286536Y-10940500D01*
X48493464Y-10940500D01*
X48493465Y-10940500D01*
X48696420Y-10900130D01*
X48887598Y-10820941D01*
X49059655Y-10705977D01*
X49205977Y-10559655D01*
X49320941Y-10387598D01*
X49400130Y-10196420D01*
X49440500Y-9993465D01*
X49440500Y-9786535D01*
X49400130Y-9583580D01*
X49320941Y-9392402D01*
X49205977Y-9220345D01*
X49059655Y-9074023D01*
X48887598Y-8959059D01*
X48887599Y-8959059D01*
X48887597Y-8959058D01*
X48696418Y-8879869D01*
X48493467Y-8839500D01*
X48493465Y-8839500D01*
X48286535Y-8839500D01*
X48286532Y-8839500D01*
X48083581Y-8879869D01*
X47892402Y-8959058D01*
X47720348Y-9074020D01*
X47574020Y-9220348D01*
X47459058Y-9392402D01*
X47379869Y-9583581D01*
X47339500Y-9786532D01*
X31660499Y-9786532D01*
X31620130Y-9583580D01*
X31540941Y-9392402D01*
X31425977Y-9220345D01*
X31279655Y-9074023D01*
X31107598Y-8959059D01*
X31107599Y-8959059D01*
X31107597Y-8959058D01*
X30916418Y-8879869D01*
X30713467Y-8839500D01*
X30713465Y-8839500D01*
X30506535Y-8839500D01*
X30506532Y-8839500D01*
X30303581Y-8879869D01*
X30112402Y-8959058D01*
X29940344Y-9074023D01*
X29927801Y-9086566D01*
X29873284Y-9114342D01*
X29812852Y-9104768D01*
X29769589Y-9061502D01*
X29758800Y-9016560D01*
X29758800Y-5683439D01*
X29777707Y-5625248D01*
X29827207Y-5589284D01*
X29888393Y-5589284D01*
X29927801Y-5613433D01*
X29940345Y-5625977D01*
X30112402Y-5740941D01*
X30303580Y-5820130D01*
X30506535Y-5860500D01*
X30506536Y-5860500D01*
X30713464Y-5860500D01*
X30713465Y-5860500D01*
X30916420Y-5820130D01*
X31107598Y-5740941D01*
X31279655Y-5625977D01*
X31425977Y-5479655D01*
X31540941Y-5307598D01*
X31620130Y-5116420D01*
X31660500Y-4913465D01*
X31660500Y-4706535D01*
X31660499Y-4706532D01*
X47339500Y-4706532D01*
X47339500Y-4913467D01*
X47379869Y-5116418D01*
X47459058Y-5307597D01*
X47574020Y-5479651D01*
X47574023Y-5479655D01*
X47720345Y-5625977D01*
X47892402Y-5740941D01*
X48083580Y-5820130D01*
X48286535Y-5860500D01*
X48286536Y-5860500D01*
X48493464Y-5860500D01*
X48493465Y-5860500D01*
X48696420Y-5820130D01*
X48887598Y-5740941D01*
X49059655Y-5625977D01*
X49205977Y-5479655D01*
X49320941Y-5307598D01*
X49400130Y-5116420D01*
X49440500Y-4913465D01*
X49440500Y-4706535D01*
X49400130Y-4503580D01*
X49320941Y-4312402D01*
X49205977Y-4140345D01*
X49059655Y-3994023D01*
X49059651Y-3994020D01*
X48887597Y-3879058D01*
X48696418Y-3799869D01*
X48493467Y-3759500D01*
X48493465Y-3759500D01*
X48286535Y-3759500D01*
X48286532Y-3759500D01*
X48083581Y-3799869D01*
X47892402Y-3879058D01*
X47720348Y-3994020D01*
X47574020Y-4140348D01*
X47459058Y-4312402D01*
X47379869Y-4503581D01*
X47339500Y-4706532D01*
X31660499Y-4706532D01*
X31620130Y-4503580D01*
X31540941Y-4312402D01*
X31425977Y-4140345D01*
X31279655Y-3994023D01*
X31279651Y-3994020D01*
X31107597Y-3879058D01*
X30983346Y-3827592D01*
X30916420Y-3799870D01*
X30916417Y-3799869D01*
X30911926Y-3798009D01*
X30912858Y-3795758D01*
X30870365Y-3766106D01*
X30850353Y-3708286D01*
X30867379Y-3652273D01*
X30867220Y-3652181D01*
X30867616Y-3651493D01*
X30868148Y-3649746D01*
X30870409Y-3646657D01*
X30870462Y-3646564D01*
X30870465Y-3646562D01*
X30913318Y-3572338D01*
X30935500Y-3489553D01*
X30935500Y-3419500D01*
X30954407Y-3361309D01*
X31003907Y-3325345D01*
X31034500Y-3320500D01*
X31479747Y-3320500D01*
X31479748Y-3320500D01*
X31538231Y-3308867D01*
X31604552Y-3264552D01*
X31648867Y-3198231D01*
X31660500Y-3139748D01*
X31660500Y-2166532D01*
X47339500Y-2166532D01*
X47339500Y-2373467D01*
X47379869Y-2576418D01*
X47459058Y-2767597D01*
X47574020Y-2939651D01*
X47574023Y-2939655D01*
X47720345Y-3085977D01*
X47892402Y-3200941D01*
X48083580Y-3280130D01*
X48286535Y-3320500D01*
X48286536Y-3320500D01*
X48493464Y-3320500D01*
X48493465Y-3320500D01*
X48696420Y-3280130D01*
X48887598Y-3200941D01*
X49059655Y-3085977D01*
X49205977Y-2939655D01*
X49320941Y-2767598D01*
X49400130Y-2576420D01*
X49440500Y-2373465D01*
X49440500Y-2166535D01*
X49400130Y-1963580D01*
X49320941Y-1772402D01*
X49205977Y-1600345D01*
X49059655Y-1454023D01*
X49059651Y-1454020D01*
X48887597Y-1339058D01*
X48696418Y-1259869D01*
X48493467Y-1219500D01*
X48493465Y-1219500D01*
X48286535Y-1219500D01*
X48286532Y-1219500D01*
X48083581Y-1259869D01*
X47892402Y-1339058D01*
X47720348Y-1454020D01*
X47574020Y-1600348D01*
X47459058Y-1772402D01*
X47379869Y-1963581D01*
X47339500Y-2166532D01*
X31660500Y-2166532D01*
X31660500Y-1400252D01*
X31648867Y-1341769D01*
X31604552Y-1275448D01*
X31604548Y-1275445D01*
X31538233Y-1231134D01*
X31538231Y-1231133D01*
X31538228Y-1231132D01*
X31538227Y-1231132D01*
X31479758Y-1219501D01*
X31479748Y-1219500D01*
X29740252Y-1219500D01*
X29740251Y-1219500D01*
X29740241Y-1219501D01*
X29681772Y-1231132D01*
X29681766Y-1231134D01*
X29615451Y-1275445D01*
X29615445Y-1275451D01*
X29571134Y-1341766D01*
X29571132Y-1341772D01*
X29559501Y-1400241D01*
X29559500Y-1400253D01*
X29559500Y-3139746D01*
X29559501Y-3139758D01*
X29571132Y-3198227D01*
X29571134Y-3198233D01*
X29615445Y-3264548D01*
X29615448Y-3264552D01*
X29681769Y-3308867D01*
X29698572Y-3312209D01*
X29751955Y-3342103D01*
X29777572Y-3397668D01*
X29765636Y-3457678D01*
X29749262Y-3479309D01*
X29172835Y-4055737D01*
X29172831Y-4055742D01*
X29129983Y-4129957D01*
X29125974Y-4144919D01*
X29107800Y-4212747D01*
X29107800Y-11312765D01*
X29088893Y-11370956D01*
X29078804Y-11382769D01*
X27854925Y-12606647D01*
X27800408Y-12634424D01*
X27739976Y-12624853D01*
X27696711Y-12581588D01*
X27687140Y-12521156D01*
X27689292Y-12511030D01*
X27703300Y-12458753D01*
X27703300Y-12373047D01*
X27703300Y-2059421D01*
X27722207Y-2001230D01*
X27732290Y-1989423D01*
X27778300Y-1943414D01*
X27838916Y-1838424D01*
X27844190Y-1829290D01*
X27844190Y-1829288D01*
X27844192Y-1829286D01*
X27878300Y-1701992D01*
X27878300Y-1570208D01*
X27844192Y-1442914D01*
X27844190Y-1442911D01*
X27844190Y-1442909D01*
X27778303Y-1328790D01*
X27778301Y-1328788D01*
X27778300Y-1328786D01*
X27685114Y-1235600D01*
X27685111Y-1235598D01*
X27685109Y-1235596D01*
X27570989Y-1169709D01*
X27570991Y-1169709D01*
X27521599Y-1156475D01*
X27443692Y-1135600D01*
X27311908Y-1135600D01*
X27234000Y-1156475D01*
X27184609Y-1169709D01*
X27070490Y-1235596D01*
X26977296Y-1328790D01*
X26911409Y-1442909D01*
X26911408Y-1442914D01*
X26877300Y-1570208D01*
X26877300Y-1701992D01*
X26896166Y-1772402D01*
X26911409Y-1829290D01*
X26977296Y-1943409D01*
X26977298Y-1943411D01*
X26977300Y-1943414D01*
X27023305Y-1989419D01*
X27051081Y-2043934D01*
X27052300Y-2059421D01*
X27052300Y-12240065D01*
X27033393Y-12298256D01*
X27023304Y-12310069D01*
X18433231Y-20900142D01*
X18390382Y-20974360D01*
X18390381Y-20974360D01*
X18390382Y-20974361D01*
X18368200Y-21057147D01*
X18368200Y-21416178D01*
X18349293Y-21474369D01*
X18339204Y-21486181D01*
X18293200Y-21532184D01*
X18293196Y-21532190D01*
X18240236Y-21623920D01*
X18194766Y-21664861D01*
X18133916Y-21671257D01*
X18080928Y-21640664D01*
X18056042Y-21584768D01*
X18055500Y-21574420D01*
X18055500Y-20660840D01*
X18055501Y-20660827D01*
X18055501Y-20567146D01*
X18055500Y-20567144D01*
X18033319Y-20484364D01*
X18033318Y-20484362D01*
X18015914Y-20454218D01*
X18015913Y-20454216D01*
X17990467Y-20410141D01*
X17990466Y-20410140D01*
X17990465Y-20410138D01*
X17929862Y-20349535D01*
X17929859Y-20349533D01*
X17920329Y-20340003D01*
X17892552Y-20285486D01*
X17902123Y-20225054D01*
X17920323Y-20200002D01*
X21430465Y-16689861D01*
X21473318Y-16615638D01*
X21495500Y-16532852D01*
X21495500Y-16447146D01*
X21495500Y-4835833D01*
X21514407Y-4777642D01*
X21524490Y-4765835D01*
X22444859Y-3845466D01*
X22444862Y-3845465D01*
X22505465Y-3784862D01*
X22548318Y-3710638D01*
X22560676Y-3664518D01*
X22570501Y-3627852D01*
X22570501Y-3549500D01*
X22589408Y-3491309D01*
X22638908Y-3455345D01*
X22669501Y-3450500D01*
X23519747Y-3450500D01*
X23519748Y-3450500D01*
X23578231Y-3438867D01*
X23644552Y-3394552D01*
X23688867Y-3328231D01*
X23700500Y-3269748D01*
X23700500Y-2230252D01*
X23688867Y-2171769D01*
X23644552Y-2105448D01*
X23644548Y-2105445D01*
X23578233Y-2061134D01*
X23578231Y-2061133D01*
X23578228Y-2061132D01*
X23578227Y-2061132D01*
X23519758Y-2049501D01*
X23519748Y-2049500D01*
X20970252Y-2049500D01*
X20970251Y-2049500D01*
X20970241Y-2049501D01*
X20911772Y-2061132D01*
X20911766Y-2061134D01*
X20845451Y-2105445D01*
X20845445Y-2105451D01*
X20801134Y-2171766D01*
X20801132Y-2171772D01*
X20789501Y-2230241D01*
X20789500Y-2230253D01*
X20789500Y-3269746D01*
X20789501Y-3269758D01*
X20801132Y-3328227D01*
X20801134Y-3328233D01*
X20845445Y-3394548D01*
X20845448Y-3394552D01*
X20911769Y-3438867D01*
X20956231Y-3447711D01*
X20970241Y-3450498D01*
X20970246Y-3450498D01*
X20970252Y-3450500D01*
X21680166Y-3450500D01*
X21738357Y-3469407D01*
X21774321Y-3518907D01*
X21774321Y-3580093D01*
X21750170Y-3619503D01*
X21313936Y-4055737D01*
X20909532Y-4460141D01*
X20909531Y-4460142D01*
X20866683Y-4534357D01*
X20866681Y-4534361D01*
X20860101Y-4558916D01*
X20860102Y-4558917D01*
X20844500Y-4617147D01*
X20844500Y-16314163D01*
X20825593Y-16372354D01*
X20815504Y-16384167D01*
X17460002Y-19739668D01*
X17405485Y-19767445D01*
X17345053Y-19757874D01*
X17319997Y-19739670D01*
X16327962Y-18747635D01*
X16327959Y-18747633D01*
X16327957Y-18747631D01*
X16253742Y-18704783D01*
X16253744Y-18704783D01*
X16211913Y-18693575D01*
X16170953Y-18682600D01*
X8898453Y-18682600D01*
X8812747Y-18682600D01*
X8771787Y-18693575D01*
X8729956Y-18704783D01*
X8655742Y-18747631D01*
X6416431Y-20986942D01*
X6373583Y-21061156D01*
X6373582Y-21061161D01*
X6358459Y-21117606D01*
X6356612Y-21124498D01*
X6356611Y-21124501D01*
X6352279Y-21140668D01*
X6351400Y-21143947D01*
X6351400Y-22219447D01*
X6351400Y-22305153D01*
X6360737Y-22340000D01*
X6373583Y-22387943D01*
X6416431Y-22462157D01*
X6416433Y-22462159D01*
X6416435Y-22462162D01*
X7118133Y-23163859D01*
X7118135Y-23163862D01*
X7178738Y-23224465D01*
X7199350Y-23236365D01*
X7231771Y-23255084D01*
X7231772Y-23255084D01*
X7252962Y-23267318D01*
X7335747Y-23289501D01*
X7335752Y-23289501D01*
X7342180Y-23290348D01*
X7341765Y-23293493D01*
X7387670Y-23308408D01*
X7399480Y-23318495D01*
X7415980Y-23334994D01*
X7443760Y-23389510D01*
X7434190Y-23449942D01*
X7390927Y-23493208D01*
X7345979Y-23504000D01*
X6661922Y-23504000D01*
X6603731Y-23485093D01*
X6591919Y-23475004D01*
X6545915Y-23429000D01*
X6545909Y-23428996D01*
X6431789Y-23363109D01*
X6431791Y-23363109D01*
X6355569Y-23342686D01*
X6304492Y-23329000D01*
X6172708Y-23329000D01*
X6121631Y-23342686D01*
X6045409Y-23363109D01*
X5931290Y-23428996D01*
X5838096Y-23522190D01*
X5772209Y-23636309D01*
X5753139Y-23707478D01*
X5738100Y-23763608D01*
X5738100Y-23895392D01*
X5767018Y-24003317D01*
X5772209Y-24022690D01*
X5838096Y-24136809D01*
X5838098Y-24136811D01*
X5838100Y-24136814D01*
X5931286Y-24230000D01*
X5931288Y-24230001D01*
X5931290Y-24230003D01*
X6045410Y-24295890D01*
X6045408Y-24295890D01*
X6045412Y-24295891D01*
X6045414Y-24295892D01*
X6172708Y-24330000D01*
X6172710Y-24330000D01*
X6304490Y-24330000D01*
X6304492Y-24330000D01*
X6431786Y-24295892D01*
X6431788Y-24295890D01*
X6431790Y-24295890D01*
X6545909Y-24230003D01*
X6545910Y-24230002D01*
X6545914Y-24230000D01*
X6545915Y-24229999D01*
X6591919Y-24183996D01*
X6646436Y-24156219D01*
X6661922Y-24155000D01*
X7891651Y-24155000D01*
X7891653Y-24155000D01*
X7974439Y-24132818D01*
X7974441Y-24132816D01*
X7974443Y-24132816D01*
X8048657Y-24089968D01*
X8048657Y-24089967D01*
X8048662Y-24089965D01*
X9749872Y-22388752D01*
X9804387Y-22360977D01*
X9864819Y-22370548D01*
X9869376Y-22373023D01*
X9886857Y-22383116D01*
X9886858Y-22383116D01*
X9886861Y-22383118D01*
X9969647Y-22405300D01*
X10002478Y-22405300D01*
X10060669Y-22424207D01*
X10072481Y-22434296D01*
X10118484Y-22480299D01*
X10118490Y-22480303D01*
X10232610Y-22546190D01*
X10232611Y-22546191D01*
X10232613Y-22546191D01*
X10232614Y-22546192D01*
X10253005Y-22551655D01*
X10304319Y-22584978D01*
X10326247Y-22642099D01*
X10310412Y-22701200D01*
X10297387Y-22717286D01*
X4589531Y-28425142D01*
X4546682Y-28499360D01*
X4546681Y-28499360D01*
X4546682Y-28499361D01*
X4524500Y-28582147D01*
X4524500Y-29176678D01*
X4505593Y-29234869D01*
X4495504Y-29246681D01*
X4449500Y-29292684D01*
X4449496Y-29292690D01*
X4383609Y-29406809D01*
X4383608Y-29406814D01*
X4349500Y-29534108D01*
X4349500Y-29665892D01*
X4379579Y-29778151D01*
X4383609Y-29793190D01*
X4449496Y-29907309D01*
X4449498Y-29907311D01*
X4449500Y-29907314D01*
X4542686Y-30000500D01*
X4542688Y-30000501D01*
X4542690Y-30000503D01*
X4656810Y-30066390D01*
X4656808Y-30066390D01*
X4656812Y-30066391D01*
X4656814Y-30066392D01*
X4784108Y-30100500D01*
X4784110Y-30100500D01*
X4915890Y-30100500D01*
X4915892Y-30100500D01*
X5043186Y-30066392D01*
X5043188Y-30066390D01*
X5043190Y-30066390D01*
X5157309Y-30000503D01*
X5157309Y-30000502D01*
X5157314Y-30000500D01*
X5250500Y-29907314D01*
X5287522Y-29843190D01*
X5316390Y-29793190D01*
X5316390Y-29793188D01*
X5316392Y-29793186D01*
X5350500Y-29665892D01*
X5350500Y-29534108D01*
X5316392Y-29406814D01*
X5316390Y-29406811D01*
X5316390Y-29406809D01*
X5250503Y-29292690D01*
X5250499Y-29292684D01*
X5204496Y-29246681D01*
X5176719Y-29192164D01*
X5175500Y-29176678D01*
X5175500Y-28800834D01*
X5194407Y-28742643D01*
X5204496Y-28730830D01*
X12605830Y-21329496D01*
X12660347Y-21301719D01*
X12675834Y-21300500D01*
X13925166Y-21300500D01*
X13983357Y-21319407D01*
X14019321Y-21368907D01*
X14019321Y-21430093D01*
X13995171Y-21469501D01*
X11441987Y-24022686D01*
X8889534Y-26575139D01*
X8846680Y-26649364D01*
X8846679Y-26649366D01*
X8836552Y-26687167D01*
X8836552Y-26687169D01*
X8824500Y-26732147D01*
X8824500Y-29226678D01*
X8805593Y-29284869D01*
X8795504Y-29296681D01*
X8749500Y-29342684D01*
X8749496Y-29342690D01*
X8683609Y-29456809D01*
X8683608Y-29456814D01*
X8649500Y-29584108D01*
X8649500Y-29715892D01*
X8670211Y-29793186D01*
X8683609Y-29843190D01*
X8749496Y-29957309D01*
X8749498Y-29957311D01*
X8749500Y-29957314D01*
X8842686Y-30050500D01*
X8842688Y-30050501D01*
X8842690Y-30050503D01*
X8956810Y-30116390D01*
X8956808Y-30116390D01*
X8956812Y-30116391D01*
X8956814Y-30116392D01*
X9084108Y-30150500D01*
X9084110Y-30150500D01*
X9215890Y-30150500D01*
X9215892Y-30150500D01*
X9343186Y-30116392D01*
X9343188Y-30116390D01*
X9343190Y-30116390D01*
X9457309Y-30050503D01*
X9457309Y-30050502D01*
X9457314Y-30050500D01*
X9550500Y-29957314D01*
X9579368Y-29907314D01*
X9616390Y-29843190D01*
X9616390Y-29843188D01*
X9616392Y-29843186D01*
X9650500Y-29715892D01*
X9650500Y-29584108D01*
X9616392Y-29456814D01*
X9616390Y-29456811D01*
X9616390Y-29456809D01*
X9550503Y-29342690D01*
X9550499Y-29342684D01*
X9504496Y-29296681D01*
X9476719Y-29242164D01*
X9475500Y-29226678D01*
X9475500Y-26950835D01*
X9494407Y-26892644D01*
X9504496Y-26880831D01*
X14405831Y-21979496D01*
X14460348Y-21951719D01*
X14475835Y-21950500D01*
X16676678Y-21950500D01*
X16734869Y-21969407D01*
X16746681Y-21979496D01*
X16792684Y-22025499D01*
X16792690Y-22025503D01*
X16906810Y-22091390D01*
X16906808Y-22091390D01*
X16906812Y-22091391D01*
X16906814Y-22091392D01*
X17034108Y-22125500D01*
X17034110Y-22125500D01*
X17085165Y-22125500D01*
X17143356Y-22144407D01*
X17179320Y-22193907D01*
X17179320Y-22255093D01*
X17155169Y-22294503D01*
X16677863Y-22771809D01*
X16204168Y-23245504D01*
X16149651Y-23273281D01*
X16134164Y-23274500D01*
X15253321Y-23274500D01*
X15195130Y-23255593D01*
X15192523Y-23253366D01*
X15192460Y-23253449D01*
X15187309Y-23249496D01*
X15073189Y-23183609D01*
X15073191Y-23183609D01*
X14999492Y-23163862D01*
X14945892Y-23149500D01*
X14814108Y-23149500D01*
X14760508Y-23163862D01*
X14686809Y-23183609D01*
X14572690Y-23249496D01*
X14479496Y-23342690D01*
X14413609Y-23456809D01*
X14406031Y-23485093D01*
X14379500Y-23584108D01*
X14379500Y-23715892D01*
X14392286Y-23763609D01*
X14413609Y-23843190D01*
X14479496Y-23957309D01*
X14479498Y-23957311D01*
X14479500Y-23957314D01*
X14525505Y-24003319D01*
X14553281Y-24057834D01*
X14554500Y-24073321D01*
X14554500Y-24457147D01*
X14554500Y-24542853D01*
X14569946Y-24600500D01*
X14576683Y-24625643D01*
X14619531Y-24699857D01*
X14619533Y-24699859D01*
X14619535Y-24699862D01*
X17780138Y-27860465D01*
X17780140Y-27860466D01*
X17780142Y-27860468D01*
X17854357Y-27903316D01*
X17854355Y-27903316D01*
X17854359Y-27903317D01*
X17854361Y-27903318D01*
X17937147Y-27925500D01*
X18926678Y-27925500D01*
X18984869Y-27944407D01*
X18996681Y-27954496D01*
X19042684Y-28000499D01*
X19042690Y-28000503D01*
X19150615Y-28062814D01*
X19191556Y-28108283D01*
X19197952Y-28169134D01*
X19171119Y-28218554D01*
X14671531Y-32718142D01*
X14628682Y-32792360D01*
X14628681Y-32792360D01*
X14628682Y-32792361D01*
X14606500Y-32875147D01*
X14606500Y-52942060D01*
X14587593Y-53000251D01*
X14538093Y-53036215D01*
X14476907Y-53036215D01*
X14427409Y-53000253D01*
X14418242Y-52987635D01*
X14262365Y-52831758D01*
X14084022Y-52702185D01*
X14084021Y-52702184D01*
X14084019Y-52702183D01*
X13994825Y-52656736D01*
X13887606Y-52602105D01*
X13887602Y-52602104D01*
X13887599Y-52602102D01*
X13677948Y-52533984D01*
X13460225Y-52499500D01*
X13460222Y-52499500D01*
X13239778Y-52499500D01*
X13239775Y-52499500D01*
X13022051Y-52533984D01*
X12812400Y-52602102D01*
X12615980Y-52702183D01*
X12526806Y-52766971D01*
X12437635Y-52831758D01*
X12281758Y-52987635D01*
X12261610Y-53015367D01*
X12152183Y-53165980D01*
X12052102Y-53362400D01*
X11983984Y-53572051D01*
X11949500Y-53789774D01*
X11949500Y-54010225D01*
X11983984Y-54227948D01*
X12052102Y-54437599D01*
X12052104Y-54437602D01*
X12052105Y-54437606D01*
X12152185Y-54634022D01*
X12281758Y-54812365D01*
X12437635Y-54968242D01*
X12615978Y-55097815D01*
X12812394Y-55197895D01*
X13022049Y-55266015D01*
X13096412Y-55277793D01*
X13239775Y-55300500D01*
X13239778Y-55300500D01*
X13460225Y-55300500D01*
X13569086Y-55283257D01*
X13677951Y-55266015D01*
X13887606Y-55197895D01*
X14084022Y-55097815D01*
X14262365Y-54968242D01*
X14418242Y-54812365D01*
X14427408Y-54799748D01*
X14476905Y-54763785D01*
X14538091Y-54763784D01*
X14587591Y-54799747D01*
X14606500Y-54857937D01*
X14606500Y-60972165D01*
X14587593Y-61030356D01*
X14577504Y-61042169D01*
X13871357Y-61748315D01*
X13816840Y-61776092D01*
X13756408Y-61766521D01*
X13713143Y-61723256D01*
X13711629Y-61720151D01*
X13674066Y-61639598D01*
X13674065Y-61639597D01*
X13674065Y-61639596D01*
X13590404Y-61555935D01*
X13590402Y-61555934D01*
X13590401Y-61555933D01*
X13483175Y-61505932D01*
X13450601Y-61501644D01*
X13434316Y-61499500D01*
X12725684Y-61499500D01*
X12709398Y-61501644D01*
X12676825Y-61505932D01*
X12676824Y-61505932D01*
X12569598Y-61555933D01*
X12485933Y-61639598D01*
X12435932Y-61746824D01*
X12435932Y-61746825D01*
X12429500Y-61795685D01*
X12429500Y-62575500D01*
X12410593Y-62633691D01*
X12361093Y-62669655D01*
X12330500Y-62674500D01*
X11289500Y-62674500D01*
X11231309Y-62655593D01*
X11195345Y-62606093D01*
X11190500Y-62575500D01*
X11190500Y-61795685D01*
X11187984Y-61776573D01*
X11184068Y-61746827D01*
X11180805Y-61739830D01*
X11134066Y-61639598D01*
X11134065Y-61639597D01*
X11134065Y-61639596D01*
X11050404Y-61555935D01*
X11050402Y-61555934D01*
X11050401Y-61555933D01*
X10943175Y-61505932D01*
X10910601Y-61501644D01*
X10894316Y-61499500D01*
X10185684Y-61499500D01*
X10169398Y-61501644D01*
X10136825Y-61505932D01*
X10136824Y-61505932D01*
X10029598Y-61555933D01*
X9945933Y-61639598D01*
X9895932Y-61746824D01*
X9895932Y-61746825D01*
X9895932Y-61746827D01*
X9889500Y-61795684D01*
X9889500Y-64204316D01*
X9893788Y-64236887D01*
X9895932Y-64253174D01*
X9895932Y-64253175D01*
X9945122Y-64358661D01*
X9952579Y-64419390D01*
X9922916Y-64472904D01*
X9867463Y-64498762D01*
X9855398Y-64499500D01*
X3002985Y-64499500D01*
X2997008Y-64499319D01*
X2973822Y-64497916D01*
X2704694Y-64481637D01*
X2692827Y-64480196D01*
X2407721Y-64427948D01*
X2396113Y-64425087D01*
X2119384Y-64338855D01*
X2108206Y-64334616D01*
X1843880Y-64215652D01*
X1833295Y-64210096D01*
X1672942Y-64113160D01*
X1585245Y-64060145D01*
X1575413Y-64053358D01*
X1347243Y-63874599D01*
X1338295Y-63866673D01*
X1133326Y-63661704D01*
X1125399Y-63652755D01*
X946638Y-63424583D01*
X939856Y-63414758D01*
X789902Y-63166703D01*
X784347Y-63156119D01*
X665383Y-62891793D01*
X661147Y-62880623D01*
X574911Y-62603883D01*
X572051Y-62592278D01*
X572051Y-62592277D01*
X519802Y-62307165D01*
X518362Y-62295304D01*
X513972Y-62222731D01*
X500681Y-62002992D01*
X500500Y-61997015D01*
X500500Y-60878710D01*
X2149500Y-60878710D01*
X2149500Y-61121289D01*
X2181161Y-61361781D01*
X2181161Y-61361786D01*
X2243944Y-61596092D01*
X2243948Y-61596105D01*
X2336772Y-61820204D01*
X2336774Y-61820208D01*
X2336776Y-61820212D01*
X2440577Y-62000000D01*
X2458066Y-62030292D01*
X2605729Y-62222731D01*
X2605731Y-62222733D01*
X2605735Y-62222738D01*
X2777262Y-62394265D01*
X2777266Y-62394268D01*
X2777268Y-62394270D01*
X2933630Y-62514250D01*
X2969711Y-62541936D01*
X3179788Y-62663224D01*
X3403900Y-62756054D01*
X3638211Y-62818838D01*
X3878712Y-62850500D01*
X3878713Y-62850500D01*
X4121287Y-62850500D01*
X4121288Y-62850500D01*
X4361789Y-62818838D01*
X4596100Y-62756054D01*
X4820212Y-62663224D01*
X5030289Y-62541936D01*
X5222738Y-62394265D01*
X5394265Y-62222738D01*
X5541936Y-62030289D01*
X5663224Y-61820212D01*
X5756054Y-61596100D01*
X5818838Y-61361789D01*
X5850500Y-61121288D01*
X5850500Y-60878712D01*
X5818838Y-60638211D01*
X5756054Y-60403900D01*
X5668620Y-60192814D01*
X5663227Y-60179795D01*
X5663226Y-60179794D01*
X5663224Y-60179788D01*
X5541936Y-59969711D01*
X5536539Y-59962678D01*
X5394270Y-59777268D01*
X5394268Y-59777266D01*
X5394265Y-59777262D01*
X5222738Y-59605735D01*
X5222733Y-59605731D01*
X5222731Y-59605729D01*
X5030292Y-59458066D01*
X5017974Y-59450954D01*
X4820212Y-59336776D01*
X4820208Y-59336774D01*
X4820204Y-59336772D01*
X4596105Y-59243948D01*
X4596104Y-59243947D01*
X4596100Y-59243946D01*
X4361789Y-59181162D01*
X4361786Y-59181161D01*
X4361784Y-59181161D01*
X4121289Y-59149500D01*
X4121288Y-59149500D01*
X3878712Y-59149500D01*
X3878710Y-59149500D01*
X3638218Y-59181161D01*
X3638213Y-59181161D01*
X3403907Y-59243944D01*
X3403894Y-59243948D01*
X3179795Y-59336772D01*
X2969707Y-59458066D01*
X2777268Y-59605729D01*
X2605729Y-59777268D01*
X2458066Y-59969707D01*
X2336772Y-60179795D01*
X2243948Y-60403894D01*
X2243944Y-60403907D01*
X2181161Y-60638213D01*
X2181161Y-60638218D01*
X2149500Y-60878710D01*
X500500Y-60878710D01*
X500500Y-39839503D01*
X3817400Y-39839503D01*
X3817400Y-39977496D01*
X3844320Y-40112827D01*
X3844320Y-40112829D01*
X3897123Y-40240308D01*
X3941729Y-40307067D01*
X3973786Y-40355043D01*
X9120505Y-45501762D01*
X9148281Y-45556277D01*
X9149500Y-45571764D01*
X9149500Y-52400500D01*
X9130593Y-52458691D01*
X9081093Y-52494655D01*
X9050500Y-52499500D01*
X8845734Y-52499500D01*
X8815305Y-52502353D01*
X8687114Y-52547208D01*
X8577855Y-52627845D01*
X8577845Y-52627855D01*
X8497208Y-52737114D01*
X8452353Y-52865305D01*
X8449500Y-52895726D01*
X8449500Y-54904265D01*
X8452353Y-54934694D01*
X8452353Y-54934696D01*
X8452354Y-54934698D01*
X8464864Y-54970449D01*
X8497208Y-55062885D01*
X8577845Y-55172144D01*
X8577847Y-55172146D01*
X8577850Y-55172150D01*
X8577853Y-55172152D01*
X8577855Y-55172154D01*
X8687114Y-55252791D01*
X8687116Y-55252791D01*
X8687118Y-55252793D01*
X8815302Y-55297646D01*
X8845735Y-55300500D01*
X10854264Y-55300499D01*
X10854265Y-55300499D01*
X10860350Y-55299928D01*
X10884698Y-55297646D01*
X11012882Y-55252793D01*
X11122150Y-55172150D01*
X11202793Y-55062882D01*
X11247646Y-54934698D01*
X11250500Y-54904265D01*
X11250499Y-52895736D01*
X11247646Y-52865302D01*
X11202793Y-52737118D01*
X11202791Y-52737116D01*
X11202791Y-52737114D01*
X11122154Y-52627855D01*
X11122152Y-52627853D01*
X11122150Y-52627850D01*
X11122146Y-52627847D01*
X11122144Y-52627845D01*
X11012885Y-52547208D01*
X10939403Y-52521496D01*
X10884698Y-52502354D01*
X10884696Y-52502353D01*
X10884694Y-52502353D01*
X10854273Y-52499500D01*
X10854265Y-52499500D01*
X10649500Y-52499500D01*
X10591309Y-52480593D01*
X10555345Y-52431093D01*
X10550500Y-52400500D01*
X10550500Y-45571765D01*
X10569407Y-45513574D01*
X10579496Y-45501761D01*
X13155161Y-42926096D01*
X13209678Y-42898319D01*
X13225165Y-42897100D01*
X13509192Y-42897100D01*
X13509193Y-42897100D01*
X13644528Y-42870180D01*
X13772011Y-42817375D01*
X13886742Y-42740714D01*
X13984314Y-42643142D01*
X14060975Y-42528411D01*
X14113780Y-42400928D01*
X14140700Y-42265593D01*
X14140700Y-42127607D01*
X14113780Y-41992272D01*
X14078735Y-41907665D01*
X14060977Y-41864793D01*
X14060971Y-41864782D01*
X13984314Y-41750058D01*
X13886741Y-41652485D01*
X13772017Y-41575828D01*
X13772006Y-41575822D01*
X13644528Y-41523020D01*
X13509195Y-41496100D01*
X13509193Y-41496100D01*
X12962994Y-41496100D01*
X12825006Y-41496100D01*
X12825003Y-41496100D01*
X12689672Y-41523020D01*
X12689670Y-41523020D01*
X12562191Y-41575823D01*
X12447460Y-41652483D01*
X9920004Y-44179939D01*
X9865487Y-44207716D01*
X9805055Y-44198145D01*
X9779996Y-44179939D01*
X7433495Y-41833438D01*
X4964443Y-39364386D01*
X4957684Y-39359870D01*
X4849708Y-39287723D01*
X4722228Y-39234920D01*
X4586896Y-39208000D01*
X4586894Y-39208000D01*
X4448906Y-39208000D01*
X4448903Y-39208000D01*
X4313572Y-39234920D01*
X4313570Y-39234920D01*
X4186091Y-39287723D01*
X4071360Y-39364383D01*
X3973783Y-39461960D01*
X3897123Y-39576691D01*
X3844320Y-39704170D01*
X3844320Y-39704172D01*
X3817400Y-39839503D01*
X500500Y-39839503D01*
X500500Y-23819108D01*
X4413200Y-23819108D01*
X4413200Y-23950892D01*
X4438036Y-24043581D01*
X4447309Y-24078190D01*
X4513196Y-24192309D01*
X4513198Y-24192311D01*
X4513200Y-24192314D01*
X4606386Y-24285500D01*
X4606388Y-24285501D01*
X4606390Y-24285503D01*
X4720510Y-24351390D01*
X4720508Y-24351390D01*
X4720512Y-24351391D01*
X4720514Y-24351392D01*
X4847808Y-24385500D01*
X4847810Y-24385500D01*
X4979590Y-24385500D01*
X4979592Y-24385500D01*
X5106886Y-24351392D01*
X5106888Y-24351390D01*
X5106890Y-24351390D01*
X5221009Y-24285503D01*
X5221009Y-24285502D01*
X5221014Y-24285500D01*
X5314200Y-24192314D01*
X5314869Y-24191155D01*
X5380090Y-24078190D01*
X5380090Y-24078188D01*
X5380092Y-24078186D01*
X5414200Y-23950892D01*
X5414200Y-23819108D01*
X5380092Y-23691814D01*
X5380090Y-23691811D01*
X5380090Y-23691809D01*
X5314203Y-23577690D01*
X5314199Y-23577684D01*
X5268196Y-23531681D01*
X5240419Y-23477164D01*
X5239200Y-23461678D01*
X5239200Y-12522035D01*
X5258107Y-12463844D01*
X5268196Y-12452031D01*
X12846631Y-4873596D01*
X12901148Y-4845819D01*
X12916635Y-4844600D01*
X12981690Y-4844600D01*
X12981692Y-4844600D01*
X13108986Y-4810492D01*
X13108988Y-4810490D01*
X13108990Y-4810490D01*
X13223109Y-4744603D01*
X13223109Y-4744602D01*
X13223114Y-4744600D01*
X13316300Y-4651414D01*
X13357900Y-4579361D01*
X13382190Y-4537290D01*
X13382190Y-4537288D01*
X13382192Y-4537286D01*
X13416300Y-4409992D01*
X13416300Y-4278208D01*
X13382192Y-4150914D01*
X13382190Y-4150911D01*
X13382190Y-4150909D01*
X13316303Y-4036790D01*
X13316301Y-4036788D01*
X13316300Y-4036786D01*
X13223114Y-3943600D01*
X13223111Y-3943598D01*
X13223109Y-3943596D01*
X13108989Y-3877709D01*
X13108991Y-3877709D01*
X13059599Y-3864475D01*
X12981692Y-3843600D01*
X12849908Y-3843600D01*
X12772000Y-3864475D01*
X12722609Y-3877709D01*
X12608490Y-3943596D01*
X12515296Y-4036790D01*
X12449409Y-4150909D01*
X12415300Y-4278209D01*
X12415300Y-4343265D01*
X12396393Y-4401456D01*
X12386304Y-4413269D01*
X4653231Y-12146342D01*
X4610382Y-12220560D01*
X4610381Y-12220560D01*
X4610382Y-12220561D01*
X4588200Y-12303347D01*
X4588200Y-23461678D01*
X4569293Y-23519869D01*
X4559204Y-23531681D01*
X4513200Y-23577684D01*
X4513196Y-23577690D01*
X4447309Y-23691809D01*
X4442375Y-23710225D01*
X4413200Y-23819108D01*
X500500Y-23819108D01*
X500500Y-3878710D01*
X2149500Y-3878710D01*
X2149500Y-4121289D01*
X2181161Y-4361781D01*
X2181161Y-4361786D01*
X2194078Y-4409992D01*
X2233982Y-4558916D01*
X2243944Y-4596092D01*
X2243948Y-4596105D01*
X2336772Y-4820204D01*
X2336774Y-4820208D01*
X2336776Y-4820212D01*
X2390616Y-4913465D01*
X2458066Y-5030292D01*
X2605729Y-5222731D01*
X2605731Y-5222733D01*
X2605735Y-5222738D01*
X2777262Y-5394265D01*
X2777266Y-5394268D01*
X2777268Y-5394270D01*
X2907087Y-5493883D01*
X2969711Y-5541936D01*
X3179788Y-5663224D01*
X3403900Y-5756054D01*
X3638211Y-5818838D01*
X3878712Y-5850500D01*
X3878713Y-5850500D01*
X4121287Y-5850500D01*
X4121288Y-5850500D01*
X4361789Y-5818838D01*
X4596100Y-5756054D01*
X4820212Y-5663224D01*
X5030289Y-5541936D01*
X5222738Y-5394265D01*
X5394265Y-5222738D01*
X5541936Y-5030289D01*
X5663224Y-4820212D01*
X5756054Y-4596100D01*
X5818838Y-4361789D01*
X5850500Y-4121288D01*
X5850500Y-3878712D01*
X5818838Y-3638211D01*
X5756054Y-3403900D01*
X5674611Y-3207279D01*
X5663227Y-3179795D01*
X5663226Y-3179794D01*
X5663224Y-3179788D01*
X5541936Y-2969711D01*
X5458289Y-2860700D01*
X5394270Y-2777268D01*
X5394268Y-2777266D01*
X5394265Y-2777262D01*
X5222738Y-2605735D01*
X5222733Y-2605731D01*
X5222731Y-2605729D01*
X5030292Y-2458066D01*
X4943092Y-2407721D01*
X4820212Y-2336776D01*
X4820208Y-2336774D01*
X4820204Y-2336772D01*
X4596105Y-2243948D01*
X4596104Y-2243947D01*
X4596100Y-2243946D01*
X4361789Y-2181162D01*
X4361786Y-2181161D01*
X4361784Y-2181161D01*
X4121289Y-2149500D01*
X4121288Y-2149500D01*
X3878712Y-2149500D01*
X3878710Y-2149500D01*
X3638218Y-2181161D01*
X3638213Y-2181161D01*
X3403907Y-2243944D01*
X3403894Y-2243948D01*
X3179795Y-2336772D01*
X2969707Y-2458066D01*
X2777268Y-2605729D01*
X2605729Y-2777268D01*
X2458066Y-2969707D01*
X2409463Y-3053890D01*
X2342076Y-3170609D01*
X2336772Y-3179795D01*
X2243948Y-3403894D01*
X2243944Y-3403907D01*
X2181161Y-3638213D01*
X2181161Y-3638218D01*
X2149500Y-3878710D01*
X500500Y-3878710D01*
X500500Y-3002984D01*
X500681Y-2997007D01*
X508926Y-2860700D01*
X518362Y-2704687D01*
X519801Y-2692836D01*
X572052Y-2407714D01*
X574906Y-2396131D01*
X661152Y-2119355D01*
X665374Y-2108224D01*
X784349Y-1843873D01*
X789898Y-1833302D01*
X939860Y-1585233D01*
X946631Y-1575423D01*
X1125406Y-1347234D01*
X1133318Y-1338302D01*
X1338302Y-1133318D01*
X1347234Y-1125406D01*
X1575423Y-946631D01*
X1585233Y-939860D01*
X1833302Y-789898D01*
X1843873Y-784349D01*
X2108224Y-665374D01*
X2119355Y-661152D01*
X2396131Y-574906D01*
X2407714Y-572052D01*
X2692836Y-519801D01*
X2704687Y-518362D01*
X2997008Y-500681D01*
X3002985Y-500500D01*
X3065892Y-500500D01*
X71934108Y-500500D01*
X71997015Y-500500D01*
X72002992Y-500681D01*
G37*
%TD.AperFunction*%
%TA.AperFunction,Conductor*%
G36*
X24338145Y-25362723D02*
G01*
X24381410Y-25405988D01*
X24392200Y-25450933D01*
X24392200Y-32142565D01*
X24373293Y-32200756D01*
X24363204Y-32212569D01*
X23857169Y-32718604D01*
X23802652Y-32746381D01*
X23787165Y-32747600D01*
X23722108Y-32747600D01*
X23644200Y-32768475D01*
X23594809Y-32781709D01*
X23480690Y-32847596D01*
X23387496Y-32940790D01*
X23321609Y-33054909D01*
X23302539Y-33126078D01*
X23287500Y-33182208D01*
X23287500Y-33313992D01*
X23317579Y-33426251D01*
X23321609Y-33441290D01*
X23387496Y-33555409D01*
X23387498Y-33555411D01*
X23387500Y-33555414D01*
X23480686Y-33648600D01*
X23536185Y-33680642D01*
X23577126Y-33726112D01*
X23583522Y-33786962D01*
X23556689Y-33836383D01*
X16642932Y-40750141D01*
X16642931Y-40750142D01*
X16600082Y-40824360D01*
X16600081Y-40824360D01*
X16600082Y-40824361D01*
X16580265Y-40898322D01*
X16577900Y-40907147D01*
X16577900Y-61700547D01*
X16577900Y-61786253D01*
X16584219Y-61809835D01*
X16600083Y-61869043D01*
X16642931Y-61943257D01*
X16642933Y-61943259D01*
X16642935Y-61943262D01*
X17093939Y-62394265D01*
X17480504Y-62780830D01*
X17508281Y-62835347D01*
X17509500Y-62850832D01*
X17509500Y-64204316D01*
X17513788Y-64236887D01*
X17515932Y-64253174D01*
X17515932Y-64253175D01*
X17565122Y-64358661D01*
X17572579Y-64419390D01*
X17542916Y-64472904D01*
X17487463Y-64498762D01*
X17475398Y-64499500D01*
X13764602Y-64499500D01*
X13706411Y-64480593D01*
X13670447Y-64431093D01*
X13670447Y-64369907D01*
X13674878Y-64358661D01*
X13724067Y-64253175D01*
X13724068Y-64253173D01*
X13730500Y-64204316D01*
X13730500Y-62850832D01*
X13749407Y-62792642D01*
X13759490Y-62780835D01*
X15131859Y-61408466D01*
X15131862Y-61408465D01*
X15192465Y-61347862D01*
X15235318Y-61273638D01*
X15243608Y-61242700D01*
X15257501Y-61190852D01*
X15257501Y-61105147D01*
X15257501Y-61099085D01*
X15257500Y-61099067D01*
X15257500Y-33093834D01*
X15276407Y-33035643D01*
X15286496Y-33023830D01*
X18916307Y-29394019D01*
X22548503Y-25761822D01*
X22603018Y-25734047D01*
X22663450Y-25743618D01*
X22706715Y-25786883D01*
X22716286Y-25847315D01*
X22714133Y-25857447D01*
X22712000Y-25865408D01*
X22712000Y-25997192D01*
X22731199Y-26068844D01*
X22746109Y-26124490D01*
X22811996Y-26238609D01*
X22811998Y-26238611D01*
X22812000Y-26238614D01*
X22905186Y-26331800D01*
X22905188Y-26331801D01*
X22905190Y-26331803D01*
X23019310Y-26397690D01*
X23019308Y-26397690D01*
X23019312Y-26397691D01*
X23019314Y-26397692D01*
X23146608Y-26431800D01*
X23146610Y-26431800D01*
X23278390Y-26431800D01*
X23278392Y-26431800D01*
X23405686Y-26397692D01*
X23405688Y-26397690D01*
X23405690Y-26397690D01*
X23519809Y-26331803D01*
X23519809Y-26331802D01*
X23519814Y-26331800D01*
X23613000Y-26238614D01*
X23635006Y-26200499D01*
X23678890Y-26124490D01*
X23678890Y-26124488D01*
X23678892Y-26124486D01*
X23713000Y-25997192D01*
X23713000Y-25932133D01*
X23731907Y-25873942D01*
X23741990Y-25862135D01*
X24223196Y-25380928D01*
X24277713Y-25353152D01*
X24338145Y-25362723D01*
G37*
%TD.AperFunction*%
%TA.AperFunction,Conductor*%
G36*
X29825001Y-51230633D02*
G01*
X29940345Y-51345977D01*
X30112402Y-51460941D01*
X30303580Y-51540130D01*
X30506535Y-51580500D01*
X30506536Y-51580500D01*
X30713464Y-51580500D01*
X30713465Y-51580500D01*
X30916420Y-51540130D01*
X31027405Y-51494157D01*
X31088398Y-51489357D01*
X31135289Y-51515616D01*
X31682613Y-52062939D01*
X32091204Y-52471530D01*
X32118981Y-52526047D01*
X32120200Y-52541534D01*
X32120200Y-59962678D01*
X32101293Y-60020869D01*
X32091204Y-60032681D01*
X32045200Y-60078684D01*
X32045196Y-60078690D01*
X31979309Y-60192809D01*
X31960239Y-60263978D01*
X31945200Y-60320108D01*
X31945200Y-60451892D01*
X31946078Y-60455168D01*
X31979309Y-60579190D01*
X32045196Y-60693309D01*
X32045198Y-60693311D01*
X32045200Y-60693314D01*
X32138386Y-60786500D01*
X32138388Y-60786501D01*
X32138390Y-60786503D01*
X32252510Y-60852390D01*
X32252508Y-60852390D01*
X32252512Y-60852391D01*
X32252514Y-60852392D01*
X32379808Y-60886500D01*
X32379810Y-60886500D01*
X32511590Y-60886500D01*
X32511592Y-60886500D01*
X32638886Y-60852392D01*
X32638888Y-60852390D01*
X32638890Y-60852390D01*
X32753009Y-60786503D01*
X32753009Y-60786502D01*
X32753014Y-60786500D01*
X32846200Y-60693314D01*
X32889764Y-60617859D01*
X32935233Y-60576919D01*
X32996083Y-60570523D01*
X33049071Y-60601116D01*
X33073958Y-60657012D01*
X33074500Y-60667360D01*
X33074500Y-61409029D01*
X33055593Y-61467220D01*
X33006093Y-61503184D01*
X33003203Y-61504074D01*
X32996823Y-61505933D01*
X32889598Y-61555933D01*
X32805933Y-61639598D01*
X32755932Y-61746824D01*
X32755932Y-61746825D01*
X32755932Y-61746827D01*
X32749500Y-61795684D01*
X32749500Y-64204316D01*
X32753788Y-64236887D01*
X32755932Y-64253174D01*
X32755932Y-64253175D01*
X32805122Y-64358661D01*
X32812579Y-64419390D01*
X32782916Y-64472904D01*
X32727463Y-64498762D01*
X32715398Y-64499500D01*
X31544602Y-64499500D01*
X31486411Y-64480593D01*
X31450447Y-64431093D01*
X31450447Y-64369907D01*
X31454878Y-64358661D01*
X31504067Y-64253175D01*
X31504068Y-64253173D01*
X31510500Y-64204316D01*
X31510500Y-61795684D01*
X31504068Y-61746827D01*
X31500805Y-61739830D01*
X31454066Y-61639598D01*
X31454065Y-61639597D01*
X31454065Y-61639596D01*
X31370404Y-61555935D01*
X31370402Y-61555934D01*
X31370401Y-61555933D01*
X31263175Y-61505932D01*
X31230601Y-61501644D01*
X31214316Y-61499500D01*
X30505684Y-61499500D01*
X30489398Y-61501644D01*
X30456825Y-61505932D01*
X30456824Y-61505932D01*
X30349598Y-61555933D01*
X30265933Y-61639598D01*
X30228370Y-61720151D01*
X30186641Y-61764899D01*
X30126580Y-61776573D01*
X30071127Y-61750714D01*
X30068642Y-61748315D01*
X29684996Y-61364669D01*
X29657219Y-61310152D01*
X29656000Y-61294665D01*
X29656000Y-51300639D01*
X29674907Y-51242448D01*
X29724407Y-51206484D01*
X29785593Y-51206484D01*
X29825001Y-51230633D01*
G37*
%TD.AperFunction*%
%TA.AperFunction,Conductor*%
G36*
X47285445Y-49651624D02*
G01*
X47328710Y-49694889D01*
X47339500Y-49739834D01*
X47339500Y-51399746D01*
X47339501Y-51399758D01*
X47351132Y-51458227D01*
X47351134Y-51458233D01*
X47358224Y-51468844D01*
X47395448Y-51524552D01*
X47461769Y-51568867D01*
X47506231Y-51577711D01*
X47520241Y-51580498D01*
X47520246Y-51580498D01*
X47520252Y-51580500D01*
X47965500Y-51580500D01*
X48023691Y-51599407D01*
X48059655Y-51648907D01*
X48064500Y-51679500D01*
X48064500Y-53445765D01*
X48045593Y-53503956D01*
X48035504Y-53515769D01*
X44801369Y-56749904D01*
X44746852Y-56777681D01*
X44731365Y-56778900D01*
X44666308Y-56778900D01*
X44588400Y-56799775D01*
X44539009Y-56813009D01*
X44424890Y-56878896D01*
X44331696Y-56972090D01*
X44265809Y-57086209D01*
X44265808Y-57086214D01*
X44231700Y-57213508D01*
X44231700Y-57345292D01*
X44245508Y-57396824D01*
X44265809Y-57472590D01*
X44331696Y-57586709D01*
X44331698Y-57586711D01*
X44331700Y-57586714D01*
X44424886Y-57679900D01*
X44424888Y-57679901D01*
X44424890Y-57679903D01*
X44539010Y-57745790D01*
X44539008Y-57745790D01*
X44539012Y-57745791D01*
X44539014Y-57745792D01*
X44666308Y-57779900D01*
X44666310Y-57779900D01*
X44798090Y-57779900D01*
X44798092Y-57779900D01*
X44925386Y-57745792D01*
X44925388Y-57745790D01*
X44925390Y-57745790D01*
X45039509Y-57679903D01*
X45039509Y-57679902D01*
X45039514Y-57679900D01*
X45132700Y-57586714D01*
X45198592Y-57472586D01*
X45232700Y-57345292D01*
X45232700Y-57280234D01*
X45251607Y-57222043D01*
X45261690Y-57210236D01*
X48650465Y-53821462D01*
X48653484Y-53816233D01*
X48693318Y-53747238D01*
X48715500Y-53664453D01*
X48715500Y-51679500D01*
X48734407Y-51621309D01*
X48783907Y-51585345D01*
X48814500Y-51580500D01*
X49190900Y-51580500D01*
X49249091Y-51599407D01*
X49285055Y-51648907D01*
X49289900Y-51679500D01*
X49289900Y-56768765D01*
X49270993Y-56826956D01*
X49260904Y-56838769D01*
X44351357Y-61748315D01*
X44296840Y-61776092D01*
X44236408Y-61766521D01*
X44193143Y-61723256D01*
X44191629Y-61720151D01*
X44154066Y-61639598D01*
X44154065Y-61639597D01*
X44154065Y-61639596D01*
X44070404Y-61555935D01*
X44070402Y-61555934D01*
X44070401Y-61555933D01*
X43963175Y-61505932D01*
X43930601Y-61501644D01*
X43914316Y-61499500D01*
X43205684Y-61499500D01*
X43189398Y-61501644D01*
X43156825Y-61505932D01*
X43156824Y-61505932D01*
X43049598Y-61555933D01*
X42965933Y-61639598D01*
X42915932Y-61746824D01*
X42915932Y-61746825D01*
X42915932Y-61746827D01*
X42909500Y-61795684D01*
X42909500Y-64204316D01*
X42913788Y-64236887D01*
X42915932Y-64253174D01*
X42915932Y-64253175D01*
X42965122Y-64358661D01*
X42972579Y-64419390D01*
X42942916Y-64472904D01*
X42887463Y-64498762D01*
X42875398Y-64499500D01*
X41704602Y-64499500D01*
X41646411Y-64480593D01*
X41610447Y-64431093D01*
X41610447Y-64369907D01*
X41614878Y-64358661D01*
X41664067Y-64253175D01*
X41664068Y-64253173D01*
X41670500Y-64204316D01*
X41670500Y-61795684D01*
X41664068Y-61746827D01*
X41660805Y-61739830D01*
X41614066Y-61639598D01*
X41614065Y-61639597D01*
X41614065Y-61639596D01*
X41530404Y-61555935D01*
X41530402Y-61555934D01*
X41530401Y-61555933D01*
X41423176Y-61505933D01*
X41416797Y-61504074D01*
X41366222Y-61469639D01*
X41345546Y-61412053D01*
X41345500Y-61409029D01*
X41345500Y-55535834D01*
X41364407Y-55477643D01*
X41374490Y-55465836D01*
X47170496Y-49669829D01*
X47225013Y-49642053D01*
X47285445Y-49651624D01*
G37*
%TD.AperFunction*%
%TA.AperFunction,Conductor*%
G36*
X69049189Y-48645706D02*
G01*
X69083182Y-48696579D01*
X69086900Y-48723454D01*
X69086900Y-54751765D01*
X69067993Y-54809956D01*
X69057904Y-54821769D01*
X62131357Y-61748315D01*
X62076840Y-61776092D01*
X62016408Y-61766521D01*
X61973143Y-61723256D01*
X61971629Y-61720151D01*
X61934066Y-61639598D01*
X61934065Y-61639597D01*
X61934065Y-61639596D01*
X61850404Y-61555935D01*
X61850402Y-61555934D01*
X61850401Y-61555933D01*
X61743175Y-61505932D01*
X61710601Y-61501644D01*
X61694316Y-61499500D01*
X60985684Y-61499500D01*
X60969398Y-61501644D01*
X60936825Y-61505932D01*
X60936824Y-61505932D01*
X60829598Y-61555933D01*
X60745933Y-61639598D01*
X60695932Y-61746824D01*
X60695932Y-61746825D01*
X60695932Y-61746827D01*
X60689500Y-61795684D01*
X60689500Y-64204316D01*
X60693788Y-64236887D01*
X60695932Y-64253174D01*
X60695932Y-64253175D01*
X60745122Y-64358661D01*
X60752579Y-64419390D01*
X60722916Y-64472904D01*
X60667463Y-64498762D01*
X60655398Y-64499500D01*
X59484602Y-64499500D01*
X59426411Y-64480593D01*
X59390447Y-64431093D01*
X59390447Y-64369907D01*
X59394878Y-64358661D01*
X59444067Y-64253175D01*
X59444068Y-64253173D01*
X59450500Y-64204316D01*
X59450500Y-61795684D01*
X59444068Y-61746827D01*
X59440805Y-61739830D01*
X59394066Y-61639598D01*
X59394065Y-61639597D01*
X59394065Y-61639596D01*
X59310404Y-61555935D01*
X59310402Y-61555934D01*
X59310401Y-61555933D01*
X59203175Y-61505932D01*
X59170601Y-61501644D01*
X59154316Y-61499500D01*
X58445684Y-61499500D01*
X58429398Y-61501644D01*
X58396825Y-61505932D01*
X58396824Y-61505932D01*
X58289598Y-61555933D01*
X58205933Y-61639598D01*
X58168370Y-61720151D01*
X58126641Y-61764899D01*
X58066580Y-61776573D01*
X58011127Y-61750714D01*
X58008642Y-61748315D01*
X57071696Y-60811369D01*
X57043919Y-60756852D01*
X57042700Y-60741365D01*
X57042700Y-56076777D01*
X57061607Y-56018586D01*
X57111107Y-55982622D01*
X57172293Y-55982622D01*
X57174378Y-55983326D01*
X57215302Y-55997646D01*
X57245735Y-56000500D01*
X59254264Y-56000499D01*
X59254265Y-56000499D01*
X59260350Y-55999928D01*
X59284698Y-55997646D01*
X59412882Y-55952793D01*
X59522150Y-55872150D01*
X59602793Y-55762882D01*
X59647646Y-55634698D01*
X59650500Y-55604265D01*
X59650499Y-54489774D01*
X60349500Y-54489774D01*
X60349500Y-54710225D01*
X60383984Y-54927948D01*
X60452102Y-55137599D01*
X60452104Y-55137602D01*
X60452105Y-55137606D01*
X60477816Y-55188066D01*
X60543586Y-55317147D01*
X60552185Y-55334022D01*
X60681758Y-55512365D01*
X60837635Y-55668242D01*
X61015978Y-55797815D01*
X61212394Y-55897895D01*
X61422049Y-55966015D01*
X61509140Y-55979809D01*
X61639775Y-56000500D01*
X61639778Y-56000500D01*
X61860225Y-56000500D01*
X61973099Y-55982622D01*
X62077951Y-55966015D01*
X62287606Y-55897895D01*
X62484022Y-55797815D01*
X62662365Y-55668242D01*
X62818242Y-55512365D01*
X62947815Y-55334022D01*
X63047895Y-55137606D01*
X63116015Y-54927951D01*
X63138140Y-54788259D01*
X63150500Y-54710225D01*
X63150500Y-54489774D01*
X63116015Y-54272051D01*
X63116015Y-54272049D01*
X63047895Y-54062394D01*
X62947815Y-53865978D01*
X62818242Y-53687635D01*
X62662365Y-53531758D01*
X62484022Y-53402185D01*
X62484021Y-53402184D01*
X62484019Y-53402183D01*
X62394825Y-53356736D01*
X62287606Y-53302105D01*
X62287602Y-53302104D01*
X62287599Y-53302102D01*
X62077948Y-53233984D01*
X61860225Y-53199500D01*
X61860222Y-53199500D01*
X61639778Y-53199500D01*
X61639775Y-53199500D01*
X61422051Y-53233984D01*
X61212400Y-53302102D01*
X61015980Y-53402183D01*
X60955995Y-53445765D01*
X60837635Y-53531758D01*
X60681758Y-53687635D01*
X60646696Y-53735894D01*
X60552183Y-53865980D01*
X60452102Y-54062400D01*
X60383984Y-54272051D01*
X60349500Y-54489774D01*
X59650499Y-54489774D01*
X59650499Y-54231163D01*
X59669406Y-54172973D01*
X59679489Y-54161166D01*
X64562414Y-49278243D01*
X64639075Y-49163511D01*
X64691880Y-49036028D01*
X64718800Y-48900694D01*
X64718800Y-48839500D01*
X64737707Y-48781309D01*
X64787207Y-48745345D01*
X64817800Y-48740500D01*
X68640692Y-48740500D01*
X68640693Y-48740500D01*
X68776028Y-48713580D01*
X68903511Y-48660775D01*
X68903516Y-48660771D01*
X68903519Y-48660770D01*
X68932897Y-48641140D01*
X68991784Y-48624530D01*
X69049189Y-48645706D01*
G37*
%TD.AperFunction*%
%TA.AperFunction,Conductor*%
G36*
X23162745Y-19403425D02*
G01*
X23206010Y-19446690D01*
X23216800Y-19491635D01*
X23216800Y-22731865D01*
X23197893Y-22790056D01*
X23187804Y-22801869D01*
X22683304Y-23306369D01*
X22628787Y-23334146D01*
X22568355Y-23324575D01*
X22525090Y-23281310D01*
X22514300Y-23236365D01*
X22514300Y-23102109D01*
X22503660Y-23062400D01*
X22480192Y-22974814D01*
X22480190Y-22974811D01*
X22480190Y-22974809D01*
X22414303Y-22860690D01*
X22414301Y-22860688D01*
X22414300Y-22860686D01*
X22321114Y-22767500D01*
X22321111Y-22767498D01*
X22233199Y-22716741D01*
X22192259Y-22671271D01*
X22183700Y-22631005D01*
X22183700Y-20326735D01*
X22202607Y-20268544D01*
X22212696Y-20256731D01*
X23047796Y-19421631D01*
X23102313Y-19393854D01*
X23162745Y-19403425D01*
G37*
%TD.AperFunction*%
%TA.AperFunction,Conductor*%
G36*
X16010456Y-19352507D02*
G01*
X16022269Y-19362596D01*
X17129535Y-20469862D01*
X17129534Y-20469862D01*
X17375503Y-20715829D01*
X17403281Y-20770346D01*
X17404500Y-20785833D01*
X17404500Y-21059415D01*
X17385593Y-21117606D01*
X17336093Y-21153570D01*
X17279877Y-21155042D01*
X17165892Y-21124500D01*
X17099500Y-21124500D01*
X17041309Y-21105593D01*
X17005345Y-21056093D01*
X17000500Y-21025500D01*
X17000500Y-20909109D01*
X17000500Y-20909108D01*
X16966392Y-20781814D01*
X16966390Y-20781811D01*
X16966390Y-20781809D01*
X16900503Y-20667690D01*
X16900501Y-20667688D01*
X16900500Y-20667686D01*
X16807314Y-20574500D01*
X16807311Y-20574498D01*
X16807309Y-20574496D01*
X16693189Y-20508609D01*
X16693191Y-20508609D01*
X16643799Y-20495375D01*
X16565892Y-20474500D01*
X16434108Y-20474500D01*
X16356200Y-20495375D01*
X16306809Y-20508609D01*
X16192690Y-20574496D01*
X16192684Y-20574500D01*
X16146681Y-20620504D01*
X16092164Y-20648281D01*
X16076678Y-20649500D01*
X12548932Y-20649500D01*
X12548916Y-20649499D01*
X12542853Y-20649499D01*
X12457147Y-20649499D01*
X12415754Y-20660590D01*
X12374359Y-20671682D01*
X12349389Y-20686098D01*
X12349390Y-20686099D01*
X12300136Y-20714535D01*
X12239534Y-20775137D01*
X12239535Y-20775138D01*
X12239533Y-20775140D01*
X11063286Y-21951386D01*
X11008769Y-21979163D01*
X10948337Y-21969592D01*
X10905072Y-21926327D01*
X10897655Y-21907004D01*
X10892192Y-21886614D01*
X10892190Y-21886610D01*
X10826303Y-21772490D01*
X10826301Y-21772488D01*
X10826300Y-21772486D01*
X10733114Y-21679300D01*
X10733111Y-21679298D01*
X10733109Y-21679296D01*
X10618989Y-21613409D01*
X10618991Y-21613409D01*
X10569599Y-21600175D01*
X10491692Y-21579300D01*
X10359908Y-21579300D01*
X10282000Y-21600175D01*
X10232609Y-21613409D01*
X10155010Y-21658212D01*
X10095162Y-21670934D01*
X10039266Y-21646047D01*
X10035525Y-21642498D01*
X10005362Y-21612335D01*
X10005359Y-21612333D01*
X10001904Y-21608877D01*
X10001898Y-21608872D01*
X9548796Y-21155769D01*
X9521019Y-21101253D01*
X9519800Y-21085766D01*
X9519800Y-21020709D01*
X9519800Y-21020708D01*
X9485692Y-20893414D01*
X9485690Y-20893411D01*
X9485690Y-20893409D01*
X9419803Y-20779290D01*
X9419801Y-20779288D01*
X9419800Y-20779286D01*
X9326614Y-20686100D01*
X9326611Y-20686098D01*
X9326609Y-20686096D01*
X9212489Y-20620209D01*
X9212491Y-20620209D01*
X9163099Y-20606975D01*
X9085192Y-20586100D01*
X8953408Y-20586100D01*
X8875500Y-20606975D01*
X8826109Y-20620209D01*
X8711990Y-20686096D01*
X8618796Y-20779290D01*
X8552909Y-20893409D01*
X8533839Y-20964578D01*
X8518800Y-21020708D01*
X8518800Y-21152492D01*
X8548879Y-21264751D01*
X8552909Y-21279790D01*
X8618796Y-21393909D01*
X8618798Y-21393911D01*
X8618800Y-21393914D01*
X8711986Y-21487100D01*
X8711988Y-21487101D01*
X8711990Y-21487103D01*
X8826110Y-21552990D01*
X8826108Y-21552990D01*
X8826112Y-21552991D01*
X8826114Y-21552992D01*
X8953408Y-21587100D01*
X9018465Y-21587100D01*
X9076656Y-21606007D01*
X9088469Y-21616096D01*
X9275169Y-21802796D01*
X9302946Y-21857313D01*
X9293375Y-21917745D01*
X9275169Y-21942804D01*
X8389194Y-22828778D01*
X8334677Y-22856555D01*
X8274245Y-22846984D01*
X8230980Y-22803719D01*
X8223564Y-22784401D01*
X8220192Y-22771814D01*
X8220190Y-22771811D01*
X8220190Y-22771809D01*
X8154303Y-22657690D01*
X8154301Y-22657688D01*
X8154300Y-22657686D01*
X8061114Y-22564500D01*
X8061111Y-22564498D01*
X8061109Y-22564496D01*
X7946989Y-22498609D01*
X7946991Y-22498609D01*
X7878670Y-22480303D01*
X7819692Y-22464500D01*
X7687908Y-22464500D01*
X7628930Y-22480303D01*
X7560609Y-22498609D01*
X7507799Y-22529100D01*
X7447951Y-22541822D01*
X7392055Y-22516935D01*
X7388295Y-22513368D01*
X7031396Y-22156469D01*
X7003619Y-22101952D01*
X7002400Y-22086465D01*
X7002400Y-21362635D01*
X7021307Y-21304444D01*
X7031396Y-21292631D01*
X8961431Y-19362596D01*
X9015948Y-19334819D01*
X9031435Y-19333600D01*
X15952265Y-19333600D01*
X16010456Y-19352507D01*
G37*
%TD.AperFunction*%
%TD*%
M02*
