%TF.GenerationSoftware,KiCad,Pcbnew,10.0.6*%
%TF.CreationDate,2026-09-04T10:42:00+02:00*%
%TF.ProjectId,Dimmer4,44696d6d-6572-4342-9e6b-696361645f70,rev?*%
%TF.SameCoordinates,Original*%
%TF.FileFunction,Legend,Top*%
%TF.FilePolarity,Positive*%
%FSLAX46Y46*%
G04 Gerber Fmt 4.6, Leading zero omitted, Abs format (unit mm)*
G04 Created by KiCad (PCBNEW 10.0.6) date 2026-09-04 10:42:00*
%MOMM*%
%LPD*%
G01*
G04 APERTURE LIST*
%ADD10C,0.200000*%
%ADD11C,0.150000*%
%ADD12C,0.120000*%
G04 APERTURE END LIST*
D10*
X4700000Y-11200000D02*
X4700000Y-12400000D01*
X4700000Y-12400000D02*
X5899999Y-11800000D01*
X5899999Y-11800000D02*
X4700000Y-11200000D01*
D11*
X5528571Y-13762295D02*
X5071428Y-13762295D01*
X5300000Y-13762295D02*
X5300000Y-12962295D01*
X5300000Y-12962295D02*
X5223809Y-13076580D01*
X5223809Y-13076580D02*
X5147619Y-13152771D01*
X5147619Y-13152771D02*
X5071428Y-13190866D01*
X52909523Y-58362295D02*
X52909523Y-57562295D01*
X53366666Y-58362295D02*
X53023808Y-57905152D01*
X53366666Y-57562295D02*
X52909523Y-58019438D01*
X54090475Y-58362295D02*
X53709523Y-58362295D01*
X53709523Y-58362295D02*
X53709523Y-57562295D01*
X54357142Y-57943247D02*
X54623808Y-57943247D01*
X54738094Y-58362295D02*
X54357142Y-58362295D01*
X54357142Y-58362295D02*
X54357142Y-57562295D01*
X54357142Y-57562295D02*
X54738094Y-57562295D01*
X55080952Y-58362295D02*
X55080952Y-57562295D01*
X55080952Y-57562295D02*
X55347618Y-58133723D01*
X55347618Y-58133723D02*
X55614285Y-57562295D01*
X55614285Y-57562295D02*
X55614285Y-58362295D01*
X55995238Y-58362295D02*
X55995238Y-57562295D01*
X55995238Y-57562295D02*
X56261904Y-58133723D01*
X56261904Y-58133723D02*
X56528571Y-57562295D01*
X56528571Y-57562295D02*
X56528571Y-58362295D01*
X56909524Y-57943247D02*
X57176190Y-57943247D01*
X57290476Y-58362295D02*
X56909524Y-58362295D01*
X56909524Y-58362295D02*
X56909524Y-57562295D01*
X56909524Y-57562295D02*
X57290476Y-57562295D01*
X57633334Y-58362295D02*
X57633334Y-57562295D01*
X57633334Y-57562295D02*
X58090477Y-58362295D01*
X58090477Y-58362295D02*
X58090477Y-57562295D01*
D12*
X31688855Y-8808570D02*
X32260283Y-8808570D01*
X32260283Y-8808570D02*
X32374569Y-8846665D01*
X32374569Y-8846665D02*
X32450760Y-8922856D01*
X32450760Y-8922856D02*
X32488855Y-9037141D01*
X32488855Y-9037141D02*
X32488855Y-9113332D01*
X32488855Y-8008570D02*
X32488855Y-8465713D01*
X32488855Y-8237141D02*
X31688855Y-8237141D01*
X31688855Y-8237141D02*
X31803140Y-8313332D01*
X31803140Y-8313332D02*
X31879331Y-8389522D01*
X31879331Y-8389522D02*
X31917426Y-8465713D01*
X31688855Y-7513331D02*
X31688855Y-7437141D01*
X31688855Y-7437141D02*
X31726950Y-7360950D01*
X31726950Y-7360950D02*
X31765045Y-7322855D01*
X31765045Y-7322855D02*
X31841236Y-7284760D01*
X31841236Y-7284760D02*
X31993617Y-7246665D01*
X31993617Y-7246665D02*
X32184093Y-7246665D01*
X32184093Y-7246665D02*
X32336474Y-7284760D01*
X32336474Y-7284760D02*
X32412664Y-7322855D01*
X32412664Y-7322855D02*
X32450760Y-7360950D01*
X32450760Y-7360950D02*
X32488855Y-7437141D01*
X32488855Y-7437141D02*
X32488855Y-7513331D01*
X32488855Y-7513331D02*
X32450760Y-7589522D01*
X32450760Y-7589522D02*
X32412664Y-7627617D01*
X32412664Y-7627617D02*
X32336474Y-7665712D01*
X32336474Y-7665712D02*
X32184093Y-7703808D01*
X32184093Y-7703808D02*
X31993617Y-7703808D01*
X31993617Y-7703808D02*
X31841236Y-7665712D01*
X31841236Y-7665712D02*
X31765045Y-7627617D01*
X31765045Y-7627617D02*
X31726950Y-7589522D01*
X31726950Y-7589522D02*
X31688855Y-7513331D01*
X31688855Y-6751426D02*
X31688855Y-6675236D01*
X31688855Y-6675236D02*
X31726950Y-6599045D01*
X31726950Y-6599045D02*
X31765045Y-6560950D01*
X31765045Y-6560950D02*
X31841236Y-6522855D01*
X31841236Y-6522855D02*
X31993617Y-6484760D01*
X31993617Y-6484760D02*
X32184093Y-6484760D01*
X32184093Y-6484760D02*
X32336474Y-6522855D01*
X32336474Y-6522855D02*
X32412664Y-6560950D01*
X32412664Y-6560950D02*
X32450760Y-6599045D01*
X32450760Y-6599045D02*
X32488855Y-6675236D01*
X32488855Y-6675236D02*
X32488855Y-6751426D01*
X32488855Y-6751426D02*
X32450760Y-6827617D01*
X32450760Y-6827617D02*
X32412664Y-6865712D01*
X32412664Y-6865712D02*
X32336474Y-6903807D01*
X32336474Y-6903807D02*
X32184093Y-6941903D01*
X32184093Y-6941903D02*
X31993617Y-6941903D01*
X31993617Y-6941903D02*
X31841236Y-6903807D01*
X31841236Y-6903807D02*
X31765045Y-6865712D01*
X31765045Y-6865712D02*
X31726950Y-6827617D01*
X31726950Y-6827617D02*
X31688855Y-6751426D01*
X37533333Y-48663855D02*
X37533333Y-49235283D01*
X37533333Y-49235283D02*
X37495238Y-49349569D01*
X37495238Y-49349569D02*
X37419047Y-49425760D01*
X37419047Y-49425760D02*
X37304762Y-49463855D01*
X37304762Y-49463855D02*
X37228571Y-49463855D01*
X38028571Y-49006712D02*
X37952381Y-48968617D01*
X37952381Y-48968617D02*
X37914286Y-48930521D01*
X37914286Y-48930521D02*
X37876190Y-48854331D01*
X37876190Y-48854331D02*
X37876190Y-48816236D01*
X37876190Y-48816236D02*
X37914286Y-48740045D01*
X37914286Y-48740045D02*
X37952381Y-48701950D01*
X37952381Y-48701950D02*
X38028571Y-48663855D01*
X38028571Y-48663855D02*
X38180952Y-48663855D01*
X38180952Y-48663855D02*
X38257143Y-48701950D01*
X38257143Y-48701950D02*
X38295238Y-48740045D01*
X38295238Y-48740045D02*
X38333333Y-48816236D01*
X38333333Y-48816236D02*
X38333333Y-48854331D01*
X38333333Y-48854331D02*
X38295238Y-48930521D01*
X38295238Y-48930521D02*
X38257143Y-48968617D01*
X38257143Y-48968617D02*
X38180952Y-49006712D01*
X38180952Y-49006712D02*
X38028571Y-49006712D01*
X38028571Y-49006712D02*
X37952381Y-49044807D01*
X37952381Y-49044807D02*
X37914286Y-49082902D01*
X37914286Y-49082902D02*
X37876190Y-49159093D01*
X37876190Y-49159093D02*
X37876190Y-49311474D01*
X37876190Y-49311474D02*
X37914286Y-49387664D01*
X37914286Y-49387664D02*
X37952381Y-49425760D01*
X37952381Y-49425760D02*
X38028571Y-49463855D01*
X38028571Y-49463855D02*
X38180952Y-49463855D01*
X38180952Y-49463855D02*
X38257143Y-49425760D01*
X38257143Y-49425760D02*
X38295238Y-49387664D01*
X38295238Y-49387664D02*
X38333333Y-49311474D01*
X38333333Y-49311474D02*
X38333333Y-49159093D01*
X38333333Y-49159093D02*
X38295238Y-49082902D01*
X38295238Y-49082902D02*
X38257143Y-49044807D01*
X38257143Y-49044807D02*
X38180952Y-49006712D01*
X20333333Y-48663855D02*
X20333333Y-49235283D01*
X20333333Y-49235283D02*
X20295238Y-49349569D01*
X20295238Y-49349569D02*
X20219047Y-49425760D01*
X20219047Y-49425760D02*
X20104762Y-49463855D01*
X20104762Y-49463855D02*
X20028571Y-49463855D01*
X21057143Y-48663855D02*
X20904762Y-48663855D01*
X20904762Y-48663855D02*
X20828571Y-48701950D01*
X20828571Y-48701950D02*
X20790476Y-48740045D01*
X20790476Y-48740045D02*
X20714286Y-48854331D01*
X20714286Y-48854331D02*
X20676190Y-49006712D01*
X20676190Y-49006712D02*
X20676190Y-49311474D01*
X20676190Y-49311474D02*
X20714286Y-49387664D01*
X20714286Y-49387664D02*
X20752381Y-49425760D01*
X20752381Y-49425760D02*
X20828571Y-49463855D01*
X20828571Y-49463855D02*
X20980952Y-49463855D01*
X20980952Y-49463855D02*
X21057143Y-49425760D01*
X21057143Y-49425760D02*
X21095238Y-49387664D01*
X21095238Y-49387664D02*
X21133333Y-49311474D01*
X21133333Y-49311474D02*
X21133333Y-49120998D01*
X21133333Y-49120998D02*
X21095238Y-49044807D01*
X21095238Y-49044807D02*
X21057143Y-49006712D01*
X21057143Y-49006712D02*
X20980952Y-48968617D01*
X20980952Y-48968617D02*
X20828571Y-48968617D01*
X20828571Y-48968617D02*
X20752381Y-49006712D01*
X20752381Y-49006712D02*
X20714286Y-49044807D01*
X20714286Y-49044807D02*
X20676190Y-49120998D01*
X28933333Y-48663855D02*
X28933333Y-49235283D01*
X28933333Y-49235283D02*
X28895238Y-49349569D01*
X28895238Y-49349569D02*
X28819047Y-49425760D01*
X28819047Y-49425760D02*
X28704762Y-49463855D01*
X28704762Y-49463855D02*
X28628571Y-49463855D01*
X29238095Y-48663855D02*
X29771429Y-48663855D01*
X29771429Y-48663855D02*
X29428571Y-49463855D01*
X11733333Y-48663855D02*
X11733333Y-49235283D01*
X11733333Y-49235283D02*
X11695238Y-49349569D01*
X11695238Y-49349569D02*
X11619047Y-49425760D01*
X11619047Y-49425760D02*
X11504762Y-49463855D01*
X11504762Y-49463855D02*
X11428571Y-49463855D01*
X12495238Y-48663855D02*
X12114286Y-48663855D01*
X12114286Y-48663855D02*
X12076190Y-49044807D01*
X12076190Y-49044807D02*
X12114286Y-49006712D01*
X12114286Y-49006712D02*
X12190476Y-48968617D01*
X12190476Y-48968617D02*
X12380952Y-48968617D01*
X12380952Y-48968617D02*
X12457143Y-49006712D01*
X12457143Y-49006712D02*
X12495238Y-49044807D01*
X12495238Y-49044807D02*
X12533333Y-49120998D01*
X12533333Y-49120998D02*
X12533333Y-49311474D01*
X12533333Y-49311474D02*
X12495238Y-49387664D01*
X12495238Y-49387664D02*
X12457143Y-49425760D01*
X12457143Y-49425760D02*
X12380952Y-49463855D01*
X12380952Y-49463855D02*
X12190476Y-49463855D01*
X12190476Y-49463855D02*
X12114286Y-49425760D01*
X12114286Y-49425760D02*
X12076190Y-49387664D01*
%TO.C,U102*%
X16174432Y-24565000D02*
X18540000Y-24565000D01*
X18540000Y-26935000D02*
X16020000Y-26935000D01*
X15880000Y-24560000D02*
X15740000Y-24370000D01*
X16020000Y-24370000D01*
X15880000Y-24560000D01*
G36*
X15880000Y-24560000D02*
G01*
X15740000Y-24370000D01*
X16020000Y-24370000D01*
X15880000Y-24560000D01*
G37*
%TO.C,R104*%
X6622936Y-33115000D02*
X7077064Y-33115000D01*
X6622936Y-34585000D02*
X7077064Y-34585000D01*
%TO.C,R12*%
X50322936Y-15715000D02*
X50777064Y-15715000D01*
X50322936Y-17185000D02*
X50777064Y-17185000D01*
%TO.C,RP3*%
X35022936Y-18815000D02*
X35477064Y-18815000D01*
X35022936Y-20285000D02*
X35477064Y-20285000D01*
%TO.C,R105*%
X10922936Y-33115000D02*
X11377064Y-33115000D01*
X10922936Y-34585000D02*
X11377064Y-34585000D01*
%TO.C,C101*%
X6618748Y-24445000D02*
X7141252Y-24445000D01*
X6618748Y-25915000D02*
X7141252Y-25915000D01*
%TO.C,U101*%
X5715000Y-20990000D02*
X7185000Y-20990000D01*
X5715000Y-21015000D02*
X5715000Y-20990000D01*
X5715000Y-23210000D02*
X5715000Y-23185000D01*
X7185000Y-20990000D02*
X7185000Y-21015000D01*
X7185000Y-23185000D02*
X7185000Y-23210000D01*
X7185000Y-23210000D02*
X5715000Y-23210000D01*
X5270000Y-21010000D02*
X5130000Y-20820000D01*
X5410000Y-20820000D01*
X5270000Y-21010000D01*
G36*
X5270000Y-21010000D02*
G01*
X5130000Y-20820000D01*
X5410000Y-20820000D01*
X5270000Y-21010000D01*
G37*
%TO.C,D2*%
X24140000Y-29300000D02*
X32650000Y-29300000D01*
X24140000Y-35800000D02*
X24140000Y-29300000D01*
X24140000Y-35800000D02*
X32650000Y-35800000D01*
%TO.C,J101*%
X9960000Y-1990000D02*
X11170000Y-1990000D01*
X11170000Y-1320000D02*
X11170000Y-1990000D01*
X11170000Y-1320000D02*
X13830000Y-1320000D01*
X11170000Y-3510000D02*
X11170000Y-6720000D01*
X11170000Y-6720000D02*
X13830000Y-6720000D01*
X13830000Y-1320000D02*
X13830000Y-4530000D01*
X13830000Y-6050000D02*
X13830000Y-6720000D01*
%TO.C,D3*%
X34590000Y-29300000D02*
X43100000Y-29300000D01*
X34590000Y-35800000D02*
X34590000Y-29300000D01*
X34590000Y-35800000D02*
X43100000Y-35800000D01*
%TO.C,Q4*%
X40180000Y-36550000D02*
X40180000Y-36820000D01*
X40180000Y-43450000D02*
X40180000Y-43180000D01*
X46600000Y-36550000D02*
X40180000Y-36550000D01*
X46600000Y-43450000D02*
X40180000Y-43450000D01*
X38450000Y-36860000D02*
X38110000Y-36390000D01*
X38790000Y-36390000D01*
X38450000Y-36860000D01*
G36*
X38450000Y-36860000D02*
G01*
X38110000Y-36390000D01*
X38790000Y-36390000D01*
X38450000Y-36860000D01*
G37*
%TO.C,Q10*%
X48080000Y-21550000D02*
X48080000Y-21820000D01*
X48080000Y-28450000D02*
X48080000Y-28180000D01*
X54500000Y-21550000D02*
X48080000Y-21550000D01*
X54500000Y-28450000D02*
X48080000Y-28450000D01*
X46350000Y-21860000D02*
X46010000Y-21390000D01*
X46690000Y-21390000D01*
X46350000Y-21860000D01*
G36*
X46350000Y-21860000D02*
G01*
X46010000Y-21390000D01*
X46690000Y-21390000D01*
X46350000Y-21860000D01*
G37*
%TO.C,D1*%
X13690000Y-29300000D02*
X22200000Y-29300000D01*
X13690000Y-35800000D02*
X13690000Y-29300000D01*
X13690000Y-35800000D02*
X22200000Y-35800000D01*
%TO.C,Q1*%
X4780000Y-36550000D02*
X4780000Y-36820000D01*
X4780000Y-43450000D02*
X4780000Y-43180000D01*
X11200000Y-36550000D02*
X4780000Y-36550000D01*
X11200000Y-43450000D02*
X4780000Y-43450000D01*
X3050000Y-36860000D02*
X2710000Y-36390000D01*
X3390000Y-36390000D01*
X3050000Y-36860000D01*
G36*
X3050000Y-36860000D02*
G01*
X2710000Y-36390000D01*
X3390000Y-36390000D01*
X3050000Y-36860000D01*
G37*
%TO.C,J100*%
X6620000Y-9080000D02*
X57640000Y-9080000D01*
X6620000Y-11730000D02*
X6620000Y-9080000D01*
X6620000Y-14380000D02*
X6620000Y-13000000D01*
X8000000Y-14380000D02*
X6620000Y-14380000D01*
X9270000Y-11730000D02*
X6620000Y-11730000D01*
X9270000Y-14380000D02*
X9270000Y-11730000D01*
X9270000Y-14380000D02*
X57640000Y-14380000D01*
X57640000Y-14380000D02*
X57640000Y-9080000D01*
%TO.C,R11*%
X45622936Y-15715000D02*
X46077064Y-15715000D01*
X45622936Y-17185000D02*
X46077064Y-17185000D01*
%TO.C,J103*%
X53320000Y-40670000D02*
X53320000Y-41240000D01*
X53320000Y-40670000D02*
X58520000Y-40670000D01*
X53320000Y-42760000D02*
X53320000Y-43780000D01*
X53320000Y-45300000D02*
X53320000Y-45870000D01*
X53320000Y-45870000D02*
X58520000Y-45870000D01*
X58520000Y-40670000D02*
X58520000Y-41240000D01*
X58520000Y-41240000D02*
X59880000Y-41240000D01*
X58520000Y-42760000D02*
X58520000Y-43780000D01*
X58520000Y-45300000D02*
X58520000Y-45870000D01*
%TO.C,U100*%
X16540000Y-16615000D02*
X21160000Y-16615000D01*
X21160000Y-23385000D02*
X16540000Y-23385000D01*
X14990000Y-17070000D02*
X14660000Y-17310000D01*
X14660000Y-16830000D01*
X14990000Y-17070000D01*
G36*
X14990000Y-17070000D02*
G01*
X14660000Y-17310000D01*
X14660000Y-16830000D01*
X14990000Y-17070000D01*
G37*
%TO.C,Q2*%
X16580000Y-36550000D02*
X16580000Y-36820000D01*
X16580000Y-43450000D02*
X16580000Y-43180000D01*
X23000000Y-36550000D02*
X16580000Y-36550000D01*
X23000000Y-43450000D02*
X16580000Y-43450000D01*
X14850000Y-36860000D02*
X14510000Y-36390000D01*
X15190000Y-36390000D01*
X14850000Y-36860000D01*
G36*
X14850000Y-36860000D02*
G01*
X14510000Y-36390000D01*
X15190000Y-36390000D01*
X14850000Y-36860000D01*
G37*
%TO.C,RP1*%
X25622936Y-18815000D02*
X26077064Y-18815000D01*
X25622936Y-20285000D02*
X26077064Y-20285000D01*
%TO.C,RG2*%
X30322936Y-15715000D02*
X30777064Y-15715000D01*
X30322936Y-17185000D02*
X30777064Y-17185000D01*
%TO.C,J8*%
X34180000Y-50380000D02*
X41420000Y-50380000D01*
X34180000Y-56600000D02*
X41420000Y-56600000D01*
X34180000Y-57700000D02*
X41420000Y-57700000D01*
X34180000Y-58220000D02*
X34180000Y-50380000D01*
X35750000Y-58220000D02*
X34180000Y-58220000D01*
X41420000Y-50380000D02*
X41420000Y-58220000D01*
X41420000Y-58220000D02*
X36350000Y-58220000D01*
X36050000Y-58220000D02*
X36490000Y-58830000D01*
X35610000Y-58830000D01*
X36050000Y-58220000D01*
G36*
X36490000Y-58830000D02*
G01*
X35610000Y-58830000D01*
X36050000Y-58220000D01*
X36490000Y-58830000D01*
G37*
%TO.C,U103*%
X21315000Y-24490000D02*
X22785000Y-24490000D01*
X21315000Y-24515000D02*
X21315000Y-24490000D01*
X21315000Y-26710000D02*
X21315000Y-26685000D01*
X22785000Y-24490000D02*
X22785000Y-24515000D01*
X22785000Y-25385000D02*
X22785000Y-25815000D01*
X22785000Y-26685000D02*
X22785000Y-26710000D01*
X22785000Y-26710000D02*
X21315000Y-26710000D01*
X20870000Y-24510000D02*
X20730000Y-24320000D01*
X21010000Y-24320000D01*
X20870000Y-24510000D01*
G36*
X20870000Y-24510000D02*
G01*
X20730000Y-24320000D01*
X21010000Y-24320000D01*
X20870000Y-24510000D01*
G37*
%TO.C,C100*%
X6618748Y-27345000D02*
X7141252Y-27345000D01*
X6618748Y-28815000D02*
X7141252Y-28815000D01*
%TO.C,RG4*%
X39722936Y-15715000D02*
X40177064Y-15715000D01*
X39722936Y-17185000D02*
X40177064Y-17185000D01*
%TO.C,Q3*%
X28380000Y-36550000D02*
X28380000Y-36820000D01*
X28380000Y-43450000D02*
X28380000Y-43180000D01*
X34800000Y-36550000D02*
X28380000Y-36550000D01*
X34800000Y-43450000D02*
X28380000Y-43450000D01*
X26650000Y-36860000D02*
X26310000Y-36390000D01*
X26990000Y-36390000D01*
X26650000Y-36860000D01*
G36*
X26650000Y-36860000D02*
G01*
X26310000Y-36390000D01*
X26990000Y-36390000D01*
X26650000Y-36860000D01*
G37*
%TO.C,RP4*%
X39722936Y-18815000D02*
X40177064Y-18815000D01*
X39722936Y-20285000D02*
X40177064Y-20285000D01*
%TO.C,R102*%
X11022936Y-24415000D02*
X11477064Y-24415000D01*
X11022936Y-25885000D02*
X11477064Y-25885000D01*
%TO.C,RP2*%
X30322936Y-18815000D02*
X30777064Y-18815000D01*
X30322936Y-20285000D02*
X30777064Y-20285000D01*
%TO.C,J6*%
X16980000Y-50380000D02*
X24220000Y-50380000D01*
X16980000Y-56600000D02*
X24220000Y-56600000D01*
X16980000Y-57700000D02*
X24220000Y-57700000D01*
X16980000Y-58220000D02*
X16980000Y-50380000D01*
X18550000Y-58220000D02*
X16980000Y-58220000D01*
X24220000Y-50380000D02*
X24220000Y-58220000D01*
X24220000Y-58220000D02*
X19150000Y-58220000D01*
X18850000Y-58220000D02*
X19290000Y-58830000D01*
X18410000Y-58830000D01*
X18850000Y-58220000D01*
G36*
X19290000Y-58830000D02*
G01*
X18410000Y-58830000D01*
X18850000Y-58220000D01*
X19290000Y-58830000D01*
G37*
%TO.C,J7*%
X25580000Y-50380000D02*
X32820000Y-50380000D01*
X25580000Y-56600000D02*
X32820000Y-56600000D01*
X25580000Y-57700000D02*
X32820000Y-57700000D01*
X25580000Y-58220000D02*
X25580000Y-50380000D01*
X27150000Y-58220000D02*
X25580000Y-58220000D01*
X32820000Y-50380000D02*
X32820000Y-58220000D01*
X32820000Y-58220000D02*
X27750000Y-58220000D01*
X27450000Y-58220000D02*
X27890000Y-58830000D01*
X27010000Y-58830000D01*
X27450000Y-58220000D01*
G36*
X27890000Y-58830000D02*
G01*
X27010000Y-58830000D01*
X27450000Y-58220000D01*
X27890000Y-58830000D01*
G37*
%TO.C,D4*%
X34590000Y-21800000D02*
X43100000Y-21800000D01*
X34590000Y-28300000D02*
X34590000Y-21800000D01*
X34590000Y-28300000D02*
X43100000Y-28300000D01*
%TO.C,J5*%
X8380000Y-50380000D02*
X15620000Y-50380000D01*
X8380000Y-56600000D02*
X15620000Y-56600000D01*
X8380000Y-57700000D02*
X15620000Y-57700000D01*
X8380000Y-58220000D02*
X8380000Y-50380000D01*
X9950000Y-58220000D02*
X8380000Y-58220000D01*
X15620000Y-50380000D02*
X15620000Y-58220000D01*
X15620000Y-58220000D02*
X10550000Y-58220000D01*
X10250000Y-58220000D02*
X10690000Y-58830000D01*
X9810000Y-58830000D01*
X10250000Y-58220000D01*
G36*
X10690000Y-58830000D02*
G01*
X9810000Y-58830000D01*
X10250000Y-58220000D01*
X10690000Y-58830000D01*
G37*
%TO.C,R101*%
X10922936Y-30215000D02*
X11377064Y-30215000D01*
X10922936Y-31685000D02*
X11377064Y-31685000D01*
%TO.C,R100*%
X6622936Y-30215000D02*
X7077064Y-30215000D01*
X6622936Y-31685000D02*
X7077064Y-31685000D01*
%TO.C,D10*%
X24190000Y-21900000D02*
X32700000Y-21900000D01*
X24190000Y-28400000D02*
X24190000Y-21900000D01*
X24190000Y-28400000D02*
X32700000Y-28400000D01*
%TO.C,RG3*%
X35022936Y-15715000D02*
X35477064Y-15715000D01*
X35022936Y-17185000D02*
X35477064Y-17185000D01*
%TO.C,RG1*%
X25622936Y-15715000D02*
X26077064Y-15715000D01*
X25622936Y-17185000D02*
X26077064Y-17185000D01*
%TO.C,C12*%
X48842781Y-31436238D02*
X49642781Y-31436238D01*
X49242781Y-31036238D02*
X49242781Y-31836238D01*
X53252479Y-29671238D02*
X53252479Y-37831238D01*
X53292479Y-29671238D02*
X53292479Y-37831238D01*
X53332479Y-29672238D02*
X53332479Y-37830238D01*
X53372479Y-29673238D02*
X53372479Y-37829238D01*
X53412479Y-29674238D02*
X53412479Y-37828238D01*
X53452479Y-29676238D02*
X53452479Y-37826238D01*
X53492479Y-29678238D02*
X53492479Y-37824238D01*
X53532479Y-29681238D02*
X53532479Y-37821238D01*
X53572479Y-29683238D02*
X53572479Y-37819238D01*
X53612479Y-29687238D02*
X53612479Y-37815238D01*
X53652479Y-29690238D02*
X53652479Y-37812238D01*
X53692479Y-29695238D02*
X53692479Y-37807238D01*
X53732479Y-29699238D02*
X53732479Y-37803238D01*
X53772479Y-29704238D02*
X53772479Y-37798238D01*
X53812479Y-29709238D02*
X53812479Y-37793238D01*
X53852479Y-29715238D02*
X53852479Y-37787238D01*
X53892479Y-29721238D02*
X53892479Y-37781238D01*
X53932479Y-29728238D02*
X53932479Y-37774238D01*
X53972479Y-29734238D02*
X53972479Y-32711238D01*
X53972479Y-34791238D02*
X53972479Y-37768238D01*
X54012479Y-29742238D02*
X54012479Y-32711238D01*
X54012479Y-34791238D02*
X54012479Y-37760238D01*
X54052479Y-29749238D02*
X54052479Y-32711238D01*
X54052479Y-34791238D02*
X54052479Y-37753238D01*
X54092479Y-29758238D02*
X54092479Y-32711238D01*
X54092479Y-34791238D02*
X54092479Y-37744238D01*
X54132479Y-29766238D02*
X54132479Y-32711238D01*
X54132479Y-34791238D02*
X54132479Y-37736238D01*
X54172479Y-29775238D02*
X54172479Y-32711238D01*
X54172479Y-34791238D02*
X54172479Y-37727238D01*
X54212479Y-29784238D02*
X54212479Y-32711238D01*
X54212479Y-34791238D02*
X54212479Y-37718238D01*
X54252479Y-29794238D02*
X54252479Y-32711238D01*
X54252479Y-34791238D02*
X54252479Y-37708238D01*
X54292479Y-29804238D02*
X54292479Y-32711238D01*
X54292479Y-34791238D02*
X54292479Y-37698238D01*
X54332479Y-29815238D02*
X54332479Y-32711238D01*
X54332479Y-34791238D02*
X54332479Y-37687238D01*
X54372479Y-29826238D02*
X54372479Y-32711238D01*
X54372479Y-34791238D02*
X54372479Y-37676238D01*
X54412479Y-29838238D02*
X54412479Y-32711238D01*
X54412479Y-34791238D02*
X54412479Y-37664238D01*
X54452479Y-29850238D02*
X54452479Y-32711238D01*
X54452479Y-34791238D02*
X54452479Y-37652238D01*
X54492479Y-29862238D02*
X54492479Y-32711238D01*
X54492479Y-34791238D02*
X54492479Y-37640238D01*
X54532479Y-29875238D02*
X54532479Y-32711238D01*
X54532479Y-34791238D02*
X54532479Y-37627238D01*
X54572479Y-29888238D02*
X54572479Y-32711238D01*
X54572479Y-34791238D02*
X54572479Y-37614238D01*
X54612479Y-29902238D02*
X54612479Y-32711238D01*
X54612479Y-34791238D02*
X54612479Y-37600238D01*
X54652479Y-29916238D02*
X54652479Y-32711238D01*
X54652479Y-34791238D02*
X54652479Y-37586238D01*
X54692479Y-29931238D02*
X54692479Y-32711238D01*
X54692479Y-34791238D02*
X54692479Y-37571238D01*
X54732479Y-29946238D02*
X54732479Y-32711238D01*
X54732479Y-34791238D02*
X54732479Y-37556238D01*
X54772479Y-29962238D02*
X54772479Y-32711238D01*
X54772479Y-34791238D02*
X54772479Y-37540238D01*
X54812479Y-29978238D02*
X54812479Y-32711238D01*
X54812479Y-34791238D02*
X54812479Y-37524238D01*
X54852479Y-29994238D02*
X54852479Y-32711238D01*
X54852479Y-34791238D02*
X54852479Y-37508238D01*
X54892479Y-30011238D02*
X54892479Y-32711238D01*
X54892479Y-34791238D02*
X54892479Y-37491238D01*
X54932479Y-30029238D02*
X54932479Y-32711238D01*
X54932479Y-34791238D02*
X54932479Y-37473238D01*
X54972479Y-30047238D02*
X54972479Y-32711238D01*
X54972479Y-34791238D02*
X54972479Y-37455238D01*
X55012479Y-30066238D02*
X55012479Y-32711238D01*
X55012479Y-34791238D02*
X55012479Y-37436238D01*
X55052479Y-30085238D02*
X55052479Y-32711238D01*
X55052479Y-34791238D02*
X55052479Y-37417238D01*
X55092479Y-30105238D02*
X55092479Y-32711238D01*
X55092479Y-34791238D02*
X55092479Y-37397238D01*
X55132479Y-30125238D02*
X55132479Y-32711238D01*
X55132479Y-34791238D02*
X55132479Y-37377238D01*
X55172479Y-30146238D02*
X55172479Y-32711238D01*
X55172479Y-34791238D02*
X55172479Y-37356238D01*
X55212479Y-30167238D02*
X55212479Y-32711238D01*
X55212479Y-34791238D02*
X55212479Y-37335238D01*
X55252479Y-30189238D02*
X55252479Y-32711238D01*
X55252479Y-34791238D02*
X55252479Y-37313238D01*
X55292479Y-30212238D02*
X55292479Y-32711238D01*
X55292479Y-34791238D02*
X55292479Y-37290238D01*
X55332479Y-30235238D02*
X55332479Y-32711238D01*
X55332479Y-34791238D02*
X55332479Y-37267238D01*
X55372479Y-30258238D02*
X55372479Y-32711238D01*
X55372479Y-34791238D02*
X55372479Y-37244238D01*
X55412479Y-30283238D02*
X55412479Y-32711238D01*
X55412479Y-34791238D02*
X55412479Y-37219238D01*
X55452479Y-30308238D02*
X55452479Y-32711238D01*
X55452479Y-34791238D02*
X55452479Y-37194238D01*
X55492479Y-30333238D02*
X55492479Y-32711238D01*
X55492479Y-34791238D02*
X55492479Y-37169238D01*
X55532479Y-30359238D02*
X55532479Y-32711238D01*
X55532479Y-34791238D02*
X55532479Y-37143238D01*
X55572479Y-30386238D02*
X55572479Y-32711238D01*
X55572479Y-34791238D02*
X55572479Y-37116238D01*
X55612479Y-30414238D02*
X55612479Y-32711238D01*
X55612479Y-34791238D02*
X55612479Y-37088238D01*
X55652479Y-30442238D02*
X55652479Y-32711238D01*
X55652479Y-34791238D02*
X55652479Y-37060238D01*
X55692479Y-30471238D02*
X55692479Y-32711238D01*
X55692479Y-34791238D02*
X55692479Y-37031238D01*
X55732479Y-30501238D02*
X55732479Y-32711238D01*
X55732479Y-34791238D02*
X55732479Y-37001238D01*
X55772479Y-30532238D02*
X55772479Y-32711238D01*
X55772479Y-34791238D02*
X55772479Y-36970238D01*
X55812479Y-30563238D02*
X55812479Y-32711238D01*
X55812479Y-34791238D02*
X55812479Y-36939238D01*
X55852479Y-30595238D02*
X55852479Y-32711238D01*
X55852479Y-34791238D02*
X55852479Y-36907238D01*
X55892479Y-30628238D02*
X55892479Y-32711238D01*
X55892479Y-34791238D02*
X55892479Y-36874238D01*
X55932479Y-30662238D02*
X55932479Y-32711238D01*
X55932479Y-34791238D02*
X55932479Y-36840238D01*
X55972479Y-30696238D02*
X55972479Y-32711238D01*
X55972479Y-34791238D02*
X55972479Y-36806238D01*
X56012479Y-30732238D02*
X56012479Y-32711238D01*
X56012479Y-34791238D02*
X56012479Y-36770238D01*
X56052479Y-30769238D02*
X56052479Y-36733238D01*
X56092479Y-30806238D02*
X56092479Y-36696238D01*
X56132479Y-30845238D02*
X56132479Y-36657238D01*
X56172479Y-30884238D02*
X56172479Y-36618238D01*
X56212479Y-30925238D02*
X56212479Y-36577238D01*
X56252479Y-30967238D02*
X56252479Y-36535238D01*
X56292479Y-31010238D02*
X56292479Y-36492238D01*
X56332479Y-31055238D02*
X56332479Y-36447238D01*
X56372479Y-31100238D02*
X56372479Y-36402238D01*
X56412479Y-31147238D02*
X56412479Y-36355238D01*
X56452479Y-31196238D02*
X56452479Y-36306238D01*
X56492479Y-31246238D02*
X56492479Y-36256238D01*
X56532479Y-31298238D02*
X56532479Y-36204238D01*
X56572479Y-31351238D02*
X56572479Y-36151238D01*
X56612479Y-31407238D02*
X56612479Y-36095238D01*
X56652479Y-31464238D02*
X56652479Y-36038238D01*
X56692479Y-31524238D02*
X56692479Y-35978238D01*
X56732479Y-31586238D02*
X56732479Y-35916238D01*
X56772479Y-31650238D02*
X56772479Y-35852238D01*
X56812479Y-31717238D02*
X56812479Y-35785238D01*
X56852479Y-31787238D02*
X56852479Y-35715238D01*
X56892479Y-31861238D02*
X56892479Y-35641238D01*
X56932479Y-31938238D02*
X56932479Y-35564238D01*
X56972479Y-32020238D02*
X56972479Y-35482238D01*
X57012479Y-32107238D02*
X57012479Y-35395238D01*
X57052479Y-32199238D02*
X57052479Y-35303238D01*
X57092479Y-32298238D02*
X57092479Y-35204238D01*
X57132479Y-32405238D02*
X57132479Y-35097238D01*
X57172479Y-32523238D02*
X57172479Y-34979238D01*
X57212479Y-32654238D02*
X57212479Y-34848238D01*
X57252479Y-32804238D02*
X57252479Y-34698238D01*
X57292479Y-32983238D02*
X57292479Y-34519238D01*
X57332479Y-33218238D02*
X57332479Y-34284238D01*
X57372479Y-33751238D02*
G75*
G02*
X49132479Y-33751238I-4120000J0D01*
G01*
X49132479Y-33751238D02*
G75*
G02*
X57372479Y-33751238I4120000J0D01*
G01*
%TD*%
M02*
