M48
; DRILL file KiCad 10.0.6 date 2026-09-04T10:42:01
; FORMAT={-:-/ absolute / metric / decimal}
; #@! TF.CreationDate,2026-09-04T10:42:01+02:00
; #@! TF.GenerationSoftware,Kicad,Pcbnew,10.0.6
; #@! TF.FileFunction,MixedPlating,1,2
FMAT,2
METRIC
; #@! TA.AperFunction,Plated,PTH,ViaDrill
T1C0.300
; #@! TA.AperFunction,Plated,PTH,ComponentDrill
T2C0.800
; #@! TA.AperFunction,Plated,PTH,ComponentDrill
T3C1.000
; #@! TA.AperFunction,Plated,PTH,ComponentDrill
T4C1.200
; #@! TA.AperFunction,NonPlated,NPTH,ComponentDrill
T5C3.200
%
G90
G05
T1
X4.277Y-24.266
X5.121Y-18.533
X5.339Y-23.784
X5.75Y-7.5
X5.75Y-45.0
X5.75Y-52.5
X5.85Y-29.6
X7.302Y-4.199
X9.34Y-22.579
X10.15Y-29.65
X11.086Y-22.389
X13.199Y-35.0
X13.25Y-22.5
X13.25Y-45.0
X13.9Y-19.675
X15.756Y-15.347
X15.88Y-23.65
X17.256Y-22.45
X17.5Y-20.975
X17.615Y-16.894
X18.1Y-21.625
X18.226Y-17.939
X18.68Y-24.1
X18.753Y-32.751
X19.166Y-15.244
X19.221Y-13.883
X20.35Y-27.6
X20.75Y-7.5
X20.75Y-45.0
X22.55Y-32.15
X23.21Y-35.849
X23.376Y-17.711
X23.644Y-21.043
X23.9Y-24.95
X24.704Y-30.0
X24.705Y-14.463
X24.706Y-21.398
X25.57Y-22.219
X25.857Y-17.992
X27.379Y-21.374
X27.621Y-35.733
X28.078Y-16.728
X28.25Y-7.5
X28.25Y-45.0
X28.994Y-23.703
X30.411Y-33.778
X30.541Y-21.204
X32.321Y-20.863
X32.969Y-15.557
X35.75Y-7.5
X35.75Y-45.0
X38.705Y-32.56
X39.296Y-21.398
X39.36Y-36.087
X43.25Y-7.5
X43.25Y-45.0
X43.25Y-52.5
X50.75Y-7.5
X50.75Y-52.5
X56.083Y-44.333
X58.25Y-7.5
X58.25Y-22.5
X58.25Y-30.0
X58.25Y-37.5
X58.25Y-52.5
T2
X51.502Y-33.751
X55.002Y-33.751
T3
X8.0Y-10.46
X8.0Y-13.0
X10.54Y-10.46
X10.54Y-13.0
X13.08Y-10.46
X13.08Y-13.0
X15.62Y-10.46
X15.62Y-13.0
X18.16Y-10.46
X18.16Y-13.0
X20.7Y-10.46
X20.7Y-13.0
X23.24Y-10.46
X23.24Y-13.0
X25.78Y-10.46
X25.78Y-13.0
X28.32Y-10.46
X28.32Y-13.0
X30.86Y-10.46
X30.86Y-13.0
X33.4Y-10.46
X33.4Y-13.0
X35.94Y-10.46
X35.94Y-13.0
X38.48Y-10.46
X38.48Y-13.0
X41.02Y-10.46
X41.02Y-13.0
X43.56Y-10.46
X43.56Y-13.0
X46.1Y-10.46
X46.1Y-13.0
X48.64Y-10.46
X48.64Y-13.0
X51.18Y-10.46
X51.18Y-13.0
X53.72Y-10.46
X53.72Y-13.0
X56.26Y-10.46
X56.26Y-13.0
T4
X10.25Y-53.6
X13.75Y-53.6
X18.85Y-53.6
X22.35Y-53.6
X27.45Y-53.6
X30.95Y-53.6
X36.05Y-53.6
X39.55Y-53.6
T5
X4.0Y-4.0
X4.0Y-56.0
X60.0Y-4.0
X60.0Y-56.0
M30
