%TF.GenerationSoftware,KiCad,Pcbnew,10.0.6*%
%TF.CreationDate,2026-09-03T19:15:11+02:00*%
%TF.ProjectId,Motormodul,4d6f746f-726d-46f6-9475-6c2e6b696361,rev?*%
%TF.SameCoordinates,Original*%
%TF.FileFunction,Paste,Top*%
%TF.FilePolarity,Positive*%
%FSLAX46Y46*%
G04 Gerber Fmt 4.6, Leading zero omitted, Abs format (unit mm)*
G04 Created by KiCad (PCBNEW 10.0.6) date 2026-09-03 19:15:11*
%MOMM*%
%LPD*%
G01*
G04 APERTURE LIST*
G04 Aperture macros list*
%AMRoundRect*
0 Rectangle with rounded corners*
0 $1 Rounding radius*
0 $2 $3 $4 $5 $6 $7 $8 $9 X,Y pos of 4 corners*
0 Add a 4 corners polygon primitive as box body*
4,1,4,$2,$3,$4,$5,$6,$7,$8,$9,$2,$3,0*
0 Add four circle primitives for the rounded corners*
1,1,$1+$1,$2,$3*
1,1,$1+$1,$4,$5*
1,1,$1+$1,$6,$7*
1,1,$1+$1,$8,$9*
0 Add four rect primitives between the rounded corners*
20,1,$1+$1,$2,$3,$4,$5,0*
20,1,$1+$1,$4,$5,$6,$7,0*
20,1,$1+$1,$6,$7,$8,$9,0*
20,1,$1+$1,$8,$9,$2,$3,0*%
G04 Aperture macros list end*
%ADD10C,0.010000*%
%ADD11RoundRect,0.250000X-0.350000X-0.450000X0.350000X-0.450000X0.350000X0.450000X-0.350000X0.450000X0*%
%ADD12RoundRect,0.250000X-0.337500X-0.475000X0.337500X-0.475000X0.337500X0.475000X-0.337500X0.475000X0*%
%ADD13RoundRect,0.250000X-0.850000X-0.600000X0.850000X-0.600000X0.850000X0.600000X-0.850000X0.600000X0*%
%ADD14RoundRect,0.100000X-0.637500X-0.100000X0.637500X-0.100000X0.637500X0.100000X-0.637500X0.100000X0*%
%ADD15RoundRect,0.250000X-1.275000X-1.125000X1.275000X-1.125000X1.275000X1.125000X-1.275000X1.125000X0*%
%ADD16RoundRect,0.250000X-0.850000X-0.350000X0.850000X-0.350000X0.850000X0.350000X-0.850000X0.350000X0*%
%ADD17RoundRect,0.087500X-0.425000X-0.087500X0.425000X-0.087500X0.425000X0.087500X-0.425000X0.087500X0*%
%ADD18RoundRect,0.250000X2.000000X-1.400000X2.000000X1.400000X-2.000000X1.400000X-2.000000X-1.400000X0*%
%ADD19R,3.000000X1.000000*%
%ADD20R,1.900000X1.000000*%
%ADD21RoundRect,0.250000X-0.312500X-0.625000X0.312500X-0.625000X0.312500X0.625000X-0.312500X0.625000X0*%
%ADD22RoundRect,0.087500X-0.537500X-0.087500X0.537500X-0.087500X0.537500X0.087500X-0.537500X0.087500X0*%
%ADD23RoundRect,0.250000X0.475000X-0.337500X0.475000X0.337500X-0.475000X0.337500X-0.475000X-0.337500X0*%
%ADD24R,1.500000X2.300000*%
%ADD25RoundRect,0.056250X-0.693750X-0.168750X0.693750X-0.168750X0.693750X0.168750X-0.693750X0.168750X0*%
G04 APERTURE END LIST*
D10*
%TO.C,U1*%
X38670000Y-23595000D02*
X41130000Y-23595000D01*
X41130000Y-25905000D01*
X38670000Y-25905000D01*
X38670000Y-23595000D01*
G36*
X41130000Y-25905000D02*
G01*
X38670000Y-25905000D01*
X38670000Y-23595000D01*
X41130000Y-23595000D01*
X41130000Y-25905000D01*
G37*
%TD*%
D11*
%TO.C,R105*%
X10150000Y-33850000D03*
X12150000Y-33850000D03*
%TD*%
D12*
%TO.C,C15*%
X29242500Y-17480000D03*
X31317500Y-17480000D03*
%TD*%
D13*
%TO.C,U5*%
X17350000Y-41230000D03*
X17350000Y-43770000D03*
X25550000Y-43770000D03*
X25550000Y-41230000D03*
%TD*%
D12*
%TO.C,C11*%
X36842500Y-19880000D03*
X38917500Y-19880000D03*
%TD*%
D14*
%TO.C,U100*%
X15987500Y-17075000D03*
X15987500Y-17725000D03*
X15987500Y-18375000D03*
X15987500Y-19025000D03*
X15987500Y-19675000D03*
X15987500Y-20325000D03*
X15987500Y-20975000D03*
X15987500Y-21625000D03*
X15987500Y-22275000D03*
X15987500Y-22925000D03*
X21712500Y-22925000D03*
X21712500Y-22275000D03*
X21712500Y-21625000D03*
X21712500Y-20975000D03*
X21712500Y-20325000D03*
X21712500Y-19675000D03*
X21712500Y-19025000D03*
X21712500Y-18375000D03*
X21712500Y-17725000D03*
X21712500Y-17075000D03*
%TD*%
D15*
%TO.C,Q1*%
X50775000Y-34575000D03*
X50775000Y-37625000D03*
X54125000Y-34575000D03*
X54125000Y-37625000D03*
D16*
X46150000Y-33820000D03*
X46150000Y-36100000D03*
X46150000Y-38380000D03*
%TD*%
D11*
%TO.C,R15*%
X29250000Y-20150000D03*
X31250000Y-20150000D03*
%TD*%
%TO.C,R104*%
X5850000Y-33850000D03*
X7850000Y-33850000D03*
%TD*%
D17*
%TO.C,U6*%
X32012500Y-36250000D03*
X32012500Y-36900000D03*
X32012500Y-37550000D03*
X33687500Y-37550000D03*
X33687500Y-36250000D03*
%TD*%
D11*
%TO.C,R13*%
X10250000Y-28050000D03*
X12250000Y-28050000D03*
%TD*%
D18*
%TO.C,D1*%
X30000000Y-42250000D03*
X38800000Y-42250000D03*
%TD*%
D12*
%TO.C,C100*%
X5842500Y-28080000D03*
X7917500Y-28080000D03*
%TD*%
D11*
%TO.C,R9*%
X25250000Y-29150000D03*
X27250000Y-29150000D03*
%TD*%
%TO.C,R102*%
X10250000Y-25150000D03*
X12250000Y-25150000D03*
%TD*%
D19*
%TO.C,J103*%
X58440000Y-42000000D03*
X53400000Y-42000000D03*
X58440000Y-44540000D03*
X53400000Y-44540000D03*
%TD*%
D12*
%TO.C,C14*%
X24542500Y-17480000D03*
X26617500Y-17480000D03*
%TD*%
D20*
%TO.C,J101*%
X10850000Y-2750000D03*
X14150000Y-5290000D03*
%TD*%
D21*
%TO.C,R17*%
X11417500Y-36930000D03*
X14342500Y-36930000D03*
%TD*%
%TO.C,R18*%
X17017500Y-36930000D03*
X19942500Y-36930000D03*
%TD*%
D22*
%TO.C,U102*%
X15880000Y-25000000D03*
X15880000Y-25500000D03*
X15880000Y-26000000D03*
X15880000Y-26500000D03*
X18680000Y-26500000D03*
X18680000Y-26000000D03*
X18680000Y-25500000D03*
X18680000Y-25000000D03*
%TD*%
D12*
%TO.C,C16*%
X24542500Y-20180000D03*
X26617500Y-20180000D03*
%TD*%
D23*
%TO.C,C10*%
X46300000Y-23575000D03*
X46300000Y-21500000D03*
%TD*%
D24*
%TO.C,U1*%
X39050000Y-23550000D03*
X39050000Y-25950000D03*
X40750000Y-23550000D03*
X40750000Y-25950000D03*
D25*
X37000000Y-22475000D03*
X37000000Y-23125000D03*
X37000000Y-23775000D03*
X37000000Y-24425000D03*
X37000000Y-25075000D03*
X37000000Y-25725000D03*
X37000000Y-26375000D03*
X37000000Y-27025000D03*
X42800000Y-27025000D03*
X42800000Y-26375000D03*
X42800000Y-25725000D03*
X42800000Y-25075000D03*
X42800000Y-24425000D03*
X42800000Y-23775000D03*
X42800000Y-23125000D03*
X42800000Y-22475000D03*
%TD*%
D13*
%TO.C,U4*%
X5850000Y-41230000D03*
X5850000Y-43770000D03*
X14050000Y-43770000D03*
X14050000Y-41230000D03*
%TD*%
D17*
%TO.C,U3*%
X28112500Y-36250000D03*
X28112500Y-36900000D03*
X28112500Y-37550000D03*
X29787500Y-37550000D03*
X29787500Y-36250000D03*
%TD*%
D23*
%TO.C,C9*%
X49000000Y-25650000D03*
X49000000Y-23575000D03*
%TD*%
D17*
%TO.C,U103*%
X21212500Y-24950000D03*
X21212500Y-25600000D03*
X21212500Y-26250000D03*
X22887500Y-26250000D03*
X22887500Y-24950000D03*
%TD*%
D11*
%TO.C,R10*%
X29950000Y-29150000D03*
X31950000Y-29150000D03*
%TD*%
%TO.C,R21*%
X29950000Y-32150000D03*
X31950000Y-32150000D03*
%TD*%
D21*
%TO.C,R16*%
X5817500Y-36930000D03*
X8742500Y-36930000D03*
%TD*%
D11*
%TO.C,R101*%
X10150000Y-30950000D03*
X12150000Y-30950000D03*
%TD*%
%TO.C,R100*%
X5850000Y-30950000D03*
X7850000Y-30950000D03*
%TD*%
%TO.C,R11*%
X45050000Y-30750000D03*
X47050000Y-30750000D03*
%TD*%
D12*
%TO.C,C13*%
X15842500Y-32180000D03*
X17917500Y-32180000D03*
%TD*%
D11*
%TO.C,R20*%
X25250000Y-32150000D03*
X27250000Y-32150000D03*
%TD*%
%TO.C,R5*%
X20550000Y-32150000D03*
X22550000Y-32150000D03*
%TD*%
D12*
%TO.C,C101*%
X5842500Y-25180000D03*
X7917500Y-25180000D03*
%TD*%
D11*
%TO.C,R12*%
X49450000Y-30750000D03*
X51450000Y-30750000D03*
%TD*%
D17*
%TO.C,U7*%
X35912500Y-36250000D03*
X35912500Y-36900000D03*
X35912500Y-37550000D03*
X37587500Y-37550000D03*
X37587500Y-36250000D03*
%TD*%
D21*
%TO.C,R19*%
X22617500Y-36930000D03*
X25542500Y-36930000D03*
%TD*%
D11*
%TO.C,R8*%
X20550000Y-29150000D03*
X22550000Y-29150000D03*
%TD*%
D17*
%TO.C,U101*%
X5612500Y-21450000D03*
X5612500Y-22100000D03*
X5612500Y-22750000D03*
X7287500Y-22750000D03*
X7287500Y-22100000D03*
X7287500Y-21450000D03*
%TD*%
D11*
%TO.C,R7*%
X15850000Y-29150000D03*
X17850000Y-29150000D03*
%TD*%
M02*
