M48
; DRILL file KiCad 10.0.6 date 2026-09-09T18:25:15
; FORMAT={-:-/ absolute / metric / decimal}
; #@! TF.CreationDate,2026-09-09T18:25:15+02:00
; #@! TF.GenerationSoftware,Kicad,Pcbnew,10.0.6
; #@! TF.FileFunction,MixedPlating,1,2
FMAT,2
METRIC
; #@! TA.AperFunction,Plated,PTH,ViaDrill
T1C0.300
; #@! TA.AperFunction,Plated,PTH,ComponentDrill
T2C0.300
; #@! TA.AperFunction,Plated,PTH,ComponentDrill
T3C0.800
; #@! TA.AperFunction,Plated,PTH,ComponentDrill
T4C1.000
; #@! TA.AperFunction,Plated,PTH,ComponentDrill
T5C1.200
; #@! TA.AperFunction,Plated,PTH,ComponentDrill
T6C1.300
; #@! TA.AperFunction,NonPlated,NPTH,ComponentDrill
T7C3.200
%
G90
G05
T1
X1.0Y-47.805
X1.277Y-42.563
X1.601Y-22.126
X1.601Y-25.09
X2.866Y-43.48
X3.0Y-31.0
X3.2Y-49.5
X3.7Y-48.4
X4.368Y-54.727
X4.612Y-49.2
X4.829Y-19.788
X4.85Y-29.6
X5.9Y-48.4
X7.038Y-50.057
X7.3Y-54.0
X7.5Y-6.25
X7.5Y-13.75
X7.5Y-21.25
X7.5Y-58.75
X7.7Y-47.7
X7.74Y-22.967
X7.859Y-43.718
X8.1Y-28.5
X8.497Y-46.659
X8.571Y-50.595
X8.6Y-47.7
X8.9Y-48.6
X9.15Y-29.65
X9.613Y-49.2
X10.023Y-4.344
X10.14Y-39.063
X10.534Y-35.721
X10.727Y-50.732
X10.864Y-23.546
X11.7Y-23.2
X11.861Y-53.8
X12.551Y-54.625
X12.678Y-27.395
X12.9Y-19.675
X12.924Y-41.934
X13.5Y-39.2
X13.7Y-19.1
X13.755Y-45.941
X14.118Y-30.947
X14.88Y-23.65
X14.944Y-26.675
X15.0Y-6.25
X15.0Y-13.75
X15.0Y-58.75
X15.946Y-24.225
X16.443Y-22.575
X16.489Y-31.208
X16.5Y-20.975
X16.576Y-47.056
X16.594Y-18.19
X16.7Y-19.1
X16.989Y-50.701
X16.993Y-29.8
X17.1Y-21.625
X17.625Y-55.117
X17.68Y-24.1
X17.693Y-46.506
X17.749Y-30.882
X18.566Y-21.346
X18.638Y-22.597
X19.15Y-30.934
X19.24Y-23.252
X19.35Y-27.6
X19.448Y-36.149
X20.841Y-35.925
X21.01Y-34.631
X21.3Y-33.4
X21.5Y-27.2
X22.087Y-20.5
X22.206Y-14.811
X22.39Y-27.012
X22.5Y-13.75
X22.5Y-36.25
X22.5Y-43.75
X22.5Y-58.75
X22.523Y-22.688
X22.9Y-24.95
X23.366Y-26.996
X23.75Y-11.927
X23.773Y-25.987
X24.769Y-19.887
X25.226Y-24.534
X25.314Y-22.454
X25.463Y-12.326
X25.7Y-21.5
X25.765Y-14.964
X26.0Y-18.2
X26.182Y-20.269
X27.157Y-18.629
X27.402Y-28.077
X27.409Y-20.124
X28.014Y-24.164
X28.416Y-22.622
X28.663Y-20.836
X29.466Y-20.96
X30.0Y-58.75
X32.097Y-26.341
X32.208Y-22.579
X33.672Y-15.708
X36.88Y-27.918
X37.5Y-6.25
X37.5Y-13.75
X37.5Y-58.75
X38.18Y-27.5
X38.947Y-54.642
X39.48Y-28.6
X39.6Y-17.3
X40.6Y-26.65
X44.6Y-21.325
X44.811Y-60.936
X45.0Y-6.25
X45.0Y-13.75
X45.0Y-22.625
X45.0Y-28.75
X45.0Y-58.75
X45.75Y-26.65
X46.4Y-27.5
X47.024Y-34.096
X47.185Y-16.172
X47.625Y-54.727
X48.342Y-52.526
X48.831Y-53.478
X50.373Y-60.386
X50.514Y-1.636
X52.5Y-6.25
X52.5Y-36.25
X52.5Y-43.75
X52.5Y-51.25
X52.5Y-58.75
X53.878Y-6.121
X56.497Y-20.741
X60.0Y-6.25
X60.0Y-36.25
X60.0Y-51.25
X60.0Y-58.75
X67.5Y-6.25
X67.5Y-36.25
X67.5Y-51.25
X67.5Y-58.75
T2
X38.0Y-19.85
X38.0Y-21.05
X38.0Y-22.25
X38.0Y-23.45
X39.0Y-19.85
X39.0Y-21.05
X39.0Y-22.25
X39.0Y-23.45
X40.0Y-19.85
X40.0Y-21.05
X40.0Y-22.25
X40.0Y-23.45
T3
X54.042Y-28.751
X57.542Y-28.751
T4
X2.27Y-40.65
X4.81Y-40.65
X7.35Y-40.65
X9.89Y-40.65
X30.61Y-2.27
X30.61Y-4.81
X30.61Y-7.35
X30.61Y-9.89
X30.61Y-12.43
X30.61Y-14.97
X30.61Y-17.51
X30.61Y-20.05
X30.61Y-22.59
X30.61Y-25.13
X30.61Y-27.67
X30.61Y-30.21
X30.61Y-32.75
X30.61Y-35.29
X30.61Y-37.83
X30.61Y-40.37
X30.61Y-42.91
X30.61Y-45.45
X30.61Y-47.99
X30.61Y-50.53
X48.39Y-2.27
X48.39Y-4.81
X48.39Y-7.35
X48.39Y-9.89
X48.39Y-12.43
X48.39Y-14.97
X48.39Y-17.51
X48.39Y-20.05
X48.39Y-22.59
X48.39Y-25.13
X48.39Y-27.67
X48.39Y-30.21
X48.39Y-32.75
X48.39Y-35.29
X48.39Y-37.83
X48.39Y-40.37
X48.39Y-42.91
X48.39Y-45.45
X48.39Y-47.99
X48.39Y-50.53
T5
X53.79Y-11.3
X57.29Y-11.3
X64.1Y-26.75
X66.64Y-26.75
X69.18Y-26.75
T6
X36.46Y-35.76
X41.54Y-35.76
T7
X4.0Y-4.0
X4.0Y-61.0
X71.0Y-4.0
X71.0Y-61.0
M30
