M48
; DRILL file KiCad 10.0.6 date 2026-09-03T19:15:12
; FORMAT={-:-/ absolute / metric / decimal}
; #@! TF.CreationDate,2026-09-03T19:15:12+02:00
; #@! TF.GenerationSoftware,Kicad,Pcbnew,10.0.6
; #@! TF.FileFunction,MixedPlating,1,2
FMAT,2
METRIC
; #@! TA.AperFunction,Plated,PTH,ViaDrill
T1C0.300
; #@! TA.AperFunction,Plated,PTH,ComponentDrill
T2C0.300
; #@! TA.AperFunction,Plated,PTH,ComponentDrill
T3C0.800
; #@! TA.AperFunction,Plated,PTH,ComponentDrill
T4C1.000
; #@! TA.AperFunction,Plated,PTH,ComponentDrill
T5C1.300
; #@! TA.AperFunction,NonPlated,NPTH,ComponentDrill
T6C3.200
%
G90
G05
T1
X4.277Y-24.266
X5.75Y-7.5
X5.75Y-52.5
X5.85Y-29.6
X6.462Y-23.772
X7.0Y-29.5
X7.302Y-4.199
X7.934Y-23.701
X8.159Y-20.57
X8.9Y-41.466
X9.5Y-40.415
X10.13Y-36.748
X10.15Y-29.65
X11.0Y-16.5
X12.277Y-29.5
X12.5Y-26.5
X13.046Y-37.675
X13.25Y-22.5
X13.25Y-52.5
X13.511Y-14.439
X13.595Y-31.675
X13.9Y-19.675
X14.126Y-26.815
X15.202Y-38.154
X15.25Y-27.5
X15.5Y-34.0
X15.603Y-39.206
X15.68Y-36.533
X15.88Y-23.65
X16.75Y-7.5
X16.919Y-24.379
X17.102Y-31.947
X17.267Y-27.565
X17.5Y-20.975
X17.552Y-19.201
X18.0Y-6.5
X18.1Y-21.625
X18.217Y-30.438
X18.68Y-24.1
X18.75Y-20.75
X18.867Y-38.6
X19.25Y-30.75
X19.768Y-18.814
X20.04Y-21.449
X20.109Y-22.831
X20.35Y-27.6
X20.387Y-18.037
X20.467Y-41.466
X20.75Y-7.5
X21.376Y-30.351
X21.5Y-42.5
X22.356Y-38.805
X22.55Y-32.15
X23.07Y-17.475
X23.407Y-27.432
X23.797Y-41.466
X23.9Y-24.95
X24.0Y-34.1
X24.36Y-22.569
X24.702Y-25.043
X25.782Y-24.501
X25.807Y-19.9
X26.0Y-25.5
X26.294Y-21.562
X26.927Y-26.108
X27.0Y-30.6
X27.2Y-40.9
X27.865Y-30.934
X27.937Y-25.831
X28.013Y-34.018
X28.113Y-38.15
X28.25Y-7.5
X28.25Y-22.5
X28.556Y-32.341
X28.689Y-35.179
X28.734Y-24.133
X28.931Y-27.421
X29.05Y-18.828
X30.04Y-26.742
X30.438Y-34.858
X30.575Y-21.638
X30.653Y-27.368
X31.222Y-39.111
X32.25Y-38.75
X32.961Y-20.834
X33.107Y-22.331
X33.453Y-28.56
X34.654Y-38.793
X34.8Y-36.55
X34.8Y-40.0
X35.75Y-7.5
X35.75Y-30.0
X35.84Y-38.822
X39.5Y-19.88
X43.25Y-7.5
X43.25Y-30.0
X43.25Y-37.5
X43.25Y-45.0
X43.25Y-52.5
X46.5Y-25.4
X49.609Y-29.258
X50.75Y-7.5
X50.75Y-22.5
X50.75Y-52.5
X56.083Y-44.333
X58.25Y-7.5
X58.25Y-22.5
X58.25Y-30.0
X58.25Y-37.5
X58.25Y-52.5
T2
X38.9Y-22.95
X38.9Y-24.15
X38.9Y-25.35
X38.9Y-26.55
X39.9Y-22.95
X39.9Y-24.15
X39.9Y-25.35
X39.9Y-26.55
X40.9Y-22.95
X40.9Y-24.15
X40.9Y-25.35
X40.9Y-26.55
T3
X35.502Y-54.251
X39.002Y-54.251
T4
X8.0Y-10.46
X8.0Y-13.0
X9.37Y-57.17
X10.54Y-10.46
X10.54Y-13.0
X11.91Y-57.17
X13.08Y-10.46
X13.08Y-13.0
X14.45Y-57.17
X15.62Y-10.46
X15.62Y-13.0
X16.99Y-57.17
X18.16Y-10.46
X18.16Y-13.0
X20.7Y-10.46
X20.7Y-13.0
X23.24Y-10.46
X23.24Y-13.0
X25.78Y-10.46
X25.78Y-13.0
X28.32Y-10.46
X28.32Y-13.0
X30.86Y-10.46
X30.86Y-13.0
X33.4Y-10.46
X33.4Y-13.0
X35.94Y-10.46
X35.94Y-13.0
X38.48Y-10.46
X38.48Y-13.0
X41.02Y-10.46
X41.02Y-13.0
X43.56Y-10.46
X43.56Y-13.0
X46.1Y-10.46
X46.1Y-13.0
X48.64Y-10.46
X48.64Y-13.0
X51.18Y-10.46
X51.18Y-13.0
X53.72Y-10.46
X53.72Y-13.0
X56.26Y-10.46
X56.26Y-13.0
T5
X23.04Y-53.6
X28.12Y-53.6
T6
X4.0Y-4.0
X4.0Y-56.0
X60.0Y-4.0
X60.0Y-56.0
M30
