%TF.GenerationSoftware,KiCad,Pcbnew,10.0.6*%
%TF.CreationDate,2026-09-09T18:25:14+02:00*%
%TF.ProjectId,Motormodul,4d6f746f-726d-46f6-9475-6c2e6b696361,rev?*%
%TF.SameCoordinates,Original*%
%TF.FileFunction,Paste,Top*%
%TF.FilePolarity,Positive*%
%FSLAX46Y46*%
G04 Gerber Fmt 4.6, Leading zero omitted, Abs format (unit mm)*
G04 Created by KiCad (PCBNEW 10.0.6) date 2026-09-09 18:25:14*
%MOMM*%
%LPD*%
G01*
G04 APERTURE LIST*
G04 Aperture macros list*
%AMRoundRect*
0 Rectangle with rounded corners*
0 $1 Rounding radius*
0 $2 $3 $4 $5 $6 $7 $8 $9 X,Y pos of 4 corners*
0 Add a 4 corners polygon primitive as box body*
4,1,4,$2,$3,$4,$5,$6,$7,$8,$9,$2,$3,0*
0 Add four circle primitives for the rounded corners*
1,1,$1+$1,$2,$3*
1,1,$1+$1,$4,$5*
1,1,$1+$1,$6,$7*
1,1,$1+$1,$8,$9*
0 Add four rect primitives between the rounded corners*
20,1,$1+$1,$2,$3,$4,$5,0*
20,1,$1+$1,$4,$5,$6,$7,0*
20,1,$1+$1,$6,$7,$8,$9,0*
20,1,$1+$1,$8,$9,$2,$3,0*%
G04 Aperture macros list end*
%ADD10C,0.010000*%
%ADD11RoundRect,0.250000X0.475000X-0.337500X0.475000X0.337500X-0.475000X0.337500X-0.475000X-0.337500X0*%
%ADD12RoundRect,0.087500X-0.425000X-0.087500X0.425000X-0.087500X0.425000X0.087500X-0.425000X0.087500X0*%
%ADD13RoundRect,0.250000X-0.350000X-0.450000X0.350000X-0.450000X0.350000X0.450000X-0.350000X0.450000X0*%
%ADD14RoundRect,0.250000X1.000000X-1.400000X1.000000X1.400000X-1.000000X1.400000X-1.000000X-1.400000X0*%
%ADD15R,3.000000X1.000000*%
%ADD16RoundRect,0.250000X-0.337500X-0.475000X0.337500X-0.475000X0.337500X0.475000X-0.337500X0.475000X0*%
%ADD17RoundRect,0.250000X-0.312500X-0.625000X0.312500X-0.625000X0.312500X0.625000X-0.312500X0.625000X0*%
%ADD18RoundRect,0.250000X-1.275000X-1.125000X1.275000X-1.125000X1.275000X1.125000X-1.275000X1.125000X0*%
%ADD19RoundRect,0.250000X-0.850000X-0.350000X0.850000X-0.350000X0.850000X0.350000X-0.850000X0.350000X0*%
%ADD20RoundRect,0.250000X-0.850000X-0.600000X0.850000X-0.600000X0.850000X0.600000X-0.850000X0.600000X0*%
%ADD21RoundRect,0.087500X-0.537500X-0.087500X0.537500X-0.087500X0.537500X0.087500X-0.537500X0.087500X0*%
%ADD22RoundRect,0.100000X-0.637500X-0.100000X0.637500X-0.100000X0.637500X0.100000X-0.637500X0.100000X0*%
%ADD23R,1.500000X2.300000*%
%ADD24RoundRect,0.056250X-0.693750X-0.168750X0.693750X-0.168750X0.693750X0.168750X-0.693750X0.168750X0*%
%ADD25R,1.900000X1.000000*%
G04 APERTURE END LIST*
D10*
%TO.C,U1*%
X37770000Y-20495000D02*
X40230000Y-20495000D01*
X40230000Y-22805000D01*
X37770000Y-22805000D01*
X37770000Y-20495000D01*
G36*
X40230000Y-22805000D02*
G01*
X37770000Y-22805000D01*
X37770000Y-20495000D01*
X40230000Y-20495000D01*
X40230000Y-22805000D01*
G37*
%TD*%
D11*
%TO.C,C9*%
X39480000Y-27917500D03*
X39480000Y-25842500D03*
%TD*%
D12*
%TO.C,U6*%
X4612500Y-46330000D03*
X4612500Y-46980000D03*
X4612500Y-47630000D03*
X6287500Y-47630000D03*
X6287500Y-46330000D03*
%TD*%
%TO.C,U103*%
X20212500Y-24950000D03*
X20212500Y-25600000D03*
X20212500Y-26250000D03*
X21887500Y-26250000D03*
X21887500Y-24950000D03*
%TD*%
D13*
%TO.C,R102*%
X9250000Y-25150000D03*
X11250000Y-25150000D03*
%TD*%
D14*
%TO.C,D91*%
X63500000Y-20550000D03*
X70300000Y-20550000D03*
%TD*%
D15*
%TO.C,J103*%
X66240000Y-45500000D03*
X61200000Y-45500000D03*
X66240000Y-48040000D03*
X61200000Y-48040000D03*
%TD*%
D16*
%TO.C,C13*%
X13642500Y-32180000D03*
X15717500Y-32180000D03*
%TD*%
D11*
%TO.C,C16*%
X23880000Y-23017500D03*
X23880000Y-20942500D03*
%TD*%
D16*
%TO.C,C19*%
X14042500Y-37300000D03*
X16117500Y-37300000D03*
%TD*%
%TO.C,C11*%
X35942500Y-16780000D03*
X38017500Y-16780000D03*
%TD*%
D17*
%TO.C,R18*%
X11637500Y-44150000D03*
X14562500Y-44150000D03*
%TD*%
%TO.C,R17*%
X6477500Y-44150000D03*
X9402500Y-44150000D03*
%TD*%
D13*
%TO.C,R20*%
X22450000Y-32150000D03*
X24450000Y-32150000D03*
%TD*%
D16*
%TO.C,C100*%
X4842500Y-28080000D03*
X6917500Y-28080000D03*
%TD*%
D12*
%TO.C,U7*%
X9612500Y-46330000D03*
X9612500Y-46980000D03*
X9612500Y-47630000D03*
X11287500Y-47630000D03*
X11287500Y-46330000D03*
%TD*%
D13*
%TO.C,R105*%
X9150000Y-33850000D03*
X11150000Y-33850000D03*
%TD*%
D17*
%TO.C,R19*%
X16797500Y-44150000D03*
X19722500Y-44150000D03*
%TD*%
D13*
%TO.C,R101*%
X9150000Y-30950000D03*
X11150000Y-30950000D03*
%TD*%
D18*
%TO.C,Q90*%
X66115000Y-9675000D03*
X66115000Y-12725000D03*
X69465000Y-9675000D03*
X69465000Y-12725000D03*
D19*
X61490000Y-8920000D03*
X61490000Y-11200000D03*
X61490000Y-13480000D03*
%TD*%
D20*
%TO.C,U5*%
X13350000Y-52530000D03*
X13350000Y-55070000D03*
X21550000Y-55070000D03*
X21550000Y-52530000D03*
%TD*%
D13*
%TO.C,R13*%
X9250000Y-28050000D03*
X11250000Y-28050000D03*
%TD*%
%TO.C,R9*%
X22450000Y-29150000D03*
X24450000Y-29150000D03*
%TD*%
D20*
%TO.C,U4*%
X1850000Y-52530000D03*
X1850000Y-55070000D03*
X10050000Y-55070000D03*
X10050000Y-52530000D03*
%TD*%
D16*
%TO.C,C91*%
X52382500Y-34580000D03*
X54457500Y-34580000D03*
%TD*%
D21*
%TO.C,U102*%
X14880000Y-25000000D03*
X14880000Y-25500000D03*
X14880000Y-26000000D03*
X14880000Y-26500000D03*
X17680000Y-26500000D03*
X17680000Y-26000000D03*
X17680000Y-25500000D03*
X17680000Y-25000000D03*
%TD*%
D14*
%TO.C,D90*%
X53040000Y-20550000D03*
X59840000Y-20550000D03*
%TD*%
D13*
%TO.C,R100*%
X4850000Y-30950000D03*
X6850000Y-30950000D03*
%TD*%
D12*
%TO.C,U101*%
X4612500Y-21450000D03*
X4612500Y-22100000D03*
X4612500Y-22750000D03*
X6287500Y-22750000D03*
X6287500Y-22100000D03*
X6287500Y-21450000D03*
%TD*%
D16*
%TO.C,C101*%
X4842500Y-25180000D03*
X6917500Y-25180000D03*
%TD*%
D13*
%TO.C,R21*%
X18650000Y-37270000D03*
X20650000Y-37270000D03*
%TD*%
%TO.C,R10*%
X22160000Y-34710000D03*
X24160000Y-34710000D03*
%TD*%
D11*
%TO.C,C14*%
X23880000Y-18617500D03*
X23880000Y-16542500D03*
%TD*%
D16*
%TO.C,C15*%
X13492500Y-34740000D03*
X15567500Y-34740000D03*
%TD*%
D13*
%TO.C,R7*%
X13850000Y-29150000D03*
X15850000Y-29150000D03*
%TD*%
D16*
%TO.C,C17*%
X4842500Y-37300000D03*
X6917500Y-37300000D03*
%TD*%
%TO.C,C18*%
X9442500Y-37300000D03*
X11517500Y-37300000D03*
%TD*%
D13*
%TO.C,R91*%
X56690000Y-1450000D03*
X58690000Y-1450000D03*
%TD*%
%TO.C,R5*%
X18150000Y-32150000D03*
X20150000Y-32150000D03*
%TD*%
D22*
%TO.C,U100*%
X14987500Y-17075000D03*
X14987500Y-17725000D03*
X14987500Y-18375000D03*
X14987500Y-19025000D03*
X14987500Y-19675000D03*
X14987500Y-20325000D03*
X14987500Y-20975000D03*
X14987500Y-21625000D03*
X14987500Y-22275000D03*
X14987500Y-22925000D03*
X20712500Y-22925000D03*
X20712500Y-22275000D03*
X20712500Y-21625000D03*
X20712500Y-20975000D03*
X20712500Y-20325000D03*
X20712500Y-19675000D03*
X20712500Y-19025000D03*
X20712500Y-18375000D03*
X20712500Y-17725000D03*
X20712500Y-17075000D03*
%TD*%
D13*
%TO.C,R8*%
X18150000Y-29150000D03*
X20150000Y-29150000D03*
%TD*%
D11*
%TO.C,C10*%
X36880000Y-27917500D03*
X36880000Y-25842500D03*
%TD*%
D13*
%TO.C,R15*%
X17860000Y-34710000D03*
X19860000Y-34710000D03*
%TD*%
%TO.C,R90*%
X52390000Y-1450000D03*
X54390000Y-1450000D03*
%TD*%
D17*
%TO.C,R16*%
X1317500Y-44150000D03*
X4242500Y-44150000D03*
%TD*%
D12*
%TO.C,U3*%
X1112500Y-46330000D03*
X1112500Y-46980000D03*
X1112500Y-47630000D03*
X2787500Y-47630000D03*
X2787500Y-46330000D03*
%TD*%
D23*
%TO.C,U1*%
X38150000Y-20450000D03*
X38150000Y-22850000D03*
X39850000Y-20450000D03*
X39850000Y-22850000D03*
D24*
X36100000Y-19375000D03*
X36100000Y-20025000D03*
X36100000Y-20675000D03*
X36100000Y-21325000D03*
X36100000Y-21975000D03*
X36100000Y-22625000D03*
X36100000Y-23275000D03*
X36100000Y-23925000D03*
X41900000Y-23925000D03*
X41900000Y-23275000D03*
X41900000Y-22625000D03*
X41900000Y-21975000D03*
X41900000Y-21325000D03*
X41900000Y-20675000D03*
X41900000Y-20025000D03*
X41900000Y-19375000D03*
%TD*%
D13*
%TO.C,R104*%
X4850000Y-33850000D03*
X6850000Y-33850000D03*
%TD*%
D25*
%TO.C,J101*%
X18940000Y-2750000D03*
X22240000Y-5290000D03*
%TD*%
M02*
