%TF.GenerationSoftware,KiCad,Pcbnew,10.0.6*%
%TF.CreationDate,2026-09-03T19:15:11+02:00*%
%TF.ProjectId,Motormodul,4d6f746f-726d-46f6-9475-6c2e6b696361,rev?*%
%TF.SameCoordinates,Original*%
%TF.FileFunction,Other,User*%
%FSLAX46Y46*%
G04 Gerber Fmt 4.6, Leading zero omitted, Abs format (unit mm)*
G04 Created by KiCad (PCBNEW 10.0.6) date 2026-09-03 19:15:11*
%MOMM*%
%LPD*%
G01*
G04 APERTURE LIST*
%ADD10C,0.050000*%
G04 APERTURE END LIST*
%TO.C,R105*%
D10*
X9300000Y-32900000D02*
X13000000Y-32900000D01*
X13000000Y-34800000D01*
X9300000Y-34800000D01*
X9300000Y-32900000D01*
%TO.C,C15*%
X28400000Y-16500000D02*
X32160000Y-16500000D01*
X32160000Y-18460000D01*
X28400000Y-18460000D01*
X28400000Y-16500000D01*
%TO.C,U5*%
X16000000Y-38900000D02*
X26900000Y-38900000D01*
X26900000Y-46100000D01*
X16000000Y-46100000D01*
X16000000Y-38900000D01*
%TO.C,C11*%
X36000000Y-18900000D02*
X39760000Y-18900000D01*
X39760000Y-20860000D01*
X36000000Y-20860000D01*
X36000000Y-18900000D01*
%TO.C,U100*%
X15000000Y-16620000D02*
X16400000Y-16620000D01*
X15000000Y-23380000D02*
X15000000Y-16620000D01*
X16400000Y-16500000D02*
X21300000Y-16500000D01*
X16400000Y-16620000D02*
X16400000Y-16500000D01*
X16400000Y-23380000D02*
X15000000Y-23380000D01*
X16400000Y-23500000D02*
X16400000Y-23380000D01*
X21300000Y-16500000D02*
X21300000Y-16620000D01*
X21300000Y-16620000D02*
X22700000Y-16620000D01*
X21300000Y-23380000D02*
X21300000Y-23500000D01*
X21300000Y-23500000D02*
X16400000Y-23500000D01*
X22700000Y-16620000D02*
X22700000Y-23380000D01*
X22700000Y-23380000D02*
X21300000Y-23380000D01*
%TO.C,Q1*%
X44800000Y-32600000D02*
X55900000Y-32600000D01*
X55900000Y-39600000D01*
X44800000Y-39600000D01*
X44800000Y-32600000D01*
%TO.C,R15*%
X28400000Y-19200000D02*
X32100000Y-19200000D01*
X32100000Y-21100000D01*
X28400000Y-21100000D01*
X28400000Y-19200000D01*
%TO.C,C12*%
X41502479Y-54251238D02*
G75*
G02*
X33002479Y-54251238I-4250000J0D01*
G01*
X33002479Y-54251238D02*
G75*
G02*
X41502479Y-54251238I4250000J0D01*
G01*
%TO.C,R104*%
X5000000Y-32900000D02*
X8700000Y-32900000D01*
X8700000Y-34800000D01*
X5000000Y-34800000D01*
X5000000Y-32900000D01*
%TO.C,U6*%
X31400000Y-35970000D02*
X32120000Y-35970000D01*
X31400000Y-37830000D02*
X31400000Y-35970000D01*
X32120000Y-35800000D02*
X33580000Y-35800000D01*
X32120000Y-35970000D02*
X32120000Y-35800000D01*
X32120000Y-37830000D02*
X31400000Y-37830000D01*
X32120000Y-38000000D02*
X32120000Y-37830000D01*
X33580000Y-35800000D02*
X33580000Y-35970000D01*
X33580000Y-35970000D02*
X34300000Y-35970000D01*
X33580000Y-36530000D02*
X33580000Y-37270000D01*
X33580000Y-37270000D02*
X34300000Y-37270000D01*
X33580000Y-37830000D02*
X33580000Y-38000000D01*
X33580000Y-38000000D02*
X32120000Y-38000000D01*
X34300000Y-35970000D02*
X34300000Y-36530000D01*
X34300000Y-36530000D02*
X33580000Y-36530000D01*
X34300000Y-37270000D02*
X34300000Y-37830000D01*
X34300000Y-37830000D02*
X33580000Y-37830000D01*
%TO.C,R13*%
X9400000Y-27100000D02*
X13100000Y-27100000D01*
X13100000Y-29000000D01*
X9400000Y-29000000D01*
X9400000Y-27100000D01*
%TO.C,D1*%
X27500000Y-38900000D02*
X41300000Y-38900000D01*
X27500000Y-45600000D02*
X27500000Y-38900000D01*
X41300000Y-38900000D02*
X41300000Y-45600000D01*
X41300000Y-45600000D02*
X27500000Y-45600000D01*
%TO.C,C100*%
X5000000Y-27100000D02*
X8760000Y-27100000D01*
X8760000Y-29060000D01*
X5000000Y-29060000D01*
X5000000Y-27100000D01*
%TO.C,R9*%
X24400000Y-28200000D02*
X28100000Y-28200000D01*
X28100000Y-30100000D01*
X24400000Y-30100000D01*
X24400000Y-28200000D01*
%TO.C,R102*%
X9400000Y-24200000D02*
X13100000Y-24200000D01*
X13100000Y-26100000D01*
X9400000Y-26100000D01*
X9400000Y-24200000D01*
%TO.C,J103*%
X51420000Y-40220000D02*
X60470000Y-40220000D01*
X51420000Y-46320000D02*
X51420000Y-40220000D01*
X60470000Y-40220000D02*
X60470000Y-46320000D01*
X60470000Y-46320000D02*
X51420000Y-46320000D01*
%TO.C,C14*%
X23700000Y-16500000D02*
X27460000Y-16500000D01*
X27460000Y-18460000D01*
X23700000Y-18460000D01*
X23700000Y-16500000D01*
%TO.C,J101*%
X9400000Y-870000D02*
X15600000Y-870000D01*
X9400000Y-7170000D02*
X9400000Y-870000D01*
X15600000Y-870000D02*
X15600000Y-7170000D01*
X15600000Y-7170000D02*
X9400000Y-7170000D01*
%TO.C,R17*%
X10600000Y-35800000D02*
X15160000Y-35800000D01*
X15160000Y-38060000D01*
X10600000Y-38060000D01*
X10600000Y-35800000D01*
%TO.C,R18*%
X16200000Y-35800000D02*
X20760000Y-35800000D01*
X20760000Y-38060000D01*
X16200000Y-38060000D01*
X16200000Y-35800000D01*
%TO.C,U102*%
X15000000Y-24570000D02*
X15880000Y-24570000D01*
X15000000Y-26930000D02*
X15000000Y-24570000D01*
X15880000Y-24500000D02*
X18680000Y-24500000D01*
X15880000Y-24570000D02*
X15880000Y-24500000D01*
X15880000Y-26930000D02*
X15000000Y-26930000D01*
X15880000Y-27000000D02*
X15880000Y-26930000D01*
X18680000Y-24500000D02*
X18680000Y-24570000D01*
X18680000Y-24570000D02*
X19560000Y-24570000D01*
X18680000Y-26930000D02*
X18680000Y-27000000D01*
X18680000Y-27000000D02*
X15880000Y-27000000D01*
X19560000Y-24570000D02*
X19560000Y-26930000D01*
X19560000Y-26930000D02*
X18680000Y-26930000D01*
%TO.C,J5*%
X20000000Y-47200000D02*
X31170000Y-47200000D01*
X31170000Y-59400000D01*
X20000000Y-59400000D01*
X20000000Y-47200000D01*
%TO.C,C16*%
X23700000Y-19200000D02*
X27460000Y-19200000D01*
X27460000Y-21160000D01*
X23700000Y-21160000D01*
X23700000Y-19200000D01*
%TO.C,C10*%
X45320000Y-20657500D02*
X47280000Y-20657500D01*
X47280000Y-24417500D01*
X45320000Y-24417500D01*
X45320000Y-20657500D01*
%TO.C,U1*%
X36000000Y-22000000D02*
X36000000Y-27500000D01*
X36000000Y-22000000D02*
X43800000Y-22000000D01*
X36000000Y-27500000D02*
X43800000Y-27500000D01*
X43800000Y-22000000D02*
X43800000Y-27500000D01*
%TO.C,U4*%
X4500000Y-38900000D02*
X15400000Y-38900000D01*
X15400000Y-46100000D01*
X4500000Y-46100000D01*
X4500000Y-38900000D01*
%TO.C,U3*%
X27500000Y-35970000D02*
X28220000Y-35970000D01*
X27500000Y-37830000D02*
X27500000Y-35970000D01*
X28220000Y-35800000D02*
X29680000Y-35800000D01*
X28220000Y-35970000D02*
X28220000Y-35800000D01*
X28220000Y-37830000D02*
X27500000Y-37830000D01*
X28220000Y-38000000D02*
X28220000Y-37830000D01*
X29680000Y-35800000D02*
X29680000Y-35970000D01*
X29680000Y-35970000D02*
X30400000Y-35970000D01*
X29680000Y-36530000D02*
X29680000Y-37270000D01*
X29680000Y-37270000D02*
X30400000Y-37270000D01*
X29680000Y-37830000D02*
X29680000Y-38000000D01*
X29680000Y-38000000D02*
X28220000Y-38000000D01*
X30400000Y-35970000D02*
X30400000Y-36530000D01*
X30400000Y-36530000D02*
X29680000Y-36530000D01*
X30400000Y-37270000D02*
X30400000Y-37830000D01*
X30400000Y-37830000D02*
X29680000Y-37830000D01*
%TO.C,C9*%
X48020000Y-22732500D02*
X49980000Y-22732500D01*
X49980000Y-26492500D01*
X48020000Y-26492500D01*
X48020000Y-22732500D01*
%TO.C,U103*%
X20600000Y-24670000D02*
X21320000Y-24670000D01*
X20600000Y-26530000D02*
X20600000Y-24670000D01*
X21320000Y-24500000D02*
X22780000Y-24500000D01*
X21320000Y-24670000D02*
X21320000Y-24500000D01*
X21320000Y-26530000D02*
X20600000Y-26530000D01*
X21320000Y-26700000D02*
X21320000Y-26530000D01*
X22780000Y-24500000D02*
X22780000Y-24670000D01*
X22780000Y-24670000D02*
X23500000Y-24670000D01*
X22780000Y-25230000D02*
X22780000Y-25970000D01*
X22780000Y-25970000D02*
X23500000Y-25970000D01*
X22780000Y-26530000D02*
X22780000Y-26700000D01*
X22780000Y-26700000D02*
X21320000Y-26700000D01*
X23500000Y-24670000D02*
X23500000Y-25230000D01*
X23500000Y-25230000D02*
X22780000Y-25230000D01*
X23500000Y-25970000D02*
X23500000Y-26530000D01*
X23500000Y-26530000D02*
X22780000Y-26530000D01*
%TO.C,J100*%
X6220000Y-8680000D02*
X58030000Y-8680000D01*
X58030000Y-14770000D01*
X6220000Y-14770000D01*
X6220000Y-8680000D01*
%TO.C,R10*%
X29100000Y-28200000D02*
X32800000Y-28200000D01*
X32800000Y-30100000D01*
X29100000Y-30100000D01*
X29100000Y-28200000D01*
%TO.C,R21*%
X29100000Y-31200000D02*
X32800000Y-31200000D01*
X32800000Y-33100000D01*
X29100000Y-33100000D01*
X29100000Y-31200000D01*
%TO.C,R16*%
X5000000Y-35800000D02*
X9560000Y-35800000D01*
X9560000Y-38060000D01*
X5000000Y-38060000D01*
X5000000Y-35800000D01*
%TO.C,R101*%
X9300000Y-30000000D02*
X13000000Y-30000000D01*
X13000000Y-31900000D01*
X9300000Y-31900000D01*
X9300000Y-30000000D01*
%TO.C,R100*%
X5000000Y-30000000D02*
X8700000Y-30000000D01*
X8700000Y-31900000D01*
X5000000Y-31900000D01*
X5000000Y-30000000D01*
%TO.C,R11*%
X44200000Y-29800000D02*
X47900000Y-29800000D01*
X47900000Y-31700000D01*
X44200000Y-31700000D01*
X44200000Y-29800000D01*
%TO.C,J3*%
X7600000Y-55400000D02*
X18760000Y-55400000D01*
X18760000Y-58940000D01*
X7600000Y-58940000D01*
X7600000Y-55400000D01*
%TO.C,C13*%
X15000000Y-31200000D02*
X18760000Y-31200000D01*
X18760000Y-33160000D01*
X15000000Y-33160000D01*
X15000000Y-31200000D01*
%TO.C,R20*%
X24400000Y-31200000D02*
X28100000Y-31200000D01*
X28100000Y-33100000D01*
X24400000Y-33100000D01*
X24400000Y-31200000D01*
%TO.C,R5*%
X19700000Y-31200000D02*
X23400000Y-31200000D01*
X23400000Y-33100000D01*
X19700000Y-33100000D01*
X19700000Y-31200000D01*
%TO.C,C101*%
X5000000Y-24200000D02*
X8760000Y-24200000D01*
X8760000Y-26160000D01*
X5000000Y-26160000D01*
X5000000Y-24200000D01*
%TO.C,R12*%
X48600000Y-29800000D02*
X52300000Y-29800000D01*
X52300000Y-31700000D01*
X48600000Y-31700000D01*
X48600000Y-29800000D01*
%TO.C,U7*%
X35300000Y-35970000D02*
X36020000Y-35970000D01*
X35300000Y-37830000D02*
X35300000Y-35970000D01*
X36020000Y-35800000D02*
X37480000Y-35800000D01*
X36020000Y-35970000D02*
X36020000Y-35800000D01*
X36020000Y-37830000D02*
X35300000Y-37830000D01*
X36020000Y-38000000D02*
X36020000Y-37830000D01*
X37480000Y-35800000D02*
X37480000Y-35970000D01*
X37480000Y-35970000D02*
X38200000Y-35970000D01*
X37480000Y-36530000D02*
X37480000Y-37270000D01*
X37480000Y-37270000D02*
X38200000Y-37270000D01*
X37480000Y-37830000D02*
X37480000Y-38000000D01*
X37480000Y-38000000D02*
X36020000Y-38000000D01*
X38200000Y-35970000D02*
X38200000Y-36530000D01*
X38200000Y-36530000D02*
X37480000Y-36530000D01*
X38200000Y-37270000D02*
X38200000Y-37830000D01*
X38200000Y-37830000D02*
X37480000Y-37830000D01*
%TO.C,R19*%
X21800000Y-35800000D02*
X26360000Y-35800000D01*
X26360000Y-38060000D01*
X21800000Y-38060000D01*
X21800000Y-35800000D01*
%TO.C,R8*%
X19700000Y-28200000D02*
X23400000Y-28200000D01*
X23400000Y-30100000D01*
X19700000Y-30100000D01*
X19700000Y-28200000D01*
%TO.C,U101*%
X5000000Y-21170000D02*
X5720000Y-21170000D01*
X5000000Y-23030000D02*
X5000000Y-21170000D01*
X5720000Y-21000000D02*
X7180000Y-21000000D01*
X5720000Y-21170000D02*
X5720000Y-21000000D01*
X5720000Y-23030000D02*
X5000000Y-23030000D01*
X5720000Y-23200000D02*
X5720000Y-23030000D01*
X7180000Y-21000000D02*
X7180000Y-21170000D01*
X7180000Y-21170000D02*
X7900000Y-21170000D01*
X7180000Y-23030000D02*
X7180000Y-23200000D01*
X7180000Y-23200000D02*
X5720000Y-23200000D01*
X7900000Y-21170000D02*
X7900000Y-23030000D01*
X7900000Y-23030000D02*
X7180000Y-23030000D01*
%TO.C,R7*%
X15000000Y-28200000D02*
X18700000Y-28200000D01*
X18700000Y-30100000D01*
X15000000Y-30100000D01*
X15000000Y-28200000D01*
%TD*%
M02*
