%TF.GenerationSoftware,KiCad,Pcbnew,10.0.6*%
%TF.CreationDate,2026-09-03T19:15:11+02:00*%
%TF.ProjectId,Motormodul,4d6f746f-726d-46f6-9475-6c2e6b696361,rev?*%
%TF.SameCoordinates,Original*%
%TF.FileFunction,AssemblyDrawing,Top*%
%FSLAX46Y46*%
G04 Gerber Fmt 4.6, Leading zero omitted, Abs format (unit mm)*
G04 Created by KiCad (PCBNEW 10.0.6) date 2026-09-03 19:15:11*
%MOMM*%
%LPD*%
G01*
G04 APERTURE LIST*
%ADD10C,0.120000*%
%ADD11C,0.080000*%
%ADD12C,0.150000*%
%ADD13C,0.090000*%
%ADD14C,0.100000*%
%ADD15C,0.127000*%
%ADD16C,0.200000*%
G04 APERTURE END LIST*
D10*
X10254762Y-32563855D02*
X9988095Y-32182902D01*
X9797619Y-32563855D02*
X9797619Y-31763855D01*
X9797619Y-31763855D02*
X10102381Y-31763855D01*
X10102381Y-31763855D02*
X10178571Y-31801950D01*
X10178571Y-31801950D02*
X10216666Y-31840045D01*
X10216666Y-31840045D02*
X10254762Y-31916236D01*
X10254762Y-31916236D02*
X10254762Y-32030521D01*
X10254762Y-32030521D02*
X10216666Y-32106712D01*
X10216666Y-32106712D02*
X10178571Y-32144807D01*
X10178571Y-32144807D02*
X10102381Y-32182902D01*
X10102381Y-32182902D02*
X9797619Y-32182902D01*
X11016666Y-32563855D02*
X10559523Y-32563855D01*
X10788095Y-32563855D02*
X10788095Y-31763855D01*
X10788095Y-31763855D02*
X10711904Y-31878140D01*
X10711904Y-31878140D02*
X10635714Y-31954331D01*
X10635714Y-31954331D02*
X10559523Y-31992426D01*
X11511905Y-31763855D02*
X11588095Y-31763855D01*
X11588095Y-31763855D02*
X11664286Y-31801950D01*
X11664286Y-31801950D02*
X11702381Y-31840045D01*
X11702381Y-31840045D02*
X11740476Y-31916236D01*
X11740476Y-31916236D02*
X11778571Y-32068617D01*
X11778571Y-32068617D02*
X11778571Y-32259093D01*
X11778571Y-32259093D02*
X11740476Y-32411474D01*
X11740476Y-32411474D02*
X11702381Y-32487664D01*
X11702381Y-32487664D02*
X11664286Y-32525760D01*
X11664286Y-32525760D02*
X11588095Y-32563855D01*
X11588095Y-32563855D02*
X11511905Y-32563855D01*
X11511905Y-32563855D02*
X11435714Y-32525760D01*
X11435714Y-32525760D02*
X11397619Y-32487664D01*
X11397619Y-32487664D02*
X11359524Y-32411474D01*
X11359524Y-32411474D02*
X11321428Y-32259093D01*
X11321428Y-32259093D02*
X11321428Y-32068617D01*
X11321428Y-32068617D02*
X11359524Y-31916236D01*
X11359524Y-31916236D02*
X11397619Y-31840045D01*
X11397619Y-31840045D02*
X11435714Y-31801950D01*
X11435714Y-31801950D02*
X11511905Y-31763855D01*
X12502381Y-31763855D02*
X12121429Y-31763855D01*
X12121429Y-31763855D02*
X12083333Y-32144807D01*
X12083333Y-32144807D02*
X12121429Y-32106712D01*
X12121429Y-32106712D02*
X12197619Y-32068617D01*
X12197619Y-32068617D02*
X12388095Y-32068617D01*
X12388095Y-32068617D02*
X12464286Y-32106712D01*
X12464286Y-32106712D02*
X12502381Y-32144807D01*
X12502381Y-32144807D02*
X12540476Y-32220998D01*
X12540476Y-32220998D02*
X12540476Y-32411474D01*
X12540476Y-32411474D02*
X12502381Y-32487664D01*
X12502381Y-32487664D02*
X12464286Y-32525760D01*
X12464286Y-32525760D02*
X12388095Y-32563855D01*
X12388095Y-32563855D02*
X12197619Y-32563855D01*
X12197619Y-32563855D02*
X12121429Y-32525760D01*
X12121429Y-32525760D02*
X12083333Y-32487664D01*
D11*
X10590476Y-34077149D02*
X10423810Y-33839054D01*
X10304762Y-34077149D02*
X10304762Y-33577149D01*
X10304762Y-33577149D02*
X10495238Y-33577149D01*
X10495238Y-33577149D02*
X10542857Y-33600959D01*
X10542857Y-33600959D02*
X10566667Y-33624768D01*
X10566667Y-33624768D02*
X10590476Y-33672387D01*
X10590476Y-33672387D02*
X10590476Y-33743816D01*
X10590476Y-33743816D02*
X10566667Y-33791435D01*
X10566667Y-33791435D02*
X10542857Y-33815244D01*
X10542857Y-33815244D02*
X10495238Y-33839054D01*
X10495238Y-33839054D02*
X10304762Y-33839054D01*
X11066667Y-34077149D02*
X10780953Y-34077149D01*
X10923810Y-34077149D02*
X10923810Y-33577149D01*
X10923810Y-33577149D02*
X10876191Y-33648578D01*
X10876191Y-33648578D02*
X10828572Y-33696197D01*
X10828572Y-33696197D02*
X10780953Y-33720006D01*
X11376190Y-33577149D02*
X11423809Y-33577149D01*
X11423809Y-33577149D02*
X11471428Y-33600959D01*
X11471428Y-33600959D02*
X11495238Y-33624768D01*
X11495238Y-33624768D02*
X11519047Y-33672387D01*
X11519047Y-33672387D02*
X11542857Y-33767625D01*
X11542857Y-33767625D02*
X11542857Y-33886673D01*
X11542857Y-33886673D02*
X11519047Y-33981911D01*
X11519047Y-33981911D02*
X11495238Y-34029530D01*
X11495238Y-34029530D02*
X11471428Y-34053340D01*
X11471428Y-34053340D02*
X11423809Y-34077149D01*
X11423809Y-34077149D02*
X11376190Y-34077149D01*
X11376190Y-34077149D02*
X11328571Y-34053340D01*
X11328571Y-34053340D02*
X11304762Y-34029530D01*
X11304762Y-34029530D02*
X11280952Y-33981911D01*
X11280952Y-33981911D02*
X11257143Y-33886673D01*
X11257143Y-33886673D02*
X11257143Y-33767625D01*
X11257143Y-33767625D02*
X11280952Y-33672387D01*
X11280952Y-33672387D02*
X11304762Y-33624768D01*
X11304762Y-33624768D02*
X11328571Y-33600959D01*
X11328571Y-33600959D02*
X11376190Y-33577149D01*
X11995237Y-33577149D02*
X11757142Y-33577149D01*
X11757142Y-33577149D02*
X11733333Y-33815244D01*
X11733333Y-33815244D02*
X11757142Y-33791435D01*
X11757142Y-33791435D02*
X11804761Y-33767625D01*
X11804761Y-33767625D02*
X11923809Y-33767625D01*
X11923809Y-33767625D02*
X11971428Y-33791435D01*
X11971428Y-33791435D02*
X11995237Y-33815244D01*
X11995237Y-33815244D02*
X12019047Y-33862863D01*
X12019047Y-33862863D02*
X12019047Y-33981911D01*
X12019047Y-33981911D02*
X11995237Y-34029530D01*
X11995237Y-34029530D02*
X11971428Y-34053340D01*
X11971428Y-34053340D02*
X11923809Y-34077149D01*
X11923809Y-34077149D02*
X11804761Y-34077149D01*
X11804761Y-34077149D02*
X11757142Y-34053340D01*
X11757142Y-34053340D02*
X11733333Y-34029530D01*
D10*
X29765714Y-16087664D02*
X29727618Y-16125760D01*
X29727618Y-16125760D02*
X29613333Y-16163855D01*
X29613333Y-16163855D02*
X29537142Y-16163855D01*
X29537142Y-16163855D02*
X29422856Y-16125760D01*
X29422856Y-16125760D02*
X29346666Y-16049569D01*
X29346666Y-16049569D02*
X29308571Y-15973379D01*
X29308571Y-15973379D02*
X29270475Y-15820998D01*
X29270475Y-15820998D02*
X29270475Y-15706712D01*
X29270475Y-15706712D02*
X29308571Y-15554331D01*
X29308571Y-15554331D02*
X29346666Y-15478140D01*
X29346666Y-15478140D02*
X29422856Y-15401950D01*
X29422856Y-15401950D02*
X29537142Y-15363855D01*
X29537142Y-15363855D02*
X29613333Y-15363855D01*
X29613333Y-15363855D02*
X29727618Y-15401950D01*
X29727618Y-15401950D02*
X29765714Y-15440045D01*
X30527618Y-16163855D02*
X30070475Y-16163855D01*
X30299047Y-16163855D02*
X30299047Y-15363855D01*
X30299047Y-15363855D02*
X30222856Y-15478140D01*
X30222856Y-15478140D02*
X30146666Y-15554331D01*
X30146666Y-15554331D02*
X30070475Y-15592426D01*
X31251428Y-15363855D02*
X30870476Y-15363855D01*
X30870476Y-15363855D02*
X30832380Y-15744807D01*
X30832380Y-15744807D02*
X30870476Y-15706712D01*
X30870476Y-15706712D02*
X30946666Y-15668617D01*
X30946666Y-15668617D02*
X31137142Y-15668617D01*
X31137142Y-15668617D02*
X31213333Y-15706712D01*
X31213333Y-15706712D02*
X31251428Y-15744807D01*
X31251428Y-15744807D02*
X31289523Y-15820998D01*
X31289523Y-15820998D02*
X31289523Y-16011474D01*
X31289523Y-16011474D02*
X31251428Y-16087664D01*
X31251428Y-16087664D02*
X31213333Y-16125760D01*
X31213333Y-16125760D02*
X31137142Y-16163855D01*
X31137142Y-16163855D02*
X30946666Y-16163855D01*
X30946666Y-16163855D02*
X30870476Y-16125760D01*
X30870476Y-16125760D02*
X30832380Y-16087664D01*
D11*
X29958571Y-17659530D02*
X29934762Y-17683340D01*
X29934762Y-17683340D02*
X29863333Y-17707149D01*
X29863333Y-17707149D02*
X29815714Y-17707149D01*
X29815714Y-17707149D02*
X29744286Y-17683340D01*
X29744286Y-17683340D02*
X29696667Y-17635720D01*
X29696667Y-17635720D02*
X29672857Y-17588101D01*
X29672857Y-17588101D02*
X29649048Y-17492863D01*
X29649048Y-17492863D02*
X29649048Y-17421435D01*
X29649048Y-17421435D02*
X29672857Y-17326197D01*
X29672857Y-17326197D02*
X29696667Y-17278578D01*
X29696667Y-17278578D02*
X29744286Y-17230959D01*
X29744286Y-17230959D02*
X29815714Y-17207149D01*
X29815714Y-17207149D02*
X29863333Y-17207149D01*
X29863333Y-17207149D02*
X29934762Y-17230959D01*
X29934762Y-17230959D02*
X29958571Y-17254768D01*
X30434762Y-17707149D02*
X30149048Y-17707149D01*
X30291905Y-17707149D02*
X30291905Y-17207149D01*
X30291905Y-17207149D02*
X30244286Y-17278578D01*
X30244286Y-17278578D02*
X30196667Y-17326197D01*
X30196667Y-17326197D02*
X30149048Y-17350006D01*
X30887142Y-17207149D02*
X30649047Y-17207149D01*
X30649047Y-17207149D02*
X30625238Y-17445244D01*
X30625238Y-17445244D02*
X30649047Y-17421435D01*
X30649047Y-17421435D02*
X30696666Y-17397625D01*
X30696666Y-17397625D02*
X30815714Y-17397625D01*
X30815714Y-17397625D02*
X30863333Y-17421435D01*
X30863333Y-17421435D02*
X30887142Y-17445244D01*
X30887142Y-17445244D02*
X30910952Y-17492863D01*
X30910952Y-17492863D02*
X30910952Y-17611911D01*
X30910952Y-17611911D02*
X30887142Y-17659530D01*
X30887142Y-17659530D02*
X30863333Y-17683340D01*
X30863333Y-17683340D02*
X30815714Y-17707149D01*
X30815714Y-17707149D02*
X30696666Y-17707149D01*
X30696666Y-17707149D02*
X30649047Y-17683340D01*
X30649047Y-17683340D02*
X30625238Y-17659530D01*
D10*
X20840476Y-37563855D02*
X20840476Y-38211474D01*
X20840476Y-38211474D02*
X20878571Y-38287664D01*
X20878571Y-38287664D02*
X20916666Y-38325760D01*
X20916666Y-38325760D02*
X20992857Y-38363855D01*
X20992857Y-38363855D02*
X21145238Y-38363855D01*
X21145238Y-38363855D02*
X21221428Y-38325760D01*
X21221428Y-38325760D02*
X21259523Y-38287664D01*
X21259523Y-38287664D02*
X21297619Y-38211474D01*
X21297619Y-38211474D02*
X21297619Y-37563855D01*
X22059523Y-37563855D02*
X21678571Y-37563855D01*
X21678571Y-37563855D02*
X21640475Y-37944807D01*
X21640475Y-37944807D02*
X21678571Y-37906712D01*
X21678571Y-37906712D02*
X21754761Y-37868617D01*
X21754761Y-37868617D02*
X21945237Y-37868617D01*
X21945237Y-37868617D02*
X22021428Y-37906712D01*
X22021428Y-37906712D02*
X22059523Y-37944807D01*
X22059523Y-37944807D02*
X22097618Y-38020998D01*
X22097618Y-38020998D02*
X22097618Y-38211474D01*
X22097618Y-38211474D02*
X22059523Y-38287664D01*
X22059523Y-38287664D02*
X22021428Y-38325760D01*
X22021428Y-38325760D02*
X21945237Y-38363855D01*
X21945237Y-38363855D02*
X21754761Y-38363855D01*
X21754761Y-38363855D02*
X21678571Y-38325760D01*
X21678571Y-38325760D02*
X21640475Y-38287664D01*
X37365714Y-18487664D02*
X37327618Y-18525760D01*
X37327618Y-18525760D02*
X37213333Y-18563855D01*
X37213333Y-18563855D02*
X37137142Y-18563855D01*
X37137142Y-18563855D02*
X37022856Y-18525760D01*
X37022856Y-18525760D02*
X36946666Y-18449569D01*
X36946666Y-18449569D02*
X36908571Y-18373379D01*
X36908571Y-18373379D02*
X36870475Y-18220998D01*
X36870475Y-18220998D02*
X36870475Y-18106712D01*
X36870475Y-18106712D02*
X36908571Y-17954331D01*
X36908571Y-17954331D02*
X36946666Y-17878140D01*
X36946666Y-17878140D02*
X37022856Y-17801950D01*
X37022856Y-17801950D02*
X37137142Y-17763855D01*
X37137142Y-17763855D02*
X37213333Y-17763855D01*
X37213333Y-17763855D02*
X37327618Y-17801950D01*
X37327618Y-17801950D02*
X37365714Y-17840045D01*
X38127618Y-18563855D02*
X37670475Y-18563855D01*
X37899047Y-18563855D02*
X37899047Y-17763855D01*
X37899047Y-17763855D02*
X37822856Y-17878140D01*
X37822856Y-17878140D02*
X37746666Y-17954331D01*
X37746666Y-17954331D02*
X37670475Y-17992426D01*
X38889523Y-18563855D02*
X38432380Y-18563855D01*
X38660952Y-18563855D02*
X38660952Y-17763855D01*
X38660952Y-17763855D02*
X38584761Y-17878140D01*
X38584761Y-17878140D02*
X38508571Y-17954331D01*
X38508571Y-17954331D02*
X38432380Y-17992426D01*
D11*
X37558571Y-20059530D02*
X37534762Y-20083340D01*
X37534762Y-20083340D02*
X37463333Y-20107149D01*
X37463333Y-20107149D02*
X37415714Y-20107149D01*
X37415714Y-20107149D02*
X37344286Y-20083340D01*
X37344286Y-20083340D02*
X37296667Y-20035720D01*
X37296667Y-20035720D02*
X37272857Y-19988101D01*
X37272857Y-19988101D02*
X37249048Y-19892863D01*
X37249048Y-19892863D02*
X37249048Y-19821435D01*
X37249048Y-19821435D02*
X37272857Y-19726197D01*
X37272857Y-19726197D02*
X37296667Y-19678578D01*
X37296667Y-19678578D02*
X37344286Y-19630959D01*
X37344286Y-19630959D02*
X37415714Y-19607149D01*
X37415714Y-19607149D02*
X37463333Y-19607149D01*
X37463333Y-19607149D02*
X37534762Y-19630959D01*
X37534762Y-19630959D02*
X37558571Y-19654768D01*
X38034762Y-20107149D02*
X37749048Y-20107149D01*
X37891905Y-20107149D02*
X37891905Y-19607149D01*
X37891905Y-19607149D02*
X37844286Y-19678578D01*
X37844286Y-19678578D02*
X37796667Y-19726197D01*
X37796667Y-19726197D02*
X37749048Y-19750006D01*
X38510952Y-20107149D02*
X38225238Y-20107149D01*
X38368095Y-20107149D02*
X38368095Y-19607149D01*
X38368095Y-19607149D02*
X38320476Y-19678578D01*
X38320476Y-19678578D02*
X38272857Y-19726197D01*
X38272857Y-19726197D02*
X38225238Y-19750006D01*
D10*
X17478571Y-15363855D02*
X17478571Y-16011474D01*
X17478571Y-16011474D02*
X17516666Y-16087664D01*
X17516666Y-16087664D02*
X17554761Y-16125760D01*
X17554761Y-16125760D02*
X17630952Y-16163855D01*
X17630952Y-16163855D02*
X17783333Y-16163855D01*
X17783333Y-16163855D02*
X17859523Y-16125760D01*
X17859523Y-16125760D02*
X17897618Y-16087664D01*
X17897618Y-16087664D02*
X17935714Y-16011474D01*
X17935714Y-16011474D02*
X17935714Y-15363855D01*
X18735713Y-16163855D02*
X18278570Y-16163855D01*
X18507142Y-16163855D02*
X18507142Y-15363855D01*
X18507142Y-15363855D02*
X18430951Y-15478140D01*
X18430951Y-15478140D02*
X18354761Y-15554331D01*
X18354761Y-15554331D02*
X18278570Y-15592426D01*
X19230952Y-15363855D02*
X19307142Y-15363855D01*
X19307142Y-15363855D02*
X19383333Y-15401950D01*
X19383333Y-15401950D02*
X19421428Y-15440045D01*
X19421428Y-15440045D02*
X19459523Y-15516236D01*
X19459523Y-15516236D02*
X19497618Y-15668617D01*
X19497618Y-15668617D02*
X19497618Y-15859093D01*
X19497618Y-15859093D02*
X19459523Y-16011474D01*
X19459523Y-16011474D02*
X19421428Y-16087664D01*
X19421428Y-16087664D02*
X19383333Y-16125760D01*
X19383333Y-16125760D02*
X19307142Y-16163855D01*
X19307142Y-16163855D02*
X19230952Y-16163855D01*
X19230952Y-16163855D02*
X19154761Y-16125760D01*
X19154761Y-16125760D02*
X19116666Y-16087664D01*
X19116666Y-16087664D02*
X19078571Y-16011474D01*
X19078571Y-16011474D02*
X19040475Y-15859093D01*
X19040475Y-15859093D02*
X19040475Y-15668617D01*
X19040475Y-15668617D02*
X19078571Y-15516236D01*
X19078571Y-15516236D02*
X19116666Y-15440045D01*
X19116666Y-15440045D02*
X19154761Y-15401950D01*
X19154761Y-15401950D02*
X19230952Y-15363855D01*
X19992857Y-15363855D02*
X20069047Y-15363855D01*
X20069047Y-15363855D02*
X20145238Y-15401950D01*
X20145238Y-15401950D02*
X20183333Y-15440045D01*
X20183333Y-15440045D02*
X20221428Y-15516236D01*
X20221428Y-15516236D02*
X20259523Y-15668617D01*
X20259523Y-15668617D02*
X20259523Y-15859093D01*
X20259523Y-15859093D02*
X20221428Y-16011474D01*
X20221428Y-16011474D02*
X20183333Y-16087664D01*
X20183333Y-16087664D02*
X20145238Y-16125760D01*
X20145238Y-16125760D02*
X20069047Y-16163855D01*
X20069047Y-16163855D02*
X19992857Y-16163855D01*
X19992857Y-16163855D02*
X19916666Y-16125760D01*
X19916666Y-16125760D02*
X19878571Y-16087664D01*
X19878571Y-16087664D02*
X19840476Y-16011474D01*
X19840476Y-16011474D02*
X19802380Y-15859093D01*
X19802380Y-15859093D02*
X19802380Y-15668617D01*
X19802380Y-15668617D02*
X19840476Y-15516236D01*
X19840476Y-15516236D02*
X19878571Y-15440045D01*
X19878571Y-15440045D02*
X19916666Y-15401950D01*
X19916666Y-15401950D02*
X19992857Y-15363855D01*
D12*
X17135714Y-19454819D02*
X17135714Y-20264342D01*
X17135714Y-20264342D02*
X17183333Y-20359580D01*
X17183333Y-20359580D02*
X17230952Y-20407200D01*
X17230952Y-20407200D02*
X17326190Y-20454819D01*
X17326190Y-20454819D02*
X17516666Y-20454819D01*
X17516666Y-20454819D02*
X17611904Y-20407200D01*
X17611904Y-20407200D02*
X17659523Y-20359580D01*
X17659523Y-20359580D02*
X17707142Y-20264342D01*
X17707142Y-20264342D02*
X17707142Y-19454819D01*
X18707142Y-20454819D02*
X18135714Y-20454819D01*
X18421428Y-20454819D02*
X18421428Y-19454819D01*
X18421428Y-19454819D02*
X18326190Y-19597676D01*
X18326190Y-19597676D02*
X18230952Y-19692914D01*
X18230952Y-19692914D02*
X18135714Y-19740533D01*
X19326190Y-19454819D02*
X19421428Y-19454819D01*
X19421428Y-19454819D02*
X19516666Y-19502438D01*
X19516666Y-19502438D02*
X19564285Y-19550057D01*
X19564285Y-19550057D02*
X19611904Y-19645295D01*
X19611904Y-19645295D02*
X19659523Y-19835771D01*
X19659523Y-19835771D02*
X19659523Y-20073866D01*
X19659523Y-20073866D02*
X19611904Y-20264342D01*
X19611904Y-20264342D02*
X19564285Y-20359580D01*
X19564285Y-20359580D02*
X19516666Y-20407200D01*
X19516666Y-20407200D02*
X19421428Y-20454819D01*
X19421428Y-20454819D02*
X19326190Y-20454819D01*
X19326190Y-20454819D02*
X19230952Y-20407200D01*
X19230952Y-20407200D02*
X19183333Y-20359580D01*
X19183333Y-20359580D02*
X19135714Y-20264342D01*
X19135714Y-20264342D02*
X19088095Y-20073866D01*
X19088095Y-20073866D02*
X19088095Y-19835771D01*
X19088095Y-19835771D02*
X19135714Y-19645295D01*
X19135714Y-19645295D02*
X19183333Y-19550057D01*
X19183333Y-19550057D02*
X19230952Y-19502438D01*
X19230952Y-19502438D02*
X19326190Y-19454819D01*
X20278571Y-19454819D02*
X20373809Y-19454819D01*
X20373809Y-19454819D02*
X20469047Y-19502438D01*
X20469047Y-19502438D02*
X20516666Y-19550057D01*
X20516666Y-19550057D02*
X20564285Y-19645295D01*
X20564285Y-19645295D02*
X20611904Y-19835771D01*
X20611904Y-19835771D02*
X20611904Y-20073866D01*
X20611904Y-20073866D02*
X20564285Y-20264342D01*
X20564285Y-20264342D02*
X20516666Y-20359580D01*
X20516666Y-20359580D02*
X20469047Y-20407200D01*
X20469047Y-20407200D02*
X20373809Y-20454819D01*
X20373809Y-20454819D02*
X20278571Y-20454819D01*
X20278571Y-20454819D02*
X20183333Y-20407200D01*
X20183333Y-20407200D02*
X20135714Y-20359580D01*
X20135714Y-20359580D02*
X20088095Y-20264342D01*
X20088095Y-20264342D02*
X20040476Y-20073866D01*
X20040476Y-20073866D02*
X20040476Y-19835771D01*
X20040476Y-19835771D02*
X20088095Y-19645295D01*
X20088095Y-19645295D02*
X20135714Y-19550057D01*
X20135714Y-19550057D02*
X20183333Y-19502438D01*
X20183333Y-19502438D02*
X20278571Y-19454819D01*
D10*
X51113809Y-32040045D02*
X51037619Y-32001950D01*
X51037619Y-32001950D02*
X50961428Y-31925760D01*
X50961428Y-31925760D02*
X50847142Y-31811474D01*
X50847142Y-31811474D02*
X50770952Y-31773379D01*
X50770952Y-31773379D02*
X50694761Y-31773379D01*
X50732857Y-31963855D02*
X50656666Y-31925760D01*
X50656666Y-31925760D02*
X50580476Y-31849569D01*
X50580476Y-31849569D02*
X50542380Y-31697188D01*
X50542380Y-31697188D02*
X50542380Y-31430521D01*
X50542380Y-31430521D02*
X50580476Y-31278140D01*
X50580476Y-31278140D02*
X50656666Y-31201950D01*
X50656666Y-31201950D02*
X50732857Y-31163855D01*
X50732857Y-31163855D02*
X50885238Y-31163855D01*
X50885238Y-31163855D02*
X50961428Y-31201950D01*
X50961428Y-31201950D02*
X51037619Y-31278140D01*
X51037619Y-31278140D02*
X51075714Y-31430521D01*
X51075714Y-31430521D02*
X51075714Y-31697188D01*
X51075714Y-31697188D02*
X51037619Y-31849569D01*
X51037619Y-31849569D02*
X50961428Y-31925760D01*
X50961428Y-31925760D02*
X50885238Y-31963855D01*
X50885238Y-31963855D02*
X50732857Y-31963855D01*
X51837618Y-31963855D02*
X51380475Y-31963855D01*
X51609047Y-31963855D02*
X51609047Y-31163855D01*
X51609047Y-31163855D02*
X51532856Y-31278140D01*
X51532856Y-31278140D02*
X51456666Y-31354331D01*
X51456666Y-31354331D02*
X51380475Y-31392426D01*
D12*
X51094761Y-36650057D02*
X50999523Y-36602438D01*
X50999523Y-36602438D02*
X50904285Y-36507200D01*
X50904285Y-36507200D02*
X50761428Y-36364342D01*
X50761428Y-36364342D02*
X50666190Y-36316723D01*
X50666190Y-36316723D02*
X50570952Y-36316723D01*
X50618571Y-36554819D02*
X50523333Y-36507200D01*
X50523333Y-36507200D02*
X50428095Y-36411961D01*
X50428095Y-36411961D02*
X50380476Y-36221485D01*
X50380476Y-36221485D02*
X50380476Y-35888152D01*
X50380476Y-35888152D02*
X50428095Y-35697676D01*
X50428095Y-35697676D02*
X50523333Y-35602438D01*
X50523333Y-35602438D02*
X50618571Y-35554819D01*
X50618571Y-35554819D02*
X50809047Y-35554819D01*
X50809047Y-35554819D02*
X50904285Y-35602438D01*
X50904285Y-35602438D02*
X50999523Y-35697676D01*
X50999523Y-35697676D02*
X51047142Y-35888152D01*
X51047142Y-35888152D02*
X51047142Y-36221485D01*
X51047142Y-36221485D02*
X50999523Y-36411961D01*
X50999523Y-36411961D02*
X50904285Y-36507200D01*
X50904285Y-36507200D02*
X50809047Y-36554819D01*
X50809047Y-36554819D02*
X50618571Y-36554819D01*
X51999523Y-36554819D02*
X51428095Y-36554819D01*
X51713809Y-36554819D02*
X51713809Y-35554819D01*
X51713809Y-35554819D02*
X51618571Y-35697676D01*
X51618571Y-35697676D02*
X51523333Y-35792914D01*
X51523333Y-35792914D02*
X51428095Y-35840533D01*
D10*
X29735714Y-18863855D02*
X29469047Y-18482902D01*
X29278571Y-18863855D02*
X29278571Y-18063855D01*
X29278571Y-18063855D02*
X29583333Y-18063855D01*
X29583333Y-18063855D02*
X29659523Y-18101950D01*
X29659523Y-18101950D02*
X29697618Y-18140045D01*
X29697618Y-18140045D02*
X29735714Y-18216236D01*
X29735714Y-18216236D02*
X29735714Y-18330521D01*
X29735714Y-18330521D02*
X29697618Y-18406712D01*
X29697618Y-18406712D02*
X29659523Y-18444807D01*
X29659523Y-18444807D02*
X29583333Y-18482902D01*
X29583333Y-18482902D02*
X29278571Y-18482902D01*
X30497618Y-18863855D02*
X30040475Y-18863855D01*
X30269047Y-18863855D02*
X30269047Y-18063855D01*
X30269047Y-18063855D02*
X30192856Y-18178140D01*
X30192856Y-18178140D02*
X30116666Y-18254331D01*
X30116666Y-18254331D02*
X30040475Y-18292426D01*
X31221428Y-18063855D02*
X30840476Y-18063855D01*
X30840476Y-18063855D02*
X30802380Y-18444807D01*
X30802380Y-18444807D02*
X30840476Y-18406712D01*
X30840476Y-18406712D02*
X30916666Y-18368617D01*
X30916666Y-18368617D02*
X31107142Y-18368617D01*
X31107142Y-18368617D02*
X31183333Y-18406712D01*
X31183333Y-18406712D02*
X31221428Y-18444807D01*
X31221428Y-18444807D02*
X31259523Y-18520998D01*
X31259523Y-18520998D02*
X31259523Y-18711474D01*
X31259523Y-18711474D02*
X31221428Y-18787664D01*
X31221428Y-18787664D02*
X31183333Y-18825760D01*
X31183333Y-18825760D02*
X31107142Y-18863855D01*
X31107142Y-18863855D02*
X30916666Y-18863855D01*
X30916666Y-18863855D02*
X30840476Y-18825760D01*
X30840476Y-18825760D02*
X30802380Y-18787664D01*
D11*
X29928571Y-20377149D02*
X29761905Y-20139054D01*
X29642857Y-20377149D02*
X29642857Y-19877149D01*
X29642857Y-19877149D02*
X29833333Y-19877149D01*
X29833333Y-19877149D02*
X29880952Y-19900959D01*
X29880952Y-19900959D02*
X29904762Y-19924768D01*
X29904762Y-19924768D02*
X29928571Y-19972387D01*
X29928571Y-19972387D02*
X29928571Y-20043816D01*
X29928571Y-20043816D02*
X29904762Y-20091435D01*
X29904762Y-20091435D02*
X29880952Y-20115244D01*
X29880952Y-20115244D02*
X29833333Y-20139054D01*
X29833333Y-20139054D02*
X29642857Y-20139054D01*
X30404762Y-20377149D02*
X30119048Y-20377149D01*
X30261905Y-20377149D02*
X30261905Y-19877149D01*
X30261905Y-19877149D02*
X30214286Y-19948578D01*
X30214286Y-19948578D02*
X30166667Y-19996197D01*
X30166667Y-19996197D02*
X30119048Y-20020006D01*
X30857142Y-19877149D02*
X30619047Y-19877149D01*
X30619047Y-19877149D02*
X30595238Y-20115244D01*
X30595238Y-20115244D02*
X30619047Y-20091435D01*
X30619047Y-20091435D02*
X30666666Y-20067625D01*
X30666666Y-20067625D02*
X30785714Y-20067625D01*
X30785714Y-20067625D02*
X30833333Y-20091435D01*
X30833333Y-20091435D02*
X30857142Y-20115244D01*
X30857142Y-20115244D02*
X30880952Y-20162863D01*
X30880952Y-20162863D02*
X30880952Y-20281911D01*
X30880952Y-20281911D02*
X30857142Y-20329530D01*
X30857142Y-20329530D02*
X30833333Y-20353340D01*
X30833333Y-20353340D02*
X30785714Y-20377149D01*
X30785714Y-20377149D02*
X30666666Y-20377149D01*
X30666666Y-20377149D02*
X30619047Y-20353340D01*
X30619047Y-20353340D02*
X30595238Y-20329530D01*
D12*
X36609621Y-54610818D02*
X36562002Y-54658438D01*
X36562002Y-54658438D02*
X36419145Y-54706057D01*
X36419145Y-54706057D02*
X36323907Y-54706057D01*
X36323907Y-54706057D02*
X36181050Y-54658438D01*
X36181050Y-54658438D02*
X36085812Y-54563199D01*
X36085812Y-54563199D02*
X36038193Y-54467961D01*
X36038193Y-54467961D02*
X35990574Y-54277485D01*
X35990574Y-54277485D02*
X35990574Y-54134628D01*
X35990574Y-54134628D02*
X36038193Y-53944152D01*
X36038193Y-53944152D02*
X36085812Y-53848914D01*
X36085812Y-53848914D02*
X36181050Y-53753676D01*
X36181050Y-53753676D02*
X36323907Y-53706057D01*
X36323907Y-53706057D02*
X36419145Y-53706057D01*
X36419145Y-53706057D02*
X36562002Y-53753676D01*
X36562002Y-53753676D02*
X36609621Y-53801295D01*
X37562002Y-54706057D02*
X36990574Y-54706057D01*
X37276288Y-54706057D02*
X37276288Y-53706057D01*
X37276288Y-53706057D02*
X37181050Y-53848914D01*
X37181050Y-53848914D02*
X37085812Y-53944152D01*
X37085812Y-53944152D02*
X36990574Y-53991771D01*
X37942955Y-53801295D02*
X37990574Y-53753676D01*
X37990574Y-53753676D02*
X38085812Y-53706057D01*
X38085812Y-53706057D02*
X38323907Y-53706057D01*
X38323907Y-53706057D02*
X38419145Y-53753676D01*
X38419145Y-53753676D02*
X38466764Y-53801295D01*
X38466764Y-53801295D02*
X38514383Y-53896533D01*
X38514383Y-53896533D02*
X38514383Y-53991771D01*
X38514383Y-53991771D02*
X38466764Y-54134628D01*
X38466764Y-54134628D02*
X37895336Y-54706057D01*
X37895336Y-54706057D02*
X38514383Y-54706057D01*
D10*
X5954762Y-32563855D02*
X5688095Y-32182902D01*
X5497619Y-32563855D02*
X5497619Y-31763855D01*
X5497619Y-31763855D02*
X5802381Y-31763855D01*
X5802381Y-31763855D02*
X5878571Y-31801950D01*
X5878571Y-31801950D02*
X5916666Y-31840045D01*
X5916666Y-31840045D02*
X5954762Y-31916236D01*
X5954762Y-31916236D02*
X5954762Y-32030521D01*
X5954762Y-32030521D02*
X5916666Y-32106712D01*
X5916666Y-32106712D02*
X5878571Y-32144807D01*
X5878571Y-32144807D02*
X5802381Y-32182902D01*
X5802381Y-32182902D02*
X5497619Y-32182902D01*
X6716666Y-32563855D02*
X6259523Y-32563855D01*
X6488095Y-32563855D02*
X6488095Y-31763855D01*
X6488095Y-31763855D02*
X6411904Y-31878140D01*
X6411904Y-31878140D02*
X6335714Y-31954331D01*
X6335714Y-31954331D02*
X6259523Y-31992426D01*
X7211905Y-31763855D02*
X7288095Y-31763855D01*
X7288095Y-31763855D02*
X7364286Y-31801950D01*
X7364286Y-31801950D02*
X7402381Y-31840045D01*
X7402381Y-31840045D02*
X7440476Y-31916236D01*
X7440476Y-31916236D02*
X7478571Y-32068617D01*
X7478571Y-32068617D02*
X7478571Y-32259093D01*
X7478571Y-32259093D02*
X7440476Y-32411474D01*
X7440476Y-32411474D02*
X7402381Y-32487664D01*
X7402381Y-32487664D02*
X7364286Y-32525760D01*
X7364286Y-32525760D02*
X7288095Y-32563855D01*
X7288095Y-32563855D02*
X7211905Y-32563855D01*
X7211905Y-32563855D02*
X7135714Y-32525760D01*
X7135714Y-32525760D02*
X7097619Y-32487664D01*
X7097619Y-32487664D02*
X7059524Y-32411474D01*
X7059524Y-32411474D02*
X7021428Y-32259093D01*
X7021428Y-32259093D02*
X7021428Y-32068617D01*
X7021428Y-32068617D02*
X7059524Y-31916236D01*
X7059524Y-31916236D02*
X7097619Y-31840045D01*
X7097619Y-31840045D02*
X7135714Y-31801950D01*
X7135714Y-31801950D02*
X7211905Y-31763855D01*
X8164286Y-32030521D02*
X8164286Y-32563855D01*
X7973810Y-31725760D02*
X7783333Y-32297188D01*
X7783333Y-32297188D02*
X8278572Y-32297188D01*
D11*
X6290476Y-34077149D02*
X6123810Y-33839054D01*
X6004762Y-34077149D02*
X6004762Y-33577149D01*
X6004762Y-33577149D02*
X6195238Y-33577149D01*
X6195238Y-33577149D02*
X6242857Y-33600959D01*
X6242857Y-33600959D02*
X6266667Y-33624768D01*
X6266667Y-33624768D02*
X6290476Y-33672387D01*
X6290476Y-33672387D02*
X6290476Y-33743816D01*
X6290476Y-33743816D02*
X6266667Y-33791435D01*
X6266667Y-33791435D02*
X6242857Y-33815244D01*
X6242857Y-33815244D02*
X6195238Y-33839054D01*
X6195238Y-33839054D02*
X6004762Y-33839054D01*
X6766667Y-34077149D02*
X6480953Y-34077149D01*
X6623810Y-34077149D02*
X6623810Y-33577149D01*
X6623810Y-33577149D02*
X6576191Y-33648578D01*
X6576191Y-33648578D02*
X6528572Y-33696197D01*
X6528572Y-33696197D02*
X6480953Y-33720006D01*
X7076190Y-33577149D02*
X7123809Y-33577149D01*
X7123809Y-33577149D02*
X7171428Y-33600959D01*
X7171428Y-33600959D02*
X7195238Y-33624768D01*
X7195238Y-33624768D02*
X7219047Y-33672387D01*
X7219047Y-33672387D02*
X7242857Y-33767625D01*
X7242857Y-33767625D02*
X7242857Y-33886673D01*
X7242857Y-33886673D02*
X7219047Y-33981911D01*
X7219047Y-33981911D02*
X7195238Y-34029530D01*
X7195238Y-34029530D02*
X7171428Y-34053340D01*
X7171428Y-34053340D02*
X7123809Y-34077149D01*
X7123809Y-34077149D02*
X7076190Y-34077149D01*
X7076190Y-34077149D02*
X7028571Y-34053340D01*
X7028571Y-34053340D02*
X7004762Y-34029530D01*
X7004762Y-34029530D02*
X6980952Y-33981911D01*
X6980952Y-33981911D02*
X6957143Y-33886673D01*
X6957143Y-33886673D02*
X6957143Y-33767625D01*
X6957143Y-33767625D02*
X6980952Y-33672387D01*
X6980952Y-33672387D02*
X7004762Y-33624768D01*
X7004762Y-33624768D02*
X7028571Y-33600959D01*
X7028571Y-33600959D02*
X7076190Y-33577149D01*
X7671428Y-33743816D02*
X7671428Y-34077149D01*
X7552380Y-33553340D02*
X7433333Y-33910482D01*
X7433333Y-33910482D02*
X7742856Y-33910482D01*
D10*
X32240476Y-34663855D02*
X32240476Y-35311474D01*
X32240476Y-35311474D02*
X32278571Y-35387664D01*
X32278571Y-35387664D02*
X32316666Y-35425760D01*
X32316666Y-35425760D02*
X32392857Y-35463855D01*
X32392857Y-35463855D02*
X32545238Y-35463855D01*
X32545238Y-35463855D02*
X32621428Y-35425760D01*
X32621428Y-35425760D02*
X32659523Y-35387664D01*
X32659523Y-35387664D02*
X32697619Y-35311474D01*
X32697619Y-35311474D02*
X32697619Y-34663855D01*
X33421428Y-34663855D02*
X33269047Y-34663855D01*
X33269047Y-34663855D02*
X33192856Y-34701950D01*
X33192856Y-34701950D02*
X33154761Y-34740045D01*
X33154761Y-34740045D02*
X33078571Y-34854331D01*
X33078571Y-34854331D02*
X33040475Y-35006712D01*
X33040475Y-35006712D02*
X33040475Y-35311474D01*
X33040475Y-35311474D02*
X33078571Y-35387664D01*
X33078571Y-35387664D02*
X33116666Y-35425760D01*
X33116666Y-35425760D02*
X33192856Y-35463855D01*
X33192856Y-35463855D02*
X33345237Y-35463855D01*
X33345237Y-35463855D02*
X33421428Y-35425760D01*
X33421428Y-35425760D02*
X33459523Y-35387664D01*
X33459523Y-35387664D02*
X33497618Y-35311474D01*
X33497618Y-35311474D02*
X33497618Y-35120998D01*
X33497618Y-35120998D02*
X33459523Y-35044807D01*
X33459523Y-35044807D02*
X33421428Y-35006712D01*
X33421428Y-35006712D02*
X33345237Y-34968617D01*
X33345237Y-34968617D02*
X33192856Y-34968617D01*
X33192856Y-34968617D02*
X33116666Y-35006712D01*
X33116666Y-35006712D02*
X33078571Y-35044807D01*
X33078571Y-35044807D02*
X33040475Y-35120998D01*
D11*
X32577149Y-37280952D02*
X32981911Y-37280952D01*
X32981911Y-37280952D02*
X33029530Y-37257142D01*
X33029530Y-37257142D02*
X33053340Y-37233333D01*
X33053340Y-37233333D02*
X33077149Y-37185714D01*
X33077149Y-37185714D02*
X33077149Y-37090476D01*
X33077149Y-37090476D02*
X33053340Y-37042857D01*
X33053340Y-37042857D02*
X33029530Y-37019047D01*
X33029530Y-37019047D02*
X32981911Y-36995238D01*
X32981911Y-36995238D02*
X32577149Y-36995238D01*
X32577149Y-36542856D02*
X32577149Y-36638094D01*
X32577149Y-36638094D02*
X32600959Y-36685713D01*
X32600959Y-36685713D02*
X32624768Y-36709523D01*
X32624768Y-36709523D02*
X32696197Y-36757142D01*
X32696197Y-36757142D02*
X32791435Y-36780951D01*
X32791435Y-36780951D02*
X32981911Y-36780951D01*
X32981911Y-36780951D02*
X33029530Y-36757142D01*
X33029530Y-36757142D02*
X33053340Y-36733332D01*
X33053340Y-36733332D02*
X33077149Y-36685713D01*
X33077149Y-36685713D02*
X33077149Y-36590475D01*
X33077149Y-36590475D02*
X33053340Y-36542856D01*
X33053340Y-36542856D02*
X33029530Y-36519047D01*
X33029530Y-36519047D02*
X32981911Y-36495237D01*
X32981911Y-36495237D02*
X32862863Y-36495237D01*
X32862863Y-36495237D02*
X32815244Y-36519047D01*
X32815244Y-36519047D02*
X32791435Y-36542856D01*
X32791435Y-36542856D02*
X32767625Y-36590475D01*
X32767625Y-36590475D02*
X32767625Y-36685713D01*
X32767625Y-36685713D02*
X32791435Y-36733332D01*
X32791435Y-36733332D02*
X32815244Y-36757142D01*
X32815244Y-36757142D02*
X32862863Y-36780951D01*
D10*
X10735714Y-26763855D02*
X10469047Y-26382902D01*
X10278571Y-26763855D02*
X10278571Y-25963855D01*
X10278571Y-25963855D02*
X10583333Y-25963855D01*
X10583333Y-25963855D02*
X10659523Y-26001950D01*
X10659523Y-26001950D02*
X10697618Y-26040045D01*
X10697618Y-26040045D02*
X10735714Y-26116236D01*
X10735714Y-26116236D02*
X10735714Y-26230521D01*
X10735714Y-26230521D02*
X10697618Y-26306712D01*
X10697618Y-26306712D02*
X10659523Y-26344807D01*
X10659523Y-26344807D02*
X10583333Y-26382902D01*
X10583333Y-26382902D02*
X10278571Y-26382902D01*
X11497618Y-26763855D02*
X11040475Y-26763855D01*
X11269047Y-26763855D02*
X11269047Y-25963855D01*
X11269047Y-25963855D02*
X11192856Y-26078140D01*
X11192856Y-26078140D02*
X11116666Y-26154331D01*
X11116666Y-26154331D02*
X11040475Y-26192426D01*
X11764285Y-25963855D02*
X12259523Y-25963855D01*
X12259523Y-25963855D02*
X11992857Y-26268617D01*
X11992857Y-26268617D02*
X12107142Y-26268617D01*
X12107142Y-26268617D02*
X12183333Y-26306712D01*
X12183333Y-26306712D02*
X12221428Y-26344807D01*
X12221428Y-26344807D02*
X12259523Y-26420998D01*
X12259523Y-26420998D02*
X12259523Y-26611474D01*
X12259523Y-26611474D02*
X12221428Y-26687664D01*
X12221428Y-26687664D02*
X12183333Y-26725760D01*
X12183333Y-26725760D02*
X12107142Y-26763855D01*
X12107142Y-26763855D02*
X11878571Y-26763855D01*
X11878571Y-26763855D02*
X11802380Y-26725760D01*
X11802380Y-26725760D02*
X11764285Y-26687664D01*
D11*
X10928571Y-28277149D02*
X10761905Y-28039054D01*
X10642857Y-28277149D02*
X10642857Y-27777149D01*
X10642857Y-27777149D02*
X10833333Y-27777149D01*
X10833333Y-27777149D02*
X10880952Y-27800959D01*
X10880952Y-27800959D02*
X10904762Y-27824768D01*
X10904762Y-27824768D02*
X10928571Y-27872387D01*
X10928571Y-27872387D02*
X10928571Y-27943816D01*
X10928571Y-27943816D02*
X10904762Y-27991435D01*
X10904762Y-27991435D02*
X10880952Y-28015244D01*
X10880952Y-28015244D02*
X10833333Y-28039054D01*
X10833333Y-28039054D02*
X10642857Y-28039054D01*
X11404762Y-28277149D02*
X11119048Y-28277149D01*
X11261905Y-28277149D02*
X11261905Y-27777149D01*
X11261905Y-27777149D02*
X11214286Y-27848578D01*
X11214286Y-27848578D02*
X11166667Y-27896197D01*
X11166667Y-27896197D02*
X11119048Y-27920006D01*
X11571428Y-27777149D02*
X11880952Y-27777149D01*
X11880952Y-27777149D02*
X11714285Y-27967625D01*
X11714285Y-27967625D02*
X11785714Y-27967625D01*
X11785714Y-27967625D02*
X11833333Y-27991435D01*
X11833333Y-27991435D02*
X11857142Y-28015244D01*
X11857142Y-28015244D02*
X11880952Y-28062863D01*
X11880952Y-28062863D02*
X11880952Y-28181911D01*
X11880952Y-28181911D02*
X11857142Y-28229530D01*
X11857142Y-28229530D02*
X11833333Y-28253340D01*
X11833333Y-28253340D02*
X11785714Y-28277149D01*
X11785714Y-28277149D02*
X11642857Y-28277149D01*
X11642857Y-28277149D02*
X11595238Y-28253340D01*
X11595238Y-28253340D02*
X11571428Y-28229530D01*
D10*
X33809524Y-38513855D02*
X33809524Y-37713855D01*
X33809524Y-37713855D02*
X34000000Y-37713855D01*
X34000000Y-37713855D02*
X34114286Y-37751950D01*
X34114286Y-37751950D02*
X34190476Y-37828140D01*
X34190476Y-37828140D02*
X34228571Y-37904331D01*
X34228571Y-37904331D02*
X34266667Y-38056712D01*
X34266667Y-38056712D02*
X34266667Y-38170998D01*
X34266667Y-38170998D02*
X34228571Y-38323379D01*
X34228571Y-38323379D02*
X34190476Y-38399569D01*
X34190476Y-38399569D02*
X34114286Y-38475760D01*
X34114286Y-38475760D02*
X34000000Y-38513855D01*
X34000000Y-38513855D02*
X33809524Y-38513855D01*
X35028571Y-38513855D02*
X34571428Y-38513855D01*
X34800000Y-38513855D02*
X34800000Y-37713855D01*
X34800000Y-37713855D02*
X34723809Y-37828140D01*
X34723809Y-37828140D02*
X34647619Y-37904331D01*
X34647619Y-37904331D02*
X34571428Y-37942426D01*
D12*
X33661905Y-41204819D02*
X33661905Y-40204819D01*
X33661905Y-40204819D02*
X33900000Y-40204819D01*
X33900000Y-40204819D02*
X34042857Y-40252438D01*
X34042857Y-40252438D02*
X34138095Y-40347676D01*
X34138095Y-40347676D02*
X34185714Y-40442914D01*
X34185714Y-40442914D02*
X34233333Y-40633390D01*
X34233333Y-40633390D02*
X34233333Y-40776247D01*
X34233333Y-40776247D02*
X34185714Y-40966723D01*
X34185714Y-40966723D02*
X34138095Y-41061961D01*
X34138095Y-41061961D02*
X34042857Y-41157200D01*
X34042857Y-41157200D02*
X33900000Y-41204819D01*
X33900000Y-41204819D02*
X33661905Y-41204819D01*
X35185714Y-41204819D02*
X34614286Y-41204819D01*
X34900000Y-41204819D02*
X34900000Y-40204819D01*
X34900000Y-40204819D02*
X34804762Y-40347676D01*
X34804762Y-40347676D02*
X34709524Y-40442914D01*
X34709524Y-40442914D02*
X34614286Y-40490533D01*
D10*
X5984762Y-26687664D02*
X5946666Y-26725760D01*
X5946666Y-26725760D02*
X5832381Y-26763855D01*
X5832381Y-26763855D02*
X5756190Y-26763855D01*
X5756190Y-26763855D02*
X5641904Y-26725760D01*
X5641904Y-26725760D02*
X5565714Y-26649569D01*
X5565714Y-26649569D02*
X5527619Y-26573379D01*
X5527619Y-26573379D02*
X5489523Y-26420998D01*
X5489523Y-26420998D02*
X5489523Y-26306712D01*
X5489523Y-26306712D02*
X5527619Y-26154331D01*
X5527619Y-26154331D02*
X5565714Y-26078140D01*
X5565714Y-26078140D02*
X5641904Y-26001950D01*
X5641904Y-26001950D02*
X5756190Y-25963855D01*
X5756190Y-25963855D02*
X5832381Y-25963855D01*
X5832381Y-25963855D02*
X5946666Y-26001950D01*
X5946666Y-26001950D02*
X5984762Y-26040045D01*
X6746666Y-26763855D02*
X6289523Y-26763855D01*
X6518095Y-26763855D02*
X6518095Y-25963855D01*
X6518095Y-25963855D02*
X6441904Y-26078140D01*
X6441904Y-26078140D02*
X6365714Y-26154331D01*
X6365714Y-26154331D02*
X6289523Y-26192426D01*
X7241905Y-25963855D02*
X7318095Y-25963855D01*
X7318095Y-25963855D02*
X7394286Y-26001950D01*
X7394286Y-26001950D02*
X7432381Y-26040045D01*
X7432381Y-26040045D02*
X7470476Y-26116236D01*
X7470476Y-26116236D02*
X7508571Y-26268617D01*
X7508571Y-26268617D02*
X7508571Y-26459093D01*
X7508571Y-26459093D02*
X7470476Y-26611474D01*
X7470476Y-26611474D02*
X7432381Y-26687664D01*
X7432381Y-26687664D02*
X7394286Y-26725760D01*
X7394286Y-26725760D02*
X7318095Y-26763855D01*
X7318095Y-26763855D02*
X7241905Y-26763855D01*
X7241905Y-26763855D02*
X7165714Y-26725760D01*
X7165714Y-26725760D02*
X7127619Y-26687664D01*
X7127619Y-26687664D02*
X7089524Y-26611474D01*
X7089524Y-26611474D02*
X7051428Y-26459093D01*
X7051428Y-26459093D02*
X7051428Y-26268617D01*
X7051428Y-26268617D02*
X7089524Y-26116236D01*
X7089524Y-26116236D02*
X7127619Y-26040045D01*
X7127619Y-26040045D02*
X7165714Y-26001950D01*
X7165714Y-26001950D02*
X7241905Y-25963855D01*
X8003810Y-25963855D02*
X8080000Y-25963855D01*
X8080000Y-25963855D02*
X8156191Y-26001950D01*
X8156191Y-26001950D02*
X8194286Y-26040045D01*
X8194286Y-26040045D02*
X8232381Y-26116236D01*
X8232381Y-26116236D02*
X8270476Y-26268617D01*
X8270476Y-26268617D02*
X8270476Y-26459093D01*
X8270476Y-26459093D02*
X8232381Y-26611474D01*
X8232381Y-26611474D02*
X8194286Y-26687664D01*
X8194286Y-26687664D02*
X8156191Y-26725760D01*
X8156191Y-26725760D02*
X8080000Y-26763855D01*
X8080000Y-26763855D02*
X8003810Y-26763855D01*
X8003810Y-26763855D02*
X7927619Y-26725760D01*
X7927619Y-26725760D02*
X7889524Y-26687664D01*
X7889524Y-26687664D02*
X7851429Y-26611474D01*
X7851429Y-26611474D02*
X7813333Y-26459093D01*
X7813333Y-26459093D02*
X7813333Y-26268617D01*
X7813333Y-26268617D02*
X7851429Y-26116236D01*
X7851429Y-26116236D02*
X7889524Y-26040045D01*
X7889524Y-26040045D02*
X7927619Y-26001950D01*
X7927619Y-26001950D02*
X8003810Y-25963855D01*
D11*
X6320476Y-28259530D02*
X6296667Y-28283340D01*
X6296667Y-28283340D02*
X6225238Y-28307149D01*
X6225238Y-28307149D02*
X6177619Y-28307149D01*
X6177619Y-28307149D02*
X6106191Y-28283340D01*
X6106191Y-28283340D02*
X6058572Y-28235720D01*
X6058572Y-28235720D02*
X6034762Y-28188101D01*
X6034762Y-28188101D02*
X6010953Y-28092863D01*
X6010953Y-28092863D02*
X6010953Y-28021435D01*
X6010953Y-28021435D02*
X6034762Y-27926197D01*
X6034762Y-27926197D02*
X6058572Y-27878578D01*
X6058572Y-27878578D02*
X6106191Y-27830959D01*
X6106191Y-27830959D02*
X6177619Y-27807149D01*
X6177619Y-27807149D02*
X6225238Y-27807149D01*
X6225238Y-27807149D02*
X6296667Y-27830959D01*
X6296667Y-27830959D02*
X6320476Y-27854768D01*
X6796667Y-28307149D02*
X6510953Y-28307149D01*
X6653810Y-28307149D02*
X6653810Y-27807149D01*
X6653810Y-27807149D02*
X6606191Y-27878578D01*
X6606191Y-27878578D02*
X6558572Y-27926197D01*
X6558572Y-27926197D02*
X6510953Y-27950006D01*
X7106190Y-27807149D02*
X7153809Y-27807149D01*
X7153809Y-27807149D02*
X7201428Y-27830959D01*
X7201428Y-27830959D02*
X7225238Y-27854768D01*
X7225238Y-27854768D02*
X7249047Y-27902387D01*
X7249047Y-27902387D02*
X7272857Y-27997625D01*
X7272857Y-27997625D02*
X7272857Y-28116673D01*
X7272857Y-28116673D02*
X7249047Y-28211911D01*
X7249047Y-28211911D02*
X7225238Y-28259530D01*
X7225238Y-28259530D02*
X7201428Y-28283340D01*
X7201428Y-28283340D02*
X7153809Y-28307149D01*
X7153809Y-28307149D02*
X7106190Y-28307149D01*
X7106190Y-28307149D02*
X7058571Y-28283340D01*
X7058571Y-28283340D02*
X7034762Y-28259530D01*
X7034762Y-28259530D02*
X7010952Y-28211911D01*
X7010952Y-28211911D02*
X6987143Y-28116673D01*
X6987143Y-28116673D02*
X6987143Y-27997625D01*
X6987143Y-27997625D02*
X7010952Y-27902387D01*
X7010952Y-27902387D02*
X7034762Y-27854768D01*
X7034762Y-27854768D02*
X7058571Y-27830959D01*
X7058571Y-27830959D02*
X7106190Y-27807149D01*
X7582380Y-27807149D02*
X7629999Y-27807149D01*
X7629999Y-27807149D02*
X7677618Y-27830959D01*
X7677618Y-27830959D02*
X7701428Y-27854768D01*
X7701428Y-27854768D02*
X7725237Y-27902387D01*
X7725237Y-27902387D02*
X7749047Y-27997625D01*
X7749047Y-27997625D02*
X7749047Y-28116673D01*
X7749047Y-28116673D02*
X7725237Y-28211911D01*
X7725237Y-28211911D02*
X7701428Y-28259530D01*
X7701428Y-28259530D02*
X7677618Y-28283340D01*
X7677618Y-28283340D02*
X7629999Y-28307149D01*
X7629999Y-28307149D02*
X7582380Y-28307149D01*
X7582380Y-28307149D02*
X7534761Y-28283340D01*
X7534761Y-28283340D02*
X7510952Y-28259530D01*
X7510952Y-28259530D02*
X7487142Y-28211911D01*
X7487142Y-28211911D02*
X7463333Y-28116673D01*
X7463333Y-28116673D02*
X7463333Y-27997625D01*
X7463333Y-27997625D02*
X7487142Y-27902387D01*
X7487142Y-27902387D02*
X7510952Y-27854768D01*
X7510952Y-27854768D02*
X7534761Y-27830959D01*
X7534761Y-27830959D02*
X7582380Y-27807149D01*
D10*
X26116667Y-27863855D02*
X25850000Y-27482902D01*
X25659524Y-27863855D02*
X25659524Y-27063855D01*
X25659524Y-27063855D02*
X25964286Y-27063855D01*
X25964286Y-27063855D02*
X26040476Y-27101950D01*
X26040476Y-27101950D02*
X26078571Y-27140045D01*
X26078571Y-27140045D02*
X26116667Y-27216236D01*
X26116667Y-27216236D02*
X26116667Y-27330521D01*
X26116667Y-27330521D02*
X26078571Y-27406712D01*
X26078571Y-27406712D02*
X26040476Y-27444807D01*
X26040476Y-27444807D02*
X25964286Y-27482902D01*
X25964286Y-27482902D02*
X25659524Y-27482902D01*
X26497619Y-27863855D02*
X26650000Y-27863855D01*
X26650000Y-27863855D02*
X26726190Y-27825760D01*
X26726190Y-27825760D02*
X26764286Y-27787664D01*
X26764286Y-27787664D02*
X26840476Y-27673379D01*
X26840476Y-27673379D02*
X26878571Y-27520998D01*
X26878571Y-27520998D02*
X26878571Y-27216236D01*
X26878571Y-27216236D02*
X26840476Y-27140045D01*
X26840476Y-27140045D02*
X26802381Y-27101950D01*
X26802381Y-27101950D02*
X26726190Y-27063855D01*
X26726190Y-27063855D02*
X26573809Y-27063855D01*
X26573809Y-27063855D02*
X26497619Y-27101950D01*
X26497619Y-27101950D02*
X26459524Y-27140045D01*
X26459524Y-27140045D02*
X26421428Y-27216236D01*
X26421428Y-27216236D02*
X26421428Y-27406712D01*
X26421428Y-27406712D02*
X26459524Y-27482902D01*
X26459524Y-27482902D02*
X26497619Y-27520998D01*
X26497619Y-27520998D02*
X26573809Y-27559093D01*
X26573809Y-27559093D02*
X26726190Y-27559093D01*
X26726190Y-27559093D02*
X26802381Y-27520998D01*
X26802381Y-27520998D02*
X26840476Y-27482902D01*
X26840476Y-27482902D02*
X26878571Y-27406712D01*
D11*
X26166666Y-29377149D02*
X26000000Y-29139054D01*
X25880952Y-29377149D02*
X25880952Y-28877149D01*
X25880952Y-28877149D02*
X26071428Y-28877149D01*
X26071428Y-28877149D02*
X26119047Y-28900959D01*
X26119047Y-28900959D02*
X26142857Y-28924768D01*
X26142857Y-28924768D02*
X26166666Y-28972387D01*
X26166666Y-28972387D02*
X26166666Y-29043816D01*
X26166666Y-29043816D02*
X26142857Y-29091435D01*
X26142857Y-29091435D02*
X26119047Y-29115244D01*
X26119047Y-29115244D02*
X26071428Y-29139054D01*
X26071428Y-29139054D02*
X25880952Y-29139054D01*
X26404762Y-29377149D02*
X26500000Y-29377149D01*
X26500000Y-29377149D02*
X26547619Y-29353340D01*
X26547619Y-29353340D02*
X26571428Y-29329530D01*
X26571428Y-29329530D02*
X26619047Y-29258101D01*
X26619047Y-29258101D02*
X26642857Y-29162863D01*
X26642857Y-29162863D02*
X26642857Y-28972387D01*
X26642857Y-28972387D02*
X26619047Y-28924768D01*
X26619047Y-28924768D02*
X26595238Y-28900959D01*
X26595238Y-28900959D02*
X26547619Y-28877149D01*
X26547619Y-28877149D02*
X26452381Y-28877149D01*
X26452381Y-28877149D02*
X26404762Y-28900959D01*
X26404762Y-28900959D02*
X26380952Y-28924768D01*
X26380952Y-28924768D02*
X26357143Y-28972387D01*
X26357143Y-28972387D02*
X26357143Y-29091435D01*
X26357143Y-29091435D02*
X26380952Y-29139054D01*
X26380952Y-29139054D02*
X26404762Y-29162863D01*
X26404762Y-29162863D02*
X26452381Y-29186673D01*
X26452381Y-29186673D02*
X26547619Y-29186673D01*
X26547619Y-29186673D02*
X26595238Y-29162863D01*
X26595238Y-29162863D02*
X26619047Y-29139054D01*
X26619047Y-29139054D02*
X26642857Y-29091435D01*
D10*
X10354762Y-23863855D02*
X10088095Y-23482902D01*
X9897619Y-23863855D02*
X9897619Y-23063855D01*
X9897619Y-23063855D02*
X10202381Y-23063855D01*
X10202381Y-23063855D02*
X10278571Y-23101950D01*
X10278571Y-23101950D02*
X10316666Y-23140045D01*
X10316666Y-23140045D02*
X10354762Y-23216236D01*
X10354762Y-23216236D02*
X10354762Y-23330521D01*
X10354762Y-23330521D02*
X10316666Y-23406712D01*
X10316666Y-23406712D02*
X10278571Y-23444807D01*
X10278571Y-23444807D02*
X10202381Y-23482902D01*
X10202381Y-23482902D02*
X9897619Y-23482902D01*
X11116666Y-23863855D02*
X10659523Y-23863855D01*
X10888095Y-23863855D02*
X10888095Y-23063855D01*
X10888095Y-23063855D02*
X10811904Y-23178140D01*
X10811904Y-23178140D02*
X10735714Y-23254331D01*
X10735714Y-23254331D02*
X10659523Y-23292426D01*
X11611905Y-23063855D02*
X11688095Y-23063855D01*
X11688095Y-23063855D02*
X11764286Y-23101950D01*
X11764286Y-23101950D02*
X11802381Y-23140045D01*
X11802381Y-23140045D02*
X11840476Y-23216236D01*
X11840476Y-23216236D02*
X11878571Y-23368617D01*
X11878571Y-23368617D02*
X11878571Y-23559093D01*
X11878571Y-23559093D02*
X11840476Y-23711474D01*
X11840476Y-23711474D02*
X11802381Y-23787664D01*
X11802381Y-23787664D02*
X11764286Y-23825760D01*
X11764286Y-23825760D02*
X11688095Y-23863855D01*
X11688095Y-23863855D02*
X11611905Y-23863855D01*
X11611905Y-23863855D02*
X11535714Y-23825760D01*
X11535714Y-23825760D02*
X11497619Y-23787664D01*
X11497619Y-23787664D02*
X11459524Y-23711474D01*
X11459524Y-23711474D02*
X11421428Y-23559093D01*
X11421428Y-23559093D02*
X11421428Y-23368617D01*
X11421428Y-23368617D02*
X11459524Y-23216236D01*
X11459524Y-23216236D02*
X11497619Y-23140045D01*
X11497619Y-23140045D02*
X11535714Y-23101950D01*
X11535714Y-23101950D02*
X11611905Y-23063855D01*
X12183333Y-23140045D02*
X12221429Y-23101950D01*
X12221429Y-23101950D02*
X12297619Y-23063855D01*
X12297619Y-23063855D02*
X12488095Y-23063855D01*
X12488095Y-23063855D02*
X12564286Y-23101950D01*
X12564286Y-23101950D02*
X12602381Y-23140045D01*
X12602381Y-23140045D02*
X12640476Y-23216236D01*
X12640476Y-23216236D02*
X12640476Y-23292426D01*
X12640476Y-23292426D02*
X12602381Y-23406712D01*
X12602381Y-23406712D02*
X12145238Y-23863855D01*
X12145238Y-23863855D02*
X12640476Y-23863855D01*
D11*
X10690476Y-25377149D02*
X10523810Y-25139054D01*
X10404762Y-25377149D02*
X10404762Y-24877149D01*
X10404762Y-24877149D02*
X10595238Y-24877149D01*
X10595238Y-24877149D02*
X10642857Y-24900959D01*
X10642857Y-24900959D02*
X10666667Y-24924768D01*
X10666667Y-24924768D02*
X10690476Y-24972387D01*
X10690476Y-24972387D02*
X10690476Y-25043816D01*
X10690476Y-25043816D02*
X10666667Y-25091435D01*
X10666667Y-25091435D02*
X10642857Y-25115244D01*
X10642857Y-25115244D02*
X10595238Y-25139054D01*
X10595238Y-25139054D02*
X10404762Y-25139054D01*
X11166667Y-25377149D02*
X10880953Y-25377149D01*
X11023810Y-25377149D02*
X11023810Y-24877149D01*
X11023810Y-24877149D02*
X10976191Y-24948578D01*
X10976191Y-24948578D02*
X10928572Y-24996197D01*
X10928572Y-24996197D02*
X10880953Y-25020006D01*
X11476190Y-24877149D02*
X11523809Y-24877149D01*
X11523809Y-24877149D02*
X11571428Y-24900959D01*
X11571428Y-24900959D02*
X11595238Y-24924768D01*
X11595238Y-24924768D02*
X11619047Y-24972387D01*
X11619047Y-24972387D02*
X11642857Y-25067625D01*
X11642857Y-25067625D02*
X11642857Y-25186673D01*
X11642857Y-25186673D02*
X11619047Y-25281911D01*
X11619047Y-25281911D02*
X11595238Y-25329530D01*
X11595238Y-25329530D02*
X11571428Y-25353340D01*
X11571428Y-25353340D02*
X11523809Y-25377149D01*
X11523809Y-25377149D02*
X11476190Y-25377149D01*
X11476190Y-25377149D02*
X11428571Y-25353340D01*
X11428571Y-25353340D02*
X11404762Y-25329530D01*
X11404762Y-25329530D02*
X11380952Y-25281911D01*
X11380952Y-25281911D02*
X11357143Y-25186673D01*
X11357143Y-25186673D02*
X11357143Y-25067625D01*
X11357143Y-25067625D02*
X11380952Y-24972387D01*
X11380952Y-24972387D02*
X11404762Y-24924768D01*
X11404762Y-24924768D02*
X11428571Y-24900959D01*
X11428571Y-24900959D02*
X11476190Y-24877149D01*
X11833333Y-24924768D02*
X11857142Y-24900959D01*
X11857142Y-24900959D02*
X11904761Y-24877149D01*
X11904761Y-24877149D02*
X12023809Y-24877149D01*
X12023809Y-24877149D02*
X12071428Y-24900959D01*
X12071428Y-24900959D02*
X12095237Y-24924768D01*
X12095237Y-24924768D02*
X12119047Y-24972387D01*
X12119047Y-24972387D02*
X12119047Y-25020006D01*
X12119047Y-25020006D02*
X12095237Y-25091435D01*
X12095237Y-25091435D02*
X11809523Y-25377149D01*
X11809523Y-25377149D02*
X12119047Y-25377149D01*
D10*
X54891428Y-38793855D02*
X54891428Y-39365283D01*
X54891428Y-39365283D02*
X54853333Y-39479569D01*
X54853333Y-39479569D02*
X54777142Y-39555760D01*
X54777142Y-39555760D02*
X54662857Y-39593855D01*
X54662857Y-39593855D02*
X54586666Y-39593855D01*
X55691428Y-39593855D02*
X55234285Y-39593855D01*
X55462857Y-39593855D02*
X55462857Y-38793855D01*
X55462857Y-38793855D02*
X55386666Y-38908140D01*
X55386666Y-38908140D02*
X55310476Y-38984331D01*
X55310476Y-38984331D02*
X55234285Y-39022426D01*
X56186667Y-38793855D02*
X56262857Y-38793855D01*
X56262857Y-38793855D02*
X56339048Y-38831950D01*
X56339048Y-38831950D02*
X56377143Y-38870045D01*
X56377143Y-38870045D02*
X56415238Y-38946236D01*
X56415238Y-38946236D02*
X56453333Y-39098617D01*
X56453333Y-39098617D02*
X56453333Y-39289093D01*
X56453333Y-39289093D02*
X56415238Y-39441474D01*
X56415238Y-39441474D02*
X56377143Y-39517664D01*
X56377143Y-39517664D02*
X56339048Y-39555760D01*
X56339048Y-39555760D02*
X56262857Y-39593855D01*
X56262857Y-39593855D02*
X56186667Y-39593855D01*
X56186667Y-39593855D02*
X56110476Y-39555760D01*
X56110476Y-39555760D02*
X56072381Y-39517664D01*
X56072381Y-39517664D02*
X56034286Y-39441474D01*
X56034286Y-39441474D02*
X55996190Y-39289093D01*
X55996190Y-39289093D02*
X55996190Y-39098617D01*
X55996190Y-39098617D02*
X56034286Y-38946236D01*
X56034286Y-38946236D02*
X56072381Y-38870045D01*
X56072381Y-38870045D02*
X56110476Y-38831950D01*
X56110476Y-38831950D02*
X56186667Y-38793855D01*
X56720000Y-38793855D02*
X57215238Y-38793855D01*
X57215238Y-38793855D02*
X56948572Y-39098617D01*
X56948572Y-39098617D02*
X57062857Y-39098617D01*
X57062857Y-39098617D02*
X57139048Y-39136712D01*
X57139048Y-39136712D02*
X57177143Y-39174807D01*
X57177143Y-39174807D02*
X57215238Y-39250998D01*
X57215238Y-39250998D02*
X57215238Y-39441474D01*
X57215238Y-39441474D02*
X57177143Y-39517664D01*
X57177143Y-39517664D02*
X57139048Y-39555760D01*
X57139048Y-39555760D02*
X57062857Y-39593855D01*
X57062857Y-39593855D02*
X56834286Y-39593855D01*
X56834286Y-39593855D02*
X56758095Y-39555760D01*
X56758095Y-39555760D02*
X56720000Y-39517664D01*
D12*
X55374819Y-44555714D02*
X56089104Y-44555714D01*
X56089104Y-44555714D02*
X56231961Y-44603333D01*
X56231961Y-44603333D02*
X56327200Y-44698571D01*
X56327200Y-44698571D02*
X56374819Y-44841428D01*
X56374819Y-44841428D02*
X56374819Y-44936666D01*
X56374819Y-43555714D02*
X56374819Y-44127142D01*
X56374819Y-43841428D02*
X55374819Y-43841428D01*
X55374819Y-43841428D02*
X55517676Y-43936666D01*
X55517676Y-43936666D02*
X55612914Y-44031904D01*
X55612914Y-44031904D02*
X55660533Y-44127142D01*
X55374819Y-42936666D02*
X55374819Y-42841428D01*
X55374819Y-42841428D02*
X55422438Y-42746190D01*
X55422438Y-42746190D02*
X55470057Y-42698571D01*
X55470057Y-42698571D02*
X55565295Y-42650952D01*
X55565295Y-42650952D02*
X55755771Y-42603333D01*
X55755771Y-42603333D02*
X55993866Y-42603333D01*
X55993866Y-42603333D02*
X56184342Y-42650952D01*
X56184342Y-42650952D02*
X56279580Y-42698571D01*
X56279580Y-42698571D02*
X56327200Y-42746190D01*
X56327200Y-42746190D02*
X56374819Y-42841428D01*
X56374819Y-42841428D02*
X56374819Y-42936666D01*
X56374819Y-42936666D02*
X56327200Y-43031904D01*
X56327200Y-43031904D02*
X56279580Y-43079523D01*
X56279580Y-43079523D02*
X56184342Y-43127142D01*
X56184342Y-43127142D02*
X55993866Y-43174761D01*
X55993866Y-43174761D02*
X55755771Y-43174761D01*
X55755771Y-43174761D02*
X55565295Y-43127142D01*
X55565295Y-43127142D02*
X55470057Y-43079523D01*
X55470057Y-43079523D02*
X55422438Y-43031904D01*
X55422438Y-43031904D02*
X55374819Y-42936666D01*
X55374819Y-42269999D02*
X55374819Y-41650952D01*
X55374819Y-41650952D02*
X55755771Y-41984285D01*
X55755771Y-41984285D02*
X55755771Y-41841428D01*
X55755771Y-41841428D02*
X55803390Y-41746190D01*
X55803390Y-41746190D02*
X55851009Y-41698571D01*
X55851009Y-41698571D02*
X55946247Y-41650952D01*
X55946247Y-41650952D02*
X56184342Y-41650952D01*
X56184342Y-41650952D02*
X56279580Y-41698571D01*
X56279580Y-41698571D02*
X56327200Y-41746190D01*
X56327200Y-41746190D02*
X56374819Y-41841428D01*
X56374819Y-41841428D02*
X56374819Y-42127142D01*
X56374819Y-42127142D02*
X56327200Y-42222380D01*
X56327200Y-42222380D02*
X56279580Y-42269999D01*
D10*
X25065714Y-16087664D02*
X25027618Y-16125760D01*
X25027618Y-16125760D02*
X24913333Y-16163855D01*
X24913333Y-16163855D02*
X24837142Y-16163855D01*
X24837142Y-16163855D02*
X24722856Y-16125760D01*
X24722856Y-16125760D02*
X24646666Y-16049569D01*
X24646666Y-16049569D02*
X24608571Y-15973379D01*
X24608571Y-15973379D02*
X24570475Y-15820998D01*
X24570475Y-15820998D02*
X24570475Y-15706712D01*
X24570475Y-15706712D02*
X24608571Y-15554331D01*
X24608571Y-15554331D02*
X24646666Y-15478140D01*
X24646666Y-15478140D02*
X24722856Y-15401950D01*
X24722856Y-15401950D02*
X24837142Y-15363855D01*
X24837142Y-15363855D02*
X24913333Y-15363855D01*
X24913333Y-15363855D02*
X25027618Y-15401950D01*
X25027618Y-15401950D02*
X25065714Y-15440045D01*
X25827618Y-16163855D02*
X25370475Y-16163855D01*
X25599047Y-16163855D02*
X25599047Y-15363855D01*
X25599047Y-15363855D02*
X25522856Y-15478140D01*
X25522856Y-15478140D02*
X25446666Y-15554331D01*
X25446666Y-15554331D02*
X25370475Y-15592426D01*
X26513333Y-15630521D02*
X26513333Y-16163855D01*
X26322857Y-15325760D02*
X26132380Y-15897188D01*
X26132380Y-15897188D02*
X26627619Y-15897188D01*
D11*
X25258571Y-17659530D02*
X25234762Y-17683340D01*
X25234762Y-17683340D02*
X25163333Y-17707149D01*
X25163333Y-17707149D02*
X25115714Y-17707149D01*
X25115714Y-17707149D02*
X25044286Y-17683340D01*
X25044286Y-17683340D02*
X24996667Y-17635720D01*
X24996667Y-17635720D02*
X24972857Y-17588101D01*
X24972857Y-17588101D02*
X24949048Y-17492863D01*
X24949048Y-17492863D02*
X24949048Y-17421435D01*
X24949048Y-17421435D02*
X24972857Y-17326197D01*
X24972857Y-17326197D02*
X24996667Y-17278578D01*
X24996667Y-17278578D02*
X25044286Y-17230959D01*
X25044286Y-17230959D02*
X25115714Y-17207149D01*
X25115714Y-17207149D02*
X25163333Y-17207149D01*
X25163333Y-17207149D02*
X25234762Y-17230959D01*
X25234762Y-17230959D02*
X25258571Y-17254768D01*
X25734762Y-17707149D02*
X25449048Y-17707149D01*
X25591905Y-17707149D02*
X25591905Y-17207149D01*
X25591905Y-17207149D02*
X25544286Y-17278578D01*
X25544286Y-17278578D02*
X25496667Y-17326197D01*
X25496667Y-17326197D02*
X25449048Y-17350006D01*
X26163333Y-17373816D02*
X26163333Y-17707149D01*
X26044285Y-17183340D02*
X25925238Y-17540482D01*
X25925238Y-17540482D02*
X26234761Y-17540482D01*
D10*
X11471428Y556144D02*
X11471428Y-15283D01*
X11471428Y-15283D02*
X11433333Y-129569D01*
X11433333Y-129569D02*
X11357142Y-205760D01*
X11357142Y-205760D02*
X11242857Y-243855D01*
X11242857Y-243855D02*
X11166666Y-243855D01*
X12271428Y-243855D02*
X11814285Y-243855D01*
X12042857Y-243855D02*
X12042857Y556144D01*
X12042857Y556144D02*
X11966666Y441859D01*
X11966666Y441859D02*
X11890476Y365668D01*
X11890476Y365668D02*
X11814285Y327573D01*
X12766667Y556144D02*
X12842857Y556144D01*
X12842857Y556144D02*
X12919048Y518049D01*
X12919048Y518049D02*
X12957143Y479954D01*
X12957143Y479954D02*
X12995238Y403763D01*
X12995238Y403763D02*
X13033333Y251382D01*
X13033333Y251382D02*
X13033333Y60906D01*
X13033333Y60906D02*
X12995238Y-91474D01*
X12995238Y-91474D02*
X12957143Y-167664D01*
X12957143Y-167664D02*
X12919048Y-205760D01*
X12919048Y-205760D02*
X12842857Y-243855D01*
X12842857Y-243855D02*
X12766667Y-243855D01*
X12766667Y-243855D02*
X12690476Y-205760D01*
X12690476Y-205760D02*
X12652381Y-167664D01*
X12652381Y-167664D02*
X12614286Y-91474D01*
X12614286Y-91474D02*
X12576190Y60906D01*
X12576190Y60906D02*
X12576190Y251382D01*
X12576190Y251382D02*
X12614286Y403763D01*
X12614286Y403763D02*
X12652381Y479954D01*
X12652381Y479954D02*
X12690476Y518049D01*
X12690476Y518049D02*
X12766667Y556144D01*
X13795238Y-243855D02*
X13338095Y-243855D01*
X13566667Y-243855D02*
X13566667Y556144D01*
X13566667Y556144D02*
X13490476Y441859D01*
X13490476Y441859D02*
X13414286Y365668D01*
X13414286Y365668D02*
X13338095Y327573D01*
D12*
X11954819Y-5305714D02*
X12669104Y-5305714D01*
X12669104Y-5305714D02*
X12811961Y-5353333D01*
X12811961Y-5353333D02*
X12907200Y-5448571D01*
X12907200Y-5448571D02*
X12954819Y-5591428D01*
X12954819Y-5591428D02*
X12954819Y-5686666D01*
X12954819Y-4305714D02*
X12954819Y-4877142D01*
X12954819Y-4591428D02*
X11954819Y-4591428D01*
X11954819Y-4591428D02*
X12097676Y-4686666D01*
X12097676Y-4686666D02*
X12192914Y-4781904D01*
X12192914Y-4781904D02*
X12240533Y-4877142D01*
X11954819Y-3686666D02*
X11954819Y-3591428D01*
X11954819Y-3591428D02*
X12002438Y-3496190D01*
X12002438Y-3496190D02*
X12050057Y-3448571D01*
X12050057Y-3448571D02*
X12145295Y-3400952D01*
X12145295Y-3400952D02*
X12335771Y-3353333D01*
X12335771Y-3353333D02*
X12573866Y-3353333D01*
X12573866Y-3353333D02*
X12764342Y-3400952D01*
X12764342Y-3400952D02*
X12859580Y-3448571D01*
X12859580Y-3448571D02*
X12907200Y-3496190D01*
X12907200Y-3496190D02*
X12954819Y-3591428D01*
X12954819Y-3591428D02*
X12954819Y-3686666D01*
X12954819Y-3686666D02*
X12907200Y-3781904D01*
X12907200Y-3781904D02*
X12859580Y-3829523D01*
X12859580Y-3829523D02*
X12764342Y-3877142D01*
X12764342Y-3877142D02*
X12573866Y-3924761D01*
X12573866Y-3924761D02*
X12335771Y-3924761D01*
X12335771Y-3924761D02*
X12145295Y-3877142D01*
X12145295Y-3877142D02*
X12050057Y-3829523D01*
X12050057Y-3829523D02*
X12002438Y-3781904D01*
X12002438Y-3781904D02*
X11954819Y-3686666D01*
X12954819Y-2400952D02*
X12954819Y-2972380D01*
X12954819Y-2686666D02*
X11954819Y-2686666D01*
X11954819Y-2686666D02*
X12097676Y-2781904D01*
X12097676Y-2781904D02*
X12192914Y-2877142D01*
X12192914Y-2877142D02*
X12240533Y-2972380D01*
D10*
X12365714Y-35463855D02*
X12099047Y-35082902D01*
X11908571Y-35463855D02*
X11908571Y-34663855D01*
X11908571Y-34663855D02*
X12213333Y-34663855D01*
X12213333Y-34663855D02*
X12289523Y-34701950D01*
X12289523Y-34701950D02*
X12327618Y-34740045D01*
X12327618Y-34740045D02*
X12365714Y-34816236D01*
X12365714Y-34816236D02*
X12365714Y-34930521D01*
X12365714Y-34930521D02*
X12327618Y-35006712D01*
X12327618Y-35006712D02*
X12289523Y-35044807D01*
X12289523Y-35044807D02*
X12213333Y-35082902D01*
X12213333Y-35082902D02*
X11908571Y-35082902D01*
X13127618Y-35463855D02*
X12670475Y-35463855D01*
X12899047Y-35463855D02*
X12899047Y-34663855D01*
X12899047Y-34663855D02*
X12822856Y-34778140D01*
X12822856Y-34778140D02*
X12746666Y-34854331D01*
X12746666Y-34854331D02*
X12670475Y-34892426D01*
X13394285Y-34663855D02*
X13927619Y-34663855D01*
X13927619Y-34663855D02*
X13584761Y-35463855D01*
X12365714Y-37293855D02*
X12099047Y-36912902D01*
X11908571Y-37293855D02*
X11908571Y-36493855D01*
X11908571Y-36493855D02*
X12213333Y-36493855D01*
X12213333Y-36493855D02*
X12289523Y-36531950D01*
X12289523Y-36531950D02*
X12327618Y-36570045D01*
X12327618Y-36570045D02*
X12365714Y-36646236D01*
X12365714Y-36646236D02*
X12365714Y-36760521D01*
X12365714Y-36760521D02*
X12327618Y-36836712D01*
X12327618Y-36836712D02*
X12289523Y-36874807D01*
X12289523Y-36874807D02*
X12213333Y-36912902D01*
X12213333Y-36912902D02*
X11908571Y-36912902D01*
X13127618Y-37293855D02*
X12670475Y-37293855D01*
X12899047Y-37293855D02*
X12899047Y-36493855D01*
X12899047Y-36493855D02*
X12822856Y-36608140D01*
X12822856Y-36608140D02*
X12746666Y-36684331D01*
X12746666Y-36684331D02*
X12670475Y-36722426D01*
X13394285Y-36493855D02*
X13927619Y-36493855D01*
X13927619Y-36493855D02*
X13584761Y-37293855D01*
X17965714Y-35463855D02*
X17699047Y-35082902D01*
X17508571Y-35463855D02*
X17508571Y-34663855D01*
X17508571Y-34663855D02*
X17813333Y-34663855D01*
X17813333Y-34663855D02*
X17889523Y-34701950D01*
X17889523Y-34701950D02*
X17927618Y-34740045D01*
X17927618Y-34740045D02*
X17965714Y-34816236D01*
X17965714Y-34816236D02*
X17965714Y-34930521D01*
X17965714Y-34930521D02*
X17927618Y-35006712D01*
X17927618Y-35006712D02*
X17889523Y-35044807D01*
X17889523Y-35044807D02*
X17813333Y-35082902D01*
X17813333Y-35082902D02*
X17508571Y-35082902D01*
X18727618Y-35463855D02*
X18270475Y-35463855D01*
X18499047Y-35463855D02*
X18499047Y-34663855D01*
X18499047Y-34663855D02*
X18422856Y-34778140D01*
X18422856Y-34778140D02*
X18346666Y-34854331D01*
X18346666Y-34854331D02*
X18270475Y-34892426D01*
X19184761Y-35006712D02*
X19108571Y-34968617D01*
X19108571Y-34968617D02*
X19070476Y-34930521D01*
X19070476Y-34930521D02*
X19032380Y-34854331D01*
X19032380Y-34854331D02*
X19032380Y-34816236D01*
X19032380Y-34816236D02*
X19070476Y-34740045D01*
X19070476Y-34740045D02*
X19108571Y-34701950D01*
X19108571Y-34701950D02*
X19184761Y-34663855D01*
X19184761Y-34663855D02*
X19337142Y-34663855D01*
X19337142Y-34663855D02*
X19413333Y-34701950D01*
X19413333Y-34701950D02*
X19451428Y-34740045D01*
X19451428Y-34740045D02*
X19489523Y-34816236D01*
X19489523Y-34816236D02*
X19489523Y-34854331D01*
X19489523Y-34854331D02*
X19451428Y-34930521D01*
X19451428Y-34930521D02*
X19413333Y-34968617D01*
X19413333Y-34968617D02*
X19337142Y-35006712D01*
X19337142Y-35006712D02*
X19184761Y-35006712D01*
X19184761Y-35006712D02*
X19108571Y-35044807D01*
X19108571Y-35044807D02*
X19070476Y-35082902D01*
X19070476Y-35082902D02*
X19032380Y-35159093D01*
X19032380Y-35159093D02*
X19032380Y-35311474D01*
X19032380Y-35311474D02*
X19070476Y-35387664D01*
X19070476Y-35387664D02*
X19108571Y-35425760D01*
X19108571Y-35425760D02*
X19184761Y-35463855D01*
X19184761Y-35463855D02*
X19337142Y-35463855D01*
X19337142Y-35463855D02*
X19413333Y-35425760D01*
X19413333Y-35425760D02*
X19451428Y-35387664D01*
X19451428Y-35387664D02*
X19489523Y-35311474D01*
X19489523Y-35311474D02*
X19489523Y-35159093D01*
X19489523Y-35159093D02*
X19451428Y-35082902D01*
X19451428Y-35082902D02*
X19413333Y-35044807D01*
X19413333Y-35044807D02*
X19337142Y-35006712D01*
X17965714Y-37293855D02*
X17699047Y-36912902D01*
X17508571Y-37293855D02*
X17508571Y-36493855D01*
X17508571Y-36493855D02*
X17813333Y-36493855D01*
X17813333Y-36493855D02*
X17889523Y-36531950D01*
X17889523Y-36531950D02*
X17927618Y-36570045D01*
X17927618Y-36570045D02*
X17965714Y-36646236D01*
X17965714Y-36646236D02*
X17965714Y-36760521D01*
X17965714Y-36760521D02*
X17927618Y-36836712D01*
X17927618Y-36836712D02*
X17889523Y-36874807D01*
X17889523Y-36874807D02*
X17813333Y-36912902D01*
X17813333Y-36912902D02*
X17508571Y-36912902D01*
X18727618Y-37293855D02*
X18270475Y-37293855D01*
X18499047Y-37293855D02*
X18499047Y-36493855D01*
X18499047Y-36493855D02*
X18422856Y-36608140D01*
X18422856Y-36608140D02*
X18346666Y-36684331D01*
X18346666Y-36684331D02*
X18270475Y-36722426D01*
X19184761Y-36836712D02*
X19108571Y-36798617D01*
X19108571Y-36798617D02*
X19070476Y-36760521D01*
X19070476Y-36760521D02*
X19032380Y-36684331D01*
X19032380Y-36684331D02*
X19032380Y-36646236D01*
X19032380Y-36646236D02*
X19070476Y-36570045D01*
X19070476Y-36570045D02*
X19108571Y-36531950D01*
X19108571Y-36531950D02*
X19184761Y-36493855D01*
X19184761Y-36493855D02*
X19337142Y-36493855D01*
X19337142Y-36493855D02*
X19413333Y-36531950D01*
X19413333Y-36531950D02*
X19451428Y-36570045D01*
X19451428Y-36570045D02*
X19489523Y-36646236D01*
X19489523Y-36646236D02*
X19489523Y-36684331D01*
X19489523Y-36684331D02*
X19451428Y-36760521D01*
X19451428Y-36760521D02*
X19413333Y-36798617D01*
X19413333Y-36798617D02*
X19337142Y-36836712D01*
X19337142Y-36836712D02*
X19184761Y-36836712D01*
X19184761Y-36836712D02*
X19108571Y-36874807D01*
X19108571Y-36874807D02*
X19070476Y-36912902D01*
X19070476Y-36912902D02*
X19032380Y-36989093D01*
X19032380Y-36989093D02*
X19032380Y-37141474D01*
X19032380Y-37141474D02*
X19070476Y-37217664D01*
X19070476Y-37217664D02*
X19108571Y-37255760D01*
X19108571Y-37255760D02*
X19184761Y-37293855D01*
X19184761Y-37293855D02*
X19337142Y-37293855D01*
X19337142Y-37293855D02*
X19413333Y-37255760D01*
X19413333Y-37255760D02*
X19451428Y-37217664D01*
X19451428Y-37217664D02*
X19489523Y-37141474D01*
X19489523Y-37141474D02*
X19489523Y-36989093D01*
X19489523Y-36989093D02*
X19451428Y-36912902D01*
X19451428Y-36912902D02*
X19413333Y-36874807D01*
X19413333Y-36874807D02*
X19337142Y-36836712D01*
X15908571Y-23363855D02*
X15908571Y-24011474D01*
X15908571Y-24011474D02*
X15946666Y-24087664D01*
X15946666Y-24087664D02*
X15984761Y-24125760D01*
X15984761Y-24125760D02*
X16060952Y-24163855D01*
X16060952Y-24163855D02*
X16213333Y-24163855D01*
X16213333Y-24163855D02*
X16289523Y-24125760D01*
X16289523Y-24125760D02*
X16327618Y-24087664D01*
X16327618Y-24087664D02*
X16365714Y-24011474D01*
X16365714Y-24011474D02*
X16365714Y-23363855D01*
X17165713Y-24163855D02*
X16708570Y-24163855D01*
X16937142Y-24163855D02*
X16937142Y-23363855D01*
X16937142Y-23363855D02*
X16860951Y-23478140D01*
X16860951Y-23478140D02*
X16784761Y-23554331D01*
X16784761Y-23554331D02*
X16708570Y-23592426D01*
X17660952Y-23363855D02*
X17737142Y-23363855D01*
X17737142Y-23363855D02*
X17813333Y-23401950D01*
X17813333Y-23401950D02*
X17851428Y-23440045D01*
X17851428Y-23440045D02*
X17889523Y-23516236D01*
X17889523Y-23516236D02*
X17927618Y-23668617D01*
X17927618Y-23668617D02*
X17927618Y-23859093D01*
X17927618Y-23859093D02*
X17889523Y-24011474D01*
X17889523Y-24011474D02*
X17851428Y-24087664D01*
X17851428Y-24087664D02*
X17813333Y-24125760D01*
X17813333Y-24125760D02*
X17737142Y-24163855D01*
X17737142Y-24163855D02*
X17660952Y-24163855D01*
X17660952Y-24163855D02*
X17584761Y-24125760D01*
X17584761Y-24125760D02*
X17546666Y-24087664D01*
X17546666Y-24087664D02*
X17508571Y-24011474D01*
X17508571Y-24011474D02*
X17470475Y-23859093D01*
X17470475Y-23859093D02*
X17470475Y-23668617D01*
X17470475Y-23668617D02*
X17508571Y-23516236D01*
X17508571Y-23516236D02*
X17546666Y-23440045D01*
X17546666Y-23440045D02*
X17584761Y-23401950D01*
X17584761Y-23401950D02*
X17660952Y-23363855D01*
X18232380Y-23440045D02*
X18270476Y-23401950D01*
X18270476Y-23401950D02*
X18346666Y-23363855D01*
X18346666Y-23363855D02*
X18537142Y-23363855D01*
X18537142Y-23363855D02*
X18613333Y-23401950D01*
X18613333Y-23401950D02*
X18651428Y-23440045D01*
X18651428Y-23440045D02*
X18689523Y-23516236D01*
X18689523Y-23516236D02*
X18689523Y-23592426D01*
X18689523Y-23592426D02*
X18651428Y-23706712D01*
X18651428Y-23706712D02*
X18194285Y-24163855D01*
X18194285Y-24163855D02*
X18689523Y-24163855D01*
D13*
X16302857Y-25439012D02*
X16302857Y-25900441D01*
X16302857Y-25900441D02*
X16330000Y-25954727D01*
X16330000Y-25954727D02*
X16357143Y-25981870D01*
X16357143Y-25981870D02*
X16411428Y-26009012D01*
X16411428Y-26009012D02*
X16520000Y-26009012D01*
X16520000Y-26009012D02*
X16574285Y-25981870D01*
X16574285Y-25981870D02*
X16601428Y-25954727D01*
X16601428Y-25954727D02*
X16628571Y-25900441D01*
X16628571Y-25900441D02*
X16628571Y-25439012D01*
X17198571Y-26009012D02*
X16872857Y-26009012D01*
X17035714Y-26009012D02*
X17035714Y-25439012D01*
X17035714Y-25439012D02*
X16981428Y-25520441D01*
X16981428Y-25520441D02*
X16927143Y-25574727D01*
X16927143Y-25574727D02*
X16872857Y-25601870D01*
X17551428Y-25439012D02*
X17605714Y-25439012D01*
X17605714Y-25439012D02*
X17660000Y-25466155D01*
X17660000Y-25466155D02*
X17687143Y-25493298D01*
X17687143Y-25493298D02*
X17714285Y-25547584D01*
X17714285Y-25547584D02*
X17741428Y-25656155D01*
X17741428Y-25656155D02*
X17741428Y-25791870D01*
X17741428Y-25791870D02*
X17714285Y-25900441D01*
X17714285Y-25900441D02*
X17687143Y-25954727D01*
X17687143Y-25954727D02*
X17660000Y-25981870D01*
X17660000Y-25981870D02*
X17605714Y-26009012D01*
X17605714Y-26009012D02*
X17551428Y-26009012D01*
X17551428Y-26009012D02*
X17497143Y-25981870D01*
X17497143Y-25981870D02*
X17470000Y-25954727D01*
X17470000Y-25954727D02*
X17442857Y-25900441D01*
X17442857Y-25900441D02*
X17415714Y-25791870D01*
X17415714Y-25791870D02*
X17415714Y-25656155D01*
X17415714Y-25656155D02*
X17442857Y-25547584D01*
X17442857Y-25547584D02*
X17470000Y-25493298D01*
X17470000Y-25493298D02*
X17497143Y-25466155D01*
X17497143Y-25466155D02*
X17551428Y-25439012D01*
X17958571Y-25493298D02*
X17985714Y-25466155D01*
X17985714Y-25466155D02*
X18040000Y-25439012D01*
X18040000Y-25439012D02*
X18175714Y-25439012D01*
X18175714Y-25439012D02*
X18230000Y-25466155D01*
X18230000Y-25466155D02*
X18257142Y-25493298D01*
X18257142Y-25493298D02*
X18284285Y-25547584D01*
X18284285Y-25547584D02*
X18284285Y-25601870D01*
X18284285Y-25601870D02*
X18257142Y-25683298D01*
X18257142Y-25683298D02*
X17931428Y-26009012D01*
X17931428Y-26009012D02*
X18284285Y-26009012D01*
D10*
X25318333Y-52863855D02*
X25318333Y-53435283D01*
X25318333Y-53435283D02*
X25280238Y-53549569D01*
X25280238Y-53549569D02*
X25204047Y-53625760D01*
X25204047Y-53625760D02*
X25089762Y-53663855D01*
X25089762Y-53663855D02*
X25013571Y-53663855D01*
X26080238Y-52863855D02*
X25699286Y-52863855D01*
X25699286Y-52863855D02*
X25661190Y-53244807D01*
X25661190Y-53244807D02*
X25699286Y-53206712D01*
X25699286Y-53206712D02*
X25775476Y-53168617D01*
X25775476Y-53168617D02*
X25965952Y-53168617D01*
X25965952Y-53168617D02*
X26042143Y-53206712D01*
X26042143Y-53206712D02*
X26080238Y-53244807D01*
X26080238Y-53244807D02*
X26118333Y-53320998D01*
X26118333Y-53320998D02*
X26118333Y-53511474D01*
X26118333Y-53511474D02*
X26080238Y-53587664D01*
X26080238Y-53587664D02*
X26042143Y-53625760D01*
X26042143Y-53625760D02*
X25965952Y-53663855D01*
X25965952Y-53663855D02*
X25775476Y-53663855D01*
X25775476Y-53663855D02*
X25699286Y-53625760D01*
X25699286Y-53625760D02*
X25661190Y-53587664D01*
D12*
X25246666Y-56154819D02*
X25246666Y-56869104D01*
X25246666Y-56869104D02*
X25199047Y-57011961D01*
X25199047Y-57011961D02*
X25103809Y-57107200D01*
X25103809Y-57107200D02*
X24960952Y-57154819D01*
X24960952Y-57154819D02*
X24865714Y-57154819D01*
X26199047Y-56154819D02*
X25722857Y-56154819D01*
X25722857Y-56154819D02*
X25675238Y-56631009D01*
X25675238Y-56631009D02*
X25722857Y-56583390D01*
X25722857Y-56583390D02*
X25818095Y-56535771D01*
X25818095Y-56535771D02*
X26056190Y-56535771D01*
X26056190Y-56535771D02*
X26151428Y-56583390D01*
X26151428Y-56583390D02*
X26199047Y-56631009D01*
X26199047Y-56631009D02*
X26246666Y-56726247D01*
X26246666Y-56726247D02*
X26246666Y-56964342D01*
X26246666Y-56964342D02*
X26199047Y-57059580D01*
X26199047Y-57059580D02*
X26151428Y-57107200D01*
X26151428Y-57107200D02*
X26056190Y-57154819D01*
X26056190Y-57154819D02*
X25818095Y-57154819D01*
X25818095Y-57154819D02*
X25722857Y-57107200D01*
X25722857Y-57107200D02*
X25675238Y-57059580D01*
D10*
X25065714Y-18787664D02*
X25027618Y-18825760D01*
X25027618Y-18825760D02*
X24913333Y-18863855D01*
X24913333Y-18863855D02*
X24837142Y-18863855D01*
X24837142Y-18863855D02*
X24722856Y-18825760D01*
X24722856Y-18825760D02*
X24646666Y-18749569D01*
X24646666Y-18749569D02*
X24608571Y-18673379D01*
X24608571Y-18673379D02*
X24570475Y-18520998D01*
X24570475Y-18520998D02*
X24570475Y-18406712D01*
X24570475Y-18406712D02*
X24608571Y-18254331D01*
X24608571Y-18254331D02*
X24646666Y-18178140D01*
X24646666Y-18178140D02*
X24722856Y-18101950D01*
X24722856Y-18101950D02*
X24837142Y-18063855D01*
X24837142Y-18063855D02*
X24913333Y-18063855D01*
X24913333Y-18063855D02*
X25027618Y-18101950D01*
X25027618Y-18101950D02*
X25065714Y-18140045D01*
X25827618Y-18863855D02*
X25370475Y-18863855D01*
X25599047Y-18863855D02*
X25599047Y-18063855D01*
X25599047Y-18063855D02*
X25522856Y-18178140D01*
X25522856Y-18178140D02*
X25446666Y-18254331D01*
X25446666Y-18254331D02*
X25370475Y-18292426D01*
X26513333Y-18063855D02*
X26360952Y-18063855D01*
X26360952Y-18063855D02*
X26284761Y-18101950D01*
X26284761Y-18101950D02*
X26246666Y-18140045D01*
X26246666Y-18140045D02*
X26170476Y-18254331D01*
X26170476Y-18254331D02*
X26132380Y-18406712D01*
X26132380Y-18406712D02*
X26132380Y-18711474D01*
X26132380Y-18711474D02*
X26170476Y-18787664D01*
X26170476Y-18787664D02*
X26208571Y-18825760D01*
X26208571Y-18825760D02*
X26284761Y-18863855D01*
X26284761Y-18863855D02*
X26437142Y-18863855D01*
X26437142Y-18863855D02*
X26513333Y-18825760D01*
X26513333Y-18825760D02*
X26551428Y-18787664D01*
X26551428Y-18787664D02*
X26589523Y-18711474D01*
X26589523Y-18711474D02*
X26589523Y-18520998D01*
X26589523Y-18520998D02*
X26551428Y-18444807D01*
X26551428Y-18444807D02*
X26513333Y-18406712D01*
X26513333Y-18406712D02*
X26437142Y-18368617D01*
X26437142Y-18368617D02*
X26284761Y-18368617D01*
X26284761Y-18368617D02*
X26208571Y-18406712D01*
X26208571Y-18406712D02*
X26170476Y-18444807D01*
X26170476Y-18444807D02*
X26132380Y-18520998D01*
D11*
X25258571Y-20359530D02*
X25234762Y-20383340D01*
X25234762Y-20383340D02*
X25163333Y-20407149D01*
X25163333Y-20407149D02*
X25115714Y-20407149D01*
X25115714Y-20407149D02*
X25044286Y-20383340D01*
X25044286Y-20383340D02*
X24996667Y-20335720D01*
X24996667Y-20335720D02*
X24972857Y-20288101D01*
X24972857Y-20288101D02*
X24949048Y-20192863D01*
X24949048Y-20192863D02*
X24949048Y-20121435D01*
X24949048Y-20121435D02*
X24972857Y-20026197D01*
X24972857Y-20026197D02*
X24996667Y-19978578D01*
X24996667Y-19978578D02*
X25044286Y-19930959D01*
X25044286Y-19930959D02*
X25115714Y-19907149D01*
X25115714Y-19907149D02*
X25163333Y-19907149D01*
X25163333Y-19907149D02*
X25234762Y-19930959D01*
X25234762Y-19930959D02*
X25258571Y-19954768D01*
X25734762Y-20407149D02*
X25449048Y-20407149D01*
X25591905Y-20407149D02*
X25591905Y-19907149D01*
X25591905Y-19907149D02*
X25544286Y-19978578D01*
X25544286Y-19978578D02*
X25496667Y-20026197D01*
X25496667Y-20026197D02*
X25449048Y-20050006D01*
X26163333Y-19907149D02*
X26068095Y-19907149D01*
X26068095Y-19907149D02*
X26020476Y-19930959D01*
X26020476Y-19930959D02*
X25996666Y-19954768D01*
X25996666Y-19954768D02*
X25949047Y-20026197D01*
X25949047Y-20026197D02*
X25925238Y-20121435D01*
X25925238Y-20121435D02*
X25925238Y-20311911D01*
X25925238Y-20311911D02*
X25949047Y-20359530D01*
X25949047Y-20359530D02*
X25972857Y-20383340D01*
X25972857Y-20383340D02*
X26020476Y-20407149D01*
X26020476Y-20407149D02*
X26115714Y-20407149D01*
X26115714Y-20407149D02*
X26163333Y-20383340D01*
X26163333Y-20383340D02*
X26187142Y-20359530D01*
X26187142Y-20359530D02*
X26210952Y-20311911D01*
X26210952Y-20311911D02*
X26210952Y-20192863D01*
X26210952Y-20192863D02*
X26187142Y-20145244D01*
X26187142Y-20145244D02*
X26163333Y-20121435D01*
X26163333Y-20121435D02*
X26115714Y-20097625D01*
X26115714Y-20097625D02*
X26020476Y-20097625D01*
X26020476Y-20097625D02*
X25972857Y-20121435D01*
X25972857Y-20121435D02*
X25949047Y-20145244D01*
X25949047Y-20145244D02*
X25925238Y-20192863D01*
D10*
X44907664Y-23051785D02*
X44945760Y-23089881D01*
X44945760Y-23089881D02*
X44983855Y-23204166D01*
X44983855Y-23204166D02*
X44983855Y-23280357D01*
X44983855Y-23280357D02*
X44945760Y-23394643D01*
X44945760Y-23394643D02*
X44869569Y-23470833D01*
X44869569Y-23470833D02*
X44793379Y-23508928D01*
X44793379Y-23508928D02*
X44640998Y-23547024D01*
X44640998Y-23547024D02*
X44526712Y-23547024D01*
X44526712Y-23547024D02*
X44374331Y-23508928D01*
X44374331Y-23508928D02*
X44298140Y-23470833D01*
X44298140Y-23470833D02*
X44221950Y-23394643D01*
X44221950Y-23394643D02*
X44183855Y-23280357D01*
X44183855Y-23280357D02*
X44183855Y-23204166D01*
X44183855Y-23204166D02*
X44221950Y-23089881D01*
X44221950Y-23089881D02*
X44260045Y-23051785D01*
X44983855Y-22289881D02*
X44983855Y-22747024D01*
X44983855Y-22518452D02*
X44183855Y-22518452D01*
X44183855Y-22518452D02*
X44298140Y-22594643D01*
X44298140Y-22594643D02*
X44374331Y-22670833D01*
X44374331Y-22670833D02*
X44412426Y-22747024D01*
X44183855Y-21794642D02*
X44183855Y-21718452D01*
X44183855Y-21718452D02*
X44221950Y-21642261D01*
X44221950Y-21642261D02*
X44260045Y-21604166D01*
X44260045Y-21604166D02*
X44336236Y-21566071D01*
X44336236Y-21566071D02*
X44488617Y-21527976D01*
X44488617Y-21527976D02*
X44679093Y-21527976D01*
X44679093Y-21527976D02*
X44831474Y-21566071D01*
X44831474Y-21566071D02*
X44907664Y-21604166D01*
X44907664Y-21604166D02*
X44945760Y-21642261D01*
X44945760Y-21642261D02*
X44983855Y-21718452D01*
X44983855Y-21718452D02*
X44983855Y-21794642D01*
X44983855Y-21794642D02*
X44945760Y-21870833D01*
X44945760Y-21870833D02*
X44907664Y-21908928D01*
X44907664Y-21908928D02*
X44831474Y-21947023D01*
X44831474Y-21947023D02*
X44679093Y-21985119D01*
X44679093Y-21985119D02*
X44488617Y-21985119D01*
X44488617Y-21985119D02*
X44336236Y-21947023D01*
X44336236Y-21947023D02*
X44260045Y-21908928D01*
X44260045Y-21908928D02*
X44221950Y-21870833D01*
X44221950Y-21870833D02*
X44183855Y-21794642D01*
D11*
X46479530Y-22858928D02*
X46503340Y-22882737D01*
X46503340Y-22882737D02*
X46527149Y-22954166D01*
X46527149Y-22954166D02*
X46527149Y-23001785D01*
X46527149Y-23001785D02*
X46503340Y-23073213D01*
X46503340Y-23073213D02*
X46455720Y-23120832D01*
X46455720Y-23120832D02*
X46408101Y-23144642D01*
X46408101Y-23144642D02*
X46312863Y-23168451D01*
X46312863Y-23168451D02*
X46241435Y-23168451D01*
X46241435Y-23168451D02*
X46146197Y-23144642D01*
X46146197Y-23144642D02*
X46098578Y-23120832D01*
X46098578Y-23120832D02*
X46050959Y-23073213D01*
X46050959Y-23073213D02*
X46027149Y-23001785D01*
X46027149Y-23001785D02*
X46027149Y-22954166D01*
X46027149Y-22954166D02*
X46050959Y-22882737D01*
X46050959Y-22882737D02*
X46074768Y-22858928D01*
X46527149Y-22382737D02*
X46527149Y-22668451D01*
X46527149Y-22525594D02*
X46027149Y-22525594D01*
X46027149Y-22525594D02*
X46098578Y-22573213D01*
X46098578Y-22573213D02*
X46146197Y-22620832D01*
X46146197Y-22620832D02*
X46170006Y-22668451D01*
X46027149Y-22073214D02*
X46027149Y-22025595D01*
X46027149Y-22025595D02*
X46050959Y-21977976D01*
X46050959Y-21977976D02*
X46074768Y-21954166D01*
X46074768Y-21954166D02*
X46122387Y-21930357D01*
X46122387Y-21930357D02*
X46217625Y-21906547D01*
X46217625Y-21906547D02*
X46336673Y-21906547D01*
X46336673Y-21906547D02*
X46431911Y-21930357D01*
X46431911Y-21930357D02*
X46479530Y-21954166D01*
X46479530Y-21954166D02*
X46503340Y-21977976D01*
X46503340Y-21977976D02*
X46527149Y-22025595D01*
X46527149Y-22025595D02*
X46527149Y-22073214D01*
X46527149Y-22073214D02*
X46503340Y-22120833D01*
X46503340Y-22120833D02*
X46479530Y-22144642D01*
X46479530Y-22144642D02*
X46431911Y-22168452D01*
X46431911Y-22168452D02*
X46336673Y-22192261D01*
X46336673Y-22192261D02*
X46217625Y-22192261D01*
X46217625Y-22192261D02*
X46122387Y-22168452D01*
X46122387Y-22168452D02*
X46074768Y-22144642D01*
X46074768Y-22144642D02*
X46050959Y-22120833D01*
X46050959Y-22120833D02*
X46027149Y-22073214D01*
D10*
X38010476Y-20828855D02*
X38010476Y-21476474D01*
X38010476Y-21476474D02*
X38048571Y-21552664D01*
X38048571Y-21552664D02*
X38086666Y-21590760D01*
X38086666Y-21590760D02*
X38162857Y-21628855D01*
X38162857Y-21628855D02*
X38315238Y-21628855D01*
X38315238Y-21628855D02*
X38391428Y-21590760D01*
X38391428Y-21590760D02*
X38429523Y-21552664D01*
X38429523Y-21552664D02*
X38467619Y-21476474D01*
X38467619Y-21476474D02*
X38467619Y-20828855D01*
X39267618Y-21628855D02*
X38810475Y-21628855D01*
X39039047Y-21628855D02*
X39039047Y-20828855D01*
X39039047Y-20828855D02*
X38962856Y-20943140D01*
X38962856Y-20943140D02*
X38886666Y-21019331D01*
X38886666Y-21019331D02*
X38810475Y-21057426D01*
X9340476Y-37563855D02*
X9340476Y-38211474D01*
X9340476Y-38211474D02*
X9378571Y-38287664D01*
X9378571Y-38287664D02*
X9416666Y-38325760D01*
X9416666Y-38325760D02*
X9492857Y-38363855D01*
X9492857Y-38363855D02*
X9645238Y-38363855D01*
X9645238Y-38363855D02*
X9721428Y-38325760D01*
X9721428Y-38325760D02*
X9759523Y-38287664D01*
X9759523Y-38287664D02*
X9797619Y-38211474D01*
X9797619Y-38211474D02*
X9797619Y-37563855D01*
X10521428Y-37830521D02*
X10521428Y-38363855D01*
X10330952Y-37525760D02*
X10140475Y-38097188D01*
X10140475Y-38097188D02*
X10635714Y-38097188D01*
X28340476Y-34663855D02*
X28340476Y-35311474D01*
X28340476Y-35311474D02*
X28378571Y-35387664D01*
X28378571Y-35387664D02*
X28416666Y-35425760D01*
X28416666Y-35425760D02*
X28492857Y-35463855D01*
X28492857Y-35463855D02*
X28645238Y-35463855D01*
X28645238Y-35463855D02*
X28721428Y-35425760D01*
X28721428Y-35425760D02*
X28759523Y-35387664D01*
X28759523Y-35387664D02*
X28797619Y-35311474D01*
X28797619Y-35311474D02*
X28797619Y-34663855D01*
X29102380Y-34663855D02*
X29597618Y-34663855D01*
X29597618Y-34663855D02*
X29330952Y-34968617D01*
X29330952Y-34968617D02*
X29445237Y-34968617D01*
X29445237Y-34968617D02*
X29521428Y-35006712D01*
X29521428Y-35006712D02*
X29559523Y-35044807D01*
X29559523Y-35044807D02*
X29597618Y-35120998D01*
X29597618Y-35120998D02*
X29597618Y-35311474D01*
X29597618Y-35311474D02*
X29559523Y-35387664D01*
X29559523Y-35387664D02*
X29521428Y-35425760D01*
X29521428Y-35425760D02*
X29445237Y-35463855D01*
X29445237Y-35463855D02*
X29216666Y-35463855D01*
X29216666Y-35463855D02*
X29140475Y-35425760D01*
X29140475Y-35425760D02*
X29102380Y-35387664D01*
D11*
X28677149Y-37280952D02*
X29081911Y-37280952D01*
X29081911Y-37280952D02*
X29129530Y-37257142D01*
X29129530Y-37257142D02*
X29153340Y-37233333D01*
X29153340Y-37233333D02*
X29177149Y-37185714D01*
X29177149Y-37185714D02*
X29177149Y-37090476D01*
X29177149Y-37090476D02*
X29153340Y-37042857D01*
X29153340Y-37042857D02*
X29129530Y-37019047D01*
X29129530Y-37019047D02*
X29081911Y-36995238D01*
X29081911Y-36995238D02*
X28677149Y-36995238D01*
X28677149Y-36804761D02*
X28677149Y-36495237D01*
X28677149Y-36495237D02*
X28867625Y-36661904D01*
X28867625Y-36661904D02*
X28867625Y-36590475D01*
X28867625Y-36590475D02*
X28891435Y-36542856D01*
X28891435Y-36542856D02*
X28915244Y-36519047D01*
X28915244Y-36519047D02*
X28962863Y-36495237D01*
X28962863Y-36495237D02*
X29081911Y-36495237D01*
X29081911Y-36495237D02*
X29129530Y-36519047D01*
X29129530Y-36519047D02*
X29153340Y-36542856D01*
X29153340Y-36542856D02*
X29177149Y-36590475D01*
X29177149Y-36590475D02*
X29177149Y-36733332D01*
X29177149Y-36733332D02*
X29153340Y-36780951D01*
X29153340Y-36780951D02*
X29129530Y-36804761D01*
D10*
X47607664Y-24745832D02*
X47645760Y-24783928D01*
X47645760Y-24783928D02*
X47683855Y-24898213D01*
X47683855Y-24898213D02*
X47683855Y-24974404D01*
X47683855Y-24974404D02*
X47645760Y-25088690D01*
X47645760Y-25088690D02*
X47569569Y-25164880D01*
X47569569Y-25164880D02*
X47493379Y-25202975D01*
X47493379Y-25202975D02*
X47340998Y-25241071D01*
X47340998Y-25241071D02*
X47226712Y-25241071D01*
X47226712Y-25241071D02*
X47074331Y-25202975D01*
X47074331Y-25202975D02*
X46998140Y-25164880D01*
X46998140Y-25164880D02*
X46921950Y-25088690D01*
X46921950Y-25088690D02*
X46883855Y-24974404D01*
X46883855Y-24974404D02*
X46883855Y-24898213D01*
X46883855Y-24898213D02*
X46921950Y-24783928D01*
X46921950Y-24783928D02*
X46960045Y-24745832D01*
X47683855Y-24364880D02*
X47683855Y-24212499D01*
X47683855Y-24212499D02*
X47645760Y-24136309D01*
X47645760Y-24136309D02*
X47607664Y-24098213D01*
X47607664Y-24098213D02*
X47493379Y-24022023D01*
X47493379Y-24022023D02*
X47340998Y-23983928D01*
X47340998Y-23983928D02*
X47036236Y-23983928D01*
X47036236Y-23983928D02*
X46960045Y-24022023D01*
X46960045Y-24022023D02*
X46921950Y-24060118D01*
X46921950Y-24060118D02*
X46883855Y-24136309D01*
X46883855Y-24136309D02*
X46883855Y-24288690D01*
X46883855Y-24288690D02*
X46921950Y-24364880D01*
X46921950Y-24364880D02*
X46960045Y-24402975D01*
X46960045Y-24402975D02*
X47036236Y-24441071D01*
X47036236Y-24441071D02*
X47226712Y-24441071D01*
X47226712Y-24441071D02*
X47302902Y-24402975D01*
X47302902Y-24402975D02*
X47340998Y-24364880D01*
X47340998Y-24364880D02*
X47379093Y-24288690D01*
X47379093Y-24288690D02*
X47379093Y-24136309D01*
X47379093Y-24136309D02*
X47340998Y-24060118D01*
X47340998Y-24060118D02*
X47302902Y-24022023D01*
X47302902Y-24022023D02*
X47226712Y-23983928D01*
D11*
X49179530Y-24695833D02*
X49203340Y-24719642D01*
X49203340Y-24719642D02*
X49227149Y-24791071D01*
X49227149Y-24791071D02*
X49227149Y-24838690D01*
X49227149Y-24838690D02*
X49203340Y-24910118D01*
X49203340Y-24910118D02*
X49155720Y-24957737D01*
X49155720Y-24957737D02*
X49108101Y-24981547D01*
X49108101Y-24981547D02*
X49012863Y-25005356D01*
X49012863Y-25005356D02*
X48941435Y-25005356D01*
X48941435Y-25005356D02*
X48846197Y-24981547D01*
X48846197Y-24981547D02*
X48798578Y-24957737D01*
X48798578Y-24957737D02*
X48750959Y-24910118D01*
X48750959Y-24910118D02*
X48727149Y-24838690D01*
X48727149Y-24838690D02*
X48727149Y-24791071D01*
X48727149Y-24791071D02*
X48750959Y-24719642D01*
X48750959Y-24719642D02*
X48774768Y-24695833D01*
X49227149Y-24457737D02*
X49227149Y-24362499D01*
X49227149Y-24362499D02*
X49203340Y-24314880D01*
X49203340Y-24314880D02*
X49179530Y-24291071D01*
X49179530Y-24291071D02*
X49108101Y-24243452D01*
X49108101Y-24243452D02*
X49012863Y-24219642D01*
X49012863Y-24219642D02*
X48822387Y-24219642D01*
X48822387Y-24219642D02*
X48774768Y-24243452D01*
X48774768Y-24243452D02*
X48750959Y-24267261D01*
X48750959Y-24267261D02*
X48727149Y-24314880D01*
X48727149Y-24314880D02*
X48727149Y-24410118D01*
X48727149Y-24410118D02*
X48750959Y-24457737D01*
X48750959Y-24457737D02*
X48774768Y-24481547D01*
X48774768Y-24481547D02*
X48822387Y-24505356D01*
X48822387Y-24505356D02*
X48941435Y-24505356D01*
X48941435Y-24505356D02*
X48989054Y-24481547D01*
X48989054Y-24481547D02*
X49012863Y-24457737D01*
X49012863Y-24457737D02*
X49036673Y-24410118D01*
X49036673Y-24410118D02*
X49036673Y-24314880D01*
X49036673Y-24314880D02*
X49012863Y-24267261D01*
X49012863Y-24267261D02*
X48989054Y-24243452D01*
X48989054Y-24243452D02*
X48941435Y-24219642D01*
D10*
X20678571Y-23363855D02*
X20678571Y-24011474D01*
X20678571Y-24011474D02*
X20716666Y-24087664D01*
X20716666Y-24087664D02*
X20754761Y-24125760D01*
X20754761Y-24125760D02*
X20830952Y-24163855D01*
X20830952Y-24163855D02*
X20983333Y-24163855D01*
X20983333Y-24163855D02*
X21059523Y-24125760D01*
X21059523Y-24125760D02*
X21097618Y-24087664D01*
X21097618Y-24087664D02*
X21135714Y-24011474D01*
X21135714Y-24011474D02*
X21135714Y-23363855D01*
X21935713Y-24163855D02*
X21478570Y-24163855D01*
X21707142Y-24163855D02*
X21707142Y-23363855D01*
X21707142Y-23363855D02*
X21630951Y-23478140D01*
X21630951Y-23478140D02*
X21554761Y-23554331D01*
X21554761Y-23554331D02*
X21478570Y-23592426D01*
X22430952Y-23363855D02*
X22507142Y-23363855D01*
X22507142Y-23363855D02*
X22583333Y-23401950D01*
X22583333Y-23401950D02*
X22621428Y-23440045D01*
X22621428Y-23440045D02*
X22659523Y-23516236D01*
X22659523Y-23516236D02*
X22697618Y-23668617D01*
X22697618Y-23668617D02*
X22697618Y-23859093D01*
X22697618Y-23859093D02*
X22659523Y-24011474D01*
X22659523Y-24011474D02*
X22621428Y-24087664D01*
X22621428Y-24087664D02*
X22583333Y-24125760D01*
X22583333Y-24125760D02*
X22507142Y-24163855D01*
X22507142Y-24163855D02*
X22430952Y-24163855D01*
X22430952Y-24163855D02*
X22354761Y-24125760D01*
X22354761Y-24125760D02*
X22316666Y-24087664D01*
X22316666Y-24087664D02*
X22278571Y-24011474D01*
X22278571Y-24011474D02*
X22240475Y-23859093D01*
X22240475Y-23859093D02*
X22240475Y-23668617D01*
X22240475Y-23668617D02*
X22278571Y-23516236D01*
X22278571Y-23516236D02*
X22316666Y-23440045D01*
X22316666Y-23440045D02*
X22354761Y-23401950D01*
X22354761Y-23401950D02*
X22430952Y-23363855D01*
X22964285Y-23363855D02*
X23459523Y-23363855D01*
X23459523Y-23363855D02*
X23192857Y-23668617D01*
X23192857Y-23668617D02*
X23307142Y-23668617D01*
X23307142Y-23668617D02*
X23383333Y-23706712D01*
X23383333Y-23706712D02*
X23421428Y-23744807D01*
X23421428Y-23744807D02*
X23459523Y-23820998D01*
X23459523Y-23820998D02*
X23459523Y-24011474D01*
X23459523Y-24011474D02*
X23421428Y-24087664D01*
X23421428Y-24087664D02*
X23383333Y-24125760D01*
X23383333Y-24125760D02*
X23307142Y-24163855D01*
X23307142Y-24163855D02*
X23078571Y-24163855D01*
X23078571Y-24163855D02*
X23002380Y-24125760D01*
X23002380Y-24125760D02*
X22964285Y-24087664D01*
D11*
X21777149Y-26457142D02*
X22181911Y-26457142D01*
X22181911Y-26457142D02*
X22229530Y-26433332D01*
X22229530Y-26433332D02*
X22253340Y-26409523D01*
X22253340Y-26409523D02*
X22277149Y-26361904D01*
X22277149Y-26361904D02*
X22277149Y-26266666D01*
X22277149Y-26266666D02*
X22253340Y-26219047D01*
X22253340Y-26219047D02*
X22229530Y-26195237D01*
X22229530Y-26195237D02*
X22181911Y-26171428D01*
X22181911Y-26171428D02*
X21777149Y-26171428D01*
X22277149Y-25671427D02*
X22277149Y-25957141D01*
X22277149Y-25814284D02*
X21777149Y-25814284D01*
X21777149Y-25814284D02*
X21848578Y-25861903D01*
X21848578Y-25861903D02*
X21896197Y-25909522D01*
X21896197Y-25909522D02*
X21920006Y-25957141D01*
X21777149Y-25361904D02*
X21777149Y-25314285D01*
X21777149Y-25314285D02*
X21800959Y-25266666D01*
X21800959Y-25266666D02*
X21824768Y-25242856D01*
X21824768Y-25242856D02*
X21872387Y-25219047D01*
X21872387Y-25219047D02*
X21967625Y-25195237D01*
X21967625Y-25195237D02*
X22086673Y-25195237D01*
X22086673Y-25195237D02*
X22181911Y-25219047D01*
X22181911Y-25219047D02*
X22229530Y-25242856D01*
X22229530Y-25242856D02*
X22253340Y-25266666D01*
X22253340Y-25266666D02*
X22277149Y-25314285D01*
X22277149Y-25314285D02*
X22277149Y-25361904D01*
X22277149Y-25361904D02*
X22253340Y-25409523D01*
X22253340Y-25409523D02*
X22229530Y-25433332D01*
X22229530Y-25433332D02*
X22181911Y-25457142D01*
X22181911Y-25457142D02*
X22086673Y-25480951D01*
X22086673Y-25480951D02*
X21967625Y-25480951D01*
X21967625Y-25480951D02*
X21872387Y-25457142D01*
X21872387Y-25457142D02*
X21824768Y-25433332D01*
X21824768Y-25433332D02*
X21800959Y-25409523D01*
X21800959Y-25409523D02*
X21777149Y-25361904D01*
X21777149Y-25028571D02*
X21777149Y-24719047D01*
X21777149Y-24719047D02*
X21967625Y-24885714D01*
X21967625Y-24885714D02*
X21967625Y-24814285D01*
X21967625Y-24814285D02*
X21991435Y-24766666D01*
X21991435Y-24766666D02*
X22015244Y-24742857D01*
X22015244Y-24742857D02*
X22062863Y-24719047D01*
X22062863Y-24719047D02*
X22181911Y-24719047D01*
X22181911Y-24719047D02*
X22229530Y-24742857D01*
X22229530Y-24742857D02*
X22253340Y-24766666D01*
X22253340Y-24766666D02*
X22277149Y-24814285D01*
X22277149Y-24814285D02*
X22277149Y-24957142D01*
X22277149Y-24957142D02*
X22253340Y-25004761D01*
X22253340Y-25004761D02*
X22229530Y-25028571D01*
D12*
X30844285Y-11184819D02*
X30844285Y-11899104D01*
X30844285Y-11899104D02*
X30796666Y-12041961D01*
X30796666Y-12041961D02*
X30701428Y-12137200D01*
X30701428Y-12137200D02*
X30558571Y-12184819D01*
X30558571Y-12184819D02*
X30463333Y-12184819D01*
X31844285Y-12184819D02*
X31272857Y-12184819D01*
X31558571Y-12184819D02*
X31558571Y-11184819D01*
X31558571Y-11184819D02*
X31463333Y-11327676D01*
X31463333Y-11327676D02*
X31368095Y-11422914D01*
X31368095Y-11422914D02*
X31272857Y-11470533D01*
X32463333Y-11184819D02*
X32558571Y-11184819D01*
X32558571Y-11184819D02*
X32653809Y-11232438D01*
X32653809Y-11232438D02*
X32701428Y-11280057D01*
X32701428Y-11280057D02*
X32749047Y-11375295D01*
X32749047Y-11375295D02*
X32796666Y-11565771D01*
X32796666Y-11565771D02*
X32796666Y-11803866D01*
X32796666Y-11803866D02*
X32749047Y-11994342D01*
X32749047Y-11994342D02*
X32701428Y-12089580D01*
X32701428Y-12089580D02*
X32653809Y-12137200D01*
X32653809Y-12137200D02*
X32558571Y-12184819D01*
X32558571Y-12184819D02*
X32463333Y-12184819D01*
X32463333Y-12184819D02*
X32368095Y-12137200D01*
X32368095Y-12137200D02*
X32320476Y-12089580D01*
X32320476Y-12089580D02*
X32272857Y-11994342D01*
X32272857Y-11994342D02*
X32225238Y-11803866D01*
X32225238Y-11803866D02*
X32225238Y-11565771D01*
X32225238Y-11565771D02*
X32272857Y-11375295D01*
X32272857Y-11375295D02*
X32320476Y-11280057D01*
X32320476Y-11280057D02*
X32368095Y-11232438D01*
X32368095Y-11232438D02*
X32463333Y-11184819D01*
X33415714Y-11184819D02*
X33510952Y-11184819D01*
X33510952Y-11184819D02*
X33606190Y-11232438D01*
X33606190Y-11232438D02*
X33653809Y-11280057D01*
X33653809Y-11280057D02*
X33701428Y-11375295D01*
X33701428Y-11375295D02*
X33749047Y-11565771D01*
X33749047Y-11565771D02*
X33749047Y-11803866D01*
X33749047Y-11803866D02*
X33701428Y-11994342D01*
X33701428Y-11994342D02*
X33653809Y-12089580D01*
X33653809Y-12089580D02*
X33606190Y-12137200D01*
X33606190Y-12137200D02*
X33510952Y-12184819D01*
X33510952Y-12184819D02*
X33415714Y-12184819D01*
X33415714Y-12184819D02*
X33320476Y-12137200D01*
X33320476Y-12137200D02*
X33272857Y-12089580D01*
X33272857Y-12089580D02*
X33225238Y-11994342D01*
X33225238Y-11994342D02*
X33177619Y-11803866D01*
X33177619Y-11803866D02*
X33177619Y-11565771D01*
X33177619Y-11565771D02*
X33225238Y-11375295D01*
X33225238Y-11375295D02*
X33272857Y-11280057D01*
X33272857Y-11280057D02*
X33320476Y-11232438D01*
X33320476Y-11232438D02*
X33415714Y-11184819D01*
D10*
X30435714Y-27863855D02*
X30169047Y-27482902D01*
X29978571Y-27863855D02*
X29978571Y-27063855D01*
X29978571Y-27063855D02*
X30283333Y-27063855D01*
X30283333Y-27063855D02*
X30359523Y-27101950D01*
X30359523Y-27101950D02*
X30397618Y-27140045D01*
X30397618Y-27140045D02*
X30435714Y-27216236D01*
X30435714Y-27216236D02*
X30435714Y-27330521D01*
X30435714Y-27330521D02*
X30397618Y-27406712D01*
X30397618Y-27406712D02*
X30359523Y-27444807D01*
X30359523Y-27444807D02*
X30283333Y-27482902D01*
X30283333Y-27482902D02*
X29978571Y-27482902D01*
X31197618Y-27863855D02*
X30740475Y-27863855D01*
X30969047Y-27863855D02*
X30969047Y-27063855D01*
X30969047Y-27063855D02*
X30892856Y-27178140D01*
X30892856Y-27178140D02*
X30816666Y-27254331D01*
X30816666Y-27254331D02*
X30740475Y-27292426D01*
X31692857Y-27063855D02*
X31769047Y-27063855D01*
X31769047Y-27063855D02*
X31845238Y-27101950D01*
X31845238Y-27101950D02*
X31883333Y-27140045D01*
X31883333Y-27140045D02*
X31921428Y-27216236D01*
X31921428Y-27216236D02*
X31959523Y-27368617D01*
X31959523Y-27368617D02*
X31959523Y-27559093D01*
X31959523Y-27559093D02*
X31921428Y-27711474D01*
X31921428Y-27711474D02*
X31883333Y-27787664D01*
X31883333Y-27787664D02*
X31845238Y-27825760D01*
X31845238Y-27825760D02*
X31769047Y-27863855D01*
X31769047Y-27863855D02*
X31692857Y-27863855D01*
X31692857Y-27863855D02*
X31616666Y-27825760D01*
X31616666Y-27825760D02*
X31578571Y-27787664D01*
X31578571Y-27787664D02*
X31540476Y-27711474D01*
X31540476Y-27711474D02*
X31502380Y-27559093D01*
X31502380Y-27559093D02*
X31502380Y-27368617D01*
X31502380Y-27368617D02*
X31540476Y-27216236D01*
X31540476Y-27216236D02*
X31578571Y-27140045D01*
X31578571Y-27140045D02*
X31616666Y-27101950D01*
X31616666Y-27101950D02*
X31692857Y-27063855D01*
D11*
X30628571Y-29377149D02*
X30461905Y-29139054D01*
X30342857Y-29377149D02*
X30342857Y-28877149D01*
X30342857Y-28877149D02*
X30533333Y-28877149D01*
X30533333Y-28877149D02*
X30580952Y-28900959D01*
X30580952Y-28900959D02*
X30604762Y-28924768D01*
X30604762Y-28924768D02*
X30628571Y-28972387D01*
X30628571Y-28972387D02*
X30628571Y-29043816D01*
X30628571Y-29043816D02*
X30604762Y-29091435D01*
X30604762Y-29091435D02*
X30580952Y-29115244D01*
X30580952Y-29115244D02*
X30533333Y-29139054D01*
X30533333Y-29139054D02*
X30342857Y-29139054D01*
X31104762Y-29377149D02*
X30819048Y-29377149D01*
X30961905Y-29377149D02*
X30961905Y-28877149D01*
X30961905Y-28877149D02*
X30914286Y-28948578D01*
X30914286Y-28948578D02*
X30866667Y-28996197D01*
X30866667Y-28996197D02*
X30819048Y-29020006D01*
X31414285Y-28877149D02*
X31461904Y-28877149D01*
X31461904Y-28877149D02*
X31509523Y-28900959D01*
X31509523Y-28900959D02*
X31533333Y-28924768D01*
X31533333Y-28924768D02*
X31557142Y-28972387D01*
X31557142Y-28972387D02*
X31580952Y-29067625D01*
X31580952Y-29067625D02*
X31580952Y-29186673D01*
X31580952Y-29186673D02*
X31557142Y-29281911D01*
X31557142Y-29281911D02*
X31533333Y-29329530D01*
X31533333Y-29329530D02*
X31509523Y-29353340D01*
X31509523Y-29353340D02*
X31461904Y-29377149D01*
X31461904Y-29377149D02*
X31414285Y-29377149D01*
X31414285Y-29377149D02*
X31366666Y-29353340D01*
X31366666Y-29353340D02*
X31342857Y-29329530D01*
X31342857Y-29329530D02*
X31319047Y-29281911D01*
X31319047Y-29281911D02*
X31295238Y-29186673D01*
X31295238Y-29186673D02*
X31295238Y-29067625D01*
X31295238Y-29067625D02*
X31319047Y-28972387D01*
X31319047Y-28972387D02*
X31342857Y-28924768D01*
X31342857Y-28924768D02*
X31366666Y-28900959D01*
X31366666Y-28900959D02*
X31414285Y-28877149D01*
D10*
X30435714Y-30863855D02*
X30169047Y-30482902D01*
X29978571Y-30863855D02*
X29978571Y-30063855D01*
X29978571Y-30063855D02*
X30283333Y-30063855D01*
X30283333Y-30063855D02*
X30359523Y-30101950D01*
X30359523Y-30101950D02*
X30397618Y-30140045D01*
X30397618Y-30140045D02*
X30435714Y-30216236D01*
X30435714Y-30216236D02*
X30435714Y-30330521D01*
X30435714Y-30330521D02*
X30397618Y-30406712D01*
X30397618Y-30406712D02*
X30359523Y-30444807D01*
X30359523Y-30444807D02*
X30283333Y-30482902D01*
X30283333Y-30482902D02*
X29978571Y-30482902D01*
X30740475Y-30140045D02*
X30778571Y-30101950D01*
X30778571Y-30101950D02*
X30854761Y-30063855D01*
X30854761Y-30063855D02*
X31045237Y-30063855D01*
X31045237Y-30063855D02*
X31121428Y-30101950D01*
X31121428Y-30101950D02*
X31159523Y-30140045D01*
X31159523Y-30140045D02*
X31197618Y-30216236D01*
X31197618Y-30216236D02*
X31197618Y-30292426D01*
X31197618Y-30292426D02*
X31159523Y-30406712D01*
X31159523Y-30406712D02*
X30702380Y-30863855D01*
X30702380Y-30863855D02*
X31197618Y-30863855D01*
X31959523Y-30863855D02*
X31502380Y-30863855D01*
X31730952Y-30863855D02*
X31730952Y-30063855D01*
X31730952Y-30063855D02*
X31654761Y-30178140D01*
X31654761Y-30178140D02*
X31578571Y-30254331D01*
X31578571Y-30254331D02*
X31502380Y-30292426D01*
D11*
X30628571Y-32377149D02*
X30461905Y-32139054D01*
X30342857Y-32377149D02*
X30342857Y-31877149D01*
X30342857Y-31877149D02*
X30533333Y-31877149D01*
X30533333Y-31877149D02*
X30580952Y-31900959D01*
X30580952Y-31900959D02*
X30604762Y-31924768D01*
X30604762Y-31924768D02*
X30628571Y-31972387D01*
X30628571Y-31972387D02*
X30628571Y-32043816D01*
X30628571Y-32043816D02*
X30604762Y-32091435D01*
X30604762Y-32091435D02*
X30580952Y-32115244D01*
X30580952Y-32115244D02*
X30533333Y-32139054D01*
X30533333Y-32139054D02*
X30342857Y-32139054D01*
X30819048Y-31924768D02*
X30842857Y-31900959D01*
X30842857Y-31900959D02*
X30890476Y-31877149D01*
X30890476Y-31877149D02*
X31009524Y-31877149D01*
X31009524Y-31877149D02*
X31057143Y-31900959D01*
X31057143Y-31900959D02*
X31080952Y-31924768D01*
X31080952Y-31924768D02*
X31104762Y-31972387D01*
X31104762Y-31972387D02*
X31104762Y-32020006D01*
X31104762Y-32020006D02*
X31080952Y-32091435D01*
X31080952Y-32091435D02*
X30795238Y-32377149D01*
X30795238Y-32377149D02*
X31104762Y-32377149D01*
X31580952Y-32377149D02*
X31295238Y-32377149D01*
X31438095Y-32377149D02*
X31438095Y-31877149D01*
X31438095Y-31877149D02*
X31390476Y-31948578D01*
X31390476Y-31948578D02*
X31342857Y-31996197D01*
X31342857Y-31996197D02*
X31295238Y-32020006D01*
D10*
X6765714Y-35463855D02*
X6499047Y-35082902D01*
X6308571Y-35463855D02*
X6308571Y-34663855D01*
X6308571Y-34663855D02*
X6613333Y-34663855D01*
X6613333Y-34663855D02*
X6689523Y-34701950D01*
X6689523Y-34701950D02*
X6727618Y-34740045D01*
X6727618Y-34740045D02*
X6765714Y-34816236D01*
X6765714Y-34816236D02*
X6765714Y-34930521D01*
X6765714Y-34930521D02*
X6727618Y-35006712D01*
X6727618Y-35006712D02*
X6689523Y-35044807D01*
X6689523Y-35044807D02*
X6613333Y-35082902D01*
X6613333Y-35082902D02*
X6308571Y-35082902D01*
X7527618Y-35463855D02*
X7070475Y-35463855D01*
X7299047Y-35463855D02*
X7299047Y-34663855D01*
X7299047Y-34663855D02*
X7222856Y-34778140D01*
X7222856Y-34778140D02*
X7146666Y-34854331D01*
X7146666Y-34854331D02*
X7070475Y-34892426D01*
X8213333Y-34663855D02*
X8060952Y-34663855D01*
X8060952Y-34663855D02*
X7984761Y-34701950D01*
X7984761Y-34701950D02*
X7946666Y-34740045D01*
X7946666Y-34740045D02*
X7870476Y-34854331D01*
X7870476Y-34854331D02*
X7832380Y-35006712D01*
X7832380Y-35006712D02*
X7832380Y-35311474D01*
X7832380Y-35311474D02*
X7870476Y-35387664D01*
X7870476Y-35387664D02*
X7908571Y-35425760D01*
X7908571Y-35425760D02*
X7984761Y-35463855D01*
X7984761Y-35463855D02*
X8137142Y-35463855D01*
X8137142Y-35463855D02*
X8213333Y-35425760D01*
X8213333Y-35425760D02*
X8251428Y-35387664D01*
X8251428Y-35387664D02*
X8289523Y-35311474D01*
X8289523Y-35311474D02*
X8289523Y-35120998D01*
X8289523Y-35120998D02*
X8251428Y-35044807D01*
X8251428Y-35044807D02*
X8213333Y-35006712D01*
X8213333Y-35006712D02*
X8137142Y-34968617D01*
X8137142Y-34968617D02*
X7984761Y-34968617D01*
X7984761Y-34968617D02*
X7908571Y-35006712D01*
X7908571Y-35006712D02*
X7870476Y-35044807D01*
X7870476Y-35044807D02*
X7832380Y-35120998D01*
X6765714Y-37293855D02*
X6499047Y-36912902D01*
X6308571Y-37293855D02*
X6308571Y-36493855D01*
X6308571Y-36493855D02*
X6613333Y-36493855D01*
X6613333Y-36493855D02*
X6689523Y-36531950D01*
X6689523Y-36531950D02*
X6727618Y-36570045D01*
X6727618Y-36570045D02*
X6765714Y-36646236D01*
X6765714Y-36646236D02*
X6765714Y-36760521D01*
X6765714Y-36760521D02*
X6727618Y-36836712D01*
X6727618Y-36836712D02*
X6689523Y-36874807D01*
X6689523Y-36874807D02*
X6613333Y-36912902D01*
X6613333Y-36912902D02*
X6308571Y-36912902D01*
X7527618Y-37293855D02*
X7070475Y-37293855D01*
X7299047Y-37293855D02*
X7299047Y-36493855D01*
X7299047Y-36493855D02*
X7222856Y-36608140D01*
X7222856Y-36608140D02*
X7146666Y-36684331D01*
X7146666Y-36684331D02*
X7070475Y-36722426D01*
X8213333Y-36493855D02*
X8060952Y-36493855D01*
X8060952Y-36493855D02*
X7984761Y-36531950D01*
X7984761Y-36531950D02*
X7946666Y-36570045D01*
X7946666Y-36570045D02*
X7870476Y-36684331D01*
X7870476Y-36684331D02*
X7832380Y-36836712D01*
X7832380Y-36836712D02*
X7832380Y-37141474D01*
X7832380Y-37141474D02*
X7870476Y-37217664D01*
X7870476Y-37217664D02*
X7908571Y-37255760D01*
X7908571Y-37255760D02*
X7984761Y-37293855D01*
X7984761Y-37293855D02*
X8137142Y-37293855D01*
X8137142Y-37293855D02*
X8213333Y-37255760D01*
X8213333Y-37255760D02*
X8251428Y-37217664D01*
X8251428Y-37217664D02*
X8289523Y-37141474D01*
X8289523Y-37141474D02*
X8289523Y-36950998D01*
X8289523Y-36950998D02*
X8251428Y-36874807D01*
X8251428Y-36874807D02*
X8213333Y-36836712D01*
X8213333Y-36836712D02*
X8137142Y-36798617D01*
X8137142Y-36798617D02*
X7984761Y-36798617D01*
X7984761Y-36798617D02*
X7908571Y-36836712D01*
X7908571Y-36836712D02*
X7870476Y-36874807D01*
X7870476Y-36874807D02*
X7832380Y-36950998D01*
X10254762Y-29663855D02*
X9988095Y-29282902D01*
X9797619Y-29663855D02*
X9797619Y-28863855D01*
X9797619Y-28863855D02*
X10102381Y-28863855D01*
X10102381Y-28863855D02*
X10178571Y-28901950D01*
X10178571Y-28901950D02*
X10216666Y-28940045D01*
X10216666Y-28940045D02*
X10254762Y-29016236D01*
X10254762Y-29016236D02*
X10254762Y-29130521D01*
X10254762Y-29130521D02*
X10216666Y-29206712D01*
X10216666Y-29206712D02*
X10178571Y-29244807D01*
X10178571Y-29244807D02*
X10102381Y-29282902D01*
X10102381Y-29282902D02*
X9797619Y-29282902D01*
X11016666Y-29663855D02*
X10559523Y-29663855D01*
X10788095Y-29663855D02*
X10788095Y-28863855D01*
X10788095Y-28863855D02*
X10711904Y-28978140D01*
X10711904Y-28978140D02*
X10635714Y-29054331D01*
X10635714Y-29054331D02*
X10559523Y-29092426D01*
X11511905Y-28863855D02*
X11588095Y-28863855D01*
X11588095Y-28863855D02*
X11664286Y-28901950D01*
X11664286Y-28901950D02*
X11702381Y-28940045D01*
X11702381Y-28940045D02*
X11740476Y-29016236D01*
X11740476Y-29016236D02*
X11778571Y-29168617D01*
X11778571Y-29168617D02*
X11778571Y-29359093D01*
X11778571Y-29359093D02*
X11740476Y-29511474D01*
X11740476Y-29511474D02*
X11702381Y-29587664D01*
X11702381Y-29587664D02*
X11664286Y-29625760D01*
X11664286Y-29625760D02*
X11588095Y-29663855D01*
X11588095Y-29663855D02*
X11511905Y-29663855D01*
X11511905Y-29663855D02*
X11435714Y-29625760D01*
X11435714Y-29625760D02*
X11397619Y-29587664D01*
X11397619Y-29587664D02*
X11359524Y-29511474D01*
X11359524Y-29511474D02*
X11321428Y-29359093D01*
X11321428Y-29359093D02*
X11321428Y-29168617D01*
X11321428Y-29168617D02*
X11359524Y-29016236D01*
X11359524Y-29016236D02*
X11397619Y-28940045D01*
X11397619Y-28940045D02*
X11435714Y-28901950D01*
X11435714Y-28901950D02*
X11511905Y-28863855D01*
X12540476Y-29663855D02*
X12083333Y-29663855D01*
X12311905Y-29663855D02*
X12311905Y-28863855D01*
X12311905Y-28863855D02*
X12235714Y-28978140D01*
X12235714Y-28978140D02*
X12159524Y-29054331D01*
X12159524Y-29054331D02*
X12083333Y-29092426D01*
D11*
X10590476Y-31177149D02*
X10423810Y-30939054D01*
X10304762Y-31177149D02*
X10304762Y-30677149D01*
X10304762Y-30677149D02*
X10495238Y-30677149D01*
X10495238Y-30677149D02*
X10542857Y-30700959D01*
X10542857Y-30700959D02*
X10566667Y-30724768D01*
X10566667Y-30724768D02*
X10590476Y-30772387D01*
X10590476Y-30772387D02*
X10590476Y-30843816D01*
X10590476Y-30843816D02*
X10566667Y-30891435D01*
X10566667Y-30891435D02*
X10542857Y-30915244D01*
X10542857Y-30915244D02*
X10495238Y-30939054D01*
X10495238Y-30939054D02*
X10304762Y-30939054D01*
X11066667Y-31177149D02*
X10780953Y-31177149D01*
X10923810Y-31177149D02*
X10923810Y-30677149D01*
X10923810Y-30677149D02*
X10876191Y-30748578D01*
X10876191Y-30748578D02*
X10828572Y-30796197D01*
X10828572Y-30796197D02*
X10780953Y-30820006D01*
X11376190Y-30677149D02*
X11423809Y-30677149D01*
X11423809Y-30677149D02*
X11471428Y-30700959D01*
X11471428Y-30700959D02*
X11495238Y-30724768D01*
X11495238Y-30724768D02*
X11519047Y-30772387D01*
X11519047Y-30772387D02*
X11542857Y-30867625D01*
X11542857Y-30867625D02*
X11542857Y-30986673D01*
X11542857Y-30986673D02*
X11519047Y-31081911D01*
X11519047Y-31081911D02*
X11495238Y-31129530D01*
X11495238Y-31129530D02*
X11471428Y-31153340D01*
X11471428Y-31153340D02*
X11423809Y-31177149D01*
X11423809Y-31177149D02*
X11376190Y-31177149D01*
X11376190Y-31177149D02*
X11328571Y-31153340D01*
X11328571Y-31153340D02*
X11304762Y-31129530D01*
X11304762Y-31129530D02*
X11280952Y-31081911D01*
X11280952Y-31081911D02*
X11257143Y-30986673D01*
X11257143Y-30986673D02*
X11257143Y-30867625D01*
X11257143Y-30867625D02*
X11280952Y-30772387D01*
X11280952Y-30772387D02*
X11304762Y-30724768D01*
X11304762Y-30724768D02*
X11328571Y-30700959D01*
X11328571Y-30700959D02*
X11376190Y-30677149D01*
X12019047Y-31177149D02*
X11733333Y-31177149D01*
X11876190Y-31177149D02*
X11876190Y-30677149D01*
X11876190Y-30677149D02*
X11828571Y-30748578D01*
X11828571Y-30748578D02*
X11780952Y-30796197D01*
X11780952Y-30796197D02*
X11733333Y-30820006D01*
D10*
X5954762Y-29663855D02*
X5688095Y-29282902D01*
X5497619Y-29663855D02*
X5497619Y-28863855D01*
X5497619Y-28863855D02*
X5802381Y-28863855D01*
X5802381Y-28863855D02*
X5878571Y-28901950D01*
X5878571Y-28901950D02*
X5916666Y-28940045D01*
X5916666Y-28940045D02*
X5954762Y-29016236D01*
X5954762Y-29016236D02*
X5954762Y-29130521D01*
X5954762Y-29130521D02*
X5916666Y-29206712D01*
X5916666Y-29206712D02*
X5878571Y-29244807D01*
X5878571Y-29244807D02*
X5802381Y-29282902D01*
X5802381Y-29282902D02*
X5497619Y-29282902D01*
X6716666Y-29663855D02*
X6259523Y-29663855D01*
X6488095Y-29663855D02*
X6488095Y-28863855D01*
X6488095Y-28863855D02*
X6411904Y-28978140D01*
X6411904Y-28978140D02*
X6335714Y-29054331D01*
X6335714Y-29054331D02*
X6259523Y-29092426D01*
X7211905Y-28863855D02*
X7288095Y-28863855D01*
X7288095Y-28863855D02*
X7364286Y-28901950D01*
X7364286Y-28901950D02*
X7402381Y-28940045D01*
X7402381Y-28940045D02*
X7440476Y-29016236D01*
X7440476Y-29016236D02*
X7478571Y-29168617D01*
X7478571Y-29168617D02*
X7478571Y-29359093D01*
X7478571Y-29359093D02*
X7440476Y-29511474D01*
X7440476Y-29511474D02*
X7402381Y-29587664D01*
X7402381Y-29587664D02*
X7364286Y-29625760D01*
X7364286Y-29625760D02*
X7288095Y-29663855D01*
X7288095Y-29663855D02*
X7211905Y-29663855D01*
X7211905Y-29663855D02*
X7135714Y-29625760D01*
X7135714Y-29625760D02*
X7097619Y-29587664D01*
X7097619Y-29587664D02*
X7059524Y-29511474D01*
X7059524Y-29511474D02*
X7021428Y-29359093D01*
X7021428Y-29359093D02*
X7021428Y-29168617D01*
X7021428Y-29168617D02*
X7059524Y-29016236D01*
X7059524Y-29016236D02*
X7097619Y-28940045D01*
X7097619Y-28940045D02*
X7135714Y-28901950D01*
X7135714Y-28901950D02*
X7211905Y-28863855D01*
X7973810Y-28863855D02*
X8050000Y-28863855D01*
X8050000Y-28863855D02*
X8126191Y-28901950D01*
X8126191Y-28901950D02*
X8164286Y-28940045D01*
X8164286Y-28940045D02*
X8202381Y-29016236D01*
X8202381Y-29016236D02*
X8240476Y-29168617D01*
X8240476Y-29168617D02*
X8240476Y-29359093D01*
X8240476Y-29359093D02*
X8202381Y-29511474D01*
X8202381Y-29511474D02*
X8164286Y-29587664D01*
X8164286Y-29587664D02*
X8126191Y-29625760D01*
X8126191Y-29625760D02*
X8050000Y-29663855D01*
X8050000Y-29663855D02*
X7973810Y-29663855D01*
X7973810Y-29663855D02*
X7897619Y-29625760D01*
X7897619Y-29625760D02*
X7859524Y-29587664D01*
X7859524Y-29587664D02*
X7821429Y-29511474D01*
X7821429Y-29511474D02*
X7783333Y-29359093D01*
X7783333Y-29359093D02*
X7783333Y-29168617D01*
X7783333Y-29168617D02*
X7821429Y-29016236D01*
X7821429Y-29016236D02*
X7859524Y-28940045D01*
X7859524Y-28940045D02*
X7897619Y-28901950D01*
X7897619Y-28901950D02*
X7973810Y-28863855D01*
D11*
X6290476Y-31177149D02*
X6123810Y-30939054D01*
X6004762Y-31177149D02*
X6004762Y-30677149D01*
X6004762Y-30677149D02*
X6195238Y-30677149D01*
X6195238Y-30677149D02*
X6242857Y-30700959D01*
X6242857Y-30700959D02*
X6266667Y-30724768D01*
X6266667Y-30724768D02*
X6290476Y-30772387D01*
X6290476Y-30772387D02*
X6290476Y-30843816D01*
X6290476Y-30843816D02*
X6266667Y-30891435D01*
X6266667Y-30891435D02*
X6242857Y-30915244D01*
X6242857Y-30915244D02*
X6195238Y-30939054D01*
X6195238Y-30939054D02*
X6004762Y-30939054D01*
X6766667Y-31177149D02*
X6480953Y-31177149D01*
X6623810Y-31177149D02*
X6623810Y-30677149D01*
X6623810Y-30677149D02*
X6576191Y-30748578D01*
X6576191Y-30748578D02*
X6528572Y-30796197D01*
X6528572Y-30796197D02*
X6480953Y-30820006D01*
X7076190Y-30677149D02*
X7123809Y-30677149D01*
X7123809Y-30677149D02*
X7171428Y-30700959D01*
X7171428Y-30700959D02*
X7195238Y-30724768D01*
X7195238Y-30724768D02*
X7219047Y-30772387D01*
X7219047Y-30772387D02*
X7242857Y-30867625D01*
X7242857Y-30867625D02*
X7242857Y-30986673D01*
X7242857Y-30986673D02*
X7219047Y-31081911D01*
X7219047Y-31081911D02*
X7195238Y-31129530D01*
X7195238Y-31129530D02*
X7171428Y-31153340D01*
X7171428Y-31153340D02*
X7123809Y-31177149D01*
X7123809Y-31177149D02*
X7076190Y-31177149D01*
X7076190Y-31177149D02*
X7028571Y-31153340D01*
X7028571Y-31153340D02*
X7004762Y-31129530D01*
X7004762Y-31129530D02*
X6980952Y-31081911D01*
X6980952Y-31081911D02*
X6957143Y-30986673D01*
X6957143Y-30986673D02*
X6957143Y-30867625D01*
X6957143Y-30867625D02*
X6980952Y-30772387D01*
X6980952Y-30772387D02*
X7004762Y-30724768D01*
X7004762Y-30724768D02*
X7028571Y-30700959D01*
X7028571Y-30700959D02*
X7076190Y-30677149D01*
X7552380Y-30677149D02*
X7599999Y-30677149D01*
X7599999Y-30677149D02*
X7647618Y-30700959D01*
X7647618Y-30700959D02*
X7671428Y-30724768D01*
X7671428Y-30724768D02*
X7695237Y-30772387D01*
X7695237Y-30772387D02*
X7719047Y-30867625D01*
X7719047Y-30867625D02*
X7719047Y-30986673D01*
X7719047Y-30986673D02*
X7695237Y-31081911D01*
X7695237Y-31081911D02*
X7671428Y-31129530D01*
X7671428Y-31129530D02*
X7647618Y-31153340D01*
X7647618Y-31153340D02*
X7599999Y-31177149D01*
X7599999Y-31177149D02*
X7552380Y-31177149D01*
X7552380Y-31177149D02*
X7504761Y-31153340D01*
X7504761Y-31153340D02*
X7480952Y-31129530D01*
X7480952Y-31129530D02*
X7457142Y-31081911D01*
X7457142Y-31081911D02*
X7433333Y-30986673D01*
X7433333Y-30986673D02*
X7433333Y-30867625D01*
X7433333Y-30867625D02*
X7457142Y-30772387D01*
X7457142Y-30772387D02*
X7480952Y-30724768D01*
X7480952Y-30724768D02*
X7504761Y-30700959D01*
X7504761Y-30700959D02*
X7552380Y-30677149D01*
D10*
X45535714Y-29463855D02*
X45269047Y-29082902D01*
X45078571Y-29463855D02*
X45078571Y-28663855D01*
X45078571Y-28663855D02*
X45383333Y-28663855D01*
X45383333Y-28663855D02*
X45459523Y-28701950D01*
X45459523Y-28701950D02*
X45497618Y-28740045D01*
X45497618Y-28740045D02*
X45535714Y-28816236D01*
X45535714Y-28816236D02*
X45535714Y-28930521D01*
X45535714Y-28930521D02*
X45497618Y-29006712D01*
X45497618Y-29006712D02*
X45459523Y-29044807D01*
X45459523Y-29044807D02*
X45383333Y-29082902D01*
X45383333Y-29082902D02*
X45078571Y-29082902D01*
X46297618Y-29463855D02*
X45840475Y-29463855D01*
X46069047Y-29463855D02*
X46069047Y-28663855D01*
X46069047Y-28663855D02*
X45992856Y-28778140D01*
X45992856Y-28778140D02*
X45916666Y-28854331D01*
X45916666Y-28854331D02*
X45840475Y-28892426D01*
X47059523Y-29463855D02*
X46602380Y-29463855D01*
X46830952Y-29463855D02*
X46830952Y-28663855D01*
X46830952Y-28663855D02*
X46754761Y-28778140D01*
X46754761Y-28778140D02*
X46678571Y-28854331D01*
X46678571Y-28854331D02*
X46602380Y-28892426D01*
D11*
X45728571Y-30977149D02*
X45561905Y-30739054D01*
X45442857Y-30977149D02*
X45442857Y-30477149D01*
X45442857Y-30477149D02*
X45633333Y-30477149D01*
X45633333Y-30477149D02*
X45680952Y-30500959D01*
X45680952Y-30500959D02*
X45704762Y-30524768D01*
X45704762Y-30524768D02*
X45728571Y-30572387D01*
X45728571Y-30572387D02*
X45728571Y-30643816D01*
X45728571Y-30643816D02*
X45704762Y-30691435D01*
X45704762Y-30691435D02*
X45680952Y-30715244D01*
X45680952Y-30715244D02*
X45633333Y-30739054D01*
X45633333Y-30739054D02*
X45442857Y-30739054D01*
X46204762Y-30977149D02*
X45919048Y-30977149D01*
X46061905Y-30977149D02*
X46061905Y-30477149D01*
X46061905Y-30477149D02*
X46014286Y-30548578D01*
X46014286Y-30548578D02*
X45966667Y-30596197D01*
X45966667Y-30596197D02*
X45919048Y-30620006D01*
X46680952Y-30977149D02*
X46395238Y-30977149D01*
X46538095Y-30977149D02*
X46538095Y-30477149D01*
X46538095Y-30477149D02*
X46490476Y-30548578D01*
X46490476Y-30548578D02*
X46442857Y-30596197D01*
X46442857Y-30596197D02*
X46395238Y-30620006D01*
D12*
X12846666Y-56624819D02*
X12846666Y-57339104D01*
X12846666Y-57339104D02*
X12799047Y-57481961D01*
X12799047Y-57481961D02*
X12703809Y-57577200D01*
X12703809Y-57577200D02*
X12560952Y-57624819D01*
X12560952Y-57624819D02*
X12465714Y-57624819D01*
X13227619Y-56624819D02*
X13846666Y-56624819D01*
X13846666Y-56624819D02*
X13513333Y-57005771D01*
X13513333Y-57005771D02*
X13656190Y-57005771D01*
X13656190Y-57005771D02*
X13751428Y-57053390D01*
X13751428Y-57053390D02*
X13799047Y-57101009D01*
X13799047Y-57101009D02*
X13846666Y-57196247D01*
X13846666Y-57196247D02*
X13846666Y-57434342D01*
X13846666Y-57434342D02*
X13799047Y-57529580D01*
X13799047Y-57529580D02*
X13751428Y-57577200D01*
X13751428Y-57577200D02*
X13656190Y-57624819D01*
X13656190Y-57624819D02*
X13370476Y-57624819D01*
X13370476Y-57624819D02*
X13275238Y-57577200D01*
X13275238Y-57577200D02*
X13227619Y-57529580D01*
D10*
X16365714Y-30787664D02*
X16327618Y-30825760D01*
X16327618Y-30825760D02*
X16213333Y-30863855D01*
X16213333Y-30863855D02*
X16137142Y-30863855D01*
X16137142Y-30863855D02*
X16022856Y-30825760D01*
X16022856Y-30825760D02*
X15946666Y-30749569D01*
X15946666Y-30749569D02*
X15908571Y-30673379D01*
X15908571Y-30673379D02*
X15870475Y-30520998D01*
X15870475Y-30520998D02*
X15870475Y-30406712D01*
X15870475Y-30406712D02*
X15908571Y-30254331D01*
X15908571Y-30254331D02*
X15946666Y-30178140D01*
X15946666Y-30178140D02*
X16022856Y-30101950D01*
X16022856Y-30101950D02*
X16137142Y-30063855D01*
X16137142Y-30063855D02*
X16213333Y-30063855D01*
X16213333Y-30063855D02*
X16327618Y-30101950D01*
X16327618Y-30101950D02*
X16365714Y-30140045D01*
X17127618Y-30863855D02*
X16670475Y-30863855D01*
X16899047Y-30863855D02*
X16899047Y-30063855D01*
X16899047Y-30063855D02*
X16822856Y-30178140D01*
X16822856Y-30178140D02*
X16746666Y-30254331D01*
X16746666Y-30254331D02*
X16670475Y-30292426D01*
X17394285Y-30063855D02*
X17889523Y-30063855D01*
X17889523Y-30063855D02*
X17622857Y-30368617D01*
X17622857Y-30368617D02*
X17737142Y-30368617D01*
X17737142Y-30368617D02*
X17813333Y-30406712D01*
X17813333Y-30406712D02*
X17851428Y-30444807D01*
X17851428Y-30444807D02*
X17889523Y-30520998D01*
X17889523Y-30520998D02*
X17889523Y-30711474D01*
X17889523Y-30711474D02*
X17851428Y-30787664D01*
X17851428Y-30787664D02*
X17813333Y-30825760D01*
X17813333Y-30825760D02*
X17737142Y-30863855D01*
X17737142Y-30863855D02*
X17508571Y-30863855D01*
X17508571Y-30863855D02*
X17432380Y-30825760D01*
X17432380Y-30825760D02*
X17394285Y-30787664D01*
D11*
X16558571Y-32359530D02*
X16534762Y-32383340D01*
X16534762Y-32383340D02*
X16463333Y-32407149D01*
X16463333Y-32407149D02*
X16415714Y-32407149D01*
X16415714Y-32407149D02*
X16344286Y-32383340D01*
X16344286Y-32383340D02*
X16296667Y-32335720D01*
X16296667Y-32335720D02*
X16272857Y-32288101D01*
X16272857Y-32288101D02*
X16249048Y-32192863D01*
X16249048Y-32192863D02*
X16249048Y-32121435D01*
X16249048Y-32121435D02*
X16272857Y-32026197D01*
X16272857Y-32026197D02*
X16296667Y-31978578D01*
X16296667Y-31978578D02*
X16344286Y-31930959D01*
X16344286Y-31930959D02*
X16415714Y-31907149D01*
X16415714Y-31907149D02*
X16463333Y-31907149D01*
X16463333Y-31907149D02*
X16534762Y-31930959D01*
X16534762Y-31930959D02*
X16558571Y-31954768D01*
X17034762Y-32407149D02*
X16749048Y-32407149D01*
X16891905Y-32407149D02*
X16891905Y-31907149D01*
X16891905Y-31907149D02*
X16844286Y-31978578D01*
X16844286Y-31978578D02*
X16796667Y-32026197D01*
X16796667Y-32026197D02*
X16749048Y-32050006D01*
X17201428Y-31907149D02*
X17510952Y-31907149D01*
X17510952Y-31907149D02*
X17344285Y-32097625D01*
X17344285Y-32097625D02*
X17415714Y-32097625D01*
X17415714Y-32097625D02*
X17463333Y-32121435D01*
X17463333Y-32121435D02*
X17487142Y-32145244D01*
X17487142Y-32145244D02*
X17510952Y-32192863D01*
X17510952Y-32192863D02*
X17510952Y-32311911D01*
X17510952Y-32311911D02*
X17487142Y-32359530D01*
X17487142Y-32359530D02*
X17463333Y-32383340D01*
X17463333Y-32383340D02*
X17415714Y-32407149D01*
X17415714Y-32407149D02*
X17272857Y-32407149D01*
X17272857Y-32407149D02*
X17225238Y-32383340D01*
X17225238Y-32383340D02*
X17201428Y-32359530D01*
D10*
X25735714Y-30863855D02*
X25469047Y-30482902D01*
X25278571Y-30863855D02*
X25278571Y-30063855D01*
X25278571Y-30063855D02*
X25583333Y-30063855D01*
X25583333Y-30063855D02*
X25659523Y-30101950D01*
X25659523Y-30101950D02*
X25697618Y-30140045D01*
X25697618Y-30140045D02*
X25735714Y-30216236D01*
X25735714Y-30216236D02*
X25735714Y-30330521D01*
X25735714Y-30330521D02*
X25697618Y-30406712D01*
X25697618Y-30406712D02*
X25659523Y-30444807D01*
X25659523Y-30444807D02*
X25583333Y-30482902D01*
X25583333Y-30482902D02*
X25278571Y-30482902D01*
X26040475Y-30140045D02*
X26078571Y-30101950D01*
X26078571Y-30101950D02*
X26154761Y-30063855D01*
X26154761Y-30063855D02*
X26345237Y-30063855D01*
X26345237Y-30063855D02*
X26421428Y-30101950D01*
X26421428Y-30101950D02*
X26459523Y-30140045D01*
X26459523Y-30140045D02*
X26497618Y-30216236D01*
X26497618Y-30216236D02*
X26497618Y-30292426D01*
X26497618Y-30292426D02*
X26459523Y-30406712D01*
X26459523Y-30406712D02*
X26002380Y-30863855D01*
X26002380Y-30863855D02*
X26497618Y-30863855D01*
X26992857Y-30063855D02*
X27069047Y-30063855D01*
X27069047Y-30063855D02*
X27145238Y-30101950D01*
X27145238Y-30101950D02*
X27183333Y-30140045D01*
X27183333Y-30140045D02*
X27221428Y-30216236D01*
X27221428Y-30216236D02*
X27259523Y-30368617D01*
X27259523Y-30368617D02*
X27259523Y-30559093D01*
X27259523Y-30559093D02*
X27221428Y-30711474D01*
X27221428Y-30711474D02*
X27183333Y-30787664D01*
X27183333Y-30787664D02*
X27145238Y-30825760D01*
X27145238Y-30825760D02*
X27069047Y-30863855D01*
X27069047Y-30863855D02*
X26992857Y-30863855D01*
X26992857Y-30863855D02*
X26916666Y-30825760D01*
X26916666Y-30825760D02*
X26878571Y-30787664D01*
X26878571Y-30787664D02*
X26840476Y-30711474D01*
X26840476Y-30711474D02*
X26802380Y-30559093D01*
X26802380Y-30559093D02*
X26802380Y-30368617D01*
X26802380Y-30368617D02*
X26840476Y-30216236D01*
X26840476Y-30216236D02*
X26878571Y-30140045D01*
X26878571Y-30140045D02*
X26916666Y-30101950D01*
X26916666Y-30101950D02*
X26992857Y-30063855D01*
D11*
X25928571Y-32377149D02*
X25761905Y-32139054D01*
X25642857Y-32377149D02*
X25642857Y-31877149D01*
X25642857Y-31877149D02*
X25833333Y-31877149D01*
X25833333Y-31877149D02*
X25880952Y-31900959D01*
X25880952Y-31900959D02*
X25904762Y-31924768D01*
X25904762Y-31924768D02*
X25928571Y-31972387D01*
X25928571Y-31972387D02*
X25928571Y-32043816D01*
X25928571Y-32043816D02*
X25904762Y-32091435D01*
X25904762Y-32091435D02*
X25880952Y-32115244D01*
X25880952Y-32115244D02*
X25833333Y-32139054D01*
X25833333Y-32139054D02*
X25642857Y-32139054D01*
X26119048Y-31924768D02*
X26142857Y-31900959D01*
X26142857Y-31900959D02*
X26190476Y-31877149D01*
X26190476Y-31877149D02*
X26309524Y-31877149D01*
X26309524Y-31877149D02*
X26357143Y-31900959D01*
X26357143Y-31900959D02*
X26380952Y-31924768D01*
X26380952Y-31924768D02*
X26404762Y-31972387D01*
X26404762Y-31972387D02*
X26404762Y-32020006D01*
X26404762Y-32020006D02*
X26380952Y-32091435D01*
X26380952Y-32091435D02*
X26095238Y-32377149D01*
X26095238Y-32377149D02*
X26404762Y-32377149D01*
X26714285Y-31877149D02*
X26761904Y-31877149D01*
X26761904Y-31877149D02*
X26809523Y-31900959D01*
X26809523Y-31900959D02*
X26833333Y-31924768D01*
X26833333Y-31924768D02*
X26857142Y-31972387D01*
X26857142Y-31972387D02*
X26880952Y-32067625D01*
X26880952Y-32067625D02*
X26880952Y-32186673D01*
X26880952Y-32186673D02*
X26857142Y-32281911D01*
X26857142Y-32281911D02*
X26833333Y-32329530D01*
X26833333Y-32329530D02*
X26809523Y-32353340D01*
X26809523Y-32353340D02*
X26761904Y-32377149D01*
X26761904Y-32377149D02*
X26714285Y-32377149D01*
X26714285Y-32377149D02*
X26666666Y-32353340D01*
X26666666Y-32353340D02*
X26642857Y-32329530D01*
X26642857Y-32329530D02*
X26619047Y-32281911D01*
X26619047Y-32281911D02*
X26595238Y-32186673D01*
X26595238Y-32186673D02*
X26595238Y-32067625D01*
X26595238Y-32067625D02*
X26619047Y-31972387D01*
X26619047Y-31972387D02*
X26642857Y-31924768D01*
X26642857Y-31924768D02*
X26666666Y-31900959D01*
X26666666Y-31900959D02*
X26714285Y-31877149D01*
D10*
X21416667Y-30863855D02*
X21150000Y-30482902D01*
X20959524Y-30863855D02*
X20959524Y-30063855D01*
X20959524Y-30063855D02*
X21264286Y-30063855D01*
X21264286Y-30063855D02*
X21340476Y-30101950D01*
X21340476Y-30101950D02*
X21378571Y-30140045D01*
X21378571Y-30140045D02*
X21416667Y-30216236D01*
X21416667Y-30216236D02*
X21416667Y-30330521D01*
X21416667Y-30330521D02*
X21378571Y-30406712D01*
X21378571Y-30406712D02*
X21340476Y-30444807D01*
X21340476Y-30444807D02*
X21264286Y-30482902D01*
X21264286Y-30482902D02*
X20959524Y-30482902D01*
X22140476Y-30063855D02*
X21759524Y-30063855D01*
X21759524Y-30063855D02*
X21721428Y-30444807D01*
X21721428Y-30444807D02*
X21759524Y-30406712D01*
X21759524Y-30406712D02*
X21835714Y-30368617D01*
X21835714Y-30368617D02*
X22026190Y-30368617D01*
X22026190Y-30368617D02*
X22102381Y-30406712D01*
X22102381Y-30406712D02*
X22140476Y-30444807D01*
X22140476Y-30444807D02*
X22178571Y-30520998D01*
X22178571Y-30520998D02*
X22178571Y-30711474D01*
X22178571Y-30711474D02*
X22140476Y-30787664D01*
X22140476Y-30787664D02*
X22102381Y-30825760D01*
X22102381Y-30825760D02*
X22026190Y-30863855D01*
X22026190Y-30863855D02*
X21835714Y-30863855D01*
X21835714Y-30863855D02*
X21759524Y-30825760D01*
X21759524Y-30825760D02*
X21721428Y-30787664D01*
D11*
X21466666Y-32377149D02*
X21300000Y-32139054D01*
X21180952Y-32377149D02*
X21180952Y-31877149D01*
X21180952Y-31877149D02*
X21371428Y-31877149D01*
X21371428Y-31877149D02*
X21419047Y-31900959D01*
X21419047Y-31900959D02*
X21442857Y-31924768D01*
X21442857Y-31924768D02*
X21466666Y-31972387D01*
X21466666Y-31972387D02*
X21466666Y-32043816D01*
X21466666Y-32043816D02*
X21442857Y-32091435D01*
X21442857Y-32091435D02*
X21419047Y-32115244D01*
X21419047Y-32115244D02*
X21371428Y-32139054D01*
X21371428Y-32139054D02*
X21180952Y-32139054D01*
X21919047Y-31877149D02*
X21680952Y-31877149D01*
X21680952Y-31877149D02*
X21657143Y-32115244D01*
X21657143Y-32115244D02*
X21680952Y-32091435D01*
X21680952Y-32091435D02*
X21728571Y-32067625D01*
X21728571Y-32067625D02*
X21847619Y-32067625D01*
X21847619Y-32067625D02*
X21895238Y-32091435D01*
X21895238Y-32091435D02*
X21919047Y-32115244D01*
X21919047Y-32115244D02*
X21942857Y-32162863D01*
X21942857Y-32162863D02*
X21942857Y-32281911D01*
X21942857Y-32281911D02*
X21919047Y-32329530D01*
X21919047Y-32329530D02*
X21895238Y-32353340D01*
X21895238Y-32353340D02*
X21847619Y-32377149D01*
X21847619Y-32377149D02*
X21728571Y-32377149D01*
X21728571Y-32377149D02*
X21680952Y-32353340D01*
X21680952Y-32353340D02*
X21657143Y-32329530D01*
D10*
X5984762Y-23787664D02*
X5946666Y-23825760D01*
X5946666Y-23825760D02*
X5832381Y-23863855D01*
X5832381Y-23863855D02*
X5756190Y-23863855D01*
X5756190Y-23863855D02*
X5641904Y-23825760D01*
X5641904Y-23825760D02*
X5565714Y-23749569D01*
X5565714Y-23749569D02*
X5527619Y-23673379D01*
X5527619Y-23673379D02*
X5489523Y-23520998D01*
X5489523Y-23520998D02*
X5489523Y-23406712D01*
X5489523Y-23406712D02*
X5527619Y-23254331D01*
X5527619Y-23254331D02*
X5565714Y-23178140D01*
X5565714Y-23178140D02*
X5641904Y-23101950D01*
X5641904Y-23101950D02*
X5756190Y-23063855D01*
X5756190Y-23063855D02*
X5832381Y-23063855D01*
X5832381Y-23063855D02*
X5946666Y-23101950D01*
X5946666Y-23101950D02*
X5984762Y-23140045D01*
X6746666Y-23863855D02*
X6289523Y-23863855D01*
X6518095Y-23863855D02*
X6518095Y-23063855D01*
X6518095Y-23063855D02*
X6441904Y-23178140D01*
X6441904Y-23178140D02*
X6365714Y-23254331D01*
X6365714Y-23254331D02*
X6289523Y-23292426D01*
X7241905Y-23063855D02*
X7318095Y-23063855D01*
X7318095Y-23063855D02*
X7394286Y-23101950D01*
X7394286Y-23101950D02*
X7432381Y-23140045D01*
X7432381Y-23140045D02*
X7470476Y-23216236D01*
X7470476Y-23216236D02*
X7508571Y-23368617D01*
X7508571Y-23368617D02*
X7508571Y-23559093D01*
X7508571Y-23559093D02*
X7470476Y-23711474D01*
X7470476Y-23711474D02*
X7432381Y-23787664D01*
X7432381Y-23787664D02*
X7394286Y-23825760D01*
X7394286Y-23825760D02*
X7318095Y-23863855D01*
X7318095Y-23863855D02*
X7241905Y-23863855D01*
X7241905Y-23863855D02*
X7165714Y-23825760D01*
X7165714Y-23825760D02*
X7127619Y-23787664D01*
X7127619Y-23787664D02*
X7089524Y-23711474D01*
X7089524Y-23711474D02*
X7051428Y-23559093D01*
X7051428Y-23559093D02*
X7051428Y-23368617D01*
X7051428Y-23368617D02*
X7089524Y-23216236D01*
X7089524Y-23216236D02*
X7127619Y-23140045D01*
X7127619Y-23140045D02*
X7165714Y-23101950D01*
X7165714Y-23101950D02*
X7241905Y-23063855D01*
X8270476Y-23863855D02*
X7813333Y-23863855D01*
X8041905Y-23863855D02*
X8041905Y-23063855D01*
X8041905Y-23063855D02*
X7965714Y-23178140D01*
X7965714Y-23178140D02*
X7889524Y-23254331D01*
X7889524Y-23254331D02*
X7813333Y-23292426D01*
D11*
X6320476Y-25359530D02*
X6296667Y-25383340D01*
X6296667Y-25383340D02*
X6225238Y-25407149D01*
X6225238Y-25407149D02*
X6177619Y-25407149D01*
X6177619Y-25407149D02*
X6106191Y-25383340D01*
X6106191Y-25383340D02*
X6058572Y-25335720D01*
X6058572Y-25335720D02*
X6034762Y-25288101D01*
X6034762Y-25288101D02*
X6010953Y-25192863D01*
X6010953Y-25192863D02*
X6010953Y-25121435D01*
X6010953Y-25121435D02*
X6034762Y-25026197D01*
X6034762Y-25026197D02*
X6058572Y-24978578D01*
X6058572Y-24978578D02*
X6106191Y-24930959D01*
X6106191Y-24930959D02*
X6177619Y-24907149D01*
X6177619Y-24907149D02*
X6225238Y-24907149D01*
X6225238Y-24907149D02*
X6296667Y-24930959D01*
X6296667Y-24930959D02*
X6320476Y-24954768D01*
X6796667Y-25407149D02*
X6510953Y-25407149D01*
X6653810Y-25407149D02*
X6653810Y-24907149D01*
X6653810Y-24907149D02*
X6606191Y-24978578D01*
X6606191Y-24978578D02*
X6558572Y-25026197D01*
X6558572Y-25026197D02*
X6510953Y-25050006D01*
X7106190Y-24907149D02*
X7153809Y-24907149D01*
X7153809Y-24907149D02*
X7201428Y-24930959D01*
X7201428Y-24930959D02*
X7225238Y-24954768D01*
X7225238Y-24954768D02*
X7249047Y-25002387D01*
X7249047Y-25002387D02*
X7272857Y-25097625D01*
X7272857Y-25097625D02*
X7272857Y-25216673D01*
X7272857Y-25216673D02*
X7249047Y-25311911D01*
X7249047Y-25311911D02*
X7225238Y-25359530D01*
X7225238Y-25359530D02*
X7201428Y-25383340D01*
X7201428Y-25383340D02*
X7153809Y-25407149D01*
X7153809Y-25407149D02*
X7106190Y-25407149D01*
X7106190Y-25407149D02*
X7058571Y-25383340D01*
X7058571Y-25383340D02*
X7034762Y-25359530D01*
X7034762Y-25359530D02*
X7010952Y-25311911D01*
X7010952Y-25311911D02*
X6987143Y-25216673D01*
X6987143Y-25216673D02*
X6987143Y-25097625D01*
X6987143Y-25097625D02*
X7010952Y-25002387D01*
X7010952Y-25002387D02*
X7034762Y-24954768D01*
X7034762Y-24954768D02*
X7058571Y-24930959D01*
X7058571Y-24930959D02*
X7106190Y-24907149D01*
X7749047Y-25407149D02*
X7463333Y-25407149D01*
X7606190Y-25407149D02*
X7606190Y-24907149D01*
X7606190Y-24907149D02*
X7558571Y-24978578D01*
X7558571Y-24978578D02*
X7510952Y-25026197D01*
X7510952Y-25026197D02*
X7463333Y-25050006D01*
D10*
X49935714Y-29463855D02*
X49669047Y-29082902D01*
X49478571Y-29463855D02*
X49478571Y-28663855D01*
X49478571Y-28663855D02*
X49783333Y-28663855D01*
X49783333Y-28663855D02*
X49859523Y-28701950D01*
X49859523Y-28701950D02*
X49897618Y-28740045D01*
X49897618Y-28740045D02*
X49935714Y-28816236D01*
X49935714Y-28816236D02*
X49935714Y-28930521D01*
X49935714Y-28930521D02*
X49897618Y-29006712D01*
X49897618Y-29006712D02*
X49859523Y-29044807D01*
X49859523Y-29044807D02*
X49783333Y-29082902D01*
X49783333Y-29082902D02*
X49478571Y-29082902D01*
X50697618Y-29463855D02*
X50240475Y-29463855D01*
X50469047Y-29463855D02*
X50469047Y-28663855D01*
X50469047Y-28663855D02*
X50392856Y-28778140D01*
X50392856Y-28778140D02*
X50316666Y-28854331D01*
X50316666Y-28854331D02*
X50240475Y-28892426D01*
X51002380Y-28740045D02*
X51040476Y-28701950D01*
X51040476Y-28701950D02*
X51116666Y-28663855D01*
X51116666Y-28663855D02*
X51307142Y-28663855D01*
X51307142Y-28663855D02*
X51383333Y-28701950D01*
X51383333Y-28701950D02*
X51421428Y-28740045D01*
X51421428Y-28740045D02*
X51459523Y-28816236D01*
X51459523Y-28816236D02*
X51459523Y-28892426D01*
X51459523Y-28892426D02*
X51421428Y-29006712D01*
X51421428Y-29006712D02*
X50964285Y-29463855D01*
X50964285Y-29463855D02*
X51459523Y-29463855D01*
D11*
X50128571Y-30977149D02*
X49961905Y-30739054D01*
X49842857Y-30977149D02*
X49842857Y-30477149D01*
X49842857Y-30477149D02*
X50033333Y-30477149D01*
X50033333Y-30477149D02*
X50080952Y-30500959D01*
X50080952Y-30500959D02*
X50104762Y-30524768D01*
X50104762Y-30524768D02*
X50128571Y-30572387D01*
X50128571Y-30572387D02*
X50128571Y-30643816D01*
X50128571Y-30643816D02*
X50104762Y-30691435D01*
X50104762Y-30691435D02*
X50080952Y-30715244D01*
X50080952Y-30715244D02*
X50033333Y-30739054D01*
X50033333Y-30739054D02*
X49842857Y-30739054D01*
X50604762Y-30977149D02*
X50319048Y-30977149D01*
X50461905Y-30977149D02*
X50461905Y-30477149D01*
X50461905Y-30477149D02*
X50414286Y-30548578D01*
X50414286Y-30548578D02*
X50366667Y-30596197D01*
X50366667Y-30596197D02*
X50319048Y-30620006D01*
X50795238Y-30524768D02*
X50819047Y-30500959D01*
X50819047Y-30500959D02*
X50866666Y-30477149D01*
X50866666Y-30477149D02*
X50985714Y-30477149D01*
X50985714Y-30477149D02*
X51033333Y-30500959D01*
X51033333Y-30500959D02*
X51057142Y-30524768D01*
X51057142Y-30524768D02*
X51080952Y-30572387D01*
X51080952Y-30572387D02*
X51080952Y-30620006D01*
X51080952Y-30620006D02*
X51057142Y-30691435D01*
X51057142Y-30691435D02*
X50771428Y-30977149D01*
X50771428Y-30977149D02*
X51080952Y-30977149D01*
D10*
X36140476Y-34663855D02*
X36140476Y-35311474D01*
X36140476Y-35311474D02*
X36178571Y-35387664D01*
X36178571Y-35387664D02*
X36216666Y-35425760D01*
X36216666Y-35425760D02*
X36292857Y-35463855D01*
X36292857Y-35463855D02*
X36445238Y-35463855D01*
X36445238Y-35463855D02*
X36521428Y-35425760D01*
X36521428Y-35425760D02*
X36559523Y-35387664D01*
X36559523Y-35387664D02*
X36597619Y-35311474D01*
X36597619Y-35311474D02*
X36597619Y-34663855D01*
X36902380Y-34663855D02*
X37435714Y-34663855D01*
X37435714Y-34663855D02*
X37092856Y-35463855D01*
D11*
X36477149Y-37280952D02*
X36881911Y-37280952D01*
X36881911Y-37280952D02*
X36929530Y-37257142D01*
X36929530Y-37257142D02*
X36953340Y-37233333D01*
X36953340Y-37233333D02*
X36977149Y-37185714D01*
X36977149Y-37185714D02*
X36977149Y-37090476D01*
X36977149Y-37090476D02*
X36953340Y-37042857D01*
X36953340Y-37042857D02*
X36929530Y-37019047D01*
X36929530Y-37019047D02*
X36881911Y-36995238D01*
X36881911Y-36995238D02*
X36477149Y-36995238D01*
X36477149Y-36804761D02*
X36477149Y-36471428D01*
X36477149Y-36471428D02*
X36977149Y-36685713D01*
D10*
X23565714Y-35463855D02*
X23299047Y-35082902D01*
X23108571Y-35463855D02*
X23108571Y-34663855D01*
X23108571Y-34663855D02*
X23413333Y-34663855D01*
X23413333Y-34663855D02*
X23489523Y-34701950D01*
X23489523Y-34701950D02*
X23527618Y-34740045D01*
X23527618Y-34740045D02*
X23565714Y-34816236D01*
X23565714Y-34816236D02*
X23565714Y-34930521D01*
X23565714Y-34930521D02*
X23527618Y-35006712D01*
X23527618Y-35006712D02*
X23489523Y-35044807D01*
X23489523Y-35044807D02*
X23413333Y-35082902D01*
X23413333Y-35082902D02*
X23108571Y-35082902D01*
X24327618Y-35463855D02*
X23870475Y-35463855D01*
X24099047Y-35463855D02*
X24099047Y-34663855D01*
X24099047Y-34663855D02*
X24022856Y-34778140D01*
X24022856Y-34778140D02*
X23946666Y-34854331D01*
X23946666Y-34854331D02*
X23870475Y-34892426D01*
X24708571Y-35463855D02*
X24860952Y-35463855D01*
X24860952Y-35463855D02*
X24937142Y-35425760D01*
X24937142Y-35425760D02*
X24975238Y-35387664D01*
X24975238Y-35387664D02*
X25051428Y-35273379D01*
X25051428Y-35273379D02*
X25089523Y-35120998D01*
X25089523Y-35120998D02*
X25089523Y-34816236D01*
X25089523Y-34816236D02*
X25051428Y-34740045D01*
X25051428Y-34740045D02*
X25013333Y-34701950D01*
X25013333Y-34701950D02*
X24937142Y-34663855D01*
X24937142Y-34663855D02*
X24784761Y-34663855D01*
X24784761Y-34663855D02*
X24708571Y-34701950D01*
X24708571Y-34701950D02*
X24670476Y-34740045D01*
X24670476Y-34740045D02*
X24632380Y-34816236D01*
X24632380Y-34816236D02*
X24632380Y-35006712D01*
X24632380Y-35006712D02*
X24670476Y-35082902D01*
X24670476Y-35082902D02*
X24708571Y-35120998D01*
X24708571Y-35120998D02*
X24784761Y-35159093D01*
X24784761Y-35159093D02*
X24937142Y-35159093D01*
X24937142Y-35159093D02*
X25013333Y-35120998D01*
X25013333Y-35120998D02*
X25051428Y-35082902D01*
X25051428Y-35082902D02*
X25089523Y-35006712D01*
X23565714Y-37293855D02*
X23299047Y-36912902D01*
X23108571Y-37293855D02*
X23108571Y-36493855D01*
X23108571Y-36493855D02*
X23413333Y-36493855D01*
X23413333Y-36493855D02*
X23489523Y-36531950D01*
X23489523Y-36531950D02*
X23527618Y-36570045D01*
X23527618Y-36570045D02*
X23565714Y-36646236D01*
X23565714Y-36646236D02*
X23565714Y-36760521D01*
X23565714Y-36760521D02*
X23527618Y-36836712D01*
X23527618Y-36836712D02*
X23489523Y-36874807D01*
X23489523Y-36874807D02*
X23413333Y-36912902D01*
X23413333Y-36912902D02*
X23108571Y-36912902D01*
X24327618Y-37293855D02*
X23870475Y-37293855D01*
X24099047Y-37293855D02*
X24099047Y-36493855D01*
X24099047Y-36493855D02*
X24022856Y-36608140D01*
X24022856Y-36608140D02*
X23946666Y-36684331D01*
X23946666Y-36684331D02*
X23870475Y-36722426D01*
X24708571Y-37293855D02*
X24860952Y-37293855D01*
X24860952Y-37293855D02*
X24937142Y-37255760D01*
X24937142Y-37255760D02*
X24975238Y-37217664D01*
X24975238Y-37217664D02*
X25051428Y-37103379D01*
X25051428Y-37103379D02*
X25089523Y-36950998D01*
X25089523Y-36950998D02*
X25089523Y-36646236D01*
X25089523Y-36646236D02*
X25051428Y-36570045D01*
X25051428Y-36570045D02*
X25013333Y-36531950D01*
X25013333Y-36531950D02*
X24937142Y-36493855D01*
X24937142Y-36493855D02*
X24784761Y-36493855D01*
X24784761Y-36493855D02*
X24708571Y-36531950D01*
X24708571Y-36531950D02*
X24670476Y-36570045D01*
X24670476Y-36570045D02*
X24632380Y-36646236D01*
X24632380Y-36646236D02*
X24632380Y-36836712D01*
X24632380Y-36836712D02*
X24670476Y-36912902D01*
X24670476Y-36912902D02*
X24708571Y-36950998D01*
X24708571Y-36950998D02*
X24784761Y-36989093D01*
X24784761Y-36989093D02*
X24937142Y-36989093D01*
X24937142Y-36989093D02*
X25013333Y-36950998D01*
X25013333Y-36950998D02*
X25051428Y-36912902D01*
X25051428Y-36912902D02*
X25089523Y-36836712D01*
X21416667Y-27863855D02*
X21150000Y-27482902D01*
X20959524Y-27863855D02*
X20959524Y-27063855D01*
X20959524Y-27063855D02*
X21264286Y-27063855D01*
X21264286Y-27063855D02*
X21340476Y-27101950D01*
X21340476Y-27101950D02*
X21378571Y-27140045D01*
X21378571Y-27140045D02*
X21416667Y-27216236D01*
X21416667Y-27216236D02*
X21416667Y-27330521D01*
X21416667Y-27330521D02*
X21378571Y-27406712D01*
X21378571Y-27406712D02*
X21340476Y-27444807D01*
X21340476Y-27444807D02*
X21264286Y-27482902D01*
X21264286Y-27482902D02*
X20959524Y-27482902D01*
X21873809Y-27406712D02*
X21797619Y-27368617D01*
X21797619Y-27368617D02*
X21759524Y-27330521D01*
X21759524Y-27330521D02*
X21721428Y-27254331D01*
X21721428Y-27254331D02*
X21721428Y-27216236D01*
X21721428Y-27216236D02*
X21759524Y-27140045D01*
X21759524Y-27140045D02*
X21797619Y-27101950D01*
X21797619Y-27101950D02*
X21873809Y-27063855D01*
X21873809Y-27063855D02*
X22026190Y-27063855D01*
X22026190Y-27063855D02*
X22102381Y-27101950D01*
X22102381Y-27101950D02*
X22140476Y-27140045D01*
X22140476Y-27140045D02*
X22178571Y-27216236D01*
X22178571Y-27216236D02*
X22178571Y-27254331D01*
X22178571Y-27254331D02*
X22140476Y-27330521D01*
X22140476Y-27330521D02*
X22102381Y-27368617D01*
X22102381Y-27368617D02*
X22026190Y-27406712D01*
X22026190Y-27406712D02*
X21873809Y-27406712D01*
X21873809Y-27406712D02*
X21797619Y-27444807D01*
X21797619Y-27444807D02*
X21759524Y-27482902D01*
X21759524Y-27482902D02*
X21721428Y-27559093D01*
X21721428Y-27559093D02*
X21721428Y-27711474D01*
X21721428Y-27711474D02*
X21759524Y-27787664D01*
X21759524Y-27787664D02*
X21797619Y-27825760D01*
X21797619Y-27825760D02*
X21873809Y-27863855D01*
X21873809Y-27863855D02*
X22026190Y-27863855D01*
X22026190Y-27863855D02*
X22102381Y-27825760D01*
X22102381Y-27825760D02*
X22140476Y-27787664D01*
X22140476Y-27787664D02*
X22178571Y-27711474D01*
X22178571Y-27711474D02*
X22178571Y-27559093D01*
X22178571Y-27559093D02*
X22140476Y-27482902D01*
X22140476Y-27482902D02*
X22102381Y-27444807D01*
X22102381Y-27444807D02*
X22026190Y-27406712D01*
D11*
X21466666Y-29377149D02*
X21300000Y-29139054D01*
X21180952Y-29377149D02*
X21180952Y-28877149D01*
X21180952Y-28877149D02*
X21371428Y-28877149D01*
X21371428Y-28877149D02*
X21419047Y-28900959D01*
X21419047Y-28900959D02*
X21442857Y-28924768D01*
X21442857Y-28924768D02*
X21466666Y-28972387D01*
X21466666Y-28972387D02*
X21466666Y-29043816D01*
X21466666Y-29043816D02*
X21442857Y-29091435D01*
X21442857Y-29091435D02*
X21419047Y-29115244D01*
X21419047Y-29115244D02*
X21371428Y-29139054D01*
X21371428Y-29139054D02*
X21180952Y-29139054D01*
X21752381Y-29091435D02*
X21704762Y-29067625D01*
X21704762Y-29067625D02*
X21680952Y-29043816D01*
X21680952Y-29043816D02*
X21657143Y-28996197D01*
X21657143Y-28996197D02*
X21657143Y-28972387D01*
X21657143Y-28972387D02*
X21680952Y-28924768D01*
X21680952Y-28924768D02*
X21704762Y-28900959D01*
X21704762Y-28900959D02*
X21752381Y-28877149D01*
X21752381Y-28877149D02*
X21847619Y-28877149D01*
X21847619Y-28877149D02*
X21895238Y-28900959D01*
X21895238Y-28900959D02*
X21919047Y-28924768D01*
X21919047Y-28924768D02*
X21942857Y-28972387D01*
X21942857Y-28972387D02*
X21942857Y-28996197D01*
X21942857Y-28996197D02*
X21919047Y-29043816D01*
X21919047Y-29043816D02*
X21895238Y-29067625D01*
X21895238Y-29067625D02*
X21847619Y-29091435D01*
X21847619Y-29091435D02*
X21752381Y-29091435D01*
X21752381Y-29091435D02*
X21704762Y-29115244D01*
X21704762Y-29115244D02*
X21680952Y-29139054D01*
X21680952Y-29139054D02*
X21657143Y-29186673D01*
X21657143Y-29186673D02*
X21657143Y-29281911D01*
X21657143Y-29281911D02*
X21680952Y-29329530D01*
X21680952Y-29329530D02*
X21704762Y-29353340D01*
X21704762Y-29353340D02*
X21752381Y-29377149D01*
X21752381Y-29377149D02*
X21847619Y-29377149D01*
X21847619Y-29377149D02*
X21895238Y-29353340D01*
X21895238Y-29353340D02*
X21919047Y-29329530D01*
X21919047Y-29329530D02*
X21942857Y-29281911D01*
X21942857Y-29281911D02*
X21942857Y-29186673D01*
X21942857Y-29186673D02*
X21919047Y-29139054D01*
X21919047Y-29139054D02*
X21895238Y-29115244D01*
X21895238Y-29115244D02*
X21847619Y-29091435D01*
D10*
X5078571Y-19863855D02*
X5078571Y-20511474D01*
X5078571Y-20511474D02*
X5116666Y-20587664D01*
X5116666Y-20587664D02*
X5154761Y-20625760D01*
X5154761Y-20625760D02*
X5230952Y-20663855D01*
X5230952Y-20663855D02*
X5383333Y-20663855D01*
X5383333Y-20663855D02*
X5459523Y-20625760D01*
X5459523Y-20625760D02*
X5497618Y-20587664D01*
X5497618Y-20587664D02*
X5535714Y-20511474D01*
X5535714Y-20511474D02*
X5535714Y-19863855D01*
X6335713Y-20663855D02*
X5878570Y-20663855D01*
X6107142Y-20663855D02*
X6107142Y-19863855D01*
X6107142Y-19863855D02*
X6030951Y-19978140D01*
X6030951Y-19978140D02*
X5954761Y-20054331D01*
X5954761Y-20054331D02*
X5878570Y-20092426D01*
X6830952Y-19863855D02*
X6907142Y-19863855D01*
X6907142Y-19863855D02*
X6983333Y-19901950D01*
X6983333Y-19901950D02*
X7021428Y-19940045D01*
X7021428Y-19940045D02*
X7059523Y-20016236D01*
X7059523Y-20016236D02*
X7097618Y-20168617D01*
X7097618Y-20168617D02*
X7097618Y-20359093D01*
X7097618Y-20359093D02*
X7059523Y-20511474D01*
X7059523Y-20511474D02*
X7021428Y-20587664D01*
X7021428Y-20587664D02*
X6983333Y-20625760D01*
X6983333Y-20625760D02*
X6907142Y-20663855D01*
X6907142Y-20663855D02*
X6830952Y-20663855D01*
X6830952Y-20663855D02*
X6754761Y-20625760D01*
X6754761Y-20625760D02*
X6716666Y-20587664D01*
X6716666Y-20587664D02*
X6678571Y-20511474D01*
X6678571Y-20511474D02*
X6640475Y-20359093D01*
X6640475Y-20359093D02*
X6640475Y-20168617D01*
X6640475Y-20168617D02*
X6678571Y-20016236D01*
X6678571Y-20016236D02*
X6716666Y-19940045D01*
X6716666Y-19940045D02*
X6754761Y-19901950D01*
X6754761Y-19901950D02*
X6830952Y-19863855D01*
X7859523Y-20663855D02*
X7402380Y-20663855D01*
X7630952Y-20663855D02*
X7630952Y-19863855D01*
X7630952Y-19863855D02*
X7554761Y-19978140D01*
X7554761Y-19978140D02*
X7478571Y-20054331D01*
X7478571Y-20054331D02*
X7402380Y-20092426D01*
D11*
X6177149Y-22957142D02*
X6581911Y-22957142D01*
X6581911Y-22957142D02*
X6629530Y-22933332D01*
X6629530Y-22933332D02*
X6653340Y-22909523D01*
X6653340Y-22909523D02*
X6677149Y-22861904D01*
X6677149Y-22861904D02*
X6677149Y-22766666D01*
X6677149Y-22766666D02*
X6653340Y-22719047D01*
X6653340Y-22719047D02*
X6629530Y-22695237D01*
X6629530Y-22695237D02*
X6581911Y-22671428D01*
X6581911Y-22671428D02*
X6177149Y-22671428D01*
X6677149Y-22171427D02*
X6677149Y-22457141D01*
X6677149Y-22314284D02*
X6177149Y-22314284D01*
X6177149Y-22314284D02*
X6248578Y-22361903D01*
X6248578Y-22361903D02*
X6296197Y-22409522D01*
X6296197Y-22409522D02*
X6320006Y-22457141D01*
X6177149Y-21861904D02*
X6177149Y-21814285D01*
X6177149Y-21814285D02*
X6200959Y-21766666D01*
X6200959Y-21766666D02*
X6224768Y-21742856D01*
X6224768Y-21742856D02*
X6272387Y-21719047D01*
X6272387Y-21719047D02*
X6367625Y-21695237D01*
X6367625Y-21695237D02*
X6486673Y-21695237D01*
X6486673Y-21695237D02*
X6581911Y-21719047D01*
X6581911Y-21719047D02*
X6629530Y-21742856D01*
X6629530Y-21742856D02*
X6653340Y-21766666D01*
X6653340Y-21766666D02*
X6677149Y-21814285D01*
X6677149Y-21814285D02*
X6677149Y-21861904D01*
X6677149Y-21861904D02*
X6653340Y-21909523D01*
X6653340Y-21909523D02*
X6629530Y-21933332D01*
X6629530Y-21933332D02*
X6581911Y-21957142D01*
X6581911Y-21957142D02*
X6486673Y-21980951D01*
X6486673Y-21980951D02*
X6367625Y-21980951D01*
X6367625Y-21980951D02*
X6272387Y-21957142D01*
X6272387Y-21957142D02*
X6224768Y-21933332D01*
X6224768Y-21933332D02*
X6200959Y-21909523D01*
X6200959Y-21909523D02*
X6177149Y-21861904D01*
X6677149Y-21219047D02*
X6677149Y-21504761D01*
X6677149Y-21361904D02*
X6177149Y-21361904D01*
X6177149Y-21361904D02*
X6248578Y-21409523D01*
X6248578Y-21409523D02*
X6296197Y-21457142D01*
X6296197Y-21457142D02*
X6320006Y-21504761D01*
D10*
X16716667Y-27863855D02*
X16450000Y-27482902D01*
X16259524Y-27863855D02*
X16259524Y-27063855D01*
X16259524Y-27063855D02*
X16564286Y-27063855D01*
X16564286Y-27063855D02*
X16640476Y-27101950D01*
X16640476Y-27101950D02*
X16678571Y-27140045D01*
X16678571Y-27140045D02*
X16716667Y-27216236D01*
X16716667Y-27216236D02*
X16716667Y-27330521D01*
X16716667Y-27330521D02*
X16678571Y-27406712D01*
X16678571Y-27406712D02*
X16640476Y-27444807D01*
X16640476Y-27444807D02*
X16564286Y-27482902D01*
X16564286Y-27482902D02*
X16259524Y-27482902D01*
X16983333Y-27063855D02*
X17516667Y-27063855D01*
X17516667Y-27063855D02*
X17173809Y-27863855D01*
D11*
X16766666Y-29377149D02*
X16600000Y-29139054D01*
X16480952Y-29377149D02*
X16480952Y-28877149D01*
X16480952Y-28877149D02*
X16671428Y-28877149D01*
X16671428Y-28877149D02*
X16719047Y-28900959D01*
X16719047Y-28900959D02*
X16742857Y-28924768D01*
X16742857Y-28924768D02*
X16766666Y-28972387D01*
X16766666Y-28972387D02*
X16766666Y-29043816D01*
X16766666Y-29043816D02*
X16742857Y-29091435D01*
X16742857Y-29091435D02*
X16719047Y-29115244D01*
X16719047Y-29115244D02*
X16671428Y-29139054D01*
X16671428Y-29139054D02*
X16480952Y-29139054D01*
X16933333Y-28877149D02*
X17266666Y-28877149D01*
X17266666Y-28877149D02*
X17052381Y-29377149D01*
%TO.C,R105*%
D14*
X10150000Y-33225000D02*
X12150000Y-33225000D01*
X12150000Y-34475000D01*
X10150000Y-34475000D01*
X10150000Y-33225000D01*
%TO.C,C15*%
X29280000Y-16855000D02*
X31280000Y-16855000D01*
X31280000Y-18105000D01*
X29280000Y-18105000D01*
X29280000Y-16855000D01*
%TO.C,U5*%
X19160000Y-39250000D02*
X23740000Y-39250000D01*
X19160000Y-45750000D02*
X19160000Y-39250000D01*
X23740000Y-39250000D02*
X23740000Y-45750000D01*
X23740000Y-45750000D02*
X19160000Y-45750000D01*
%TO.C,C11*%
X36880000Y-19255000D02*
X38880000Y-19255000D01*
X38880000Y-20505000D01*
X36880000Y-20505000D01*
X36880000Y-19255000D01*
%TO.C,U100*%
X17650000Y-16750000D02*
X21050000Y-16750000D01*
X21050000Y-23250000D01*
X16650000Y-23250000D01*
X16650000Y-17750000D01*
X17650000Y-16750000D01*
%TO.C,Q1*%
X45380000Y-33445000D02*
X45380000Y-34195000D01*
X45380000Y-34195000D02*
X48080000Y-34195000D01*
X45380000Y-35725000D02*
X45380000Y-36475000D01*
X45380000Y-36475000D02*
X48080000Y-36475000D01*
X45380000Y-38005000D02*
X45380000Y-38755000D01*
X45380000Y-38755000D02*
X48080000Y-38755000D01*
X48080000Y-35725000D02*
X45380000Y-35725000D01*
X48080000Y-38005000D02*
X45380000Y-38005000D01*
X48485000Y-33445000D02*
X45380000Y-33445000D01*
X54300000Y-33400000D02*
X55300000Y-33400000D01*
X55300000Y-33400000D02*
X55300000Y-38800000D01*
X55300000Y-38800000D02*
X54300000Y-38800000D01*
X54300000Y-32850000D02*
X54300000Y-39350000D01*
X48080000Y-39350000D01*
X48080000Y-33850000D01*
X49080000Y-32850000D01*
X54300000Y-32850000D01*
%TO.C,R15*%
X29250000Y-19525000D02*
X31250000Y-19525000D01*
X31250000Y-20775000D01*
X29250000Y-20775000D01*
X29250000Y-19525000D01*
%TO.C,C12*%
X33825720Y-52503738D02*
X34625720Y-52503738D01*
X34225720Y-52103738D02*
X34225720Y-52903738D01*
X41252479Y-54251238D02*
G75*
G02*
X33252479Y-54251238I-4000000J0D01*
G01*
X33252479Y-54251238D02*
G75*
G02*
X41252479Y-54251238I4000000J0D01*
G01*
%TO.C,R104*%
X5850000Y-33225000D02*
X7850000Y-33225000D01*
X7850000Y-34475000D01*
X5850000Y-34475000D01*
X5850000Y-33225000D01*
%TO.C,U6*%
X32537500Y-35900000D02*
X33475000Y-35900000D01*
X33475000Y-37900000D01*
X32225000Y-37900000D01*
X32225000Y-36212500D01*
X32537500Y-35900000D01*
%TO.C,R13*%
X10250000Y-27425000D02*
X12250000Y-27425000D01*
X12250000Y-28675000D01*
X10250000Y-28675000D01*
X10250000Y-27425000D01*
%TO.C,D1*%
X30850000Y-45350000D02*
X30850000Y-39150000D01*
X33750560Y-41450920D02*
X33750560Y-43051120D01*
X33750560Y-42251020D02*
X32848860Y-42251020D01*
X33750560Y-42251020D02*
X34901180Y-41450920D01*
X33750560Y-42251020D02*
X34901180Y-43000320D01*
X34901180Y-42251020D02*
X35899400Y-42251020D01*
X34901180Y-43000320D02*
X34901180Y-41450920D01*
X37950000Y-39150000D02*
X30850000Y-39150000D01*
X37950000Y-39150000D02*
X37950000Y-45350000D01*
X37950000Y-45350000D02*
X30850000Y-45350000D01*
%TO.C,C100*%
X5880000Y-27455000D02*
X7880000Y-27455000D01*
X7880000Y-28705000D01*
X5880000Y-28705000D01*
X5880000Y-27455000D01*
%TO.C,R9*%
X25250000Y-28525000D02*
X27250000Y-28525000D01*
X27250000Y-29775000D01*
X25250000Y-29775000D01*
X25250000Y-28525000D01*
%TO.C,R102*%
X10250000Y-24525000D02*
X12250000Y-24525000D01*
X12250000Y-25775000D01*
X10250000Y-25775000D01*
X10250000Y-24525000D01*
%TO.C,J103*%
X52000000Y-41680000D02*
X53380000Y-41680000D01*
X52000000Y-42320000D02*
X52000000Y-41680000D01*
X52000000Y-44220000D02*
X53380000Y-44220000D01*
X52000000Y-44860000D02*
X52000000Y-44220000D01*
X53380000Y-40730000D02*
X57460000Y-40730000D01*
X53380000Y-42320000D02*
X52000000Y-42320000D01*
X53380000Y-44860000D02*
X52000000Y-44860000D01*
X53380000Y-45810000D02*
X53380000Y-40730000D01*
X57460000Y-40730000D02*
X58460000Y-41730000D01*
X58460000Y-41680000D02*
X59840000Y-41680000D01*
X58460000Y-41730000D02*
X58460000Y-45810000D01*
X58460000Y-44220000D02*
X59840000Y-44220000D01*
X58460000Y-45810000D02*
X53380000Y-45810000D01*
X59840000Y-41680000D02*
X59840000Y-42320000D01*
X59840000Y-42320000D02*
X58460000Y-42320000D01*
X59840000Y-44220000D02*
X59840000Y-44860000D01*
X59840000Y-44860000D02*
X58460000Y-44860000D01*
%TO.C,C14*%
X24580000Y-16855000D02*
X26580000Y-16855000D01*
X26580000Y-18105000D01*
X24580000Y-18105000D01*
X24580000Y-16855000D01*
%TO.C,J101*%
X10230000Y-2450000D02*
X11230000Y-2450000D01*
X10230000Y-3050000D02*
X10230000Y-2450000D01*
X11230000Y-2015000D02*
X11865000Y-1380000D01*
X11230000Y-3050000D02*
X10230000Y-3050000D01*
X11230000Y-6660000D02*
X11230000Y-2015000D01*
X11865000Y-1380000D02*
X13770000Y-1380000D01*
X13770000Y-1380000D02*
X13770000Y-6660000D01*
X13770000Y-4990000D02*
X14770000Y-4990000D01*
X13770000Y-6660000D02*
X11230000Y-6660000D01*
X14770000Y-4990000D02*
X14770000Y-5590000D01*
X14770000Y-5590000D02*
X13770000Y-5590000D01*
%TO.C,R17*%
X11280000Y-36130000D02*
X14480000Y-36130000D01*
X14480000Y-37730000D01*
X11280000Y-37730000D01*
X11280000Y-36130000D01*
%TO.C,R18*%
X16880000Y-36130000D02*
X20080000Y-36130000D01*
X20080000Y-37730000D01*
X16880000Y-37730000D01*
X16880000Y-36130000D01*
%TO.C,U102*%
X16630000Y-24750000D02*
X18430000Y-24750000D01*
X18430000Y-26750000D01*
X16130000Y-26750000D01*
X16130000Y-25250000D01*
X16630000Y-24750000D01*
%TO.C,J5*%
X20500000Y-47700000D02*
X30660000Y-47700000D01*
X20500000Y-49700000D02*
X30660000Y-49700000D01*
X20500000Y-55900000D02*
X30660000Y-55900000D01*
X20500000Y-58400000D02*
X20500000Y-47700000D01*
X20500000Y-58400000D02*
X30660000Y-58400000D01*
X21000000Y-58900000D02*
X20500000Y-58400000D01*
X24313000Y-52083000D02*
X21523000Y-54873000D01*
X24557000Y-52327000D02*
X21767000Y-55117000D01*
X29393000Y-52083000D02*
X26603000Y-54873000D01*
X29637000Y-52327000D02*
X26847000Y-55117000D01*
X30660000Y-47700000D02*
X30660000Y-58900000D01*
X30660000Y-58900000D02*
X21000000Y-58900000D01*
X25040000Y-53600000D02*
G75*
G02*
X21040000Y-53600000I-2000000J0D01*
G01*
X21040000Y-53600000D02*
G75*
G02*
X25040000Y-53600000I2000000J0D01*
G01*
X30120000Y-53600000D02*
G75*
G02*
X26120000Y-53600000I-2000000J0D01*
G01*
X26120000Y-53600000D02*
G75*
G02*
X30120000Y-53600000I2000000J0D01*
G01*
%TO.C,C16*%
X24580000Y-19555000D02*
X26580000Y-19555000D01*
X26580000Y-20805000D01*
X24580000Y-20805000D01*
X24580000Y-19555000D01*
%TO.C,C10*%
X45675000Y-21537500D02*
X46925000Y-21537500D01*
X46925000Y-23537500D01*
X45675000Y-23537500D01*
X45675000Y-21537500D01*
%TO.C,U1*%
D15*
X37700000Y-22250000D02*
X37700000Y-27250000D01*
X37700000Y-22250000D02*
X42100000Y-22250000D01*
X37700000Y-27250000D02*
X42100000Y-27250000D01*
X42100000Y-22250000D02*
X42100000Y-27250000D01*
D16*
X35800000Y-22350000D02*
G75*
G02*
X35600000Y-22350000I-100000J0D01*
G01*
X35600000Y-22350000D02*
G75*
G02*
X35800000Y-22350000I100000J0D01*
G01*
%TO.C,U4*%
D14*
X7660000Y-39250000D02*
X12240000Y-39250000D01*
X7660000Y-45750000D02*
X7660000Y-39250000D01*
X12240000Y-39250000D02*
X12240000Y-45750000D01*
X12240000Y-45750000D02*
X7660000Y-45750000D01*
%TO.C,U3*%
X28637500Y-35900000D02*
X29575000Y-35900000D01*
X29575000Y-37900000D01*
X28325000Y-37900000D01*
X28325000Y-36212500D01*
X28637500Y-35900000D01*
%TO.C,C9*%
X48375000Y-23612500D02*
X49625000Y-23612500D01*
X49625000Y-25612500D01*
X48375000Y-25612500D01*
X48375000Y-23612500D01*
%TO.C,U103*%
X21737500Y-24600000D02*
X22675000Y-24600000D01*
X22675000Y-26600000D01*
X21425000Y-26600000D01*
X21425000Y-24912500D01*
X21737500Y-24600000D01*
%TO.C,J100*%
X6730000Y-9190000D02*
X57530000Y-9190000D01*
X6730000Y-13000000D02*
X6730000Y-9190000D01*
X8000000Y-14270000D02*
X6730000Y-13000000D01*
X57530000Y-9190000D02*
X57530000Y-14270000D01*
X57530000Y-14270000D02*
X8000000Y-14270000D01*
%TO.C,R10*%
X29950000Y-28525000D02*
X31950000Y-28525000D01*
X31950000Y-29775000D01*
X29950000Y-29775000D01*
X29950000Y-28525000D01*
%TO.C,R21*%
X29950000Y-31525000D02*
X31950000Y-31525000D01*
X31950000Y-32775000D01*
X29950000Y-32775000D01*
X29950000Y-31525000D01*
%TO.C,R16*%
X5680000Y-36130000D02*
X8880000Y-36130000D01*
X8880000Y-37730000D01*
X5680000Y-37730000D01*
X5680000Y-36130000D01*
%TO.C,R101*%
X10150000Y-30325000D02*
X12150000Y-30325000D01*
X12150000Y-31575000D01*
X10150000Y-31575000D01*
X10150000Y-30325000D01*
%TO.C,R100*%
X5850000Y-30325000D02*
X7850000Y-30325000D01*
X7850000Y-31575000D01*
X5850000Y-31575000D01*
X5850000Y-30325000D01*
%TO.C,R11*%
X45050000Y-30125000D02*
X47050000Y-30125000D01*
X47050000Y-31375000D01*
X45050000Y-31375000D01*
X45050000Y-30125000D01*
%TO.C,J3*%
X8100000Y-55900000D02*
X18260000Y-55900000D01*
X8100000Y-57805000D02*
X8100000Y-55900000D01*
X8735000Y-58440000D02*
X8100000Y-57805000D01*
X18260000Y-55900000D02*
X18260000Y-58440000D01*
X18260000Y-58440000D02*
X8735000Y-58440000D01*
%TO.C,C13*%
X15880000Y-31555000D02*
X17880000Y-31555000D01*
X17880000Y-32805000D01*
X15880000Y-32805000D01*
X15880000Y-31555000D01*
%TO.C,R20*%
X25250000Y-31525000D02*
X27250000Y-31525000D01*
X27250000Y-32775000D01*
X25250000Y-32775000D01*
X25250000Y-31525000D01*
%TO.C,R5*%
X20550000Y-31525000D02*
X22550000Y-31525000D01*
X22550000Y-32775000D01*
X20550000Y-32775000D01*
X20550000Y-31525000D01*
%TO.C,C101*%
X5880000Y-24555000D02*
X7880000Y-24555000D01*
X7880000Y-25805000D01*
X5880000Y-25805000D01*
X5880000Y-24555000D01*
%TO.C,R12*%
X49450000Y-30125000D02*
X51450000Y-30125000D01*
X51450000Y-31375000D01*
X49450000Y-31375000D01*
X49450000Y-30125000D01*
%TO.C,U7*%
X36437500Y-35900000D02*
X37375000Y-35900000D01*
X37375000Y-37900000D01*
X36125000Y-37900000D01*
X36125000Y-36212500D01*
X36437500Y-35900000D01*
%TO.C,R19*%
X22480000Y-36130000D02*
X25680000Y-36130000D01*
X25680000Y-37730000D01*
X22480000Y-37730000D01*
X22480000Y-36130000D01*
%TO.C,R8*%
X20550000Y-28525000D02*
X22550000Y-28525000D01*
X22550000Y-29775000D01*
X20550000Y-29775000D01*
X20550000Y-28525000D01*
%TO.C,U101*%
X6137500Y-21100000D02*
X7075000Y-21100000D01*
X7075000Y-23100000D01*
X5825000Y-23100000D01*
X5825000Y-21412500D01*
X6137500Y-21100000D01*
%TO.C,R7*%
X15850000Y-28525000D02*
X17850000Y-28525000D01*
X17850000Y-29775000D01*
X15850000Y-29775000D01*
X15850000Y-28525000D01*
%TD*%
M02*
