%TF.GenerationSoftware,KiCad,Pcbnew,10.0.6*%
%TF.CreationDate,2026-09-03T19:15:11+02:00*%
%TF.ProjectId,Motormodul,4d6f746f-726d-46f6-9475-6c2e6b696361,rev?*%
%TF.SameCoordinates,Original*%
%TF.FileFunction,Legend,Top*%
%TF.FilePolarity,Positive*%
%FSLAX46Y46*%
G04 Gerber Fmt 4.6, Leading zero omitted, Abs format (unit mm)*
G04 Created by KiCad (PCBNEW 10.0.6) date 2026-09-03 19:15:11*
%MOMM*%
%LPD*%
G01*
G04 APERTURE LIST*
%ADD10C,0.200000*%
%ADD11C,0.150000*%
%ADD12C,0.120000*%
%ADD13C,0.127000*%
G04 APERTURE END LIST*
D10*
X4700000Y-11200000D02*
X4700000Y-12400000D01*
X4700000Y-12400000D02*
X5899999Y-11800000D01*
X5899999Y-11800000D02*
X4700000Y-11200000D01*
D11*
X5528571Y-13762295D02*
X5071428Y-13762295D01*
X5300000Y-13762295D02*
X5300000Y-12962295D01*
X5300000Y-12962295D02*
X5223809Y-13076580D01*
X5223809Y-13076580D02*
X5147619Y-13152771D01*
X5147619Y-13152771D02*
X5071428Y-13190866D01*
X41409523Y-58962295D02*
X41409523Y-58162295D01*
X41866666Y-58962295D02*
X41523808Y-58505152D01*
X41866666Y-58162295D02*
X41409523Y-58619438D01*
X42590475Y-58962295D02*
X42209523Y-58962295D01*
X42209523Y-58962295D02*
X42209523Y-58162295D01*
X42857142Y-58543247D02*
X43123808Y-58543247D01*
X43238094Y-58962295D02*
X42857142Y-58962295D01*
X42857142Y-58962295D02*
X42857142Y-58162295D01*
X42857142Y-58162295D02*
X43238094Y-58162295D01*
X43580952Y-58962295D02*
X43580952Y-58162295D01*
X43580952Y-58162295D02*
X43847618Y-58733723D01*
X43847618Y-58733723D02*
X44114285Y-58162295D01*
X44114285Y-58162295D02*
X44114285Y-58962295D01*
X44495238Y-58962295D02*
X44495238Y-58162295D01*
X44495238Y-58162295D02*
X44761904Y-58733723D01*
X44761904Y-58733723D02*
X45028571Y-58162295D01*
X45028571Y-58162295D02*
X45028571Y-58962295D01*
X45409524Y-58543247D02*
X45676190Y-58543247D01*
X45790476Y-58962295D02*
X45409524Y-58962295D01*
X45409524Y-58962295D02*
X45409524Y-58162295D01*
X45409524Y-58162295D02*
X45790476Y-58162295D01*
X46133334Y-58962295D02*
X46133334Y-58162295D01*
X46133334Y-58162295D02*
X46590477Y-58962295D01*
X46590477Y-58962295D02*
X46590477Y-58162295D01*
D12*
X36735714Y-49387664D02*
X36697618Y-49425760D01*
X36697618Y-49425760D02*
X36583333Y-49463855D01*
X36583333Y-49463855D02*
X36507142Y-49463855D01*
X36507142Y-49463855D02*
X36392856Y-49425760D01*
X36392856Y-49425760D02*
X36316666Y-49349569D01*
X36316666Y-49349569D02*
X36278571Y-49273379D01*
X36278571Y-49273379D02*
X36240475Y-49120998D01*
X36240475Y-49120998D02*
X36240475Y-49006712D01*
X36240475Y-49006712D02*
X36278571Y-48854331D01*
X36278571Y-48854331D02*
X36316666Y-48778140D01*
X36316666Y-48778140D02*
X36392856Y-48701950D01*
X36392856Y-48701950D02*
X36507142Y-48663855D01*
X36507142Y-48663855D02*
X36583333Y-48663855D01*
X36583333Y-48663855D02*
X36697618Y-48701950D01*
X36697618Y-48701950D02*
X36735714Y-48740045D01*
X37497618Y-49463855D02*
X37040475Y-49463855D01*
X37269047Y-49463855D02*
X37269047Y-48663855D01*
X37269047Y-48663855D02*
X37192856Y-48778140D01*
X37192856Y-48778140D02*
X37116666Y-48854331D01*
X37116666Y-48854331D02*
X37040475Y-48892426D01*
X37802380Y-48740045D02*
X37840476Y-48701950D01*
X37840476Y-48701950D02*
X37916666Y-48663855D01*
X37916666Y-48663855D02*
X38107142Y-48663855D01*
X38107142Y-48663855D02*
X38183333Y-48701950D01*
X38183333Y-48701950D02*
X38221428Y-48740045D01*
X38221428Y-48740045D02*
X38259523Y-48816236D01*
X38259523Y-48816236D02*
X38259523Y-48892426D01*
X38259523Y-48892426D02*
X38221428Y-49006712D01*
X38221428Y-49006712D02*
X37764285Y-49463855D01*
X37764285Y-49463855D02*
X38259523Y-49463855D01*
X31688855Y-8808570D02*
X32260283Y-8808570D01*
X32260283Y-8808570D02*
X32374569Y-8846665D01*
X32374569Y-8846665D02*
X32450760Y-8922856D01*
X32450760Y-8922856D02*
X32488855Y-9037141D01*
X32488855Y-9037141D02*
X32488855Y-9113332D01*
X32488855Y-8008570D02*
X32488855Y-8465713D01*
X32488855Y-8237141D02*
X31688855Y-8237141D01*
X31688855Y-8237141D02*
X31803140Y-8313332D01*
X31803140Y-8313332D02*
X31879331Y-8389522D01*
X31879331Y-8389522D02*
X31917426Y-8465713D01*
X31688855Y-7513331D02*
X31688855Y-7437141D01*
X31688855Y-7437141D02*
X31726950Y-7360950D01*
X31726950Y-7360950D02*
X31765045Y-7322855D01*
X31765045Y-7322855D02*
X31841236Y-7284760D01*
X31841236Y-7284760D02*
X31993617Y-7246665D01*
X31993617Y-7246665D02*
X32184093Y-7246665D01*
X32184093Y-7246665D02*
X32336474Y-7284760D01*
X32336474Y-7284760D02*
X32412664Y-7322855D01*
X32412664Y-7322855D02*
X32450760Y-7360950D01*
X32450760Y-7360950D02*
X32488855Y-7437141D01*
X32488855Y-7437141D02*
X32488855Y-7513331D01*
X32488855Y-7513331D02*
X32450760Y-7589522D01*
X32450760Y-7589522D02*
X32412664Y-7627617D01*
X32412664Y-7627617D02*
X32336474Y-7665712D01*
X32336474Y-7665712D02*
X32184093Y-7703808D01*
X32184093Y-7703808D02*
X31993617Y-7703808D01*
X31993617Y-7703808D02*
X31841236Y-7665712D01*
X31841236Y-7665712D02*
X31765045Y-7627617D01*
X31765045Y-7627617D02*
X31726950Y-7589522D01*
X31726950Y-7589522D02*
X31688855Y-7513331D01*
X31688855Y-6751426D02*
X31688855Y-6675236D01*
X31688855Y-6675236D02*
X31726950Y-6599045D01*
X31726950Y-6599045D02*
X31765045Y-6560950D01*
X31765045Y-6560950D02*
X31841236Y-6522855D01*
X31841236Y-6522855D02*
X31993617Y-6484760D01*
X31993617Y-6484760D02*
X32184093Y-6484760D01*
X32184093Y-6484760D02*
X32336474Y-6522855D01*
X32336474Y-6522855D02*
X32412664Y-6560950D01*
X32412664Y-6560950D02*
X32450760Y-6599045D01*
X32450760Y-6599045D02*
X32488855Y-6675236D01*
X32488855Y-6675236D02*
X32488855Y-6751426D01*
X32488855Y-6751426D02*
X32450760Y-6827617D01*
X32450760Y-6827617D02*
X32412664Y-6865712D01*
X32412664Y-6865712D02*
X32336474Y-6903807D01*
X32336474Y-6903807D02*
X32184093Y-6941903D01*
X32184093Y-6941903D02*
X31993617Y-6941903D01*
X31993617Y-6941903D02*
X31841236Y-6903807D01*
X31841236Y-6903807D02*
X31765045Y-6865712D01*
X31765045Y-6865712D02*
X31726950Y-6827617D01*
X31726950Y-6827617D02*
X31688855Y-6751426D01*
X12743855Y-54766666D02*
X13315283Y-54766666D01*
X13315283Y-54766666D02*
X13429569Y-54804761D01*
X13429569Y-54804761D02*
X13505760Y-54880952D01*
X13505760Y-54880952D02*
X13543855Y-54995237D01*
X13543855Y-54995237D02*
X13543855Y-55071428D01*
X12743855Y-54461904D02*
X12743855Y-53966666D01*
X12743855Y-53966666D02*
X13048617Y-54233332D01*
X13048617Y-54233332D02*
X13048617Y-54119047D01*
X13048617Y-54119047D02*
X13086712Y-54042856D01*
X13086712Y-54042856D02*
X13124807Y-54004761D01*
X13124807Y-54004761D02*
X13200998Y-53966666D01*
X13200998Y-53966666D02*
X13391474Y-53966666D01*
X13391474Y-53966666D02*
X13467664Y-54004761D01*
X13467664Y-54004761D02*
X13505760Y-54042856D01*
X13505760Y-54042856D02*
X13543855Y-54119047D01*
X13543855Y-54119047D02*
X13543855Y-54347618D01*
X13543855Y-54347618D02*
X13505760Y-54423809D01*
X13505760Y-54423809D02*
X13467664Y-54461904D01*
%TO.C,R105*%
X10922936Y-33115000D02*
X11377064Y-33115000D01*
X10922936Y-34585000D02*
X11377064Y-34585000D01*
%TO.C,C15*%
X30018748Y-16745000D02*
X30541252Y-16745000D01*
X30018748Y-18215000D02*
X30541252Y-18215000D01*
%TO.C,U5*%
X18910000Y-39000000D02*
X23990000Y-39000000D01*
X18910000Y-46000000D02*
X23990000Y-46000000D01*
X18400000Y-41230000D02*
G75*
G02*
X17900000Y-41230000I-250000J0D01*
G01*
X17900000Y-41230000D02*
G75*
G02*
X18400000Y-41230000I250000J0D01*
G01*
%TO.C,C11*%
X37618748Y-19145000D02*
X38141252Y-19145000D01*
X37618748Y-20615000D02*
X38141252Y-20615000D01*
%TO.C,U100*%
X16540000Y-16615000D02*
X21160000Y-16615000D01*
X21160000Y-23385000D02*
X16540000Y-23385000D01*
X14990000Y-17070000D02*
X14660000Y-17310000D01*
X14660000Y-16830000D01*
X14990000Y-17070000D01*
G36*
X14990000Y-17070000D02*
G01*
X14660000Y-17310000D01*
X14660000Y-16830000D01*
X14990000Y-17070000D01*
G37*
%TO.C,Q1*%
X47880000Y-32650000D02*
X47880000Y-32920000D01*
X47880000Y-39550000D02*
X47880000Y-39280000D01*
X54300000Y-32650000D02*
X47880000Y-32650000D01*
X54300000Y-39550000D02*
X47880000Y-39550000D01*
X46150000Y-32960000D02*
X45810000Y-32490000D01*
X46490000Y-32490000D01*
X46150000Y-32960000D01*
G36*
X46150000Y-32960000D02*
G01*
X45810000Y-32490000D01*
X46490000Y-32490000D01*
X46150000Y-32960000D01*
G37*
%TO.C,R15*%
X30022936Y-19415000D02*
X30477064Y-19415000D01*
X30022936Y-20885000D02*
X30477064Y-20885000D01*
%TO.C,C12*%
X32842781Y-51936238D02*
X33642781Y-51936238D01*
X33242781Y-51536238D02*
X33242781Y-52336238D01*
X37252479Y-50171238D02*
X37252479Y-58331238D01*
X37292479Y-50171238D02*
X37292479Y-58331238D01*
X37332479Y-50172238D02*
X37332479Y-58330238D01*
X37372479Y-50173238D02*
X37372479Y-58329238D01*
X37412479Y-50174238D02*
X37412479Y-58328238D01*
X37452479Y-50176238D02*
X37452479Y-58326238D01*
X37492479Y-50178238D02*
X37492479Y-58324238D01*
X37532479Y-50181238D02*
X37532479Y-58321238D01*
X37572479Y-50183238D02*
X37572479Y-58319238D01*
X37612479Y-50187238D02*
X37612479Y-58315238D01*
X37652479Y-50190238D02*
X37652479Y-58312238D01*
X37692479Y-50195238D02*
X37692479Y-58307238D01*
X37732479Y-50199238D02*
X37732479Y-58303238D01*
X37772479Y-50204238D02*
X37772479Y-58298238D01*
X37812479Y-50209238D02*
X37812479Y-58293238D01*
X37852479Y-50215238D02*
X37852479Y-58287238D01*
X37892479Y-50221238D02*
X37892479Y-58281238D01*
X37932479Y-50228238D02*
X37932479Y-58274238D01*
X37972479Y-50234238D02*
X37972479Y-53211238D01*
X37972479Y-55291238D02*
X37972479Y-58268238D01*
X38012479Y-50242238D02*
X38012479Y-53211238D01*
X38012479Y-55291238D02*
X38012479Y-58260238D01*
X38052479Y-50249238D02*
X38052479Y-53211238D01*
X38052479Y-55291238D02*
X38052479Y-58253238D01*
X38092479Y-50258238D02*
X38092479Y-53211238D01*
X38092479Y-55291238D02*
X38092479Y-58244238D01*
X38132479Y-50266238D02*
X38132479Y-53211238D01*
X38132479Y-55291238D02*
X38132479Y-58236238D01*
X38172479Y-50275238D02*
X38172479Y-53211238D01*
X38172479Y-55291238D02*
X38172479Y-58227238D01*
X38212479Y-50284238D02*
X38212479Y-53211238D01*
X38212479Y-55291238D02*
X38212479Y-58218238D01*
X38252479Y-50294238D02*
X38252479Y-53211238D01*
X38252479Y-55291238D02*
X38252479Y-58208238D01*
X38292479Y-50304238D02*
X38292479Y-53211238D01*
X38292479Y-55291238D02*
X38292479Y-58198238D01*
X38332479Y-50315238D02*
X38332479Y-53211238D01*
X38332479Y-55291238D02*
X38332479Y-58187238D01*
X38372479Y-50326238D02*
X38372479Y-53211238D01*
X38372479Y-55291238D02*
X38372479Y-58176238D01*
X38412479Y-50338238D02*
X38412479Y-53211238D01*
X38412479Y-55291238D02*
X38412479Y-58164238D01*
X38452479Y-50350238D02*
X38452479Y-53211238D01*
X38452479Y-55291238D02*
X38452479Y-58152238D01*
X38492479Y-50362238D02*
X38492479Y-53211238D01*
X38492479Y-55291238D02*
X38492479Y-58140238D01*
X38532479Y-50375238D02*
X38532479Y-53211238D01*
X38532479Y-55291238D02*
X38532479Y-58127238D01*
X38572479Y-50388238D02*
X38572479Y-53211238D01*
X38572479Y-55291238D02*
X38572479Y-58114238D01*
X38612479Y-50402238D02*
X38612479Y-53211238D01*
X38612479Y-55291238D02*
X38612479Y-58100238D01*
X38652479Y-50416238D02*
X38652479Y-53211238D01*
X38652479Y-55291238D02*
X38652479Y-58086238D01*
X38692479Y-50431238D02*
X38692479Y-53211238D01*
X38692479Y-55291238D02*
X38692479Y-58071238D01*
X38732479Y-50446238D02*
X38732479Y-53211238D01*
X38732479Y-55291238D02*
X38732479Y-58056238D01*
X38772479Y-50462238D02*
X38772479Y-53211238D01*
X38772479Y-55291238D02*
X38772479Y-58040238D01*
X38812479Y-50478238D02*
X38812479Y-53211238D01*
X38812479Y-55291238D02*
X38812479Y-58024238D01*
X38852479Y-50494238D02*
X38852479Y-53211238D01*
X38852479Y-55291238D02*
X38852479Y-58008238D01*
X38892479Y-50511238D02*
X38892479Y-53211238D01*
X38892479Y-55291238D02*
X38892479Y-57991238D01*
X38932479Y-50529238D02*
X38932479Y-53211238D01*
X38932479Y-55291238D02*
X38932479Y-57973238D01*
X38972479Y-50547238D02*
X38972479Y-53211238D01*
X38972479Y-55291238D02*
X38972479Y-57955238D01*
X39012479Y-50566238D02*
X39012479Y-53211238D01*
X39012479Y-55291238D02*
X39012479Y-57936238D01*
X39052479Y-50585238D02*
X39052479Y-53211238D01*
X39052479Y-55291238D02*
X39052479Y-57917238D01*
X39092479Y-50605238D02*
X39092479Y-53211238D01*
X39092479Y-55291238D02*
X39092479Y-57897238D01*
X39132479Y-50625238D02*
X39132479Y-53211238D01*
X39132479Y-55291238D02*
X39132479Y-57877238D01*
X39172479Y-50646238D02*
X39172479Y-53211238D01*
X39172479Y-55291238D02*
X39172479Y-57856238D01*
X39212479Y-50667238D02*
X39212479Y-53211238D01*
X39212479Y-55291238D02*
X39212479Y-57835238D01*
X39252479Y-50689238D02*
X39252479Y-53211238D01*
X39252479Y-55291238D02*
X39252479Y-57813238D01*
X39292479Y-50712238D02*
X39292479Y-53211238D01*
X39292479Y-55291238D02*
X39292479Y-57790238D01*
X39332479Y-50735238D02*
X39332479Y-53211238D01*
X39332479Y-55291238D02*
X39332479Y-57767238D01*
X39372479Y-50758238D02*
X39372479Y-53211238D01*
X39372479Y-55291238D02*
X39372479Y-57744238D01*
X39412479Y-50783238D02*
X39412479Y-53211238D01*
X39412479Y-55291238D02*
X39412479Y-57719238D01*
X39452479Y-50808238D02*
X39452479Y-53211238D01*
X39452479Y-55291238D02*
X39452479Y-57694238D01*
X39492479Y-50833238D02*
X39492479Y-53211238D01*
X39492479Y-55291238D02*
X39492479Y-57669238D01*
X39532479Y-50859238D02*
X39532479Y-53211238D01*
X39532479Y-55291238D02*
X39532479Y-57643238D01*
X39572479Y-50886238D02*
X39572479Y-53211238D01*
X39572479Y-55291238D02*
X39572479Y-57616238D01*
X39612479Y-50914238D02*
X39612479Y-53211238D01*
X39612479Y-55291238D02*
X39612479Y-57588238D01*
X39652479Y-50942238D02*
X39652479Y-53211238D01*
X39652479Y-55291238D02*
X39652479Y-57560238D01*
X39692479Y-50971238D02*
X39692479Y-53211238D01*
X39692479Y-55291238D02*
X39692479Y-57531238D01*
X39732479Y-51001238D02*
X39732479Y-53211238D01*
X39732479Y-55291238D02*
X39732479Y-57501238D01*
X39772479Y-51032238D02*
X39772479Y-53211238D01*
X39772479Y-55291238D02*
X39772479Y-57470238D01*
X39812479Y-51063238D02*
X39812479Y-53211238D01*
X39812479Y-55291238D02*
X39812479Y-57439238D01*
X39852479Y-51095238D02*
X39852479Y-53211238D01*
X39852479Y-55291238D02*
X39852479Y-57407238D01*
X39892479Y-51128238D02*
X39892479Y-53211238D01*
X39892479Y-55291238D02*
X39892479Y-57374238D01*
X39932479Y-51162238D02*
X39932479Y-53211238D01*
X39932479Y-55291238D02*
X39932479Y-57340238D01*
X39972479Y-51196238D02*
X39972479Y-53211238D01*
X39972479Y-55291238D02*
X39972479Y-57306238D01*
X40012479Y-51232238D02*
X40012479Y-53211238D01*
X40012479Y-55291238D02*
X40012479Y-57270238D01*
X40052479Y-51269238D02*
X40052479Y-57233238D01*
X40092479Y-51306238D02*
X40092479Y-57196238D01*
X40132479Y-51345238D02*
X40132479Y-57157238D01*
X40172479Y-51384238D02*
X40172479Y-57118238D01*
X40212479Y-51425238D02*
X40212479Y-57077238D01*
X40252479Y-51467238D02*
X40252479Y-57035238D01*
X40292479Y-51510238D02*
X40292479Y-56992238D01*
X40332479Y-51555238D02*
X40332479Y-56947238D01*
X40372479Y-51600238D02*
X40372479Y-56902238D01*
X40412479Y-51647238D02*
X40412479Y-56855238D01*
X40452479Y-51696238D02*
X40452479Y-56806238D01*
X40492479Y-51746238D02*
X40492479Y-56756238D01*
X40532479Y-51798238D02*
X40532479Y-56704238D01*
X40572479Y-51851238D02*
X40572479Y-56651238D01*
X40612479Y-51907238D02*
X40612479Y-56595238D01*
X40652479Y-51964238D02*
X40652479Y-56538238D01*
X40692479Y-52024238D02*
X40692479Y-56478238D01*
X40732479Y-52086238D02*
X40732479Y-56416238D01*
X40772479Y-52150238D02*
X40772479Y-56352238D01*
X40812479Y-52217238D02*
X40812479Y-56285238D01*
X40852479Y-52287238D02*
X40852479Y-56215238D01*
X40892479Y-52361238D02*
X40892479Y-56141238D01*
X40932479Y-52438238D02*
X40932479Y-56064238D01*
X40972479Y-52520238D02*
X40972479Y-55982238D01*
X41012479Y-52607238D02*
X41012479Y-55895238D01*
X41052479Y-52699238D02*
X41052479Y-55803238D01*
X41092479Y-52798238D02*
X41092479Y-55704238D01*
X41132479Y-52905238D02*
X41132479Y-55597238D01*
X41172479Y-53023238D02*
X41172479Y-55479238D01*
X41212479Y-53154238D02*
X41212479Y-55348238D01*
X41252479Y-53304238D02*
X41252479Y-55198238D01*
X41292479Y-53483238D02*
X41292479Y-55019238D01*
X41332479Y-53718238D02*
X41332479Y-54784238D01*
X41372479Y-54251238D02*
G75*
G02*
X33132479Y-54251238I-4120000J0D01*
G01*
X33132479Y-54251238D02*
G75*
G02*
X41372479Y-54251238I4120000J0D01*
G01*
%TO.C,R104*%
X6622936Y-33115000D02*
X7077064Y-33115000D01*
X6622936Y-34585000D02*
X7077064Y-34585000D01*
%TO.C,U6*%
X32115000Y-35790000D02*
X33585000Y-35790000D01*
X32115000Y-35815000D02*
X32115000Y-35790000D01*
X32115000Y-38010000D02*
X32115000Y-37985000D01*
X33585000Y-35790000D02*
X33585000Y-35815000D01*
X33585000Y-36685000D02*
X33585000Y-37115000D01*
X33585000Y-37985000D02*
X33585000Y-38010000D01*
X33585000Y-38010000D02*
X32115000Y-38010000D01*
X31670000Y-35810000D02*
X31530000Y-35620000D01*
X31810000Y-35620000D01*
X31670000Y-35810000D01*
G36*
X31670000Y-35810000D02*
G01*
X31530000Y-35620000D01*
X31810000Y-35620000D01*
X31670000Y-35810000D01*
G37*
%TO.C,R13*%
X11022936Y-27315000D02*
X11477064Y-27315000D01*
X11022936Y-28785000D02*
X11477064Y-28785000D01*
%TO.C,D1*%
X27490000Y-39000000D02*
X38800000Y-39000000D01*
X27490000Y-45500000D02*
X27490000Y-39000000D01*
X27490000Y-45500000D02*
X38800000Y-45500000D01*
%TO.C,C100*%
X6618748Y-27345000D02*
X7141252Y-27345000D01*
X6618748Y-28815000D02*
X7141252Y-28815000D01*
%TO.C,R9*%
X26022936Y-28415000D02*
X26477064Y-28415000D01*
X26022936Y-29885000D02*
X26477064Y-29885000D01*
%TO.C,R102*%
X11022936Y-24415000D02*
X11477064Y-24415000D01*
X11022936Y-25885000D02*
X11477064Y-25885000D01*
%TO.C,J103*%
X53320000Y-40670000D02*
X53320000Y-41240000D01*
X53320000Y-40670000D02*
X58520000Y-40670000D01*
X53320000Y-42760000D02*
X53320000Y-43780000D01*
X53320000Y-45300000D02*
X53320000Y-45870000D01*
X53320000Y-45870000D02*
X58520000Y-45870000D01*
X58520000Y-40670000D02*
X58520000Y-41240000D01*
X58520000Y-41240000D02*
X59880000Y-41240000D01*
X58520000Y-42760000D02*
X58520000Y-43780000D01*
X58520000Y-45300000D02*
X58520000Y-45870000D01*
%TO.C,C14*%
X25318748Y-16745000D02*
X25841252Y-16745000D01*
X25318748Y-18215000D02*
X25841252Y-18215000D01*
%TO.C,J101*%
X9960000Y-1990000D02*
X11170000Y-1990000D01*
X11170000Y-1320000D02*
X11170000Y-1990000D01*
X11170000Y-1320000D02*
X13830000Y-1320000D01*
X11170000Y-3510000D02*
X11170000Y-6720000D01*
X11170000Y-6720000D02*
X13830000Y-6720000D01*
X13830000Y-1320000D02*
X13830000Y-4530000D01*
X13830000Y-6050000D02*
X13830000Y-6720000D01*
%TO.C,R17*%
X12152936Y-36020000D02*
X13607064Y-36020000D01*
X12152936Y-37840000D02*
X13607064Y-37840000D01*
%TO.C,R18*%
X17752936Y-36020000D02*
X19207064Y-36020000D01*
X17752936Y-37840000D02*
X19207064Y-37840000D01*
%TO.C,U102*%
X16174432Y-24565000D02*
X18540000Y-24565000D01*
X18540000Y-26935000D02*
X16020000Y-26935000D01*
X15880000Y-24560000D02*
X15740000Y-24370000D01*
X16020000Y-24370000D01*
X15880000Y-24560000D01*
G36*
X15880000Y-24560000D02*
G01*
X15740000Y-24370000D01*
X16020000Y-24370000D01*
X15880000Y-24560000D01*
G37*
%TO.C,J5*%
X20380000Y-47580000D02*
X30780000Y-47580000D01*
X20380000Y-49700000D02*
X30780000Y-49700000D01*
X20380000Y-55900000D02*
X30780000Y-55900000D01*
X20380000Y-58400000D02*
X30780000Y-58400000D01*
X20380000Y-59020000D02*
X20380000Y-47580000D01*
X22740000Y-59020000D02*
X20380000Y-59020000D01*
X30780000Y-47580000D02*
X30780000Y-59020000D01*
X30780000Y-59020000D02*
X23340000Y-59020000D01*
X23040000Y-59020000D02*
X23480000Y-59630000D01*
X22600000Y-59630000D01*
X23040000Y-59020000D01*
G36*
X23480000Y-59630000D02*
G01*
X22600000Y-59630000D01*
X23040000Y-59020000D01*
X23480000Y-59630000D01*
G37*
%TO.C,C16*%
X25318748Y-19445000D02*
X25841252Y-19445000D01*
X25318748Y-20915000D02*
X25841252Y-20915000D01*
%TO.C,C10*%
X45565000Y-22798752D02*
X45565000Y-22276248D01*
X47035000Y-22798752D02*
X47035000Y-22276248D01*
%TO.C,U1*%
D13*
X38070000Y-22250000D02*
X41730000Y-22250000D01*
X38070000Y-27250000D02*
X41730000Y-27250000D01*
D10*
X35800000Y-22350000D02*
G75*
G02*
X35600000Y-22350000I-100000J0D01*
G01*
X35600000Y-22350000D02*
G75*
G02*
X35800000Y-22350000I100000J0D01*
G01*
%TO.C,U4*%
D12*
X7410000Y-39000000D02*
X12490000Y-39000000D01*
X7410000Y-46000000D02*
X12490000Y-46000000D01*
X6900000Y-41230000D02*
G75*
G02*
X6400000Y-41230000I-250000J0D01*
G01*
X6400000Y-41230000D02*
G75*
G02*
X6900000Y-41230000I250000J0D01*
G01*
%TO.C,U3*%
X28215000Y-35790000D02*
X29685000Y-35790000D01*
X28215000Y-35815000D02*
X28215000Y-35790000D01*
X28215000Y-38010000D02*
X28215000Y-37985000D01*
X29685000Y-35790000D02*
X29685000Y-35815000D01*
X29685000Y-36685000D02*
X29685000Y-37115000D01*
X29685000Y-37985000D02*
X29685000Y-38010000D01*
X29685000Y-38010000D02*
X28215000Y-38010000D01*
X27770000Y-35810000D02*
X27630000Y-35620000D01*
X27910000Y-35620000D01*
X27770000Y-35810000D01*
G36*
X27770000Y-35810000D02*
G01*
X27630000Y-35620000D01*
X27910000Y-35620000D01*
X27770000Y-35810000D01*
G37*
%TO.C,C9*%
X48265000Y-24873752D02*
X48265000Y-24351248D01*
X49735000Y-24873752D02*
X49735000Y-24351248D01*
%TO.C,U103*%
X21315000Y-24490000D02*
X22785000Y-24490000D01*
X21315000Y-24515000D02*
X21315000Y-24490000D01*
X21315000Y-26710000D02*
X21315000Y-26685000D01*
X22785000Y-24490000D02*
X22785000Y-24515000D01*
X22785000Y-25385000D02*
X22785000Y-25815000D01*
X22785000Y-26685000D02*
X22785000Y-26710000D01*
X22785000Y-26710000D02*
X21315000Y-26710000D01*
X20870000Y-24510000D02*
X20730000Y-24320000D01*
X21010000Y-24320000D01*
X20870000Y-24510000D01*
G36*
X20870000Y-24510000D02*
G01*
X20730000Y-24320000D01*
X21010000Y-24320000D01*
X20870000Y-24510000D01*
G37*
%TO.C,J100*%
X6620000Y-9080000D02*
X57640000Y-9080000D01*
X6620000Y-11730000D02*
X6620000Y-9080000D01*
X6620000Y-14380000D02*
X6620000Y-13000000D01*
X8000000Y-14380000D02*
X6620000Y-14380000D01*
X9270000Y-11730000D02*
X6620000Y-11730000D01*
X9270000Y-14380000D02*
X9270000Y-11730000D01*
X9270000Y-14380000D02*
X57640000Y-14380000D01*
X57640000Y-14380000D02*
X57640000Y-9080000D01*
%TO.C,R10*%
X30722936Y-28415000D02*
X31177064Y-28415000D01*
X30722936Y-29885000D02*
X31177064Y-29885000D01*
%TO.C,R21*%
X30722936Y-31415000D02*
X31177064Y-31415000D01*
X30722936Y-32885000D02*
X31177064Y-32885000D01*
%TO.C,R16*%
X6552936Y-36020000D02*
X8007064Y-36020000D01*
X6552936Y-37840000D02*
X8007064Y-37840000D01*
%TO.C,R101*%
X10922936Y-30215000D02*
X11377064Y-30215000D01*
X10922936Y-31685000D02*
X11377064Y-31685000D01*
%TO.C,R100*%
X6622936Y-30215000D02*
X7077064Y-30215000D01*
X6622936Y-31685000D02*
X7077064Y-31685000D01*
%TO.C,R11*%
X45822936Y-30015000D02*
X46277064Y-30015000D01*
X45822936Y-31485000D02*
X46277064Y-31485000D01*
%TO.C,J3*%
X7990000Y-58550000D02*
X7990000Y-57170000D01*
X9370000Y-58550000D02*
X7990000Y-58550000D01*
X10640000Y-55790000D02*
X18370000Y-55790000D01*
X10640000Y-58550000D02*
X10640000Y-55790000D01*
X10640000Y-58550000D02*
X18370000Y-58550000D01*
X18370000Y-58550000D02*
X18370000Y-55790000D01*
%TO.C,C13*%
X16618748Y-31445000D02*
X17141252Y-31445000D01*
X16618748Y-32915000D02*
X17141252Y-32915000D01*
%TO.C,R20*%
X26022936Y-31415000D02*
X26477064Y-31415000D01*
X26022936Y-32885000D02*
X26477064Y-32885000D01*
%TO.C,R5*%
X21322936Y-31415000D02*
X21777064Y-31415000D01*
X21322936Y-32885000D02*
X21777064Y-32885000D01*
%TO.C,C101*%
X6618748Y-24445000D02*
X7141252Y-24445000D01*
X6618748Y-25915000D02*
X7141252Y-25915000D01*
%TO.C,R12*%
X50222936Y-30015000D02*
X50677064Y-30015000D01*
X50222936Y-31485000D02*
X50677064Y-31485000D01*
%TO.C,U7*%
X36015000Y-35790000D02*
X37485000Y-35790000D01*
X36015000Y-35815000D02*
X36015000Y-35790000D01*
X36015000Y-38010000D02*
X36015000Y-37985000D01*
X37485000Y-35790000D02*
X37485000Y-35815000D01*
X37485000Y-36685000D02*
X37485000Y-37115000D01*
X37485000Y-37985000D02*
X37485000Y-38010000D01*
X37485000Y-38010000D02*
X36015000Y-38010000D01*
X35570000Y-35810000D02*
X35430000Y-35620000D01*
X35710000Y-35620000D01*
X35570000Y-35810000D01*
G36*
X35570000Y-35810000D02*
G01*
X35430000Y-35620000D01*
X35710000Y-35620000D01*
X35570000Y-35810000D01*
G37*
%TO.C,R19*%
X23352936Y-36020000D02*
X24807064Y-36020000D01*
X23352936Y-37840000D02*
X24807064Y-37840000D01*
%TO.C,R8*%
X21322936Y-28415000D02*
X21777064Y-28415000D01*
X21322936Y-29885000D02*
X21777064Y-29885000D01*
%TO.C,U101*%
X5715000Y-20990000D02*
X7185000Y-20990000D01*
X5715000Y-21015000D02*
X5715000Y-20990000D01*
X5715000Y-23210000D02*
X5715000Y-23185000D01*
X7185000Y-20990000D02*
X7185000Y-21015000D01*
X7185000Y-23185000D02*
X7185000Y-23210000D01*
X7185000Y-23210000D02*
X5715000Y-23210000D01*
X5270000Y-21010000D02*
X5130000Y-20820000D01*
X5410000Y-20820000D01*
X5270000Y-21010000D01*
G36*
X5270000Y-21010000D02*
G01*
X5130000Y-20820000D01*
X5410000Y-20820000D01*
X5270000Y-21010000D01*
G37*
%TO.C,R7*%
X16622936Y-28415000D02*
X17077064Y-28415000D01*
X16622936Y-29885000D02*
X17077064Y-29885000D01*
%TD*%
M02*
