%TF.GenerationSoftware,KiCad,Pcbnew,10.0.6*%
%TF.CreationDate,2026-09-09T18:25:14+02:00*%
%TF.ProjectId,Motormodul,4d6f746f-726d-46f6-9475-6c2e6b696361,rev?*%
%TF.SameCoordinates,Original*%
%TF.FileFunction,Other,User*%
%FSLAX46Y46*%
G04 Gerber Fmt 4.6, Leading zero omitted, Abs format (unit mm)*
G04 Created by KiCad (PCBNEW 10.0.6) date 2026-09-09 18:25:14*
%MOMM*%
%LPD*%
G01*
G04 APERTURE LIST*
%ADD10C,0.050000*%
G04 APERTURE END LIST*
%TO.C,C9*%
D10*
X38500000Y-25000000D02*
X40460000Y-25000000D01*
X40460000Y-28760000D01*
X38500000Y-28760000D01*
X38500000Y-25000000D01*
%TO.C,U6*%
X4000000Y-46050000D02*
X4720000Y-46050000D01*
X4000000Y-47910000D02*
X4000000Y-46050000D01*
X4720000Y-45880000D02*
X6180000Y-45880000D01*
X4720000Y-46050000D02*
X4720000Y-45880000D01*
X4720000Y-47910000D02*
X4000000Y-47910000D01*
X4720000Y-48080000D02*
X4720000Y-47910000D01*
X6180000Y-45880000D02*
X6180000Y-46050000D01*
X6180000Y-46050000D02*
X6900000Y-46050000D01*
X6180000Y-46610000D02*
X6180000Y-47350000D01*
X6180000Y-47350000D02*
X6900000Y-47350000D01*
X6180000Y-47910000D02*
X6180000Y-48080000D01*
X6180000Y-48080000D02*
X4720000Y-48080000D01*
X6900000Y-46050000D02*
X6900000Y-46610000D01*
X6900000Y-46610000D02*
X6180000Y-46610000D01*
X6900000Y-47350000D02*
X6900000Y-47910000D01*
X6900000Y-47910000D02*
X6180000Y-47910000D01*
%TO.C,U103*%
X19600000Y-24670000D02*
X20320000Y-24670000D01*
X19600000Y-26530000D02*
X19600000Y-24670000D01*
X20320000Y-24500000D02*
X21780000Y-24500000D01*
X20320000Y-24670000D02*
X20320000Y-24500000D01*
X20320000Y-26530000D02*
X19600000Y-26530000D01*
X20320000Y-26700000D02*
X20320000Y-26530000D01*
X21780000Y-24500000D02*
X21780000Y-24670000D01*
X21780000Y-24670000D02*
X22500000Y-24670000D01*
X21780000Y-25230000D02*
X21780000Y-25970000D01*
X21780000Y-25970000D02*
X22500000Y-25970000D01*
X21780000Y-26530000D02*
X21780000Y-26700000D01*
X21780000Y-26700000D02*
X20320000Y-26700000D01*
X22500000Y-24670000D02*
X22500000Y-25230000D01*
X22500000Y-25230000D02*
X21780000Y-25230000D01*
X22500000Y-25970000D02*
X22500000Y-26530000D01*
X22500000Y-26530000D02*
X21780000Y-26530000D01*
%TO.C,R102*%
X8400000Y-24200000D02*
X12100000Y-24200000D01*
X12100000Y-26100000D01*
X8400000Y-26100000D01*
X8400000Y-24200000D01*
%TO.C,J3*%
X500000Y-38880000D02*
X11660000Y-38880000D01*
X11660000Y-42420000D01*
X500000Y-42420000D01*
X500000Y-38880000D01*
%TO.C,D91*%
X62000000Y-17200000D02*
X71800000Y-17200000D01*
X62000000Y-23900000D02*
X62000000Y-17200000D01*
X71800000Y-17200000D02*
X71800000Y-23900000D01*
X71800000Y-23900000D02*
X62000000Y-23900000D01*
%TO.C,J90*%
X51540000Y-7700000D02*
X59540000Y-7700000D01*
X59540000Y-16300000D01*
X51540000Y-16300000D01*
X51540000Y-7700000D01*
%TO.C,J103*%
X59220000Y-43720000D02*
X68270000Y-43720000D01*
X59220000Y-49820000D02*
X59220000Y-43720000D01*
X68270000Y-43720000D02*
X68270000Y-49820000D01*
X68270000Y-49820000D02*
X59220000Y-49820000D01*
%TO.C,C13*%
X12800000Y-31200000D02*
X16560000Y-31200000D01*
X16560000Y-33160000D01*
X12800000Y-33160000D01*
X12800000Y-31200000D01*
%TO.C,C16*%
X22900000Y-20100000D02*
X24860000Y-20100000D01*
X24860000Y-23860000D01*
X22900000Y-23860000D01*
X22900000Y-20100000D01*
%TO.C,C19*%
X13200000Y-36320000D02*
X16960000Y-36320000D01*
X16960000Y-38280000D01*
X13200000Y-38280000D01*
X13200000Y-36320000D01*
%TO.C,C11*%
X35100000Y-15800000D02*
X38860000Y-15800000D01*
X38860000Y-17760000D01*
X35100000Y-17760000D01*
X35100000Y-15800000D01*
%TO.C,R18*%
X10820000Y-43020000D02*
X15380000Y-43020000D01*
X15380000Y-45280000D01*
X10820000Y-45280000D01*
X10820000Y-43020000D01*
%TO.C,R17*%
X5660000Y-43020000D02*
X10220000Y-43020000D01*
X10220000Y-45280000D01*
X5660000Y-45280000D01*
X5660000Y-43020000D01*
%TO.C,R20*%
X21600000Y-31200000D02*
X25300000Y-31200000D01*
X25300000Y-33100000D01*
X21600000Y-33100000D01*
X21600000Y-31200000D01*
%TO.C,C100*%
X4000000Y-27100000D02*
X7760000Y-27100000D01*
X7760000Y-29060000D01*
X4000000Y-29060000D01*
X4000000Y-27100000D01*
%TO.C,U7*%
X9000000Y-46050000D02*
X9720000Y-46050000D01*
X9000000Y-47910000D02*
X9000000Y-46050000D01*
X9720000Y-45880000D02*
X11180000Y-45880000D01*
X9720000Y-46050000D02*
X9720000Y-45880000D01*
X9720000Y-47910000D02*
X9000000Y-47910000D01*
X9720000Y-48080000D02*
X9720000Y-47910000D01*
X11180000Y-45880000D02*
X11180000Y-46050000D01*
X11180000Y-46050000D02*
X11900000Y-46050000D01*
X11180000Y-46610000D02*
X11180000Y-47350000D01*
X11180000Y-47350000D02*
X11900000Y-47350000D01*
X11180000Y-47910000D02*
X11180000Y-48080000D01*
X11180000Y-48080000D02*
X9720000Y-48080000D01*
X11900000Y-46050000D02*
X11900000Y-46610000D01*
X11900000Y-46610000D02*
X11180000Y-46610000D01*
X11900000Y-47350000D02*
X11900000Y-47910000D01*
X11900000Y-47910000D02*
X11180000Y-47910000D01*
%TO.C,R105*%
X8300000Y-32900000D02*
X12000000Y-32900000D01*
X12000000Y-34800000D01*
X8300000Y-34800000D01*
X8300000Y-32900000D01*
%TO.C,R19*%
X15980000Y-43020000D02*
X20540000Y-43020000D01*
X20540000Y-45280000D01*
X15980000Y-45280000D01*
X15980000Y-43020000D01*
%TO.C,R101*%
X8300000Y-30000000D02*
X12000000Y-30000000D01*
X12000000Y-31900000D01*
X8300000Y-31900000D01*
X8300000Y-30000000D01*
%TO.C,Q90*%
X60140000Y-7700000D02*
X71240000Y-7700000D01*
X71240000Y-14700000D01*
X60140000Y-14700000D01*
X60140000Y-7700000D01*
%TO.C,U5*%
X12000000Y-50200000D02*
X22900000Y-50200000D01*
X22900000Y-57400000D01*
X12000000Y-57400000D01*
X12000000Y-50200000D01*
%TO.C,R13*%
X8400000Y-27100000D02*
X12100000Y-27100000D01*
X12100000Y-29000000D01*
X8400000Y-29000000D01*
X8400000Y-27100000D01*
%TO.C,R9*%
X21600000Y-28200000D02*
X25300000Y-28200000D01*
X25300000Y-30100000D01*
X21600000Y-30100000D01*
X21600000Y-28200000D01*
%TO.C,U4*%
X500000Y-50200000D02*
X11400000Y-50200000D01*
X11400000Y-57400000D01*
X500000Y-57400000D01*
X500000Y-50200000D01*
%TO.C,C91*%
X51540000Y-33600000D02*
X55300000Y-33600000D01*
X55300000Y-35560000D01*
X51540000Y-35560000D01*
X51540000Y-33600000D01*
%TO.C,U102*%
X14000000Y-24570000D02*
X14880000Y-24570000D01*
X14000000Y-26930000D02*
X14000000Y-24570000D01*
X14880000Y-24500000D02*
X17680000Y-24500000D01*
X14880000Y-24570000D02*
X14880000Y-24500000D01*
X14880000Y-26930000D02*
X14000000Y-26930000D01*
X14880000Y-27000000D02*
X14880000Y-26930000D01*
X17680000Y-24500000D02*
X17680000Y-24570000D01*
X17680000Y-24570000D02*
X18560000Y-24570000D01*
X17680000Y-26930000D02*
X17680000Y-27000000D01*
X17680000Y-27000000D02*
X14880000Y-27000000D01*
X18560000Y-24570000D02*
X18560000Y-26930000D01*
X18560000Y-26930000D02*
X17680000Y-26930000D01*
%TO.C,D90*%
X51540000Y-17200000D02*
X61340000Y-17200000D01*
X51540000Y-23900000D02*
X51540000Y-17200000D01*
X61340000Y-17200000D02*
X61340000Y-23900000D01*
X61340000Y-23900000D02*
X51540000Y-23900000D01*
%TO.C,R100*%
X4000000Y-30000000D02*
X7700000Y-30000000D01*
X7700000Y-31900000D01*
X4000000Y-31900000D01*
X4000000Y-30000000D01*
%TO.C,U101*%
X4000000Y-21170000D02*
X4720000Y-21170000D01*
X4000000Y-23030000D02*
X4000000Y-21170000D01*
X4720000Y-21000000D02*
X6180000Y-21000000D01*
X4720000Y-21170000D02*
X4720000Y-21000000D01*
X4720000Y-23030000D02*
X4000000Y-23030000D01*
X4720000Y-23200000D02*
X4720000Y-23030000D01*
X6180000Y-21000000D02*
X6180000Y-21170000D01*
X6180000Y-21170000D02*
X6900000Y-21170000D01*
X6180000Y-23030000D02*
X6180000Y-23200000D01*
X6180000Y-23200000D02*
X4720000Y-23200000D01*
X6900000Y-21170000D02*
X6900000Y-23030000D01*
X6900000Y-23030000D02*
X6180000Y-23030000D01*
%TO.C,C101*%
X4000000Y-24200000D02*
X7760000Y-24200000D01*
X7760000Y-26160000D01*
X4000000Y-26160000D01*
X4000000Y-24200000D01*
%TO.C,R21*%
X17800000Y-36320000D02*
X21500000Y-36320000D01*
X21500000Y-38220000D01*
X17800000Y-38220000D01*
X17800000Y-36320000D01*
%TO.C,R10*%
X21310000Y-33760000D02*
X25010000Y-33760000D01*
X25010000Y-35660000D01*
X21310000Y-35660000D01*
X21310000Y-33760000D01*
%TO.C,C90*%
X60042479Y-28751238D02*
G75*
G02*
X51542479Y-28751238I-4250000J0D01*
G01*
X51542479Y-28751238D02*
G75*
G02*
X60042479Y-28751238I4250000J0D01*
G01*
%TO.C,J5*%
X33420000Y-29360000D02*
X44590000Y-29360000D01*
X44590000Y-41560000D01*
X33420000Y-41560000D01*
X33420000Y-29360000D01*
%TO.C,C14*%
X22900000Y-15700000D02*
X24860000Y-15700000D01*
X24860000Y-19460000D01*
X22900000Y-19460000D01*
X22900000Y-15700000D01*
%TO.C,C15*%
X12650000Y-33760000D02*
X16410000Y-33760000D01*
X16410000Y-35720000D01*
X12650000Y-35720000D01*
X12650000Y-33760000D01*
%TO.C,R7*%
X13000000Y-28200000D02*
X16700000Y-28200000D01*
X16700000Y-30100000D01*
X13000000Y-30100000D01*
X13000000Y-28200000D01*
%TO.C,C17*%
X4000000Y-36320000D02*
X7760000Y-36320000D01*
X7760000Y-38280000D01*
X4000000Y-38280000D01*
X4000000Y-36320000D01*
%TO.C,C18*%
X8600000Y-36320000D02*
X12360000Y-36320000D01*
X12360000Y-38280000D01*
X8600000Y-38280000D01*
X8600000Y-36320000D01*
%TO.C,J100*%
X28840000Y-500000D02*
X32380000Y-500000D01*
X28840000Y-52300000D02*
X28840000Y-500000D01*
X32380000Y-500000D02*
X32380000Y-52300000D01*
X32380000Y-52300000D02*
X28840000Y-52300000D01*
%TO.C,R91*%
X55840000Y-500000D02*
X59540000Y-500000D01*
X59540000Y-2400000D01*
X55840000Y-2400000D01*
X55840000Y-500000D01*
%TO.C,R5*%
X17300000Y-31200000D02*
X21000000Y-31200000D01*
X21000000Y-33100000D01*
X17300000Y-33100000D01*
X17300000Y-31200000D01*
%TO.C,U100*%
X14000000Y-16620000D02*
X15400000Y-16620000D01*
X14000000Y-23380000D02*
X14000000Y-16620000D01*
X15400000Y-16500000D02*
X20300000Y-16500000D01*
X15400000Y-16620000D02*
X15400000Y-16500000D01*
X15400000Y-23380000D02*
X14000000Y-23380000D01*
X15400000Y-23500000D02*
X15400000Y-23380000D01*
X20300000Y-16500000D02*
X20300000Y-16620000D01*
X20300000Y-16620000D02*
X21700000Y-16620000D01*
X20300000Y-23380000D02*
X20300000Y-23500000D01*
X20300000Y-23500000D02*
X15400000Y-23500000D01*
X21700000Y-16620000D02*
X21700000Y-23380000D01*
X21700000Y-23380000D02*
X20300000Y-23380000D01*
%TO.C,R8*%
X17300000Y-28200000D02*
X21000000Y-28200000D01*
X21000000Y-30100000D01*
X17300000Y-30100000D01*
X17300000Y-28200000D01*
%TO.C,U90*%
X60640000Y-24500000D02*
X72640000Y-24500000D01*
X72640000Y-33500000D01*
X60640000Y-33500000D01*
X60640000Y-24500000D01*
%TO.C,C10*%
X35900000Y-25000000D02*
X37860000Y-25000000D01*
X37860000Y-28760000D01*
X35900000Y-28760000D01*
X35900000Y-25000000D01*
%TO.C,J105*%
X46620000Y-500000D02*
X50160000Y-500000D01*
X46620000Y-52300000D02*
X46620000Y-500000D01*
X50160000Y-500000D02*
X50160000Y-52300000D01*
X50160000Y-52300000D02*
X46620000Y-52300000D01*
%TO.C,R15*%
X17010000Y-33760000D02*
X20710000Y-33760000D01*
X20710000Y-35660000D01*
X17010000Y-35660000D01*
X17010000Y-33760000D01*
%TO.C,R90*%
X51540000Y-500000D02*
X55240000Y-500000D01*
X55240000Y-2400000D01*
X51540000Y-2400000D01*
X51540000Y-500000D01*
%TO.C,R16*%
X500000Y-43020000D02*
X5060000Y-43020000D01*
X5060000Y-45280000D01*
X500000Y-45280000D01*
X500000Y-43020000D01*
%TO.C,U3*%
X500000Y-46050000D02*
X1220000Y-46050000D01*
X500000Y-47910000D02*
X500000Y-46050000D01*
X1220000Y-45880000D02*
X2680000Y-45880000D01*
X1220000Y-46050000D02*
X1220000Y-45880000D01*
X1220000Y-47910000D02*
X500000Y-47910000D01*
X1220000Y-48080000D02*
X1220000Y-47910000D01*
X2680000Y-45880000D02*
X2680000Y-46050000D01*
X2680000Y-46050000D02*
X3400000Y-46050000D01*
X2680000Y-46610000D02*
X2680000Y-47350000D01*
X2680000Y-47350000D02*
X3400000Y-47350000D01*
X2680000Y-47910000D02*
X2680000Y-48080000D01*
X2680000Y-48080000D02*
X1220000Y-48080000D01*
X3400000Y-46050000D02*
X3400000Y-46610000D01*
X3400000Y-46610000D02*
X2680000Y-46610000D01*
X3400000Y-47350000D02*
X3400000Y-47910000D01*
X3400000Y-47910000D02*
X2680000Y-47910000D01*
%TO.C,U1*%
X35100000Y-18900000D02*
X35100000Y-24400000D01*
X35100000Y-18900000D02*
X42900000Y-18900000D01*
X35100000Y-24400000D02*
X42900000Y-24400000D01*
X42900000Y-18900000D02*
X42900000Y-24400000D01*
%TO.C,R104*%
X4000000Y-32900000D02*
X7700000Y-32900000D01*
X7700000Y-34800000D01*
X4000000Y-34800000D01*
X4000000Y-32900000D01*
%TO.C,J101*%
X17490000Y-870000D02*
X23690000Y-870000D01*
X17490000Y-7170000D02*
X17490000Y-870000D01*
X23690000Y-870000D02*
X23690000Y-7170000D01*
X23690000Y-7170000D02*
X17490000Y-7170000D01*
%TD*%
M02*
