%TF.GenerationSoftware,KiCad,Pcbnew,10.0.6*%
%TF.CreationDate,2026-09-09T18:25:14+02:00*%
%TF.ProjectId,Motormodul,4d6f746f-726d-46f6-9475-6c2e6b696361,rev?*%
%TF.SameCoordinates,Original*%
%TF.FileFunction,Copper,L2,Bot*%
%TF.FilePolarity,Positive*%
%FSLAX46Y46*%
G04 Gerber Fmt 4.6, Leading zero omitted, Abs format (unit mm)*
G04 Created by KiCad (PCBNEW 10.0.6) date 2026-09-09 18:25:14*
%MOMM*%
%LPD*%
G01*
G04 APERTURE LIST*
G04 Aperture macros list*
%AMRoundRect*
0 Rectangle with rounded corners*
0 $1 Rounding radius*
0 $2 $3 $4 $5 $6 $7 $8 $9 X,Y pos of 4 corners*
0 Add a 4 corners polygon primitive as box body*
4,1,4,$2,$3,$4,$5,$6,$7,$8,$9,$2,$3,0*
0 Add four circle primitives for the rounded corners*
1,1,$1+$1,$2,$3*
1,1,$1+$1,$4,$5*
1,1,$1+$1,$6,$7*
1,1,$1+$1,$8,$9*
0 Add four rect primitives between the rounded corners*
20,1,$1+$1,$2,$3,$4,$5,0*
20,1,$1+$1,$4,$5,$6,$7,0*
20,1,$1+$1,$6,$7,$8,$9,0*
20,1,$1+$1,$8,$9,$2,$3,0*%
G04 Aperture macros list end*
%TA.AperFunction,ComponentPad*%
%ADD10R,1.700000X1.700000*%
%TD*%
%TA.AperFunction,ComponentPad*%
%ADD11C,1.700000*%
%TD*%
%TA.AperFunction,ComponentPad*%
%ADD12RoundRect,0.250001X-0.949999X-0.949999X0.949999X-0.949999X0.949999X0.949999X-0.949999X0.949999X0*%
%TD*%
%TA.AperFunction,ComponentPad*%
%ADD13C,2.400000*%
%TD*%
%TA.AperFunction,ComponentPad*%
%ADD14RoundRect,0.250000X-0.550000X-0.550000X0.550000X-0.550000X0.550000X0.550000X-0.550000X0.550000X0*%
%TD*%
%TA.AperFunction,ComponentPad*%
%ADD15C,1.600000*%
%TD*%
%TA.AperFunction,ComponentPad*%
%ADD16RoundRect,0.250000X-1.050000X-1.050000X1.050000X-1.050000X1.050000X1.050000X-1.050000X1.050000X0*%
%TD*%
%TA.AperFunction,ComponentPad*%
%ADD17C,2.600000*%
%TD*%
%TA.AperFunction,ComponentPad*%
%ADD18R,1.700000X2.500000*%
%TD*%
%TA.AperFunction,ComponentPad*%
%ADD19O,1.700000X2.500000*%
%TD*%
%TA.AperFunction,ComponentPad*%
%ADD20C,0.600000*%
%TD*%
%TA.AperFunction,SMDPad,CuDef*%
%ADD21R,2.510000X1.000000*%
%TD*%
%TA.AperFunction,SMDPad,CuDef*%
%ADD22R,3.150000X1.000000*%
%TD*%
%TA.AperFunction,SMDPad,CuDef*%
%ADD23RoundRect,0.135000X0.315000X1.165000X-0.315000X1.165000X-0.315000X-1.165000X0.315000X-1.165000X0*%
%TD*%
%TA.AperFunction,ViaPad*%
%ADD24C,0.600000*%
%TD*%
%TA.AperFunction,Conductor*%
%ADD25C,1.000000*%
%TD*%
%TA.AperFunction,Conductor*%
%ADD26C,0.250000*%
%TD*%
G04 APERTURE END LIST*
D10*
%TO.P,J3,1*%
%TO.N,/KREIS1_A*%
X2270000Y-40650000D03*
D11*
%TO.P,J3,2*%
%TO.N,/KREIS1_B*%
X4810000Y-40650000D03*
%TO.P,J3,3*%
%TO.N,/KREIS2_A*%
X7350000Y-40650000D03*
%TO.P,J3,4*%
%TO.N,/KREIS2_B*%
X9890000Y-40650000D03*
%TD*%
D12*
%TO.P,J90,1*%
%TO.N,/PWR_IN*%
X53790000Y-11300000D03*
D13*
%TO.P,J90,2*%
%TO.N,GND*%
X57290000Y-11300000D03*
%TD*%
D14*
%TO.P,C90,1*%
%TO.N,/+24V*%
X54042479Y-28751238D03*
D15*
%TO.P,C90,2*%
%TO.N,GND*%
X57542479Y-28751238D03*
%TD*%
D16*
%TO.P,J5,1*%
%TO.N,/Out1*%
X36460000Y-35760000D03*
D17*
%TO.P,J5,2*%
%TO.N,/Out2*%
X41540000Y-35760000D03*
%TD*%
D10*
%TO.P,J100,1*%
%TO.N,/FLASH_TX*%
X30610000Y-2270000D03*
D11*
%TO.P,J100,2*%
%TO.N,/FLASH_RX*%
X30610000Y-4810000D03*
%TO.P,J100,3*%
%TO.N,GND*%
X30610000Y-7350000D03*
%TO.P,J100,4*%
%TO.N,unconnected-(J100-Pin_4-Pad4)*%
X30610000Y-9890000D03*
%TO.P,J100,5*%
%TO.N,/FLASH_MODE*%
X30610000Y-12430000D03*
%TO.P,J100,6*%
%TO.N,/I2C_SDA*%
X30610000Y-14970000D03*
%TO.P,J100,7*%
%TO.N,/I2C_SCL*%
X30610000Y-17510000D03*
%TO.P,J100,8*%
%TO.N,GND*%
X30610000Y-20050000D03*
%TO.P,J100,9*%
%TO.N,/NOTAUS*%
X30610000Y-22590000D03*
%TO.P,J100,10*%
%TO.N,/SEL_CLK*%
X30610000Y-25130000D03*
%TO.P,J100,11*%
%TO.N,/GP8*%
X30610000Y-27670000D03*
%TO.P,J100,12*%
%TO.N,/GP9*%
X30610000Y-30210000D03*
%TO.P,J100,13*%
%TO.N,GND*%
X30610000Y-32750000D03*
%TO.P,J100,14*%
%TO.N,/GP10*%
X30610000Y-35290000D03*
%TO.P,J100,15*%
%TO.N,/GP11*%
X30610000Y-37830000D03*
%TO.P,J100,16*%
%TO.N,/GP12*%
X30610000Y-40370000D03*
%TO.P,J100,17*%
%TO.N,/GP13*%
X30610000Y-42910000D03*
%TO.P,J100,18*%
%TO.N,GND*%
X30610000Y-45450000D03*
%TO.P,J100,19*%
%TO.N,/GP14*%
X30610000Y-47990000D03*
%TO.P,J100,20*%
%TO.N,/GP15*%
X30610000Y-50530000D03*
%TD*%
D18*
%TO.P,U90,1*%
%TO.N,/+24V*%
X64100000Y-26750000D03*
D19*
%TO.P,U90,2*%
%TO.N,GND*%
X66640000Y-26750000D03*
%TO.P,U90,3*%
%TO.N,/+5V_LOKAL*%
X69180000Y-26750000D03*
%TD*%
D10*
%TO.P,J105,1*%
%TO.N,/GP16*%
X48390000Y-50530000D03*
D11*
%TO.P,J105,2*%
%TO.N,/GP17*%
X48390000Y-47990000D03*
%TO.P,J105,3*%
%TO.N,GND*%
X48390000Y-45450000D03*
%TO.P,J105,4*%
%TO.N,/GP18*%
X48390000Y-42910000D03*
%TO.P,J105,5*%
%TO.N,/GP19*%
X48390000Y-40370000D03*
%TO.P,J105,6*%
%TO.N,/GP20*%
X48390000Y-37830000D03*
%TO.P,J105,7*%
%TO.N,/GP21*%
X48390000Y-35290000D03*
%TO.P,J105,8*%
%TO.N,GND*%
X48390000Y-32750000D03*
%TO.P,J105,9*%
%TO.N,/GP22*%
X48390000Y-30210000D03*
%TO.P,J105,10*%
%TO.N,unconnected-(J105-Pin_10-Pad10)*%
X48390000Y-27670000D03*
%TO.P,J105,11*%
%TO.N,/GP26*%
X48390000Y-25130000D03*
%TO.P,J105,12*%
%TO.N,/GP27*%
X48390000Y-22590000D03*
%TO.P,J105,13*%
%TO.N,GND*%
X48390000Y-20050000D03*
%TO.P,J105,14*%
%TO.N,/GP28*%
X48390000Y-17510000D03*
%TO.P,J105,15*%
%TO.N,unconnected-(J105-Pin_15-Pad15)*%
X48390000Y-14970000D03*
%TO.P,J105,16*%
%TO.N,3V3*%
X48390000Y-12430000D03*
%TO.P,J105,17*%
%TO.N,unconnected-(J105-Pin_17-Pad17)*%
X48390000Y-9890000D03*
%TO.P,J105,18*%
%TO.N,GND*%
X48390000Y-7350000D03*
%TO.P,J105,19*%
%TO.N,/VSYS*%
X48390000Y-4810000D03*
%TO.P,J105,20*%
%TO.N,unconnected-(J105-Pin_20-Pad20)*%
X48390000Y-2270000D03*
%TD*%
D20*
%TO.P,U1,17*%
%TO.N,GND*%
X38000000Y-19850000D03*
X38000000Y-21050000D03*
X38000000Y-22250000D03*
X38000000Y-23450000D03*
X39000000Y-19850000D03*
X39000000Y-21050000D03*
X39000000Y-22250000D03*
X39000000Y-23450000D03*
X40000000Y-19850000D03*
X40000000Y-21050000D03*
X40000000Y-22250000D03*
X40000000Y-23450000D03*
%TD*%
D21*
%TO.P,J102,1*%
%TO.N,/SEL_OUT*%
X22245000Y-2750000D03*
%TO.P,J102,2*%
%TO.N,GND*%
X18935000Y-5290000D03*
%TD*%
D22*
%TO.P,J104,1*%
%TO.N,/+24V*%
X66295000Y-45500000D03*
%TO.P,J104,2*%
%TO.N,GND*%
X61245000Y-45500000D03*
%TO.P,J104,3*%
%TO.N,/+24V*%
X66295000Y-48040000D03*
%TO.P,J104,4*%
%TO.N,GND*%
X61245000Y-48040000D03*
%TD*%
D23*
%TO.P,J96,1*%
%TO.N,GND*%
X8000000Y-63000000D03*
%TO.P,J96,2*%
%TO.N,3V3*%
X10540000Y-63000000D03*
%TO.P,J96,3*%
X13080000Y-63000000D03*
%TO.P,J96,4*%
%TO.N,GND*%
X15620000Y-63000000D03*
%TD*%
%TO.P,J95,1*%
%TO.N,/GP8*%
X18160000Y-63000000D03*
%TO.P,J95,2*%
%TO.N,/GP9*%
X20700000Y-63000000D03*
%TO.P,J95,3*%
%TO.N,/GP10*%
X23240000Y-63000000D03*
%TO.P,J95,4*%
%TO.N,/GP11*%
X25780000Y-63000000D03*
%TO.P,J95,5*%
%TO.N,/GP12*%
X28320000Y-63000000D03*
%TO.P,J95,6*%
%TO.N,/GP13*%
X30860000Y-63000000D03*
%TO.P,J95,7*%
%TO.N,/GP14*%
X33400000Y-63000000D03*
%TO.P,J95,8*%
%TO.N,/GP15*%
X35940000Y-63000000D03*
%TO.P,J95,9*%
%TO.N,/GP16*%
X38480000Y-63000000D03*
%TO.P,J95,10*%
%TO.N,/GP17*%
X41020000Y-63000000D03*
%TO.P,J95,11*%
%TO.N,/GP18*%
X43560000Y-63000000D03*
%TO.P,J95,12*%
%TO.N,/GP19*%
X46100000Y-63000000D03*
%TO.P,J95,13*%
%TO.N,/GP20*%
X48640000Y-63000000D03*
%TO.P,J95,14*%
%TO.N,/GP21*%
X51180000Y-63000000D03*
%TO.P,J95,15*%
%TO.N,/GP22*%
X53720000Y-63000000D03*
%TO.P,J95,16*%
%TO.N,/GP26*%
X56260000Y-63000000D03*
%TO.P,J95,17*%
%TO.N,/GP27*%
X58800000Y-63000000D03*
%TO.P,J95,18*%
%TO.N,/GP28*%
X61340000Y-63000000D03*
%TD*%
D24*
%TO.N,/+24V*%
X39600000Y-17300000D03*
X45000000Y-22625000D03*
X47624600Y-54727000D03*
X39480000Y-28600000D03*
X7859100Y-43718200D03*
X4367900Y-54727000D03*
X1276900Y-42563400D03*
%TO.N,/VCP*%
X45750000Y-26650000D03*
X40600000Y-26650000D03*
%TO.N,/SCHLEIFE_1*%
X10863800Y-23545500D03*
X8496900Y-46659200D03*
X20840700Y-35924900D03*
%TO.N,GND*%
X8900000Y-48600000D03*
X32096979Y-26341000D03*
X22500000Y-13750000D03*
X60000000Y-6250000D03*
X7500000Y-21250000D03*
X60000000Y-51250000D03*
X7500000Y-13750000D03*
X16700000Y-19100000D03*
X45000000Y-6250000D03*
X45000000Y-28750000D03*
X52500000Y-58750000D03*
X7500000Y-6250000D03*
X28013954Y-24164000D03*
X7700000Y-47700000D03*
X13700000Y-19100000D03*
X37500000Y-58750000D03*
X8100000Y-28500000D03*
X21300000Y-33400000D03*
X21500000Y-27200000D03*
X67500000Y-36250000D03*
X7500000Y-58750000D03*
X25700000Y-21500000D03*
X3200000Y-49500000D03*
X45000000Y-13750000D03*
X67500000Y-6250000D03*
X1000500Y-47805500D03*
X52500000Y-43750000D03*
X15000000Y-13750000D03*
X16488779Y-31207553D03*
X7300000Y-54000000D03*
X14943700Y-26675500D03*
X22500000Y-58750000D03*
X37500000Y-13750000D03*
X30000000Y-58750000D03*
X52500000Y-51250000D03*
X11700000Y-23200000D03*
X22500000Y-43750000D03*
X12551448Y-54625500D03*
X3000000Y-31000000D03*
X67500000Y-58750000D03*
X60000000Y-36250000D03*
X8600000Y-47700000D03*
X4612000Y-49200000D03*
X15000000Y-58750000D03*
X67500000Y-51250000D03*
X22500000Y-36250000D03*
X26000000Y-18200000D03*
X12900000Y-19675000D03*
X37500000Y-6250000D03*
X9613000Y-49200000D03*
X52500000Y-36250000D03*
X13500000Y-39200000D03*
X45000000Y-58750000D03*
X52500000Y-6250000D03*
X60000000Y-58750000D03*
X15000000Y-6250000D03*
X22087462Y-20500500D03*
%TO.N,/NOTAUS*%
X5900000Y-48400000D03*
X19448300Y-36148700D03*
X3700000Y-48400000D03*
%TO.N,3V3*%
X13755500Y-45940500D03*
X32208200Y-22579100D03*
X22523000Y-22688100D03*
X11860800Y-53800000D03*
X29465800Y-20960000D03*
X17680000Y-24100000D03*
X22900000Y-24950000D03*
X27409200Y-20123700D03*
X15945900Y-24224600D03*
%TO.N,/FLASH_MODE*%
X18637700Y-22597200D03*
X23750400Y-11927100D03*
%TO.N,/SEL_OUT*%
X7740400Y-22966600D03*
X14880000Y-23650000D03*
X19350000Y-27600000D03*
%TO.N,/BOOT0*%
X23366100Y-26996500D03*
X28662800Y-20836500D03*
%TO.N,/NCLR*%
X1601200Y-25090000D03*
X4828500Y-19788100D03*
%TO.N,/KREIS1_A*%
X2865600Y-43479700D03*
%TO.N,/VSYS*%
X56497400Y-20740700D03*
%TO.N,/IPROPI*%
X27401600Y-28077500D03*
X21010000Y-34631500D03*
%TO.N,/U4_LED_A*%
X8570900Y-50594900D03*
X12923900Y-41933900D03*
%TO.N,/SCHLEIFE_2*%
X17625400Y-55116900D03*
X16576500Y-47056500D03*
X16593800Y-18190400D03*
X10139900Y-39063300D03*
%TO.N,/ID1*%
X9150000Y-29650000D03*
X17100000Y-21625000D03*
%TO.N,/U5_LED_A*%
X17693400Y-46505900D03*
X16989300Y-50701400D03*
%TO.N,/Q90_GATE*%
X50514500Y-1636100D03*
X53877800Y-6120800D03*
%TO.N,/NFAULT*%
X22206400Y-14810700D03*
X28415700Y-22622100D03*
X27157100Y-18628800D03*
X18566100Y-21346100D03*
X25764600Y-14964400D03*
X12677800Y-27395500D03*
%TO.N,/NSLEEP*%
X19240000Y-23251900D03*
X25313900Y-22453800D03*
X25225500Y-24534000D03*
X23772900Y-25986700D03*
%TO.N,/NSLEEP_GATTER*%
X16993300Y-29799900D03*
X10534400Y-35721200D03*
%TO.N,/ID0*%
X4850000Y-29600000D03*
X16500000Y-20975000D03*
%TO.N,/SEL_CLK*%
X25462600Y-12325800D03*
X26182400Y-20269300D03*
%TO.N,/SEL_IN*%
X10023400Y-4344100D03*
X1601200Y-22126300D03*
%TO.N,/IN1*%
X16443300Y-22574900D03*
X14118200Y-30946500D03*
%TO.N,/U1_EN_IN1*%
X19150000Y-30933700D03*
X17748800Y-30882300D03*
%TO.N,/FLASH_RX*%
X24768600Y-19886700D03*
%TO.N,/U1_PH_IN2*%
X22390200Y-27011600D03*
X33671900Y-15708500D03*
%TO.N,/CPH*%
X44600000Y-21325000D03*
X36880000Y-27918000D03*
%TO.N,/CPL*%
X38180000Y-27500000D03*
X46400000Y-27500000D03*
%TO.N,/GP16*%
X38947400Y-54642400D03*
X48342100Y-52526300D03*
%TO.N,/GP18*%
X50373400Y-60386000D03*
X44811000Y-60936100D03*
%TO.N,/GP19*%
X48831100Y-53477800D03*
%TO.N,/U1_NSLEEP*%
X47024400Y-34096000D03*
X7038500Y-50057400D03*
X10727100Y-50732000D03*
X47185500Y-16171600D03*
%TD*%
%TO.N,/+24V*%
D25*
X33299999Y-17300000D02*
X39600000Y-17300000D01*
X1276900Y-42563400D02*
X1276900Y-43629100D01*
X46300000Y-22625000D02*
X46300000Y-17300000D01*
X39480000Y-46582400D02*
X39480000Y-28600000D01*
X68571700Y-48040000D02*
X68571700Y-45500000D01*
X33299999Y-29300000D02*
X33299999Y-17300000D01*
X66295000Y-45500000D02*
X68571700Y-45500000D01*
X47624600Y-54727000D02*
X39480000Y-46582400D01*
X2146200Y-44498400D02*
X7078900Y-44498400D01*
X39480000Y-28600000D02*
X38780000Y-29300000D01*
X45000000Y-22625000D02*
X46300000Y-22625000D01*
X66295000Y-45500000D02*
X64018300Y-45500000D01*
X64018300Y-45500000D02*
X64018300Y-28783400D01*
X46300000Y-17300000D02*
X39600000Y-17300000D01*
X38780000Y-29300000D02*
X33299999Y-29300000D01*
X66295000Y-48040000D02*
X68571700Y-48040000D01*
X64018300Y-28783400D02*
X64100000Y-28701700D01*
X2146200Y-44498400D02*
X2146200Y-52505300D01*
X7078900Y-44498400D02*
X7859100Y-43718200D01*
X64100000Y-26750000D02*
X64100000Y-28701700D01*
X1276900Y-43629100D02*
X2146200Y-44498400D01*
X2146200Y-52505300D02*
X4367900Y-54727000D01*
%TO.N,/VCP*%
D26*
X45750000Y-26650000D02*
X40600000Y-26650000D01*
%TO.N,/SCHLEIFE_1*%
X8496900Y-44795800D02*
X8496900Y-46659200D01*
X20840700Y-35924900D02*
X16198600Y-40567000D01*
X7441800Y-26967500D02*
X7441800Y-35283100D01*
X7441800Y-35283100D02*
X12725700Y-40567000D01*
X16198600Y-40567000D02*
X12725700Y-40567000D01*
X12725700Y-40567000D02*
X8496900Y-44795800D01*
X10863800Y-23545500D02*
X7441800Y-26967500D01*
%TO.N,/NOTAUS*%
X3700000Y-48400000D02*
X5900000Y-48400000D01*
X19448300Y-33751700D02*
X30610000Y-22590000D01*
X19448300Y-36148700D02*
X19448300Y-33751700D01*
%TO.N,3V3*%
X17555400Y-24224600D02*
X17680000Y-24100000D01*
X30130500Y-13700000D02*
X31028200Y-13700000D01*
X27783800Y-18888400D02*
X27783800Y-16046700D01*
X30122500Y-6173300D02*
X31097500Y-6173300D01*
X27409200Y-20123700D02*
X27409200Y-19263000D01*
X29413600Y-19556300D02*
X29413600Y-20907800D01*
X27783800Y-16046700D02*
X30130500Y-13700000D01*
X22900000Y-24650000D02*
X22900000Y-24950000D01*
X11860800Y-63000000D02*
X10540000Y-63000000D01*
X22350000Y-22861100D02*
X22523000Y-22688100D01*
X13755500Y-51905300D02*
X11860800Y-53800000D01*
X37354200Y-12430000D02*
X48390000Y-12430000D01*
X32208200Y-22579100D02*
X32208200Y-19947200D01*
X29413600Y-20907800D02*
X29465800Y-20960000D01*
X31792400Y-11891300D02*
X30967800Y-11066700D01*
X15945900Y-24224600D02*
X17555400Y-24224600D01*
X13080000Y-63000000D02*
X11860800Y-63000000D01*
X29368900Y-10414500D02*
X29368900Y-6926900D01*
X29368900Y-6926900D02*
X30122500Y-6173300D01*
X30967800Y-11066700D02*
X30021100Y-11066700D01*
X11860800Y-63000000D02*
X11860800Y-53800000D01*
X22350000Y-24100000D02*
X22900000Y-24650000D01*
X22350000Y-24100000D02*
X22350000Y-22861100D01*
X17680000Y-24100000D02*
X22350000Y-24100000D01*
X27409200Y-19263000D02*
X27783800Y-18888400D01*
X32208200Y-19947200D02*
X31093900Y-18832900D01*
X31028200Y-13700000D02*
X31792400Y-12935800D01*
X13755500Y-45940500D02*
X13755500Y-51905300D01*
X31093900Y-18832900D02*
X30137000Y-18832900D01*
X31097500Y-6173300D02*
X37354200Y-12430000D01*
X30021100Y-11066700D02*
X29368900Y-10414500D01*
X31792400Y-12935800D02*
X31792400Y-11891300D01*
X30137000Y-18832900D02*
X29413600Y-19556300D01*
%TO.N,/FLASH_MODE*%
X23750400Y-17484500D02*
X23750400Y-11927100D01*
X18637700Y-22597200D02*
X23750400Y-17484500D01*
%TO.N,/SEL_OUT*%
X14932100Y-23597900D02*
X16309000Y-23597900D01*
X21166300Y-4655400D02*
X21166300Y-16494100D01*
X22245000Y-2750000D02*
X22245000Y-3576700D01*
X17731500Y-22175400D02*
X17731500Y-20608100D01*
X10247300Y-20459700D02*
X7740400Y-22966600D01*
X21166300Y-16494100D02*
X17391900Y-20268500D01*
X13015600Y-20459700D02*
X10247300Y-20459700D01*
X16309000Y-23597900D02*
X17731500Y-22175400D01*
X14880000Y-23650000D02*
X14932100Y-23597900D01*
X14880000Y-24500000D02*
X14880000Y-23650000D01*
X17980000Y-27600000D02*
X14880000Y-24500000D01*
X17391900Y-20268500D02*
X13206800Y-20268500D01*
X13206800Y-20268500D02*
X13015600Y-20459700D01*
X19350000Y-27600000D02*
X17980000Y-27600000D01*
X17731500Y-20608100D02*
X17391900Y-20268500D01*
X22245000Y-3576700D02*
X21166300Y-4655400D01*
%TO.N,/BOOT0*%
X28662800Y-20836500D02*
X27789000Y-21710300D01*
X23651700Y-26996500D02*
X23366100Y-26996500D01*
X27789000Y-21710300D02*
X27789000Y-22859200D01*
X27789000Y-22859200D02*
X23651700Y-26996500D01*
%TO.N,/NCLR*%
X4828500Y-21862700D02*
X1601200Y-25090000D01*
X4828500Y-19788100D02*
X4828500Y-21862700D01*
%TO.N,/KREIS1_A*%
X2270000Y-40650000D02*
X2270000Y-41826700D01*
X2270000Y-41826700D02*
X2865600Y-42422300D01*
X2865600Y-42422300D02*
X2865600Y-43479700D01*
%TO.N,/VSYS*%
X56497400Y-20740700D02*
X49754800Y-13998100D01*
X49754800Y-6174800D02*
X48390000Y-4810000D01*
X49754800Y-13998100D02*
X49754800Y-6174800D01*
%TO.N,/IPROPI*%
X21010000Y-34631500D02*
X27401600Y-28239900D01*
X27401600Y-28239900D02*
X27401600Y-28077500D01*
%TO.N,/U4_LED_A*%
X12923900Y-46776600D02*
X9105600Y-50594900D01*
X12923900Y-41933900D02*
X12923900Y-46776600D01*
X9105600Y-50594900D02*
X8570900Y-50594900D01*
%TO.N,/SCHLEIFE_2*%
X17625400Y-48105400D02*
X16576500Y-47056500D01*
X10139900Y-39063300D02*
X4182900Y-33106300D01*
X4182900Y-33106300D02*
X4182900Y-25573100D01*
X11565600Y-18190400D02*
X16593800Y-18190400D01*
X4182900Y-25573100D02*
X11565600Y-18190400D01*
X17625400Y-55116900D02*
X17625400Y-48105400D01*
%TO.N,/ID1*%
X14300000Y-21625000D02*
X9150000Y-26775000D01*
X17100000Y-21625000D02*
X14300000Y-21625000D01*
X9150000Y-26775000D02*
X9150000Y-29650000D01*
%TO.N,/U5_LED_A*%
X15946200Y-49658300D02*
X16989300Y-50701400D01*
X17693400Y-46505900D02*
X17617300Y-46429800D01*
X17617300Y-46429800D02*
X16317000Y-46429800D01*
X15946200Y-46800600D02*
X15946200Y-49658300D01*
X16317000Y-46429800D02*
X15946200Y-46800600D01*
%TO.N,/Q90_GATE*%
X53877800Y-4999400D02*
X50514500Y-1636100D01*
X53877800Y-6120800D02*
X53877800Y-4999400D01*
%TO.N,/NFAULT*%
X28415700Y-22878300D02*
X22120900Y-29173100D01*
X22206400Y-14810700D02*
X22206400Y-17705800D01*
X14882600Y-31081000D02*
X14349300Y-31614300D01*
X28415700Y-22622100D02*
X28415700Y-22878300D01*
X22206400Y-17705800D02*
X18566100Y-21346100D01*
X14349300Y-31614300D02*
X13899500Y-31614300D01*
X13899500Y-31614300D02*
X12677800Y-30392600D01*
X16704300Y-29173100D02*
X14882600Y-30994800D01*
X14882600Y-30994800D02*
X14882600Y-31081000D01*
X27157100Y-16356900D02*
X25764600Y-14964400D01*
X12677800Y-30392600D02*
X12677800Y-27395500D01*
X27157100Y-18628800D02*
X27157100Y-16356900D01*
X22120900Y-29173100D02*
X16704300Y-29173100D01*
%TO.N,/NSLEEP*%
X24872600Y-22012500D02*
X25313900Y-22453800D01*
X19240000Y-23251900D02*
X20479400Y-22012500D01*
X25225500Y-24534000D02*
X25225500Y-24534100D01*
X20479400Y-22012500D02*
X24872600Y-22012500D01*
X25225500Y-24534100D02*
X23772900Y-25986700D01*
%TO.N,/NSLEEP_GATTER*%
X10534400Y-35721200D02*
X11072000Y-35721200D01*
X11072000Y-35721200D02*
X16993300Y-29799900D01*
%TO.N,/ID0*%
X4850000Y-28625000D02*
X4850000Y-29600000D01*
X16500000Y-20975000D02*
X12500000Y-20975000D01*
X12500000Y-20975000D02*
X4850000Y-28625000D01*
%TO.N,/SEL_CLK*%
X25137900Y-19224800D02*
X26182400Y-20269300D01*
X25137900Y-12650500D02*
X25137900Y-19224800D01*
X25462600Y-12325800D02*
X25137900Y-12650500D01*
%TO.N,/SEL_IN*%
X10023400Y-4344100D02*
X10023400Y-13704100D01*
X10023400Y-13704100D02*
X1601200Y-22126300D01*
%TO.N,/IN1*%
X15024600Y-22574900D02*
X14118200Y-23481300D01*
X16443300Y-22574900D02*
X15024600Y-22574900D01*
X14118200Y-23481300D02*
X14118200Y-30946500D01*
%TO.N,/U1_EN_IN1*%
X19150000Y-30933700D02*
X19098600Y-30882300D01*
X19098600Y-30882300D02*
X17748800Y-30882300D01*
%TO.N,/FLASH_RX*%
X30610000Y-4810000D02*
X24686200Y-10733800D01*
X24686200Y-10733800D02*
X24686200Y-19804300D01*
X24686200Y-19804300D02*
X24768600Y-19886700D01*
%TO.N,/GP8*%
X18321800Y-39531500D02*
X18321800Y-62838200D01*
X18321800Y-62838200D02*
X18160000Y-63000000D01*
X30183300Y-27670000D02*
X18321800Y-39531500D01*
X30610000Y-27670000D02*
X30183300Y-27670000D01*
%TO.N,/GP9*%
X20700000Y-63000000D02*
X20700000Y-40120000D01*
X20700000Y-40120000D02*
X30610000Y-30210000D01*
%TO.N,/GP10*%
X23240000Y-42660000D02*
X30610000Y-35290000D01*
X23240000Y-63000000D02*
X23240000Y-42660000D01*
%TO.N,/GP11*%
X30610000Y-37830000D02*
X25780000Y-42660000D01*
X25780000Y-42660000D02*
X25780000Y-63000000D01*
%TO.N,/GP12*%
X28320000Y-42660000D02*
X30610000Y-40370000D01*
X28320000Y-63000000D02*
X28320000Y-42660000D01*
%TO.N,/GP13*%
X30860000Y-63000000D02*
X28861200Y-61001200D01*
X28861200Y-44658800D02*
X30610000Y-42910000D01*
X28861200Y-61001200D02*
X28861200Y-44658800D01*
%TO.N,/GP14*%
X33326000Y-63000000D02*
X29330500Y-59004500D01*
X29330500Y-59004500D02*
X29330500Y-49269500D01*
X29330500Y-49269500D02*
X30610000Y-47990000D01*
X33400000Y-63000000D02*
X33326000Y-63000000D01*
%TO.N,/GP15*%
X30610000Y-57670000D02*
X30610000Y-50530000D01*
X35940000Y-63000000D02*
X30610000Y-57670000D01*
%TO.N,/U1_PH_IN2*%
X28036000Y-20807600D02*
X28036000Y-19275000D01*
X28235500Y-18170800D02*
X30166300Y-16240000D01*
X30166300Y-16240000D02*
X33140400Y-16240000D01*
X28036000Y-19275000D02*
X28235500Y-19075500D01*
X33140400Y-16240000D02*
X33671900Y-15708500D01*
X22390200Y-27011600D02*
X22390200Y-26453400D01*
X22390200Y-26453400D02*
X28036000Y-20807600D01*
X28235500Y-19075500D02*
X28235500Y-18170800D01*
%TO.N,/CPH*%
X44150000Y-26000000D02*
X36880000Y-26000000D01*
X36880000Y-26000000D02*
X36880000Y-27918000D01*
X44150000Y-21775000D02*
X44150000Y-26000000D01*
X44600000Y-21325000D02*
X44150000Y-21775000D01*
%TO.N,/CPL*%
X46400000Y-27500000D02*
X38180000Y-27500000D01*
%TO.N,/GP16*%
X38480000Y-63000000D02*
X38480000Y-55109800D01*
X48390000Y-51706700D02*
X48342100Y-51754600D01*
X48342100Y-51754600D02*
X48342100Y-52526300D01*
X38480000Y-55109800D02*
X38947400Y-54642400D01*
X48390000Y-50530000D02*
X48390000Y-51706700D01*
%TO.N,/GP17*%
X41020000Y-63000000D02*
X44141300Y-59878700D01*
X48463300Y-56237500D02*
X48463300Y-53996600D01*
X44141300Y-59878700D02*
X44822100Y-59878700D01*
X44822100Y-59878700D02*
X48463300Y-56237500D01*
X48463300Y-53996600D02*
X47195800Y-52729100D01*
X47195800Y-49184200D02*
X48390000Y-47990000D01*
X47195800Y-52729100D02*
X47195800Y-49184200D01*
%TO.N,/GP18*%
X47894200Y-36614100D02*
X47188100Y-37320200D01*
X50373400Y-60386000D02*
X50373400Y-38030700D01*
X48956800Y-36614100D02*
X47894200Y-36614100D01*
X47188100Y-37320200D02*
X47188100Y-41708100D01*
X50373400Y-38030700D02*
X48956800Y-36614100D01*
X43560000Y-63000000D02*
X44811000Y-61749000D01*
X47188100Y-41708100D02*
X48390000Y-42910000D01*
X44811000Y-61749000D02*
X44811000Y-60936100D01*
%TO.N,/GP19*%
X48915000Y-60185000D02*
X48915000Y-53561700D01*
X46100000Y-63000000D02*
X48915000Y-60185000D01*
X48915000Y-53561700D02*
X48831100Y-53477800D01*
%TO.N,/GP20*%
X49566700Y-39006700D02*
X49566700Y-62073300D01*
X49566700Y-62073300D02*
X48640000Y-63000000D01*
X48390000Y-37830000D02*
X49566700Y-39006700D01*
%TO.N,/GP21*%
X51180000Y-63000000D02*
X51180000Y-38080000D01*
X51180000Y-38080000D02*
X48390000Y-35290000D01*
%TO.N,/GP22*%
X48390000Y-30210000D02*
X53720000Y-35540000D01*
X53720000Y-35540000D02*
X53720000Y-63000000D01*
%TO.N,/GP26*%
X56260000Y-63000000D02*
X55149300Y-61889300D01*
X48390000Y-25887300D02*
X48390000Y-25130000D01*
X55149300Y-61889300D02*
X55149300Y-32646600D01*
X55149300Y-32646600D02*
X48390000Y-25887300D01*
%TO.N,/GP27*%
X56260000Y-60460000D02*
X56260000Y-33000000D01*
X49754800Y-23954800D02*
X48390000Y-22590000D01*
X49754800Y-26494800D02*
X49754800Y-23954800D01*
X56260000Y-33000000D02*
X49754800Y-26494800D01*
X58800000Y-63000000D02*
X56260000Y-60460000D01*
%TO.N,/GP28*%
X55872200Y-24992200D02*
X48390000Y-17510000D01*
X55872200Y-30549000D02*
X55872200Y-24992200D01*
X58201800Y-59861800D02*
X58201800Y-32878600D01*
X61340000Y-63000000D02*
X58201800Y-59861800D01*
X58201800Y-32878600D02*
X55872200Y-30549000D01*
%TO.N,/U1_NSLEEP*%
X8210700Y-51229600D02*
X10229500Y-51229600D01*
X10229500Y-51229600D02*
X10727100Y-50732000D01*
X47185500Y-33934900D02*
X47185500Y-16171600D01*
X47024400Y-34096000D02*
X47185500Y-33934900D01*
X7038500Y-50057400D02*
X8210700Y-51229600D01*
%TD*%
%TA.AperFunction,Conductor*%
%TO.N,GND*%
G36*
X17944799Y-39377869D02*
G01*
X17988064Y-39421134D01*
X17997635Y-39481566D01*
X17996575Y-39486555D01*
X17996300Y-39488648D01*
X17996300Y-45939886D01*
X17977393Y-45998077D01*
X17927893Y-46034041D01*
X17871678Y-46035513D01*
X17801151Y-46016616D01*
X17759292Y-46005400D01*
X17627508Y-46005400D01*
X17563861Y-46022454D01*
X17500212Y-46039508D01*
X17410962Y-46091037D01*
X17361463Y-46104300D01*
X16274147Y-46104300D01*
X16212676Y-46120771D01*
X16191362Y-46126482D01*
X16117138Y-46169335D01*
X15685731Y-46600742D01*
X15642883Y-46674957D01*
X15636417Y-46699084D01*
X15636418Y-46699085D01*
X15636418Y-46699086D01*
X15620700Y-46757747D01*
X15620700Y-49615447D01*
X15620700Y-49701153D01*
X15640262Y-49774163D01*
X15642883Y-49783943D01*
X15685731Y-49858157D01*
X15685733Y-49858159D01*
X15685735Y-49858162D01*
X16459805Y-50632232D01*
X16487581Y-50686747D01*
X16488800Y-50702234D01*
X16488800Y-50767292D01*
X16507128Y-50835693D01*
X16522909Y-50894590D01*
X16588796Y-51008709D01*
X16588798Y-51008711D01*
X16588800Y-51008714D01*
X16681986Y-51101900D01*
X16681988Y-51101901D01*
X16681990Y-51101903D01*
X16796110Y-51167790D01*
X16796108Y-51167790D01*
X16796112Y-51167791D01*
X16796114Y-51167792D01*
X16923408Y-51201900D01*
X16923410Y-51201900D01*
X17055190Y-51201900D01*
X17055192Y-51201900D01*
X17175278Y-51169723D01*
X17236379Y-51172926D01*
X17283928Y-51211431D01*
X17299900Y-51265350D01*
X17299900Y-54693578D01*
X17280993Y-54751769D01*
X17270904Y-54763581D01*
X17224900Y-54809584D01*
X17224896Y-54809590D01*
X17159009Y-54923709D01*
X17152043Y-54949709D01*
X17124900Y-55051008D01*
X17124900Y-55182792D01*
X17148566Y-55271114D01*
X17159009Y-55310090D01*
X17224896Y-55424209D01*
X17224898Y-55424211D01*
X17224900Y-55424214D01*
X17318086Y-55517400D01*
X17318088Y-55517401D01*
X17318090Y-55517403D01*
X17432210Y-55583290D01*
X17432208Y-55583290D01*
X17432212Y-55583291D01*
X17432214Y-55583292D01*
X17559508Y-55617400D01*
X17559510Y-55617400D01*
X17691290Y-55617400D01*
X17691292Y-55617400D01*
X17818586Y-55583292D01*
X17818588Y-55583290D01*
X17818590Y-55583290D01*
X17847800Y-55566426D01*
X17907648Y-55553704D01*
X17963544Y-55578590D01*
X17994137Y-55631578D01*
X17996300Y-55652162D01*
X17996300Y-61400500D01*
X17977393Y-61458691D01*
X17927893Y-61494655D01*
X17897300Y-61499500D01*
X17805684Y-61499500D01*
X17789398Y-61501644D01*
X17756825Y-61505932D01*
X17756824Y-61505932D01*
X17649598Y-61555933D01*
X17565933Y-61639598D01*
X17515932Y-61746824D01*
X17515932Y-61746825D01*
X17515932Y-61746827D01*
X17509500Y-61795684D01*
X17509500Y-64204316D01*
X17513788Y-64236887D01*
X17515932Y-64253174D01*
X17515932Y-64253175D01*
X17565122Y-64358661D01*
X17572579Y-64419390D01*
X17542916Y-64472904D01*
X17487463Y-64498762D01*
X17475398Y-64499500D01*
X13764602Y-64499500D01*
X13706411Y-64480593D01*
X13670447Y-64431093D01*
X13670447Y-64369907D01*
X13674878Y-64358661D01*
X13724067Y-64253175D01*
X13724068Y-64253173D01*
X13730500Y-64204316D01*
X13730500Y-61795684D01*
X13724068Y-61746827D01*
X13720805Y-61739830D01*
X13674066Y-61639598D01*
X13674065Y-61639597D01*
X13674065Y-61639596D01*
X13590404Y-61555935D01*
X13590402Y-61555934D01*
X13590401Y-61555933D01*
X13483175Y-61505932D01*
X13450601Y-61501644D01*
X13434316Y-61499500D01*
X12725684Y-61499500D01*
X12709398Y-61501644D01*
X12676825Y-61505932D01*
X12676824Y-61505932D01*
X12569598Y-61555933D01*
X12485933Y-61639598D01*
X12435932Y-61746824D01*
X12435932Y-61746825D01*
X12435932Y-61746827D01*
X12430291Y-61789680D01*
X12429500Y-61795685D01*
X12429500Y-62575500D01*
X12410593Y-62633691D01*
X12361093Y-62669655D01*
X12330500Y-62674500D01*
X12285300Y-62674500D01*
X12227109Y-62655593D01*
X12191145Y-62606093D01*
X12186300Y-62575500D01*
X12186300Y-54223321D01*
X12205207Y-54165130D01*
X12215290Y-54153323D01*
X12261300Y-54107314D01*
X12327192Y-53993186D01*
X12361300Y-53865892D01*
X12361300Y-53800834D01*
X12380207Y-53742643D01*
X12390290Y-53730836D01*
X14015965Y-52105162D01*
X14058817Y-52030939D01*
X14058818Y-52030938D01*
X14081000Y-51948153D01*
X14081000Y-46363821D01*
X14099907Y-46305630D01*
X14109990Y-46293823D01*
X14156000Y-46247814D01*
X14183317Y-46200500D01*
X14221890Y-46133690D01*
X14221890Y-46133688D01*
X14221892Y-46133686D01*
X14256000Y-46006392D01*
X14256000Y-45874608D01*
X14221892Y-45747314D01*
X14221890Y-45747311D01*
X14221890Y-45747309D01*
X14156003Y-45633190D01*
X14156001Y-45633188D01*
X14156000Y-45633186D01*
X14062814Y-45540000D01*
X14062811Y-45539998D01*
X14062809Y-45539996D01*
X13948689Y-45474109D01*
X13948691Y-45474109D01*
X13899299Y-45460875D01*
X13821392Y-45440000D01*
X13689608Y-45440000D01*
X13611700Y-45460875D01*
X13562309Y-45474109D01*
X13448190Y-45539996D01*
X13448189Y-45539997D01*
X13448186Y-45539999D01*
X13448186Y-45540000D01*
X13418401Y-45569784D01*
X13363887Y-45597560D01*
X13303455Y-45587989D01*
X13260190Y-45544724D01*
X13249400Y-45499779D01*
X13249400Y-42357221D01*
X13268307Y-42299030D01*
X13278390Y-42287223D01*
X13324400Y-42241214D01*
X13335239Y-42222440D01*
X13390290Y-42127090D01*
X13390290Y-42127088D01*
X13390292Y-42127086D01*
X13424400Y-41999792D01*
X13424400Y-41868008D01*
X13390292Y-41740714D01*
X13390290Y-41740711D01*
X13390290Y-41740709D01*
X13324403Y-41626590D01*
X13324401Y-41626588D01*
X13324400Y-41626586D01*
X13231214Y-41533400D01*
X13231211Y-41533398D01*
X13231209Y-41533396D01*
X13117089Y-41467509D01*
X13117091Y-41467509D01*
X13067699Y-41454275D01*
X12989792Y-41433400D01*
X12858008Y-41433400D01*
X12780100Y-41454275D01*
X12730709Y-41467509D01*
X12616590Y-41533396D01*
X12523396Y-41626590D01*
X12457509Y-41740709D01*
X12457508Y-41740714D01*
X12423400Y-41868008D01*
X12423400Y-41999792D01*
X12430572Y-42026557D01*
X12457509Y-42127090D01*
X12523396Y-42241209D01*
X12523398Y-42241211D01*
X12523400Y-42241214D01*
X12569405Y-42287219D01*
X12597181Y-42341734D01*
X12598400Y-42357221D01*
X12598400Y-46600765D01*
X12579493Y-46658956D01*
X12569404Y-46670769D01*
X9031997Y-50208175D01*
X8977480Y-50235952D01*
X8917048Y-50226381D01*
X8891991Y-50208176D01*
X8878215Y-50194401D01*
X8878209Y-50194396D01*
X8764089Y-50128509D01*
X8764091Y-50128509D01*
X8714699Y-50115275D01*
X8636792Y-50094400D01*
X8505008Y-50094400D01*
X8427100Y-50115275D01*
X8377709Y-50128509D01*
X8263590Y-50194396D01*
X8170396Y-50287590D01*
X8104509Y-50401710D01*
X8104508Y-50401713D01*
X8093654Y-50442218D01*
X8060329Y-50493532D01*
X8003207Y-50515457D01*
X7944107Y-50499620D01*
X7928024Y-50486597D01*
X7567996Y-50126569D01*
X7540219Y-50072052D01*
X7539000Y-50056565D01*
X7539000Y-49991509D01*
X7539000Y-49991508D01*
X7504892Y-49864214D01*
X7504890Y-49864211D01*
X7504890Y-49864209D01*
X7439003Y-49750090D01*
X7439001Y-49750088D01*
X7439000Y-49750086D01*
X7345814Y-49656900D01*
X7345811Y-49656898D01*
X7345809Y-49656896D01*
X7231689Y-49591009D01*
X7231691Y-49591009D01*
X7182299Y-49577775D01*
X7104392Y-49556900D01*
X6972608Y-49556900D01*
X6894700Y-49577775D01*
X6845309Y-49591009D01*
X6731190Y-49656896D01*
X6637996Y-49750090D01*
X6572109Y-49864209D01*
X6572108Y-49864214D01*
X6538000Y-49991508D01*
X6538000Y-50123292D01*
X6564872Y-50223580D01*
X6572109Y-50250590D01*
X6637996Y-50364709D01*
X6637998Y-50364711D01*
X6638000Y-50364714D01*
X6731186Y-50457900D01*
X6731188Y-50457901D01*
X6731190Y-50457903D01*
X6845310Y-50523790D01*
X6845308Y-50523790D01*
X6845312Y-50523791D01*
X6845314Y-50523792D01*
X6972608Y-50557900D01*
X7037665Y-50557900D01*
X7095856Y-50576807D01*
X7107669Y-50586896D01*
X8010838Y-51490065D01*
X8010840Y-51490066D01*
X8010841Y-51490067D01*
X8010842Y-51490068D01*
X8085057Y-51532916D01*
X8085055Y-51532916D01*
X8085059Y-51532917D01*
X8085061Y-51532918D01*
X8167847Y-51555100D01*
X8167849Y-51555100D01*
X10272351Y-51555100D01*
X10272353Y-51555100D01*
X10355139Y-51532918D01*
X10355141Y-51532916D01*
X10355143Y-51532916D01*
X10429357Y-51490068D01*
X10429357Y-51490067D01*
X10429362Y-51490065D01*
X10573450Y-51345977D01*
X10657932Y-51261496D01*
X10712448Y-51233719D01*
X10727935Y-51232500D01*
X10792990Y-51232500D01*
X10792992Y-51232500D01*
X10920286Y-51198392D01*
X10920288Y-51198390D01*
X10920290Y-51198390D01*
X11034409Y-51132503D01*
X11034409Y-51132502D01*
X11034414Y-51132500D01*
X11127600Y-51039314D01*
X11145270Y-51008709D01*
X11193490Y-50925190D01*
X11193490Y-50925188D01*
X11193492Y-50925186D01*
X11227600Y-50797892D01*
X11227600Y-50666108D01*
X11193492Y-50538814D01*
X11193490Y-50538811D01*
X11193490Y-50538809D01*
X11127603Y-50424690D01*
X11127601Y-50424688D01*
X11127600Y-50424686D01*
X11034414Y-50331500D01*
X11034411Y-50331498D01*
X11034409Y-50331496D01*
X10920289Y-50265609D01*
X10920291Y-50265609D01*
X10870899Y-50252375D01*
X10792992Y-50231500D01*
X10661208Y-50231500D01*
X10583300Y-50252375D01*
X10533909Y-50265609D01*
X10419790Y-50331496D01*
X10326596Y-50424690D01*
X10260709Y-50538809D01*
X10241639Y-50609978D01*
X10235678Y-50632230D01*
X10226600Y-50666109D01*
X10226600Y-50731165D01*
X10207693Y-50789356D01*
X10197604Y-50801169D01*
X10123669Y-50875104D01*
X10069152Y-50902881D01*
X10053665Y-50904100D01*
X9495734Y-50904100D01*
X9437543Y-50885193D01*
X9401579Y-50835693D01*
X9401579Y-50774507D01*
X9425728Y-50735098D01*
X13123759Y-47037066D01*
X13123762Y-47037065D01*
X13184365Y-46976462D01*
X13227218Y-46902238D01*
X13235374Y-46871799D01*
X13268698Y-46820487D01*
X13325819Y-46798561D01*
X13384920Y-46814397D01*
X13423425Y-46861947D01*
X13430000Y-46897425D01*
X13430000Y-51729465D01*
X13411093Y-51787656D01*
X13401004Y-51799469D01*
X11929969Y-53270504D01*
X11875452Y-53298281D01*
X11859965Y-53299500D01*
X11794908Y-53299500D01*
X11717000Y-53320375D01*
X11667609Y-53333609D01*
X11553490Y-53399496D01*
X11460296Y-53492690D01*
X11394409Y-53606809D01*
X11394408Y-53606814D01*
X11360300Y-53734108D01*
X11360300Y-53865892D01*
X11390379Y-53978151D01*
X11394409Y-53993190D01*
X11460296Y-54107309D01*
X11460298Y-54107311D01*
X11460300Y-54107314D01*
X11506305Y-54153319D01*
X11534081Y-54207834D01*
X11535300Y-54223321D01*
X11535300Y-62575500D01*
X11516393Y-62633691D01*
X11466893Y-62669655D01*
X11436300Y-62674500D01*
X11289500Y-62674500D01*
X11231309Y-62655593D01*
X11195345Y-62606093D01*
X11190500Y-62575500D01*
X11190500Y-61795685D01*
X11190500Y-61795684D01*
X11184068Y-61746827D01*
X11180805Y-61739830D01*
X11134066Y-61639598D01*
X11134065Y-61639597D01*
X11134065Y-61639596D01*
X11050404Y-61555935D01*
X11050402Y-61555934D01*
X11050401Y-61555933D01*
X10943175Y-61505932D01*
X10910601Y-61501644D01*
X10894316Y-61499500D01*
X10185684Y-61499500D01*
X10169398Y-61501644D01*
X10136825Y-61505932D01*
X10136824Y-61505932D01*
X10029598Y-61555933D01*
X9945933Y-61639598D01*
X9895932Y-61746824D01*
X9895932Y-61746825D01*
X9895932Y-61746827D01*
X9889500Y-61795684D01*
X9889500Y-64204316D01*
X9893788Y-64236887D01*
X9895932Y-64253174D01*
X9895932Y-64253175D01*
X9945122Y-64358661D01*
X9952579Y-64419390D01*
X9922916Y-64472904D01*
X9867463Y-64498762D01*
X9855398Y-64499500D01*
X3002985Y-64499500D01*
X2997008Y-64499319D01*
X2973822Y-64497916D01*
X2704694Y-64481637D01*
X2692827Y-64480196D01*
X2407721Y-64427948D01*
X2396113Y-64425087D01*
X2119384Y-64338855D01*
X2108206Y-64334616D01*
X1843880Y-64215652D01*
X1833295Y-64210096D01*
X1672942Y-64113160D01*
X1585245Y-64060145D01*
X1575413Y-64053358D01*
X1347243Y-63874599D01*
X1338295Y-63866673D01*
X1133326Y-63661704D01*
X1125399Y-63652755D01*
X946638Y-63424583D01*
X939856Y-63414758D01*
X789902Y-63166703D01*
X784347Y-63156119D01*
X665383Y-62891793D01*
X661147Y-62880623D01*
X574911Y-62603883D01*
X572051Y-62592278D01*
X572051Y-62592277D01*
X519802Y-62307165D01*
X518362Y-62295304D01*
X513972Y-62222731D01*
X500681Y-62002992D01*
X500500Y-61997015D01*
X500500Y-60878710D01*
X2149500Y-60878710D01*
X2149500Y-61121289D01*
X2181161Y-61361781D01*
X2181161Y-61361786D01*
X2243944Y-61596092D01*
X2243948Y-61596105D01*
X2336772Y-61820204D01*
X2336774Y-61820208D01*
X2336776Y-61820212D01*
X2458064Y-62030289D01*
X2458066Y-62030292D01*
X2605729Y-62222731D01*
X2605731Y-62222733D01*
X2605735Y-62222738D01*
X2777262Y-62394265D01*
X2777266Y-62394268D01*
X2777268Y-62394270D01*
X2933630Y-62514250D01*
X2969711Y-62541936D01*
X3179788Y-62663224D01*
X3403900Y-62756054D01*
X3638211Y-62818838D01*
X3878712Y-62850500D01*
X3878713Y-62850500D01*
X4121287Y-62850500D01*
X4121288Y-62850500D01*
X4361789Y-62818838D01*
X4596100Y-62756054D01*
X4820212Y-62663224D01*
X5030289Y-62541936D01*
X5222738Y-62394265D01*
X5394265Y-62222738D01*
X5541936Y-62030289D01*
X5663224Y-61820212D01*
X5756054Y-61596100D01*
X5818838Y-61361789D01*
X5850500Y-61121288D01*
X5850500Y-60878712D01*
X5818838Y-60638211D01*
X5756054Y-60403900D01*
X5663224Y-60179788D01*
X5541936Y-59969711D01*
X5541933Y-59969707D01*
X5394270Y-59777268D01*
X5394268Y-59777266D01*
X5394265Y-59777262D01*
X5222738Y-59605735D01*
X5222733Y-59605731D01*
X5222731Y-59605729D01*
X5030292Y-59458066D01*
X5030289Y-59458064D01*
X4820212Y-59336776D01*
X4820208Y-59336774D01*
X4820204Y-59336772D01*
X4596105Y-59243948D01*
X4596104Y-59243947D01*
X4596100Y-59243946D01*
X4361789Y-59181162D01*
X4361786Y-59181161D01*
X4361784Y-59181161D01*
X4121289Y-59149500D01*
X4121288Y-59149500D01*
X3878712Y-59149500D01*
X3878710Y-59149500D01*
X3638218Y-59181161D01*
X3638213Y-59181161D01*
X3403907Y-59243944D01*
X3403894Y-59243948D01*
X3179795Y-59336772D01*
X2969707Y-59458066D01*
X2777268Y-59605729D01*
X2605729Y-59777268D01*
X2458066Y-59969707D01*
X2336772Y-60179795D01*
X2243948Y-60403894D01*
X2243944Y-60403907D01*
X2181161Y-60638213D01*
X2181161Y-60638218D01*
X2149500Y-60878710D01*
X500500Y-60878710D01*
X500500Y-44054361D01*
X519407Y-43996170D01*
X568907Y-43960206D01*
X630093Y-43960206D01*
X679593Y-43996170D01*
X681807Y-43999347D01*
X732786Y-44075643D01*
X1416705Y-44759562D01*
X1444481Y-44814077D01*
X1445700Y-44829564D01*
X1445700Y-52574296D01*
X1472620Y-52709627D01*
X1472620Y-52709629D01*
X1525423Y-52837108D01*
X1525424Y-52837110D01*
X1525425Y-52837111D01*
X1602086Y-52951843D01*
X3921357Y-55271114D01*
X4036089Y-55347775D01*
X4036090Y-55347775D01*
X4036091Y-55347776D01*
X4064969Y-55359737D01*
X4163571Y-55400580D01*
X4298906Y-55427499D01*
X4298908Y-55427499D01*
X4436893Y-55427499D01*
X4436894Y-55427499D01*
X4572228Y-55400580D01*
X4699711Y-55347775D01*
X4814443Y-55271114D01*
X4912014Y-55173543D01*
X4988675Y-55058811D01*
X5041480Y-54931328D01*
X5068399Y-54795994D01*
X5068399Y-54658006D01*
X5041480Y-54522671D01*
X4988675Y-54395189D01*
X4912014Y-54280457D01*
X2875696Y-52244139D01*
X2847919Y-52189622D01*
X2846700Y-52174135D01*
X2846700Y-48334108D01*
X3199500Y-48334108D01*
X3199500Y-48465892D01*
X3224648Y-48559746D01*
X3233609Y-48593190D01*
X3299496Y-48707309D01*
X3299498Y-48707311D01*
X3299500Y-48707314D01*
X3392686Y-48800500D01*
X3392688Y-48800501D01*
X3392690Y-48800503D01*
X3506810Y-48866390D01*
X3506808Y-48866390D01*
X3506812Y-48866391D01*
X3506814Y-48866392D01*
X3634108Y-48900500D01*
X3634110Y-48900500D01*
X3765890Y-48900500D01*
X3765892Y-48900500D01*
X3893186Y-48866392D01*
X3893188Y-48866390D01*
X3893190Y-48866390D01*
X4007309Y-48800503D01*
X4007310Y-48800502D01*
X4007314Y-48800500D01*
X4023846Y-48783968D01*
X4053319Y-48754496D01*
X4107836Y-48726719D01*
X4123322Y-48725500D01*
X5476678Y-48725500D01*
X5534869Y-48744407D01*
X5546681Y-48754496D01*
X5592684Y-48800499D01*
X5592690Y-48800503D01*
X5706810Y-48866390D01*
X5706808Y-48866390D01*
X5706812Y-48866391D01*
X5706814Y-48866392D01*
X5834108Y-48900500D01*
X5834110Y-48900500D01*
X5965890Y-48900500D01*
X5965892Y-48900500D01*
X6093186Y-48866392D01*
X6093188Y-48866390D01*
X6093190Y-48866390D01*
X6207309Y-48800503D01*
X6207309Y-48800502D01*
X6207314Y-48800500D01*
X6300500Y-48707314D01*
X6327368Y-48660777D01*
X6366390Y-48593190D01*
X6366390Y-48593188D01*
X6366392Y-48593186D01*
X6400500Y-48465892D01*
X6400500Y-48334108D01*
X6366392Y-48206814D01*
X6366390Y-48206811D01*
X6366390Y-48206809D01*
X6300503Y-48092690D01*
X6300501Y-48092688D01*
X6300500Y-48092686D01*
X6207314Y-47999500D01*
X6207311Y-47999498D01*
X6207309Y-47999496D01*
X6093189Y-47933609D01*
X6093191Y-47933609D01*
X6043799Y-47920375D01*
X5965892Y-47899500D01*
X5834108Y-47899500D01*
X5756200Y-47920375D01*
X5706809Y-47933609D01*
X5592690Y-47999496D01*
X5592684Y-47999500D01*
X5546681Y-48045504D01*
X5492164Y-48073281D01*
X5476678Y-48074500D01*
X4123322Y-48074500D01*
X4065131Y-48055593D01*
X4053319Y-48045504D01*
X4007315Y-47999500D01*
X4007309Y-47999496D01*
X3893189Y-47933609D01*
X3893191Y-47933609D01*
X3843799Y-47920375D01*
X3765892Y-47899500D01*
X3634108Y-47899500D01*
X3556200Y-47920375D01*
X3506809Y-47933609D01*
X3392690Y-47999496D01*
X3299496Y-48092690D01*
X3233609Y-48206809D01*
X3223556Y-48244328D01*
X3199500Y-48334108D01*
X2846700Y-48334108D01*
X2846700Y-45297900D01*
X2865607Y-45239709D01*
X2915107Y-45203745D01*
X2945700Y-45198900D01*
X7147893Y-45198900D01*
X7147894Y-45198900D01*
X7283228Y-45171980D01*
X7410711Y-45119175D01*
X7525443Y-45042514D01*
X8065905Y-44502050D01*
X8120420Y-44474275D01*
X8180852Y-44483846D01*
X8224117Y-44527111D01*
X8233688Y-44587543D01*
X8221644Y-44621555D01*
X8193581Y-44670160D01*
X8193582Y-44670161D01*
X8171400Y-44752947D01*
X8171400Y-46235878D01*
X8152493Y-46294069D01*
X8142404Y-46305881D01*
X8096400Y-46351884D01*
X8096396Y-46351890D01*
X8030509Y-46466009D01*
X8030508Y-46466014D01*
X7996400Y-46593308D01*
X7996400Y-46725092D01*
X8020012Y-46813214D01*
X8030509Y-46852390D01*
X8096396Y-46966509D01*
X8096398Y-46966511D01*
X8096400Y-46966514D01*
X8189586Y-47059700D01*
X8189588Y-47059701D01*
X8189590Y-47059703D01*
X8303710Y-47125590D01*
X8303708Y-47125590D01*
X8303712Y-47125591D01*
X8303714Y-47125592D01*
X8431008Y-47159700D01*
X8431010Y-47159700D01*
X8562790Y-47159700D01*
X8562792Y-47159700D01*
X8690086Y-47125592D01*
X8690088Y-47125590D01*
X8690090Y-47125590D01*
X8804209Y-47059703D01*
X8804209Y-47059702D01*
X8804214Y-47059700D01*
X8897400Y-46966514D01*
X8937289Y-46897425D01*
X8963290Y-46852390D01*
X8963290Y-46852388D01*
X8963292Y-46852386D01*
X8997400Y-46725092D01*
X8997400Y-46593308D01*
X8963292Y-46466014D01*
X8963290Y-46466011D01*
X8963290Y-46466009D01*
X8897403Y-46351890D01*
X8897399Y-46351884D01*
X8851396Y-46305881D01*
X8823619Y-46251364D01*
X8822400Y-46235878D01*
X8822400Y-44971635D01*
X8841307Y-44913444D01*
X8851396Y-44901631D01*
X12831531Y-40921496D01*
X12886048Y-40893719D01*
X12901535Y-40892500D01*
X16241451Y-40892500D01*
X16241453Y-40892500D01*
X16324239Y-40870318D01*
X16324241Y-40870316D01*
X16324243Y-40870316D01*
X16398457Y-40827468D01*
X16398457Y-40827467D01*
X16398462Y-40827465D01*
X17829853Y-39396073D01*
X17884367Y-39368298D01*
X17944799Y-39377869D01*
G37*
%TD.AperFunction*%
%TA.AperFunction,Conductor*%
G36*
X31771776Y-22842929D02*
G01*
X31800907Y-22874649D01*
X31807700Y-22886414D01*
X31900886Y-22979600D01*
X31900888Y-22979601D01*
X31900890Y-22979603D01*
X32015010Y-23045490D01*
X32015008Y-23045490D01*
X32015012Y-23045491D01*
X32015014Y-23045492D01*
X32142308Y-23079600D01*
X32142310Y-23079600D01*
X32274090Y-23079600D01*
X32274092Y-23079600D01*
X32401386Y-23045492D01*
X32450999Y-23016847D01*
X32510846Y-23004126D01*
X32566742Y-23029012D01*
X32597335Y-23082000D01*
X32599499Y-23102584D01*
X32599499Y-29368995D01*
X32626419Y-29504327D01*
X32626419Y-29504329D01*
X32679221Y-29631806D01*
X32679227Y-29631817D01*
X32755884Y-29746541D01*
X32853457Y-29844114D01*
X32968181Y-29920771D01*
X32968192Y-29920777D01*
X33015282Y-29940282D01*
X33095671Y-29973580D01*
X33231006Y-30000500D01*
X38680500Y-30000500D01*
X38738691Y-30019407D01*
X38774655Y-30068907D01*
X38779500Y-30099500D01*
X38779500Y-46651396D01*
X38794159Y-46725090D01*
X38803929Y-46774207D01*
X38806420Y-46786727D01*
X38806420Y-46786729D01*
X38859223Y-46914208D01*
X38910271Y-46990608D01*
X38935886Y-47028943D01*
X47178057Y-55271114D01*
X47292789Y-55347775D01*
X47292790Y-55347775D01*
X47292791Y-55347776D01*
X47321670Y-55359738D01*
X47420272Y-55400580D01*
X47555606Y-55427500D01*
X47555607Y-55427500D01*
X47693593Y-55427500D01*
X47693594Y-55427500D01*
X47828929Y-55400580D01*
X47956411Y-55347775D01*
X47983800Y-55329473D01*
X48042685Y-55312866D01*
X48100089Y-55334043D01*
X48134083Y-55384916D01*
X48137800Y-55411790D01*
X48137800Y-56061665D01*
X48118893Y-56119856D01*
X48108804Y-56131669D01*
X44716269Y-59524204D01*
X44661752Y-59551981D01*
X44646265Y-59553200D01*
X44184153Y-59553200D01*
X44098447Y-59553200D01*
X44025436Y-59572762D01*
X44015657Y-59575383D01*
X43978550Y-59596808D01*
X43955021Y-59610392D01*
X43941437Y-59618235D01*
X43880834Y-59678837D01*
X43880835Y-59678838D01*
X43880833Y-59678840D01*
X41811357Y-61748315D01*
X41756840Y-61776092D01*
X41696408Y-61766521D01*
X41653143Y-61723256D01*
X41651629Y-61720151D01*
X41614066Y-61639598D01*
X41614065Y-61639597D01*
X41614065Y-61639596D01*
X41530404Y-61555935D01*
X41530402Y-61555934D01*
X41530401Y-61555933D01*
X41423175Y-61505932D01*
X41390601Y-61501644D01*
X41374316Y-61499500D01*
X40665684Y-61499500D01*
X40649398Y-61501644D01*
X40616825Y-61505932D01*
X40616824Y-61505932D01*
X40509598Y-61555933D01*
X40425933Y-61639598D01*
X40375932Y-61746824D01*
X40375932Y-61746825D01*
X40375932Y-61746827D01*
X40369500Y-61795684D01*
X40369500Y-64204316D01*
X40373788Y-64236887D01*
X40375932Y-64253174D01*
X40375932Y-64253175D01*
X40425122Y-64358661D01*
X40432579Y-64419390D01*
X40402916Y-64472904D01*
X40347463Y-64498762D01*
X40335398Y-64499500D01*
X39164602Y-64499500D01*
X39106411Y-64480593D01*
X39070447Y-64431093D01*
X39070447Y-64369907D01*
X39074878Y-64358661D01*
X39124067Y-64253175D01*
X39124068Y-64253173D01*
X39130500Y-64204316D01*
X39130500Y-61795684D01*
X39124068Y-61746827D01*
X39120805Y-61739830D01*
X39074066Y-61639598D01*
X39074065Y-61639597D01*
X39074065Y-61639596D01*
X38990404Y-61555935D01*
X38990402Y-61555934D01*
X38990401Y-61555933D01*
X38883176Y-61505933D01*
X38876797Y-61504074D01*
X38826222Y-61469639D01*
X38805546Y-61412053D01*
X38805500Y-61409029D01*
X38805500Y-55285635D01*
X38824407Y-55227444D01*
X38834496Y-55215631D01*
X38878231Y-55171896D01*
X38932748Y-55144119D01*
X38948235Y-55142900D01*
X39013290Y-55142900D01*
X39013292Y-55142900D01*
X39140586Y-55108792D01*
X39140588Y-55108790D01*
X39140590Y-55108790D01*
X39254709Y-55042903D01*
X39254709Y-55042902D01*
X39254714Y-55042900D01*
X39347900Y-54949714D01*
X39362914Y-54923709D01*
X39413790Y-54835590D01*
X39413790Y-54835588D01*
X39413792Y-54835586D01*
X39447900Y-54708292D01*
X39447900Y-54576508D01*
X39413792Y-54449214D01*
X39413790Y-54449211D01*
X39413790Y-54449209D01*
X39347903Y-54335090D01*
X39347901Y-54335088D01*
X39347900Y-54335086D01*
X39254714Y-54241900D01*
X39254711Y-54241898D01*
X39254709Y-54241896D01*
X39140589Y-54176009D01*
X39140591Y-54176009D01*
X39091199Y-54162775D01*
X39013292Y-54141900D01*
X38881508Y-54141900D01*
X38803600Y-54162775D01*
X38754209Y-54176009D01*
X38640090Y-54241896D01*
X38546896Y-54335090D01*
X38481009Y-54449209D01*
X38446900Y-54576509D01*
X38446900Y-54641565D01*
X38427993Y-54699756D01*
X38417904Y-54711568D01*
X38219535Y-54909937D01*
X38219531Y-54909942D01*
X38176682Y-54984160D01*
X38176681Y-54984160D01*
X38176682Y-54984161D01*
X38154500Y-55066947D01*
X38154500Y-61409029D01*
X38135593Y-61467220D01*
X38086093Y-61503184D01*
X38083203Y-61504074D01*
X38076823Y-61505933D01*
X37969598Y-61555933D01*
X37885933Y-61639598D01*
X37835932Y-61746824D01*
X37835932Y-61746825D01*
X37835932Y-61746827D01*
X37829500Y-61795684D01*
X37829500Y-64204316D01*
X37833788Y-64236887D01*
X37835932Y-64253174D01*
X37835932Y-64253175D01*
X37885122Y-64358661D01*
X37892579Y-64419390D01*
X37862916Y-64472904D01*
X37807463Y-64498762D01*
X37795398Y-64499500D01*
X36624602Y-64499500D01*
X36566411Y-64480593D01*
X36530447Y-64431093D01*
X36530447Y-64369907D01*
X36534878Y-64358661D01*
X36584067Y-64253175D01*
X36584068Y-64253173D01*
X36590500Y-64204316D01*
X36590500Y-61795684D01*
X36584068Y-61746827D01*
X36580805Y-61739830D01*
X36534066Y-61639598D01*
X36534065Y-61639597D01*
X36534065Y-61639596D01*
X36450404Y-61555935D01*
X36450402Y-61555934D01*
X36450401Y-61555933D01*
X36343175Y-61505932D01*
X36310601Y-61501644D01*
X36294316Y-61499500D01*
X35585684Y-61499500D01*
X35569398Y-61501644D01*
X35536825Y-61505932D01*
X35536824Y-61505932D01*
X35429598Y-61555933D01*
X35345933Y-61639598D01*
X35308370Y-61720151D01*
X35266641Y-61764899D01*
X35206580Y-61776573D01*
X35151127Y-61750714D01*
X35148642Y-61748315D01*
X30964496Y-57564169D01*
X30936719Y-57509652D01*
X30935500Y-57494165D01*
X30935500Y-51598375D01*
X30954407Y-51540184D01*
X30996613Y-51506911D01*
X31107598Y-51460941D01*
X31279655Y-51345977D01*
X31425977Y-51199655D01*
X31540941Y-51027598D01*
X31620130Y-50836420D01*
X31660500Y-50633465D01*
X31660500Y-50426535D01*
X31620130Y-50223580D01*
X31540941Y-50032402D01*
X31425977Y-49860345D01*
X31279655Y-49714023D01*
X31107598Y-49599059D01*
X31107599Y-49599059D01*
X31107597Y-49599058D01*
X30916418Y-49519869D01*
X30713467Y-49479500D01*
X30713465Y-49479500D01*
X30506535Y-49479500D01*
X30506532Y-49479500D01*
X30303581Y-49519869D01*
X30112402Y-49599058D01*
X29940348Y-49714020D01*
X29940345Y-49714022D01*
X29940345Y-49714023D01*
X29825001Y-49829366D01*
X29770487Y-49857142D01*
X29710055Y-49847571D01*
X29666790Y-49804306D01*
X29656000Y-49759361D01*
X29656000Y-49445333D01*
X29674907Y-49387142D01*
X29684990Y-49375336D01*
X30084708Y-48975617D01*
X30139223Y-48947841D01*
X30192594Y-48954157D01*
X30303580Y-49000130D01*
X30506535Y-49040500D01*
X30506536Y-49040500D01*
X30713464Y-49040500D01*
X30713465Y-49040500D01*
X30916420Y-49000130D01*
X31107598Y-48920941D01*
X31279655Y-48805977D01*
X31425977Y-48659655D01*
X31540941Y-48487598D01*
X31620130Y-48296420D01*
X31660500Y-48093465D01*
X31660500Y-47886535D01*
X31620130Y-47683580D01*
X31540941Y-47492402D01*
X31425977Y-47320345D01*
X31279655Y-47174023D01*
X31207288Y-47125669D01*
X31107597Y-47059058D01*
X30916418Y-46979869D01*
X30713467Y-46939500D01*
X30713465Y-46939500D01*
X30506535Y-46939500D01*
X30506532Y-46939500D01*
X30303581Y-46979869D01*
X30112402Y-47059058D01*
X29940348Y-47174020D01*
X29794020Y-47320348D01*
X29679058Y-47492402D01*
X29599869Y-47683581D01*
X29559500Y-47886532D01*
X29559500Y-48093467D01*
X29599870Y-48296419D01*
X29599870Y-48296421D01*
X29645840Y-48407403D01*
X29650640Y-48468400D01*
X29624380Y-48515291D01*
X29355704Y-48783968D01*
X29301187Y-48811746D01*
X29240755Y-48802175D01*
X29197490Y-48758910D01*
X29186700Y-48713965D01*
X29186700Y-44834634D01*
X29205607Y-44776443D01*
X29215696Y-44764630D01*
X29566153Y-44414173D01*
X30084709Y-43895616D01*
X30139224Y-43867841D01*
X30192593Y-43874157D01*
X30303580Y-43920130D01*
X30506535Y-43960500D01*
X30506536Y-43960500D01*
X30713464Y-43960500D01*
X30713465Y-43960500D01*
X30916420Y-43920130D01*
X31107598Y-43840941D01*
X31279655Y-43725977D01*
X31425977Y-43579655D01*
X31540941Y-43407598D01*
X31620130Y-43216420D01*
X31660500Y-43013465D01*
X31660500Y-42806535D01*
X31620130Y-42603580D01*
X31540941Y-42412402D01*
X31425977Y-42240345D01*
X31279655Y-42094023D01*
X31178692Y-42026562D01*
X31107597Y-41979058D01*
X30916418Y-41899869D01*
X30713467Y-41859500D01*
X30713465Y-41859500D01*
X30506535Y-41859500D01*
X30506532Y-41859500D01*
X30303581Y-41899869D01*
X30112402Y-41979058D01*
X29940348Y-42094020D01*
X29794020Y-42240348D01*
X29679058Y-42412402D01*
X29599869Y-42603581D01*
X29559500Y-42806532D01*
X29559500Y-43013467D01*
X29576201Y-43097426D01*
X29591449Y-43174087D01*
X29599870Y-43216419D01*
X29599870Y-43216421D01*
X29645840Y-43327402D01*
X29650641Y-43388398D01*
X29624380Y-43435291D01*
X28814504Y-44245168D01*
X28759987Y-44272945D01*
X28699555Y-44263374D01*
X28656290Y-44220109D01*
X28645500Y-44175164D01*
X28645500Y-42835834D01*
X28664407Y-42777643D01*
X28674490Y-42765836D01*
X30084709Y-41355616D01*
X30139224Y-41327841D01*
X30192593Y-41334157D01*
X30303580Y-41380130D01*
X30506535Y-41420500D01*
X30506536Y-41420500D01*
X30713464Y-41420500D01*
X30713465Y-41420500D01*
X30916420Y-41380130D01*
X31107598Y-41300941D01*
X31279655Y-41185977D01*
X31425977Y-41039655D01*
X31540941Y-40867598D01*
X31620130Y-40676420D01*
X31660500Y-40473465D01*
X31660500Y-40266535D01*
X31620130Y-40063580D01*
X31540941Y-39872402D01*
X31425977Y-39700345D01*
X31279655Y-39554023D01*
X31278612Y-39553326D01*
X31107597Y-39439058D01*
X30916418Y-39359869D01*
X30713467Y-39319500D01*
X30713465Y-39319500D01*
X30506535Y-39319500D01*
X30506532Y-39319500D01*
X30303581Y-39359869D01*
X30112402Y-39439058D01*
X29940348Y-39554020D01*
X29794020Y-39700348D01*
X29679058Y-39872402D01*
X29599869Y-40063581D01*
X29559500Y-40266532D01*
X29559500Y-40473467D01*
X29599870Y-40676419D01*
X29599870Y-40676421D01*
X29645840Y-40787402D01*
X29650641Y-40848398D01*
X29624380Y-40895291D01*
X28059532Y-42460141D01*
X28059531Y-42460142D01*
X28016682Y-42534360D01*
X28016681Y-42534360D01*
X28016682Y-42534361D01*
X27994500Y-42617147D01*
X27994500Y-61409029D01*
X27975593Y-61467220D01*
X27926093Y-61503184D01*
X27923203Y-61504074D01*
X27916823Y-61505933D01*
X27809598Y-61555933D01*
X27725933Y-61639598D01*
X27675932Y-61746824D01*
X27675932Y-61746825D01*
X27675932Y-61746827D01*
X27669500Y-61795684D01*
X27669500Y-64204316D01*
X27673788Y-64236887D01*
X27675932Y-64253174D01*
X27675932Y-64253175D01*
X27725122Y-64358661D01*
X27732579Y-64419390D01*
X27702916Y-64472904D01*
X27647463Y-64498762D01*
X27635398Y-64499500D01*
X26464602Y-64499500D01*
X26406411Y-64480593D01*
X26370447Y-64431093D01*
X26370447Y-64369907D01*
X26374878Y-64358661D01*
X26424067Y-64253175D01*
X26424068Y-64253173D01*
X26430500Y-64204316D01*
X26430500Y-61795684D01*
X26424068Y-61746827D01*
X26420805Y-61739830D01*
X26374066Y-61639598D01*
X26374065Y-61639597D01*
X26374065Y-61639596D01*
X26290404Y-61555935D01*
X26290402Y-61555934D01*
X26290401Y-61555933D01*
X26183176Y-61505933D01*
X26176797Y-61504074D01*
X26126222Y-61469639D01*
X26105546Y-61412053D01*
X26105500Y-61409029D01*
X26105500Y-42835833D01*
X26124407Y-42777642D01*
X26134490Y-42765835D01*
X30084708Y-38815616D01*
X30139223Y-38787841D01*
X30192593Y-38794157D01*
X30303580Y-38840130D01*
X30506535Y-38880500D01*
X30506536Y-38880500D01*
X30713464Y-38880500D01*
X30713465Y-38880500D01*
X30916420Y-38840130D01*
X31107598Y-38760941D01*
X31279655Y-38645977D01*
X31425977Y-38499655D01*
X31540941Y-38327598D01*
X31620130Y-38136420D01*
X31660500Y-37933465D01*
X31660500Y-37726535D01*
X31620130Y-37523580D01*
X31540941Y-37332402D01*
X31425977Y-37160345D01*
X31279655Y-37014023D01*
X31107598Y-36899059D01*
X31107599Y-36899059D01*
X31107597Y-36899058D01*
X30916418Y-36819869D01*
X30713467Y-36779500D01*
X30713465Y-36779500D01*
X30506535Y-36779500D01*
X30506532Y-36779500D01*
X30303581Y-36819869D01*
X30112402Y-36899058D01*
X29940348Y-37014020D01*
X29794020Y-37160348D01*
X29679058Y-37332402D01*
X29599869Y-37523581D01*
X29559500Y-37726532D01*
X29559500Y-37933467D01*
X29580123Y-38037147D01*
X29599869Y-38136417D01*
X29599870Y-38136419D01*
X29599870Y-38136421D01*
X29645840Y-38247403D01*
X29650640Y-38308400D01*
X29624380Y-38355292D01*
X25519532Y-42460141D01*
X25519531Y-42460142D01*
X25476682Y-42534360D01*
X25476681Y-42534360D01*
X25476682Y-42534361D01*
X25454500Y-42617147D01*
X25454500Y-61409029D01*
X25435593Y-61467220D01*
X25386093Y-61503184D01*
X25383203Y-61504074D01*
X25376823Y-61505933D01*
X25269598Y-61555933D01*
X25185933Y-61639598D01*
X25135932Y-61746824D01*
X25135932Y-61746825D01*
X25135932Y-61746827D01*
X25129500Y-61795684D01*
X25129500Y-64204316D01*
X25133788Y-64236887D01*
X25135932Y-64253174D01*
X25135932Y-64253175D01*
X25185122Y-64358661D01*
X25192579Y-64419390D01*
X25162916Y-64472904D01*
X25107463Y-64498762D01*
X25095398Y-64499500D01*
X23924602Y-64499500D01*
X23866411Y-64480593D01*
X23830447Y-64431093D01*
X23830447Y-64369907D01*
X23834878Y-64358661D01*
X23884067Y-64253175D01*
X23884068Y-64253173D01*
X23890500Y-64204316D01*
X23890500Y-61795684D01*
X23884068Y-61746827D01*
X23880805Y-61739830D01*
X23834066Y-61639598D01*
X23834065Y-61639597D01*
X23834065Y-61639596D01*
X23750404Y-61555935D01*
X23750402Y-61555934D01*
X23750401Y-61555933D01*
X23643176Y-61505933D01*
X23636797Y-61504074D01*
X23586222Y-61469639D01*
X23565546Y-61412053D01*
X23565500Y-61409029D01*
X23565500Y-42835834D01*
X23584407Y-42777643D01*
X23594490Y-42765836D01*
X30084709Y-36275616D01*
X30139224Y-36247841D01*
X30192593Y-36254157D01*
X30303580Y-36300130D01*
X30506535Y-36340500D01*
X30506536Y-36340500D01*
X30713464Y-36340500D01*
X30713465Y-36340500D01*
X30916420Y-36300130D01*
X31107598Y-36220941D01*
X31279655Y-36105977D01*
X31425977Y-35959655D01*
X31540941Y-35787598D01*
X31620130Y-35596420D01*
X31660500Y-35393465D01*
X31660500Y-35186535D01*
X31620130Y-34983580D01*
X31540941Y-34792402D01*
X31449617Y-34655725D01*
X34959500Y-34655725D01*
X34959500Y-36864274D01*
X34962353Y-36894694D01*
X34962355Y-36894703D01*
X35007207Y-37022883D01*
X35087845Y-37132144D01*
X35087847Y-37132146D01*
X35087850Y-37132150D01*
X35087853Y-37132152D01*
X35087855Y-37132154D01*
X35197116Y-37212792D01*
X35197117Y-37212792D01*
X35197118Y-37212793D01*
X35325301Y-37257646D01*
X35355725Y-37260499D01*
X35355727Y-37260500D01*
X35355734Y-37260500D01*
X37564273Y-37260500D01*
X37564273Y-37260499D01*
X37594699Y-37257646D01*
X37722882Y-37212793D01*
X37832150Y-37132150D01*
X37912793Y-37022882D01*
X37957646Y-36894699D01*
X37960499Y-36864273D01*
X37960500Y-36864273D01*
X37960500Y-34655727D01*
X37960499Y-34655725D01*
X37957646Y-34625301D01*
X37912793Y-34497118D01*
X37912339Y-34496503D01*
X37832154Y-34387855D01*
X37832152Y-34387853D01*
X37832150Y-34387850D01*
X37832146Y-34387847D01*
X37832144Y-34387845D01*
X37722883Y-34307207D01*
X37594703Y-34262355D01*
X37594694Y-34262353D01*
X37564274Y-34259500D01*
X37564266Y-34259500D01*
X35355734Y-34259500D01*
X35355725Y-34259500D01*
X35325305Y-34262353D01*
X35325296Y-34262355D01*
X35197116Y-34307207D01*
X35087855Y-34387845D01*
X35087845Y-34387855D01*
X35007207Y-34497116D01*
X34962355Y-34625296D01*
X34962353Y-34625305D01*
X34959500Y-34655725D01*
X31449617Y-34655725D01*
X31425977Y-34620345D01*
X31279655Y-34474023D01*
X31279651Y-34474020D01*
X31107597Y-34359058D01*
X30916418Y-34279869D01*
X30713467Y-34239500D01*
X30713465Y-34239500D01*
X30506535Y-34239500D01*
X30506532Y-34239500D01*
X30303581Y-34279869D01*
X30112402Y-34359058D01*
X29940348Y-34474020D01*
X29794020Y-34620348D01*
X29679058Y-34792402D01*
X29599869Y-34983581D01*
X29559500Y-35186532D01*
X29559500Y-35393467D01*
X29565653Y-35424400D01*
X29599869Y-35596417D01*
X29599870Y-35596419D01*
X29599870Y-35596421D01*
X29645840Y-35707402D01*
X29650641Y-35768398D01*
X29624380Y-35815291D01*
X22979532Y-42460141D01*
X22979531Y-42460142D01*
X22936682Y-42534360D01*
X22936681Y-42534360D01*
X22936682Y-42534361D01*
X22914500Y-42617147D01*
X22914500Y-61409029D01*
X22895593Y-61467220D01*
X22846093Y-61503184D01*
X22843203Y-61504074D01*
X22836823Y-61505933D01*
X22729598Y-61555933D01*
X22645933Y-61639598D01*
X22595932Y-61746824D01*
X22595932Y-61746825D01*
X22595932Y-61746827D01*
X22589500Y-61795684D01*
X22589500Y-64204316D01*
X22593788Y-64236887D01*
X22595932Y-64253174D01*
X22595932Y-64253175D01*
X22645122Y-64358661D01*
X22652579Y-64419390D01*
X22622916Y-64472904D01*
X22567463Y-64498762D01*
X22555398Y-64499500D01*
X21384602Y-64499500D01*
X21326411Y-64480593D01*
X21290447Y-64431093D01*
X21290447Y-64369907D01*
X21294878Y-64358661D01*
X21344067Y-64253175D01*
X21344068Y-64253173D01*
X21350500Y-64204316D01*
X21350500Y-61795684D01*
X21344068Y-61746827D01*
X21340805Y-61739830D01*
X21294066Y-61639598D01*
X21294065Y-61639597D01*
X21294065Y-61639596D01*
X21210404Y-61555935D01*
X21210402Y-61555934D01*
X21210401Y-61555933D01*
X21103176Y-61505933D01*
X21096797Y-61504074D01*
X21046222Y-61469639D01*
X21025546Y-61412053D01*
X21025500Y-61409029D01*
X21025500Y-40295834D01*
X21044407Y-40237643D01*
X21054490Y-40225836D01*
X30084709Y-31195616D01*
X30139224Y-31167841D01*
X30192593Y-31174157D01*
X30303580Y-31220130D01*
X30506535Y-31260500D01*
X30506536Y-31260500D01*
X30713464Y-31260500D01*
X30713465Y-31260500D01*
X30916420Y-31220130D01*
X31107598Y-31140941D01*
X31279655Y-31025977D01*
X31425977Y-30879655D01*
X31540941Y-30707598D01*
X31620130Y-30516420D01*
X31660500Y-30313465D01*
X31660500Y-30106535D01*
X31620130Y-29903580D01*
X31540941Y-29712402D01*
X31425977Y-29540345D01*
X31279655Y-29394023D01*
X31279651Y-29394020D01*
X31107597Y-29279058D01*
X30916418Y-29199869D01*
X30713467Y-29159500D01*
X30713465Y-29159500D01*
X30506535Y-29159500D01*
X30506532Y-29159500D01*
X30303581Y-29199869D01*
X30112402Y-29279058D01*
X29940348Y-29394020D01*
X29794020Y-29540348D01*
X29679058Y-29712402D01*
X29599869Y-29903581D01*
X29559500Y-30106532D01*
X29559500Y-30313467D01*
X29579532Y-30414173D01*
X29599869Y-30516417D01*
X29599870Y-30516419D01*
X29599870Y-30516421D01*
X29645840Y-30627402D01*
X29650641Y-30688398D01*
X29624380Y-30735291D01*
X20439532Y-39920141D01*
X20439531Y-39920142D01*
X20396682Y-39994360D01*
X20396681Y-39994360D01*
X20396682Y-39994361D01*
X20374500Y-40077147D01*
X20374500Y-61409029D01*
X20355593Y-61467220D01*
X20306093Y-61503184D01*
X20303203Y-61504074D01*
X20296823Y-61505933D01*
X20189598Y-61555933D01*
X20105933Y-61639598D01*
X20055932Y-61746824D01*
X20055932Y-61746825D01*
X20055932Y-61746827D01*
X20049500Y-61795684D01*
X20049500Y-64204316D01*
X20053788Y-64236887D01*
X20055932Y-64253174D01*
X20055932Y-64253175D01*
X20105122Y-64358661D01*
X20112579Y-64419390D01*
X20082916Y-64472904D01*
X20027463Y-64498762D01*
X20015398Y-64499500D01*
X18844602Y-64499500D01*
X18786411Y-64480593D01*
X18750447Y-64431093D01*
X18750447Y-64369907D01*
X18754878Y-64358661D01*
X18804067Y-64253175D01*
X18804068Y-64253173D01*
X18810500Y-64204316D01*
X18810500Y-61795684D01*
X18804068Y-61746827D01*
X18800805Y-61739830D01*
X18754066Y-61639598D01*
X18754065Y-61639597D01*
X18754065Y-61639596D01*
X18676294Y-61561825D01*
X18648519Y-61507311D01*
X18647300Y-61491824D01*
X18647300Y-39707334D01*
X18666207Y-39649143D01*
X18676290Y-39637336D01*
X29815340Y-28498285D01*
X29869855Y-28470510D01*
X29930287Y-28480081D01*
X29940343Y-28485975D01*
X29940345Y-28485977D01*
X30112402Y-28600941D01*
X30303580Y-28680130D01*
X30506535Y-28720500D01*
X30506536Y-28720500D01*
X30713464Y-28720500D01*
X30713465Y-28720500D01*
X30916420Y-28680130D01*
X31107598Y-28600941D01*
X31279655Y-28485977D01*
X31425977Y-28339655D01*
X31540941Y-28167598D01*
X31620130Y-27976420D01*
X31660500Y-27773465D01*
X31660500Y-27566535D01*
X31620130Y-27363580D01*
X31540941Y-27172402D01*
X31425977Y-27000345D01*
X31279655Y-26854023D01*
X31279651Y-26854020D01*
X31107597Y-26739058D01*
X30916418Y-26659869D01*
X30713467Y-26619500D01*
X30713465Y-26619500D01*
X30506535Y-26619500D01*
X30506532Y-26619500D01*
X30303581Y-26659869D01*
X30112402Y-26739058D01*
X29940348Y-26854020D01*
X29940345Y-26854022D01*
X29940345Y-26854023D01*
X29794023Y-27000345D01*
X29771798Y-27033608D01*
X29679058Y-27172402D01*
X29599869Y-27363581D01*
X29559500Y-27566532D01*
X29559500Y-27566535D01*
X29559500Y-27773465D01*
X29559500Y-27773468D01*
X29559977Y-27778306D01*
X29558322Y-27778468D01*
X29551937Y-27832383D01*
X29532038Y-27860933D01*
X21503185Y-35889786D01*
X21448668Y-35917563D01*
X21388236Y-35907992D01*
X21344971Y-35864727D01*
X21337556Y-35845411D01*
X21307092Y-35731714D01*
X21303434Y-35725378D01*
X21241203Y-35617590D01*
X21241201Y-35617588D01*
X21241200Y-35617586D01*
X21148014Y-35524400D01*
X21148011Y-35524398D01*
X21148009Y-35524396D01*
X21033889Y-35458509D01*
X21033891Y-35458509D01*
X20984499Y-35445275D01*
X20906592Y-35424400D01*
X20774808Y-35424400D01*
X20696900Y-35445275D01*
X20647509Y-35458509D01*
X20533390Y-35524396D01*
X20440196Y-35617590D01*
X20374309Y-35731709D01*
X20340200Y-35859009D01*
X20340200Y-35924065D01*
X20321293Y-35982256D01*
X20311204Y-35994069D01*
X20117804Y-36187469D01*
X20063287Y-36215246D01*
X20002855Y-36205675D01*
X19959590Y-36162410D01*
X19948800Y-36117465D01*
X19948800Y-36082809D01*
X19946465Y-36074093D01*
X19914692Y-35955514D01*
X19914690Y-35955511D01*
X19914690Y-35955509D01*
X19848803Y-35841390D01*
X19848799Y-35841384D01*
X19802796Y-35795381D01*
X19775019Y-35740864D01*
X19773800Y-35725378D01*
X19773800Y-34565608D01*
X20509500Y-34565608D01*
X20509500Y-34697392D01*
X20512455Y-34708420D01*
X20543609Y-34824690D01*
X20609496Y-34938809D01*
X20609498Y-34938811D01*
X20609500Y-34938814D01*
X20702686Y-35032000D01*
X20702688Y-35032001D01*
X20702690Y-35032003D01*
X20816810Y-35097890D01*
X20816808Y-35097890D01*
X20816812Y-35097891D01*
X20816814Y-35097892D01*
X20944108Y-35132000D01*
X20944110Y-35132000D01*
X21075890Y-35132000D01*
X21075892Y-35132000D01*
X21203186Y-35097892D01*
X21203188Y-35097890D01*
X21203190Y-35097890D01*
X21317309Y-35032003D01*
X21317309Y-35032002D01*
X21317314Y-35032000D01*
X21410500Y-34938814D01*
X21451471Y-34867851D01*
X21476390Y-34824690D01*
X21476390Y-34824688D01*
X21476392Y-34824686D01*
X21510500Y-34697392D01*
X21510500Y-34632334D01*
X21529407Y-34574143D01*
X21539490Y-34562336D01*
X27525691Y-28576134D01*
X27570069Y-28550514D01*
X27594786Y-28543892D01*
X27708914Y-28478000D01*
X27802100Y-28384814D01*
X27813513Y-28365047D01*
X27867990Y-28270690D01*
X27867990Y-28270688D01*
X27867992Y-28270686D01*
X27902100Y-28143392D01*
X27902100Y-28011608D01*
X27867992Y-27884314D01*
X27867990Y-27884311D01*
X27867990Y-27884309D01*
X27802103Y-27770190D01*
X27802101Y-27770188D01*
X27802100Y-27770186D01*
X27708914Y-27677000D01*
X27708911Y-27676998D01*
X27708909Y-27676996D01*
X27594789Y-27611109D01*
X27594791Y-27611109D01*
X27545399Y-27597875D01*
X27467492Y-27577000D01*
X27335708Y-27577000D01*
X27257800Y-27597875D01*
X27208409Y-27611109D01*
X27094290Y-27676996D01*
X27001096Y-27770190D01*
X26935209Y-27884309D01*
X26929045Y-27907314D01*
X26901100Y-28011608D01*
X26901100Y-28143392D01*
X26907586Y-28167598D01*
X26915190Y-28195978D01*
X26911987Y-28257079D01*
X26889567Y-28291604D01*
X21079169Y-34102004D01*
X21024652Y-34129781D01*
X21009165Y-34131000D01*
X20944108Y-34131000D01*
X20866200Y-34151875D01*
X20816809Y-34165109D01*
X20702690Y-34230996D01*
X20609496Y-34324190D01*
X20543609Y-34438309D01*
X20543608Y-34438314D01*
X20509500Y-34565608D01*
X19773800Y-34565608D01*
X19773800Y-33927533D01*
X19792707Y-33869342D01*
X19802790Y-33857535D01*
X28633792Y-25026532D01*
X29559500Y-25026532D01*
X29559500Y-25233467D01*
X29599869Y-25436418D01*
X29679058Y-25627597D01*
X29794020Y-25799651D01*
X29794023Y-25799655D01*
X29940345Y-25945977D01*
X30112402Y-26060941D01*
X30303580Y-26140130D01*
X30506535Y-26180500D01*
X30506536Y-26180500D01*
X30713464Y-26180500D01*
X30713465Y-26180500D01*
X30916420Y-26140130D01*
X31107598Y-26060941D01*
X31279655Y-25945977D01*
X31425977Y-25799655D01*
X31540941Y-25627598D01*
X31620130Y-25436420D01*
X31660500Y-25233465D01*
X31660500Y-25026535D01*
X31620130Y-24823580D01*
X31540941Y-24632402D01*
X31425977Y-24460345D01*
X31279655Y-24314023D01*
X31279651Y-24314020D01*
X31107597Y-24199058D01*
X30916418Y-24119869D01*
X30713467Y-24079500D01*
X30713465Y-24079500D01*
X30506535Y-24079500D01*
X30506532Y-24079500D01*
X30303581Y-24119869D01*
X30112402Y-24199058D01*
X29940348Y-24314020D01*
X29794020Y-24460348D01*
X29679058Y-24632402D01*
X29599870Y-24823580D01*
X29559500Y-25026532D01*
X28633792Y-25026532D01*
X30084708Y-23575616D01*
X30139223Y-23547841D01*
X30192593Y-23554157D01*
X30303580Y-23600130D01*
X30506535Y-23640500D01*
X30506536Y-23640500D01*
X30713464Y-23640500D01*
X30713465Y-23640500D01*
X30916420Y-23600130D01*
X31107598Y-23520941D01*
X31279655Y-23405977D01*
X31425977Y-23259655D01*
X31540941Y-23087598D01*
X31620130Y-22896420D01*
X31620131Y-22896411D01*
X31620434Y-22895417D01*
X31620707Y-22895024D01*
X31621991Y-22891926D01*
X31622670Y-22892207D01*
X31655417Y-22845219D01*
X31713224Y-22825170D01*
X31771776Y-22842929D01*
G37*
%TD.AperFunction*%
%TA.AperFunction,Conductor*%
G36*
X46034869Y-27844407D02*
G01*
X46046681Y-27854496D01*
X46092684Y-27900499D01*
X46092690Y-27900503D01*
X46206810Y-27966390D01*
X46206808Y-27966390D01*
X46206812Y-27966391D01*
X46206814Y-27966392D01*
X46334108Y-28000500D01*
X46334110Y-28000500D01*
X46465890Y-28000500D01*
X46465892Y-28000500D01*
X46593186Y-27966392D01*
X46707314Y-27900500D01*
X46707315Y-27900498D01*
X46711499Y-27898083D01*
X46771348Y-27885361D01*
X46827243Y-27910247D01*
X46857836Y-27963235D01*
X46860000Y-27983819D01*
X46860000Y-33555830D01*
X46841093Y-33614021D01*
X46810500Y-33641566D01*
X46717090Y-33695496D01*
X46623896Y-33788690D01*
X46558009Y-33902809D01*
X46541292Y-33965201D01*
X46523900Y-34030108D01*
X46523900Y-34161892D01*
X46550819Y-34262355D01*
X46558009Y-34289190D01*
X46623896Y-34403309D01*
X46623898Y-34403311D01*
X46623900Y-34403314D01*
X46717086Y-34496500D01*
X46717088Y-34496501D01*
X46717090Y-34496503D01*
X46831210Y-34562390D01*
X46831208Y-34562390D01*
X46831212Y-34562391D01*
X46831214Y-34562392D01*
X46958508Y-34596500D01*
X46958510Y-34596500D01*
X47090290Y-34596500D01*
X47090292Y-34596500D01*
X47217586Y-34562392D01*
X47217588Y-34562390D01*
X47217590Y-34562390D01*
X47331709Y-34496503D01*
X47331709Y-34496502D01*
X47331714Y-34496500D01*
X47424900Y-34403314D01*
X47450451Y-34359058D01*
X47490790Y-34289190D01*
X47490790Y-34289188D01*
X47490792Y-34289186D01*
X47524900Y-34161892D01*
X47524900Y-34030108D01*
X47514374Y-33990825D01*
X47511000Y-33965201D01*
X47511000Y-31055639D01*
X47529907Y-30997448D01*
X47579407Y-30961484D01*
X47640593Y-30961484D01*
X47680001Y-30985633D01*
X47720345Y-31025977D01*
X47892402Y-31140941D01*
X48083580Y-31220130D01*
X48286535Y-31260500D01*
X48286536Y-31260500D01*
X48493464Y-31260500D01*
X48493465Y-31260500D01*
X48696420Y-31220130D01*
X48807402Y-31174158D01*
X48868399Y-31169358D01*
X48915292Y-31195619D01*
X53365504Y-35645831D01*
X53393281Y-35700348D01*
X53394500Y-35715835D01*
X53394500Y-61409029D01*
X53375593Y-61467220D01*
X53326093Y-61503184D01*
X53323203Y-61504074D01*
X53316823Y-61505933D01*
X53209598Y-61555933D01*
X53125933Y-61639598D01*
X53075932Y-61746824D01*
X53075932Y-61746825D01*
X53075932Y-61746827D01*
X53069500Y-61795684D01*
X53069500Y-64204316D01*
X53073788Y-64236887D01*
X53075932Y-64253174D01*
X53075932Y-64253175D01*
X53125122Y-64358661D01*
X53132579Y-64419390D01*
X53102916Y-64472904D01*
X53047463Y-64498762D01*
X53035398Y-64499500D01*
X51864602Y-64499500D01*
X51806411Y-64480593D01*
X51770447Y-64431093D01*
X51770447Y-64369907D01*
X51774878Y-64358661D01*
X51824067Y-64253175D01*
X51824068Y-64253173D01*
X51830500Y-64204316D01*
X51830500Y-61795684D01*
X51824068Y-61746827D01*
X51820805Y-61739830D01*
X51774066Y-61639598D01*
X51774065Y-61639597D01*
X51774065Y-61639596D01*
X51690404Y-61555935D01*
X51690402Y-61555934D01*
X51690401Y-61555933D01*
X51583176Y-61505933D01*
X51576797Y-61504074D01*
X51526222Y-61469639D01*
X51505546Y-61412053D01*
X51505500Y-61409029D01*
X51505500Y-38037148D01*
X51505500Y-38037147D01*
X51483318Y-37954362D01*
X51483318Y-37954361D01*
X51454194Y-37903918D01*
X51440465Y-37880138D01*
X51379862Y-37819535D01*
X51379859Y-37819533D01*
X49375618Y-35815291D01*
X49347842Y-35760775D01*
X49354159Y-35707402D01*
X49379663Y-35645831D01*
X49400130Y-35596420D01*
X49440500Y-35393465D01*
X49440500Y-35186535D01*
X49400130Y-34983580D01*
X49320941Y-34792402D01*
X49205977Y-34620345D01*
X49059655Y-34474023D01*
X49059651Y-34474020D01*
X48887597Y-34359058D01*
X48696418Y-34279869D01*
X48493467Y-34239500D01*
X48493465Y-34239500D01*
X48286535Y-34239500D01*
X48286532Y-34239500D01*
X48083581Y-34279869D01*
X47892402Y-34359058D01*
X47720348Y-34474020D01*
X47574020Y-34620348D01*
X47459058Y-34792402D01*
X47379869Y-34983581D01*
X47339500Y-35186532D01*
X47339500Y-35393467D01*
X47379869Y-35596418D01*
X47459058Y-35787597D01*
X47571256Y-35955514D01*
X47574023Y-35959655D01*
X47720345Y-36105977D01*
X47774752Y-36142330D01*
X47812632Y-36190380D01*
X47815034Y-36251518D01*
X47781042Y-36302392D01*
X47769252Y-36310382D01*
X47694340Y-36353633D01*
X46927631Y-37120342D01*
X46884782Y-37194560D01*
X46884781Y-37194560D01*
X46884782Y-37194561D01*
X46884782Y-37194562D01*
X46862600Y-37277347D01*
X46862600Y-41665247D01*
X46862600Y-41750953D01*
X46867411Y-41768907D01*
X46884783Y-41833743D01*
X46927631Y-41907957D01*
X46927635Y-41907962D01*
X47404380Y-42384708D01*
X47432157Y-42439224D01*
X47425840Y-42492596D01*
X47379870Y-42603578D01*
X47379870Y-42603580D01*
X47339500Y-42806532D01*
X47339500Y-43013467D01*
X47379869Y-43216418D01*
X47459058Y-43407597D01*
X47551263Y-43545592D01*
X47574023Y-43579655D01*
X47720345Y-43725977D01*
X47892402Y-43840941D01*
X48083580Y-43920130D01*
X48286535Y-43960500D01*
X48286536Y-43960500D01*
X48493464Y-43960500D01*
X48493465Y-43960500D01*
X48696420Y-43920130D01*
X48887598Y-43840941D01*
X49059655Y-43725977D01*
X49072198Y-43713433D01*
X49126713Y-43685658D01*
X49187145Y-43695229D01*
X49230410Y-43738494D01*
X49241200Y-43783439D01*
X49241200Y-47116560D01*
X49222293Y-47174751D01*
X49172793Y-47210715D01*
X49111607Y-47210715D01*
X49072199Y-47186566D01*
X49059655Y-47174023D01*
X48887597Y-47059058D01*
X48696418Y-46979869D01*
X48493467Y-46939500D01*
X48493465Y-46939500D01*
X48286535Y-46939500D01*
X48286532Y-46939500D01*
X48083581Y-46979869D01*
X47892402Y-47059058D01*
X47720348Y-47174020D01*
X47574020Y-47320348D01*
X47459058Y-47492402D01*
X47379869Y-47683581D01*
X47339500Y-47886532D01*
X47339500Y-48093467D01*
X47379870Y-48296419D01*
X47379870Y-48296421D01*
X47425840Y-48407402D01*
X47430641Y-48468398D01*
X47404380Y-48515290D01*
X46935335Y-48984337D01*
X46935331Y-48984342D01*
X46892482Y-49058560D01*
X46892481Y-49058560D01*
X46892482Y-49058561D01*
X46870300Y-49141347D01*
X46870300Y-52743035D01*
X46851393Y-52801226D01*
X46801893Y-52837190D01*
X46740707Y-52837190D01*
X46701296Y-52813039D01*
X40209496Y-46321239D01*
X40181719Y-46266722D01*
X40180500Y-46251235D01*
X40180500Y-36746302D01*
X40199407Y-36688111D01*
X40248907Y-36652147D01*
X40310093Y-36652147D01*
X40359591Y-36688110D01*
X40395483Y-36737510D01*
X40562490Y-36904517D01*
X40753567Y-37043343D01*
X40964008Y-37150568D01*
X41188632Y-37223553D01*
X41188633Y-37223553D01*
X41188636Y-37223554D01*
X41421905Y-37260500D01*
X41421908Y-37260500D01*
X41658095Y-37260500D01*
X41891363Y-37223554D01*
X41891364Y-37223553D01*
X41891368Y-37223553D01*
X42115992Y-37150568D01*
X42326433Y-37043343D01*
X42517510Y-36904517D01*
X42684517Y-36737510D01*
X42823343Y-36546433D01*
X42930568Y-36335992D01*
X43003553Y-36111368D01*
X43004407Y-36105977D01*
X43040500Y-35878095D01*
X43040500Y-35641904D01*
X43003554Y-35408636D01*
X42999351Y-35395700D01*
X42930568Y-35184008D01*
X42823343Y-34973567D01*
X42684517Y-34782490D01*
X42517510Y-34615483D01*
X42326433Y-34476657D01*
X42326432Y-34476656D01*
X42326430Y-34476655D01*
X42115992Y-34369432D01*
X41891363Y-34296445D01*
X41658095Y-34259500D01*
X41658092Y-34259500D01*
X41421908Y-34259500D01*
X41421905Y-34259500D01*
X41188636Y-34296445D01*
X40964007Y-34369432D01*
X40753569Y-34476655D01*
X40562491Y-34615482D01*
X40395481Y-34782492D01*
X40359592Y-34831889D01*
X40310092Y-34867852D01*
X40248906Y-34867851D01*
X40199407Y-34831887D01*
X40180500Y-34773697D01*
X40180500Y-28531008D01*
X40180499Y-28531004D01*
X40177443Y-28515639D01*
X40153580Y-28395672D01*
X40121616Y-28318503D01*
X40100777Y-28268193D01*
X40100771Y-28268182D01*
X40024114Y-28153458D01*
X39926541Y-28055885D01*
X39853103Y-28006815D01*
X39815224Y-27958765D01*
X39812822Y-27897626D01*
X39846816Y-27846753D01*
X39904219Y-27825576D01*
X39908105Y-27825500D01*
X45976678Y-27825500D01*
X46034869Y-27844407D01*
G37*
%TD.AperFunction*%
%TA.AperFunction,Conductor*%
G36*
X72002992Y-500681D02*
G01*
X72295310Y-518362D01*
X72307165Y-519802D01*
X72592281Y-572051D01*
X72603883Y-574911D01*
X72880623Y-661147D01*
X72891786Y-665380D01*
X73156117Y-784346D01*
X73156119Y-784347D01*
X73166702Y-789902D01*
X73414758Y-939856D01*
X73424583Y-946638D01*
X73652755Y-1125399D01*
X73661704Y-1133326D01*
X73866673Y-1338295D01*
X73874599Y-1347243D01*
X73995481Y-1501538D01*
X74053356Y-1575409D01*
X74060147Y-1585248D01*
X74210096Y-1833295D01*
X74215652Y-1843880D01*
X74334616Y-2108206D01*
X74338855Y-2119384D01*
X74425087Y-2396113D01*
X74427948Y-2407721D01*
X74480196Y-2692827D01*
X74481637Y-2704694D01*
X74499319Y-2997006D01*
X74499500Y-3002984D01*
X74499500Y-61997015D01*
X74499319Y-62002993D01*
X74481637Y-62295304D01*
X74480196Y-62307171D01*
X74427948Y-62592277D01*
X74425087Y-62603885D01*
X74338855Y-62880615D01*
X74334616Y-62891793D01*
X74215652Y-63156118D01*
X74210096Y-63166703D01*
X74060142Y-63414758D01*
X74053356Y-63424590D01*
X73874599Y-63652755D01*
X73866672Y-63661704D01*
X73661704Y-63866672D01*
X73652755Y-63874599D01*
X73424590Y-64053356D01*
X73414758Y-64060142D01*
X73177212Y-64203744D01*
X73166703Y-64210097D01*
X73156118Y-64215652D01*
X72891793Y-64334616D01*
X72880615Y-64338855D01*
X72603885Y-64425087D01*
X72592277Y-64427948D01*
X72307171Y-64480196D01*
X72295304Y-64481637D01*
X72023993Y-64498048D01*
X72002991Y-64499319D01*
X71997015Y-64499500D01*
X62024602Y-64499500D01*
X61966411Y-64480593D01*
X61930447Y-64431093D01*
X61930447Y-64369907D01*
X61934878Y-64358661D01*
X61984067Y-64253175D01*
X61984068Y-64253173D01*
X61990500Y-64204316D01*
X61990500Y-61795684D01*
X61984068Y-61746827D01*
X61980805Y-61739830D01*
X61934066Y-61639598D01*
X61934065Y-61639597D01*
X61934065Y-61639596D01*
X61850404Y-61555935D01*
X61850402Y-61555934D01*
X61850401Y-61555933D01*
X61743175Y-61505932D01*
X61710601Y-61501644D01*
X61694316Y-61499500D01*
X60985684Y-61499500D01*
X60969398Y-61501644D01*
X60936825Y-61505932D01*
X60936824Y-61505932D01*
X60829598Y-61555933D01*
X60745933Y-61639598D01*
X60708370Y-61720151D01*
X60666641Y-61764899D01*
X60606580Y-61776573D01*
X60551127Y-61750714D01*
X60548642Y-61748315D01*
X59679037Y-60878710D01*
X69149500Y-60878710D01*
X69149500Y-61121289D01*
X69181161Y-61361781D01*
X69181161Y-61361786D01*
X69243944Y-61596092D01*
X69243948Y-61596105D01*
X69336772Y-61820204D01*
X69336774Y-61820208D01*
X69336776Y-61820212D01*
X69458064Y-62030289D01*
X69458066Y-62030292D01*
X69605729Y-62222731D01*
X69605731Y-62222733D01*
X69605735Y-62222738D01*
X69777262Y-62394265D01*
X69777266Y-62394268D01*
X69777268Y-62394270D01*
X69933630Y-62514250D01*
X69969711Y-62541936D01*
X70179788Y-62663224D01*
X70403900Y-62756054D01*
X70638211Y-62818838D01*
X70878712Y-62850500D01*
X70878713Y-62850500D01*
X71121287Y-62850500D01*
X71121288Y-62850500D01*
X71361789Y-62818838D01*
X71596100Y-62756054D01*
X71820212Y-62663224D01*
X72030289Y-62541936D01*
X72222738Y-62394265D01*
X72394265Y-62222738D01*
X72541936Y-62030289D01*
X72663224Y-61820212D01*
X72756054Y-61596100D01*
X72818838Y-61361789D01*
X72850500Y-61121288D01*
X72850500Y-60878712D01*
X72818838Y-60638211D01*
X72756054Y-60403900D01*
X72663224Y-60179788D01*
X72541936Y-59969711D01*
X72541933Y-59969707D01*
X72394270Y-59777268D01*
X72394268Y-59777266D01*
X72394265Y-59777262D01*
X72222738Y-59605735D01*
X72222733Y-59605731D01*
X72222731Y-59605729D01*
X72030292Y-59458066D01*
X72030289Y-59458064D01*
X71820212Y-59336776D01*
X71820208Y-59336774D01*
X71820204Y-59336772D01*
X71596105Y-59243948D01*
X71596104Y-59243947D01*
X71596100Y-59243946D01*
X71361789Y-59181162D01*
X71361786Y-59181161D01*
X71361784Y-59181161D01*
X71121289Y-59149500D01*
X71121288Y-59149500D01*
X70878712Y-59149500D01*
X70878710Y-59149500D01*
X70638218Y-59181161D01*
X70638213Y-59181161D01*
X70403907Y-59243944D01*
X70403894Y-59243948D01*
X70179795Y-59336772D01*
X69969707Y-59458066D01*
X69777268Y-59605729D01*
X69605729Y-59777268D01*
X69458066Y-59969707D01*
X69336772Y-60179795D01*
X69243948Y-60403894D01*
X69243944Y-60403907D01*
X69181161Y-60638213D01*
X69181161Y-60638218D01*
X69149500Y-60878710D01*
X59679037Y-60878710D01*
X58556296Y-59755969D01*
X58528519Y-59701452D01*
X58527300Y-59685965D01*
X58527300Y-32835748D01*
X58519583Y-32806947D01*
X58505118Y-32752962D01*
X58505118Y-32752961D01*
X58493138Y-32732212D01*
X58462268Y-32678742D01*
X58462267Y-32678741D01*
X58462266Y-32678740D01*
X58462265Y-32678738D01*
X56226696Y-30443169D01*
X56198919Y-30388652D01*
X56197700Y-30373165D01*
X56197700Y-25480253D01*
X63049500Y-25480253D01*
X63049500Y-28019746D01*
X63049501Y-28019758D01*
X63061132Y-28078227D01*
X63061134Y-28078233D01*
X63104672Y-28143391D01*
X63105448Y-28144552D01*
X63171769Y-28188867D01*
X63216231Y-28197711D01*
X63230241Y-28200498D01*
X63230246Y-28200498D01*
X63230252Y-28200500D01*
X63300500Y-28200500D01*
X63358691Y-28219407D01*
X63394655Y-28268907D01*
X63399500Y-28299500D01*
X63399500Y-28427129D01*
X63391964Y-28465014D01*
X63344720Y-28579070D01*
X63344720Y-28579072D01*
X63317800Y-28714404D01*
X63317800Y-45568995D01*
X63344720Y-45704327D01*
X63344720Y-45704329D01*
X63397522Y-45831806D01*
X63397528Y-45831817D01*
X63474185Y-45946541D01*
X63571758Y-46044114D01*
X63686482Y-46120771D01*
X63686493Y-46120777D01*
X63733583Y-46140282D01*
X63813972Y-46173580D01*
X63949307Y-46200500D01*
X64087293Y-46200500D01*
X64700252Y-46200500D01*
X66226007Y-46200500D01*
X67772200Y-46200500D01*
X67830391Y-46219407D01*
X67866355Y-46268907D01*
X67871200Y-46299500D01*
X67871200Y-47240500D01*
X67852293Y-47298691D01*
X67802793Y-47334655D01*
X67772200Y-47339500D01*
X64700252Y-47339500D01*
X64700251Y-47339500D01*
X64700241Y-47339501D01*
X64641772Y-47351132D01*
X64641766Y-47351134D01*
X64575451Y-47395445D01*
X64575445Y-47395451D01*
X64531134Y-47461766D01*
X64531132Y-47461772D01*
X64519501Y-47520241D01*
X64519500Y-47520253D01*
X64519500Y-48559746D01*
X64519501Y-48559758D01*
X64531132Y-48618227D01*
X64531134Y-48618233D01*
X64575445Y-48684548D01*
X64575448Y-48684552D01*
X64641769Y-48728867D01*
X64686231Y-48737711D01*
X64700241Y-48740498D01*
X64700246Y-48740498D01*
X64700252Y-48740500D01*
X64700253Y-48740500D01*
X68640692Y-48740500D01*
X68640693Y-48740500D01*
X68776028Y-48713580D01*
X68903511Y-48660775D01*
X69018242Y-48584114D01*
X69115814Y-48486542D01*
X69192475Y-48371811D01*
X69245280Y-48244328D01*
X69272200Y-48108993D01*
X69272200Y-45431007D01*
X69245280Y-45295672D01*
X69227678Y-45253177D01*
X69192477Y-45168193D01*
X69192471Y-45168182D01*
X69115814Y-45053458D01*
X69018241Y-44955885D01*
X68903517Y-44879228D01*
X68903506Y-44879222D01*
X68776028Y-44826420D01*
X68640695Y-44799500D01*
X68640693Y-44799500D01*
X67889748Y-44799500D01*
X66363993Y-44799500D01*
X64817800Y-44799500D01*
X64759609Y-44780593D01*
X64723645Y-44731093D01*
X64718800Y-44700500D01*
X64718800Y-29057972D01*
X64726336Y-29020087D01*
X64749702Y-28963674D01*
X64773580Y-28906029D01*
X64784037Y-28853457D01*
X64800500Y-28770693D01*
X64800500Y-28299500D01*
X64819407Y-28241309D01*
X64868907Y-28205345D01*
X64899500Y-28200500D01*
X64969747Y-28200500D01*
X64969748Y-28200500D01*
X65028231Y-28188867D01*
X65094552Y-28144552D01*
X65138867Y-28078231D01*
X65150500Y-28019748D01*
X65150500Y-26246532D01*
X68129500Y-26246532D01*
X68129500Y-27253467D01*
X68169869Y-27456418D01*
X68249058Y-27647597D01*
X68364020Y-27819651D01*
X68364023Y-27819655D01*
X68510345Y-27965977D01*
X68682402Y-28080941D01*
X68873580Y-28160130D01*
X69076535Y-28200500D01*
X69076536Y-28200500D01*
X69283464Y-28200500D01*
X69283465Y-28200500D01*
X69486420Y-28160130D01*
X69677598Y-28080941D01*
X69849655Y-27965977D01*
X69995977Y-27819655D01*
X70110941Y-27647598D01*
X70190130Y-27456420D01*
X70230500Y-27253465D01*
X70230500Y-26246535D01*
X70190130Y-26043580D01*
X70110941Y-25852402D01*
X69995977Y-25680345D01*
X69849655Y-25534023D01*
X69824798Y-25517414D01*
X69677597Y-25419058D01*
X69486418Y-25339869D01*
X69283467Y-25299500D01*
X69283465Y-25299500D01*
X69076535Y-25299500D01*
X69076532Y-25299500D01*
X68873581Y-25339869D01*
X68682402Y-25419058D01*
X68510348Y-25534020D01*
X68364020Y-25680348D01*
X68249058Y-25852402D01*
X68169869Y-26043581D01*
X68129500Y-26246532D01*
X65150500Y-26246532D01*
X65150500Y-25480252D01*
X65138867Y-25421769D01*
X65094552Y-25355448D01*
X65094548Y-25355445D01*
X65028233Y-25311134D01*
X65028231Y-25311133D01*
X65028228Y-25311132D01*
X65028227Y-25311132D01*
X64969758Y-25299501D01*
X64969748Y-25299500D01*
X63230252Y-25299500D01*
X63230251Y-25299500D01*
X63230241Y-25299501D01*
X63171772Y-25311132D01*
X63171766Y-25311134D01*
X63105451Y-25355445D01*
X63105445Y-25355451D01*
X63061134Y-25421766D01*
X63061132Y-25421772D01*
X63049501Y-25480241D01*
X63049500Y-25480253D01*
X56197700Y-25480253D01*
X56197700Y-25043040D01*
X56197701Y-25043027D01*
X56197701Y-24949349D01*
X56197701Y-24949347D01*
X56175518Y-24866561D01*
X56150702Y-24823580D01*
X56132665Y-24792338D01*
X56072062Y-24731735D01*
X56072059Y-24731733D01*
X52722682Y-21382356D01*
X49375619Y-18035292D01*
X49347842Y-17980775D01*
X49354159Y-17927402D01*
X49363164Y-17905662D01*
X49400130Y-17816420D01*
X49440500Y-17613465D01*
X49440500Y-17406535D01*
X49400130Y-17203580D01*
X49320941Y-17012402D01*
X49205977Y-16840345D01*
X49059655Y-16694023D01*
X49059564Y-16693962D01*
X48887597Y-16579058D01*
X48696418Y-16499869D01*
X48493467Y-16459500D01*
X48493465Y-16459500D01*
X48286535Y-16459500D01*
X48286532Y-16459500D01*
X48083581Y-16499869D01*
X47892402Y-16579058D01*
X47720348Y-16694020D01*
X47720345Y-16694022D01*
X47720345Y-16694023D01*
X47680001Y-16734366D01*
X47625487Y-16762142D01*
X47565055Y-16752571D01*
X47521790Y-16709306D01*
X47511000Y-16664361D01*
X47511000Y-16594921D01*
X47529907Y-16536730D01*
X47539990Y-16524923D01*
X47586000Y-16478914D01*
X47601976Y-16451243D01*
X47651890Y-16364790D01*
X47651890Y-16364788D01*
X47651892Y-16364786D01*
X47686000Y-16237492D01*
X47686000Y-16105708D01*
X47651892Y-15978414D01*
X47651890Y-15978411D01*
X47651890Y-15978409D01*
X47640310Y-15958352D01*
X47627588Y-15898504D01*
X47652475Y-15842608D01*
X47705463Y-15812015D01*
X47766313Y-15818411D01*
X47781042Y-15826533D01*
X47892402Y-15900941D01*
X48083580Y-15980130D01*
X48286535Y-16020500D01*
X48286536Y-16020500D01*
X48493464Y-16020500D01*
X48493465Y-16020500D01*
X48696420Y-15980130D01*
X48887598Y-15900941D01*
X49059655Y-15785977D01*
X49205977Y-15639655D01*
X49320941Y-15467598D01*
X49400130Y-15276420D01*
X49440500Y-15073465D01*
X49440500Y-14866535D01*
X49400130Y-14663580D01*
X49320941Y-14472402D01*
X49205977Y-14300345D01*
X49059655Y-14154023D01*
X49059651Y-14154020D01*
X48887597Y-14039058D01*
X48696418Y-13959869D01*
X48493467Y-13919500D01*
X48493465Y-13919500D01*
X48286535Y-13919500D01*
X48286532Y-13919500D01*
X48083581Y-13959869D01*
X47892402Y-14039058D01*
X47720348Y-14154020D01*
X47574020Y-14300348D01*
X47459058Y-14472402D01*
X47379869Y-14663581D01*
X47339500Y-14866532D01*
X47339500Y-15073467D01*
X47379869Y-15276418D01*
X47459058Y-15467597D01*
X47532129Y-15576957D01*
X47548737Y-15635846D01*
X47527559Y-15693249D01*
X47476685Y-15727241D01*
X47415547Y-15724839D01*
X47400312Y-15717694D01*
X47378688Y-15705209D01*
X47378687Y-15705208D01*
X47378686Y-15705208D01*
X47251392Y-15671100D01*
X47119608Y-15671100D01*
X47041700Y-15691975D01*
X46992309Y-15705209D01*
X46878190Y-15771096D01*
X46784996Y-15864290D01*
X46719109Y-15978409D01*
X46702569Y-16040138D01*
X46685000Y-16105708D01*
X46685000Y-16237492D01*
X46706643Y-16318265D01*
X46719109Y-16364790D01*
X46784996Y-16478909D01*
X46784998Y-16478911D01*
X46785000Y-16478914D01*
X46831005Y-16524919D01*
X46858781Y-16579434D01*
X46860000Y-16594921D01*
X46860000Y-16646480D01*
X46841093Y-16704671D01*
X46791593Y-16740635D01*
X46730407Y-16740635D01*
X46705998Y-16728795D01*
X46631818Y-16679228D01*
X46631806Y-16679222D01*
X46504328Y-16626420D01*
X46368995Y-16599500D01*
X46368993Y-16599500D01*
X39668993Y-16599500D01*
X33480234Y-16599500D01*
X33422043Y-16580593D01*
X33386079Y-16531093D01*
X33386079Y-16469907D01*
X33410231Y-16430496D01*
X33602732Y-16237996D01*
X33657248Y-16210219D01*
X33672735Y-16209000D01*
X33737790Y-16209000D01*
X33737792Y-16209000D01*
X33865086Y-16174892D01*
X33865088Y-16174890D01*
X33865090Y-16174890D01*
X33979209Y-16109003D01*
X33979209Y-16109002D01*
X33979214Y-16109000D01*
X34072400Y-16015814D01*
X34094523Y-15977496D01*
X34138290Y-15901690D01*
X34138290Y-15901688D01*
X34138292Y-15901686D01*
X34172400Y-15774392D01*
X34172400Y-15642608D01*
X34138292Y-15515314D01*
X34138290Y-15515311D01*
X34138290Y-15515309D01*
X34072403Y-15401190D01*
X34072401Y-15401188D01*
X34072400Y-15401186D01*
X33979214Y-15308000D01*
X33979211Y-15307998D01*
X33979209Y-15307996D01*
X33865089Y-15242109D01*
X33865091Y-15242109D01*
X33815699Y-15228875D01*
X33737792Y-15208000D01*
X33606008Y-15208000D01*
X33528100Y-15228875D01*
X33478709Y-15242109D01*
X33364590Y-15307996D01*
X33271396Y-15401190D01*
X33205509Y-15515309D01*
X33205508Y-15515314D01*
X33172192Y-15639655D01*
X33171400Y-15642609D01*
X33171400Y-15707665D01*
X33152493Y-15765856D01*
X33142404Y-15777669D01*
X33034569Y-15885504D01*
X32980052Y-15913281D01*
X32964565Y-15914500D01*
X31390139Y-15914500D01*
X31331948Y-15895593D01*
X31295984Y-15846093D01*
X31295984Y-15784907D01*
X31320133Y-15745498D01*
X31425977Y-15639655D01*
X31540941Y-15467598D01*
X31620130Y-15276420D01*
X31660500Y-15073465D01*
X31660500Y-14866535D01*
X31620130Y-14663580D01*
X31540941Y-14472402D01*
X31425977Y-14300345D01*
X31279655Y-14154023D01*
X31234331Y-14123739D01*
X31232112Y-14122256D01*
X31194232Y-14074206D01*
X31191830Y-14013068D01*
X31223736Y-13965316D01*
X31223473Y-13965053D01*
X31224795Y-13963730D01*
X31225822Y-13962194D01*
X31226848Y-13961396D01*
X31228055Y-13960468D01*
X31228062Y-13960465D01*
X32052865Y-13135662D01*
X32073656Y-13099651D01*
X32095716Y-13061443D01*
X32095716Y-13061441D01*
X32095718Y-13061439D01*
X32117900Y-12978653D01*
X32117900Y-12892947D01*
X32117900Y-11942140D01*
X32117901Y-11942127D01*
X32117901Y-11848447D01*
X32117900Y-11848445D01*
X32095718Y-11765663D01*
X32095718Y-11765662D01*
X32059461Y-11702863D01*
X32059461Y-11702862D01*
X32059458Y-11702858D01*
X32052867Y-11691441D01*
X32052866Y-11691440D01*
X32052865Y-11691438D01*
X31992262Y-11630835D01*
X31992259Y-11630833D01*
X31237719Y-10876292D01*
X31209942Y-10821775D01*
X31219513Y-10761343D01*
X31252722Y-10723972D01*
X31279655Y-10705977D01*
X31425977Y-10559655D01*
X31540941Y-10387598D01*
X31620130Y-10196420D01*
X31660500Y-9993465D01*
X31660500Y-9786535D01*
X31620130Y-9583580D01*
X31540941Y-9392402D01*
X31425977Y-9220345D01*
X31279655Y-9074023D01*
X31107598Y-8959059D01*
X31107599Y-8959059D01*
X31107597Y-8959058D01*
X30916418Y-8879869D01*
X30713467Y-8839500D01*
X30713465Y-8839500D01*
X30506535Y-8839500D01*
X30506532Y-8839500D01*
X30303581Y-8879869D01*
X30112402Y-8959058D01*
X29940348Y-9074020D01*
X29940345Y-9074022D01*
X29940345Y-9074023D01*
X29863401Y-9150966D01*
X29808887Y-9178742D01*
X29748455Y-9169171D01*
X29705190Y-9125906D01*
X29694400Y-9080961D01*
X29694400Y-7102735D01*
X29713307Y-7044544D01*
X29723396Y-7032731D01*
X30228331Y-6527796D01*
X30282848Y-6500019D01*
X30298335Y-6498800D01*
X30921665Y-6498800D01*
X30979856Y-6517707D01*
X30991669Y-6527796D01*
X37154338Y-12690465D01*
X37154340Y-12690466D01*
X37154341Y-12690467D01*
X37154342Y-12690468D01*
X37228557Y-12733316D01*
X37228555Y-12733316D01*
X37228559Y-12733317D01*
X37228561Y-12733318D01*
X37311347Y-12755500D01*
X37397053Y-12755500D01*
X47321623Y-12755500D01*
X47379814Y-12774407D01*
X47413087Y-12816614D01*
X47459058Y-12927597D01*
X47574020Y-13099651D01*
X47574023Y-13099655D01*
X47720345Y-13245977D01*
X47892402Y-13360941D01*
X48083580Y-13440130D01*
X48286535Y-13480500D01*
X48286536Y-13480500D01*
X48493464Y-13480500D01*
X48493465Y-13480500D01*
X48696420Y-13440130D01*
X48887598Y-13360941D01*
X49059655Y-13245977D01*
X49205977Y-13099655D01*
X49247984Y-13036785D01*
X49296034Y-12998906D01*
X49357172Y-12996504D01*
X49408046Y-13030496D01*
X49429224Y-13087899D01*
X49429300Y-13091787D01*
X49429300Y-13955247D01*
X49429300Y-14040953D01*
X49438210Y-14074206D01*
X49451483Y-14123743D01*
X49494331Y-14197957D01*
X49494333Y-14197959D01*
X49494335Y-14197962D01*
X55967905Y-20671532D01*
X55995681Y-20726047D01*
X55996900Y-20741534D01*
X55996900Y-20806592D01*
X56024369Y-20909108D01*
X56031009Y-20933890D01*
X56096896Y-21048009D01*
X56096898Y-21048011D01*
X56096900Y-21048014D01*
X56190086Y-21141200D01*
X56190088Y-21141201D01*
X56190090Y-21141203D01*
X56304210Y-21207090D01*
X56304208Y-21207090D01*
X56304212Y-21207091D01*
X56304214Y-21207092D01*
X56431508Y-21241200D01*
X56431510Y-21241200D01*
X56563290Y-21241200D01*
X56563292Y-21241200D01*
X56690586Y-21207092D01*
X56690588Y-21207090D01*
X56690590Y-21207090D01*
X56804709Y-21141203D01*
X56804709Y-21141202D01*
X56804714Y-21141200D01*
X56897900Y-21048014D01*
X56910673Y-21025890D01*
X56963790Y-20933890D01*
X56963790Y-20933888D01*
X56963792Y-20933886D01*
X56997900Y-20806592D01*
X56997900Y-20674808D01*
X56963792Y-20547514D01*
X56963790Y-20547511D01*
X56963790Y-20547509D01*
X56897903Y-20433390D01*
X56897901Y-20433388D01*
X56897900Y-20433386D01*
X56804714Y-20340200D01*
X56804711Y-20340198D01*
X56804709Y-20340196D01*
X56690589Y-20274309D01*
X56690591Y-20274309D01*
X56617213Y-20254648D01*
X56563292Y-20240200D01*
X56563290Y-20240200D01*
X56498235Y-20240200D01*
X56440044Y-20221293D01*
X56428231Y-20211204D01*
X50109296Y-13892269D01*
X50081519Y-13837752D01*
X50080300Y-13822265D01*
X50080300Y-10295726D01*
X52389500Y-10295726D01*
X52389500Y-12304265D01*
X52392353Y-12334694D01*
X52437208Y-12462885D01*
X52517845Y-12572144D01*
X52517847Y-12572146D01*
X52517850Y-12572150D01*
X52517853Y-12572152D01*
X52517855Y-12572154D01*
X52627114Y-12652791D01*
X52627116Y-12652791D01*
X52627118Y-12652793D01*
X52755302Y-12697646D01*
X52785735Y-12700500D01*
X54794264Y-12700499D01*
X54794265Y-12700499D01*
X54800350Y-12699928D01*
X54824698Y-12697646D01*
X54952882Y-12652793D01*
X55062150Y-12572150D01*
X55142793Y-12462882D01*
X55187646Y-12334698D01*
X55190500Y-12304265D01*
X55190499Y-10295736D01*
X55187646Y-10265302D01*
X55142793Y-10137118D01*
X55142791Y-10137116D01*
X55142791Y-10137114D01*
X55062154Y-10027855D01*
X55062152Y-10027853D01*
X55062150Y-10027850D01*
X55062146Y-10027847D01*
X55062144Y-10027845D01*
X54952885Y-9947208D01*
X54938697Y-9942243D01*
X54824698Y-9902354D01*
X54824696Y-9902353D01*
X54824694Y-9902353D01*
X54794272Y-9899500D01*
X52785734Y-9899500D01*
X52755305Y-9902353D01*
X52627114Y-9947208D01*
X52517855Y-10027845D01*
X52517845Y-10027855D01*
X52437208Y-10137114D01*
X52392353Y-10265305D01*
X52389500Y-10295726D01*
X50080300Y-10295726D01*
X50080300Y-6225640D01*
X50080301Y-6225627D01*
X50080301Y-6131946D01*
X50080300Y-6131944D01*
X50058119Y-6049166D01*
X50058118Y-6049162D01*
X50057251Y-6047661D01*
X50057242Y-6047644D01*
X50015266Y-5974940D01*
X50015265Y-5974938D01*
X49954662Y-5914335D01*
X49954659Y-5914333D01*
X49375617Y-5335290D01*
X49347841Y-5280775D01*
X49354157Y-5227405D01*
X49400130Y-5116420D01*
X49440500Y-4913465D01*
X49440500Y-4706535D01*
X49400130Y-4503580D01*
X49320941Y-4312402D01*
X49205977Y-4140345D01*
X49059655Y-3994023D01*
X49059651Y-3994020D01*
X48887597Y-3879058D01*
X48696418Y-3799869D01*
X48493467Y-3759500D01*
X48493465Y-3759500D01*
X48286535Y-3759500D01*
X48286532Y-3759500D01*
X48083581Y-3799869D01*
X47892402Y-3879058D01*
X47720348Y-3994020D01*
X47574020Y-4140348D01*
X47459058Y-4312402D01*
X47379869Y-4503581D01*
X47339500Y-4706532D01*
X47339500Y-4913467D01*
X47379869Y-5116418D01*
X47459058Y-5307597D01*
X47516971Y-5394270D01*
X47574023Y-5479655D01*
X47720345Y-5625977D01*
X47892402Y-5740941D01*
X48083580Y-5820130D01*
X48286535Y-5860500D01*
X48286536Y-5860500D01*
X48493464Y-5860500D01*
X48493465Y-5860500D01*
X48696420Y-5820130D01*
X48807405Y-5774157D01*
X48868398Y-5769357D01*
X48915289Y-5795616D01*
X49167318Y-6047644D01*
X49400304Y-6280630D01*
X49428081Y-6335147D01*
X49429300Y-6350634D01*
X49429300Y-9228212D01*
X49410393Y-9286403D01*
X49360893Y-9322367D01*
X49299707Y-9322367D01*
X49250207Y-9286403D01*
X49247984Y-9283213D01*
X49205979Y-9220348D01*
X49205977Y-9220345D01*
X49059655Y-9074023D01*
X48887598Y-8959059D01*
X48887599Y-8959059D01*
X48887597Y-8959058D01*
X48696418Y-8879869D01*
X48493467Y-8839500D01*
X48493465Y-8839500D01*
X48286535Y-8839500D01*
X48286532Y-8839500D01*
X48083581Y-8879869D01*
X47892402Y-8959058D01*
X47720348Y-9074020D01*
X47574020Y-9220348D01*
X47459058Y-9392402D01*
X47379869Y-9583581D01*
X47339500Y-9786532D01*
X47339500Y-9993467D01*
X47379869Y-10196418D01*
X47459058Y-10387597D01*
X47574020Y-10559651D01*
X47574023Y-10559655D01*
X47720345Y-10705977D01*
X47892402Y-10820941D01*
X48083580Y-10900130D01*
X48286535Y-10940500D01*
X48286536Y-10940500D01*
X48493464Y-10940500D01*
X48493465Y-10940500D01*
X48696420Y-10900130D01*
X48887598Y-10820941D01*
X49059655Y-10705977D01*
X49205977Y-10559655D01*
X49247984Y-10496785D01*
X49296034Y-10458906D01*
X49357172Y-10456504D01*
X49408046Y-10490496D01*
X49429224Y-10547899D01*
X49429300Y-10551787D01*
X49429300Y-11768212D01*
X49410393Y-11826403D01*
X49360893Y-11862367D01*
X49299707Y-11862367D01*
X49250207Y-11826403D01*
X49247984Y-11823213D01*
X49205979Y-11760348D01*
X49205977Y-11760345D01*
X49059655Y-11614023D01*
X48993523Y-11569835D01*
X48887597Y-11499058D01*
X48696418Y-11419869D01*
X48493467Y-11379500D01*
X48493465Y-11379500D01*
X48286535Y-11379500D01*
X48286532Y-11379500D01*
X48083581Y-11419869D01*
X47892402Y-11499058D01*
X47720348Y-11614020D01*
X47574020Y-11760348D01*
X47459058Y-11932402D01*
X47413087Y-12043386D01*
X47373350Y-12089912D01*
X47321623Y-12104500D01*
X37530035Y-12104500D01*
X37471844Y-12085593D01*
X37460031Y-12075504D01*
X34458547Y-9074020D01*
X31297362Y-5912835D01*
X31297359Y-5912833D01*
X31297358Y-5912832D01*
X31297357Y-5912831D01*
X31223142Y-5869983D01*
X31223141Y-5869982D01*
X31213873Y-5867499D01*
X31162560Y-5834173D01*
X31140635Y-5777051D01*
X31156472Y-5717951D01*
X31184496Y-5689559D01*
X31279655Y-5625977D01*
X31425977Y-5479655D01*
X31540941Y-5307598D01*
X31620130Y-5116420D01*
X31660500Y-4913465D01*
X31660500Y-4706535D01*
X31620130Y-4503580D01*
X31540941Y-4312402D01*
X31425977Y-4140345D01*
X31279655Y-3994023D01*
X31279651Y-3994020D01*
X31107597Y-3879058D01*
X30916418Y-3799869D01*
X30713467Y-3759500D01*
X30713465Y-3759500D01*
X30506535Y-3759500D01*
X30506532Y-3759500D01*
X30303581Y-3799869D01*
X30112402Y-3879058D01*
X29940348Y-3994020D01*
X29794020Y-4140348D01*
X29679058Y-4312402D01*
X29599869Y-4503581D01*
X29559500Y-4706532D01*
X29559500Y-4913467D01*
X29582738Y-5030289D01*
X29599869Y-5116417D01*
X29599870Y-5116419D01*
X29599870Y-5116421D01*
X29645840Y-5227402D01*
X29650641Y-5288398D01*
X29624380Y-5335291D01*
X24425734Y-10533939D01*
X24382880Y-10608164D01*
X24382879Y-10608166D01*
X24374519Y-10639372D01*
X24374519Y-10639373D01*
X24360700Y-10690947D01*
X24360700Y-11613696D01*
X24341793Y-11671887D01*
X24292293Y-11707851D01*
X24231107Y-11707851D01*
X24181607Y-11671887D01*
X24175964Y-11663197D01*
X24150901Y-11619788D01*
X24150900Y-11619786D01*
X24057714Y-11526600D01*
X24057711Y-11526598D01*
X24057709Y-11526596D01*
X23943589Y-11460709D01*
X23943591Y-11460709D01*
X23894199Y-11447475D01*
X23816292Y-11426600D01*
X23684508Y-11426600D01*
X23606600Y-11447475D01*
X23557209Y-11460709D01*
X23443090Y-11526596D01*
X23349896Y-11619790D01*
X23284009Y-11733909D01*
X23284008Y-11733914D01*
X23249900Y-11861208D01*
X23249900Y-11992992D01*
X23263403Y-12043386D01*
X23284009Y-12120290D01*
X23349896Y-12234409D01*
X23349898Y-12234411D01*
X23349900Y-12234414D01*
X23395905Y-12280419D01*
X23423681Y-12334934D01*
X23424900Y-12350421D01*
X23424900Y-17308665D01*
X23405993Y-17366856D01*
X23395904Y-17378669D01*
X19219520Y-21555052D01*
X19165003Y-21582829D01*
X19104571Y-21573258D01*
X19061306Y-21529993D01*
X19051735Y-21469561D01*
X19053886Y-21459441D01*
X19066600Y-21411992D01*
X19066600Y-21346933D01*
X19085507Y-21288742D01*
X19095590Y-21276935D01*
X22406259Y-17966266D01*
X22406262Y-17966265D01*
X22466865Y-17905662D01*
X22509718Y-17831438D01*
X22513742Y-17816420D01*
X22531901Y-17748653D01*
X22531901Y-17662947D01*
X22531901Y-17656885D01*
X22531900Y-17656867D01*
X22531900Y-15234021D01*
X22550807Y-15175830D01*
X22560890Y-15164023D01*
X22606900Y-15118014D01*
X22632619Y-15073467D01*
X22672790Y-15003890D01*
X22672790Y-15003888D01*
X22672792Y-15003886D01*
X22706900Y-14876592D01*
X22706900Y-14744808D01*
X22672792Y-14617514D01*
X22672790Y-14617511D01*
X22672790Y-14617509D01*
X22606903Y-14503390D01*
X22606901Y-14503388D01*
X22606900Y-14503386D01*
X22513714Y-14410200D01*
X22513711Y-14410198D01*
X22513709Y-14410196D01*
X22399589Y-14344309D01*
X22399591Y-14344309D01*
X22350199Y-14331075D01*
X22272292Y-14310200D01*
X22140508Y-14310200D01*
X22062600Y-14331075D01*
X22013209Y-14344309D01*
X21899090Y-14410196D01*
X21805896Y-14503390D01*
X21740009Y-14617509D01*
X21720939Y-14688678D01*
X21705900Y-14744808D01*
X21705900Y-14876592D01*
X21711773Y-14898509D01*
X21740009Y-15003890D01*
X21805896Y-15118009D01*
X21805898Y-15118011D01*
X21805900Y-15118014D01*
X21851905Y-15164019D01*
X21879681Y-15218534D01*
X21880900Y-15234021D01*
X21880900Y-17529965D01*
X21861993Y-17588156D01*
X21851904Y-17599969D01*
X18635269Y-20816604D01*
X18580752Y-20844381D01*
X18565265Y-20845600D01*
X18500208Y-20845600D01*
X18422300Y-20866475D01*
X18372909Y-20879709D01*
X18258790Y-20945596D01*
X18258789Y-20945597D01*
X18258786Y-20945599D01*
X18258786Y-20945600D01*
X18226001Y-20978384D01*
X18171487Y-21006160D01*
X18111055Y-20996589D01*
X18067790Y-20953324D01*
X18057000Y-20908379D01*
X18057000Y-20565245D01*
X18056999Y-20565244D01*
X18055461Y-20559502D01*
X18055459Y-20559498D01*
X18034818Y-20482461D01*
X18023288Y-20462490D01*
X17991968Y-20408242D01*
X17991966Y-20408240D01*
X17991965Y-20408238D01*
X17922227Y-20338500D01*
X17894452Y-20283986D01*
X17904023Y-20223554D01*
X17922226Y-20198498D01*
X21366159Y-16754566D01*
X21366162Y-16754565D01*
X21426765Y-16693962D01*
X21469618Y-16619738D01*
X21480518Y-16579059D01*
X21491801Y-16536953D01*
X21491801Y-16451247D01*
X21491801Y-16445185D01*
X21491800Y-16445167D01*
X21491800Y-4831234D01*
X21510707Y-4773043D01*
X21520790Y-4761236D01*
X22505465Y-3776562D01*
X22548318Y-3702339D01*
X22570500Y-3619553D01*
X22570500Y-3549500D01*
X22589407Y-3491309D01*
X22638907Y-3455345D01*
X22669500Y-3450500D01*
X23519747Y-3450500D01*
X23519748Y-3450500D01*
X23578231Y-3438867D01*
X23644552Y-3394552D01*
X23688867Y-3328231D01*
X23700500Y-3269748D01*
X23700500Y-2230252D01*
X23688867Y-2171769D01*
X23644552Y-2105448D01*
X23644548Y-2105445D01*
X23578233Y-2061134D01*
X23578231Y-2061133D01*
X23578228Y-2061132D01*
X23578227Y-2061132D01*
X23519758Y-2049501D01*
X23519748Y-2049500D01*
X20970252Y-2049500D01*
X20970251Y-2049500D01*
X20970241Y-2049501D01*
X20911772Y-2061132D01*
X20911766Y-2061134D01*
X20845451Y-2105445D01*
X20845445Y-2105451D01*
X20801134Y-2171766D01*
X20801132Y-2171772D01*
X20789501Y-2230241D01*
X20789500Y-2230253D01*
X20789500Y-3269746D01*
X20789501Y-3269758D01*
X20797281Y-3308867D01*
X20801133Y-3328231D01*
X20845448Y-3394552D01*
X20911769Y-3438867D01*
X20956231Y-3447711D01*
X20970241Y-3450498D01*
X20970246Y-3450498D01*
X20970252Y-3450500D01*
X21671865Y-3450500D01*
X21730056Y-3469407D01*
X21766020Y-3518907D01*
X21766020Y-3580093D01*
X21741869Y-3619504D01*
X20905831Y-4455542D01*
X20862982Y-4529760D01*
X20862981Y-4529760D01*
X20862982Y-4529761D01*
X20840800Y-4612547D01*
X20840800Y-16318265D01*
X20821893Y-16376456D01*
X20811804Y-16388269D01*
X17286069Y-19914004D01*
X17231552Y-19941781D01*
X17216065Y-19943000D01*
X13255732Y-19943000D01*
X13255716Y-19942999D01*
X13249653Y-19942999D01*
X13163947Y-19942999D01*
X13163944Y-19942999D01*
X13081162Y-19965181D01*
X13081158Y-19965183D01*
X13006938Y-20008034D01*
X12951981Y-20062989D01*
X12951976Y-20062996D01*
X12946333Y-20068638D01*
X12946333Y-20068639D01*
X12919559Y-20095414D01*
X12909770Y-20105203D01*
X12855254Y-20132981D01*
X12839766Y-20134200D01*
X10321135Y-20134200D01*
X10262944Y-20115293D01*
X10226980Y-20065793D01*
X10226980Y-20004607D01*
X10251131Y-19965196D01*
X11671431Y-18544896D01*
X11725948Y-18517119D01*
X11741435Y-18515900D01*
X16170478Y-18515900D01*
X16228669Y-18534807D01*
X16240481Y-18544896D01*
X16286484Y-18590899D01*
X16286490Y-18590903D01*
X16400610Y-18656790D01*
X16400608Y-18656790D01*
X16400612Y-18656791D01*
X16400614Y-18656792D01*
X16527908Y-18690900D01*
X16527910Y-18690900D01*
X16659690Y-18690900D01*
X16659692Y-18690900D01*
X16786986Y-18656792D01*
X16786988Y-18656790D01*
X16786990Y-18656790D01*
X16901109Y-18590903D01*
X16901109Y-18590902D01*
X16901114Y-18590900D01*
X16994300Y-18497714D01*
X17007900Y-18474159D01*
X17060190Y-18383590D01*
X17060190Y-18383588D01*
X17060192Y-18383586D01*
X17094300Y-18256292D01*
X17094300Y-18124508D01*
X17060192Y-17997214D01*
X17060190Y-17997211D01*
X17060190Y-17997209D01*
X16994303Y-17883090D01*
X16994301Y-17883088D01*
X16994300Y-17883086D01*
X16901114Y-17789900D01*
X16901111Y-17789898D01*
X16901109Y-17789896D01*
X16786989Y-17724009D01*
X16786991Y-17724009D01*
X16737599Y-17710775D01*
X16659692Y-17689900D01*
X16527908Y-17689900D01*
X16450000Y-17710775D01*
X16400609Y-17724009D01*
X16286490Y-17789896D01*
X16286484Y-17789900D01*
X16240481Y-17835904D01*
X16185964Y-17863681D01*
X16170478Y-17864900D01*
X11522747Y-17864900D01*
X11481354Y-17875991D01*
X11439960Y-17887082D01*
X11381603Y-17920775D01*
X11365741Y-17929932D01*
X3922431Y-25373242D01*
X3879582Y-25447460D01*
X3879581Y-25447460D01*
X3879582Y-25447461D01*
X3879582Y-25447462D01*
X3857400Y-25530247D01*
X3857400Y-33063447D01*
X3857400Y-33149153D01*
X3876962Y-33222163D01*
X3879583Y-33231943D01*
X3922431Y-33306157D01*
X3922433Y-33306159D01*
X3922435Y-33306162D01*
X9610405Y-38994132D01*
X9638181Y-39048647D01*
X9639400Y-39064134D01*
X9639400Y-39129192D01*
X9653693Y-39182535D01*
X9673509Y-39256490D01*
X9739396Y-39370609D01*
X9739398Y-39370611D01*
X9739400Y-39370614D01*
X9807165Y-39438379D01*
X9834941Y-39492894D01*
X9825370Y-39553326D01*
X9782105Y-39596591D01*
X9756474Y-39605479D01*
X9583581Y-39639869D01*
X9392402Y-39719058D01*
X9220348Y-39834020D01*
X9074020Y-39980348D01*
X8959058Y-40152402D01*
X8879869Y-40343581D01*
X8839500Y-40546532D01*
X8839500Y-40753467D01*
X8879869Y-40956418D01*
X8959058Y-41147597D01*
X9066799Y-41308844D01*
X9074023Y-41319655D01*
X9220345Y-41465977D01*
X9392402Y-41580941D01*
X9583580Y-41660130D01*
X9786535Y-41700500D01*
X9786536Y-41700500D01*
X9993464Y-41700500D01*
X9993465Y-41700500D01*
X10196420Y-41660130D01*
X10387598Y-41580941D01*
X10559655Y-41465977D01*
X10705977Y-41319655D01*
X10820941Y-41147598D01*
X10900130Y-40956420D01*
X10940500Y-40753465D01*
X10940500Y-40546535D01*
X10900130Y-40343580D01*
X10820941Y-40152402D01*
X10705977Y-39980345D01*
X10559655Y-39834023D01*
X10559651Y-39834020D01*
X10387597Y-39719058D01*
X10350350Y-39703630D01*
X10303824Y-39663893D01*
X10289541Y-39604398D01*
X10312956Y-39547870D01*
X10338732Y-39526432D01*
X10447214Y-39463800D01*
X10540400Y-39370614D01*
X10606292Y-39256486D01*
X10635572Y-39147208D01*
X10668895Y-39095896D01*
X10726016Y-39073969D01*
X10785117Y-39089804D01*
X10801202Y-39102829D01*
X12195369Y-40496996D01*
X12223146Y-40551513D01*
X12213575Y-40611945D01*
X12195369Y-40637004D01*
X8581521Y-44250852D01*
X8527004Y-44278629D01*
X8466572Y-44269058D01*
X8423307Y-44225793D01*
X8413736Y-44165361D01*
X8429200Y-44125850D01*
X8479874Y-44050012D01*
X8532680Y-43922529D01*
X8559599Y-43787194D01*
X8559599Y-43649206D01*
X8532680Y-43513872D01*
X8479874Y-43386389D01*
X8403213Y-43271657D01*
X8305643Y-43174087D01*
X8305639Y-43174084D01*
X8190910Y-43097425D01*
X8063431Y-43044621D01*
X8063425Y-43044619D01*
X7928096Y-43017701D01*
X7928094Y-43017701D01*
X7790106Y-43017701D01*
X7790103Y-43017701D01*
X7654773Y-43044619D01*
X7654767Y-43044621D01*
X7527288Y-43097425D01*
X7412555Y-43174088D01*
X6817738Y-43768904D01*
X6763222Y-43796681D01*
X6747735Y-43797900D01*
X3427514Y-43797900D01*
X3369323Y-43778993D01*
X3333359Y-43729493D01*
X3331887Y-43673277D01*
X3338337Y-43649206D01*
X3366100Y-43545592D01*
X3366100Y-43413808D01*
X3331992Y-43286514D01*
X3331990Y-43286511D01*
X3331990Y-43286509D01*
X3266103Y-43172390D01*
X3266099Y-43172384D01*
X3220096Y-43126381D01*
X3192319Y-43071864D01*
X3191100Y-43056378D01*
X3191100Y-42473140D01*
X3191101Y-42473127D01*
X3191101Y-42379446D01*
X3191100Y-42379444D01*
X3168918Y-42296662D01*
X3168916Y-42296658D01*
X3126066Y-42222440D01*
X3126065Y-42222438D01*
X3065462Y-42161835D01*
X3065459Y-42161833D01*
X3062004Y-42158377D01*
X3061998Y-42158372D01*
X2773130Y-41869503D01*
X2745353Y-41814987D01*
X2754924Y-41754555D01*
X2798189Y-41711290D01*
X2843134Y-41700500D01*
X3139747Y-41700500D01*
X3139748Y-41700500D01*
X3198231Y-41688867D01*
X3264552Y-41644552D01*
X3308867Y-41578231D01*
X3320500Y-41519748D01*
X3320500Y-40546532D01*
X3759500Y-40546532D01*
X3759500Y-40753467D01*
X3799869Y-40956418D01*
X3879058Y-41147597D01*
X3986799Y-41308844D01*
X3994023Y-41319655D01*
X4140345Y-41465977D01*
X4312402Y-41580941D01*
X4503580Y-41660130D01*
X4706535Y-41700500D01*
X4706536Y-41700500D01*
X4913464Y-41700500D01*
X4913465Y-41700500D01*
X5116420Y-41660130D01*
X5307598Y-41580941D01*
X5479655Y-41465977D01*
X5625977Y-41319655D01*
X5740941Y-41147598D01*
X5820130Y-40956420D01*
X5860500Y-40753465D01*
X5860500Y-40546535D01*
X5860499Y-40546532D01*
X6299500Y-40546532D01*
X6299500Y-40753467D01*
X6339869Y-40956418D01*
X6419058Y-41147597D01*
X6526799Y-41308844D01*
X6534023Y-41319655D01*
X6680345Y-41465977D01*
X6852402Y-41580941D01*
X7043580Y-41660130D01*
X7246535Y-41700500D01*
X7246536Y-41700500D01*
X7453464Y-41700500D01*
X7453465Y-41700500D01*
X7656420Y-41660130D01*
X7847598Y-41580941D01*
X8019655Y-41465977D01*
X8165977Y-41319655D01*
X8280941Y-41147598D01*
X8360130Y-40956420D01*
X8400500Y-40753465D01*
X8400500Y-40546535D01*
X8360130Y-40343580D01*
X8280941Y-40152402D01*
X8165977Y-39980345D01*
X8019655Y-39834023D01*
X8019651Y-39834020D01*
X7847597Y-39719058D01*
X7656418Y-39639869D01*
X7453467Y-39599500D01*
X7453465Y-39599500D01*
X7246535Y-39599500D01*
X7246532Y-39599500D01*
X7043581Y-39639869D01*
X6852402Y-39719058D01*
X6680348Y-39834020D01*
X6534020Y-39980348D01*
X6419058Y-40152402D01*
X6339869Y-40343581D01*
X6299500Y-40546532D01*
X5860499Y-40546532D01*
X5820130Y-40343580D01*
X5740941Y-40152402D01*
X5625977Y-39980345D01*
X5479655Y-39834023D01*
X5479651Y-39834020D01*
X5307597Y-39719058D01*
X5116418Y-39639869D01*
X4913467Y-39599500D01*
X4913465Y-39599500D01*
X4706535Y-39599500D01*
X4706532Y-39599500D01*
X4503581Y-39639869D01*
X4312402Y-39719058D01*
X4140348Y-39834020D01*
X3994020Y-39980348D01*
X3879058Y-40152402D01*
X3799869Y-40343581D01*
X3759500Y-40546532D01*
X3320500Y-40546532D01*
X3320500Y-39780252D01*
X3308867Y-39721769D01*
X3264552Y-39655448D01*
X3264548Y-39655445D01*
X3198233Y-39611134D01*
X3198231Y-39611133D01*
X3198228Y-39611132D01*
X3198227Y-39611132D01*
X3139758Y-39599501D01*
X3139748Y-39599500D01*
X1400252Y-39599500D01*
X1400251Y-39599500D01*
X1400241Y-39599501D01*
X1341772Y-39611132D01*
X1341766Y-39611134D01*
X1275451Y-39655445D01*
X1275445Y-39655451D01*
X1231134Y-39721766D01*
X1231132Y-39721772D01*
X1219501Y-39780241D01*
X1219500Y-39780253D01*
X1219500Y-41519746D01*
X1219501Y-41519758D01*
X1231132Y-41578227D01*
X1231134Y-41578233D01*
X1247195Y-41602269D01*
X1275448Y-41644552D01*
X1275451Y-41644554D01*
X1330871Y-41681585D01*
X1368750Y-41729635D01*
X1371152Y-41790773D01*
X1337159Y-41841647D01*
X1279755Y-41862824D01*
X1275869Y-41862900D01*
X1207904Y-41862900D01*
X1072572Y-41889820D01*
X1072570Y-41889820D01*
X945093Y-41942622D01*
X945082Y-41942628D01*
X830358Y-42019285D01*
X732789Y-42116854D01*
X681815Y-42193141D01*
X633764Y-42231019D01*
X572626Y-42233421D01*
X521753Y-42199427D01*
X500576Y-42142023D01*
X500500Y-42138138D01*
X500500Y-22060408D01*
X1100700Y-22060408D01*
X1100700Y-22192192D01*
X1122027Y-22271786D01*
X1134809Y-22319490D01*
X1200696Y-22433609D01*
X1200698Y-22433611D01*
X1200700Y-22433614D01*
X1293886Y-22526800D01*
X1293888Y-22526801D01*
X1293890Y-22526803D01*
X1408010Y-22592690D01*
X1408008Y-22592690D01*
X1408012Y-22592691D01*
X1408014Y-22592692D01*
X1535308Y-22626800D01*
X1535310Y-22626800D01*
X1667090Y-22626800D01*
X1667092Y-22626800D01*
X1794386Y-22592692D01*
X1794388Y-22592690D01*
X1794390Y-22592690D01*
X1908509Y-22526803D01*
X1908509Y-22526802D01*
X1908514Y-22526800D01*
X2001700Y-22433614D01*
X2004414Y-22428914D01*
X2067590Y-22319490D01*
X2067590Y-22319488D01*
X2067592Y-22319486D01*
X2101700Y-22192192D01*
X2101700Y-22127134D01*
X2120607Y-22068943D01*
X2130690Y-22057136D01*
X4213937Y-19973888D01*
X4268452Y-19946113D01*
X4328884Y-19955684D01*
X4369675Y-19994394D01*
X4427996Y-20095409D01*
X4427998Y-20095411D01*
X4428000Y-20095414D01*
X4474005Y-20141419D01*
X4501781Y-20195934D01*
X4503000Y-20211421D01*
X4503000Y-21686865D01*
X4484093Y-21745056D01*
X4474004Y-21756869D01*
X1670369Y-24560504D01*
X1615852Y-24588281D01*
X1600365Y-24589500D01*
X1535308Y-24589500D01*
X1457400Y-24610375D01*
X1408009Y-24623609D01*
X1293890Y-24689496D01*
X1200696Y-24782690D01*
X1134809Y-24896809D01*
X1134808Y-24896814D01*
X1100700Y-25024108D01*
X1100700Y-25155892D01*
X1121486Y-25233467D01*
X1134809Y-25283190D01*
X1200696Y-25397309D01*
X1200698Y-25397311D01*
X1200700Y-25397314D01*
X1293886Y-25490500D01*
X1293888Y-25490501D01*
X1293890Y-25490503D01*
X1408010Y-25556390D01*
X1408008Y-25556390D01*
X1408012Y-25556391D01*
X1408014Y-25556392D01*
X1535308Y-25590500D01*
X1535310Y-25590500D01*
X1667090Y-25590500D01*
X1667092Y-25590500D01*
X1794386Y-25556392D01*
X1794388Y-25556390D01*
X1794390Y-25556390D01*
X1908509Y-25490503D01*
X1908509Y-25490502D01*
X1908514Y-25490500D01*
X2001700Y-25397314D01*
X2025870Y-25355451D01*
X2067590Y-25283190D01*
X2067590Y-25283188D01*
X2067592Y-25283186D01*
X2101700Y-25155892D01*
X2101700Y-25090834D01*
X2120607Y-25032643D01*
X2130690Y-25020836D01*
X5088965Y-22062562D01*
X5104609Y-22035465D01*
X5131818Y-21988338D01*
X5154000Y-21905553D01*
X5154000Y-20211421D01*
X5172907Y-20153230D01*
X5182990Y-20141423D01*
X5229000Y-20095414D01*
X5277879Y-20010754D01*
X5294890Y-19981290D01*
X5294890Y-19981288D01*
X5294892Y-19981286D01*
X5329000Y-19853992D01*
X5329000Y-19722208D01*
X5294892Y-19594914D01*
X5294890Y-19594911D01*
X5294890Y-19594909D01*
X5229003Y-19480790D01*
X5229001Y-19480788D01*
X5229000Y-19480786D01*
X5135814Y-19387600D01*
X5135811Y-19387598D01*
X5135809Y-19387596D01*
X5034794Y-19329275D01*
X4993853Y-19283806D01*
X4987457Y-19222955D01*
X5014288Y-19173537D01*
X10283865Y-13903962D01*
X10326717Y-13829739D01*
X10326718Y-13829738D01*
X10348900Y-13746953D01*
X10348900Y-4767421D01*
X10367807Y-4709230D01*
X10377890Y-4697423D01*
X10423900Y-4651414D01*
X10489792Y-4537286D01*
X10523900Y-4409992D01*
X10523900Y-4278208D01*
X10489792Y-4150914D01*
X10489790Y-4150911D01*
X10489790Y-4150909D01*
X10423903Y-4036790D01*
X10423901Y-4036788D01*
X10423900Y-4036786D01*
X10330714Y-3943600D01*
X10330711Y-3943598D01*
X10330709Y-3943596D01*
X10216589Y-3877709D01*
X10216591Y-3877709D01*
X10167199Y-3864475D01*
X10089292Y-3843600D01*
X9957508Y-3843600D01*
X9879600Y-3864475D01*
X9830209Y-3877709D01*
X9716090Y-3943596D01*
X9622896Y-4036790D01*
X9557009Y-4150909D01*
X9557008Y-4150914D01*
X9522900Y-4278208D01*
X9522900Y-4409992D01*
X9535104Y-4455538D01*
X9557009Y-4537290D01*
X9622896Y-4651409D01*
X9622898Y-4651411D01*
X9622900Y-4651414D01*
X9668905Y-4697419D01*
X9696681Y-4751934D01*
X9697900Y-4767421D01*
X9697900Y-13528265D01*
X9678993Y-13586456D01*
X9668904Y-13598269D01*
X1670369Y-21596804D01*
X1615852Y-21624581D01*
X1600365Y-21625800D01*
X1535308Y-21625800D01*
X1457400Y-21646675D01*
X1408009Y-21659909D01*
X1293890Y-21725796D01*
X1200696Y-21818990D01*
X1134809Y-21933109D01*
X1134808Y-21933114D01*
X1100700Y-22060408D01*
X500500Y-22060408D01*
X500500Y-3878710D01*
X2149500Y-3878710D01*
X2149500Y-4121289D01*
X2181161Y-4361781D01*
X2181161Y-4361786D01*
X2243944Y-4596092D01*
X2243948Y-4596105D01*
X2336772Y-4820204D01*
X2336774Y-4820208D01*
X2336776Y-4820212D01*
X2390616Y-4913465D01*
X2458066Y-5030292D01*
X2605729Y-5222731D01*
X2605731Y-5222733D01*
X2605735Y-5222738D01*
X2777262Y-5394265D01*
X2777266Y-5394268D01*
X2777268Y-5394270D01*
X2969707Y-5541933D01*
X2969711Y-5541936D01*
X3179788Y-5663224D01*
X3403900Y-5756054D01*
X3638211Y-5818838D01*
X3878712Y-5850500D01*
X3878713Y-5850500D01*
X4121287Y-5850500D01*
X4121288Y-5850500D01*
X4361789Y-5818838D01*
X4596100Y-5756054D01*
X4820212Y-5663224D01*
X5030289Y-5541936D01*
X5222738Y-5394265D01*
X5394265Y-5222738D01*
X5541936Y-5030289D01*
X5663224Y-4820212D01*
X5756054Y-4596100D01*
X5818838Y-4361789D01*
X5850500Y-4121288D01*
X5850500Y-3878712D01*
X5818838Y-3638211D01*
X5756054Y-3403900D01*
X5663224Y-3179788D01*
X5541936Y-2969711D01*
X5394265Y-2777262D01*
X5222738Y-2605735D01*
X5222733Y-2605731D01*
X5222731Y-2605729D01*
X5030292Y-2458066D01*
X4943092Y-2407721D01*
X4820212Y-2336776D01*
X4820208Y-2336774D01*
X4820204Y-2336772D01*
X4596105Y-2243948D01*
X4596104Y-2243947D01*
X4596100Y-2243946D01*
X4361789Y-2181162D01*
X4361786Y-2181161D01*
X4361784Y-2181161D01*
X4121289Y-2149500D01*
X4121288Y-2149500D01*
X3878712Y-2149500D01*
X3878710Y-2149500D01*
X3638218Y-2181161D01*
X3638213Y-2181161D01*
X3403907Y-2243944D01*
X3403894Y-2243948D01*
X3179795Y-2336772D01*
X2969707Y-2458066D01*
X2777268Y-2605729D01*
X2605729Y-2777268D01*
X2458066Y-2969707D01*
X2336772Y-3179795D01*
X2243948Y-3403894D01*
X2243944Y-3403907D01*
X2181161Y-3638213D01*
X2181161Y-3638218D01*
X2149500Y-3878710D01*
X500500Y-3878710D01*
X500500Y-3002984D01*
X500681Y-2997007D01*
X510902Y-2828032D01*
X518362Y-2704687D01*
X519801Y-2692836D01*
X572052Y-2407714D01*
X574906Y-2396131D01*
X661152Y-2119355D01*
X665374Y-2108224D01*
X784349Y-1843873D01*
X789898Y-1833302D01*
X939860Y-1585233D01*
X946631Y-1575423D01*
X1083868Y-1400253D01*
X29559500Y-1400253D01*
X29559500Y-3139746D01*
X29559501Y-3139758D01*
X29571132Y-3198227D01*
X29571134Y-3198233D01*
X29615445Y-3264548D01*
X29615448Y-3264552D01*
X29681769Y-3308867D01*
X29726231Y-3317711D01*
X29740241Y-3320498D01*
X29740246Y-3320498D01*
X29740252Y-3320500D01*
X29740253Y-3320500D01*
X31479747Y-3320500D01*
X31479748Y-3320500D01*
X31538231Y-3308867D01*
X31604552Y-3264552D01*
X31648867Y-3198231D01*
X31660500Y-3139748D01*
X31660500Y-2166532D01*
X47339500Y-2166532D01*
X47339500Y-2373467D01*
X47379869Y-2576418D01*
X47459058Y-2767597D01*
X47574020Y-2939651D01*
X47574023Y-2939655D01*
X47720345Y-3085977D01*
X47892402Y-3200941D01*
X48083580Y-3280130D01*
X48286535Y-3320500D01*
X48286536Y-3320500D01*
X48493464Y-3320500D01*
X48493465Y-3320500D01*
X48696420Y-3280130D01*
X48887598Y-3200941D01*
X49059655Y-3085977D01*
X49205977Y-2939655D01*
X49320941Y-2767598D01*
X49400130Y-2576420D01*
X49440500Y-2373465D01*
X49440500Y-2166535D01*
X49400130Y-1963580D01*
X49320941Y-1772402D01*
X49218255Y-1618720D01*
X49218254Y-1618719D01*
X49205980Y-1600349D01*
X49205979Y-1600348D01*
X49205977Y-1600345D01*
X49175840Y-1570208D01*
X50014000Y-1570208D01*
X50014000Y-1701992D01*
X50032866Y-1772402D01*
X50048109Y-1829290D01*
X50113996Y-1943409D01*
X50113998Y-1943411D01*
X50114000Y-1943414D01*
X50207186Y-2036600D01*
X50207188Y-2036601D01*
X50207190Y-2036603D01*
X50321310Y-2102490D01*
X50321308Y-2102490D01*
X50321312Y-2102491D01*
X50321314Y-2102492D01*
X50448608Y-2136600D01*
X50513665Y-2136600D01*
X50571856Y-2155507D01*
X50583669Y-2165596D01*
X53523304Y-5105231D01*
X53551081Y-5159748D01*
X53552300Y-5175235D01*
X53552300Y-5697478D01*
X53533393Y-5755669D01*
X53523304Y-5767481D01*
X53477300Y-5813484D01*
X53477296Y-5813490D01*
X53411409Y-5927609D01*
X53411408Y-5927614D01*
X53377300Y-6054908D01*
X53377300Y-6186692D01*
X53385596Y-6217653D01*
X53411409Y-6313990D01*
X53477296Y-6428109D01*
X53477298Y-6428111D01*
X53477300Y-6428114D01*
X53570486Y-6521300D01*
X53570488Y-6521301D01*
X53570490Y-6521303D01*
X53684610Y-6587190D01*
X53684608Y-6587190D01*
X53684612Y-6587191D01*
X53684614Y-6587192D01*
X53811908Y-6621300D01*
X53811910Y-6621300D01*
X53943690Y-6621300D01*
X53943692Y-6621300D01*
X54070986Y-6587192D01*
X54070988Y-6587190D01*
X54070990Y-6587190D01*
X54185109Y-6521303D01*
X54185109Y-6521302D01*
X54185114Y-6521300D01*
X54278300Y-6428114D01*
X54344192Y-6313986D01*
X54378300Y-6186692D01*
X54378300Y-6054908D01*
X54344192Y-5927614D01*
X54344190Y-5927611D01*
X54344190Y-5927609D01*
X54278303Y-5813490D01*
X54278299Y-5813484D01*
X54232296Y-5767481D01*
X54204519Y-5712964D01*
X54203300Y-5697478D01*
X54203300Y-4956548D01*
X54203300Y-4956547D01*
X54181118Y-4873762D01*
X54138265Y-4799538D01*
X54111770Y-4773043D01*
X54077662Y-4738934D01*
X54077662Y-4738935D01*
X53217437Y-3878710D01*
X69149500Y-3878710D01*
X69149500Y-4121289D01*
X69181161Y-4361781D01*
X69181161Y-4361786D01*
X69243944Y-4596092D01*
X69243948Y-4596105D01*
X69336772Y-4820204D01*
X69336774Y-4820208D01*
X69336776Y-4820212D01*
X69390616Y-4913465D01*
X69458066Y-5030292D01*
X69605729Y-5222731D01*
X69605731Y-5222733D01*
X69605735Y-5222738D01*
X69777262Y-5394265D01*
X69777266Y-5394268D01*
X69777268Y-5394270D01*
X69969707Y-5541933D01*
X69969711Y-5541936D01*
X70179788Y-5663224D01*
X70403900Y-5756054D01*
X70638211Y-5818838D01*
X70878712Y-5850500D01*
X70878713Y-5850500D01*
X71121287Y-5850500D01*
X71121288Y-5850500D01*
X71361789Y-5818838D01*
X71596100Y-5756054D01*
X71820212Y-5663224D01*
X72030289Y-5541936D01*
X72222738Y-5394265D01*
X72394265Y-5222738D01*
X72541936Y-5030289D01*
X72663224Y-4820212D01*
X72756054Y-4596100D01*
X72818838Y-4361789D01*
X72850500Y-4121288D01*
X72850500Y-3878712D01*
X72818838Y-3638211D01*
X72756054Y-3403900D01*
X72663224Y-3179788D01*
X72541936Y-2969711D01*
X72394265Y-2777262D01*
X72222738Y-2605735D01*
X72222733Y-2605731D01*
X72222731Y-2605729D01*
X72030292Y-2458066D01*
X71943092Y-2407721D01*
X71820212Y-2336776D01*
X71820208Y-2336774D01*
X71820204Y-2336772D01*
X71596105Y-2243948D01*
X71596104Y-2243947D01*
X71596100Y-2243946D01*
X71361789Y-2181162D01*
X71361786Y-2181161D01*
X71361784Y-2181161D01*
X71121289Y-2149500D01*
X71121288Y-2149500D01*
X70878712Y-2149500D01*
X70878710Y-2149500D01*
X70638218Y-2181161D01*
X70638213Y-2181161D01*
X70403907Y-2243944D01*
X70403894Y-2243948D01*
X70179795Y-2336772D01*
X69969707Y-2458066D01*
X69777268Y-2605729D01*
X69605729Y-2777268D01*
X69458066Y-2969707D01*
X69336772Y-3179795D01*
X69243948Y-3403894D01*
X69243944Y-3403907D01*
X69181161Y-3638213D01*
X69181161Y-3638218D01*
X69149500Y-3878710D01*
X53217437Y-3878710D01*
X51043996Y-1705269D01*
X51016219Y-1650752D01*
X51015000Y-1635265D01*
X51015000Y-1570209D01*
X50996600Y-1501538D01*
X50980892Y-1442914D01*
X50980890Y-1442911D01*
X50980890Y-1442909D01*
X50915003Y-1328790D01*
X50915001Y-1328788D01*
X50915000Y-1328786D01*
X50821814Y-1235600D01*
X50821811Y-1235598D01*
X50821809Y-1235596D01*
X50707689Y-1169709D01*
X50707691Y-1169709D01*
X50658299Y-1156475D01*
X50580392Y-1135600D01*
X50448608Y-1135600D01*
X50370700Y-1156475D01*
X50321309Y-1169709D01*
X50207190Y-1235596D01*
X50113996Y-1328790D01*
X50048109Y-1442909D01*
X50048108Y-1442914D01*
X50014000Y-1570208D01*
X49175840Y-1570208D01*
X49059655Y-1454023D01*
X49059651Y-1454020D01*
X48887597Y-1339058D01*
X48696418Y-1259869D01*
X48493467Y-1219500D01*
X48493465Y-1219500D01*
X48286535Y-1219500D01*
X48286532Y-1219500D01*
X48083581Y-1259869D01*
X47892402Y-1339058D01*
X47720348Y-1454020D01*
X47574020Y-1600348D01*
X47459058Y-1772402D01*
X47379869Y-1963581D01*
X47339500Y-2166532D01*
X31660500Y-2166532D01*
X31660500Y-1400252D01*
X31648867Y-1341769D01*
X31604552Y-1275448D01*
X31604548Y-1275445D01*
X31538233Y-1231134D01*
X31538231Y-1231133D01*
X31538228Y-1231132D01*
X31538227Y-1231132D01*
X31479758Y-1219501D01*
X31479748Y-1219500D01*
X29740252Y-1219500D01*
X29740251Y-1219500D01*
X29740241Y-1219501D01*
X29681772Y-1231132D01*
X29681766Y-1231134D01*
X29615451Y-1275445D01*
X29615445Y-1275451D01*
X29571134Y-1341766D01*
X29571132Y-1341772D01*
X29559501Y-1400241D01*
X29559500Y-1400253D01*
X1083868Y-1400253D01*
X1125406Y-1347234D01*
X1133318Y-1338302D01*
X1338302Y-1133318D01*
X1347234Y-1125406D01*
X1575423Y-946631D01*
X1585233Y-939860D01*
X1833302Y-789898D01*
X1843873Y-784349D01*
X2108224Y-665374D01*
X2119355Y-661152D01*
X2396131Y-574906D01*
X2407714Y-572052D01*
X2692836Y-519801D01*
X2704687Y-518362D01*
X2997008Y-500681D01*
X3002985Y-500500D01*
X3065892Y-500500D01*
X71934108Y-500500D01*
X71997015Y-500500D01*
X72002992Y-500681D01*
G37*
%TD.AperFunction*%
%TA.AperFunction,Conductor*%
G36*
X29825001Y-51230633D02*
G01*
X29940345Y-51345977D01*
X30112402Y-51460941D01*
X30223386Y-51506911D01*
X30269911Y-51546647D01*
X30284500Y-51598375D01*
X30284500Y-57627147D01*
X30284500Y-57712853D01*
X30304062Y-57785863D01*
X30306683Y-57795643D01*
X30349531Y-57869857D01*
X30349532Y-57869858D01*
X30349533Y-57869859D01*
X30349535Y-57869862D01*
X32085402Y-59605729D01*
X33810169Y-61330496D01*
X33837946Y-61385013D01*
X33828375Y-61445445D01*
X33785110Y-61488710D01*
X33740165Y-61499500D01*
X33045684Y-61499500D01*
X33029398Y-61501644D01*
X32996825Y-61505932D01*
X32996824Y-61505932D01*
X32889598Y-61555933D01*
X32805933Y-61639598D01*
X32755932Y-61746824D01*
X32753813Y-61754098D01*
X32751971Y-61753561D01*
X32729867Y-61799887D01*
X32676093Y-61829075D01*
X32615432Y-61821080D01*
X32588061Y-61801734D01*
X29684996Y-58898669D01*
X29657219Y-58844152D01*
X29656000Y-58828665D01*
X29656000Y-51300639D01*
X29674907Y-51242448D01*
X29724407Y-51206484D01*
X29785593Y-51206484D01*
X29825001Y-51230633D01*
G37*
%TD.AperFunction*%
%TA.AperFunction,Conductor*%
G36*
X47680001Y-18285633D02*
G01*
X47720345Y-18325977D01*
X47892402Y-18440941D01*
X48083580Y-18520130D01*
X48286535Y-18560500D01*
X48286536Y-18560500D01*
X48493464Y-18560500D01*
X48493465Y-18560500D01*
X48696420Y-18520130D01*
X48807402Y-18474158D01*
X48868399Y-18469358D01*
X48915292Y-18495619D01*
X55517704Y-25098030D01*
X55545481Y-25152547D01*
X55546700Y-25168034D01*
X55546700Y-30506147D01*
X55546700Y-30591853D01*
X55547056Y-30593181D01*
X55568883Y-30674643D01*
X55611731Y-30748857D01*
X55611733Y-30748859D01*
X55611735Y-30748862D01*
X57847305Y-32984432D01*
X57875081Y-33038947D01*
X57876300Y-33054434D01*
X57876300Y-59818947D01*
X57876300Y-59904653D01*
X57893731Y-59969707D01*
X57898483Y-59987443D01*
X57941331Y-60061657D01*
X57941333Y-60061659D01*
X57941335Y-60061662D01*
X59210171Y-61330498D01*
X59237947Y-61385013D01*
X59228376Y-61445445D01*
X59185111Y-61488710D01*
X59140166Y-61499500D01*
X58445684Y-61499500D01*
X58429398Y-61501644D01*
X58396825Y-61505932D01*
X58396824Y-61505932D01*
X58289598Y-61555933D01*
X58205933Y-61639598D01*
X58168370Y-61720151D01*
X58126641Y-61764899D01*
X58066580Y-61776573D01*
X58011127Y-61750714D01*
X58008642Y-61748315D01*
X56614496Y-60354169D01*
X56586719Y-60299652D01*
X56585500Y-60284165D01*
X56585500Y-32957148D01*
X56585500Y-32957147D01*
X56563318Y-32874362D01*
X56563318Y-32874361D01*
X56563318Y-32874360D01*
X56520468Y-32800142D01*
X56520467Y-32800141D01*
X56520466Y-32800140D01*
X56520465Y-32800138D01*
X53641069Y-29920742D01*
X53613292Y-29866225D01*
X53622863Y-29805793D01*
X53666128Y-29762528D01*
X53711073Y-29751738D01*
X54646752Y-29751738D01*
X54646752Y-29751737D01*
X54677178Y-29748884D01*
X54805361Y-29704031D01*
X54914629Y-29623388D01*
X54995272Y-29514120D01*
X55040125Y-29385937D01*
X55042978Y-29355511D01*
X55042979Y-29355511D01*
X55042979Y-28146965D01*
X55042978Y-28146963D01*
X55040125Y-28116543D01*
X55040125Y-28116539D01*
X54995272Y-27988356D01*
X54991977Y-27983892D01*
X54914633Y-27879093D01*
X54914631Y-27879091D01*
X54914629Y-27879088D01*
X54914625Y-27879085D01*
X54914623Y-27879083D01*
X54805362Y-27798445D01*
X54677182Y-27753593D01*
X54677173Y-27753591D01*
X54646753Y-27750738D01*
X54646745Y-27750738D01*
X53438213Y-27750738D01*
X53438204Y-27750738D01*
X53407784Y-27753591D01*
X53407775Y-27753593D01*
X53279595Y-27798445D01*
X53170334Y-27879083D01*
X53170324Y-27879093D01*
X53089686Y-27988354D01*
X53044834Y-28116534D01*
X53044832Y-28116543D01*
X53041979Y-28146963D01*
X53041979Y-29082644D01*
X53023072Y-29140835D01*
X52973572Y-29176799D01*
X52912386Y-29176799D01*
X52872975Y-29152648D01*
X50109296Y-26388969D01*
X50081519Y-26334452D01*
X50080300Y-26318965D01*
X50080300Y-24005640D01*
X50080301Y-24005627D01*
X50080301Y-23911946D01*
X50080300Y-23911944D01*
X50076858Y-23899100D01*
X50064456Y-23852814D01*
X50058119Y-23829164D01*
X50058117Y-23829159D01*
X50039990Y-23797764D01*
X50039988Y-23797761D01*
X50037058Y-23792686D01*
X50015265Y-23754938D01*
X49954662Y-23694335D01*
X49954659Y-23694333D01*
X49375617Y-23115290D01*
X49347841Y-23060775D01*
X49354157Y-23007405D01*
X49400130Y-22896420D01*
X49440500Y-22693465D01*
X49440500Y-22486535D01*
X49400130Y-22283580D01*
X49320941Y-22092402D01*
X49205977Y-21920345D01*
X49059655Y-21774023D01*
X49059651Y-21774020D01*
X48887597Y-21659058D01*
X48696418Y-21579869D01*
X48493467Y-21539500D01*
X48493465Y-21539500D01*
X48286535Y-21539500D01*
X48286532Y-21539500D01*
X48083581Y-21579869D01*
X47892402Y-21659058D01*
X47720348Y-21774020D01*
X47720345Y-21774022D01*
X47720345Y-21774023D01*
X47680001Y-21814366D01*
X47625487Y-21842142D01*
X47565055Y-21832571D01*
X47521790Y-21789306D01*
X47511000Y-21744361D01*
X47511000Y-18355639D01*
X47529907Y-18297448D01*
X47579407Y-18261484D01*
X47640593Y-18261484D01*
X47680001Y-18285633D01*
G37*
%TD.AperFunction*%
%TA.AperFunction,Conductor*%
G36*
X30976256Y-19177307D02*
G01*
X30988069Y-19187396D01*
X31853704Y-20053031D01*
X31881481Y-20107548D01*
X31882700Y-20123035D01*
X31882700Y-22155778D01*
X31863793Y-22213969D01*
X31853704Y-22225781D01*
X31807700Y-22271784D01*
X31807698Y-22271787D01*
X31796014Y-22292025D01*
X31750543Y-22332964D01*
X31689693Y-22339358D01*
X31636706Y-22308764D01*
X31618817Y-22280410D01*
X31542721Y-22096700D01*
X31540942Y-22092404D01*
X31532276Y-22079435D01*
X31425977Y-21920345D01*
X31279655Y-21774023D01*
X31279651Y-21774020D01*
X31107597Y-21659058D01*
X30916418Y-21579869D01*
X30713467Y-21539500D01*
X30713465Y-21539500D01*
X30506535Y-21539500D01*
X30506532Y-21539500D01*
X30303581Y-21579869D01*
X30112402Y-21659058D01*
X29940348Y-21774020D01*
X29794020Y-21920348D01*
X29679058Y-22092402D01*
X29599869Y-22283581D01*
X29559500Y-22486532D01*
X29559500Y-22693467D01*
X29585698Y-22825170D01*
X29599869Y-22896417D01*
X29599870Y-22896419D01*
X29599870Y-22896421D01*
X29645840Y-23007403D01*
X29650640Y-23068400D01*
X29624380Y-23115292D01*
X19187832Y-33551841D01*
X19187831Y-33551842D01*
X19144983Y-33626056D01*
X19126376Y-33695501D01*
X19122800Y-33708848D01*
X19122800Y-35725378D01*
X19103893Y-35783569D01*
X19093804Y-35795381D01*
X19047800Y-35841384D01*
X19047796Y-35841390D01*
X18981909Y-35955509D01*
X18972455Y-35990792D01*
X18947800Y-36082808D01*
X18947800Y-36214592D01*
X18958402Y-36254158D01*
X18981909Y-36341890D01*
X19047796Y-36456009D01*
X19047798Y-36456011D01*
X19047800Y-36456014D01*
X19140986Y-36549200D01*
X19140988Y-36549201D01*
X19140990Y-36549203D01*
X19255110Y-36615090D01*
X19255108Y-36615090D01*
X19255112Y-36615091D01*
X19255114Y-36615092D01*
X19382408Y-36649200D01*
X19382410Y-36649200D01*
X19417065Y-36649200D01*
X19475256Y-36668107D01*
X19511220Y-36717607D01*
X19511220Y-36778793D01*
X19487069Y-36818204D01*
X16092769Y-40212504D01*
X16038252Y-40240281D01*
X16022765Y-40241500D01*
X12901535Y-40241500D01*
X12843344Y-40222593D01*
X12831531Y-40212504D01*
X7796296Y-35177269D01*
X7768519Y-35122752D01*
X7767300Y-35107265D01*
X7767300Y-27143334D01*
X7786207Y-27085143D01*
X7796296Y-27073330D01*
X10794630Y-24074996D01*
X10849147Y-24047219D01*
X10864634Y-24046000D01*
X10929690Y-24046000D01*
X10929692Y-24046000D01*
X11056986Y-24011892D01*
X11056988Y-24011890D01*
X11056990Y-24011890D01*
X11171109Y-23946003D01*
X11171109Y-23946002D01*
X11171114Y-23946000D01*
X11264300Y-23852814D01*
X11277072Y-23830693D01*
X11330190Y-23738690D01*
X11330190Y-23738688D01*
X11330192Y-23738686D01*
X11364300Y-23611392D01*
X11364300Y-23479608D01*
X11330192Y-23352314D01*
X11330190Y-23352311D01*
X11330190Y-23352309D01*
X11264303Y-23238190D01*
X11264301Y-23238188D01*
X11264300Y-23238186D01*
X11171114Y-23145000D01*
X11171111Y-23144998D01*
X11171109Y-23144996D01*
X11056989Y-23079109D01*
X11051907Y-23077004D01*
X11005382Y-23037267D01*
X10991098Y-22977773D01*
X11014513Y-22921245D01*
X11019776Y-22915549D01*
X12605830Y-21329496D01*
X12660347Y-21301719D01*
X12675834Y-21300500D01*
X13925166Y-21300500D01*
X13983357Y-21319407D01*
X14019321Y-21368907D01*
X14019321Y-21430093D01*
X13995171Y-21469501D01*
X11433259Y-24031414D01*
X8889532Y-26575141D01*
X8889531Y-26575142D01*
X8846683Y-26649357D01*
X8846682Y-26649359D01*
X8834543Y-26694660D01*
X8834544Y-26694661D01*
X8824500Y-26732147D01*
X8824500Y-29226678D01*
X8805593Y-29284869D01*
X8795504Y-29296681D01*
X8749500Y-29342684D01*
X8749496Y-29342690D01*
X8683609Y-29456809D01*
X8668253Y-29514120D01*
X8649500Y-29584108D01*
X8649500Y-29715892D01*
X8657713Y-29746542D01*
X8683609Y-29843190D01*
X8749496Y-29957309D01*
X8749498Y-29957311D01*
X8749500Y-29957314D01*
X8842686Y-30050500D01*
X8842688Y-30050501D01*
X8842690Y-30050503D01*
X8956810Y-30116390D01*
X8956808Y-30116390D01*
X8956812Y-30116391D01*
X8956814Y-30116392D01*
X9084108Y-30150500D01*
X9084110Y-30150500D01*
X9215890Y-30150500D01*
X9215892Y-30150500D01*
X9343186Y-30116392D01*
X9343188Y-30116390D01*
X9343190Y-30116390D01*
X9457309Y-30050503D01*
X9457309Y-30050502D01*
X9457314Y-30050500D01*
X9550500Y-29957314D01*
X9579368Y-29907314D01*
X9616390Y-29843190D01*
X9616390Y-29843188D01*
X9616392Y-29843186D01*
X9650500Y-29715892D01*
X9650500Y-29584108D01*
X9616392Y-29456814D01*
X9616390Y-29456811D01*
X9616390Y-29456809D01*
X9550503Y-29342690D01*
X9550499Y-29342684D01*
X9504496Y-29296681D01*
X9476719Y-29242164D01*
X9475500Y-29226678D01*
X9475500Y-26950835D01*
X9494407Y-26892644D01*
X9504496Y-26880831D01*
X14405831Y-21979496D01*
X14460348Y-21951719D01*
X14475835Y-21950500D01*
X16154318Y-21950500D01*
X16212509Y-21969407D01*
X16248473Y-22018907D01*
X16248473Y-22080093D01*
X16212509Y-22129593D01*
X16203818Y-22135236D01*
X16135990Y-22174396D01*
X16135984Y-22174400D01*
X16089981Y-22220404D01*
X16035464Y-22248181D01*
X16019978Y-22249400D01*
X15067453Y-22249400D01*
X14981747Y-22249400D01*
X14939914Y-22260609D01*
X14898956Y-22271583D01*
X14824742Y-22314431D01*
X13857731Y-23281442D01*
X13814883Y-23355656D01*
X13797680Y-23419861D01*
X13797679Y-23419860D01*
X13792700Y-23438444D01*
X13792700Y-30523178D01*
X13773793Y-30581369D01*
X13763704Y-30593181D01*
X13717700Y-30639184D01*
X13717698Y-30639187D01*
X13660327Y-30738557D01*
X13614857Y-30779497D01*
X13554007Y-30785892D01*
X13504587Y-30759060D01*
X13032296Y-30286769D01*
X13004519Y-30232252D01*
X13003300Y-30216765D01*
X13003300Y-27818821D01*
X13022207Y-27760630D01*
X13032290Y-27748823D01*
X13078300Y-27702814D01*
X13078303Y-27702809D01*
X13144190Y-27588690D01*
X13144190Y-27588688D01*
X13144192Y-27588686D01*
X13178300Y-27461392D01*
X13178300Y-27329608D01*
X13144192Y-27202314D01*
X13144190Y-27202311D01*
X13144190Y-27202309D01*
X13078303Y-27088190D01*
X13078301Y-27088188D01*
X13078300Y-27088186D01*
X12985114Y-26995000D01*
X12985111Y-26994998D01*
X12985109Y-26994996D01*
X12870989Y-26929109D01*
X12870991Y-26929109D01*
X12809268Y-26912571D01*
X12743692Y-26895000D01*
X12611908Y-26895000D01*
X12546332Y-26912571D01*
X12484609Y-26929109D01*
X12370490Y-26994996D01*
X12277296Y-27088190D01*
X12211409Y-27202309D01*
X12199835Y-27245504D01*
X12177300Y-27329608D01*
X12177300Y-27461392D01*
X12190887Y-27512100D01*
X12211409Y-27588690D01*
X12277296Y-27702809D01*
X12277298Y-27702811D01*
X12277300Y-27702814D01*
X12323305Y-27748819D01*
X12351081Y-27803334D01*
X12352300Y-27818821D01*
X12352300Y-30349747D01*
X12352300Y-30435453D01*
X12371242Y-30506147D01*
X12374483Y-30518243D01*
X12417331Y-30592457D01*
X12417333Y-30592459D01*
X12417335Y-30592462D01*
X13639033Y-31814159D01*
X13639035Y-31814162D01*
X13699638Y-31874765D01*
X13736747Y-31896189D01*
X13736749Y-31896191D01*
X13767776Y-31914105D01*
X13773861Y-31917618D01*
X13856647Y-31939801D01*
X13856649Y-31939801D01*
X13948416Y-31939801D01*
X13948432Y-31939800D01*
X14154065Y-31939800D01*
X14212256Y-31958707D01*
X14248220Y-32008207D01*
X14248220Y-32069393D01*
X14224069Y-32108804D01*
X10996947Y-35335925D01*
X10942430Y-35363702D01*
X10881998Y-35354131D01*
X10856941Y-35335926D01*
X10841715Y-35320701D01*
X10841709Y-35320696D01*
X10727589Y-35254809D01*
X10727591Y-35254809D01*
X10673243Y-35240247D01*
X10600292Y-35220700D01*
X10468508Y-35220700D01*
X10395557Y-35240247D01*
X10341209Y-35254809D01*
X10227090Y-35320696D01*
X10133896Y-35413890D01*
X10068009Y-35528009D01*
X10068008Y-35528014D01*
X10033900Y-35655308D01*
X10033900Y-35787092D01*
X10048448Y-35841386D01*
X10068009Y-35914390D01*
X10133896Y-36028509D01*
X10133898Y-36028511D01*
X10133900Y-36028514D01*
X10227086Y-36121700D01*
X10227088Y-36121701D01*
X10227090Y-36121703D01*
X10341210Y-36187590D01*
X10341208Y-36187590D01*
X10341212Y-36187591D01*
X10341214Y-36187592D01*
X10468508Y-36221700D01*
X10468510Y-36221700D01*
X10600290Y-36221700D01*
X10600292Y-36221700D01*
X10727586Y-36187592D01*
X10727588Y-36187590D01*
X10727590Y-36187590D01*
X10841709Y-36121703D01*
X10841710Y-36121702D01*
X10841714Y-36121700D01*
X10857437Y-36105977D01*
X10887719Y-36075696D01*
X10942236Y-36047919D01*
X10957722Y-36046700D01*
X11114851Y-36046700D01*
X11114853Y-36046700D01*
X11197639Y-36024518D01*
X11197641Y-36024516D01*
X11197643Y-36024516D01*
X11271857Y-35981668D01*
X11271857Y-35981667D01*
X11271862Y-35981665D01*
X16437117Y-30816408D01*
X17248300Y-30816408D01*
X17248300Y-30948192D01*
X17269142Y-31025977D01*
X17282409Y-31075490D01*
X17348296Y-31189609D01*
X17348298Y-31189611D01*
X17348300Y-31189614D01*
X17441486Y-31282800D01*
X17441488Y-31282801D01*
X17441490Y-31282803D01*
X17555610Y-31348690D01*
X17555608Y-31348690D01*
X17555612Y-31348691D01*
X17555614Y-31348692D01*
X17682908Y-31382800D01*
X17682910Y-31382800D01*
X17814690Y-31382800D01*
X17814692Y-31382800D01*
X17941986Y-31348692D01*
X17941988Y-31348690D01*
X17941990Y-31348690D01*
X18056109Y-31282803D01*
X18056110Y-31282802D01*
X18056114Y-31282800D01*
X18078415Y-31260499D01*
X18102119Y-31236796D01*
X18156636Y-31209019D01*
X18172122Y-31207800D01*
X18675279Y-31207800D01*
X18733470Y-31226707D01*
X18745283Y-31236796D01*
X18749498Y-31241011D01*
X18749500Y-31241014D01*
X18842686Y-31334200D01*
X18842688Y-31334201D01*
X18842690Y-31334203D01*
X18956810Y-31400090D01*
X18956808Y-31400090D01*
X18956812Y-31400091D01*
X18956814Y-31400092D01*
X19084108Y-31434200D01*
X19084110Y-31434200D01*
X19215890Y-31434200D01*
X19215892Y-31434200D01*
X19343186Y-31400092D01*
X19343188Y-31400090D01*
X19343190Y-31400090D01*
X19457309Y-31334203D01*
X19457309Y-31334202D01*
X19457314Y-31334200D01*
X19550500Y-31241014D01*
X19558760Y-31226707D01*
X19616390Y-31126890D01*
X19616390Y-31126888D01*
X19616392Y-31126886D01*
X19650500Y-30999592D01*
X19650500Y-30867808D01*
X19616392Y-30740514D01*
X19616390Y-30740511D01*
X19616390Y-30740509D01*
X19550503Y-30626390D01*
X19550501Y-30626388D01*
X19550500Y-30626386D01*
X19457314Y-30533200D01*
X19457311Y-30533198D01*
X19457309Y-30533196D01*
X19343189Y-30467309D01*
X19343191Y-30467309D01*
X19293799Y-30454075D01*
X19215892Y-30433200D01*
X19084108Y-30433200D01*
X19006200Y-30454075D01*
X18956809Y-30467309D01*
X18842685Y-30533199D01*
X18838593Y-30536340D01*
X18780918Y-30556766D01*
X18778324Y-30556800D01*
X18172122Y-30556800D01*
X18113931Y-30537893D01*
X18102119Y-30527804D01*
X18056115Y-30481800D01*
X18056109Y-30481796D01*
X17941989Y-30415909D01*
X17941991Y-30415909D01*
X17892599Y-30402675D01*
X17814692Y-30381800D01*
X17682908Y-30381800D01*
X17605000Y-30402675D01*
X17555609Y-30415909D01*
X17441490Y-30481796D01*
X17348296Y-30574990D01*
X17282409Y-30689109D01*
X17266400Y-30748857D01*
X17248300Y-30816408D01*
X16437117Y-30816408D01*
X16924130Y-30329395D01*
X16978647Y-30301619D01*
X16994134Y-30300400D01*
X17059190Y-30300400D01*
X17059192Y-30300400D01*
X17186486Y-30266292D01*
X17186488Y-30266290D01*
X17186490Y-30266290D01*
X17300609Y-30200403D01*
X17300609Y-30200402D01*
X17300614Y-30200400D01*
X17393800Y-30107214D01*
X17393803Y-30107209D01*
X17459690Y-29993090D01*
X17459690Y-29993088D01*
X17459692Y-29993086D01*
X17493800Y-29865792D01*
X17493800Y-29734008D01*
X17464115Y-29623221D01*
X17467318Y-29562121D01*
X17505823Y-29514572D01*
X17559742Y-29498600D01*
X22163751Y-29498600D01*
X22163753Y-29498600D01*
X22246539Y-29476418D01*
X22246541Y-29476416D01*
X22246543Y-29476416D01*
X22320757Y-29433568D01*
X22320757Y-29433567D01*
X22320762Y-29433565D01*
X28615559Y-23138766D01*
X28615562Y-23138765D01*
X28676165Y-23078162D01*
X28687593Y-23058366D01*
X28718537Y-23027426D01*
X28717865Y-23026550D01*
X28723004Y-23022605D01*
X28723014Y-23022600D01*
X28816200Y-22929414D01*
X28816203Y-22929409D01*
X28882090Y-22815290D01*
X28882090Y-22815288D01*
X28882092Y-22815286D01*
X28916200Y-22687992D01*
X28916200Y-22556208D01*
X28882092Y-22428914D01*
X28882090Y-22428911D01*
X28882090Y-22428909D01*
X28816203Y-22314790D01*
X28816201Y-22314788D01*
X28816200Y-22314786D01*
X28723014Y-22221600D01*
X28723011Y-22221598D01*
X28723009Y-22221596D01*
X28608889Y-22155709D01*
X28608891Y-22155709D01*
X28559499Y-22142475D01*
X28481592Y-22121600D01*
X28349808Y-22121600D01*
X28239121Y-22151257D01*
X28178021Y-22148055D01*
X28130471Y-22109550D01*
X28114500Y-22055631D01*
X28114500Y-21886134D01*
X28133407Y-21827943D01*
X28143496Y-21816130D01*
X28593630Y-21365996D01*
X28648147Y-21338219D01*
X28663634Y-21337000D01*
X28728690Y-21337000D01*
X28728692Y-21337000D01*
X28855986Y-21302892D01*
X28945453Y-21251237D01*
X29005300Y-21238516D01*
X29061196Y-21263402D01*
X29064957Y-21266970D01*
X29065298Y-21267311D01*
X29065300Y-21267314D01*
X29158486Y-21360500D01*
X29158488Y-21360501D01*
X29158490Y-21360503D01*
X29272610Y-21426390D01*
X29272608Y-21426390D01*
X29272612Y-21426391D01*
X29272614Y-21426392D01*
X29399908Y-21460500D01*
X29399910Y-21460500D01*
X29531690Y-21460500D01*
X29531692Y-21460500D01*
X29658986Y-21426392D01*
X29658988Y-21426390D01*
X29658990Y-21426390D01*
X29773109Y-21360503D01*
X29773109Y-21360502D01*
X29773114Y-21360500D01*
X29866300Y-21267314D01*
X29901069Y-21207092D01*
X29932190Y-21153190D01*
X29932190Y-21153188D01*
X29932192Y-21153186D01*
X29966300Y-21025892D01*
X29966300Y-20894108D01*
X29932192Y-20766814D01*
X29932190Y-20766811D01*
X29932190Y-20766809D01*
X29866303Y-20652690D01*
X29866301Y-20652688D01*
X29866300Y-20652686D01*
X29773114Y-20559500D01*
X29773111Y-20559498D01*
X29768526Y-20554913D01*
X29770697Y-20552741D01*
X29743175Y-20512690D01*
X29739100Y-20484579D01*
X29739100Y-19732135D01*
X29758007Y-19673944D01*
X29768096Y-19662131D01*
X30242831Y-19187396D01*
X30297348Y-19159619D01*
X30312835Y-19158400D01*
X30918065Y-19158400D01*
X30976256Y-19177307D01*
G37*
%TD.AperFunction*%
%TA.AperFunction,Conductor*%
G36*
X22232356Y-24444407D02*
G01*
X22244169Y-24454496D01*
X22421209Y-24631536D01*
X22448986Y-24686053D01*
X22439415Y-24746485D01*
X22436947Y-24751029D01*
X22433608Y-24756814D01*
X22399500Y-24884108D01*
X22399500Y-25015892D01*
X22421509Y-25098030D01*
X22433609Y-25143190D01*
X22499496Y-25257309D01*
X22499498Y-25257311D01*
X22499500Y-25257314D01*
X22592686Y-25350500D01*
X22592688Y-25350501D01*
X22592690Y-25350503D01*
X22706810Y-25416390D01*
X22706811Y-25416390D01*
X22706814Y-25416392D01*
X22746291Y-25426969D01*
X22797605Y-25460293D01*
X22819532Y-25517414D01*
X22803697Y-25576515D01*
X22790672Y-25592599D01*
X22129735Y-26253537D01*
X22086880Y-26327764D01*
X22086879Y-26327766D01*
X22078269Y-26359905D01*
X22078269Y-26359906D01*
X22064700Y-26410547D01*
X22064700Y-26588278D01*
X22045793Y-26646469D01*
X22035704Y-26658281D01*
X21989700Y-26704284D01*
X21989696Y-26704290D01*
X21923809Y-26818409D01*
X21917525Y-26841861D01*
X21889700Y-26945708D01*
X21889700Y-27077492D01*
X21907342Y-27143334D01*
X21923809Y-27204790D01*
X21989696Y-27318909D01*
X21989698Y-27318911D01*
X21989700Y-27318914D01*
X22082886Y-27412100D01*
X22082888Y-27412101D01*
X22082890Y-27412103D01*
X22197010Y-27477990D01*
X22197008Y-27477990D01*
X22197012Y-27477991D01*
X22197014Y-27477992D01*
X22324308Y-27512100D01*
X22324310Y-27512100D01*
X22456090Y-27512100D01*
X22456092Y-27512100D01*
X22583386Y-27477992D01*
X22583388Y-27477990D01*
X22583390Y-27477990D01*
X22697509Y-27412103D01*
X22697509Y-27412102D01*
X22697514Y-27412100D01*
X22790700Y-27318914D01*
X22796770Y-27308399D01*
X22842236Y-27267457D01*
X22903086Y-27261058D01*
X22956075Y-27291648D01*
X22961345Y-27298897D01*
X22961649Y-27298665D01*
X22965597Y-27303810D01*
X22965598Y-27303811D01*
X22965600Y-27303814D01*
X23058786Y-27397000D01*
X23058788Y-27397001D01*
X23058790Y-27397003D01*
X23172904Y-27462887D01*
X23172908Y-27462888D01*
X23172914Y-27462892D01*
X23172919Y-27462893D01*
X23175932Y-27464141D01*
X23177719Y-27465667D01*
X23178533Y-27466137D01*
X23178445Y-27466287D01*
X23222461Y-27503873D01*
X23236751Y-27563367D01*
X23213341Y-27619897D01*
X23208059Y-27625613D01*
X22015069Y-28818604D01*
X21960552Y-28846381D01*
X21945065Y-28847600D01*
X16747153Y-28847600D01*
X16661447Y-28847600D01*
X16610778Y-28861176D01*
X16578656Y-28869783D01*
X16504442Y-28912631D01*
X16504441Y-28912632D01*
X14704799Y-30712273D01*
X14650282Y-30740050D01*
X14589850Y-30730479D01*
X14549058Y-30691768D01*
X14547112Y-30688398D01*
X14518700Y-30639186D01*
X14518699Y-30639184D01*
X14472696Y-30593181D01*
X14444919Y-30538664D01*
X14443700Y-30523178D01*
X14443700Y-24762354D01*
X14462607Y-24704163D01*
X14512107Y-24668199D01*
X14573293Y-24668199D01*
X14613561Y-24696658D01*
X14614947Y-24695273D01*
X14619533Y-24699859D01*
X14619535Y-24699862D01*
X17780138Y-27860465D01*
X17780140Y-27860466D01*
X17780142Y-27860468D01*
X17854357Y-27903316D01*
X17854355Y-27903316D01*
X17854359Y-27903317D01*
X17854361Y-27903318D01*
X17937147Y-27925500D01*
X18926678Y-27925500D01*
X18984869Y-27944407D01*
X18996681Y-27954496D01*
X19042684Y-28000499D01*
X19042690Y-28000503D01*
X19156810Y-28066390D01*
X19156808Y-28066390D01*
X19156812Y-28066391D01*
X19156814Y-28066392D01*
X19284108Y-28100500D01*
X19284110Y-28100500D01*
X19415890Y-28100500D01*
X19415892Y-28100500D01*
X19543186Y-28066392D01*
X19543188Y-28066390D01*
X19543190Y-28066390D01*
X19657309Y-28000503D01*
X19657309Y-28000502D01*
X19657314Y-28000500D01*
X19750500Y-27907314D01*
X19754435Y-27900499D01*
X19816390Y-27793190D01*
X19816390Y-27793188D01*
X19816392Y-27793186D01*
X19850500Y-27665892D01*
X19850500Y-27534108D01*
X19816392Y-27406814D01*
X19816390Y-27406811D01*
X19816390Y-27406809D01*
X19750503Y-27292690D01*
X19750501Y-27292688D01*
X19750500Y-27292686D01*
X19657314Y-27199500D01*
X19657311Y-27199498D01*
X19657309Y-27199496D01*
X19543189Y-27133609D01*
X19543191Y-27133609D01*
X19493799Y-27120375D01*
X19415892Y-27099500D01*
X19284108Y-27099500D01*
X19206200Y-27120375D01*
X19156809Y-27133609D01*
X19042690Y-27199496D01*
X19042684Y-27199500D01*
X18996681Y-27245504D01*
X18942164Y-27273281D01*
X18926678Y-27274500D01*
X18155835Y-27274500D01*
X18097644Y-27255593D01*
X18085831Y-27245504D01*
X15711539Y-24871212D01*
X15683762Y-24816695D01*
X15693333Y-24756263D01*
X15736598Y-24712998D01*
X15797030Y-24703427D01*
X15807157Y-24705580D01*
X15880008Y-24725100D01*
X15880009Y-24725100D01*
X16011790Y-24725100D01*
X16011792Y-24725100D01*
X16139086Y-24690992D01*
X16139088Y-24690990D01*
X16139090Y-24690990D01*
X16253209Y-24625103D01*
X16253210Y-24625102D01*
X16253214Y-24625100D01*
X16254706Y-24623608D01*
X16299219Y-24579096D01*
X16353736Y-24551319D01*
X16369222Y-24550100D01*
X17432068Y-24550100D01*
X17481569Y-24563364D01*
X17486814Y-24566392D01*
X17614108Y-24600500D01*
X17614110Y-24600500D01*
X17745890Y-24600500D01*
X17745892Y-24600500D01*
X17873186Y-24566392D01*
X17873188Y-24566390D01*
X17873190Y-24566390D01*
X17987309Y-24500503D01*
X17987310Y-24500502D01*
X17987314Y-24500500D01*
X17999994Y-24487820D01*
X18033319Y-24454496D01*
X18087836Y-24426719D01*
X18103322Y-24425500D01*
X22174165Y-24425500D01*
X22232356Y-24444407D01*
G37*
%TD.AperFunction*%
%TA.AperFunction,Conductor*%
G36*
X45558691Y-18019407D02*
G01*
X45594655Y-18068907D01*
X45599500Y-18099500D01*
X45599500Y-21825500D01*
X45580593Y-21883691D01*
X45531093Y-21919655D01*
X45500500Y-21924500D01*
X44932109Y-21924500D01*
X44873918Y-21905593D01*
X44837954Y-21856093D01*
X44837954Y-21794907D01*
X44873918Y-21745407D01*
X44882602Y-21739767D01*
X44907314Y-21725500D01*
X45000500Y-21632314D01*
X45030779Y-21579869D01*
X45066390Y-21518190D01*
X45066390Y-21518188D01*
X45066392Y-21518186D01*
X45100500Y-21390892D01*
X45100500Y-21259108D01*
X45066392Y-21131814D01*
X45066390Y-21131811D01*
X45066390Y-21131809D01*
X45000503Y-21017690D01*
X45000501Y-21017688D01*
X45000500Y-21017686D01*
X44907314Y-20924500D01*
X44907311Y-20924498D01*
X44907309Y-20924496D01*
X44793189Y-20858609D01*
X44793191Y-20858609D01*
X44740090Y-20844381D01*
X44665892Y-20824500D01*
X44534108Y-20824500D01*
X44459910Y-20844381D01*
X44406809Y-20858609D01*
X44292690Y-20924496D01*
X44199496Y-21017690D01*
X44133609Y-21131809D01*
X44118620Y-21187750D01*
X44104299Y-21241200D01*
X44099500Y-21259109D01*
X44099500Y-21324165D01*
X44080593Y-21382356D01*
X44070504Y-21394168D01*
X43889535Y-21575137D01*
X43889531Y-21575142D01*
X43846683Y-21649356D01*
X43846682Y-21649361D01*
X43844084Y-21659059D01*
X43843855Y-21659912D01*
X43824500Y-21732147D01*
X43824500Y-25575500D01*
X43805593Y-25633691D01*
X43756093Y-25669655D01*
X43725500Y-25674500D01*
X36922853Y-25674500D01*
X36837147Y-25674500D01*
X36754362Y-25696682D01*
X36680138Y-25739535D01*
X36619535Y-25800138D01*
X36576682Y-25874362D01*
X36556386Y-25950111D01*
X36554500Y-25957148D01*
X36554500Y-27494678D01*
X36535593Y-27552869D01*
X36525504Y-27564681D01*
X36479500Y-27610684D01*
X36479496Y-27610690D01*
X36413609Y-27724809D01*
X36399407Y-27777814D01*
X36379500Y-27852108D01*
X36379500Y-27983892D01*
X36395509Y-28043638D01*
X36413609Y-28111190D01*
X36479496Y-28225309D01*
X36479498Y-28225311D01*
X36479500Y-28225314D01*
X36572686Y-28318500D01*
X36572688Y-28318501D01*
X36572690Y-28318503D01*
X36686810Y-28384390D01*
X36686808Y-28384390D01*
X36686812Y-28384391D01*
X36686814Y-28384392D01*
X36763254Y-28404873D01*
X36814567Y-28438197D01*
X36836494Y-28495318D01*
X36820659Y-28554419D01*
X36773109Y-28592924D01*
X36737630Y-28599500D01*
X34099499Y-28599500D01*
X34041308Y-28580593D01*
X34005344Y-28531093D01*
X34000499Y-28500500D01*
X34000499Y-18099500D01*
X34019406Y-18041309D01*
X34068906Y-18005345D01*
X34099499Y-18000500D01*
X39531007Y-18000500D01*
X45500500Y-18000500D01*
X45558691Y-18019407D01*
G37*
%TD.AperFunction*%
%TA.AperFunction,Conductor*%
G36*
X24335271Y-12174259D02*
G01*
X24360158Y-12230155D01*
X24360700Y-12240503D01*
X24360700Y-19565676D01*
X24347436Y-19615176D01*
X24302209Y-19693509D01*
X24291542Y-19733320D01*
X24268100Y-19820808D01*
X24268100Y-19952592D01*
X24295012Y-20053031D01*
X24302209Y-20079890D01*
X24368096Y-20194009D01*
X24368098Y-20194011D01*
X24368100Y-20194014D01*
X24461286Y-20287200D01*
X24461288Y-20287201D01*
X24461290Y-20287203D01*
X24575410Y-20353090D01*
X24575408Y-20353090D01*
X24575412Y-20353091D01*
X24575414Y-20353092D01*
X24702708Y-20387200D01*
X24702710Y-20387200D01*
X24834490Y-20387200D01*
X24834492Y-20387200D01*
X24961786Y-20353092D01*
X24961788Y-20353090D01*
X24961790Y-20353090D01*
X25075909Y-20287203D01*
X25075909Y-20287202D01*
X25075914Y-20287200D01*
X25169100Y-20194014D01*
X25214550Y-20115293D01*
X25234990Y-20079890D01*
X25234990Y-20079888D01*
X25234992Y-20079886D01*
X25253516Y-20010752D01*
X25286839Y-19959440D01*
X25343960Y-19937513D01*
X25403061Y-19953348D01*
X25419146Y-19966373D01*
X25652904Y-20200131D01*
X25680681Y-20254648D01*
X25681900Y-20270135D01*
X25681900Y-20335192D01*
X25706446Y-20426800D01*
X25716009Y-20462490D01*
X25781896Y-20576609D01*
X25781898Y-20576611D01*
X25781900Y-20576614D01*
X25875086Y-20669800D01*
X25875088Y-20669801D01*
X25875090Y-20669803D01*
X25989210Y-20735690D01*
X25989208Y-20735690D01*
X25989212Y-20735691D01*
X25989214Y-20735692D01*
X26116508Y-20769800D01*
X26116510Y-20769800D01*
X26248290Y-20769800D01*
X26248292Y-20769800D01*
X26375586Y-20735692D01*
X26375588Y-20735690D01*
X26375590Y-20735690D01*
X26489709Y-20669803D01*
X26489709Y-20669802D01*
X26489714Y-20669800D01*
X26582900Y-20576614D01*
X26589464Y-20565245D01*
X26648790Y-20462490D01*
X26648790Y-20462488D01*
X26648792Y-20462486D01*
X26682900Y-20335192D01*
X26682900Y-20203408D01*
X26648792Y-20076114D01*
X26648790Y-20076111D01*
X26648790Y-20076109D01*
X26582903Y-19961990D01*
X26582901Y-19961988D01*
X26582900Y-19961986D01*
X26489714Y-19868800D01*
X26489711Y-19868798D01*
X26489709Y-19868796D01*
X26375589Y-19802909D01*
X26375591Y-19802909D01*
X26326199Y-19789675D01*
X26248292Y-19768800D01*
X26248290Y-19768800D01*
X26183235Y-19768800D01*
X26125044Y-19749893D01*
X26113231Y-19739804D01*
X25492396Y-19118969D01*
X25464619Y-19064452D01*
X25463400Y-19048965D01*
X25463400Y-15530868D01*
X25482307Y-15472677D01*
X25531807Y-15436713D01*
X25588018Y-15435241D01*
X25698708Y-15464900D01*
X25763765Y-15464900D01*
X25821956Y-15483807D01*
X25833769Y-15493896D01*
X26802604Y-16462731D01*
X26830381Y-16517248D01*
X26831600Y-16532735D01*
X26831600Y-18205478D01*
X26812693Y-18263669D01*
X26802604Y-18275481D01*
X26756600Y-18321484D01*
X26756596Y-18321490D01*
X26690709Y-18435609D01*
X26671639Y-18506778D01*
X26656600Y-18562908D01*
X26656600Y-18694692D01*
X26686679Y-18806951D01*
X26690709Y-18821990D01*
X26756596Y-18936109D01*
X26756598Y-18936111D01*
X26756600Y-18936114D01*
X26849786Y-19029300D01*
X26849788Y-19029301D01*
X26849790Y-19029303D01*
X26963910Y-19095190D01*
X26963908Y-19095190D01*
X26963912Y-19095191D01*
X26963914Y-19095192D01*
X27011647Y-19107982D01*
X27062960Y-19141305D01*
X27084887Y-19198426D01*
X27084176Y-19216528D01*
X27083700Y-19220144D01*
X27083700Y-19700378D01*
X27064793Y-19758569D01*
X27054704Y-19770381D01*
X27008700Y-19816384D01*
X27008696Y-19816390D01*
X26942809Y-19930509D01*
X26929204Y-19981286D01*
X26908700Y-20057808D01*
X26908700Y-20189592D01*
X26926132Y-20254648D01*
X26942809Y-20316890D01*
X27008696Y-20431009D01*
X27008698Y-20431011D01*
X27008700Y-20431014D01*
X27101886Y-20524200D01*
X27101888Y-20524201D01*
X27101890Y-20524203D01*
X27216010Y-20590090D01*
X27216008Y-20590090D01*
X27216012Y-20590091D01*
X27216014Y-20590092D01*
X27343308Y-20624200D01*
X27343310Y-20624200D01*
X27475091Y-20624200D01*
X27475092Y-20624200D01*
X27506131Y-20615883D01*
X27567233Y-20619084D01*
X27614783Y-20657589D01*
X27630619Y-20716689D01*
X27608693Y-20773811D01*
X27601759Y-20781513D01*
X25973892Y-22409379D01*
X25919375Y-22437156D01*
X25858943Y-22427585D01*
X25815678Y-22384320D01*
X25808261Y-22364998D01*
X25805108Y-22353229D01*
X25780292Y-22260614D01*
X25780290Y-22260611D01*
X25780290Y-22260609D01*
X25714403Y-22146490D01*
X25714401Y-22146488D01*
X25714400Y-22146486D01*
X25621214Y-22053300D01*
X25621211Y-22053298D01*
X25621209Y-22053296D01*
X25507089Y-21987409D01*
X25507091Y-21987409D01*
X25457699Y-21974175D01*
X25379792Y-21953300D01*
X25379790Y-21953300D01*
X25314735Y-21953300D01*
X25256544Y-21934393D01*
X25244732Y-21924304D01*
X25072462Y-21752035D01*
X25072457Y-21752031D01*
X24998242Y-21709183D01*
X24998244Y-21709183D01*
X24966121Y-21700576D01*
X24915453Y-21687000D01*
X20436547Y-21687000D01*
X20395154Y-21698091D01*
X20353760Y-21709182D01*
X20305471Y-21737062D01*
X20279540Y-21752033D01*
X19309169Y-22722404D01*
X19254652Y-22750181D01*
X19239165Y-22751400D01*
X19237200Y-22751400D01*
X19179009Y-22732493D01*
X19143045Y-22682993D01*
X19138200Y-22652400D01*
X19138200Y-22598033D01*
X19157107Y-22539842D01*
X19167190Y-22528035D01*
X23950259Y-17744966D01*
X23950262Y-17744965D01*
X24010865Y-17684362D01*
X24047747Y-17620480D01*
X24053718Y-17610139D01*
X24075901Y-17527353D01*
X24075901Y-17441647D01*
X24075901Y-17435585D01*
X24075900Y-17435567D01*
X24075900Y-12350421D01*
X24094807Y-12292230D01*
X24104890Y-12280423D01*
X24150900Y-12234414D01*
X24175963Y-12191002D01*
X24221433Y-12150062D01*
X24282283Y-12143666D01*
X24335271Y-12174259D01*
G37*
%TD.AperFunction*%
%TD*%
M02*
